# MagicaVoxel @ Ephtracy

# group
o 

# material
mtllib leak.mtl
usemtl palette

# normals
vn -1 0 0
vn 1 0 0
vn 0 0 1
vn 0 0 -1
vn 0 -1 0
vn 0 1 0

# texcoords
vt 0.0410156 0.5
vt 0.0644531 0.5
vt 0.0683594 0.5
vt 0.0761719 0.5
vt 0.0800781 0.5
vt 0.0839844 0.5
vt 0.0878906 0.5

# verts
v -2.5 0 1.1
v -2.5 0 -2.38419e-07
v -2.5 0.3 1.1
v -2.5 0.3 -2.38419e-07
v -2.4 0.3 0.9
v -2.4 0.3 0.3
v -2.4 0.4 0.9
v -2.4 0.4 0.3
v -2.3 0 1.4
v -2.3 0 1.1
v -2.3 0 -2.38419e-07
v -2.3 0 -2
v -2.3 0.2 2.2
v -2.3 0.2 1.4
v -2.3 0.2 1.2
v -2.3 0.2 1.1
v -2.3 0.2 -2.38419e-07
v -2.3 0.2 -2
v -2.3 0.3 2.2
v -2.3 0.3 1.2
v -2.2 0.2 -2.38419e-07
v -2.2 0.2 -1
v -2.2 0.3 -2.38419e-07
v -2.2 0.3 -1
v -2.1 0 -2
v -2.1 0 -2.2
v -2.1 0.2 -1.9
v -2.1 0.2 -2
v -2.1 0.3 -1.9
v -2.1 0.3 -2.2
v -2 0 2.5
v -2 0 2.2
v -2 0 1.4
v -2 0.1 2.2
v -2 0.1 2
v -2 0.1 1.4
v -2 0.2 2.5
v -2 0.2 2.2
v -2 0.2 2
v -2 0.2 1.2
v -2 0.2 1.1
v -2 0.2 -1.3
v -2 0.2 -1.6
v -2 0.2 -1.7
v -2 0.3 1.2
v -2 0.3 1.1
v -2 0.3 -1.3
v -2 0.3 -1.6
v -2 0.3 -1.7
v -1.9 0 -2.2
v -1.9 0 -2.5
v -1.9 0.1 -2.2
v -1.9 0.1 -2.5
v -1.9 0.2 -1
v -1.9 0.2 -1.3
v -1.9 0.3 0.0999999
v -1.9 0.3 -0.3
v -1.9 0.3 -1
v -1.9 0.3 -1.3
v -1.9 0.4 0.0999999
v -1.9 0.4 -0.3
v -1.8 0.1 2
v -1.8 0.1 1.6
v -1.8 0.2 2.5
v -1.8 0.2 2.4
v -1.8 0.2 2.3
v -1.8 0.2 2
v -1.8 0.2 1.6
v -1.8 0.3 2.4
v -1.8 0.3 2.3
v -1.8 0.3 0.2
v -1.8 0.3 0.0999999
v -1.8 0.3 -0.9
v -1.8 0.3 -1
v -1.8 0.3 -1.1
v -1.8 0.3 -1.3
v -1.8 0.3 -1.6
v -1.8 0.4 0.2
v -1.8 0.4 0.0999999
v -1.8 0.4 -0.9
v -1.8 0.4 -1.1
v -1.8 0.4 -1.3
v -1.8 0.4 -1.6
v -1.8 0.5 2.5
v -1.8 0.5 2.3
v -1.7 0.1 1.6
v -1.7 0.1 1.4
v -1.7 0.2 1.6
v -1.7 0.2 1.4
v -1.7 0.2 -0.3
v -1.7 0.2 -0.4
v -1.7 0.2 -1.2
v -1.7 0.2 -1.3
v -1.7 0.2 -1.8
v -1.7 0.2 -1.9
v -1.7 0.3 -0.3
v -1.7 0.3 -0.4
v -1.7 0.3 -1.2
v -1.7 0.3 -1.3
v -1.7 0.3 -1.8
v -1.7 0.3 -1.9
v -1.6 0.1 0.0999999
v -1.6 0.1 -2.38419e-07
v -1.6 0.2 0.0999999
v -1.6 0.2 -2.38419e-07
v -1.6 0.2 -1.7
v -1.6 0.2 -1.8
v -1.6 0.3 -1.7
v -1.6 0.3 -1.8
v -1.4 0.2 -1.8
v -1.4 0.2 -1.9
v -1.4 0.3 -1.8
v -1.4 0.3 -1.9
v -1.3 0.1 -1.7
v -1.3 0.1 -1.8
v -1.3 0.2 2.2
v -1.3 0.2 2.1
v -1.3 0.2 -1.7
v -1.3 0.2 -1.8
v -1.3 0.3 2.2
v -1.3 0.3 2.1
v -1.2 0.1 1.9
v -1.2 0.1 1.7
v -1.2 0.1 -1.6
v -1.2 0.1 -1.7
v -1.2 0.2 2
v -1.2 0.2 1.9
v -1.2 0.2 1.8
v -1.2 0.2 1.7
v -1.2 0.2 -1.6
v -1.2 0.2 -1.7
v -1.2 0.3 2
v -1.2 0.3 1.8
v -1.2 0.3 1.7
v -1.2 0.4 2.3
v -1.2 0.4 2
v -1.2 0.4 1.8
v -1.2 0.4 1.7
v -1.2 0.5 2.3
v -1.2 0.5 2
v -1.1 0.1 1.7
v -1.1 0.1 1.6
v -1.1 0.2 2.4
v -1.1 0.2 2.2
v -1.1 0.2 1.8
v -1.1 0.2 1.7
v -1.1 0.3 2.4
v -1.1 0.3 2.2
v -1.1 0.3 1.8
v -1.1 0.3 1.7
v -1.1 0.3 1.6
v -1.1 0.4 1.8
v -1.1 0.4 1.7
v -1.1 0.5 1.8
v -1.1 0.5 1.7
v -0.9 0.1 -1.7
v -0.9 0.1 -1.8
v -0.9 0.2 -1.7
v -0.9 0.2 -1.8
v -0.8 0.1 -1.6
v -0.8 0.1 -1.7
v -0.8 0.2 -1.6
v -0.8 0.2 -1.7
v -0.7 0.3 2.4
v -0.7 0.3 2.2
v -0.7 0.3 2
v -0.7 0.3 1.8
v -0.7 0.3 -1.9
v -0.7 0.3 -2
v -0.7 0.4 2.4
v -0.7 0.4 2.2
v -0.7 0.4 2
v -0.7 0.4 1.8
v -0.7 0.4 -1.9
v -0.7 0.4 -2
v -0.6 0.1 1.6
v -0.6 0.1 1.5
v -0.6 0.1 -1.4
v -0.6 0.1 -1.6
v -0.6 0.1 -2.2
v -0.6 0.1 -2.4
v -0.6 0.2 1.6
v -0.6 0.2 1.5
v -0.6 0.2 -1.4
v -0.6 0.2 -1.6
v -0.6 0.3 -2.1
v -0.6 0.3 -2.2
v -0.6 0.4 -2.1
v -0.6 0.4 -2.4
v -0.4 0.3 1.7
v -0.4 0.3 1.6
v -0.4 0.4 1.7
v -0.4 0.4 1.6
v -0.3 0.1 -1.6
v -0.3 0.1 -1.7
v -0.3 0.2 -1.6
v -0.3 0.2 -1.7
v -0.0999999 0.1 -1.3
v -0.0999999 0.1 -1.6
v -0.0999999 0.2 -1.3
v -0.0999999 0.2 -1.6
v 2.38419e-07 0.1 -1.1
v 2.38419e-07 0.1 -1.3
v 2.38419e-07 0.2 -1.1
v 2.38419e-07 0.2 -1.3
v 0.1 0.1 -0.8
v 0.1 0.1 -1.1
v 0.1 0.2 -0.8
v 0.1 0.2 -1.1
v 0.1 0.2 -1.2
v 0.1 0.2 -1.8
v 0.1 0.3 -1.2
v 0.1 0.3 -1.8
v 0.2 0.1 -0.7
v 0.2 0.1 -0.8
v 0.2 0.2 -0.7
v 0.2 0.2 -0.8
v 0.2 0.2 -0.9
v 0.2 0.2 -1.2
v 0.2 0.3 -0.9
v 0.2 0.3 -1.2
v 0.3 0.2 1.8
v 0.3 0.2 1.7
v 0.3 0.3 1.8
v 0.3 0.3 1.7
v 0.4 0.1 1.7
v 0.4 0.1 1.6
v 0.4 0.2 1.7
v 0.4 0.2 1.6
v 0.6 0.2 1.8
v 0.6 0.2 1.7
v 0.6 0.3 1.8
v 0.6 0.3 1.7
v 0.7 0.2 1.9
v 0.7 0.2 1.8
v 0.7 0.3 1.9
v 0.7 0.3 1.8
v 0.9 0.1 -1.4
v 0.9 0.1 -1.5
v 0.9 0.2 -1.4
v 0.9 0.2 -1.5
v 1 0.2 2.1
v 1 0.2 2
v 1 0.3 2.1
v 1 0.3 2
v 1.1 0.1 2.4
v 1.1 0.1 2.3
v 1.1 0.1 -1.2
v 1.1 0.1 -1.4
v 1.1 0.2 2.3
v 1.1 0.2 2.2
v 1.1 0.2 2.1
v 1.1 0.2 -1.2
v 1.1 0.2 -1.4
v 1.1 0.3 2.4
v 1.1 0.3 2.2
v 1.1 0.3 2.1
v 1.3 0 2.5
v 1.3 0 2.2
v 1.3 0.1 2.4
v 1.3 0.1 2.2
v 1.3 0.1 1.9
v 1.3 0.1 1.8
v 1.3 0.1 -1.2
v 1.3 0.1 -1.3
v 1.3 0.2 2.5
v 1.3 0.2 2.4
v 1.3 0.2 1.9
v 1.3 0.2 1.8
v 1.3 0.2 -1.2
v 1.3 0.2 -1.3
v 1.3 0.2 -1.4
v 1.3 0.2 -1.5
v 1.3 0.2 -1.7
v 1.3 0.2 -1.9
v 1.3 0.2 -2.3
v 1.3 0.3 -1.4
v 1.3 0.3 -1.5
v 1.3 0.3 -1.8
v 1.3 0.3 -1.9
v 1.3 0.4 -1.8
v 1.3 0.4 -1.9
v 1.3 0.4 -2.1
v 1.3 0.4 -2.3
v 1.3 0.5 -1.9
v 1.3 0.5 -2.1
v 1.4 0.4 -1.8
v 1.4 0.4 -1.9
v 1.4 0.5 -1.8
v 1.4 0.5 -1.9
v 1.4 0.5 -2.1
v 1.4 0.6 -1.9
v 1.4 0.6 -2.1
v 1.5 0.1 1.8
v 1.5 0.1 1.7
v 1.5 0.1 -1.2
v 1.5 0.1 -1.3
v 1.5 0.2 1.8
v 1.5 0.2 1.7
v 1.5 0.2 -1.2
v 1.5 0.2 -1.3
v 1.5 0.4 -2.1
v 1.5 0.4 -2.2
v 1.5 0.5 -2.1
v 1.5 0.5 -2.2
v 1.6 0.1 1.7
v 1.6 0.1 1.6
v 1.6 0.1 1.1
v 1.6 0.1 -0.4
v 1.6 0.1 -0.7
v 1.6 0.1 -1
v 1.6 0.2 1.7
v 1.6 0.2 1.6
v 1.6 0.2 1.1
v 1.6 0.2 0.0999999
v 1.6 0.2 -0.1
v 1.6 0.2 -0.4
v 1.6 0.2 -0.7
v 1.6 0.2 -1
v 1.6 0.3 0.0999999
v 1.6 0.3 -0.1
v 1.7 0.1 1.6
v 1.7 0.1 1.1
v 1.7 0.1 -0.4
v 1.7 0.1 -0.7
v 1.7 0.1 -1
v 1.7 0.1 -1.2
v 1.7 0.2 1.6
v 1.7 0.2 1.1
v 1.7 0.2 0.2
v 1.7 0.2 0.0999999
v 1.7 0.2 -0.1
v 1.7 0.2 -0.4
v 1.7 0.2 -0.6
v 1.7 0.2 -0.7
v 1.7 0.2 -1
v 1.7 0.2 -1.2
v 1.7 0.3 1.1
v 1.7 0.3 0.2
v 1.7 0.3 0.0999999
v 1.7 0.3 -0.1
v 1.7 0.3 -0.4
v 1.7 0.3 -0.6
v 1.7 0.3 -0.7
v 1.8 0.2 1.7
v 1.8 0.2 1.4
v 1.8 0.2 -0.4
v 1.8 0.2 -0.6
v 1.8 0.2 -0.7
v 1.8 0.2 -0.8
v 1.8 0.3 1.7
v 1.8 0.3 1.4
v 1.8 0.3 -0.4
v 1.8 0.3 -0.6
v 1.8 0.3 -0.7
v 1.8 0.3 -0.8
v 1.9 0.2 -0.2
v 1.9 0.2 -0.3
v 1.9 0.3 1
v 1.9 0.3 0.8
v 1.9 0.3 0.3
v 1.9 0.3 -0.2
v 1.9 0.3 -0.3
v 1.9 0.4 1
v 1.9 0.4 0.3
v 2 0.3 -1.7
v 2 0.3 -2
v 2 0.4 -1.7
v 2 0.4 -2
v -2.1 0.3 0.9
v -2.1 0.3 0.3
v -2.1 0.4 0.9
v -2.1 0.4 0.3
v -1.8 0.2 -0.3
v -1.8 0.2 -0.4
v -1.8 0.2 -1.2
v -1.8 0.2 -1.3
v -1.8 0.3 -0.1
v -1.8 0.3 -0.3
v -1.8 0.3 -0.4
v -1.8 0.3 -1.2
v -1.8 0.3 -1.3
v -1.8 0.4 -0.1
v -1.8 0.4 -0.3
v -1.7 0.1 0.0999999
v -1.7 0.1 -2.38419e-07
v -1.7 0.2 2.2
v -1.7 0.2 2.1
v -1.7 0.2 1.7
v -1.7 0.2 1.4
v -1.7 0.2 0.5
v -1.7 0.2 0.3
v -1.7 0.2 0.0999999
v -1.7 0.2 -2.38419e-07
v -1.7 0.3 2.2
v -1.7 0.3 2.1
v -1.7 0.3 1.7
v -1.7 0.3 1.4
v -1.7 0.3 0.5
v -1.7 0.3 0.3
v -1.7 0.3 0.2
v -1.7 0.3 -0.1
v -1.7 0.3 -0.9
v -1.7 0.3 -1.1
v -1.7 0.4 0.2
v -1.7 0.4 -0.1
v -1.7 0.4 -0.9
v -1.7 0.4 -1.1
v -1.6 0.1 1.9
v -1.6 0.1 1.6
v -1.6 0.1 0.4
v -1.6 0.1 0.0999999
v -1.6 0.2 2
v -1.6 0.2 1.9
v -1.6 0.2 1.7
v -1.6 0.2 1.6
v -1.6 0.2 1.4
v -1.6 0.2 0.5
v -1.6 0.2 0.4
v -1.6 0.2 0.3
v -1.6 0.2 0.0999999
v -1.6 0.2 -1.7
v -1.6 0.3 2
v -1.6 0.3 1.7
v -1.6 0.3 1.4
v -1.6 0.3 0.5
v -1.6 0.3 0.3
v -1.6 0.3 -1.3
v -1.6 0.3 -1.6
v -1.6 0.3 -1.7
v -1.6 0.4 -1.3
v -1.6 0.4 -1.6
v -1.5 0.1 1.6
v -1.5 0.1 1
v -1.5 0.1 0.6
v -1.5 0.1 0.4
v -1.5 0.1 -0.2
v -1.5 0.1 -0.3
v -1.5 0.1 -0.7
v -1.5 0.1 -1.2
v -1.5 0.1 -1.4
v -1.5 0.1 -1.8
v -1.5 0.2 1.6
v -1.5 0.2 1
v -1.5 0.2 0.6
v -1.5 0.2 0.4
v -1.5 0.2 -0.2
v -1.5 0.2 -0.3
v -1.5 0.2 -0.7
v -1.5 0.2 -1.2
v -1.5 0.2 -1.4
v -1.5 0.2 -1.7
v -1.5 0.2 -1.8
v -1.5 0.2 -1.9
v -1.5 0.3 -1.7
v -1.5 0.3 -1.9
v -1.4 0.1 1
v -1.4 0.1 0.6
v -1.4 0.1 0.0999999
v -1.4 0.1 -0.2
v -1.4 0.1 -0.3
v -1.4 0.1 -0.7
v -1.4 0.1 -1.2
v -1.4 0.1 -1.4
v -1.4 0.2 1
v -1.4 0.2 0.6
v -1.4 0.2 0.0999999
v -1.4 0.2 -0.2
v -1.4 0.2 -0.3
v -1.4 0.2 -0.7
v -1.4 0.2 -1.2
v -1.4 0.2 -1.4
v -1.2 0.2 2.5
v -1.2 0.2 2.4
v -1.2 0.2 2.3
v -1.2 0.4 2.5
v -1.2 0.4 2.4
v -1.2 0.4 2.3
v -1.1 0.3 2
v -1.1 0.3 1.8
v -1.1 0.4 2
v -1.1 0.4 1.8
v -1 0 2.5
v -1 0 2.2
v -1 0.1 2.4
v -1 0.1 2.2
v -1 0.1 -1.6
v -1 0.1 -1.8
v -1 0.2 2.5
v -1 0.2 2.4
v -1 0.2 -1.6
v -1 0.2 -1.8
v -1 0.4 1.8
v -1 0.4 1.7
v -1 0.5 1.8
v -1 0.5 1.7
v -0.5 0.1 -1.4
v -0.5 0.1 -1.5
v -0.5 0.2 -1.4
v -0.5 0.2 -1.5
v -0.4 0.1 -1.5
v -0.4 0.1 -1.7
v -0.4 0.2 -1.5
v -0.4 0.2 -1.7
v -0.3 0 -2.4
v -0.3 0 -2.5
v -0.3 0.1 -2.4
v -0.3 0.1 -2.5
v -0.3 0.3 1.7
v -0.3 0.3 1.6
v -0.3 0.4 2.5
v -0.3 0.4 2.4
v -0.3 0.4 2.1
v -0.3 0.4 2
v -0.3 0.4 1.7
v -0.3 0.4 1.6
v -0.3 0.5 2.5
v -0.3 0.5 2
v -0.2 0.1 1.6
v -0.2 0.1 1.5
v -0.2 0.2 1.6
v -0.2 0.2 1.5
v -0.2 0.3 2.4
v -0.2 0.3 2.1
v -0.2 0.3 1.9
v -0.2 0.4 2.4
v -0.2 0.4 2.1
v -0.2 0.4 1.9
v -0.0999999 0.3 -1.9
v -0.0999999 0.3 -2
v -0.0999999 0.4 -1.9
v -0.0999999 0.4 -2
v 2.38419e-07 0.3 1.9
v 2.38419e-07 0.3 1.8
v 2.38419e-07 0.4 1.9
v 2.38419e-07 0.4 1.8
v 0.1 0.2 -1.8
v 0.1 0.2 -1.9
v 0.1 0.3 -1.8
v 0.1 0.3 -1.9
v 0.2 0.1 2.4
v 0.2 0.1 2.3
v 0.2 0.1 1.7
v 0.2 0.1 1.6
v 0.2 0.2 2.3
v 0.2 0.2 2.1
v 0.2 0.2 1.9
v 0.2 0.2 1.8
v 0.2 0.2 1.7
v 0.2 0.2 -1.7
v 0.2 0.2 -1.8
v 0.2 0.3 2.4
v 0.2 0.3 2.1
v 0.2 0.3 1.9
v 0.2 0.3 1.8
v 0.2 0.3 1.7
v 0.2 0.3 1.6
v 0.2 0.3 -1.7
v 0.2 0.3 -1.8
v 0.2 0.4 1.8
v 0.2 0.4 1.7
v 0.3 0 -2.3
v 0.3 0 -2.4
v 0.3 0.1 -0.7
v 0.3 0.1 -0.8
v 0.3 0.2 1.9
v 0.3 0.2 1.8
v 0.3 0.2 -0.7
v 0.3 0.2 -0.8
v 0.3 0.2 -0.9
v 0.3 0.2 -1.2
v 0.3 0.2 -1.9
v 0.3 0.2 -2
v 0.3 0.2 -2.3
v 0.3 0.3 1.9
v 0.3 0.3 1.8
v 0.3 0.3 -0.9
v 0.3 0.3 -1.2
v 0.3 0.3 -1.9
v 0.3 0.3 -2
v 0.3 0.3 -2.1
v 0.3 0.4 -2.1
v 0.3 0.4 -2.4
v 0.4 0.1 -0.8
v 0.4 0.1 -0.9
v 0.4 0.2 1.8
v 0.4 0.2 1.7
v 0.4 0.2 -0.8
v 0.4 0.2 -0.9
v 0.4 0.2 -1.2
v 0.4 0.2 -1.7
v 0.4 0.3 1.8
v 0.4 0.3 1.7
v 0.4 0.3 -1.2
v 0.4 0.3 -1.7
v 0.5 0.1 -0.9
v 0.5 0.1 -1.3
v 0.5 0.2 -0.9
v 0.5 0.2 -1.3
v 0.6 0.1 1.7
v 0.6 0.1 1.6
v 0.6 0.2 1.7
v 0.6 0.2 1.6
v 0.7 0.1 -1.3
v 0.7 0.1 -1.5
v 0.7 0.2 -1.3
v 0.7 0.2 -1.5
v 0.8 0.2 1.8
v 0.8 0.2 1.7
v 0.8 0.3 1.8
v 0.8 0.3 1.7
v 1.1 0.1 1.9
v 1.1 0.1 1.8
v 1.1 0.1 1.7
v 1.1 0.2 1.9
v 1.1 0.2 1.8
v 1.1 0.2 1.7
v 1.1 0.3 1.9
v 1.1 0.3 1.8
v 1.2 0.1 -1.2
v 1.2 0.1 -1.3
v 1.2 0.2 2.1
v 1.2 0.2 2
v 1.2 0.2 -1.2
v 1.2 0.2 -1.3
v 1.2 0.3 2.1
v 1.2 0.3 2
v 1.4 0.1 -1.2
v 1.4 0.1 -1.3
v 1.4 0.2 -1.2
v 1.4 0.2 -1.3
v 1.7 0.2 2.4
v 1.7 0.2 2.1
v 1.7 0.2 -1.4
v 1.7 0.2 -1.5
v 1.7 0.3 2.4
v 1.7 0.3 2.1
v 1.7 0.3 -1.4
v 1.7 0.3 -1.5
v 1.7 0.3 -1.8
v 1.7 0.3 -1.9
v 1.7 0.4 -1.9
v 1.7 0.4 -2
v 1.7 0.5 -1.8
v 1.7 0.5 -1.9
v 1.7 0.5 -2
v 1.7 0.5 -2.1
v 1.7 0.6 -1.9
v 1.7 0.6 -2.1
v 1.8 0.2 0.2
v 1.8 0.2 -0.3
v 1.8 0.3 0.2
v 1.8 0.3 -0.3
v 1.8 0.4 -2
v 1.8 0.4 -2.2
v 1.8 0.5 -2
v 1.8 0.5 -2.2
v 1.9 0.2 1.7
v 1.9 0.2 1.4
v 1.9 0.3 1.7
v 1.9 0.3 1.4
v 1.9 0.3 -1.9
v 1.9 0.3 -2.3
v 1.9 0.4 -1.9
v 1.9 0.4 -2.3
v 2 0.1 0.9
v 2 0.1 0.5
v 2 0.2 1.1
v 2 0.2 1
v 2 0.2 0.9
v 2 0.2 0.5
v 2 0.2 0.3
v 2 0.2 0.2
v 2 0.3 1.1
v 2 0.3 1
v 2 0.3 0.3
v 2 0.3 0.2
v 2.1 0 2.5
v 2.1 0 2.3
v 2.1 0 0.9
v 2.1 0 0.5
v 2.1 0 -0.4
v 2.1 0 -0.9
v 2.1 0.1 0.9
v 2.1 0.1 0.5
v 2.1 0.1 -0.4
v 2.1 0.1 -0.9
v 2.1 0.2 2.5
v 2.1 0.2 2.3
v 2.2 0 -2.2
v 2.2 0 -2.3
v 2.2 0.1 -0.4
v 2.2 0.1 -0.9
v 2.2 0.2 -0.2
v 2.2 0.2 -0.4
v 2.2 0.2 -0.8
v 2.2 0.2 -0.9
v 2.2 0.2 -1.5
v 2.2 0.2 -2.2
v 2.2 0.3 -0.2
v 2.2 0.3 -0.8
v 2.2 0.3 -1.5
v 2.2 0.3 -1.7
v 2.2 0.3 -2
v 2.2 0.3 -2.3
v 2.2 0.4 -1.7
v 2.2 0.4 -2
v 2.3 0 2.3
v 2.3 0 0.9
v 2.3 0.2 2.3
v 2.3 0.2 1
v 2.3 0.2 0.9
v 2.3 0.2 0.5
v 2.3 0.2 0.3
v 2.3 0.4 1
v 2.3 0.4 0.3
v 2.4 0 -0.9
v 2.4 0 -2.2
v 2.4 0.2 -0.9
v 2.4 0.2 -2.2
v 2.5 0 0.5
v 2.5 0 -0.4
v 2.5 0.2 0.5
v 2.5 0.2 -0.4
v -2 0 2.5
v -2 0.2 2.5
v -1.8 0.2 2.5
v -1.8 0.5 2.5
v -1.2 0.2 2.5
v -1.2 0.4 2.5
v -1 0 2.5
v -1 0.2 2.5
v -0.3 0.4 2.5
v -0.3 0.5 2.5
v 1.3 0 2.5
v 1.3 0.2 2.5
v 2.1 0 2.5
v 2.1 0.2 2.5
v -1.1 0.2 2.4
v -1.1 0.3 2.4
v -1 0.1 2.4
v -1 0.2 2.4
v -0.7 0.3 2.4
v -0.7 0.4 2.4
v -0.3 0.4 2.4
v -0.2 0.3 2.4
v -0.2 0.4 2.4
v 0.2 0.1 2.4
v 0.2 0.3 2.4
v 1.1 0.1 2.4
v 1.1 0.3 2.4
v 1.3 0.1 2.4
v 1.3 0.2 2.4
v 1.7 0.2 2.4
v 1.7 0.3 2.4
v 0.2 0.1 2.3
v 0.2 0.2 2.3
v 1.1 0.1 2.3
v 1.1 0.2 2.3
v 2.1 0 2.3
v 2.1 0.2 2.3
v 2.3 0 2.3
v 2.3 0.2 2.3
v -2.3 0.2 2.2
v -2.3 0.3 2.2
v -2 0.2 2.2
v -1.8 0.2 2.2
v -1.8 0.3 2.2
v -1.7 0.2 2.2
v -1.7 0.3 2.2
v -1.3 0.2 2.2
v -1.3 0.3 2.2
v -1.1 0.2 2.2
v -1.1 0.3 2.2
v -1 0 2.2
v -1 0.1 2.2
v 1.3 0 2.2
v 1.3 0.1 2.2
v -1.7 0.2 2.1
v -1.7 0.3 2.1
v -1.3 0.2 2.1
v -1.3 0.3 2.1
v 1 0.2 2.1
v 1 0.3 2.1
v 1.1 0.2 2.1
v 1.1 0.3 2.1
v -1.2 0.3 2
v -1.2 0.4 2
v -1.1 0.3 2
v -1.1 0.4 2
v -0.2 0.3 1.9
v -0.2 0.4 1.9
v 2.38419e-07 0.3 1.9
v 2.38419e-07 0.4 1.9
v 0.2 0.2 1.9
v 0.2 0.3 1.9
v 0.3 0.2 1.9
v 0.3 0.3 1.9
v 0.7 0.2 1.9
v 0.7 0.3 1.9
v 1.1 0.2 1.9
v 1.1 0.3 1.9
v -1.1 0.3 1.8
v -1.1 0.4 1.8
v -1.1 0.5 1.8
v -1 0.4 1.8
v -1 0.5 1.8
v -0.7 0.3 1.8
v -0.7 0.4 1.8
v 2.38419e-07 0.3 1.8
v 2.38419e-07 0.4 1.8
v 0.2 0.3 1.8
v 0.2 0.4 1.8
v 0.3 0.2 1.8
v 0.3 0.3 1.8
v 0.4 0.2 1.8
v 0.4 0.3 1.8
v 0.6 0.2 1.8
v 0.6 0.3 1.8
v 0.7 0.2 1.8
v 0.7 0.3 1.8
v 1.8 0.2 1.7
v 1.8 0.3 1.7
v 1.9 0.2 1.7
v 1.9 0.3 1.7
v -1.6 0.1 1.6
v -1.6 0.2 1.6
v -1.5 0.1 1.6
v -1.5 0.2 1.6
v -2.3 0 1.4
v -2.3 0.2 1.4
v -2 0 1.4
v -2 0.1 1.4
v -1.9 0.2 1.4
v -1.7 0.1 1.4
v -1.7 0.2 1.4
v -1.7 0.3 1.4
v -1.6 0.2 1.4
v -1.6 0.3 1.4
v -2.5 0 1.1
v -2.5 0.3 1.1
v -2.3 0 1.1
v -2.3 0.2 1.1
v -2.1 0.2 1.1
v -2.1 0.3 1.1
v -2 0.2 1.1
v -2 0.3 1.1
v 1.6 0.1 1.1
v 1.6 0.2 1.1
v 1.7 0.1 1.1
v 1.7 0.2 1.1
v 1.7 0.3 1.1
v 1.8 0.2 1.1
v 1.9 0.2 1.1
v 1.9 0.3 1.1
v 2 0.2 1.1
v 2 0.3 1.1
v -1.5 0.1 1
v -1.5 0.2 1
v -1.4 0.1 1
v -1.4 0.2 1
v 1.9 0.3 1
v 1.9 0.4 1
v 2 0.2 1
v 2 0.3 1
v 2.2 0.2 1
v 2.3 0.2 1
v 2.3 0.4 1
v -2.4 0.3 0.9
v -2.4 0.4 0.9
v -2.1 0.3 0.9
v -2.1 0.4 0.9
v 2 0.1 0.5
v 2 0.2 0.5
v 2.1 0 0.5
v 2.1 0.1 0.5
v 2.2 0.1 0.5
v 2.2 0.2 0.5
v 2.3 0.2 0.5
v 2.5 0 0.5
v 2.5 0.2 0.5
v -1.7 0.2 0.3
v -1.7 0.3 0.3
v -1.6 0.2 0.3
v -1.6 0.3 0.3
v -1.8 0.3 0.2
v -1.8 0.4 0.2
v -1.7 0.3 0.2
v -1.7 0.4 0.2
v -1.9 0.3 0.0999999
v -1.9 0.4 0.0999999
v -1.8 0.3 0.0999999
v -1.8 0.4 0.0999999
v -1.6 0.1 0.0999999
v -1.6 0.2 0.0999999
v -1.4 0.1 0.0999999
v -1.4 0.2 0.0999999
v 1.6 0.2 0.0999999
v 1.6 0.3 0.0999999
v 1.7 0.2 0.0999999
v 1.7 0.3 0.0999999
v -1.7 0.1 -2.38419e-07
v -1.7 0.2 -2.38419e-07
v -1.6 0.1 -2.38419e-07
v -1.6 0.2 -2.38419e-07
v 1.9 0.2 -0.2
v 1.9 0.3 -0.2
v 2 0.2 -0.2
v 2.1 0.2 -0.2
v 2.1 0.3 -0.2
v 2.2 0.2 -0.2
v 2.2 0.3 -0.2
v -1.5 0.1 -0.3
v -1.5 0.2 -0.3
v -1.4 0.1 -0.3
v -1.4 0.2 -0.3
v 1.8 0.2 -0.3
v 1.8 0.3 -0.3
v 1.9 0.2 -0.3
v 1.9 0.3 -0.3
v -1.8 0.2 -0.4
v -1.8 0.3 -0.4
v -1.7 0.2 -0.4
v -1.7 0.3 -0.4
v 1.7 0.2 -0.6
v 1.7 0.3 -0.6
v 1.8 0.2 -0.6
v 1.8 0.3 -0.6
v 0.2 0.1 -0.7
v 0.2 0.2 -0.7
v 0.3 0.1 -0.7
v 0.3 0.2 -0.7
v 1.6 0.1 -0.7
v 1.6 0.2 -0.7
v 1.7 0.1 -0.7
v 1.7 0.2 -0.7
v 0.1 0.1 -0.8
v 0.1 0.2 -0.8
v 0.2 0.1 -0.8
v 0.2 0.2 -0.8
v 0.3 0.1 -0.8
v 0.3 0.2 -0.8
v 0.4 0.1 -0.8
v 0.4 0.2 -0.8
v -1.8 0.3 -0.9
v -1.8 0.4 -0.9
v -1.7 0.3 -0.9
v -1.7 0.4 -0.9
v 0.2 0.2 -0.9
v 0.2 0.3 -0.9
v 0.3 0.2 -0.9
v 0.3 0.3 -0.9
v 0.4 0.1 -0.9
v 0.4 0.2 -0.9
v 0.5 0.1 -0.9
v 0.5 0.2 -0.9
v 2.1 0 -0.9
v 2.1 0.1 -0.9
v 2.2 0.1 -0.9
v 2.2 0.2 -0.9
v 2.4 0 -0.9
v 2.4 0.2 -0.9
v 2.38419e-07 0.1 -1.1
v 2.38419e-07 0.2 -1.1
v 0.1 0.1 -1.1
v 0.1 0.2 -1.1
v -1.5 0.1 -1.2
v -1.5 0.2 -1.2
v -1.4 0.1 -1.2
v -1.4 0.2 -1.2
v 0.1 0.2 -1.2
v 0.1 0.3 -1.2
v 0.2 0.2 -1.2
v 0.2 0.3 -1.2
v 0.3 0.2 -1.2
v 0.3 0.3 -1.2
v 0.4 0.2 -1.2
v 0.4 0.3 -1.2
v 1.1 0.1 -1.2
v 1.1 0.2 -1.2
v 1.2 0.1 -1.2
v 1.2 0.2 -1.2
v 1.3 0.1 -1.2
v 1.3 0.2 -1.2
v 1.4 0.1 -1.2
v 1.4 0.2 -1.2
v 1.5 0.1 -1.2
v 1.5 0.2 -1.2
v 1.7 0.1 -1.2
v 1.7 0.2 -1.2
v -2 0.2 -1.3
v -2 0.3 -1.3
v -1.9 0.2 -1.3
v -1.9 0.3 -1.3
v -1.8 0.2 -1.3
v -1.8 0.3 -1.3
v -1.8 0.4 -1.3
v -1.7 0.2 -1.3
v -1.7 0.3 -1.3
v -1.6 0.3 -1.3
v -1.6 0.4 -1.3
v -0.0999999 0.1 -1.3
v -0.0999999 0.2 -1.3
v 2.38419e-07 0.1 -1.3
v 2.38419e-07 0.2 -1.3
v 0.5 0.1 -1.3
v 0.5 0.2 -1.3
v 0.7 0.1 -1.3
v 0.7 0.2 -1.3
v 1.2 0.1 -1.3
v 1.2 0.2 -1.3
v 1.3 0.1 -1.3
v 1.3 0.2 -1.3
v 1.4 0.1 -1.3
v 1.4 0.2 -1.3
v 1.5 0.1 -1.3
v 1.5 0.2 -1.3
v -0.6 0.1 -1.4
v -0.6 0.2 -1.4
v -0.5 0.1 -1.4
v -0.5 0.2 -1.4
v 0.9 0.1 -1.4
v 0.9 0.2 -1.4
v 1.1 0.1 -1.4
v 1.1 0.2 -1.4
v 1.3 0.2 -1.4
v 1.3 0.3 -1.4
v 1.6 0.2 -1.4
v 1.6 0.3 -1.4
v 1.7 0.2 -1.4
v 1.7 0.3 -1.4
v -0.5 0.1 -1.5
v -0.5 0.2 -1.5
v -0.4 0.1 -1.5
v -0.4 0.2 -1.5
v 0.7 0.1 -1.5
v 0.7 0.2 -1.5
v 0.9 0.1 -1.5
v 0.9 0.2 -1.5
v 1.7 0.2 -1.5
v 1.7 0.3 -1.5
v 1.8 0.2 -1.5
v 2 0.2 -1.5
v 2 0.3 -1.5
v 2.1 0.2 -1.5
v 2.2 0.2 -1.5
v 2.2 0.3 -1.5
v -1.2 0.1 -1.6
v -1.2 0.2 -1.6
v -1 0.1 -1.6
v -1 0.2 -1.6
v -0.8 0.1 -1.6
v -0.8 0.2 -1.6
v -0.6 0.1 -1.6
v -0.6 0.2 -1.6
v -0.3 0.1 -1.6
v -0.3 0.2 -1.6
v -0.0999999 0.1 -1.6
v -0.0999999 0.2 -1.6
v -1.6 0.2 -1.7
v -1.6 0.3 -1.7
v -1.5 0.2 -1.7
v -1.5 0.3 -1.7
v -1.3 0.1 -1.7
v -1.3 0.2 -1.7
v -1.2 0.1 -1.7
v -1.2 0.2 -1.7
v -0.9 0.1 -1.7
v -0.9 0.2 -1.7
v -0.8 0.1 -1.7
v -0.8 0.2 -1.7
v -0.4 0.1 -1.7
v -0.4 0.2 -1.7
v -0.3 0.1 -1.7
v -0.3 0.2 -1.7
v 2 0.3 -1.7
v 2 0.4 -1.7
v 2.2 0.3 -1.7
v 2.2 0.4 -1.7
v -1.7 0.2 -1.8
v -1.7 0.3 -1.8
v -1.6 0.2 -1.8
v -1.6 0.3 -1.8
v -1.5 0.1 -1.8
v -1.5 0.2 -1.8
v -1.4 0.2 -1.8
v -1.4 0.3 -1.8
v -1.3 0.1 -1.8
v -1.3 0.2 -1.8
v -1 0.1 -1.8
v -1 0.2 -1.8
v -0.9 0.1 -1.8
v -0.9 0.2 -1.8
v 0.1 0.2 -1.8
v 0.1 0.3 -1.8
v 1.3 0.3 -1.8
v 1.3 0.4 -1.8
v 1.4 0.3 -1.8
v 1.4 0.4 -1.8
v 1.4 0.5 -1.8
v 1.7 0.3 -1.8
v 1.7 0.5 -1.8
v -2.1 0.2 -1.9
v -2.1 0.3 -1.9
v -1.9 0.2 -1.9
v -1.9 0.3 -1.9
v -1.7 0.2 -1.9
v -1.7 0.3 -1.9
v -1.5 0.2 -1.9
v -1.5 0.3 -1.9
v -1.4 0.2 -1.9
v -1.4 0.3 -1.9
v -0.7 0.3 -1.9
v -0.7 0.4 -1.9
v -0.0999999 0.3 -1.9
v -0.0999999 0.4 -1.9
v 0.1 0.2 -1.9
v 0.1 0.3 -1.9
v 0.3 0.2 -1.9
v 0.3 0.3 -1.9
v 1.3 0.4 -1.9
v 1.3 0.5 -1.9
v 1.4 0.4 -1.9
v 1.4 0.5 -1.9
v 1.4 0.6 -1.9
v 1.7 0.3 -1.9
v 1.7 0.4 -1.9
v 1.7 0.5 -1.9
v 1.7 0.6 -1.9
v 1.9 0.3 -1.9
v 1.9 0.4 -1.9
v 1.7 0.4 -2
v 1.7 0.5 -2
v 1.8 0.4 -2
v 1.8 0.5 -2
v -0.6 0.3 -2.1
v -0.6 0.4 -2.1
v 2.38419e-07 0.3 -2.1
v 0.3 0.3 -2.1
v 0.3 0.4 -2.1
v -1.8 0.2 2.3
v -1.8 0.3 2.3
v -1.8 0.5 2.3
v -1.3 0.2 2.3
v -1.3 0.3 2.3
v -1.3 0.5 2.3
v -1.2 0.2 2.3
v -1.2 0.4 2.3
v -1.2 0.5 2.3
v 1.2 0.2 2.1
v 1.2 0.3 2.1
v 1.3 0.2 2.1
v 1.5 0.2 2.1
v 1.5 0.3 2.1
v 1.7 0.2 2.1
v 1.7 0.3 2.1
v -2 0.1 2
v -2 0.2 2
v -1.9 0.2 2
v -1.8 0.1 2
v -1.8 0.2 2
v -1.6 0.2 2
v -1.6 0.3 2
v -1.3 0.2 2
v -1.3 0.3 2
v -1.2 0.2 2
v -1.2 0.3 2
v -1.2 0.4 2
v -1.2 0.5 2
v -1.1 0.4 2
v -0.7 0.4 2
v -0.7 0.5 2
v -0.3 0.4 2
v -0.3 0.5 2
v 1 0.2 2
v 1 0.3 2
v 1.1 0.2 2
v 1.2 0.2 2
v 1.2 0.3 2
v -1.6 0.1 1.9
v -1.6 0.2 1.9
v -1.2 0.1 1.9
v -1.2 0.2 1.9
v 1.1 0.1 1.9
v 1.1 0.2 1.9
v 1.3 0.1 1.9
v 1.3 0.2 1.9
v -1.2 0.2 1.8
v -1.2 0.3 1.8
v -1.1 0.2 1.8
v -1.1 0.3 1.8
v 0.2 0.2 1.8
v 0.2 0.3 1.8
v 0.3 0.2 1.8
v 0.3 0.3 1.8
v 0.8 0.2 1.8
v 0.8 0.3 1.8
v 1.1 0.2 1.8
v 1.1 0.3 1.8
v 1.3 0.1 1.8
v 1.3 0.2 1.8
v 1.5 0.1 1.8
v 1.5 0.2 1.8
v -1.7 0.2 1.7
v -1.7 0.3 1.7
v -1.6 0.2 1.7
v -1.6 0.3 1.7
v -1.2 0.1 1.7
v -1.2 0.2 1.7
v -1.2 0.3 1.7
v -1.2 0.4 1.7
v -1.1 0.1 1.7
v -1.1 0.2 1.7
v -1.1 0.3 1.7
v -1.1 0.4 1.7
v -1.1 0.5 1.7
v -1 0.4 1.7
v -1 0.5 1.7
v -0.4 0.3 1.7
v -0.4 0.4 1.7
v -0.3 0.3 1.7
v -0.3 0.4 1.7
v 0.2 0.1 1.7
v 0.2 0.2 1.7
v 0.2 0.3 1.7
v 0.2 0.4 1.7
v 0.3 0.2 1.7
v 0.3 0.3 1.7
v 0.4 0.1 1.7
v 0.4 0.2 1.7
v 0.4 0.3 1.7
v 0.6 0.1 1.7
v 0.6 0.2 1.7
v 0.6 0.3 1.7
v 0.8 0.2 1.7
v 0.8 0.3 1.7
v 1.1 0.1 1.7
v 1.1 0.2 1.7
v 1.5 0.1 1.7
v 1.5 0.2 1.7
v 1.6 0.1 1.7
v 1.6 0.2 1.7
v -1.8 0.1 1.6
v -1.8 0.2 1.6
v -1.7 0.1 1.6
v -1.7 0.2 1.6
v -1.1 0.1 1.6
v -1.1 0.3 1.6
v -0.6 0.1 1.6
v -0.6 0.2 1.6
v -0.4 0.3 1.6
v -0.4 0.4 1.6
v -0.3 0.3 1.6
v -0.3 0.4 1.6
v -0.2 0.1 1.6
v -0.2 0.2 1.6
v 0.2 0.1 1.6
v 0.2 0.3 1.6
v 0.4 0.1 1.6
v 0.4 0.2 1.6
v 0.6 0.1 1.6
v 0.6 0.2 1.6
v 1.6 0.1 1.6
v 1.6 0.2 1.6
v 1.7 0.1 1.6
v 1.7 0.2 1.6
v -0.6 0.1 1.5
v -0.6 0.2 1.5
v -0.2 0.1 1.5
v -0.2 0.2 1.5
v 1.8 0.2 1.4
v 1.8 0.3 1.4
v 1.9 0.2 1.4
v 1.9 0.3 1.4
v -2.3 0.2 1.2
v -2.3 0.3 1.2
v -2.1 0.2 1.2
v -2.1 0.3 1.2
v -2 0.2 1.2
v -2 0.3 1.2
v 2 0.1 0.9
v 2 0.2 0.9
v 2.1 0 0.9
v 2.1 0.1 0.9
v 2.2 0.1 0.9
v 2.2 0.2 0.9
v 2.3 0 0.9
v 2.3 0.2 0.9
v -1.5 0.1 0.6
v -1.5 0.2 0.6
v -1.4 0.1 0.6
v -1.4 0.2 0.6
v -1.7 0.2 0.5
v -1.7 0.3 0.5
v -1.6 0.2 0.5
v -1.6 0.3 0.5
v -1.6 0.1 0.4
v -1.6 0.2 0.4
v -1.5 0.1 0.4
v -1.5 0.2 0.4
v -2.4 0.3 0.3
v -2.4 0.4 0.3
v -2.1 0.3 0.3
v -2.1 0.4 0.3
v 1.9 0.3 0.3
v 1.9 0.4 0.3
v 2 0.2 0.3
v 2 0.3 0.3
v 2.3 0.2 0.3
v 2.3 0.4 0.3
v 1.8 0.2 0.2
v 1.8 0.3 0.2
v 2 0.2 0.2
v 2 0.3 0.2
v -1.7 0.1 0.0999999
v -1.7 0.2 0.0999999
v -1.6 0.1 0.0999999
v -1.6 0.2 0.0999999
v -2.5 0 -2.38419e-07
v -2.5 0.3 -2.38419e-07
v -2.3 0 -2.38419e-07
v -2.3 0.2 -2.38419e-07
v -2.2 0.2 -2.38419e-07
v -2.2 0.3 -2.38419e-07
v -1.8 0.3 -0.1
v -1.8 0.4 -0.1
v -1.7 0.3 -0.1
v -1.7 0.4 -0.1
v 1.6 0.2 -0.1
v 1.6 0.3 -0.1
v 1.7 0.2 -0.1
v 1.7 0.3 -0.1
v -1.5 0.1 -0.2
v -1.5 0.2 -0.2
v -1.4 0.1 -0.2
v -1.4 0.2 -0.2
v -1.9 0.3 -0.3
v -1.9 0.4 -0.3
v -1.8 0.2 -0.3
v -1.8 0.3 -0.3
v -1.8 0.4 -0.3
v -1.7 0.2 -0.3
v -1.7 0.3 -0.3
v 1.6 0.1 -0.4
v 1.6 0.2 -0.4
v 1.7 0.1 -0.4
v 1.7 0.2 -0.4
v 1.7 0.3 -0.4
v 1.8 0.2 -0.4
v 1.8 0.3 -0.4
v 2.1 0 -0.4
v 2.1 0.1 -0.4
v 2.2 0.1 -0.4
v 2.2 0.2 -0.4
v 2.5 0 -0.4
v 2.5 0.2 -0.4
v -1.5 0.1 -0.7
v -1.5 0.2 -0.7
v -1.4 0.1 -0.7
v -1.4 0.2 -0.7
v 1.7 0.2 -0.7
v 1.7 0.3 -0.7
v 1.8 0.2 -0.7
v 1.8 0.3 -0.7
v 1.8 0.2 -0.8
v 1.8 0.3 -0.8
v 1.9 0.2 -0.8
v 1.9 0.3 -0.8
v 2 0.2 -0.8
v 2.1 0.2 -0.8
v 2.1 0.3 -0.8
v 2.2 0.2 -0.8
v 2.2 0.3 -0.8
v -2.2 0.2 -1
v -2.2 0.3 -1
v -2.1 0.2 -1
v -2.1 0.3 -1
v -1.9 0.2 -1
v -1.9 0.3 -1
v 1.6 0.1 -1
v 1.6 0.2 -1
v 1.7 0.1 -1
v 1.7 0.2 -1
v -1.8 0.3 -1.1
v -1.8 0.4 -1.1
v -1.7 0.3 -1.1
v -1.7 0.4 -1.1
v -1.8 0.2 -1.2
v -1.8 0.3 -1.2
v -1.7 0.2 -1.2
v -1.7 0.3 -1.2
v -1.5 0.1 -1.4
v -1.5 0.2 -1.4
v -1.4 0.1 -1.4
v -1.4 0.2 -1.4
v -1.8 0.3 -1.6
v -1.8 0.4 -1.6
v -1.7 0.3 -1.6
v -1.6 0.3 -1.6
v -1.6 0.4 -1.6
v -2 0.2 -1.7
v -2 0.3 -1.7
v -1.9 0.2 -1.7
v -1.9 0.3 -1.7
v -1.7 0.2 -1.7
v -1.7 0.3 -1.7
v -1.6 0.2 -1.7
v -1.6 0.3 -1.7
v 0.2 0.2 -1.7
v 0.2 0.3 -1.7
v 0.4 0.2 -1.7
v 0.4 0.3 -1.7
v 0.1 0.2 -1.8
v 0.1 0.3 -1.8
v 0.2 0.2 -1.8
v 0.2 0.3 -1.8
v -2.3 0 -2
v -2.3 0.2 -2
v -2.1 0 -2
v -2.1 0.2 -2
v -0.7 0.3 -2
v -0.7 0.4 -2
v -0.0999999 0.3 -2
v -0.0999999 0.4 -2
v 2 0.3 -2
v 2 0.4 -2
v 2.2 0.3 -2
v 2.2 0.4 -2
v 1.3 0.4 -2.1
v 1.3 0.5 -2.1
v 1.4 0.5 -2.1
v 1.4 0.6 -2.1
v 1.5 0.4 -2.1
v 1.5 0.5 -2.1
v 1.7 0.5 -2.1
v 1.7 0.6 -2.1
v -2.1 0 -2.2
v -2.1 0.3 -2.2
v -1.9 0 -2.2
v -1.9 0.1 -2.2
v -0.6 0.1 -2.2
v -0.6 0.3 -2.2
v 1.5 0.4 -2.2
v 1.5 0.5 -2.2
v 1.8 0.4 -2.2
v 1.8 0.5 -2.2
v 2.2 0 -2.2
v 2.2 0.2 -2.2
v 2.4 0 -2.2
v 2.4 0.2 -2.2
v 0.3 0 -2.3
v 0.3 0.2 -2.3
v 1.3 0.2 -2.3
v 1.3 0.4 -2.3
v 1.9 0.3 -2.3
v 1.9 0.4 -2.3
v 2.2 0 -2.3
v 2.2 0.3 -2.3
v -0.6 0.1 -2.4
v -0.6 0.4 -2.4
v -0.3 0 -2.4
v -0.3 0.1 -2.4
v 0.3 0 -2.4
v 0.3 0.4 -2.4
v -1.9 0 -2.5
v -1.9 0.1 -2.5
v -0.3 0 -2.5
v -0.3 0.1 -2.5
v -2 0 2.5
v -1 0 2.5
v 1.3 0 2.5
v 2.1 0 2.5
v 2.1 0 2.3
v 2.3 0 2.3
v -2 0 2.2
v -1 0 2.2
v 1.3 0 2.2
v 2.1 0 2.2
v 1 0 2.1
v 1.4 0 2.1
v -1.7 0 2
v -1.3 0 2
v -1.3 0 1.9
v -1.2 0 1.9
v -1.2 0 1.8
v -1 0 1.8
v 0.4 0 1.8
v 1 0 1.8
v 1.4 0 1.8
v 1.6 0 1.8
v -1 0 1.7
v -0.8 0 1.7
v -0.6 0 1.7
v 0.4 0 1.7
v 1.6 0 1.7
v 1.7 0 1.7
v -0.8 0 1.6
v -0.6 0 1.6
v 1.7 0 1.6
v 1.8 0 1.6
v -1.7 0 1.5
v -1.6 0 1.5
v -1.2 0 1.5
v -0.8 0 1.5
v 0.9 0 1.5
v 1.4 0 1.5
v -2.3 0 1.4
v -2 0 1.4
v -1.3 0 1.4
v -1.2 0 1.4
v -0.8 0 1.4
v -0.6 0 1.4
v 2.38419e-07 0 1.4
v 0.4 0 1.4
v 0.8 0 1.4
v 0.9 0 1.4
v -0.2 0 1.3
v 2.38419e-07 0 1.3
v 0.4 0 1.3
v 0.8 0 1.3
v -0.6 0 1.2
v -0.2 0 1.2
v 1.7 0 1.2
v 1.8 0 1.2
v -2.5 0 1.1
v -2.3 0 1.1
v 1.6 0 1.1
v 1.7 0 1.1
v -1.6 0 0.9
v -1.5 0 0.9
v -1.3 0 0.9
v -1.2 0 0.9
v 2.1 0 0.9
v 2.3 0 0.9
v -1.6 0 0.7
v -1.5 0 0.7
v 1.3 0 0.7
v 1.4 0 0.7
v -1.2 0 0.5
v -1.1 0 0.5
v 1.6 0 0.5
v 1.7 0 0.5
v 2.1 0 0.5
v 2.5 0 0.5
v -1.6 0 0.0999999
v -1.5 0 0.0999999
v 1.3 0 0.0999999
v 1.4 0 0.0999999
v -2.5 0 -2.38419e-07
v -2.3 0 -2.38419e-07
v -1.6 0 -0.3
v -1.5 0 -0.3
v -1.2 0 -0.3
v -1.1 0 -0.3
v 2.1 0 -0.4
v 2.5 0 -0.4
v 0.1 0 -0.5
v 0.4 0 -0.5
v -0.0999999 0 -0.6
v 0.1 0 -0.6
v 0.4 0 -0.6
v 0.6 0 -0.6
v 1.3 0 -0.6
v 1.4 0 -0.6
v -0.2 0 -0.7
v -0.0999999 0 -0.7
v 0.6 0 -0.7
v 0.7 0 -0.7
v -0.9 0 -0.8
v -0.8 0 -0.8
v -0.3 0 -0.8
v -0.2 0 -0.8
v 0.7 0 -0.8
v 0.8 0 -0.8
v -0.9 0 -0.9
v -0.8 0 -0.9
v 0.2 0 -0.9
v 0.3 0 -0.9
v 0.8 0 -0.9
v 1.3 0 -0.9
v 2.1 0 -0.9
v 2.4 0 -0.9
v -0.4 0 -1
v -0.3 0 -1
v 0.1 0 -1
v 0.2 0 -1
v 0.3 0 -1
v 0.4 0 -1
v -0.5 0 -1.1
v -0.4 0 -1.1
v -1.6 0 -1.2
v -1.4 0 -1.2
v -1.2 0 -1.2
v -1.1 0 -1.2
v -0.6 0 -1.2
v -0.5 0 -1.2
v 2.38419e-07 0 -1.2
v 0.1 0 -1.2
v 0.4 0 -1.2
v 0.5 0 -1.2
v 1.5 0 -1.2
v 1.7 0 -1.2
v -1.5 0 -1.3
v -1.4 0 -1.3
v -1.1 0 -1.3
v -0.6 0 -1.3
v 1.2 0 -1.3
v 1.5 0 -1.3
v -1.6 0 -1.4
v -1.5 0 -1.4
v -0.0999999 0 -1.4
v 2.38419e-07 0 -1.4
v 0.5 0 -1.4
v 0.6 0 -1.4
v 1.1 0 -1.4
v 1.2 0 -1.4
v 0.6 0 -1.5
v 1.1 0 -1.5
v -0.7 0 -1.6
v -0.6 0 -1.6
v -0.6 0 -1.7
v -0.0999999 0 -1.7
v -1.6 0 -1.8
v -0.7 0 -1.8
v -2.3 0 -2
v -2.1 0 -2
v -2 0 -2.1
v -1.9 0 -2.1
v -2.1 0 -2.2
v -1.9 0 -2.2
v 2.1 0 -2.2
v 2.2 0 -2.2
v 2.4 0 -2.2
v 0.3 0 -2.3
v 2.2 0 -2.3
v -0.3 0 -2.4
v 0.3 0 -2.4
v -1.9 0 -2.5
v -0.3 0 -2.5
v -1 0.1 2.4
v 0.2 0.1 2.4
v 1.1 0.1 2.4
v 1.3 0.1 2.4
v 0.2 0.1 2.3
v 1.1 0.1 2.3
v -1 0.1 2.2
v 1.3 0.1 2.2
v 2.1 0.1 -0.4
v 2.2 0.1 -0.4
v 2.1 0.1 -0.9
v 2.2 0.1 -0.9
v -2.3 0.2 2.2
v -2 0.2 2.2
v -2 0.2 2
v -1.9 0.2 2
v -1.8 0.2 2
v -1.8 0.2 1.6
v -1.7 0.2 1.6
v -2.3 0.2 1.4
v -1.9 0.2 1.4
v -1.7 0.2 1.4
v 2 0.2 0.9
v 2.2 0.2 0.9
v 2.3 0.2 0.9
v 2 0.2 0.5
v 2.2 0.2 0.5
v 2.3 0.2 0.5
v -1.7 0.2 0.0999999
v -1.6 0.2 0.0999999
v -1.7 0.2 -2.38419e-07
v -1.6 0.2 -2.38419e-07
v -1.2 0.3 1.8
v -1.1 0.3 1.8
v -1.2 0.3 1.7
v -1.1 0.3 1.7
v -1.2 0.4 2.5
v -0.3 0.4 2.5
v -1.2 0.4 2.4
v -1.1 0.4 2.4
v -0.7 0.4 2.4
v -0.3 0.4 2.4
v -1.2 0.4 2.3
v -1.1 0.4 2.2
v -0.7 0.4 2.2
v -1.2 0.4 2
v -1.1 0.4 2
v -0.7 0.4 2
v -2 0.1 2
v -1.8 0.1 2
v -1.6 0.1 1.9
v -1.2 0.1 1.9
v 1.1 0.1 1.9
v 1.3 0.1 1.9
v 1.1 0.1 1.8
v 1.3 0.1 1.8
v 1.5 0.1 1.8
v -1.2 0.1 1.7
v -1.1 0.1 1.7
v 0.2 0.1 1.7
v 0.4 0.1 1.7
v 0.6 0.1 1.7
v 1.1 0.1 1.7
v 1.5 0.1 1.7
v 1.6 0.1 1.7
v -1.8 0.1 1.6
v -1.7 0.1 1.6
v -1.6 0.1 1.6
v -1.5 0.1 1.6
v -1.1 0.1 1.6
v -0.6 0.1 1.6
v -0.2 0.1 1.6
v 0.2 0.1 1.6
v 0.4 0.1 1.6
v 0.6 0.1 1.6
v 1.6 0.1 1.6
v 1.7 0.1 1.6
v -1.2 0.1 1.5
v -0.8 0.1 1.5
v -0.6 0.1 1.5
v -0.2 0.1 1.5
v 0.9 0.1 1.5
v 1.4 0.1 1.5
v -2 0.1 1.4
v -1.7 0.1 1.4
v -1.3 0.1 1.4
v -1.2 0.1 1.4
v -0.8 0.1 1.4
v -0.6 0.1 1.4
v 2.38419e-07 0.1 1.4
v 0.4 0.1 1.4
v 0.8 0.1 1.4
v 0.9 0.1 1.4
v -0.2 0.1 1.3
v 2.38419e-07 0.1 1.3
v 0.4 0.1 1.3
v 0.8 0.1 1.3
v -0.6 0.1 1.2
v -0.2 0.1 1.2
v 1.6 0.1 1.1
v 1.7 0.1 1.1
v -1.5 0.1 1
v -1.4 0.1 1
v -1.3 0.1 0.9
v -1.2 0.1 0.9
v 2 0.1 0.9
v 2.1 0.1 0.9
v 1.3 0.1 0.7
v 1.4 0.1 0.7
v -1.5 0.1 0.6
v -1.4 0.1 0.6
v -1.2 0.1 0.5
v -1.1 0.1 0.5
v 2 0.1 0.5
v 2.1 0.1 0.5
v -1.6 0.1 0.4
v -1.5 0.1 0.4
v -1.7 0.1 0.0999999
v -1.6 0.1 0.0999999
v -1.4 0.1 0.0999999
v 1.3 0.1 0.0999999
v 1.4 0.1 0.0999999
v -1.7 0.1 -2.38419e-07
v -1.6 0.1 -2.38419e-07
v -1.5 0.1 -0.2
v -1.4 0.1 -0.2
v -1.5 0.1 -0.3
v -1.4 0.1 -0.3
v -1.2 0.1 -0.3
v -1.1 0.1 -0.3
v 1.6 0.1 -0.4
v 1.7 0.1 -0.4
v 0.1 0.1 -0.5
v 0.4 0.1 -0.5
v -0.0999999 0.1 -0.6
v 0.1 0.1 -0.6
v 0.4 0.1 -0.6
v 0.6 0.1 -0.6
v 1.3 0.1 -0.6
v 1.4 0.1 -0.6
v -1.5 0.1 -0.7
v -1.4 0.1 -0.7
v -0.2 0.1 -0.7
v -0.0999999 0.1 -0.7
v 0.2 0.1 -0.7
v 0.3 0.1 -0.7
v 0.6 0.1 -0.7
v 0.7 0.1 -0.7
v 1.6 0.1 -0.7
v 1.7 0.1 -0.7
v -0.9 0.1 -0.8
v -0.8 0.1 -0.8
v -0.3 0.1 -0.8
v -0.2 0.1 -0.8
v 0.1 0.1 -0.8
v 0.2 0.1 -0.8
v 0.3 0.1 -0.8
v 0.4 0.1 -0.8
v 0.7 0.1 -0.8
v 0.8 0.1 -0.8
v -0.9 0.1 -0.9
v -0.8 0.1 -0.9
v 0.4 0.1 -0.9
v 0.5 0.1 -0.9
v 0.8 0.1 -0.9
v 1.3 0.1 -0.9
v -0.4 0.1 -1
v -0.3 0.1 -1
v 1.6 0.1 -1
v 1.7 0.1 -1
v -0.5 0.1 -1.1
v -0.4 0.1 -1.1
v 2.38419e-07 0.1 -1.1
v 0.1 0.1 -1.1
v -1.5 0.1 -1.2
v -1.4 0.1 -1.2
v -1.2 0.1 -1.2
v -1.1 0.1 -1.2
v -0.6 0.1 -1.2
v -0.5 0.1 -1.2
v 1.1 0.1 -1.2
v 1.2 0.1 -1.2
v 1.3 0.1 -1.2
v 1.4 0.1 -1.2
v 1.5 0.1 -1.2
v 1.7 0.1 -1.2
v -1.1 0.1 -1.3
v -0.6 0.1 -1.3
v -0.0999999 0.1 -1.3
v 2.38419e-07 0.1 -1.3
v 0.5 0.1 -1.3
v 0.7 0.1 -1.3
v 1.2 0.1 -1.3
v 1.3 0.1 -1.3
v 1.4 0.1 -1.3
v 1.5 0.1 -1.3
v -1.5 0.1 -1.4
v -1.4 0.1 -1.4
v -0.6 0.1 -1.4
v -0.5 0.1 -1.4
v 0.9 0.1 -1.4
v 1.1 0.1 -1.4
v -0.5 0.1 -1.5
v -0.4 0.1 -1.5
v 0.7 0.1 -1.5
v 0.9 0.1 -1.5
v -1.2 0.1 -1.6
v -1 0.1 -1.6
v -0.8 0.1 -1.6
v -0.6 0.1 -1.6
v -0.3 0.1 -1.6
v -0.0999999 0.1 -1.6
v -1.3 0.1 -1.7
v -1.2 0.1 -1.7
v -0.9 0.1 -1.7
v -0.8 0.1 -1.7
v -0.4 0.1 -1.7
v -0.3 0.1 -1.7
v -1.5 0.1 -1.8
v -1.3 0.1 -1.8
v -1 0.1 -1.8
v -0.9 0.1 -1.8
v -1.9 0.1 -2.2
v -0.6 0.1 -2.2
v -0.6 0.1 -2.4
v -0.3 0.1 -2.4
v -1.9 0.1 -2.5
v -0.3 0.1 -2.5
v -2 0.2 2.5
v -1.8 0.2 2.5
v -1.2 0.2 2.5
v -1 0.2 2.5
v 1.3 0.2 2.5
v 2.1 0.2 2.5
v -1.8 0.2 2.4
v -1.2 0.2 2.4
v -1.1 0.2 2.4
v -1 0.2 2.4
v 1.3 0.2 2.4
v 1.7 0.2 2.4
v -1.8 0.2 2.3
v -1.3 0.2 2.3
v -1.2 0.2 2.3
v 0.2 0.2 2.3
v 1.1 0.2 2.3
v 2.1 0.2 2.3
v 2.3 0.2 2.3
v -2 0.2 2.2
v -1.8 0.2 2.2
v -1.7 0.2 2.2
v -1.3 0.2 2.2
v -1.1 0.2 2.2
v 0.4 0.2 2.2
v 0.7 0.2 2.2
v 1.1 0.2 2.2
v -1.7 0.2 2.1
v -1.3 0.2 2.1
v 0.2 0.2 2.1
v 0.4 0.2 2.1
v 0.7 0.2 2.1
v 1 0.2 2.1
v 1.1 0.2 2.1
v 1.2 0.2 2.1
v 1.3 0.2 2.1
v 1.5 0.2 2.1
v 1.7 0.2 2.1
v -1.6 0.2 2
v -1.3 0.2 2
v -1.2 0.2 2
v 1 0.2 2
v 1.1 0.2 2
v 1.2 0.2 2
v 1.5 0.2 2
v 2 0.2 2
v -1.6 0.2 1.9
v -1.2 0.2 1.9
v 0.2 0.2 1.9
v 0.3 0.2 1.9
v 0.6 0.2 1.9
v 0.7 0.2 1.9
v 1.1 0.2 1.9
v 1.3 0.2 1.9
v 1.8 0.2 1.9
v -1.2 0.2 1.8
v -1.1 0.2 1.8
v 0.2 0.2 1.8
v 0.3 0.2 1.8
v 0.4 0.2 1.8
v 0.6 0.2 1.8
v 0.7 0.2 1.8
v 0.8 0.2 1.8
v 1.1 0.2 1.8
v 1.3 0.2 1.8
v 1.5 0.2 1.8
v -1.7 0.2 1.7
v -1.6 0.2 1.7
v -1.2 0.2 1.7
v -1.1 0.2 1.7
v 0.2 0.2 1.7
v 0.3 0.2 1.7
v 0.4 0.2 1.7
v 0.6 0.2 1.7
v 0.8 0.2 1.7
v 1.1 0.2 1.7
v 1.5 0.2 1.7
v 1.6 0.2 1.7
v 1.8 0.2 1.7
v 1.9 0.2 1.7
v 2 0.2 1.7
v 2.1 0.2 1.7
v -1.6 0.2 1.6
v -1.5 0.2 1.6
v -0.6 0.2 1.6
v -0.2 0.2 1.6
v 0.4 0.2 1.6
v 0.6 0.2 1.6
v 1.6 0.2 1.6
v 1.7 0.2 1.6
v -0.6 0.2 1.5
v -0.2 0.2 1.5
v -1.7 0.2 1.4
v -1.6 0.2 1.4
v 1.8 0.2 1.4
v 1.9 0.2 1.4
v 1.9 0.2 1.3
v 2 0.2 1.3
v 2.1 0.2 1.3
v 2.2 0.2 1.3
v -2.3 0.2 1.2
v -2.1 0.2 1.2
v -2 0.2 1.2
v -2.3 0.2 1.1
v -2.1 0.2 1.1
v -2 0.2 1.1
v 1.6 0.2 1.1
v 1.7 0.2 1.1
v 1.8 0.2 1.1
v 1.9 0.2 1.1
v 2 0.2 1.1
v -1.5 0.2 1
v -1.4 0.2 1
v 2 0.2 1
v 2.2 0.2 1
v 2.3 0.2 1
v -1.5 0.2 0.6
v -1.4 0.2 0.6
v -1.7 0.2 0.5
v -1.6 0.2 0.5
v 2.3 0.2 0.5
v 2.5 0.2 0.5
v -1.6 0.2 0.4
v -1.5 0.2 0.4
v -1.7 0.2 0.3
v -1.6 0.2 0.3
v 2 0.2 0.3
v 2.3 0.2 0.3
v 1.7 0.2 0.2
v 1.8 0.2 0.2
v 2 0.2 0.2
v -1.6 0.2 0.0999999
v -1.4 0.2 0.0999999
v 1.6 0.2 0.0999999
v 1.7 0.2 0.0999999
v -2.3 0.2 -2.38419e-07
v -2.2 0.2 -2.38419e-07
v 1.6 0.2 -0.1
v 1.7 0.2 -0.1
v -1.5 0.2 -0.2
v -1.4 0.2 -0.2
v 1.9 0.2 -0.2
v 2 0.2 -0.2
v 2.1 0.2 -0.2
v 2.2 0.2 -0.2
v -1.8 0.2 -0.3
v -1.7 0.2 -0.3
v -1.5 0.2 -0.3
v -1.4 0.2 -0.3
v 1.8 0.2 -0.3
v 1.9 0.2 -0.3
v -1.8 0.2 -0.4
v -1.7 0.2 -0.4
v 1.6 0.2 -0.4
v 1.7 0.2 -0.4
v 1.8 0.2 -0.4
v 2.2 0.2 -0.4
v 2.5 0.2 -0.4
v 1.7 0.2 -0.6
v 1.8 0.2 -0.6
v -1.5 0.2 -0.7
v -1.4 0.2 -0.7
v 0.2 0.2 -0.7
v 0.3 0.2 -0.7
v 1.6 0.2 -0.7
v 1.7 0.2 -0.7
v 1.8 0.2 -0.7
v 0.1 0.2 -0.8
v 0.2 0.2 -0.8
v 0.3 0.2 -0.8
v 0.4 0.2 -0.8
v 1.8 0.2 -0.8
v 1.9 0.2 -0.8
v 2 0.2 -0.8
v 2.1 0.2 -0.8
v 2.2 0.2 -0.8
v 0.2 0.2 -0.9
v 0.3 0.2 -0.9
v 0.4 0.2 -0.9
v 0.5 0.2 -0.9
v 2.2 0.2 -0.9
v 2.4 0.2 -0.9
v -2.2 0.2 -1
v -2.1 0.2 -1
v -1.9 0.2 -1
v 1.6 0.2 -1
v 1.7 0.2 -1
v 2.38419e-07 0.2 -1.1
v 0.1 0.2 -1.1
v -1.8 0.2 -1.2
v -1.7 0.2 -1.2
v -1.5 0.2 -1.2
v -1.4 0.2 -1.2
v 0.1 0.2 -1.2
v 0.2 0.2 -1.2
v 0.3 0.2 -1.2
v 0.4 0.2 -1.2
v 1.1 0.2 -1.2
v 1.2 0.2 -1.2
v 1.3 0.2 -1.2
v 1.4 0.2 -1.2
v 1.5 0.2 -1.2
v 1.7 0.2 -1.2
v -2.1 0.2 -1.3
v -2 0.2 -1.3
v -1.9 0.2 -1.3
v -1.8 0.2 -1.3
v -1.7 0.2 -1.3
v -0.0999999 0.2 -1.3
v 2.38419e-07 0.2 -1.3
v 0.5 0.2 -1.3
v 0.7 0.2 -1.3
v 1.2 0.2 -1.3
v 1.3 0.2 -1.3
v 1.4 0.2 -1.3
v 1.5 0.2 -1.3
v 2 0.2 -1.3
v 2.1 0.2 -1.3
v -1.5 0.2 -1.4
v -1.4 0.2 -1.4
v -0.6 0.2 -1.4
v -0.5 0.2 -1.4
v 0.9 0.2 -1.4
v 1.1 0.2 -1.4
v 1.3 0.2 -1.4
v 1.6 0.2 -1.4
v 1.7 0.2 -1.4
v -0.5 0.2 -1.5
v -0.4 0.2 -1.5
v 0.7 0.2 -1.5
v 0.9 0.2 -1.5
v 1.3 0.2 -1.5
v 1.7 0.2 -1.5
v 1.8 0.2 -1.5
v 2 0.2 -1.5
v 2.1 0.2 -1.5
v 2.2 0.2 -1.5
v -2 0.2 -1.6
v -1.2 0.2 -1.6
v -1 0.2 -1.6
v -0.8 0.2 -1.6
v -0.6 0.2 -1.6
v -0.3 0.2 -1.6
v -0.0999999 0.2 -1.6
v -2 0.2 -1.7
v -1.9 0.2 -1.7
v -1.7 0.2 -1.7
v -1.6 0.2 -1.7
v -1.5 0.2 -1.7
v -1.3 0.2 -1.7
v -1.2 0.2 -1.7
v -0.9 0.2 -1.7
v -0.8 0.2 -1.7
v -0.4 0.2 -1.7
v -0.3 0.2 -1.7
v 0.2 0.2 -1.7
v 0.4 0.2 -1.7
v 0.9 0.2 -1.7
v 1.3 0.2 -1.7
v -1.7 0.2 -1.8
v -1.6 0.2 -1.8
v -1.5 0.2 -1.8
v -1.4 0.2 -1.8
v -1.3 0.2 -1.8
v -1 0.2 -1.8
v -0.9 0.2 -1.8
v 0.1 0.2 -1.8
v 0.2 0.2 -1.8
v 0.9 0.2 -1.8
v -2.1 0.2 -1.9
v -1.9 0.2 -1.9
v -1.7 0.2 -1.9
v -1.5 0.2 -1.9
v -1.4 0.2 -1.9
v 0.1 0.2 -1.9
v 0.3 0.2 -1.9
v 0.9 0.2 -1.9
v 1.3 0.2 -1.9
v -2.3 0.2 -2
v -2.1 0.2 -2
v 0.3 0.2 -2
v 0.9 0.2 -2
v 2.2 0.2 -2.2
v 2.4 0.2 -2.2
v 0.3 0.2 -2.3
v 1.3 0.2 -2.3
v -1.1 0.3 2.4
v -0.7 0.3 2.4
v -0.2 0.3 2.4
v 0.2 0.3 2.4
v 1.1 0.3 2.4
v 1.7 0.3 2.4
v -2.3 0.3 2.2
v -1.8 0.3 2.2
v -1.7 0.3 2.2
v -1.3 0.3 2.2
v -1.1 0.3 2.2
v -0.7 0.3 2.2
v 1.1 0.3 2.2
v 1.5 0.3 2.2
v -1.9 0.3 2.1
v -1.8 0.3 2.1
v -1.7 0.3 2.1
v -1.3 0.3 2.1
v -0.2 0.3 2.1
v 0.2 0.3 2.1
v 1 0.3 2.1
v 1.1 0.3 2.1
v 1.2 0.3 2.1
v 1.5 0.3 2.1
v 1.7 0.3 2.1
v -1.6 0.3 2
v -1.3 0.3 2
v -1.2 0.3 2
v -1.1 0.3 2
v -0.7 0.3 2
v 1 0.3 2
v 1.2 0.3 2
v -0.2 0.3 1.9
v 2.38419e-07 0.3 1.9
v 0.2 0.3 1.9
v 0.3 0.3 1.9
v 0.7 0.3 1.9
v 1.1 0.3 1.9
v -1.1 0.3 1.8
v -0.7 0.3 1.8
v 2.38419e-07 0.3 1.8
v 0.2 0.3 1.8
v 0.3 0.3 1.8
v 0.4 0.3 1.8
v 0.6 0.3 1.8
v 0.7 0.3 1.8
v 0.8 0.3 1.8
v 1.1 0.3 1.8
v -1.7 0.3 1.7
v -1.6 0.3 1.7
v -1.1 0.3 1.7
v -0.4 0.3 1.7
v -0.3 0.3 1.7
v 0.2 0.3 1.7
v 0.3 0.3 1.7
v 0.4 0.3 1.7
v 0.6 0.3 1.7
v 0.8 0.3 1.7
v 1.8 0.3 1.7
v 1.9 0.3 1.7
v -1.1 0.3 1.6
v -0.4 0.3 1.6
v -0.3 0.3 1.6
v 0.2 0.3 1.6
v -1.7 0.3 1.4
v -1.6 0.3 1.4
v 1.8 0.3 1.4
v 1.9 0.3 1.4
v -2.1 0.3 1.3
v -1.9 0.3 1.3
v -2.3 0.3 1.2
v -2.1 0.3 1.2
v -2 0.3 1.2
v -1.8 0.3 1.2
v -1.7 0.3 1.2
v -2.5 0.3 1.1
v -2.1 0.3 1.1
v -2 0.3 1.1
v -1.8 0.3 1.1
v -1.7 0.3 1.1
v 1.7 0.3 1.1
v 1.9 0.3 1.1
v 2 0.3 1.1
v -2.1 0.3 1
v -1.8 0.3 1
v 1.9 0.3 1
v 2 0.3 1
v -2.4 0.3 0.9
v -2.1 0.3 0.9
v 1.8 0.3 0.8
v 1.9 0.3 0.8
v -1.9 0.3 0.5
v -1.8 0.3 0.5
v -1.7 0.3 0.5
v -1.6 0.3 0.5
v -2.4 0.3 0.3
v -2.1 0.3 0.3
v -1.9 0.3 0.3
v -1.7 0.3 0.3
v -1.6 0.3 0.3
v 1.9 0.3 0.3
v 2 0.3 0.3
v -1.9 0.3 0.2
v -1.8 0.3 0.2
v -1.7 0.3 0.2
v 1.7 0.3 0.2
v 1.8 0.3 0.2
v 2 0.3 0.2
v -1.9 0.3 0.0999999
v -1.8 0.3 0.0999999
v 1.6 0.3 0.0999999
v 1.7 0.3 0.0999999
v -2.5 0.3 -2.38419e-07
v -2.2 0.3 -2.38419e-07
v -1.8 0.3 -0.1
v -1.7 0.3 -0.1
v 1.6 0.3 -0.1
v 1.7 0.3 -0.1
v 1.9 0.3 -0.2
v 2.1 0.3 -0.2
v 2.2 0.3 -0.2
v -1.9 0.3 -0.3
v -1.8 0.3 -0.3
v -1.7 0.3 -0.3
v 1.8 0.3 -0.3
v 1.9 0.3 -0.3
v -2.1 0.3 -0.4
v -2 0.3 -0.4
v -1.8 0.3 -0.4
v -1.7 0.3 -0.4
v 1.7 0.3 -0.4
v 1.8 0.3 -0.4
v 1.7 0.3 -0.6
v 1.8 0.3 -0.6
v 1.7 0.3 -0.7
v 1.8 0.3 -0.7
v -2.1 0.3 -0.8
v -2 0.3 -0.8
v 1.8 0.3 -0.8
v 1.9 0.3 -0.8
v 2.1 0.3 -0.8
v 2.2 0.3 -0.8
v -1.8 0.3 -0.9
v -1.7 0.3 -0.9
v 0.2 0.3 -0.9
v 0.3 0.3 -0.9
v -2.2 0.3 -1
v -2.1 0.3 -1
v -1.9 0.3 -1
v -1.8 0.3 -1
v -1.8 0.3 -1.1
v -1.7 0.3 -1.1
v -1.8 0.3 -1.2
v -1.7 0.3 -1.2
v 0.1 0.3 -1.2
v 0.2 0.3 -1.2
v 0.3 0.3 -1.2
v 0.4 0.3 -1.2
v -2 0.3 -1.3
v -1.9 0.3 -1.3
v -1.8 0.3 -1.3
v -1.7 0.3 -1.3
v -1.6 0.3 -1.3
v 1.3 0.3 -1.4
v 1.6 0.3 -1.4
v 1.7 0.3 -1.4
v 1.3 0.3 -1.5
v 1.6 0.3 -1.5
v 1.7 0.3 -1.5
v 2 0.3 -1.5
v 2.2 0.3 -1.5
v -2 0.3 -1.6
v -1.9 0.3 -1.6
v -1.8 0.3 -1.6
v -1.7 0.3 -1.6
v -1.6 0.3 -1.6
v -2 0.3 -1.7
v -1.9 0.3 -1.7
v -1.7 0.3 -1.7
v -1.6 0.3 -1.7
v -1.5 0.3 -1.7
v 0.2 0.3 -1.7
v 0.4 0.3 -1.7
v 1.4 0.3 -1.7
v 2 0.3 -1.7
v 2.2 0.3 -1.7
v -1.7 0.3 -1.8
v -1.6 0.3 -1.8
v -1.4 0.3 -1.8
v 0.1 0.3 -1.8
v 0.2 0.3 -1.8
v 1.3 0.3 -1.8
v 1.4 0.3 -1.8
v 1.7 0.3 -1.8
v -2.1 0.3 -1.9
v -1.9 0.3 -1.9
v -1.7 0.3 -1.9
v -1.5 0.3 -1.9
v -1.4 0.3 -1.9
v -0.7 0.3 -1.9
v -0.0999999 0.3 -1.9
v 0.1 0.3 -1.9
v 0.3 0.3 -1.9
v 1.7 0.3 -1.9
v 1.9 0.3 -1.9
v -1.9 0.3 -2
v -1 0.3 -2
v -0.7 0.3 -2
v -0.0999999 0.3 -2
v 2.38419e-07 0.3 -2
v 0.3 0.3 -2
v 2 0.3 -2
v 2.2 0.3 -2
v -1 0.3 -2.1
v -0.6 0.3 -2.1
v 2.38419e-07 0.3 -2.1
v 0.3 0.3 -2.1
v -2.1 0.3 -2.2
v -0.6 0.3 -2.2
v 1.9 0.3 -2.3
v 2.2 0.3 -2.3
v -0.3 0.4 2.4
v -0.2 0.4 2.4
v -0.3 0.4 2.1
v -0.2 0.4 2.1
v -1.2 0.4 2
v -1.1 0.4 2
v -0.7 0.4 2
v -0.3 0.4 2
v -0.2 0.4 1.9
v 2.38419e-07 0.4 1.9
v -1.2 0.4 1.8
v -1.1 0.4 1.8
v -1 0.4 1.8
v -0.7 0.4 1.8
v -0.2 0.4 1.8
v 2.38419e-07 0.4 1.8
v 0.2 0.4 1.8
v -1.2 0.4 1.7
v -1.1 0.4 1.7
v -1 0.4 1.7
v -0.4 0.4 1.7
v -0.3 0.4 1.7
v 0.2 0.4 1.7
v -0.4 0.4 1.6
v -0.3 0.4 1.6
v 1.9 0.4 1
v 2.3 0.4 1
v -2.4 0.4 0.9
v -2.1 0.4 0.9
v -2.4 0.4 0.3
v -2.1 0.4 0.3
v 1.9 0.4 0.3
v 2.3 0.4 0.3
v -1.8 0.4 0.2
v -1.7 0.4 0.2
v -1.9 0.4 0.0999999
v -1.8 0.4 0.0999999
v -1.8 0.4 -0.1
v -1.7 0.4 -0.1
v -1.9 0.4 -0.3
v -1.8 0.4 -0.3
v -1.8 0.4 -0.9
v -1.7 0.4 -0.9
v -1.8 0.4 -1.1
v -1.7 0.4 -1.1
v -1.8 0.4 -1.3
v -1.6 0.4 -1.3
v -1.8 0.4 -1.6
v -1.6 0.4 -1.6
v 2 0.4 -1.7
v 2.2 0.4 -1.7
v 1.3 0.4 -1.8
v 1.4 0.4 -1.8
v -0.7 0.4 -1.9
v -0.0999999 0.4 -1.9
v 1.3 0.4 -1.9
v 1.4 0.4 -1.9
v 1.7 0.4 -1.9
v 1.9 0.4 -1.9
v -0.7 0.4 -2
v -0.0999999 0.4 -2
v 1.7 0.4 -2
v 1.8 0.4 -2
v 2 0.4 -2
v 2.2 0.4 -2
v -0.6 0.4 -2.1
v 0.3 0.4 -2.1
v 1.3 0.4 -2.1
v 1.5 0.4 -2.1
v 1.5 0.4 -2.2
v 1.8 0.4 -2.2
v 1.3 0.4 -2.3
v 1.9 0.4 -2.3
v -0.6 0.4 -2.4
v 0.3 0.4 -2.4
v -1.8 0.5 2.5
v -0.3 0.5 2.5
v -1.3 0.5 2.4
v -1.1 0.5 2.4
v -1.8 0.5 2.3
v -1.3 0.5 2.3
v -1.2 0.5 2.3
v -1.1 0.5 2.2
v -0.7 0.5 2.2
v -1.2 0.5 2
v -0.7 0.5 2
v -0.3 0.5 2
v -1.1 0.5 1.8
v -1 0.5 1.8
v -1.1 0.5 1.7
v -1 0.5 1.7
v 1.4 0.5 -1.8
v 1.7 0.5 -1.8
v 1.3 0.5 -1.9
v 1.4 0.5 -1.9
v 1.7 0.5 -1.9
v 1.7 0.5 -2
v 1.8 0.5 -2
v 1.3 0.5 -2.1
v 1.4 0.5 -2.1
v 1.5 0.5 -2.1
v 1.7 0.5 -2.1
v 1.5 0.5 -2.2
v 1.8 0.5 -2.2
v 1.4 0.6 -1.9
v 1.7 0.6 -1.9
v 1.4 0.6 -2.1
v 1.7 0.6 -2.1

# faces
f 3/5/1 2/5/1 1/5/1
f 4/5/1 2/5/1 3/5/1
f 7/7/1 6/7/1 5/7/1
f 8/7/1 6/7/1 7/7/1
f 14/5/1 10/5/1 9/5/1
f 15/5/1 10/5/1 14/5/1
f 16/5/1 10/5/1 15/5/1
f 17/5/1 12/5/1 11/5/1
f 18/5/1 12/5/1 17/5/1
f 19/5/1 14/5/1 13/5/1
f 19/5/1 15/5/1 14/5/1
f 20/5/1 15/5/1 19/5/1
f 23/5/1 22/5/1 21/5/1
f 24/5/1 22/5/1 23/5/1
f 28/5/1 26/5/1 25/5/1
f 29/5/1 28/5/1 27/5/1
f 30/5/1 26/5/1 28/5/1
f 30/5/1 28/5/1 29/5/1
f 34/5/1 32/5/1 31/5/1
f 34/3/1 33/3/1 32/3/1
f 35/3/1 33/3/1 34/3/1
f 36/3/1 33/3/1 35/3/1
f 37/5/1 34/5/1 31/5/1
f 37/5/1 35/5/1 34/5/1
f 38/5/1 35/5/1 37/5/1
f 39/5/1 35/5/1 38/5/1
f 45/4/1 41/4/1 40/4/1
f 46/4/1 41/4/1 45/4/1
f 47/4/1 43/4/1 42/4/1
f 48/5/1 44/5/1 43/5/1
f 48/4/1 43/4/1 47/4/1
f 49/5/1 44/5/1 48/5/1
f 52/5/1 51/5/1 50/5/1
f 53/5/1 51/5/1 52/5/1
f 58/6/1 55/6/1 54/6/1
f 59/6/1 55/6/1 58/6/1
f 60/6/1 57/6/1 56/6/1
f 61/6/1 57/6/1 60/6/1
f 67/6/1 63/6/1 62/6/1
f 68/6/1 63/6/1 67/6/1
f 69/4/1 66/4/1 65/4/1
f 69/5/1 65/5/1 64/5/1
f 70/4/1 66/4/1 69/4/1
f 78/6/1 72/6/1 71/6/1
f 79/6/1 72/6/1 78/6/1
f 80/6/1 74/6/1 73/6/1
f 80/6/1 75/6/1 74/6/1
f 81/6/1 75/6/1 80/6/1
f 82/6/1 77/6/1 76/6/1
f 83/6/1 77/6/1 82/6/1
f 84/5/1 70/5/1 69/5/1
f 84/5/1 69/5/1 64/5/1
f 85/5/1 70/5/1 84/5/1
f 88/6/1 87/6/1 86/6/1
f 89/6/1 87/6/1 88/6/1
f 96/6/1 91/6/1 90/6/1
f 97/6/1 91/6/1 96/6/1
f 98/6/1 93/6/1 92/6/1
f 99/6/1 93/6/1 98/6/1
f 100/6/1 95/6/1 94/6/1
f 101/6/1 95/6/1 100/6/1
f 104/6/1 103/6/1 102/6/1
f 105/6/1 103/6/1 104/6/1
f 108/6/1 107/6/1 106/6/1
f 109/6/1 107/6/1 108/6/1
f 112/6/1 111/6/1 110/6/1
f 113/6/1 111/6/1 112/6/1
f 118/6/1 115/6/1 114/6/1
f 119/6/1 115/6/1 118/6/1
f 120/4/1 117/4/1 116/4/1
f 121/4/1 117/4/1 120/4/1
f 127/6/1 123/6/1 122/6/1
f 128/6/1 123/6/1 127/6/1
f 129/6/1 123/6/1 128/6/1
f 130/6/1 125/6/1 124/6/1
f 131/6/1 125/6/1 130/6/1
f 132/4/1 127/4/1 126/4/1
f 132/4/1 128/4/1 127/4/1
f 133/4/1 128/4/1 132/4/1
f 136/4/1 133/4/1 132/4/1
f 137/6/1 134/6/1 133/6/1
f 137/4/1 133/4/1 136/4/1
f 138/6/1 134/6/1 137/6/1
f 139/4/1 136/4/1 135/4/1
f 140/4/1 136/4/1 139/4/1
f 146/6/1 142/6/1 141/6/1
f 147/5/1 144/5/1 143/5/1
f 148/5/1 144/5/1 147/5/1
f 149/5/1 146/5/1 145/5/1
f 150/6/1 142/6/1 146/6/1
f 150/5/1 146/5/1 149/5/1
f 151/6/1 142/6/1 150/6/1
f 154/6/1 153/6/1 152/6/1
f 155/6/1 153/6/1 154/6/1
f 158/6/1 157/6/1 156/6/1
f 159/6/1 157/6/1 158/6/1
f 162/6/1 161/6/1 160/6/1
f 163/6/1 161/6/1 162/6/1
f 170/5/1 165/5/1 164/5/1
f 170/5/1 166/5/1 165/5/1
f 171/5/1 166/5/1 170/5/1
f 172/4/1 167/4/1 166/4/1
f 172/5/1 166/5/1 171/5/1
f 173/4/1 167/4/1 172/4/1
f 174/6/1 169/6/1 168/6/1
f 175/6/1 169/6/1 174/6/1
f 182/6/1 177/6/1 176/6/1
f 183/6/1 177/6/1 182/6/1
f 184/6/1 179/6/1 178/6/1
f 185/6/1 179/6/1 184/6/1
f 187/5/1 181/5/1 180/5/1
f 188/5/1 187/5/1 186/5/1
f 189/5/1 181/5/1 187/5/1
f 189/5/1 187/5/1 188/5/1
f 192/6/1 191/6/1 190/6/1
f 193/6/1 191/6/1 192/6/1
f 196/6/1 195/6/1 194/6/1
f 197/6/1 195/6/1 196/6/1
f 200/6/1 199/6/1 198/6/1
f 201/6/1 199/6/1 200/6/1
f 204/6/1 203/6/1 202/6/1
f 205/6/1 203/6/1 204/6/1
f 208/6/1 207/6/1 206/6/1
f 209/6/1 207/6/1 208/6/1
f 212/6/1 211/6/1 210/6/1
f 213/6/1 211/6/1 212/6/1
f 216/6/1 215/6/1 214/6/1
f 217/6/1 215/6/1 216/6/1
f 220/6/1 219/6/1 218/6/1
f 221/6/1 219/6/1 220/6/1
f 224/6/1 223/6/1 222/6/1
f 225/6/1 223/6/1 224/6/1
f 228/6/1 227/6/1 226/6/1
f 229/6/1 227/6/1 228/6/1
f 232/6/1 231/6/1 230/6/1
f 233/6/1 231/6/1 232/6/1
f 236/6/1 235/6/1 234/6/1
f 237/6/1 235/6/1 236/6/1
f 240/6/1 239/6/1 238/6/1
f 241/6/1 239/6/1 240/6/1
f 244/6/1 243/6/1 242/6/1
f 245/6/1 243/6/1 244/6/1
f 250/5/1 247/5/1 246/5/1
f 253/6/1 249/6/1 248/6/1
f 254/6/1 249/6/1 253/6/1
f 255/5/1 250/5/1 246/5/1
f 255/5/1 251/5/1 250/5/1
f 256/4/1 252/4/1 251/4/1
f 256/5/1 251/5/1 255/5/1
f 257/4/1 252/4/1 256/4/1
f 260/5/1 259/5/1 258/5/1
f 261/5/1 259/5/1 260/5/1
f 266/5/1 260/5/1 258/5/1
f 267/5/1 260/5/1 266/5/1
f 268/6/1 263/6/1 262/6/1
f 269/6/1 263/6/1 268/6/1
f 270/6/1 265/6/1 264/6/1
f 271/6/1 265/6/1 270/6/1
f 277/6/1 273/6/1 272/6/1
f 278/4/1 275/4/1 274/4/1
f 278/6/1 273/6/1 277/6/1
f 278/4/1 274/4/1 273/4/1
f 279/4/1 275/4/1 278/4/1
f 280/5/1 276/5/1 275/5/1
f 280/4/1 275/4/1 279/4/1
f 281/7/1 280/7/1 279/7/1
f 282/5/1 276/5/1 280/5/1
f 282/7/1 280/7/1 281/7/1
f 283/5/1 276/5/1 282/5/1
f 284/5/1 276/5/1 283/5/1
f 285/7/1 283/7/1 282/7/1
f 286/7/1 283/7/1 285/7/1
f 289/7/1 288/7/1 287/7/1
f 290/7/1 288/7/1 289/7/1
f 292/7/1 291/7/1 290/7/1
f 293/7/1 291/7/1 292/7/1
f 298/6/1 295/6/1 294/6/1
f 299/6/1 295/6/1 298/6/1
f 300/6/1 297/6/1 296/6/1
f 301/6/1 297/6/1 300/6/1
f 304/7/1 303/7/1 302/7/1
f 305/7/1 303/7/1 304/7/1
f 312/6/1 307/6/1 306/6/1
f 313/6/1 307/6/1 312/6/1
f 314/6/1 309/6/1 308/6/1
f 315/6/1 309/6/1 314/6/1
f 316/6/1 309/6/1 315/6/1
f 317/6/1 309/6/1 316/6/1
f 318/6/1 311/6/1 310/6/1
f 319/6/1 311/6/1 318/6/1
f 320/6/1 316/6/1 315/6/1
f 321/6/1 316/6/1 320/6/1
f 328/6/1 323/6/1 322/6/1
f 329/6/1 323/6/1 328/6/1
f 333/6/1 325/6/1 324/6/1
f 334/6/1 325/6/1 333/6/1
f 335/6/1 325/6/1 334/6/1
f 336/6/1 327/6/1 326/6/1
f 337/6/1 327/6/1 336/6/1
f 338/4/1 330/4/1 329/4/1
f 339/6/1 331/6/1 330/6/1
f 339/4/1 330/4/1 338/4/1
f 340/6/1 331/6/1 339/6/1
f 341/6/1 333/6/1 332/6/1
f 342/6/1 333/6/1 341/6/1
f 343/6/1 335/6/1 334/6/1
f 344/6/1 335/6/1 343/6/1
f 351/6/1 346/6/1 345/6/1
f 352/6/1 346/6/1 351/6/1
f 353/6/1 348/6/1 347/6/1
f 354/6/1 348/6/1 353/6/1
f 355/6/1 350/6/1 349/6/1
f 356/6/1 350/6/1 355/6/1
f 362/4/1 358/4/1 357/4/1
f 363/4/1 358/4/1 362/4/1
f 364/7/1 361/7/1 360/7/1
f 364/7/1 360/7/1 359/7/1
f 365/7/1 361/7/1 364/7/1
f 368/7/1 367/7/1 366/7/1
f 369/7/1 367/7/1 368/7/1
f 370/7/2 371/7/2 372/7/2
f 372/7/2 371/7/2 373/7/2
f 374/4/2 375/4/2 379/4/2
f 379/4/2 375/4/2 380/4/2
f 376/6/2 377/6/2 381/6/2
f 381/6/2 377/6/2 382/6/2
f 378/6/2 379/6/2 383/6/2
f 383/6/2 379/6/2 384/6/2
f 385/5/2 386/5/2 393/5/2
f 393/5/2 386/5/2 394/5/2
f 387/4/2 388/4/2 395/4/2
f 395/4/2 388/4/2 396/4/2
f 389/4/2 390/4/2 397/4/2
f 397/4/2 390/4/2 398/4/2
f 391/4/2 392/4/2 399/4/2
f 399/4/2 392/4/2 400/4/2
f 401/6/2 402/6/2 405/6/2
f 405/6/2 402/6/2 406/6/2
f 403/6/2 404/6/2 407/6/2
f 407/6/2 404/6/2 408/6/2
f 409/6/2 410/6/2 414/6/2
f 414/6/2 410/6/2 415/6/2
f 415/6/2 410/6/2 416/6/2
f 411/6/2 412/6/2 419/6/2
f 419/6/2 412/6/2 420/6/2
f 420/6/2 412/6/2 421/6/2
f 413/6/2 414/6/2 423/6/2
f 414/6/2 415/6/2 423/6/2
f 423/6/2 415/6/2 424/6/2
f 417/6/2 418/6/2 425/6/2
f 425/6/2 418/6/2 426/6/2
f 421/6/2 422/6/2 427/6/2
f 420/6/2 421/6/2 427/6/2
f 427/6/2 422/6/2 428/6/2
f 428/6/2 422/6/2 429/6/2
f 429/6/2 422/6/2 430/6/2
f 428/6/2 429/6/2 431/6/2
f 431/6/2 429/6/2 432/6/2
f 433/6/2 434/6/2 443/6/2
f 443/6/2 434/6/2 444/6/2
f 435/6/2 436/6/2 445/6/2
f 445/6/2 436/6/2 446/6/2
f 437/6/2 438/6/2 447/6/2
f 447/6/2 438/6/2 448/6/2
f 439/6/2 440/6/2 449/6/2
f 449/6/2 440/6/2 450/6/2
f 441/6/2 442/6/2 451/6/2
f 451/6/2 442/6/2 452/6/2
f 452/6/2 442/6/2 453/6/2
f 453/6/2 454/6/2 455/6/2
f 452/6/2 453/6/2 455/6/2
f 455/6/2 454/6/2 456/6/2
f 457/6/2 458/6/2 465/6/2
f 465/6/2 458/6/2 466/6/2
f 459/6/2 460/6/2 467/6/2
f 467/6/2 460/6/2 468/6/2
f 461/6/2 462/6/2 469/6/2
f 469/6/2 462/6/2 470/6/2
f 463/6/2 464/6/2 471/6/2
f 471/6/2 464/6/2 472/6/2
f 473/5/2 474/5/2 476/5/2
f 474/4/2 475/4/2 477/4/2
f 476/5/2 474/5/2 477/5/2
f 477/4/2 475/4/2 478/4/2
f 479/4/2 480/4/2 481/4/2
f 481/4/2 480/4/2 482/4/2
f 483/5/2 484/5/2 485/5/2
f 485/5/2 484/5/2 486/5/2
f 483/5/2 485/5/2 489/5/2
f 489/5/2 485/5/2 490/5/2
f 487/6/2 488/6/2 491/6/2
f 491/6/2 488/6/2 492/6/2
f 493/6/2 494/6/2 495/6/2
f 495/6/2 494/6/2 496/6/2
f 497/6/2 498/6/2 499/6/2
f 499/6/2 498/6/2 500/6/2
f 501/6/2 502/6/2 503/6/2
f 503/6/2 502/6/2 504/6/2
f 505/5/2 506/5/2 507/5/2
f 507/5/2 506/5/2 508/5/2
f 509/6/2 510/6/2 515/6/2
f 515/6/2 510/6/2 516/6/2
f 513/5/2 514/5/2 517/5/2
f 511/5/2 512/5/2 517/5/2
f 512/5/2 513/5/2 517/5/2
f 517/5/2 514/5/2 518/5/2
f 519/6/2 520/6/2 521/6/2
f 521/6/2 520/6/2 522/6/2
f 523/5/2 524/5/2 526/5/2
f 524/4/2 525/4/2 527/4/2
f 526/5/2 524/5/2 527/5/2
f 527/4/2 525/4/2 528/4/2
f 529/6/2 530/6/2 531/6/2
f 531/6/2 530/6/2 532/6/2
f 533/6/2 534/6/2 535/6/2
f 535/6/2 534/6/2 536/6/2
f 537/6/2 538/6/2 539/6/2
f 539/6/2 538/6/2 540/6/2
f 541/5/2 542/5/2 545/5/2
f 543/6/2 544/6/2 549/6/2
f 541/5/2 545/5/2 552/5/2
f 545/5/2 546/5/2 552/5/2
f 546/4/2 547/4/2 553/4/2
f 552/5/2 546/5/2 553/5/2
f 553/4/2 547/4/2 554/4/2
f 548/5/2 549/5/2 555/5/2
f 549/6/2 544/6/2 556/6/2
f 555/5/2 549/5/2 556/5/2
f 556/6/2 544/6/2 557/6/2
f 550/6/2 551/6/2 558/6/2
f 558/6/2 551/6/2 559/6/2
f 555/6/2 556/6/2 560/6/2
f 560/6/2 556/6/2 561/6/2
f 564/6/2 565/6/2 568/6/2
f 568/6/2 565/6/2 569/6/2
f 562/5/2 563/5/2 574/5/2
f 566/4/2 567/4/2 575/4/2
f 575/4/2 567/4/2 576/4/2
f 570/6/2 571/6/2 577/6/2
f 577/6/2 571/6/2 578/6/2
f 572/4/2 573/4/2 579/4/2
f 573/5/2 574/5/2 580/5/2
f 579/4/2 573/4/2 580/4/2
f 580/5/2 574/5/2 581/5/2
f 581/5/2 574/5/2 582/5/2
f 574/5/2 563/5/2 583/5/2
f 582/5/2 574/5/2 583/5/2
f 584/6/2 585/6/2 588/6/2
f 588/6/2 585/6/2 589/6/2
f 586/6/2 587/6/2 592/6/2
f 592/6/2 587/6/2 593/6/2
f 590/6/2 591/6/2 594/6/2
f 594/6/2 591/6/2 595/6/2
f 596/6/2 597/6/2 598/6/2
f 598/6/2 597/6/2 599/6/2
f 600/6/2 601/6/2 602/6/2
f 602/6/2 601/6/2 603/6/2
f 604/6/2 605/6/2 606/6/2
f 606/6/2 605/6/2 607/6/2
f 608/6/2 609/6/2 610/6/2
f 610/6/2 609/6/2 611/6/2
f 612/5/2 613/5/2 615/5/2
f 613/6/2 614/6/2 616/6/2
f 615/5/2 613/5/2 616/5/2
f 616/6/2 614/6/2 617/6/2
f 615/6/2 616/6/2 618/6/2
f 618/6/2 616/6/2 619/6/2
f 620/6/2 621/6/2 624/6/2
f 624/6/2 621/6/2 625/6/2
f 622/6/2 623/6/2 626/6/2
f 626/6/2 623/6/2 627/6/2
f 628/6/2 629/6/2 630/6/2
f 630/6/2 629/6/2 631/6/2
f 632/5/2 633/5/2 636/5/2
f 636/5/2 633/5/2 637/5/2
f 634/4/2 635/4/2 638/4/2
f 638/4/2 635/4/2 639/4/2
f 640/7/2 641/7/2 642/7/2
f 640/7/2 642/7/2 644/7/2
f 642/7/2 643/7/2 644/7/2
f 644/7/2 643/7/2 645/7/2
f 645/7/2 643/7/2 646/7/2
f 646/7/2 647/7/2 648/7/2
f 645/7/2 646/7/2 648/7/2
f 648/7/2 647/7/2 649/7/2
f 650/6/2 651/6/2 652/6/2
f 652/6/2 651/6/2 653/6/2
f 654/7/2 655/7/2 656/7/2
f 656/7/2 655/7/2 657/7/2
f 658/6/2 659/6/2 660/6/2
f 660/6/2 659/6/2 661/6/2
f 662/5/2 663/5/2 664/5/2
f 664/5/2 663/5/2 665/5/2
f 666/5/2 667/5/2 670/5/2
f 670/5/2 667/5/2 671/5/2
f 668/5/2 669/5/2 674/5/2
f 674/5/2 669/5/2 675/5/2
f 672/5/2 673/5/2 676/5/2
f 676/5/2 673/5/2 677/5/2
f 680/3/2 681/3/2 684/3/2
f 684/3/2 681/3/2 685/3/2
f 682/3/2 683/3/2 686/3/2
f 686/3/2 683/3/2 687/3/2
f 678/5/2 679/5/2 688/5/2
f 688/5/2 679/5/2 689/5/2
f 692/5/2 693/5/2 695/5/2
f 695/5/2 693/5/2 696/5/2
f 696/5/2 693/5/2 697/5/2
f 690/5/2 691/5/2 699/5/2
f 694/5/2 695/5/2 700/5/2
f 695/5/2 696/5/2 700/5/2
f 700/5/2 696/5/2 701/5/2
f 698/5/2 699/5/2 702/5/2
f 702/5/2 699/5/2 703/5/2
f 703/5/2 699/5/2 704/5/2
f 699/5/2 691/5/2 705/5/2
f 704/5/2 699/5/2 705/5/2
f 703/7/2 704/7/2 706/7/2
f 706/7/2 704/7/2 707/7/2
f 708/5/2 709/5/2 710/5/2
f 710/5/2 709/5/2 711/5/2
f 711/5/2 709/5/2 712/5/2
f 713/7/2 714/7/2 715/7/2
f 712/7/2 713/7/2 715/7/2
f 711/7/2 712/7/2 715/7/2
f 715/7/2 714/7/2 716/7/2
f 717/5/2 718/5/2 719/5/2
f 719/5/2 718/5/2 720/5/2
f 721/5/2 722/5/2 723/5/2
f 723/5/2 722/5/2 724/5/2
f 727/5/3 726/5/3 725/5/3
f 729/5/3 727/5/3 725/5/3
f 729/5/3 728/5/3 727/5/3
f 730/5/3 728/5/3 729/5/3
f 731/5/3 729/5/3 725/5/3
f 732/5/3 729/5/3 731/5/3
f 733/5/3 728/5/3 730/5/3
f 734/5/3 728/5/3 733/5/3
f 737/5/3 736/5/3 735/5/3
f 738/5/3 736/5/3 737/5/3
f 742/5/3 740/5/3 739/5/3
f 743/5/3 740/5/3 742/5/3
f 743/5/3 742/5/3 741/5/3
f 745/5/3 744/5/3 743/5/3
f 746/5/3 743/5/3 741/5/3
f 746/5/3 745/5/3 743/5/3
f 747/5/3 745/5/3 746/5/3
f 748/5/3 746/5/3 741/5/3
f 749/5/3 746/5/3 748/5/3
f 752/5/3 751/5/3 750/5/3
f 753/5/3 751/5/3 752/5/3
f 754/5/3 751/5/3 753/5/3
f 755/5/3 751/5/3 754/5/3
f 758/5/3 757/5/3 756/5/3
f 759/5/3 757/5/3 758/5/3
f 762/5/3 761/5/3 760/5/3
f 763/5/3 761/5/3 762/5/3
f 766/5/3 765/5/3 764/5/3
f 767/5/3 765/5/3 766/5/3
f 768/5/3 765/5/3 767/5/3
f 769/4/3 768/4/3 767/4/3
f 770/4/3 768/4/3 769/4/3
f 773/4/3 772/4/3 771/4/3
f 774/4/3 772/4/3 773/4/3
f 777/3/3 776/3/3 775/3/3
f 778/3/3 776/3/3 777/3/3
f 781/6/3 780/6/3 779/6/3
f 782/6/3 780/6/3 781/6/3
f 785/6/3 784/6/3 783/6/3
f 786/6/3 784/6/3 785/6/3
f 789/4/3 788/4/3 787/4/3
f 790/4/3 788/4/3 789/4/3
f 793/6/3 792/6/3 791/6/3
f 794/6/3 792/6/3 793/6/3
f 797/4/3 796/4/3 795/4/3
f 798/4/3 796/4/3 797/4/3
f 801/6/3 800/6/3 799/6/3
f 802/6/3 800/6/3 801/6/3
f 806/6/3 804/6/3 803/6/3
f 806/6/3 805/6/3 804/6/3
f 807/6/3 805/6/3 806/6/3
f 808/6/3 806/6/3 803/6/3
f 809/6/3 806/6/3 808/6/3
f 812/6/3 811/6/3 810/6/3
f 813/6/3 811/6/3 812/6/3
f 816/6/3 815/6/3 814/6/3
f 817/6/3 815/6/3 816/6/3
f 820/6/3 819/6/3 818/6/3
f 821/6/3 819/6/3 820/6/3
f 824/6/3 823/6/3 822/6/3
f 825/6/3 823/6/3 824/6/3
f 828/6/3 827/6/3 826/6/3
f 829/6/3 827/6/3 828/6/3
f 832/5/3 831/5/3 830/5/3
f 833/5/3 831/5/3 832/5/3
f 834/5/3 831/5/3 833/5/3
f 835/5/3 834/5/3 833/5/3
f 836/5/3 834/5/3 835/5/3
f 838/6/3 837/6/3 836/6/3
f 839/6/3 837/6/3 838/6/3
f 842/5/3 841/5/3 840/5/3
f 843/5/3 841/5/3 842/5/3
f 844/5/3 841/5/3 843/5/3
f 845/5/3 841/5/3 844/5/3
f 846/4/3 845/4/3 844/4/3
f 847/4/3 845/4/3 846/4/3
f 850/6/3 849/6/3 848/6/3
f 851/6/3 849/6/3 850/6/3
f 853/4/3 852/4/3 851/4/3
f 854/4/3 852/4/3 853/4/3
f 855/4/3 852/4/3 854/4/3
f 856/5/3 855/5/3 854/5/3
f 857/5/3 855/5/3 856/5/3
f 860/6/3 859/6/3 858/6/3
f 861/6/3 859/6/3 860/6/3
f 865/7/3 863/7/3 862/7/3
f 866/7/3 865/7/3 864/7/3
f 867/7/3 865/7/3 866/7/3
f 868/7/3 863/7/3 865/7/3
f 868/7/3 865/7/3 867/7/3
f 871/7/3 870/7/3 869/7/3
f 872/7/3 870/7/3 871/7/3
f 876/7/3 874/7/3 873/7/3
f 877/7/3 874/7/3 876/7/3
f 877/5/3 876/5/3 875/5/3
f 878/7/3 874/7/3 877/7/3
f 879/5/3 878/5/3 877/5/3
f 880/5/3 877/5/3 875/5/3
f 880/5/3 879/5/3 877/5/3
f 881/5/3 879/5/3 880/5/3
f 884/6/3 883/6/3 882/6/3
f 885/6/3 883/6/3 884/6/3
f 888/6/3 887/6/3 886/6/3
f 889/6/3 887/6/3 888/6/3
f 892/6/3 891/6/3 890/6/3
f 893/6/3 891/6/3 892/6/3
f 896/6/3 895/6/3 894/6/3
f 897/6/3 895/6/3 896/6/3
f 900/6/3 899/6/3 898/6/3
f 901/6/3 899/6/3 900/6/3
f 904/5/3 903/5/3 902/5/3
f 905/5/3 903/5/3 904/5/3
f 908/4/3 907/4/3 906/4/3
f 909/4/3 907/4/3 908/4/3
f 910/4/3 907/4/3 909/4/3
f 911/5/3 910/5/3 909/5/3
f 912/5/3 910/5/3 911/5/3
f 915/6/3 914/6/3 913/6/3
f 916/6/3 914/6/3 915/6/3
f 919/6/3 918/6/3 917/6/3
f 920/6/3 918/6/3 919/6/3
f 923/6/3 922/6/3 921/6/3
f 924/6/3 922/6/3 923/6/3
f 927/6/3 926/6/3 925/6/3
f 928/6/3 926/6/3 927/6/3
f 931/6/3 930/6/3 929/6/3
f 932/6/3 930/6/3 931/6/3
f 935/6/3 934/6/3 933/6/3
f 936/6/3 934/6/3 935/6/3
f 939/6/3 938/6/3 937/6/3
f 940/6/3 938/6/3 939/6/3
f 943/6/3 942/6/3 941/6/3
f 944/6/3 942/6/3 943/6/3
f 947/6/3 946/6/3 945/6/3
f 948/6/3 946/6/3 947/6/3
f 951/6/3 950/6/3 949/6/3
f 952/6/3 950/6/3 951/6/3
f 955/6/3 954/6/3 953/6/3
f 956/6/3 954/6/3 955/6/3
f 959/5/3 958/5/3 957/5/3
f 961/5/3 959/5/3 957/5/3
f 961/5/3 960/5/3 959/5/3
f 962/5/3 960/5/3 961/5/3
f 965/6/3 964/6/3 963/6/3
f 966/6/3 964/6/3 965/6/3
f 969/6/3 968/6/3 967/6/3
f 970/6/3 968/6/3 969/6/3
f 973/6/3 972/6/3 971/6/3
f 974/6/3 972/6/3 973/6/3
f 977/6/3 976/6/3 975/6/3
f 978/6/3 976/6/3 977/6/3
f 981/6/3 980/6/3 979/6/3
f 982/6/3 980/6/3 981/6/3
f 985/6/3 984/6/3 983/6/3
f 986/6/3 984/6/3 985/6/3
f 989/6/3 988/6/3 987/6/3
f 990/6/3 988/6/3 989/6/3
f 993/4/3 992/4/3 991/4/3
f 994/4/3 992/4/3 993/4/3
f 998/5/3 996/5/3 995/5/3
f 999/6/3 997/6/3 996/6/3
f 999/5/3 996/5/3 998/5/3
f 1000/6/3 997/6/3 999/6/3
f 1001/6/3 997/6/3 1000/6/3
f 1004/6/3 1003/6/3 1002/6/3
f 1005/6/3 1003/6/3 1004/6/3
f 1008/6/3 1007/6/3 1006/6/3
f 1009/6/3 1007/6/3 1008/6/3
f 1012/6/3 1011/6/3 1010/6/3
f 1013/6/3 1011/6/3 1012/6/3
f 1016/6/3 1015/6/3 1014/6/3
f 1017/6/3 1015/6/3 1016/6/3
f 1020/6/3 1019/6/3 1018/6/3
f 1021/6/3 1019/6/3 1020/6/3
f 1024/6/3 1023/6/3 1022/6/3
f 1025/6/3 1023/6/3 1024/6/3
f 1028/6/3 1027/6/3 1026/6/3
f 1029/6/3 1027/6/3 1028/6/3
f 1030/4/3 1029/4/3 1028/4/3
f 1031/4/3 1029/4/3 1030/4/3
f 1034/6/3 1033/6/3 1032/6/3
f 1035/6/3 1033/6/3 1034/6/3
f 1038/6/3 1037/6/3 1036/6/3
f 1039/6/3 1037/6/3 1038/6/3
f 1042/4/3 1041/4/3 1040/4/3
f 1043/4/3 1041/4/3 1042/4/3
f 1044/4/3 1041/4/3 1043/4/3
f 1045/5/3 1044/5/3 1043/5/3
f 1046/5/3 1044/5/3 1045/5/3
f 1047/5/3 1044/5/3 1046/5/3
f 1050/6/3 1049/6/3 1048/6/3
f 1051/6/3 1049/6/3 1050/6/3
f 1054/6/3 1053/6/3 1052/6/3
f 1055/6/3 1053/6/3 1054/6/3
f 1058/6/3 1057/6/3 1056/6/3
f 1059/6/3 1057/6/3 1058/6/3
f 1062/6/3 1061/6/3 1060/6/3
f 1063/6/3 1061/6/3 1062/6/3
f 1066/6/3 1065/6/3 1064/6/3
f 1067/6/3 1065/6/3 1066/6/3
f 1070/6/3 1069/6/3 1068/6/3
f 1071/6/3 1069/6/3 1070/6/3
f 1074/6/3 1073/6/3 1072/6/3
f 1075/6/3 1073/6/3 1074/6/3
f 1078/7/3 1077/7/3 1076/7/3
f 1079/7/3 1077/7/3 1078/7/3
f 1082/6/3 1081/6/3 1080/6/3
f 1083/6/3 1081/6/3 1082/6/3
f 1086/6/3 1085/6/3 1084/6/3
f 1088/6/3 1086/6/3 1084/6/3
f 1088/6/3 1087/6/3 1086/6/3
f 1089/6/3 1087/6/3 1088/6/3
f 1091/6/3 1087/6/3 1089/6/3
f 1092/6/3 1091/6/3 1090/6/3
f 1093/6/3 1087/6/3 1091/6/3
f 1093/6/3 1091/6/3 1092/6/3
f 1094/6/3 1087/6/3 1093/6/3
f 1095/6/3 1087/6/3 1094/6/3
f 1098/7/3 1097/7/3 1096/7/3
f 1099/7/3 1097/7/3 1098/7/3
f 1101/7/3 1099/7/3 1098/7/3
f 1101/7/3 1100/7/3 1099/7/3
f 1102/7/3 1100/7/3 1101/7/3
f 1105/5/3 1104/5/3 1103/5/3
f 1106/5/3 1104/5/3 1105/5/3
f 1107/4/3 1106/4/3 1105/4/3
f 1108/4/3 1106/4/3 1107/4/3
f 1111/4/3 1110/4/3 1109/4/3
f 1112/4/3 1110/4/3 1111/4/3
f 1115/6/3 1114/6/3 1113/6/3
f 1116/6/3 1114/6/3 1115/6/3
f 1119/4/3 1118/4/3 1117/4/3
f 1120/4/3 1118/4/3 1119/4/3
f 1123/7/3 1122/7/3 1121/7/3
f 1124/7/3 1122/7/3 1123/7/3
f 1128/7/3 1125/7/3 1124/7/3
f 1129/7/3 1125/7/3 1128/7/3
f 1130/5/3 1127/5/3 1126/5/3
f 1131/5/3 1127/5/3 1130/5/3
f 1134/7/3 1133/7/3 1132/7/3
f 1135/7/3 1133/7/3 1134/7/3
f 1138/5/3 1137/5/3 1136/5/3
f 1139/5/3 1137/5/3 1138/5/3
f 1140/5/3 1137/5/3 1139/5/3
f 1141/4/4 1142/4/4 1144/4/4
f 1142/5/4 1143/5/4 1145/5/4
f 1144/4/4 1142/4/4 1145/4/4
f 1145/5/4 1143/5/4 1146/5/4
f 1144/4/4 1145/4/4 1147/4/4
f 1145/4/4 1146/4/4 1147/4/4
f 1147/4/4 1146/4/4 1148/4/4
f 1148/4/4 1146/4/4 1149/4/4
f 1150/4/4 1151/4/4 1152/4/4
f 1152/4/4 1151/4/4 1153/4/4
f 1153/4/4 1151/4/4 1154/4/4
f 1153/5/4 1154/5/4 1155/5/4
f 1155/5/4 1154/5/4 1156/5/4
f 1157/5/4 1158/5/4 1159/5/4
f 1157/5/4 1159/5/4 1160/5/4
f 1160/5/4 1159/5/4 1161/5/4
f 1162/6/4 1163/6/4 1164/6/4
f 1164/6/4 1163/6/4 1165/6/4
f 1164/4/4 1165/4/4 1166/4/4
f 1166/4/4 1165/4/4 1167/4/4
f 1168/4/4 1169/4/4 1170/4/4
f 1170/4/4 1169/4/4 1171/4/4
f 1171/4/4 1169/4/4 1172/4/4
f 1171/5/4 1172/5/4 1173/5/4
f 1173/5/4 1172/5/4 1174/5/4
f 1175/6/4 1176/6/4 1177/6/4
f 1177/6/4 1176/6/4 1178/6/4
f 1178/6/4 1176/6/4 1179/6/4
f 1180/6/4 1181/6/4 1182/6/4
f 1182/6/4 1181/6/4 1183/6/4
f 1184/6/4 1185/6/4 1186/6/4
f 1186/6/4 1185/6/4 1187/6/4
f 1188/4/4 1189/4/4 1190/4/4
f 1190/4/4 1189/4/4 1191/4/4
f 1192/4/4 1193/4/4 1194/4/4
f 1194/4/4 1193/4/4 1195/4/4
f 1196/6/4 1197/6/4 1198/6/4
f 1198/6/4 1197/6/4 1199/6/4
f 1200/6/4 1201/6/4 1202/6/4
f 1202/6/4 1201/6/4 1203/6/4
f 1204/6/4 1205/6/4 1206/6/4
f 1206/6/4 1205/6/4 1207/6/4
f 1208/6/4 1209/6/4 1212/6/4
f 1212/6/4 1209/6/4 1213/6/4
f 1210/6/4 1211/6/4 1214/6/4
f 1214/6/4 1211/6/4 1215/6/4
f 1215/6/4 1216/6/4 1217/6/4
f 1214/6/4 1215/6/4 1217/6/4
f 1217/6/4 1216/6/4 1218/6/4
f 1214/6/4 1217/6/4 1219/6/4
f 1219/6/4 1217/6/4 1220/6/4
f 1221/6/4 1222/6/4 1225/6/4
f 1225/6/4 1222/6/4 1226/6/4
f 1223/6/4 1224/6/4 1227/6/4
f 1223/6/4 1227/6/4 1229/6/4
f 1227/6/4 1228/6/4 1229/6/4
f 1229/6/4 1228/6/4 1230/6/4
f 1230/6/4 1228/6/4 1231/6/4
f 1232/6/4 1233/6/4 1235/6/4
f 1233/6/4 1234/6/4 1235/6/4
f 1235/6/4 1234/6/4 1236/6/4
f 1232/6/4 1235/6/4 1237/6/4
f 1237/6/4 1235/6/4 1238/6/4
f 1239/6/4 1240/6/4 1241/6/4
f 1241/6/4 1240/6/4 1242/6/4
f 1243/6/4 1244/6/4 1245/6/4
f 1245/6/4 1244/6/4 1246/6/4
f 1247/6/4 1248/6/4 1249/6/4
f 1249/6/4 1248/6/4 1250/6/4
f 1250/6/4 1248/6/4 1251/6/4
f 1250/6/4 1251/6/4 1253/6/4
f 1251/6/4 1252/6/4 1253/6/4
f 1253/6/4 1252/6/4 1254/6/4
f 1250/6/4 1253/6/4 1256/6/4
f 1255/6/4 1256/6/4 1257/6/4
f 1256/6/4 1253/6/4 1258/6/4
f 1257/6/4 1256/6/4 1258/6/4
f 1259/6/4 1260/6/4 1261/6/4
f 1261/6/4 1260/6/4 1262/6/4
f 1263/6/4 1264/6/4 1265/6/4
f 1265/6/4 1264/6/4 1266/6/4
f 1267/6/4 1268/6/4 1269/6/4
f 1269/6/4 1268/6/4 1270/6/4
f 1271/6/4 1272/6/4 1273/6/4
f 1273/6/4 1272/6/4 1274/6/4
f 1275/5/4 1276/5/4 1277/5/4
f 1277/5/4 1276/5/4 1278/5/4
f 1277/4/4 1278/4/4 1279/4/4
f 1279/4/4 1278/4/4 1280/4/4
f 1281/7/4 1282/7/4 1284/7/4
f 1284/7/4 1282/7/4 1285/7/4
f 1283/5/4 1284/5/4 1285/5/4
f 1285/7/4 1282/7/4 1286/7/4
f 1283/5/4 1285/5/4 1287/5/4
f 1285/5/4 1286/5/4 1287/5/4
f 1287/5/4 1286/5/4 1288/5/4
f 1289/6/4 1290/6/4 1291/6/4
f 1291/6/4 1290/6/4 1292/6/4
f 1293/6/4 1294/6/4 1295/6/4
f 1295/6/4 1294/6/4 1296/6/4
f 1297/6/4 1298/6/4 1299/6/4
f 1299/6/4 1298/6/4 1300/6/4
f 1301/7/4 1302/7/4 1303/7/4
f 1303/7/4 1302/7/4 1304/7/4
f 1305/7/4 1306/7/4 1308/7/4
f 1307/7/4 1308/7/4 1309/7/4
f 1308/7/4 1306/7/4 1310/7/4
f 1309/7/4 1308/7/4 1310/7/4
f 1311/5/4 1312/5/4 1313/5/4
f 1313/5/4 1312/5/4 1314/5/4
f 1315/6/4 1316/6/4 1317/6/4
f 1317/6/4 1316/6/4 1318/6/4
f 1319/5/4 1320/5/4 1321/5/4
f 1321/5/4 1320/5/4 1322/5/4
f 1322/5/4 1320/5/4 1323/5/4
f 1323/5/4 1320/5/4 1324/5/4
f 1325/6/4 1326/6/4 1327/6/4
f 1327/6/4 1326/6/4 1328/6/4
f 1329/6/4 1330/6/4 1331/6/4
f 1331/6/4 1330/6/4 1332/6/4
f 1333/6/4 1334/6/4 1335/6/4
f 1335/6/4 1334/6/4 1336/6/4
f 1337/6/4 1338/6/4 1340/6/4
f 1340/6/4 1338/6/4 1341/6/4
f 1339/6/4 1340/6/4 1342/6/4
f 1342/6/4 1340/6/4 1343/6/4
f 1344/6/4 1345/6/4 1346/6/4
f 1346/6/4 1345/6/4 1347/6/4
f 1347/6/4 1348/6/4 1349/6/4
f 1349/6/4 1348/6/4 1350/6/4
f 1351/5/4 1352/5/4 1353/5/4
f 1351/5/4 1353/5/4 1355/5/4
f 1353/5/4 1354/5/4 1355/5/4
f 1355/5/4 1354/5/4 1356/5/4
f 1357/6/4 1358/6/4 1359/6/4
f 1359/6/4 1358/6/4 1360/6/4
f 1361/6/4 1362/6/4 1363/6/4
f 1363/6/4 1362/6/4 1364/6/4
f 1365/6/4 1366/6/4 1367/6/4
f 1367/6/4 1366/6/4 1368/6/4
f 1367/4/4 1368/4/4 1369/4/4
f 1369/4/4 1368/4/4 1370/4/4
f 1370/4/4 1368/4/4 1371/4/4
f 1370/5/4 1371/5/4 1372/5/4
f 1372/5/4 1371/5/4 1373/5/4
f 1374/5/4 1375/5/4 1376/5/4
f 1376/5/4 1375/5/4 1377/5/4
f 1376/4/4 1377/4/4 1378/4/4
f 1378/4/4 1377/4/4 1379/4/4
f 1380/6/4 1381/6/4 1382/6/4
f 1382/6/4 1381/6/4 1383/6/4
f 1384/6/4 1385/6/4 1386/6/4
f 1386/6/4 1385/6/4 1387/6/4
f 1388/6/4 1389/6/4 1390/6/4
f 1390/6/4 1389/6/4 1391/6/4
f 1392/6/4 1393/6/4 1394/6/4
f 1394/6/4 1393/6/4 1395/6/4
f 1396/6/4 1397/6/4 1398/6/4
f 1398/6/4 1397/6/4 1399/6/4
f 1399/6/4 1397/6/4 1400/6/4
f 1401/5/4 1402/5/4 1403/5/4
f 1403/5/4 1402/5/4 1404/5/4
f 1403/4/4 1404/4/4 1405/4/4
f 1405/4/4 1404/4/4 1406/4/4
f 1405/6/4 1406/6/4 1407/6/4
f 1407/6/4 1406/6/4 1408/6/4
f 1409/6/4 1410/6/4 1411/6/4
f 1411/6/4 1410/6/4 1412/6/4
f 1413/6/4 1414/6/4 1415/6/4
f 1415/6/4 1414/6/4 1416/6/4
f 1417/5/4 1418/5/4 1419/5/4
f 1419/5/4 1418/5/4 1420/5/4
f 1421/6/4 1422/6/4 1423/6/4
f 1423/6/4 1422/6/4 1424/6/4
f 1425/7/4 1426/7/4 1427/7/4
f 1427/7/4 1426/7/4 1428/7/4
f 1429/7/4 1430/7/4 1431/7/4
f 1429/7/4 1431/7/4 1433/7/4
f 1431/7/4 1432/7/4 1433/7/4
f 1433/7/4 1432/7/4 1434/7/4
f 1434/7/4 1432/7/4 1435/7/4
f 1435/7/4 1432/7/4 1436/7/4
f 1437/5/4 1438/5/4 1439/5/4
f 1439/5/4 1438/5/4 1440/5/4
f 1440/5/4 1438/5/4 1441/5/4
f 1441/5/4 1438/5/4 1442/5/4
f 1443/7/4 1444/7/4 1445/7/4
f 1445/7/4 1444/7/4 1446/7/4
f 1447/5/4 1448/5/4 1449/5/4
f 1449/5/4 1448/5/4 1450/5/4
f 1451/5/4 1452/5/4 1453/5/4
f 1453/5/4 1454/5/4 1455/5/4
f 1455/5/4 1454/5/4 1456/5/4
f 1451/5/4 1453/5/4 1457/5/4
f 1453/5/4 1455/5/4 1457/5/4
f 1457/5/4 1455/5/4 1458/5/4
f 1459/5/4 1460/5/4 1462/5/4
f 1461/5/4 1462/5/4 1463/5/4
f 1462/5/4 1460/5/4 1464/5/4
f 1463/5/4 1462/5/4 1464/5/4
f 1465/5/4 1466/5/4 1467/5/4
f 1467/5/4 1466/5/4 1468/5/4
f 1473/5/5 1472/5/5 1471/5/5
f 1475/5/5 1470/5/5 1469/5/5
f 1476/5/5 1470/5/5 1475/5/5
f 1477/5/5 1474/5/5 1473/5/5
f 1477/5/5 1473/5/5 1471/5/5
f 1478/5/5 1474/5/5 1477/5/5
f 1479/3/5 1476/3/5 1475/3/5
f 1479/3/5 1477/3/5 1476/3/5
f 1479/3/5 1478/3/5 1477/3/5
f 1480/3/5 1478/3/5 1479/3/5
f 1481/3/5 1479/3/5 1475/3/5
f 1482/3/5 1479/3/5 1481/3/5
f 1483/2/5 1482/2/5 1481/2/5
f 1483/3/5 1479/3/5 1482/3/5
f 1484/3/5 1479/3/5 1483/3/5
f 1485/2/5 1484/2/5 1483/2/5
f 1485/3/5 1479/3/5 1484/3/5
f 1486/3/5 1479/3/5 1485/3/5
f 1487/3/5 1479/3/5 1486/3/5
f 1488/2/5 1480/2/5 1479/2/5
f 1488/3/5 1479/3/5 1487/3/5
f 1489/3/5 1478/3/5 1480/3/5
f 1489/2/5 1480/2/5 1488/2/5
f 1490/3/5 1478/3/5 1489/3/5
f 1491/3/5 1487/3/5 1486/3/5
f 1491/2/5 1486/2/5 1485/2/5
f 1492/3/5 1487/3/5 1491/3/5
f 1493/3/5 1487/3/5 1492/3/5
f 1494/2/5 1488/2/5 1487/2/5
f 1494/3/5 1487/3/5 1493/3/5
f 1494/2/5 1490/2/5 1489/2/5
f 1494/2/5 1489/2/5 1488/2/5
f 1495/3/5 1478/3/5 1490/3/5
f 1495/2/5 1490/2/5 1494/2/5
f 1496/3/5 1478/3/5 1495/3/5
f 1497/3/5 1493/3/5 1492/3/5
f 1497/2/5 1492/2/5 1491/2/5
f 1498/2/5 1494/2/5 1493/2/5
f 1498/3/5 1493/3/5 1497/3/5
f 1498/2/5 1496/2/5 1495/2/5
f 1498/2/5 1495/2/5 1494/2/5
f 1499/3/5 1478/3/5 1496/3/5
f 1499/2/5 1496/2/5 1498/2/5
f 1500/3/5 1478/3/5 1499/3/5
f 1501/2/5 1498/2/5 1497/2/5
f 1501/2/5 1497/2/5 1491/2/5
f 1501/2/5 1500/2/5 1499/2/5
f 1501/2/5 1499/2/5 1498/2/5
f 1501/2/5 1491/2/5 1485/2/5
f 1501/2/5 1485/2/5 1483/2/5
f 1501/2/5 1483/2/5 1481/2/5
f 1501/3/5 1481/3/5 1475/3/5
f 1502/2/5 1500/2/5 1501/2/5
f 1503/2/5 1500/2/5 1502/2/5
f 1504/2/5 1500/2/5 1503/2/5
f 1505/2/5 1500/2/5 1504/2/5
f 1506/2/5 1500/2/5 1505/2/5
f 1508/3/5 1501/3/5 1475/3/5
f 1508/3/5 1502/3/5 1501/3/5
f 1509/2/5 1503/2/5 1502/2/5
f 1510/3/5 1504/3/5 1503/3/5
f 1510/2/5 1503/2/5 1509/2/5
f 1511/2/5 1505/2/5 1504/2/5
f 1511/3/5 1504/3/5 1510/3/5
f 1512/2/5 1505/2/5 1511/2/5
f 1513/2/5 1505/2/5 1512/2/5
f 1514/2/5 1505/2/5 1513/2/5
f 1515/2/5 1505/2/5 1514/2/5
f 1516/3/5 1506/3/5 1505/3/5
f 1516/2/5 1505/2/5 1515/2/5
f 1517/2/5 1513/2/5 1512/2/5
f 1518/3/5 1514/3/5 1513/3/5
f 1518/2/5 1513/2/5 1517/2/5
f 1519/2/5 1515/2/5 1514/2/5
f 1519/3/5 1514/3/5 1518/3/5
f 1520/3/5 1516/3/5 1515/3/5
f 1520/2/5 1515/2/5 1519/2/5
f 1521/3/5 1510/3/5 1509/3/5
f 1521/3/5 1511/3/5 1510/3/5
f 1521/3/5 1512/3/5 1511/3/5
f 1521/2/5 1517/2/5 1512/2/5
f 1522/3/5 1518/3/5 1517/3/5
f 1522/2/5 1517/2/5 1521/2/5
f 1522/3/5 1520/3/5 1519/3/5
f 1522/3/5 1519/3/5 1518/3/5
f 1523/2/5 1500/2/5 1506/2/5
f 1524/3/5 1478/3/5 1500/3/5
f 1524/2/5 1500/2/5 1523/2/5
f 1526/5/5 1508/5/5 1507/5/5
f 1527/2/5 1523/2/5 1506/2/5
f 1528/3/5 1524/3/5 1523/3/5
f 1528/2/5 1523/2/5 1527/2/5
f 1529/2/5 1509/2/5 1502/2/5
f 1529/3/5 1502/3/5 1508/3/5
f 1530/2/5 1509/2/5 1529/2/5
f 1531/3/5 1521/3/5 1509/3/5
f 1531/2/5 1509/2/5 1530/2/5
f 1531/3/5 1522/3/5 1521/3/5
f 1532/3/5 1522/3/5 1531/3/5
f 1533/5/5 1474/5/5 1478/5/5
f 1533/3/5 1478/3/5 1524/3/5
f 1533/3/5 1524/3/5 1528/3/5
f 1533/3/5 1528/3/5 1527/3/5
f 1534/5/5 1474/5/5 1533/5/5
f 1535/3/5 1530/3/5 1529/3/5
f 1535/3/5 1529/3/5 1508/3/5
f 1536/2/5 1532/2/5 1531/2/5
f 1536/3/5 1530/3/5 1535/3/5
f 1536/2/5 1531/2/5 1530/2/5
f 1537/3/5 1522/3/5 1532/3/5
f 1537/3/5 1520/3/5 1522/3/5
f 1537/3/5 1516/3/5 1520/3/5
f 1537/3/5 1506/3/5 1516/3/5
f 1538/2/5 1527/2/5 1506/2/5
f 1538/3/5 1506/3/5 1537/3/5
f 1539/2/5 1532/2/5 1536/2/5
f 1539/2/5 1536/2/5 1535/2/5
f 1539/3/5 1537/3/5 1532/3/5
f 1540/3/5 1537/3/5 1539/3/5
f 1541/2/5 1527/2/5 1538/2/5
f 1541/2/5 1538/2/5 1537/2/5
f 1541/3/5 1533/3/5 1527/3/5
f 1542/3/5 1533/3/5 1541/3/5
f 1543/3/5 1533/3/5 1542/3/5
f 1545/2/5 1540/2/5 1539/2/5
f 1545/3/5 1535/3/5 1508/3/5
f 1545/2/5 1539/2/5 1535/2/5
f 1546/2/5 1540/2/5 1545/2/5
f 1547/3/5 1537/3/5 1540/3/5
f 1547/2/5 1542/2/5 1541/2/5
f 1547/2/5 1541/2/5 1537/2/5
f 1548/2/5 1542/2/5 1547/2/5
f 1549/5/5 1526/5/5 1525/5/5
f 1550/5/5 1508/5/5 1526/5/5
f 1550/5/5 1526/5/5 1549/5/5
f 1551/3/5 1546/3/5 1545/3/5
f 1551/3/5 1545/3/5 1508/3/5
f 1552/2/5 1540/2/5 1546/2/5
f 1552/3/5 1546/3/5 1551/3/5
f 1553/2/5 1540/2/5 1552/2/5
f 1554/3/5 1548/3/5 1547/3/5
f 1554/2/5 1540/2/5 1553/2/5
f 1554/3/5 1547/3/5 1540/3/5
f 1555/5/5 1544/5/5 1543/5/5
f 1555/3/5 1543/3/5 1542/3/5
f 1556/5/5 1544/5/5 1555/5/5
f 1557/3/5 1548/3/5 1554/3/5
f 1557/3/5 1554/3/5 1553/3/5
f 1558/3/5 1548/3/5 1557/3/5
f 1559/3/5 1557/3/5 1553/3/5
f 1560/2/5 1558/2/5 1557/2/5
f 1560/3/5 1557/3/5 1559/3/5
f 1561/3/5 1548/3/5 1558/3/5
f 1561/2/5 1558/2/5 1560/2/5
f 1562/3/5 1548/3/5 1561/3/5
f 1563/3/5 1548/3/5 1562/3/5
f 1564/2/5 1542/2/5 1548/2/5
f 1564/3/5 1548/3/5 1563/3/5
f 1565/3/5 1559/3/5 1553/3/5
f 1566/2/5 1560/2/5 1559/2/5
f 1566/3/5 1559/3/5 1565/3/5
f 1566/2/5 1561/2/5 1560/2/5
f 1566/2/5 1562/2/5 1561/2/5
f 1567/3/5 1563/3/5 1562/3/5
f 1567/2/5 1562/2/5 1566/2/5
f 1568/3/5 1563/3/5 1567/3/5
f 1569/3/5 1565/3/5 1553/3/5
f 1570/3/5 1565/3/5 1569/3/5
f 1571/3/5 1565/3/5 1570/3/5
f 1572/2/5 1566/2/5 1565/2/5
f 1572/3/5 1565/3/5 1571/3/5
f 1572/2/5 1567/2/5 1566/2/5
f 1572/2/5 1568/2/5 1567/2/5
f 1573/3/5 1563/3/5 1568/3/5
f 1573/2/5 1568/2/5 1572/2/5
f 1574/3/5 1563/3/5 1573/3/5
f 1575/1/5 1570/1/5 1569/1/5
f 1575/3/5 1569/3/5 1553/3/5
f 1576/3/5 1571/3/5 1570/3/5
f 1576/1/5 1570/1/5 1575/1/5
f 1577/2/5 1572/2/5 1571/2/5
f 1577/2/5 1574/2/5 1573/2/5
f 1577/2/5 1573/2/5 1572/2/5
f 1578/2/5 1574/2/5 1577/2/5
f 1579/3/5 1563/3/5 1574/3/5
f 1579/2/5 1574/2/5 1578/2/5
f 1580/2/5 1564/2/5 1563/2/5
f 1580/3/5 1563/3/5 1579/3/5
f 1581/3/5 1555/3/5 1542/3/5
f 1583/3/5 1571/3/5 1576/3/5
f 1583/3/5 1576/3/5 1575/3/5
f 1584/2/5 1577/2/5 1571/2/5
f 1584/3/5 1571/3/5 1583/3/5
f 1585/2/5 1577/2/5 1584/2/5
f 1586/3/5 1578/3/5 1577/3/5
f 1586/2/5 1577/2/5 1585/2/5
f 1587/2/5 1579/2/5 1578/2/5
f 1587/3/5 1578/3/5 1586/3/5
f 1587/2/5 1580/2/5 1579/2/5
f 1588/2/5 1580/2/5 1587/2/5
f 1589/3/5 1583/3/5 1575/3/5
f 1590/2/5 1585/2/5 1584/2/5
f 1590/3/5 1583/3/5 1589/3/5
f 1590/2/5 1584/2/5 1583/2/5
f 1591/3/5 1551/3/5 1508/3/5
f 1591/2/5 1553/2/5 1552/2/5
f 1591/2/5 1552/2/5 1551/2/5
f 1592/2/5 1553/2/5 1591/2/5
f 1593/3/5 1575/3/5 1553/3/5
f 1593/2/5 1553/2/5 1592/2/5
f 1593/3/5 1589/3/5 1575/3/5
f 1594/3/5 1589/3/5 1593/3/5
f 1595/3/5 1589/3/5 1594/3/5
f 1596/2/5 1590/2/5 1589/2/5
f 1596/3/5 1589/3/5 1595/3/5
f 1597/2/5 1585/2/5 1590/2/5
f 1597/2/5 1590/2/5 1596/2/5
f 1598/3/5 1587/3/5 1586/3/5
f 1598/2/5 1585/2/5 1597/2/5
f 1598/3/5 1586/3/5 1585/3/5
f 1598/3/5 1588/3/5 1587/3/5
f 1599/2/5 1580/2/5 1588/2/5
f 1599/3/5 1588/3/5 1598/3/5
f 1600/2/5 1580/2/5 1599/2/5
f 1601/2/5 1564/2/5 1580/2/5
f 1601/2/5 1580/2/5 1600/2/5
f 1601/2/5 1542/2/5 1564/2/5
f 1602/3/5 1581/3/5 1542/3/5
f 1602/2/5 1542/2/5 1601/2/5
f 1603/3/5 1592/3/5 1591/3/5
f 1604/2/5 1594/2/5 1593/2/5
f 1604/3/5 1592/3/5 1603/3/5
f 1604/2/5 1593/2/5 1592/2/5
f 1605/3/5 1595/3/5 1594/3/5
f 1605/2/5 1594/2/5 1604/2/5
f 1606/2/5 1596/2/5 1595/2/5
f 1606/3/5 1595/3/5 1605/3/5
f 1606/2/5 1597/2/5 1596/2/5
f 1607/2/5 1601/2/5 1600/2/5
f 1608/3/5 1602/3/5 1601/3/5
f 1608/2/5 1601/2/5 1607/2/5
f 1609/3/5 1603/3/5 1591/3/5
f 1609/3/5 1591/3/5 1508/3/5
f 1610/2/5 1605/2/5 1604/2/5
f 1610/3/5 1603/3/5 1609/3/5
f 1610/2/5 1604/2/5 1603/2/5
f 1610/2/5 1606/2/5 1605/2/5
f 1611/2/5 1597/2/5 1606/2/5
f 1611/2/5 1606/2/5 1610/2/5
f 1612/3/5 1600/3/5 1599/3/5
f 1612/2/5 1597/2/5 1611/2/5
f 1612/3/5 1598/3/5 1597/3/5
f 1612/3/5 1599/3/5 1598/3/5
f 1613/2/5 1607/2/5 1600/2/5
f 1613/3/5 1600/3/5 1612/3/5
f 1614/2/5 1607/2/5 1613/2/5
f 1615/2/5 1607/2/5 1614/2/5
f 1616/3/5 1608/3/5 1607/3/5
f 1616/2/5 1607/2/5 1615/2/5
f 1617/3/5 1612/3/5 1611/3/5
f 1617/2/5 1615/2/5 1614/2/5
f 1617/3/5 1613/3/5 1612/3/5
f 1617/3/5 1614/3/5 1613/3/5
f 1618/3/5 1616/3/5 1615/3/5
f 1618/2/5 1615/2/5 1617/2/5
f 1619/2/5 1611/2/5 1610/2/5
f 1619/2/5 1610/2/5 1609/2/5
f 1620/2/5 1611/2/5 1619/2/5
f 1621/3/5 1620/3/5 1619/3/5
f 1621/2/5 1611/2/5 1620/2/5
f 1622/3/5 1618/3/5 1617/3/5
f 1622/2/5 1611/2/5 1621/2/5
f 1622/3/5 1617/3/5 1611/3/5
f 1623/3/5 1609/3/5 1508/3/5
f 1623/2/5 1619/2/5 1609/2/5
f 1624/3/5 1621/3/5 1619/3/5
f 1624/2/5 1619/2/5 1623/2/5
f 1624/3/5 1622/3/5 1621/3/5
f 1625/5/5 1508/5/5 1550/5/5
f 1626/5/5 1508/5/5 1625/5/5
f 1627/3/5 1623/3/5 1508/3/5
f 1627/5/5 1508/5/5 1626/5/5
f 1627/3/5 1624/3/5 1623/3/5
f 1628/3/5 1624/3/5 1627/3/5
f 1629/5/5 1627/5/5 1626/5/5
f 1629/5/5 1628/5/5 1627/5/5
f 1630/3/5 1624/3/5 1628/3/5
f 1630/5/5 1628/5/5 1629/5/5
f 1631/3/5 1618/3/5 1622/3/5
f 1631/3/5 1624/3/5 1630/3/5
f 1631/3/5 1581/3/5 1602/3/5
f 1631/3/5 1616/3/5 1618/3/5
f 1631/3/5 1602/3/5 1608/3/5
f 1631/5/5 1582/5/5 1581/5/5
f 1631/3/5 1608/3/5 1616/3/5
f 1631/3/5 1622/3/5 1624/3/5
f 1632/5/5 1582/5/5 1631/5/5
f 1633/5/5 1582/5/5 1632/5/5
f 1634/5/5 1631/5/5 1630/5/5
f 1634/5/5 1632/5/5 1631/5/5
f 1635/5/5 1632/5/5 1634/5/5
f 1636/5/5 1634/5/5 1630/5/5
f 1637/5/5 1634/5/5 1636/5/5
f 1638/5/5 1636/5/5 1630/5/5
f 1639/5/5 1636/5/5 1638/5/5
f 1644/5/5 1641/5/5 1640/5/5
f 1645/5/5 1643/5/5 1642/5/5
f 1646/5/5 1644/5/5 1640/5/5
f 1646/5/5 1645/5/5 1644/5/5
f 1647/5/5 1643/5/5 1645/5/5
f 1647/5/5 1645/5/5 1646/5/5
f 1650/5/5 1649/5/5 1648/5/5
f 1651/5/5 1649/5/5 1650/5/5
f 1654/5/5 1653/5/5 1652/5/5
f 1657/4/5 1656/4/5 1655/4/5
f 1659/5/5 1654/5/5 1652/5/5
f 1659/5/5 1655/5/5 1654/5/5
f 1660/4/5 1658/4/5 1657/4/5
f 1660/5/5 1655/5/5 1659/5/5
f 1660/4/5 1657/4/5 1655/4/5
f 1661/4/5 1658/4/5 1660/4/5
f 1665/7/5 1663/7/5 1662/7/5
f 1665/7/5 1664/7/5 1663/7/5
f 1666/7/5 1664/7/5 1665/7/5
f 1667/7/5 1664/7/5 1666/7/5
f 1670/6/5 1669/6/5 1668/6/5
f 1671/6/5 1669/6/5 1670/6/5
f 1674/6/5 1673/6/5 1672/6/5
f 1675/6/5 1673/6/5 1674/6/5
f 1678/5/5 1677/5/5 1676/5/5
f 1679/5/5 1677/5/5 1678/5/5
f 1680/5/5 1677/5/5 1679/5/5
f 1681/5/5 1677/5/5 1680/5/5
f 1682/4/5 1679/4/5 1678/4/5
f 1683/5/5 1680/5/5 1679/5/5
f 1683/4/5 1679/4/5 1682/4/5
f 1684/5/5 1680/5/5 1683/5/5
f 1685/4/5 1683/4/5 1682/4/5
f 1685/4/5 1684/4/5 1683/4/5
f 1686/4/5 1684/4/5 1685/4/5
f 1687/4/5 1684/4/5 1686/4/5
f 1692/2/6 1693/2/6 1694/2/6
f 1694/2/6 1693/2/6 1695/2/6
f 1690/2/6 1691/2/6 1697/2/6
f 1695/2/6 1696/2/6 1702/2/6
f 1694/2/6 1695/2/6 1702/2/6
f 1702/2/6 1696/2/6 1703/2/6
f 1688/3/6 1689/3/6 1705/3/6
f 1697/2/6 1698/2/6 1707/2/6
f 1690/2/6 1697/2/6 1707/2/6
f 1707/2/6 1698/2/6 1708/2/6
f 1708/2/6 1698/2/6 1709/2/6
f 1699/2/6 1700/2/6 1712/2/6
f 1712/2/6 1700/2/6 1713/2/6
f 1703/2/6 1704/2/6 1714/2/6
f 1701/2/6 1702/2/6 1714/2/6
f 1702/2/6 1703/2/6 1714/2/6
f 1714/2/6 1704/2/6 1715/2/6
f 1709/2/6 1710/2/6 1717/2/6
f 1708/2/6 1709/2/6 1717/2/6
f 1717/2/6 1710/2/6 1718/2/6
f 1718/2/6 1710/2/6 1719/2/6
f 1712/2/6 1713/2/6 1720/2/6
f 1715/2/6 1716/2/6 1720/2/6
f 1711/2/6 1712/2/6 1720/2/6
f 1714/2/6 1715/2/6 1720/2/6
f 1713/2/6 1714/2/6 1720/2/6
f 1720/2/6 1716/2/6 1721/2/6
f 1721/2/6 1716/2/6 1722/2/6
f 1705/3/6 1706/3/6 1723/3/6
f 1688/3/6 1705/3/6 1723/3/6
f 1723/3/6 1706/3/6 1724/3/6
f 1708/2/6 1717/2/6 1725/2/6
f 1717/3/6 1718/3/6 1726/3/6
f 1725/2/6 1717/2/6 1726/2/6
f 1718/2/6 1719/2/6 1727/2/6
f 1726/3/6 1718/3/6 1727/3/6
f 1719/2/6 1720/2/6 1727/2/6
f 1720/2/6 1721/2/6 1727/2/6
f 1727/2/6 1721/2/6 1728/2/6
f 1728/2/6 1721/2/6 1729/2/6
f 1729/2/6 1721/2/6 1730/2/6
f 1730/2/6 1721/2/6 1731/2/6
f 1721/3/6 1722/3/6 1732/3/6
f 1731/2/6 1721/2/6 1732/2/6
f 1728/2/6 1729/2/6 1733/2/6
f 1729/3/6 1730/3/6 1734/3/6
f 1733/2/6 1729/2/6 1734/2/6
f 1730/2/6 1731/2/6 1735/2/6
f 1734/3/6 1730/3/6 1735/3/6
f 1731/3/6 1732/3/6 1736/3/6
f 1735/2/6 1731/2/6 1736/2/6
f 1725/3/6 1726/3/6 1737/3/6
f 1726/3/6 1727/3/6 1737/3/6
f 1727/3/6 1728/3/6 1737/3/6
f 1728/2/6 1733/2/6 1737/2/6
f 1733/3/6 1734/3/6 1738/3/6
f 1737/2/6 1733/2/6 1738/2/6
f 1735/3/6 1736/3/6 1738/3/6
f 1734/3/6 1735/3/6 1738/3/6
f 1722/2/6 1716/2/6 1739/2/6
f 1739/2/6 1716/2/6 1740/2/6
f 1708/2/6 1725/2/6 1741/2/6
f 1741/2/6 1725/2/6 1742/2/6
f 1725/3/6 1737/3/6 1743/3/6
f 1742/2/6 1725/2/6 1743/2/6
f 1737/3/6 1738/3/6 1743/3/6
f 1743/3/6 1738/3/6 1744/3/6
f 1736/3/6 1732/3/6 1747/3/6
f 1744/3/6 1738/3/6 1747/3/6
f 1738/3/6 1736/3/6 1747/3/6
f 1732/3/6 1722/3/6 1747/3/6
f 1722/2/6 1739/2/6 1748/2/6
f 1747/3/6 1722/3/6 1748/3/6
f 1743/2/6 1744/2/6 1750/2/6
f 1742/2/6 1743/2/6 1750/2/6
f 1744/3/6 1747/3/6 1751/3/6
f 1749/2/6 1750/2/6 1751/2/6
f 1750/2/6 1744/2/6 1751/2/6
f 1751/3/6 1747/3/6 1752/3/6
f 1745/3/6 1746/3/6 1753/3/6
f 1753/3/6 1746/3/6 1754/3/6
f 1749/2/6 1751/2/6 1756/2/6
f 1751/2/6 1752/2/6 1756/2/6
f 1755/2/6 1756/2/6 1758/2/6
f 1756/2/6 1752/2/6 1759/2/6
f 1758/2/6 1756/2/6 1759/2/6
f 1752/3/6 1747/3/6 1760/3/6
f 1747/2/6 1748/2/6 1760/2/6
f 1748/2/6 1739/2/6 1761/2/6
f 1760/2/6 1748/2/6 1761/2/6
f 1757/3/6 1758/3/6 1762/3/6
f 1762/3/6 1758/3/6 1763/3/6
f 1759/2/6 1752/2/6 1765/2/6
f 1764/2/6 1765/2/6 1766/2/6
f 1765/2/6 1752/2/6 1767/2/6
f 1766/2/6 1765/2/6 1767/2/6
f 1767/2/6 1752/2/6 1768/2/6
f 1752/3/6 1760/3/6 1769/3/6
f 1768/2/6 1752/2/6 1769/2/6
f 1760/3/6 1761/3/6 1769/3/6
f 1761/2/6 1739/2/6 1770/2/6
f 1769/3/6 1761/3/6 1772/3/6
f 1768/3/6 1769/3/6 1772/3/6
f 1772/3/6 1761/3/6 1773/3/6
f 1768/3/6 1772/3/6 1774/3/6
f 1772/2/6 1773/2/6 1775/2/6
f 1774/3/6 1772/3/6 1775/3/6
f 1773/3/6 1761/3/6 1776/3/6
f 1775/2/6 1773/2/6 1776/2/6
f 1776/3/6 1761/3/6 1777/3/6
f 1777/3/6 1761/3/6 1778/3/6
f 1770/2/6 1771/2/6 1779/2/6
f 1778/3/6 1761/3/6 1779/3/6
f 1761/2/6 1770/2/6 1779/2/6
f 1767/2/6 1768/2/6 1781/2/6
f 1768/3/6 1774/3/6 1782/3/6
f 1776/2/6 1777/2/6 1783/2/6
f 1782/3/6 1774/3/6 1783/3/6
f 1774/2/6 1775/2/6 1783/2/6
f 1775/2/6 1776/2/6 1783/2/6
f 1783/2/6 1777/2/6 1784/2/6
f 1784/2/6 1777/2/6 1785/2/6
f 1777/3/6 1778/3/6 1786/3/6
f 1785/2/6 1777/2/6 1786/2/6
f 1786/3/6 1778/3/6 1787/3/6
f 1779/2/6 1771/2/6 1788/2/6
f 1778/2/6 1779/2/6 1788/2/6
f 1788/2/6 1771/2/6 1789/2/6
f 1768/3/6 1782/3/6 1790/3/6
f 1790/3/6 1782/3/6 1791/3/6
f 1791/3/6 1782/3/6 1792/3/6
f 1782/2/6 1783/2/6 1793/2/6
f 1792/3/6 1782/3/6 1793/3/6
f 1783/2/6 1784/2/6 1793/2/6
f 1793/2/6 1784/2/6 1794/2/6
f 1794/2/6 1784/2/6 1795/2/6
f 1786/2/6 1787/2/6 1796/2/6
f 1785/2/6 1786/2/6 1796/2/6
f 1796/2/6 1787/2/6 1797/2/6
f 1787/3/6 1778/3/6 1798/3/6
f 1797/2/6 1787/2/6 1798/2/6
f 1798/3/6 1778/3/6 1799/3/6
f 1790/1/6 1791/1/6 1800/1/6
f 1768/3/6 1790/3/6 1800/3/6
f 1791/3/6 1792/3/6 1801/3/6
f 1800/1/6 1791/1/6 1801/1/6
f 1798/2/6 1799/2/6 1802/2/6
f 1797/2/6 1798/2/6 1802/2/6
f 1802/2/6 1799/2/6 1803/2/6
f 1799/3/6 1778/3/6 1804/3/6
f 1803/2/6 1799/2/6 1804/2/6
f 1778/2/6 1788/2/6 1805/2/6
f 1804/3/6 1778/3/6 1805/3/6
f 1801/3/6 1792/3/6 1806/3/6
f 1800/3/6 1801/3/6 1806/3/6
f 1793/2/6 1794/2/6 1807/2/6
f 1806/3/6 1792/3/6 1807/3/6
f 1792/2/6 1793/2/6 1807/2/6
f 1805/2/6 1788/2/6 1808/2/6
f 1803/2/6 1804/2/6 1808/2/6
f 1804/2/6 1805/2/6 1808/2/6
f 1800/3/6 1806/3/6 1810/3/6
f 1806/2/6 1807/2/6 1811/2/6
f 1810/3/6 1806/3/6 1811/3/6
f 1807/2/6 1794/2/6 1812/2/6
f 1811/2/6 1807/2/6 1812/2/6
f 1812/2/6 1794/2/6 1813/2/6
f 1780/2/6 1781/2/6 1814/2/6
f 1781/2/6 1768/2/6 1815/2/6
f 1814/2/6 1781/2/6 1815/2/6
f 1800/3/6 1810/3/6 1816/3/6
f 1815/2/6 1768/2/6 1816/2/6
f 1768/3/6 1800/3/6 1816/3/6
f 1816/3/6 1810/3/6 1817/3/6
f 1817/3/6 1810/3/6 1818/3/6
f 1810/2/6 1811/2/6 1819/2/6
f 1818/3/6 1810/3/6 1819/3/6
f 1811/2/6 1812/2/6 1819/2/6
f 1808/2/6 1809/2/6 1820/2/6
f 1803/2/6 1808/2/6 1820/2/6
f 1820/2/6 1809/2/6 1821/2/6
f 1821/2/6 1809/2/6 1822/2/6
f 1822/2/6 1809/2/6 1823/2/6
f 1823/2/6 1809/2/6 1824/2/6
f 1824/2/6 1809/2/6 1825/2/6
f 1817/3/6 1818/3/6 1826/3/6
f 1816/2/6 1817/2/6 1826/2/6
f 1815/2/6 1816/2/6 1826/2/6
f 1818/2/6 1819/2/6 1827/2/6
f 1826/3/6 1818/3/6 1827/3/6
f 1819/2/6 1812/2/6 1828/2/6
f 1827/2/6 1819/2/6 1828/2/6
f 1828/2/6 1812/2/6 1829/2/6
f 1803/2/6 1820/2/6 1830/2/6
f 1830/2/6 1820/2/6 1831/2/6
f 1821/2/6 1822/2/6 1832/2/6
f 1832/2/6 1822/2/6 1833/2/6
f 1823/2/6 1824/2/6 1834/2/6
f 1834/2/6 1824/2/6 1835/2/6
f 1826/2/6 1827/2/6 1837/2/6
f 1815/2/6 1826/2/6 1837/2/6
f 1827/2/6 1828/2/6 1837/2/6
f 1837/2/6 1828/2/6 1838/2/6
f 1838/2/6 1828/2/6 1839/2/6
f 1831/2/6 1820/2/6 1840/2/6
f 1840/2/6 1820/2/6 1841/2/6
f 1839/2/6 1828/2/6 1842/2/6
f 1842/2/6 1828/2/6 1843/2/6
f 1831/2/6 1840/2/6 1844/2/6
f 1844/2/6 1840/2/6 1845/2/6
f 1836/2/6 1837/2/6 1846/2/6
f 1837/2/6 1838/2/6 1846/2/6
f 1846/2/6 1838/2/6 1847/2/6
f 1847/2/6 1838/2/6 1848/2/6
f 1848/2/6 1838/2/6 1849/2/6
f 1843/2/6 1828/2/6 1850/2/6
f 1850/2/6 1828/2/6 1851/2/6
f 1836/2/6 1846/2/6 1852/2/6
f 1852/2/6 1846/2/6 1853/2/6
f 1847/2/6 1848/2/6 1854/2/6
f 1854/2/6 1848/2/6 1855/2/6
f 1843/2/6 1850/2/6 1856/2/6
f 1856/2/6 1850/2/6 1857/2/6
f 1836/2/6 1852/2/6 1858/2/6
f 1858/2/6 1852/2/6 1859/2/6
f 1847/2/6 1854/2/6 1860/2/6
f 1860/2/6 1854/2/6 1861/2/6
f 1862/5/6 1863/5/6 1864/5/6
f 1862/5/6 1864/5/6 1866/5/6
f 1864/5/6 1865/5/6 1866/5/6
f 1866/5/6 1865/5/6 1867/5/6
f 1868/5/6 1869/5/6 1874/5/6
f 1870/5/6 1871/5/6 1875/5/6
f 1875/5/6 1871/5/6 1876/5/6
f 1876/5/6 1871/5/6 1877/5/6
f 1872/5/6 1873/5/6 1878/5/6
f 1878/5/6 1873/5/6 1879/5/6
f 1868/5/6 1874/5/6 1880/5/6
f 1875/5/6 1876/5/6 1882/5/6
f 1879/5/6 1873/5/6 1885/5/6
f 1868/5/6 1880/5/6 1887/5/6
f 1880/4/6 1881/4/6 1888/4/6
f 1887/5/6 1880/5/6 1888/5/6
f 1888/4/6 1881/4/6 1889/4/6
f 1881/5/6 1882/5/6 1890/5/6
f 1889/4/6 1881/4/6 1890/4/6
f 1882/5/6 1876/5/6 1891/5/6
f 1890/5/6 1882/5/6 1891/5/6
f 1883/5/6 1884/5/6 1892/5/6
f 1892/5/6 1884/5/6 1893/5/6
f 1893/5/6 1884/5/6 1894/5/6
f 1889/4/6 1890/4/6 1895/4/6
f 1895/4/6 1890/4/6 1896/4/6
f 1883/5/6 1892/5/6 1897/5/6
f 1892/4/6 1893/4/6 1898/4/6
f 1897/5/6 1892/5/6 1898/5/6
f 1893/5/6 1894/5/6 1899/5/6
f 1898/4/6 1893/4/6 1899/4/6
f 1899/5/6 1894/5/6 1900/5/6
f 1900/5/6 1894/5/6 1901/5/6
f 1885/5/6 1886/5/6 1905/5/6
f 1879/5/6 1885/5/6 1905/5/6
f 1897/4/6 1898/4/6 1909/4/6
f 1898/4/6 1899/4/6 1909/4/6
f 1899/4/6 1900/4/6 1909/4/6
f 1902/6/6 1903/6/6 1911/6/6
f 1904/5/6 1905/5/6 1912/5/6
f 1903/4/6 1904/4/6 1912/4/6
f 1905/5/6 1886/5/6 1913/5/6
f 1912/5/6 1905/5/6 1913/5/6
f 1907/6/6 1908/6/6 1914/6/6
f 1906/6/6 1907/6/6 1914/6/6
f 1914/6/6 1908/6/6 1915/6/6
f 1909/4/6 1910/4/6 1916/4/6
f 1897/4/6 1909/4/6 1916/4/6
f 1916/4/6 1910/4/6 1917/4/6
f 1917/4/6 1910/4/6 1918/4/6
f 1918/4/6 1910/4/6 1919/4/6
f 1910/6/6 1911/6/6 1920/6/6
f 1919/4/6 1910/4/6 1920/4/6
f 1911/6/6 1903/6/6 1921/6/6
f 1920/6/6 1911/6/6 1921/6/6
f 1903/4/6 1912/4/6 1921/4/6
f 1912/4/6 1913/4/6 1921/4/6
f 1921/4/6 1913/4/6 1922/4/6
f 1917/4/6 1918/4/6 1926/4/6
f 1926/4/6 1918/4/6 1927/4/6
f 1918/5/6 1919/5/6 1928/5/6
f 1927/4/6 1918/4/6 1928/4/6
f 1928/5/6 1919/5/6 1929/5/6
f 1921/6/6 1922/6/6 1932/6/6
f 1932/6/6 1922/6/6 1933/6/6
f 1923/6/6 1924/6/6 1936/6/6
f 1936/6/6 1924/6/6 1937/6/6
f 1925/6/6 1926/6/6 1938/6/6
f 1938/6/6 1926/6/6 1939/6/6
f 1927/6/6 1928/6/6 1940/6/6
f 1940/6/6 1928/6/6 1941/6/6
f 1930/6/6 1931/6/6 1942/6/6
f 1942/6/6 1931/6/6 1943/6/6
f 1933/6/6 1922/6/6 1944/6/6
f 1944/6/6 1922/6/6 1945/6/6
f 1922/4/6 1913/4/6 1946/4/6
f 1945/6/6 1922/6/6 1946/6/6
f 1946/4/6 1913/4/6 1947/4/6
f 1913/5/6 1886/5/6 1948/5/6
f 1947/4/6 1913/4/6 1948/4/6
f 1948/5/6 1886/5/6 1949/5/6
f 1934/6/6 1935/6/6 1950/6/6
f 1940/6/6 1941/6/6 1954/6/6
f 1954/6/6 1941/6/6 1955/6/6
f 1945/6/6 1946/6/6 1956/6/6
f 1956/6/6 1946/6/6 1957/6/6
f 1952/6/6 1953/6/6 1958/6/6
f 1958/6/6 1953/6/6 1959/6/6
f 1934/6/6 1950/6/6 1960/6/6
f 1950/6/6 1951/6/6 1960/6/6
f 1960/6/6 1951/6/6 1961/6/6
f 1957/6/6 1946/6/6 1962/6/6
f 1948/4/6 1949/4/6 1963/4/6
f 1947/4/6 1948/4/6 1963/4/6
f 1962/4/6 1963/4/6 1964/4/6
f 1963/4/6 1949/4/6 1964/4/6
f 1964/4/6 1949/4/6 1965/4/6
f 1949/5/6 1886/5/6 1966/5/6
f 1965/4/6 1949/4/6 1966/4/6
f 1966/5/6 1886/5/6 1967/5/6
f 1968/5/6 1969/5/6 1971/5/6
f 1969/5/6 1970/5/6 1971/5/6
f 1971/5/6 1970/5/6 1972/5/6
f 1972/5/6 1970/5/6 1973/5/6
f 1957/6/6 1962/6/6 1975/6/6
f 1962/4/6 1964/4/6 1976/4/6
f 1975/6/6 1962/6/6 1976/6/6
f 1964/5/6 1965/5/6 1977/5/6
f 1976/4/6 1964/4/6 1977/4/6
f 1965/7/6 1966/7/6 1978/7/6
f 1977/5/6 1965/5/6 1978/5/6
f 1966/7/6 1967/7/6 1978/7/6
f 1961/6/6 1951/6/6 1979/6/6
f 1978/7/6 1967/7/6 1981/7/6
f 1967/5/6 1886/5/6 1982/5/6
f 1981/7/6 1967/7/6 1982/7/6
f 1982/5/6 1886/5/6 1983/5/6
f 1979/6/6 1980/6/6 1984/6/6
f 1961/6/6 1979/6/6 1984/6/6
f 1984/6/6 1980/6/6 1985/6/6
f 1961/6/6 1984/6/6 1987/6/6
f 1987/6/6 1984/6/6 1990/6/6
f 1986/6/6 1987/6/6 1990/6/6
f 1990/6/6 1984/6/6 1991/6/6
f 1986/6/6 1990/6/6 1992/6/6
f 1992/6/6 1990/6/6 1993/6/6
f 1988/5/6 1989/5/6 1995/5/6
f 1974/6/6 1975/6/6 1996/6/6
f 1994/5/6 1995/5/6 1998/5/6
f 1974/6/6 1996/6/6 2001/6/6
f 2001/6/6 1996/6/6 2002/6/6
f 1999/6/6 2000/6/6 2007/6/6
f 2007/6/6 2000/6/6 2008/6/6
f 1997/4/6 1998/4/6 2009/4/6
f 1998/5/6 1995/5/6 2010/5/6
f 2009/4/6 1998/4/6 2010/4/6
f 2010/5/6 1995/5/6 2011/5/6
f 2011/5/6 1995/5/6 2012/5/6
f 1999/6/6 2007/6/6 2015/6/6
f 1997/4/6 2009/4/6 2017/4/6
f 2017/4/6 2009/4/6 2018/4/6
f 2013/4/6 2014/4/6 2019/4/6
f 2019/4/6 2014/4/6 2020/4/6
f 2005/6/6 2006/6/6 2021/6/6
f 2021/6/6 2006/6/6 2022/6/6
f 2012/5/6 1995/5/6 2024/5/6
f 1995/5/6 1989/5/6 2025/5/6
f 2024/5/6 1995/5/6 2025/5/6
f 2022/6/6 2023/6/6 2026/6/6
f 2026/6/6 2023/6/6 2027/6/6
f 2015/6/6 2016/6/6 2028/6/6
f 1999/6/6 2015/6/6 2028/6/6
f 2028/6/6 2016/6/6 2029/6/6
f 2030/6/6 2031/6/6 2036/6/6
f 2036/6/6 2031/6/6 2037/6/6
f 2033/6/6 2034/6/6 2039/6/6
f 2032/6/6 2033/6/6 2039/6/6
f 2037/6/6 2038/6/6 2044/6/6
f 2036/6/6 2037/6/6 2044/6/6
f 2035/6/6 2036/6/6 2044/6/6
f 2044/6/6 2038/6/6 2045/6/6
f 2045/6/6 2038/6/6 2046/6/6
f 2042/5/6 2043/5/6 2048/5/6
f 2041/5/6 2042/5/6 2048/5/6
f 2003/5/6 2004/5/6 2050/5/6
f 2032/6/6 2039/6/6 2053/6/6
f 2053/6/6 2039/6/6 2054/6/6
f 2035/6/6 2044/6/6 2056/6/6
f 1999/6/6 2028/6/6 2059/6/6
f 2056/6/6 2044/6/6 2061/6/6
f 2055/6/6 2056/6/6 2061/6/6
f 2061/6/6 2044/6/6 2062/6/6
f 2046/6/6 2047/6/6 2063/6/6
f 2045/6/6 2046/6/6 2063/6/6
f 2063/6/6 2047/6/6 2064/6/6
f 2054/6/6 2039/6/6 2070/6/6
f 2051/4/6 2052/4/6 2071/4/6
f 2050/5/6 2051/5/6 2071/5/6
f 2071/4/6 2052/4/6 2072/4/6
f 2072/4/6 2052/4/6 2073/4/6
f 2057/5/6 2058/5/6 2074/5/6
f 2074/5/6 2058/5/6 2075/5/6
f 2055/6/6 2061/6/6 2077/6/6
f 2064/6/6 2047/6/6 2078/6/6
f 2065/6/6 2066/6/6 2080/6/6
f 2067/6/6 2068/6/6 2081/6/6
f 2081/6/6 2068/6/6 2082/6/6
f 2069/6/6 2070/6/6 2083/6/6
f 2048/5/6 2049/5/6 2084/5/6
f 2040/4/6 2041/4/6 2084/4/6
f 2039/4/6 2040/4/6 2084/4/6
f 2041/5/6 2048/5/6 2084/5/6
f 2084/5/6 2049/5/6 2085/5/6
f 2059/6/6 2060/6/6 2086/6/6
f 1999/6/6 2059/6/6 2086/6/6
f 2086/6/6 2060/6/6 2087/6/6
f 2081/6/6 2082/6/6 2091/6/6
f 2082/6/6 2083/6/6 2091/6/6
f 2065/6/6 2080/6/6 2091/6/6
f 2080/6/6 2081/6/6 2091/6/6
f 2091/6/6 2083/6/6 2092/6/6
f 2083/6/6 2070/6/6 2093/6/6
f 2092/6/6 2083/6/6 2093/6/6
f 2070/6/6 2039/6/6 2094/6/6
f 2093/6/6 2070/6/6 2094/6/6
f 2088/6/6 2089/6/6 2095/6/6
f 2078/6/6 2079/6/6 2097/6/6
f 2090/6/6 2091/6/6 2098/6/6
f 2091/6/6 2092/6/6 2098/6/6
f 2098/6/6 2092/6/6 2099/6/6
f 2094/6/6 2039/6/6 2100/6/6
f 2084/4/6 2085/4/6 2101/4/6
f 2100/6/6 2039/6/6 2101/6/6
f 2039/4/6 2084/4/6 2101/4/6
f 2101/4/6 2085/4/6 2102/4/6
f 2085/5/6 2049/5/6 2103/5/6
f 2102/4/6 2085/4/6 2103/4/6
f 2103/5/6 2049/5/6 2104/5/6
f 2071/5/6 2072/5/6 2105/5/6
f 2088/6/6 2095/6/6 2109/6/6
f 2095/6/6 2096/6/6 2109/6/6
f 2076/6/6 2077/6/6 2111/6/6
f 2071/5/6 2105/5/6 2112/5/6
f 1999/6/6 2086/6/6 2115/6/6
f 2115/6/6 2086/6/6 2116/6/6
f 2106/6/6 2107/6/6 2118/6/6
f 2108/6/6 2109/6/6 2120/6/6
f 2109/6/6 2096/6/6 2121/6/6
f 2120/6/6 2109/6/6 2121/6/6
f 2110/6/6 2111/6/6 2122/6/6
f 2098/6/6 2099/6/6 2124/6/6
f 2078/6/6 2097/6/6 2124/6/6
f 2064/6/6 2078/6/6 2124/6/6
f 2097/6/6 2098/6/6 2124/6/6
f 2124/6/6 2099/6/6 2125/6/6
f 2125/6/6 2099/6/6 2126/6/6
f 2113/4/6 2114/4/6 2127/4/6
f 2114/4/6 2115/4/6 2127/4/6
f 2127/4/6 2115/4/6 2128/4/6
f 2117/6/6 2118/6/6 2131/6/6
f 2118/6/6 2107/6/6 2132/6/6
f 2131/6/6 2118/6/6 2132/6/6
f 2121/6/6 2122/6/6 2133/6/6
f 2120/6/6 2121/6/6 2133/6/6
f 2119/6/6 2120/6/6 2133/6/6
f 2122/6/6 2111/6/6 2134/6/6
f 2133/6/6 2122/6/6 2134/6/6
f 2077/6/6 2061/6/6 2134/6/6
f 2111/6/6 2077/6/6 2134/6/6
f 2123/6/6 2124/6/6 2135/6/6
f 2124/6/6 2125/6/6 2135/6/6
f 2125/4/6 2126/4/6 2136/4/6
f 2135/6/6 2125/6/6 2136/6/6
f 2050/5/6 2071/5/6 2137/5/6
f 2071/5/6 2112/5/6 2137/5/6
f 2112/5/6 2113/5/6 2137/5/6
f 2113/4/6 2127/4/6 2138/4/6
f 2137/5/6 2113/5/6 2138/5/6
f 2138/4/6 2127/4/6 2139/4/6
f 2129/6/6 2130/6/6 2140/6/6
f 2140/6/6 2130/6/6 2141/6/6
f 2134/4/6 2135/4/6 2142/4/6
f 2135/4/6 2136/4/6 2142/4/6
f 2142/4/6 2136/4/6 2143/4/6
f 2136/4/6 2126/4/6 2144/4/6
f 2143/4/6 2136/4/6 2144/4/6
f 2144/4/6 2126/4/6 2145/4/6
f 2003/5/6 2050/5/6 2146/5/6
f 2050/5/6 2137/5/6 2146/5/6
f 2146/5/6 2137/5/6 2147/5/6
f 2143/4/6 2144/4/6 2148/4/6
f 2144/5/6 2145/5/6 2149/5/6
f 2148/4/6 2144/4/6 2149/4/6
f 2104/5/6 2049/5/6 2150/5/6
f 2150/5/6 2049/5/6 2151/5/6
f 2148/5/6 2149/5/6 2152/5/6
f 2149/5/6 2145/5/6 2153/5/6
f 2152/5/6 2149/5/6 2153/5/6
f 2154/5/6 2155/5/6 2164/5/6
f 2164/5/6 2155/5/6 2165/5/6
f 2158/5/6 2159/5/6 2166/5/6
f 2166/5/6 2159/5/6 2167/5/6
f 2160/5/6 2161/5/6 2168/5/6
f 2161/4/6 2162/4/6 2169/4/6
f 2168/5/6 2161/5/6 2169/5/6
f 2169/4/6 2162/4/6 2170/4/6
f 2164/4/6 2165/4/6 2171/4/6
f 2163/4/6 2164/4/6 2171/4/6
f 2156/5/6 2157/5/6 2172/5/6
f 2172/5/6 2157/5/6 2173/5/6
f 2166/4/6 2167/4/6 2175/4/6
f 2175/4/6 2167/4/6 2176/4/6
f 2167/5/6 2159/5/6 2177/5/6
f 2176/4/6 2167/4/6 2177/4/6
f 2177/5/6 2159/5/6 2178/5/6
f 2170/6/6 2171/6/6 2179/6/6
f 2171/4/6 2165/4/6 2180/4/6
f 2179/6/6 2171/6/6 2180/6/6
f 2180/4/6 2165/4/6 2181/4/6
f 2181/4/6 2165/4/6 2182/4/6
f 2182/4/6 2165/4/6 2183/4/6
f 2175/6/6 2176/6/6 2184/6/6
f 2174/6/6 2175/6/6 2184/6/6
f 2184/6/6 2176/6/6 2185/6/6
f 2172/4/6 2173/4/6 2186/4/6
f 2186/4/6 2173/4/6 2187/4/6
f 2187/4/6 2173/4/6 2188/4/6
f 2182/4/6 2183/4/6 2192/4/6
f 2192/4/6 2183/4/6 2193/4/6
f 2188/4/6 2189/4/6 2194/4/6
f 2187/4/6 2188/4/6 2194/4/6
f 2194/4/6 2189/4/6 2195/4/6
f 2195/4/6 2189/4/6 2196/4/6
f 2190/6/6 2191/6/6 2199/6/6
f 2199/6/6 2191/6/6 2200/6/6
f 2200/6/6 2191/6/6 2201/6/6
f 2169/4/6 2170/4/6 2202/4/6
f 2168/4/6 2169/4/6 2202/4/6
f 2170/6/6 2179/6/6 2202/6/6
f 2202/6/6 2179/6/6 2203/6/6
f 2196/6/6 2197/6/6 2208/6/6
f 2208/6/6 2197/6/6 2209/6/6
f 2199/6/6 2200/6/6 2210/6/6
f 2198/6/6 2199/6/6 2210/6/6
f 2210/6/6 2200/6/6 2211/6/6
f 2204/6/6 2205/6/6 2214/6/6
f 2214/6/6 2205/6/6 2215/6/6
f 2206/6/6 2207/6/6 2216/6/6
f 2216/6/6 2207/6/6 2217/6/6
f 2168/4/6 2202/4/6 2218/4/6
f 2212/6/6 2213/6/6 2220/6/6
f 2220/6/6 2213/6/6 2221/6/6
f 2160/5/6 2168/5/6 2222/5/6
f 2168/4/6 2218/4/6 2223/4/6
f 2222/5/6 2168/5/6 2223/5/6
f 2160/5/6 2222/5/6 2224/5/6
f 2222/4/6 2223/4/6 2225/4/6
f 2224/5/6 2222/5/6 2225/5/6
f 2225/4/6 2223/4/6 2226/4/6
f 2223/4/6 2218/4/6 2227/4/6
f 2226/4/6 2223/4/6 2227/4/6
f 2218/6/6 2219/6/6 2228/6/6
f 2227/4/6 2218/4/6 2228/4/6
f 2226/4/6 2227/4/6 2231/4/6
f 2227/6/6 2228/6/6 2232/6/6
f 2231/4/6 2227/4/6 2232/4/6
f 2228/6/6 2219/6/6 2233/6/6
f 2232/6/6 2228/6/6 2233/6/6
f 2229/5/6 2230/5/6 2237/5/6
f 2231/4/6 2232/4/6 2237/4/6
f 2230/4/6 2231/4/6 2237/4/6
f 2232/4/6 2233/4/6 2237/4/6
f 2237/4/6 2233/4/6 2238/4/6
f 2234/4/6 2235/4/6 2239/4/6
f 2235/5/6 2236/5/6 2239/5/6
f 2239/5/6 2236/5/6 2240/5/6
f 2237/5/6 2238/5/6 2241/5/6
f 2229/5/6 2237/5/6 2241/5/6
f 2241/5/6 2238/5/6 2242/5/6
f 2234/4/6 2239/4/6 2243/4/6
f 2243/4/6 2239/4/6 2244/4/6
f 2242/5/6 2238/5/6 2245/5/6
f 2238/4/6 2233/4/6 2246/4/6
f 2245/5/6 2238/5/6 2246/5/6
f 2233/6/6 2219/6/6 2247/6/6
f 2246/4/6 2233/4/6 2247/4/6
f 2247/6/6 2219/6/6 2248/6/6
f 2229/5/6 2241/5/6 2249/5/6
f 2242/5/6 2245/5/6 2250/5/6
f 2245/4/6 2246/4/6 2251/4/6
f 2246/4/6 2247/4/6 2251/4/6
f 2250/5/6 2245/5/6 2251/5/6
f 2251/4/6 2247/4/6 2252/4/6
f 2243/5/6 2244/5/6 2254/5/6
f 2251/4/6 2252/4/6 2256/4/6
f 2250/4/6 2251/4/6 2256/4/6
f 2256/4/6 2252/4/6 2257/4/6
f 2252/6/6 2253/6/6 2258/6/6
f 2257/4/6 2252/4/6 2258/4/6
f 2234/4/6 2243/4/6 2259/4/6
f 2243/5/6 2254/5/6 2260/5/6
f 2259/4/6 2243/4/6 2260/4/6
f 2254/5/6 2255/5/6 2260/5/6
f 2260/5/6 2255/5/6 2261/5/6
f 2256/5/6 2257/5/6 2262/5/6
f 2250/4/6 2256/4/6 2262/4/6
f 2262/5/6 2257/5/6 2263/5/6
f 2259/6/6 2260/6/6 2265/6/6
f 2229/5/6 2249/5/6 2266/5/6
f 2249/5/6 2250/5/6 2266/5/6
f 2266/5/6 2250/5/6 2267/5/6
f 2258/6/6 2253/6/6 2269/6/6
f 2264/6/6 2265/6/6 2270/6/6
f 2265/6/6 2260/6/6 2271/6/6
f 2270/6/6 2265/6/6 2271/6/6
f 2250/4/6 2262/4/6 2275/4/6
f 2268/6/6 2269/6/6 2276/6/6
f 2269/6/6 2253/6/6 2277/6/6
f 2276/6/6 2269/6/6 2277/6/6
f 2271/6/6 2260/6/6 2278/6/6
f 2272/4/6 2273/4/6 2279/4/6
f 2250/4/6 2275/4/6 2280/4/6
f 2275/4/6 2276/4/6 2280/4/6
f 2267/5/6 2250/5/6 2280/5/6
f 2280/4/6 2276/4/6 2281/4/6
f 2281/4/6 2276/4/6 2282/4/6
f 2277/6/6 2253/6/6 2283/6/6
f 2278/6/6 2279/6/6 2284/6/6
f 2271/6/6 2278/6/6 2284/6/6
f 2284/6/6 2279/6/6 2285/6/6
f 2285/6/6 2279/6/6 2287/6/6
f 2286/6/6 2287/6/6 2288/6/6
f 2287/6/6 2279/6/6 2289/6/6
f 2288/6/6 2287/6/6 2289/6/6
f 2267/5/6 2280/5/6 2290/5/6
f 2280/5/6 2281/5/6 2290/5/6
f 2281/4/6 2282/4/6 2291/4/6
f 2290/5/6 2281/5/6 2291/5/6
f 2289/6/6 2279/6/6 2292/6/6
f 2279/4/6 2273/4/6 2293/4/6
f 2292/6/6 2279/6/6 2293/6/6
f 2273/5/6 2274/5/6 2294/5/6
f 2293/4/6 2273/4/6 2294/4/6
f 2294/5/6 2274/5/6 2295/5/6
f 2282/6/6 2283/6/6 2296/6/6
f 2290/4/6 2291/4/6 2296/4/6
f 2291/4/6 2282/4/6 2296/4/6
f 2283/6/6 2253/6/6 2297/6/6
f 2296/6/6 2283/6/6 2297/6/6
f 2267/5/6 2290/5/6 2300/5/6
f 2290/4/6 2296/4/6 2301/4/6
f 2300/5/6 2290/5/6 2301/5/6
f 2301/4/6 2296/4/6 2302/4/6
f 2302/4/6 2296/4/6 2303/4/6
f 2302/6/6 2303/6/6 2304/6/6
f 2297/6/6 2253/6/6 2305/6/6
f 2302/6/6 2304/6/6 2306/6/6
f 2304/6/6 2305/6/6 2306/6/6
f 2305/6/6 2253/6/6 2307/6/6
f 2306/6/6 2305/6/6 2307/6/6
f 2298/6/6 2299/6/6 2309/6/6
f 2309/6/6 2299/6/6 2310/6/6
f 2302/6/6 2306/6/6 2313/6/6
f 2313/6/6 2306/6/6 2314/6/6
f 2307/6/6 2253/6/6 2315/6/6
f 2315/6/6 2253/6/6 2316/6/6
f 2317/6/6 2318/6/6 2320/6/6
f 2318/4/6 2319/4/6 2321/4/6
f 2320/6/6 2318/6/6 2321/6/6
f 2321/4/6 2319/4/6 2322/4/6
f 2313/4/6 2314/4/6 2325/4/6
f 2312/4/6 2313/4/6 2325/4/6
f 2325/4/6 2314/4/6 2326/4/6
f 2326/4/6 2314/4/6 2327/4/6
f 2325/5/6 2326/5/6 2330/5/6
f 2326/4/6 2327/4/6 2331/4/6
f 2330/5/6 2326/5/6 2331/5/6
f 2327/4/6 2328/4/6 2331/4/6
f 2328/6/6 2329/6/6 2332/6/6
f 2331/4/6 2328/4/6 2332/4/6
f 2332/6/6 2329/6/6 2333/6/6
f 2309/6/6 2310/6/6 2335/6/6
f 2310/6/6 2311/6/6 2335/6/6
f 2308/6/6 2309/6/6 2335/6/6
f 2335/6/6 2311/6/6 2336/6/6
f 2322/4/6 2323/4/6 2337/4/6
f 2320/4/6 2321/4/6 2337/4/6
f 2321/4/6 2322/4/6 2337/4/6
f 2323/5/6 2324/5/6 2338/5/6
f 2337/4/6 2323/4/6 2338/4/6
f 2338/5/6 2324/5/6 2339/5/6
f 2333/6/6 2334/6/6 2341/6/6
f 2308/6/6 2335/6/6 2343/6/6
f 2343/6/6 2335/6/6 2344/6/6
f 2320/4/6 2337/4/6 2345/4/6
f 2337/5/6 2338/5/6 2346/5/6
f 2345/4/6 2337/4/6 2346/4/6
f 2346/5/6 2338/5/6 2347/5/6
f 2340/6/6 2341/6/6 2350/6/6
f 2341/6/6 2334/6/6 2351/6/6
f 2350/6/6 2341/6/6 2351/6/6
f 2342/6/6 2343/6/6 2352/6/6
f 2352/6/6 2343/6/6 2353/6/6
f 2353/6/6 2343/6/6 2354/6/6
f 2354/6/6 2343/6/6 2355/6/6
f 2347/5/6 2338/5/6 2357/5/6
f 2357/5/6 2338/5/6 2358/5/6
f 2348/5/6 2349/5/6 2359/5/6
f 2349/4/6 2350/4/6 2359/4/6
f 2350/4/6 2351/4/6 2359/4/6
f 2351/4/6 2352/4/6 2359/4/6
f 2352/4/6 2353/4/6 2359/4/6
f 2359/4/6 2353/4/6 2360/4/6
f 2360/4/6 2353/4/6 2361/4/6
f 2355/4/6 2356/4/6 2362/4/6
f 2354/4/6 2355/4/6 2362/4/6
f 2362/4/6 2356/4/6 2363/4/6
f 2363/4/6 2356/4/6 2364/4/6
f 2358/5/6 2338/5/6 2365/5/6
f 2360/4/6 2361/4/6 2367/4/6
f 2359/5/6 2360/5/6 2367/5/6
f 2361/4/6 2362/4/6 2367/4/6
f 2362/4/6 2363/4/6 2367/4/6
f 2367/4/6 2363/4/6 2368/4/6
f 2363/5/6 2364/5/6 2369/5/6
f 2368/4/6 2363/4/6 2369/4/6
f 2369/5/6 2364/5/6 2370/5/6
f 2367/5/6 2368/5/6 2371/5/6
f 2348/5/6 2359/5/6 2371/5/6
f 2359/5/6 2367/5/6 2371/5/6
f 2371/5/6 2368/5/6 2372/5/6
f 2365/5/6 2366/5/6 2373/5/6
f 2358/5/6 2365/5/6 2373/5/6
f 2373/5/6 2366/5/6 2374/5/6
f 2375/5/6 2376/5/6 2377/5/6
f 2377/5/6 2376/5/6 2378/5/6
f 2377/4/6 2378/4/6 2382/4/6
f 2382/4/6 2378/4/6 2383/4/6
f 2381/4/6 2382/4/6 2383/4/6
f 2379/4/6 2380/4/6 2385/4/6
f 2385/4/6 2380/4/6 2386/4/6
f 2381/4/6 2383/4/6 2388/4/6
f 2383/6/6 2384/6/6 2389/6/6
f 2388/4/6 2383/4/6 2389/4/6
f 2389/6/6 2384/6/6 2390/6/6
f 2385/6/6 2386/6/6 2392/6/6
f 2392/6/6 2386/6/6 2393/6/6
f 2387/6/6 2388/6/6 2394/6/6
f 2390/6/6 2391/6/6 2394/6/6
f 2388/6/6 2389/6/6 2394/6/6
f 2389/6/6 2390/6/6 2394/6/6
f 2394/6/6 2391/6/6 2395/6/6
f 2395/6/6 2391/6/6 2396/6/6
f 2396/6/6 2391/6/6 2397/6/6
f 2395/6/6 2396/6/6 2398/6/6
f 2398/6/6 2396/6/6 2399/6/6
f 2402/7/6 2403/7/6 2404/7/6
f 2404/7/6 2403/7/6 2405/7/6
f 2400/7/6 2401/7/6 2406/7/6
f 2406/7/6 2401/7/6 2407/7/6
f 2408/6/6 2409/6/6 2411/6/6
f 2411/6/6 2409/6/6 2412/6/6
f 2410/6/6 2411/6/6 2412/6/6
f 2412/6/6 2409/6/6 2413/6/6
f 2410/6/6 2412/6/6 2414/6/6
f 2414/6/6 2412/6/6 2415/6/6
f 2416/6/6 2417/6/6 2418/6/6
f 2418/6/6 2417/6/6 2419/6/6
f 2420/6/6 2421/6/6 2422/6/6
f 2422/6/6 2421/6/6 2423/6/6
f 2426/7/6 2427/7/6 2430/7/6
f 2430/7/6 2427/7/6 2431/7/6
f 2428/6/6 2429/6/6 2434/6/6
f 2434/6/6 2429/6/6 2435/6/6
f 2432/5/6 2433/5/6 2436/5/6
f 2436/5/6 2433/5/6 2437/5/6
f 2424/7/6 2425/7/6 2438/7/6
f 2438/7/6 2425/7/6 2439/7/6
f 2442/5/6 2443/5/6 2444/5/6
f 2437/5/6 2433/5/6 2445/5/6
f 2442/5/6 2444/5/6 2446/5/6
f 2444/5/6 2445/5/6 2446/5/6
f 2445/5/6 2433/5/6 2447/5/6
f 2446/5/6 2445/5/6 2447/5/6
f 2440/5/6 2441/5/6 2448/5/6
f 2448/5/6 2441/5/6 2449/5/6
f 2450/5/6 2451/5/6 2452/5/6
f 2452/5/6 2451/5/6 2453/5/6
f 2450/5/6 2452/5/6 2454/5/6
f 2452/4/6 2453/4/6 2455/4/6
f 2454/5/6 2452/5/6 2455/5/6
f 2455/4/6 2453/4/6 2456/4/6
f 2453/5/6 2451/5/6 2457/5/6
f 2456/4/6 2453/4/6 2457/4/6
f 2457/5/6 2451/5/6 2458/5/6
f 2456/4/6 2457/4/6 2459/4/6
f 2457/4/6 2458/4/6 2459/4/6
f 2458/5/6 2451/5/6 2460/5/6
f 2459/4/6 2458/4/6 2460/4/6
f 2460/5/6 2451/5/6 2461/5/6
f 2462/6/6 2463/6/6 2464/6/6
f 2464/6/6 2463/6/6 2465/6/6
f 2466/7/6 2467/7/6 2469/7/6
f 2469/7/6 2467/7/6 2470/7/6
f 2468/7/6 2469/7/6 2473/7/6
f 2473/7/6 2469/7/6 2474/7/6
f 2471/7/6 2472/7/6 2476/7/6
f 2475/7/6 2476/7/6 2477/7/6
f 2476/7/6 2472/7/6 2478/7/6
f 2477/7/6 2476/7/6 2478/7/6
f 2479/7/6 2480/7/6 2481/7/6
f 2481/7/6 2480/7/6 2482/7/6
