# MagicaVoxel @ Ephtracy

# group
o 

# material
mtllib radcristal.mtl
usemtl palette

# normals
vn -1 0 0
vn 1 0 0
vn 0 0 1
vn 0 0 -1
vn 0 -1 0
vn 0 1 0

# texcoords
vt 0.767578 0.5
vt 0.791016 0.5
vt 0.794922 0.5
vt 0.892578 0.5

# verts
v -0.4 0 0.1
v -0.4 0 -0.2
v -0.4 0.1 0.1
v -0.4 0.1 0
v -0.4 0.1 -0.1
v -0.4 0.1 -0.2
v -0.4 0.2 0
v -0.4 0.2 -0.1
v -0.3 0 -0.2
v -0.3 0 -0.3
v -0.3 0.1 0.1
v -0.3 0.1 0
v -0.3 0.1 -0.1
v -0.3 0.1 -0.2
v -0.3 0.1 -0.3
v -0.3 0.2 0.1
v -0.3 0.2 0
v -0.3 0.2 -0.1
v -0.3 0.2 -0.2
v -0.2 0 0.4
v -0.2 0 0.1
v -0.2 0 -0.3
v -0.2 0 -0.4
v -0.2 0.1 0.4
v -0.2 0.1 0.3
v -0.2 0.1 -0.2
v -0.2 0.1 -0.3
v -0.2 0.2 0.3
v -0.2 0.2 0.1
v -0.2 0.2 -0.2
v -0.2 0.2 -0.4
v -0.2 0.3 0.1
v -0.2 0.3 0
v -0.2 0.3 -0.1
v -0.2 0.3 -0.2
v -0.2 0.4 0.1
v -0.2 0.4 0
v -0.2 0.4 -0.1
v -0.2 0.4 -0.2
v -0.2 0.5 0.1
v -0.2 0.5 0
v -0.2 0.5 -0.1
v -0.2 0.5 -0.2
v -0.2 0.6 0
v -0.2 0.6 -0.1
v -0.1 0.1 0.4
v -0.1 0.1 0.3
v -0.1 0.2 0.4
v -0.1 0.2 0.3
v -0.1 0.2 0.1
v -0.1 0.3 0.3
v -0.1 0.3 0.2
v -0.1 0.3 0.1
v -0.1 0.3 0
v -0.1 0.3 -0.1
v -0.1 0.3 -0.2
v -0.1 0.4 0.2
v -0.1 0.4 0.1
v -0.1 0.4 0
v -0.1 0.4 -0.1
v -0.1 0.4 -0.2
v -0.1 0.5 0.2
v -0.1 0.5 0.1
v -0.1 0.5 0
v -0.1 0.5 -0.1
v -0.1 0.5 -0.2
v -0.1 0.6 0.2
v -0.1 0.6 0.1
v -0.1 0.6 0
v -0.1 0.6 -0.1
v -0.1 0.6 -0.2
v -0.1 0.7 -0.1
v -0.1 0.7 -0.2
v -0.1 0.8 0.1
v -0.1 0.8 0
v -0.1 0.8 -0.1
v -0.1 0.8 -0.2
v -0.1 0.9 0.1
v -0.1 0.9 0
v -0.1 0.9 -0.1
v -0.1 0.9 -0.2
v -0.1 1 0.1
v -0.1 1 0
v -0.1 1 -0.1
v -0.1 1 -0.2
v -0.1 1.1 0
v -0.1 1.1 -0.1
v 0 0.3 0.3
v 0 0.3 0.2
v 0 0.4 0.3
v 0 0.4 0.2
v 0 0.4 0.1
v 0 0.5 0.2
v 0 0.5 0.1
v 0 0.6 0.2
v 0 0.6 0.1
v 0 0.6 -0.1
v 0 0.6 -0.2
v 0 0.7 0.2
v 0 0.7 0.1
v 0 0.7 -0.1
v 0 0.7 -0.2
v 0 0.8 0.1
v 0 0.8 0
v 0 0.8 -0.1
v 0 0.8 -0.2
v 0 0.9 0.1
v 0 0.9 0
v 0 0.9 -0.1
v 0 0.9 -0.2
v 0 1 0.1
v 0 1 0
v 0 1 -0.1
v 0 1 -0.2
v 0 1.1 0.1
v 0 1.1 0
v 0 1.1 -0.1
v 0 1.1 -0.2
v 0 0.1 0.4
v 0 0.1 0.3
v 0 0.2 0.4
v 0 0.2 0.3
v 0 0.5 -0.1
v 0 0.5 -0.2
v 0 0.6 -0.1
v 0 0.6 -0.2
v 0.1 0 0.4
v 0.1 0 0.3
v 0.1 0 -0.2
v 0.1 0 -0.4
v 0.1 0.1 0.4
v 0.1 0.1 0.3
v 0.1 0.2 -0.2
v 0.1 0.2 -0.4
v 0.1 0.3 0.3
v 0.1 0.3 0.2
v 0.1 0.4 0.3
v 0.1 0.4 0.2
v 0.1 0.4 0.1
v 0.1 0.4 0
v 0.1 0.4 -0.2
v 0.1 0.5 0.2
v 0.1 0.5 0.1
v 0.1 0.5 0
v 0.1 0.5 -0.1
v 0.1 0.5 -0.2
v 0.1 0.6 0.2
v 0.1 0.6 0.1
v 0.1 0.6 -0.1
v 0.1 0.6 -0.2
v 0.1 0.7 0.2
v 0.1 0.7 0.1
v 0.1 0.7 -0.1
v 0.1 0.7 -0.2
v 0.1 0.8 0.1
v 0.1 0.8 0
v 0.1 0.8 -0.1
v 0.1 0.8 -0.2
v 0.1 0.9 0.1
v 0.1 0.9 0
v 0.1 0.9 -0.1
v 0.1 0.9 -0.2
v 0.1 1 0.1
v 0.1 1 0
v 0.1 1 -0.1
v 0.1 1 -0.2
v 0.1 1.1 0.1
v 0.1 1.1 0
v 0.1 1.1 -0.1
v 0.1 1.1 -0.2
v 0.2 0.1 0.3
v 0.2 0.1 0.2
v 0.2 0.2 0.2
v 0.2 0.2 0.1
v 0.2 0.3 0.3
v 0.2 0.3 0.2
v 0.2 0.3 0.1
v 0.2 0.3 0
v 0.2 0.3 -0.1
v 0.2 0.3 -0.2
v 0.2 0.4 0.2
v 0.2 0.4 0.1
v 0.2 0.4 0
v 0.2 0.4 -0.1
v 0.2 0.4 -0.2
v 0.2 0.5 0.2
v 0.2 0.5 0.1
v 0.2 0.5 0
v 0.2 0.5 -0.1
v 0.2 0.6 0.2
v 0.2 0.6 0.1
v 0.2 0.7 -0.1
v 0.2 0.7 -0.2
v 0.2 0.8 0.1
v 0.2 0.8 0
v 0.2 0.8 -0.1
v 0.2 0.8 -0.2
v 0.2 0.9 0.1
v 0.2 0.9 0
v 0.2 0.9 -0.1
v 0.2 0.9 -0.2
v 0.2 1 0.1
v 0.2 1 0
v 0.2 1 -0.1
v 0.2 1 -0.2
v 0.2 1.1 0
v 0.2 1.1 -0.1
v 0.3 0 0.3
v 0.3 0 0.2
v 0.3 0.1 0.3
v 0.3 0.1 0.2
v 0.3 0.1 0.1
v 0.3 0.1 -0.1
v 0.3 0.1 -0.2
v 0.3 0.2 0.2
v 0.3 0.2 0.1
v 0.3 0.2 -0.1
v 0.3 0.3 0.1
v 0.3 0.3 0
v 0.3 0.3 -0.1
v 0.3 0.3 -0.2
v 0.3 0.4 0
v 0.3 0.4 -0.1
v 0.4 0 0.2
v 0.4 0 -0.1
v 0.4 0 -0.2
v 0.4 0.1 0.2
v 0.4 0.1 0.1
v 0.4 0.1 -0.1
v 0.4 0.1 -0.2
v 0.4 0.2 0.1
v 0.4 0.2 -0.1
v -0.2 0 0.4
v -0.2 0.1 0.4
v -0.1 0.1 0.4
v -0.1 0.2 0.4
v 0 0.1 0.4
v 0 0.2 0.4
v 0.1 0 0.4
v 0.1 0.1 0.4
v -0.2 0.1 0.3
v -0.2 0.2 0.3
v -0.1 0.1 0.3
v -0.1 0.2 0.3
v -0.1 0.3 0.3
v 0 0.1 0.3
v 0 0.2 0.3
v 0 0.3 0.3
v 0 0.4 0.3
v 0.1 0 0.3
v 0.1 0.1 0.3
v 0.1 0.3 0.3
v 0.1 0.4 0.3
v 0.2 0.1 0.3
v 0.2 0.3 0.3
v 0.3 0 0.3
v 0.3 0.1 0.3
v -0.1 0.3 0.2
v -0.1 0.4 0.2
v -0.1 0.5 0.2
v -0.1 0.6 0.2
v 0 0.3 0.2
v 0 0.4 0.2
v 0 0.5 0.2
v 0 0.6 0.2
v 0 0.7 0.2
v 0.1 0.3 0.2
v 0.1 0.4 0.2
v 0.1 0.5 0.2
v 0.1 0.6 0.2
v 0.1 0.7 0.2
v 0.2 0.1 0.2
v 0.2 0.2 0.2
v 0.2 0.3 0.2
v 0.2 0.4 0.2
v 0.2 0.5 0.2
v 0.2 0.6 0.2
v 0.3 0 0.2
v 0.3 0.1 0.2
v 0.3 0.2 0.2
v 0.4 0 0.2
v 0.4 0.1 0.2
v -0.4 0 0.1
v -0.4 0.1 0.1
v -0.3 0 0.1
v -0.3 0.1 0.1
v -0.3 0.2 0.1
v -0.2 0 0.1
v -0.2 0.2 0.1
v -0.2 0.3 0.1
v -0.2 0.4 0.1
v -0.2 0.5 0.1
v -0.1 0.2 0.1
v -0.1 0.3 0.1
v -0.1 0.4 0.1
v -0.1 0.5 0.1
v -0.1 0.6 0.1
v -0.1 0.8 0.1
v -0.1 0.9 0.1
v -0.1 1 0.1
v 0 0.4 0.1
v 0 0.5 0.1
v 0 0.6 0.1
v 0 0.7 0.1
v 0 0.8 0.1
v 0 0.9 0.1
v 0 1 0.1
v 0 1.1 0.1
v 0.1 0.4 0.1
v 0.1 0.5 0.1
v 0.1 0.6 0.1
v 0.1 0.7 0.1
v 0.1 0.8 0.1
v 0.1 0.9 0.1
v 0.1 1 0.1
v 0.1 1.1 0.1
v 0.2 0.2 0.1
v 0.2 0.3 0.1
v 0.2 0.4 0.1
v 0.2 0.5 0.1
v 0.2 0.6 0.1
v 0.2 0.8 0.1
v 0.2 0.9 0.1
v 0.2 1 0.1
v 0.3 0.1 0.1
v 0.3 0.2 0.1
v 0.3 0.3 0.1
v 0.4 0.1 0.1
v 0.4 0.2 0.1
v -0.4 0.1 0
v -0.4 0.2 0
v -0.3 0.1 0
v -0.3 0.2 0
v -0.2 0.3 0
v -0.2 0.4 0
v -0.2 0.5 0
v -0.2 0.6 0
v -0.1 0.3 0
v -0.1 0.4 0
v -0.1 0.5 0
v -0.1 0.6 0
v -0.1 0.8 0
v -0.1 0.9 0
v -0.1 1 0
v -0.1 1.1 0
v 0 0.8 0
v 0 0.9 0
v 0 1 0
v 0 1.1 0
v 0.1 0.8 0
v 0.1 0.9 0
v 0.1 1 0
v 0.1 1.1 0
v 0.2 0.3 0
v 0.2 0.4 0
v 0.2 0.8 0
v 0.2 0.9 0
v 0.2 1 0
v 0.2 1.1 0
v 0.3 0.3 0
v 0.3 0.4 0
v 0.1 0.4 0
v 0.1 0.5 0
v 0.2 0.4 0
v 0.2 0.5 0
v -0.4 0.1 -0.1
v -0.4 0.2 -0.1
v -0.3 0.1 -0.1
v -0.3 0.2 -0.1
v -0.2 0.3 -0.1
v -0.2 0.4 -0.1
v -0.2 0.5 -0.1
v -0.2 0.6 -0.1
v -0.1 0.3 -0.1
v -0.1 0.4 -0.1
v -0.1 0.5 -0.1
v -0.1 0.6 -0.1
v -0.1 0.7 -0.1
v -0.1 0.8 -0.1
v -0.1 0.9 -0.1
v -0.1 1 -0.1
v -0.1 1.1 -0.1
v 0 0.5 -0.1
v 0 0.6 -0.1
v 0 0.7 -0.1
v 0 0.8 -0.1
v 0 0.9 -0.1
v 0 1 -0.1
v 0 1.1 -0.1
v 0.1 0.5 -0.1
v 0.1 0.6 -0.1
v 0.1 0.7 -0.1
v 0.1 0.8 -0.1
v 0.1 0.9 -0.1
v 0.1 1 -0.1
v 0.1 1.1 -0.1
v 0.2 0.3 -0.1
v 0.2 0.4 -0.1
v 0.2 0.5 -0.1
v 0.2 0.7 -0.1
v 0.2 0.8 -0.1
v 0.2 0.9 -0.1
v 0.2 1 -0.1
v 0.2 1.1 -0.1
v 0.3 0.1 -0.1
v 0.3 0.2 -0.1
v 0.3 0.3 -0.1
v 0.3 0.4 -0.1
v 0.4 0.1 -0.1
v 0.4 0.2 -0.1
v -0.4 0 -0.2
v -0.4 0.1 -0.2
v -0.3 0 -0.2
v -0.3 0.1 -0.2
v -0.3 0.2 -0.2
v -0.2 0.1 -0.2
v -0.2 0.2 -0.2
v -0.2 0.3 -0.2
v -0.2 0.4 -0.2
v -0.2 0.5 -0.2
v -0.1 0.3 -0.2
v -0.1 0.4 -0.2
v -0.1 0.5 -0.2
v -0.1 0.6 -0.2
v -0.1 0.7 -0.2
v -0.1 0.8 -0.2
v -0.1 0.9 -0.2
v -0.1 1 -0.2
v 0 0.2 -0.2
v 0 0.3 -0.2
v 0 0.5 -0.2
v 0 0.6 -0.2
v 0 0.7 -0.2
v 0 0.8 -0.2
v 0 0.9 -0.2
v 0 1 -0.2
v 0 1.1 -0.2
v 0.1 0 -0.2
v 0.1 0.2 -0.2
v 0.1 0.4 -0.2
v 0.1 0.5 -0.2
v 0.1 0.6 -0.2
v 0.1 0.7 -0.2
v 0.1 0.8 -0.2
v 0.1 0.9 -0.2
v 0.1 1 -0.2
v 0.1 1.1 -0.2
v 0.2 0.3 -0.2
v 0.2 0.4 -0.2
v 0.2 0.7 -0.2
v 0.2 0.8 -0.2
v 0.2 0.9 -0.2
v 0.2 1 -0.2
v 0.3 0.1 -0.2
v 0.3 0.3 -0.2
v 0.4 0 -0.2
v 0.4 0.1 -0.2
v -0.3 0 -0.3
v -0.3 0.1 -0.3
v -0.2 0 -0.3
v -0.2 0.1 -0.3
v -0.2 0 -0.4
v -0.2 0.2 -0.4
v 0.1 0 -0.4
v 0.1 0.2 -0.4
v -0.2 0 0.4
v 0.1 0 0.4
v 0.1 0 0.3
v 0.3 0 0.3
v 0.3 0 0.2
v 0.4 0 0.2
v -0.4 0 0.1
v -0.3 0 0.1
v -0.2 0 0.1
v 0 0 0
v 0.1 0 0
v -0.3 0 -0.1
v 0 0 -0.1
v 0.1 0 -0.1
v 0.4 0 -0.1
v -0.4 0 -0.2
v -0.3 0 -0.2
v 0.1 0 -0.2
v 0.4 0 -0.2
v -0.3 0 -0.3
v -0.2 0 -0.3
v -0.2 0 -0.4
v 0.1 0 -0.4
v -0.2 0.4 0.1
v -0.1 0.4 0.1
v -0.2 0.4 0
v -0.1 0.4 0
v -0.2 0.4 -0.1
v -0.1 0.4 -0.1
v -0.2 0.4 -0.2
v -0.1 0.4 -0.2
v -0.1 0.5 0.2
v 0 0.5 0.2
v 0.1 0.5 0.2
v 0.2 0.5 0.2
v -0.1 0.5 0.1
v 0 0.5 0.1
v 0.1 0.5 0.1
v 0.2 0.5 0.1
v 0.1 0.5 0
v 0.2 0.5 0
v 0.1 0.5 -0.1
v 0.2 0.5 -0.1
v 0 0.6 -0.1
v 0.1 0.6 -0.1
v 0 0.6 -0.2
v 0.1 0.6 -0.2
v -0.1 0.7 -0.1
v 0 0.7 -0.1
v 0.1 0.7 -0.1
v 0.2 0.7 -0.1
v -0.1 0.7 -0.2
v 0 0.7 -0.2
v 0.1 0.7 -0.2
v 0.2 0.7 -0.2
v -0.1 0.9 0.1
v 0 0.9 0.1
v 0.1 0.9 0.1
v 0.2 0.9 0.1
v -0.1 0.9 0
v 0 0.9 0
v 0.1 0.9 0
v 0.2 0.9 0
v -0.1 0.9 -0.1
v 0 0.9 -0.1
v 0.1 0.9 -0.1
v 0.2 0.9 -0.1
v -0.1 0.9 -0.2
v 0 0.9 -0.2
v 0.1 0.9 -0.2
v 0.2 0.9 -0.2
v -0.2 0.1 0.4
v -0.1 0.1 0.4
v 0 0.1 0.4
v 0.1 0.1 0.4
v -0.2 0.1 0.3
v -0.1 0.1 0.3
v 0 0.1 0.3
v 0.1 0.1 0.3
v 0.2 0.1 0.3
v 0.3 0.1 0.3
v 0.2 0.1 0.2
v 0.3 0.1 0.2
v 0.4 0.1 0.2
v -0.4 0.1 0.1
v -0.3 0.1 0.1
v 0.3 0.1 0.1
v 0.4 0.1 0.1
v -0.4 0.1 0
v -0.3 0.1 0
v -0.4 0.1 -0.1
v -0.3 0.1 -0.1
v 0.3 0.1 -0.1
v 0.4 0.1 -0.1
v -0.4 0.1 -0.2
v -0.3 0.1 -0.2
v -0.2 0.1 -0.2
v 0.3 0.1 -0.2
v 0.4 0.1 -0.2
v -0.3 0.1 -0.3
v -0.2 0.1 -0.3
v -0.1 0.2 0.4
v 0 0.2 0.4
v -0.2 0.2 0.3
v -0.1 0.2 0.3
v 0 0.2 0.3
v 0.2 0.2 0.2
v 0.3 0.2 0.2
v -0.3 0.2 0.1
v -0.2 0.2 0.1
v -0.1 0.2 0.1
v 0.2 0.2 0.1
v 0.3 0.2 0.1
v 0.4 0.2 0.1
v -0.4 0.2 0
v -0.3 0.2 0
v -0.4 0.2 -0.1
v -0.3 0.2 -0.1
v 0.3 0.2 -0.1
v 0.4 0.2 -0.1
v -0.3 0.2 -0.2
v -0.2 0.2 -0.2
v 0 0.2 -0.2
v 0.1 0.2 -0.2
v -0.2 0.2 -0.4
v 0.1 0.2 -0.4
v -0.1 0.3 0.3
v 0 0.3 0.3
v 0.1 0.3 0.3
v 0.2 0.3 0.3
v -0.1 0.3 0.2
v 0 0.3 0.2
v 0.1 0.3 0.2
v 0.2 0.3 0.2
v -0.2 0.3 0.1
v -0.1 0.3 0.1
v 0.2 0.3 0.1
v 0.3 0.3 0.1
v -0.2 0.3 0
v -0.1 0.3 0
v 0.2 0.3 0
v 0.3 0.3 0
v -0.2 0.3 -0.1
v -0.1 0.3 -0.1
v 0.2 0.3 -0.1
v 0.3 0.3 -0.1
v -0.2 0.3 -0.2
v -0.1 0.3 -0.2
v 0.2 0.3 -0.2
v 0.3 0.3 -0.2
v 0 0.4 0.3
v 0.1 0.4 0.3
v -0.1 0.4 0.2
v 0 0.4 0.2
v 0.1 0.4 0.2
v 0.2 0.4 0.2
v -0.1 0.4 0.1
v 0 0.4 0.1
v 0.1 0.4 0.1
v 0.2 0.4 0.1
v 0.1 0.4 0
v 0.2 0.4 0
v 0.3 0.4 0
v 0.2 0.4 -0.1
v 0.3 0.4 -0.1
v 0.1 0.4 -0.2
v 0.2 0.4 -0.2
v -0.2 0.5 0.1
v -0.1 0.5 0.1
v -0.2 0.5 0
v -0.1 0.5 0
v -0.2 0.5 -0.1
v -0.1 0.5 -0.1
v 0 0.5 -0.1
v 0.1 0.5 -0.1
v -0.2 0.5 -0.2
v -0.1 0.5 -0.2
v 0 0.5 -0.2
v 0.1 0.5 -0.2
v -0.1 0.6 0.2
v 0 0.6 0.2
v 0.1 0.6 0.2
v 0.2 0.6 0.2
v -0.1 0.6 0.1
v 0 0.6 0.1
v 0.1 0.6 0.1
v 0.2 0.6 0.1
v -0.2 0.6 0
v -0.1 0.6 0
v -0.2 0.6 -0.1
v -0.1 0.6 -0.1
v 0 0.6 -0.1
v -0.1 0.6 -0.2
v 0 0.6 -0.2
v 0 0.7 0.2
v 0.1 0.7 0.2
v 0 0.7 0.1
v 0.1 0.7 0.1
v -0.1 0.8 0.1
v 0 0.8 0.1
v 0.1 0.8 0.1
v 0.2 0.8 0.1
v -0.1 0.8 0
v 0 0.8 0
v 0.1 0.8 0
v 0.2 0.8 0
v -0.1 0.8 -0.1
v 0 0.8 -0.1
v 0.1 0.8 -0.1
v 0.2 0.8 -0.1
v -0.1 0.8 -0.2
v 0 0.8 -0.2
v 0.1 0.8 -0.2
v 0.2 0.8 -0.2
v -0.1 1 0.1
v 0 1 0.1
v 0.1 1 0.1
v 0.2 1 0.1
v -0.1 1 0
v 0 1 0
v 0.1 1 0
v 0.2 1 0
v -0.1 1 -0.1
v 0 1 -0.1
v 0.1 1 -0.1
v 0.2 1 -0.1
v -0.1 1 -0.2
v 0 1 -0.2
v 0.1 1 -0.2
v 0.2 1 -0.2
v 0 1.1 0.1
v 0.1 1.1 0.1
v -0.1 1.1 0
v 0 1.1 0
v 0.1 1.1 0
v 0.2 1.1 0
v -0.1 1.1 -0.1
v 0 1.1 -0.1
v 0.1 1.1 -0.1
v 0.2 1.1 -0.1
v 0 1.1 -0.2
v 0.1 1.1 -0.2

# faces
f 3/3/1 2/3/1 1/3/1
f 4/3/1 2/3/1 3/3/1
f 5/3/1 2/3/1 4/3/1
f 6/3/1 2/3/1 5/3/1
f 7/2/1 5/2/1 4/2/1
f 8/2/1 5/2/1 7/2/1
f 14/3/1 10/3/1 9/3/1
f 15/3/1 10/3/1 14/3/1
f 16/2/1 12/2/1 11/2/1
f 17/2/1 12/2/1 16/2/1
f 18/2/1 14/2/1 13/2/1
f 19/2/1 14/2/1 18/2/1
f 24/2/1 21/2/1 20/2/1
f 25/2/1 21/2/1 24/2/1
f 27/3/1 23/3/1 22/3/1
f 28/2/1 21/2/1 25/2/1
f 29/2/1 21/2/1 28/2/1
f 30/3/1 27/3/1 26/3/1
f 31/3/1 23/3/1 27/3/1
f 31/3/1 27/3/1 30/3/1
f 32/2/1 30/2/1 29/2/1
f 33/2/1 30/2/1 32/2/1
f 34/2/1 30/2/1 33/2/1
f 35/2/1 30/2/1 34/2/1
f 37/2/1 34/2/1 33/2/1
f 38/2/1 34/2/1 37/2/1
f 40/2/1 37/2/1 36/2/1
f 40/2/1 38/2/1 37/2/1
f 41/2/1 38/2/1 40/2/1
f 42/3/1 39/3/1 38/3/1
f 42/2/1 38/2/1 41/2/1
f 43/3/1 39/3/1 42/3/1
f 44/3/1 42/3/1 41/3/1
f 45/3/1 42/3/1 44/3/1
f 48/2/1 47/2/1 46/2/1
f 49/2/1 47/2/1 48/2/1
f 51/2/1 50/2/1 49/2/1
f 52/2/1 50/2/1 51/2/1
f 53/2/1 50/2/1 52/2/1
f 57/2/1 53/2/1 52/2/1
f 57/2/1 54/2/1 53/2/1
f 58/2/1 54/2/1 57/2/1
f 59/2/1 54/2/1 58/2/1
f 60/2/1 56/2/1 55/2/1
f 61/2/1 56/2/1 60/2/1
f 67/1/1 63/1/1 62/1/1
f 67/1/1 64/1/1 63/1/1
f 68/1/1 64/1/1 67/1/1
f 69/1/1 64/1/1 68/1/1
f 70/2/1 66/2/1 65/2/1
f 71/2/1 66/2/1 70/2/1
f 72/1/1 69/1/1 68/1/1
f 72/1/1 70/1/1 69/1/1
f 74/1/1 72/1/1 68/1/1
f 75/1/1 72/1/1 74/1/1
f 76/3/1 73/3/1 72/3/1
f 76/1/1 72/1/1 75/1/1
f 77/3/1 73/3/1 76/3/1
f 79/4/1 76/4/1 75/4/1
f 80/4/1 76/4/1 79/4/1
f 82/4/1 79/4/1 78/4/1
f 82/4/1 81/4/1 80/4/1
f 82/4/1 80/4/1 79/4/1
f 83/4/1 81/4/1 82/4/1
f 84/4/1 81/4/1 83/4/1
f 85/4/1 81/4/1 84/4/1
f 86/4/1 84/4/1 83/4/1
f 87/4/1 84/4/1 86/4/1
f 90/2/1 89/2/1 88/2/1
f 91/2/1 89/2/1 90/2/1
f 93/1/1 92/1/1 91/1/1
f 94/1/1 92/1/1 93/1/1
f 99/1/1 96/1/1 95/1/1
f 100/1/1 96/1/1 99/1/1
f 101/2/1 98/2/1 97/2/1
f 102/2/1 98/2/1 101/2/1
f 107/1/1 104/1/1 103/1/1
f 108/1/1 104/1/1 107/1/1
f 109/4/1 106/4/1 105/4/1
f 110/4/1 106/4/1 109/4/1
f 115/4/1 112/4/1 111/4/1
f 116/4/1 112/4/1 115/4/1
f 117/4/1 114/4/1 113/4/1
f 118/4/1 114/4/1 117/4/1
f 119/2/2 120/2/2 121/2/2
f 121/2/2 120/2/2 122/2/2
f 123/2/2 124/2/2 125/2/2
f 125/2/2 124/2/2 126/2/2
f 127/2/2 128/2/2 131/2/2
f 131/2/2 128/2/2 132/2/2
f 129/3/2 130/3/2 133/3/2
f 133/3/2 130/3/2 134/3/2
f 135/2/2 136/2/2 137/2/2
f 137/2/2 136/2/2 138/2/2
f 138/1/2 139/1/2 142/1/2
f 142/1/2 139/1/2 143/1/2
f 140/2/2 141/2/2 144/2/2
f 144/2/2 141/2/2 145/2/2
f 145/2/2 141/2/2 146/2/2
f 147/1/2 148/1/2 151/1/2
f 151/1/2 148/1/2 152/1/2
f 149/2/2 150/2/2 153/2/2
f 153/2/2 150/2/2 154/2/2
f 155/1/2 156/1/2 159/1/2
f 159/1/2 156/1/2 160/1/2
f 157/4/2 158/4/2 161/4/2
f 161/4/2 158/4/2 162/4/2
f 163/4/2 164/4/2 167/4/2
f 167/4/2 164/4/2 168/4/2
f 165/4/2 166/4/2 169/4/2
f 169/4/2 166/4/2 170/4/2
f 171/2/2 172/2/2 173/2/2
f 171/2/2 173/2/2 175/2/2
f 173/2/2 174/2/2 175/2/2
f 175/2/2 174/2/2 176/2/2
f 176/2/2 174/2/2 177/2/2
f 176/2/2 177/2/2 181/2/2
f 177/2/2 178/2/2 181/2/2
f 181/2/2 178/2/2 182/2/2
f 182/2/2 178/2/2 183/2/2
f 179/2/2 180/2/2 184/2/2
f 184/2/2 180/2/2 185/2/2
f 182/1/2 183/1/2 187/1/2
f 187/1/2 183/1/2 188/1/2
f 186/1/2 187/1/2 190/1/2
f 188/1/2 189/1/2 190/1/2
f 187/1/2 188/1/2 190/1/2
f 190/1/2 189/1/2 191/1/2
f 191/1/2 189/1/2 192/1/2
f 191/1/2 192/1/2 194/1/2
f 194/1/2 192/1/2 195/1/2
f 192/2/2 193/2/2 196/2/2
f 195/1/2 192/1/2 196/1/2
f 196/2/2 193/2/2 197/2/2
f 195/4/2 196/4/2 199/4/2
f 199/4/2 196/4/2 200/4/2
f 198/4/2 199/4/2 202/4/2
f 200/4/2 201/4/2 202/4/2
f 199/4/2 200/4/2 202/4/2
f 202/4/2 201/4/2 203/4/2
f 203/4/2 201/4/2 204/4/2
f 204/4/2 201/4/2 205/4/2
f 203/4/2 204/4/2 206/4/2
f 206/4/2 204/4/2 207/4/2
f 208/2/2 209/2/2 210/2/2
f 210/2/2 209/2/2 211/2/2
f 211/2/2 212/2/2 215/2/2
f 215/2/2 212/2/2 216/2/2
f 213/3/2 214/3/2 217/3/2
f 216/2/2 217/2/2 218/2/2
f 218/2/2 217/2/2 219/2/2
f 217/3/2 214/3/2 220/3/2
f 219/2/2 217/2/2 220/2/2
f 220/3/2 214/3/2 221/3/2
f 219/2/2 220/2/2 222/2/2
f 222/2/2 220/2/2 223/2/2
f 224/2/2 225/2/2 227/2/2
f 227/2/2 225/2/2 228/2/2
f 225/3/2 226/3/2 229/3/2
f 228/2/2 225/2/2 229/2/2
f 229/3/2 226/3/2 230/3/2
f 228/2/2 229/2/2 231/2/2
f 231/2/2 229/2/2 232/2/2
f 235/2/3 234/2/3 233/2/3
f 237/2/3 235/2/3 233/2/3
f 237/2/3 236/2/3 235/2/3
f 238/2/3 236/2/3 237/2/3
f 239/2/3 237/2/3 233/2/3
f 240/2/3 237/2/3 239/2/3
f 243/2/3 242/2/3 241/2/3
f 244/2/3 242/2/3 243/2/3
f 247/2/3 245/2/3 244/2/3
f 248/2/3 245/2/3 247/2/3
f 251/2/3 247/2/3 246/2/3
f 251/2/3 249/2/3 248/2/3
f 251/2/3 248/2/3 247/2/3
f 252/2/3 249/2/3 251/2/3
f 253/2/3 249/2/3 252/2/3
f 254/2/3 251/2/3 250/2/3
f 254/2/3 252/2/3 251/2/3
f 255/2/3 252/2/3 254/2/3
f 256/2/3 254/2/3 250/2/3
f 257/2/3 254/2/3 256/2/3
f 262/2/3 259/2/3 258/2/3
f 263/2/3 259/2/3 262/2/3
f 264/1/3 261/1/3 260/1/3
f 265/1/3 261/1/3 264/1/3
f 268/1/3 266/1/3 265/1/3
f 268/1/3 265/1/3 264/1/3
f 268/1/3 264/1/3 263/1/3
f 269/1/3 266/1/3 268/1/3
f 270/1/3 266/1/3 269/1/3
f 271/1/3 266/1/3 270/1/3
f 274/2/3 268/2/3 267/2/3
f 275/2/3 268/2/3 274/2/3
f 276/1/3 270/1/3 269/1/3
f 277/1/3 270/1/3 276/1/3
f 279/2/3 273/2/3 272/2/3
f 280/2/3 273/2/3 279/2/3
f 281/2/3 279/2/3 278/2/3
f 282/2/3 279/2/3 281/2/3
f 285/3/3 284/3/3 283/3/3
f 286/3/3 284/3/3 285/3/3
f 288/2/3 286/2/3 285/2/3
f 288/2/3 287/2/3 286/2/3
f 289/2/3 287/2/3 288/2/3
f 293/2/3 290/2/3 289/2/3
f 294/2/3 290/2/3 293/2/3
f 295/2/3 292/2/3 291/2/3
f 296/2/3 292/2/3 295/2/3
f 301/1/3 296/1/3 295/1/3
f 302/1/3 296/1/3 301/1/3
f 303/1/3 298/1/3 297/1/3
f 304/1/3 298/1/3 303/1/3
f 305/1/3 298/1/3 304/1/3
f 306/4/3 300/4/3 299/4/3
f 307/4/3 300/4/3 306/4/3
f 312/1/3 305/1/3 304/1/3
f 312/1/3 306/1/3 305/1/3
f 313/1/3 306/1/3 312/1/3
f 314/4/3 308/4/3 307/4/3
f 314/1/3 306/1/3 313/1/3
f 314/4/3 307/4/3 306/4/3
f 315/4/3 308/4/3 314/4/3
f 316/4/3 308/4/3 315/4/3
f 319/1/3 310/1/3 309/1/3
f 320/1/3 310/1/3 319/1/3
f 321/1/3 313/1/3 312/1/3
f 321/1/3 312/1/3 311/1/3
f 322/1/3 313/1/3 321/1/3
f 323/4/3 315/4/3 314/4/3
f 324/4/3 315/4/3 323/4/3
f 326/2/3 318/2/3 317/2/3
f 327/2/3 318/2/3 326/2/3
f 328/2/3 326/2/3 325/2/3
f 329/2/3 326/2/3 328/2/3
f 332/2/3 331/2/3 330/2/3
f 333/2/3 331/2/3 332/2/3
f 338/2/3 335/2/3 334/2/3
f 339/2/3 335/2/3 338/2/3
f 340/3/3 337/3/3 336/3/3
f 341/3/3 337/3/3 340/3/3
f 346/4/3 343/4/3 342/4/3
f 347/4/3 343/4/3 346/4/3
f 348/4/3 345/4/3 344/4/3
f 349/4/3 345/4/3 348/4/3
f 356/4/3 351/4/3 350/4/3
f 357/4/3 351/4/3 356/4/3
f 358/4/3 353/4/3 352/4/3
f 359/4/3 353/4/3 358/4/3
f 360/2/3 355/2/3 354/2/3
f 361/2/3 355/2/3 360/2/3
f 362/1/4 363/1/4 364/1/4
f 364/1/4 363/1/4 365/1/4
f 366/2/4 367/2/4 368/2/4
f 368/2/4 367/2/4 369/2/4
f 370/2/4 371/2/4 374/2/4
f 374/2/4 371/2/4 375/2/4
f 372/3/4 373/3/4 376/3/4
f 376/3/4 373/3/4 377/3/4
f 377/1/4 378/1/4 384/1/4
f 384/1/4 378/1/4 385/1/4
f 379/4/4 380/4/4 386/4/4
f 386/4/4 380/4/4 387/4/4
f 381/4/4 382/4/4 388/4/4
f 388/4/4 382/4/4 389/4/4
f 383/1/4 384/1/4 390/1/4
f 390/1/4 384/1/4 391/1/4
f 390/1/4 391/1/4 399/1/4
f 391/1/4 392/1/4 399/1/4
f 399/1/4 392/1/4 400/1/4
f 393/4/4 394/4/4 401/4/4
f 401/4/4 394/4/4 402/4/4
f 395/4/4 396/4/4 403/4/4
f 403/4/4 396/4/4 404/4/4
f 397/2/4 398/2/4 407/2/4
f 407/2/4 398/2/4 408/2/4
f 405/2/4 406/2/4 409/2/4
f 409/2/4 406/2/4 410/2/4
f 411/3/4 412/3/4 413/3/4
f 413/3/4 412/3/4 414/3/4
f 414/2/4 415/2/4 416/2/4
f 416/2/4 415/2/4 417/2/4
f 417/2/4 418/2/4 421/2/4
f 419/3/4 420/3/4 422/3/4
f 422/3/4 420/3/4 423/3/4
f 417/2/4 421/2/4 429/2/4
f 421/2/4 422/2/4 429/2/4
f 422/2/4 423/2/4 429/2/4
f 423/2/4 424/2/4 429/2/4
f 429/2/4 424/2/4 430/2/4
f 430/2/4 424/2/4 431/2/4
f 431/2/4 424/2/4 432/2/4
f 425/3/4 426/3/4 433/3/4
f 433/3/4 426/3/4 434/3/4
f 427/4/4 428/4/4 435/4/4
f 435/4/4 428/4/4 436/4/4
f 429/3/4 430/3/4 439/3/4
f 430/2/4 431/2/4 440/2/4
f 440/2/4 431/2/4 441/2/4
f 433/2/4 434/2/4 442/2/4
f 432/2/4 433/2/4 442/2/4
f 442/2/4 434/2/4 443/2/4
f 436/4/4 437/4/4 444/4/4
f 443/2/4 434/2/4 444/2/4
f 435/4/4 436/4/4 444/4/4
f 434/4/4 435/4/4 444/4/4
f 444/4/4 437/4/4 445/4/4
f 445/4/4 437/4/4 446/4/4
f 446/4/4 437/4/4 447/4/4
f 438/3/4 439/3/4 448/3/4
f 430/2/4 440/2/4 448/2/4
f 439/3/4 430/3/4 448/3/4
f 448/2/4 440/2/4 449/2/4
f 443/2/4 444/2/4 450/2/4
f 450/2/4 444/2/4 451/2/4
f 445/4/4 446/4/4 452/4/4
f 452/4/4 446/4/4 453/4/4
f 438/3/4 448/3/4 454/3/4
f 454/3/4 448/3/4 455/3/4
f 438/3/4 454/3/4 456/3/4
f 456/3/4 454/3/4 457/3/4
f 458/3/4 459/3/4 460/3/4
f 460/3/4 459/3/4 461/3/4
f 462/3/4 463/3/4 464/3/4
f 464/3/4 463/3/4 465/3/4
f 468/2/5 467/2/5 466/2/5
f 470/2/5 469/2/5 468/2/5
f 474/2/5 468/2/5 466/2/5
f 474/2/5 470/2/5 468/2/5
f 474/2/5 471/2/5 470/2/5
f 475/2/5 471/2/5 474/2/5
f 475/2/5 474/2/5 473/2/5
f 476/2/5 471/2/5 475/2/5
f 477/3/5 473/3/5 472/3/5
f 477/2/5 475/2/5 473/2/5
f 478/3/5 476/3/5 475/3/5
f 478/2/5 475/2/5 477/2/5
f 479/2/5 471/2/5 476/2/5
f 479/3/5 476/3/5 478/3/5
f 480/2/5 471/2/5 479/2/5
f 481/3/5 478/3/5 477/3/5
f 481/3/5 477/3/5 472/3/5
f 481/3/5 480/3/5 479/3/5
f 481/3/5 479/3/5 478/3/5
f 482/3/5 480/3/5 481/3/5
f 483/3/5 480/3/5 482/3/5
f 484/3/5 480/3/5 483/3/5
f 485/3/5 483/3/5 482/3/5
f 486/3/5 483/3/5 485/3/5
f 487/3/5 483/3/5 486/3/5
f 488/3/5 483/3/5 487/3/5
f 491/2/5 490/2/5 489/2/5
f 492/2/5 490/2/5 491/2/5
f 495/3/5 494/3/5 493/3/5
f 496/3/5 494/3/5 495/3/5
f 501/1/5 498/1/5 497/1/5
f 502/1/5 498/1/5 501/1/5
f 503/1/5 500/1/5 499/1/5
f 504/1/5 500/1/5 503/1/5
f 507/1/5 506/1/5 505/1/5
f 508/1/5 506/1/5 507/1/5
f 511/2/5 510/2/5 509/2/5
f 512/2/5 510/2/5 511/2/5
f 517/3/5 514/3/5 513/3/5
f 518/3/5 514/3/5 517/3/5
f 519/2/5 516/2/5 515/2/5
f 520/2/5 516/2/5 519/2/5
f 525/4/5 522/4/5 521/4/5
f 526/4/5 522/4/5 525/4/5
f 527/4/5 524/4/5 523/4/5
f 528/4/5 524/4/5 527/4/5
f 533/4/5 530/4/5 529/4/5
f 534/4/5 530/4/5 533/4/5
f 535/4/5 532/4/5 531/4/5
f 536/4/5 532/4/5 535/4/5
f 537/2/6 538/2/6 541/2/6
f 541/2/6 538/2/6 542/2/6
f 539/2/6 540/2/6 543/2/6
f 543/2/6 540/2/6 544/2/6
f 545/2/6 546/2/6 547/2/6
f 547/2/6 546/2/6 548/2/6
f 548/2/6 549/2/6 552/2/6
f 552/2/6 549/2/6 553/2/6
f 550/3/6 551/3/6 554/3/6
f 554/3/6 551/3/6 555/3/6
f 556/3/6 557/3/6 560/3/6
f 560/3/6 557/3/6 561/3/6
f 558/3/6 559/3/6 563/3/6
f 563/3/6 559/3/6 564/3/6
f 561/3/6 562/3/6 565/3/6
f 565/3/6 562/3/6 566/3/6
f 567/2/6 568/2/6 570/2/6
f 570/2/6 568/2/6 571/2/6
f 569/2/6 570/2/6 575/2/6
f 575/2/6 570/2/6 576/2/6
f 572/2/6 573/2/6 577/2/6
f 577/2/6 573/2/6 578/2/6
f 574/2/6 575/2/6 581/2/6
f 580/2/6 581/2/6 582/2/6
f 581/2/6 575/2/6 583/2/6
f 582/2/6 581/2/6 583/2/6
f 578/2/6 579/2/6 584/2/6
f 584/2/6 579/2/6 585/2/6
f 583/2/6 575/2/6 586/2/6
f 586/2/6 575/2/6 587/2/6
f 588/3/6 589/3/6 590/3/6
f 587/3/6 588/3/6 590/3/6
f 590/3/6 589/3/6 591/3/6
f 592/2/6 593/2/6 596/2/6
f 596/2/6 593/2/6 597/2/6
f 594/2/6 595/2/6 598/2/6
f 598/2/6 595/2/6 599/2/6
f 600/2/6 601/2/6 604/2/6
f 604/2/6 601/2/6 605/2/6
f 602/2/6 603/2/6 606/2/6
f 606/2/6 603/2/6 607/2/6
f 608/2/6 609/2/6 612/2/6
f 612/2/6 609/2/6 613/2/6
f 610/3/6 611/3/6 614/3/6
f 614/3/6 611/3/6 615/3/6
f 616/2/6 617/2/6 619/2/6
f 619/2/6 617/2/6 620/2/6
f 618/2/6 619/2/6 622/2/6
f 622/2/6 619/2/6 623/2/6
f 620/2/6 621/2/6 624/2/6
f 624/2/6 621/2/6 625/2/6
f 626/2/6 627/2/6 629/2/6
f 627/2/6 628/2/6 629/2/6
f 629/2/6 628/2/6 630/2/6
f 626/2/6 629/2/6 631/2/6
f 631/2/6 629/2/6 632/2/6
f 633/2/6 634/2/6 635/2/6
f 635/2/6 634/2/6 636/2/6
f 637/3/6 638/3/6 641/3/6
f 641/3/6 638/3/6 642/3/6
f 639/2/6 640/2/6 643/2/6
f 643/2/6 640/2/6 644/2/6
f 645/1/6 646/1/6 649/1/6
f 649/1/6 646/1/6 650/1/6
f 647/1/6 648/1/6 651/1/6
f 651/1/6 648/1/6 652/1/6
f 653/3/6 654/3/6 655/3/6
f 655/3/6 654/3/6 656/3/6
f 656/2/6 657/2/6 658/2/6
f 658/2/6 657/2/6 659/2/6
f 660/1/6 661/1/6 662/1/6
f 662/1/6 661/1/6 663/1/6
f 664/1/6 665/1/6 668/1/6
f 668/1/6 665/1/6 669/1/6
f 666/1/6 667/1/6 670/1/6
f 670/1/6 667/1/6 671/1/6
f 672/3/6 673/3/6 676/3/6
f 676/3/6 673/3/6 677/3/6
f 674/2/6 675/2/6 678/2/6
f 678/2/6 675/2/6 679/2/6
f 680/4/6 681/4/6 684/4/6
f 684/4/6 681/4/6 685/4/6
f 682/4/6 683/4/6 686/4/6
f 686/4/6 683/4/6 687/4/6
f 688/4/6 689/4/6 692/4/6
f 692/4/6 689/4/6 693/4/6
f 690/4/6 691/4/6 694/4/6
f 694/4/6 691/4/6 695/4/6
f 696/4/6 697/4/6 699/4/6
f 699/4/6 697/4/6 700/4/6
f 698/4/6 699/4/6 702/4/6
f 700/4/6 701/4/6 702/4/6
f 699/4/6 700/4/6 702/4/6
f 702/4/6 701/4/6 703/4/6
f 703/4/6 701/4/6 704/4/6
f 704/4/6 701/4/6 705/4/6
f 703/4/6 704/4/6 706/4/6
f 706/4/6 704/4/6 707/4/6
