# MagicaVoxel @ Ephtracy

# group
o 

# material
mtllib sheep.mtl
usemtl palette

# normals
vn -1 0 0
vn 1 0 0
vn 0 0 1
vn 0 0 -1
vn 0 -1 0
vn 0 1 0

# texcoords
vt 0.00585938 0.5
vt 0.0410156 0.5
vt 0.306641 0.5
vt 0.669922 0.5
vt 0.841797 0.5
vt 0.880859 0.5
vt 0.966797 0.5

# verts
v -0.7 0.1 0.1
v -0.7 0.1 -0.1
v -0.7 0.2 0.1
v -0.7 0.2 -0.1
v -0.6 0.2 0.1
v -0.6 0.2 -0.1
v -0.6 0.3 0.1
v -0.6 0.3 -0.1
v -0.5 0 0.1
v -0.5 0 -0.1
v -0.5 0.1 0.2
v -0.5 0.1 0.1
v -0.5 0.1 -0.1
v -0.5 0.1 -0.2
v -0.5 0.2 0.1
v -0.5 0.2 -0.1
v -0.5 0.3 0.2
v -0.5 0.3 0.1
v -0.5 0.3 -0.1
v -0.5 0.3 -0.2
v -0.4 0.2 0.3
v -0.4 0.2 0.2
v -0.4 0.2 -0.2
v -0.4 0.2 -0.3
v -0.4 0.3 0.3
v -0.4 0.3 0.2
v -0.4 0.3 0.1
v -0.4 0.3 -0.1
v -0.4 0.3 -0.2
v -0.4 0.3 -0.3
v -0.4 0.4 0.1
v -0.4 0.4 -0.1
v -0.3 0.2 0.4
v -0.3 0.2 0.3
v -0.3 0.2 -0.3
v -0.3 0.2 -0.4
v -0.3 0.3 0.4
v -0.3 0.3 0.3
v -0.3 0.3 -0.3
v -0.3 0.3 -0.4
v -0.2 0.3 0.2
v -0.2 0.3 0.1
v -0.2 0.3 -0.1
v -0.2 0.3 -0.2
v -0.2 0.4 0.2
v -0.2 0.4 0.1
v -0.2 0.4 -0.1
v -0.2 0.4 -0.2
v -0.1 0.1 0.3
v -0.1 0.1 0.2
v -0.1 0.1 -0.2
v -0.1 0.1 -0.3
v -0.1 0.2 0.5
v -0.1 0.2 0.4
v -0.1 0.2 0.3
v -0.1 0.2 0.2
v -0.1 0.2 -0.2
v -0.1 0.2 -0.3
v -0.1 0.2 -0.4
v -0.1 0.2 -0.5
v -0.1 0.3 0.5
v -0.1 0.3 0.4
v -0.1 0.3 0.3
v -0.1 0.3 0.2
v -0.1 0.3 -0.2
v -0.1 0.3 -0.3
v -0.1 0.3 -0.4
v -0.1 0.3 -0.5
v -0.1 0.4 0.3
v -0.1 0.4 0.2
v -0.1 0.4 0.1
v -0.1 0.4 -0.1
v -0.1 0.4 -0.2
v -0.1 0.4 -0.3
v -0.1 0.5 0.1
v -0.1 0.5 -0.1
v 0.1 0.1 0.4
v 0.1 0.1 0.3
v 0.1 0.1 -0.3
v 0.1 0.1 -0.4
v 0.1 0.2 0.6
v 0.1 0.2 0.5
v 0.1 0.2 0.4
v 0.1 0.2 0.3
v 0.1 0.2 -0.3
v 0.1 0.2 -0.4
v 0.1 0.2 -0.5
v 0.1 0.2 -0.6
v 0.1 0.3 0.6
v 0.1 0.3 0.5
v 0.1 0.3 0.4
v 0.1 0.3 0.3
v 0.1 0.3 -0.3
v 0.1 0.3 -0.4
v 0.1 0.3 -0.5
v 0.1 0.3 -0.6
v 0.1 0.4 0.4
v 0.1 0.4 0.3
v 0.1 0.4 -0.3
v 0.1 0.4 -0.4
v 0.2 0.2 0.7
v 0.2 0.2 0.6
v 0.2 0.2 -0.6
v 0.2 0.2 -0.7
v 0.2 0.3 0.7
v 0.2 0.3 0.6
v 0.2 0.3 -0.6
v 0.2 0.3 -0.7
v 0.5 0.1 0.3
v 0.5 0.1 0.2
v 0.5 0.1 -0.2
v 0.5 0.1 -0.3
v 0.5 0.2 0.3
v 0.5 0.2 0.2
v 0.5 0.2 -0.2
v 0.5 0.2 -0.3
v 0.5 0.3 0.3
v 0.5 0.3 0.2
v 0.5 0.3 -0.2
v 0.5 0.3 -0.3
v 0.5 0.4 0.3
v 0.5 0.4 0.2
v 0.5 0.4 -0.2
v 0.5 0.4 -0.3
v 0.6 0.5 0.1
v 0.6 0.5 -0.1
v 0.6 0.6 0.1
v 0.6 0.6 -0.1
v 0.7 0.2 0.3
v 0.7 0.2 0.2
v 0.7 0.2 -0.2
v 0.7 0.2 -0.3
v 0.7 0.3 0.3
v 0.7 0.3 0.2
v 0.7 0.3 -0.2
v 0.7 0.3 -0.3
v 0.3 0.1 0.4
v 0.3 0.1 0.2
v 0.3 0.1 -0.2
v 0.3 0.1 -0.4
v 0.3 0.2 0.7
v 0.3 0.2 0.6
v 0.3 0.2 0.5
v 0.3 0.2 0.4
v 0.3 0.2 0.3
v 0.3 0.2 0.2
v 0.3 0.2 -0.2
v 0.3 0.2 -0.3
v 0.3 0.2 -0.4
v 0.3 0.2 -0.5
v 0.3 0.2 -0.6
v 0.3 0.2 -0.7
v 0.3 0.3 0.7
v 0.3 0.3 0.6
v 0.3 0.3 0.5
v 0.3 0.3 0.4
v 0.3 0.3 0.3
v 0.3 0.3 0.2
v 0.3 0.3 -0.2
v 0.3 0.3 -0.3
v 0.3 0.3 -0.4
v 0.3 0.3 -0.5
v 0.3 0.3 -0.6
v 0.3 0.3 -0.7
v 0.3 0.4 0.4
v 0.3 0.4 0.2
v 0.3 0.4 -0.2
v 0.3 0.4 -0.4
v 0.4 0.2 0.5
v 0.4 0.2 0.4
v 0.4 0.2 -0.4
v 0.4 0.2 -0.5
v 0.4 0.3 0.5
v 0.4 0.3 0.4
v 0.4 0.3 -0.4
v 0.4 0.3 -0.5
v 0.5 0.2 0.4
v 0.5 0.2 0.3
v 0.5 0.2 0.2
v 0.5 0.2 -0.2
v 0.5 0.2 -0.3
v 0.5 0.2 -0.4
v 0.5 0.3 0.4
v 0.5 0.3 0.3
v 0.5 0.3 0.2
v 0.5 0.3 -0.2
v 0.5 0.3 -0.3
v 0.5 0.3 -0.4
v 0.6 0 0.1
v 0.6 0 -0.1
v 0.6 0.1 0.3
v 0.6 0.1 0.2
v 0.6 0.1 0.1
v 0.6 0.1 -0.1
v 0.6 0.1 -0.2
v 0.6 0.1 -0.3
v 0.6 0.2 0.3
v 0.6 0.2 0.2
v 0.6 0.2 0.1
v 0.6 0.2 -0.1
v 0.6 0.2 -0.2
v 0.6 0.2 -0.3
v 0.6 0.3 0.3
v 0.6 0.3 0.2
v 0.6 0.3 -0.2
v 0.6 0.3 -0.3
v 0.6 0.4 0.3
v 0.6 0.4 0.2
v 0.6 0.4 -0.2
v 0.6 0.4 -0.3
v 0.7 0.1 0.2
v 0.7 0.1 0.1
v 0.7 0.1 -0.1
v 0.7 0.1 -0.2
v 0.7 0.2 0.2
v 0.7 0.2 0.1
v 0.7 0.2 -0.1
v 0.7 0.2 -0.2
v 0.7 0.3 0.2
v 0.7 0.3 0.1
v 0.7 0.3 -0.1
v 0.7 0.3 -0.2
v 0.7 0.4 0.2
v 0.7 0.4 0.1
v 0.7 0.4 -0.1
v 0.7 0.4 -0.2
v 0.7 0.6 0.1
v 0.7 0.6 -0.1
v 0.8 0.2 0.3
v 0.8 0.2 0.1
v 0.8 0.2 -0.1
v 0.8 0.2 -0.3
v 0.8 0.3 0.3
v 0.8 0.3 0.1
v 0.8 0.3 -0.1
v 0.8 0.3 -0.3
v 0.2 0.2 0.7
v 0.2 0.3 0.7
v 0.3 0.2 0.7
v 0.3 0.3 0.7
v 0.1 0.2 0.6
v 0.1 0.3 0.6
v 0.2 0.2 0.6
v 0.2 0.3 0.6
v -0.1 0.2 0.5
v -0.1 0.3 0.5
v 0.1 0.2 0.5
v 0.1 0.3 0.5
v 0.3 0.2 0.5
v 0.3 0.3 0.5
v 0.4 0.2 0.5
v 0.4 0.3 0.5
v -0.3 0.2 0.4
v -0.3 0.3 0.4
v -0.1 0.2 0.4
v -0.1 0.3 0.4
v 0.1 0.1 0.4
v 0.1 0.2 0.4
v 0.1 0.3 0.4
v 0.1 0.4 0.4
v 0.3 0.1 0.4
v 0.3 0.2 0.4
v 0.3 0.3 0.4
v 0.3 0.4 0.4
v 0.4 0.2 0.4
v 0.4 0.3 0.4
v 0.5 0.2 0.4
v 0.5 0.3 0.4
v -0.4 0.2 0.3
v -0.4 0.3 0.3
v -0.3 0.2 0.3
v -0.3 0.3 0.3
v -0.1 0.1 0.3
v -0.1 0.2 0.3
v -0.1 0.3 0.3
v -0.1 0.4 0.3
v 0.1 0.1 0.3
v 0.1 0.2 0.3
v 0.1 0.3 0.3
v 0.1 0.4 0.3
v 0.5 0.1 0.3
v 0.5 0.2 0.3
v 0.5 0.3 0.3
v 0.5 0.4 0.3
v 0.6 0.1 0.3
v 0.6 0.2 0.3
v 0.6 0.3 0.3
v 0.6 0.4 0.3
v 0.7 0.2 0.3
v 0.7 0.3 0.3
v 0.8 0.2 0.3
v 0.8 0.3 0.3
v -0.5 0.1 0.2
v -0.5 0.3 0.2
v -0.4 0.2 0.2
v -0.4 0.3 0.2
v -0.2 0.3 0.2
v -0.2 0.4 0.2
v -0.1 0.1 0.2
v -0.1 0.2 0.2
v -0.1 0.3 0.2
v -0.1 0.4 0.2
v 0.3 0.1 0.2
v 0.3 0.2 0.2
v 0.3 0.3 0.2
v 0.3 0.4 0.2
v 0.5 0.1 0.2
v 0.5 0.2 0.2
v 0.5 0.3 0.2
v 0.5 0.4 0.2
v 0.6 0.1 0.2
v 0.6 0.2 0.2
v 0.6 0.3 0.2
v 0.6 0.4 0.2
v 0.7 0.1 0.2
v 0.7 0.2 0.2
v 0.7 0.3 0.2
v 0.7 0.4 0.2
v -0.7 0.1 0.1
v -0.7 0.2 0.1
v -0.6 0.2 0.1
v -0.6 0.3 0.1
v -0.5 0 0.1
v -0.5 0.1 0.1
v -0.5 0.2 0.1
v -0.5 0.3 0.1
v -0.4 0.3 0.1
v -0.4 0.4 0.1
v -0.2 0.3 0.1
v -0.2 0.4 0.1
v -0.1 0.4 0.1
v -0.1 0.5 0.1
v 0.6 0 0.1
v 0.6 0.1 0.1
v 0.6 0.4 0.1
v 0.6 0.5 0.1
v 0.6 0.6 0.1
v 0.7 0.4 0.1
v 0.7 0.6 0.1
v 0.6 0.1 -0.1
v 0.6 0.2 -0.1
v 0.7 0.1 -0.1
v 0.7 0.2 -0.1
v 0.7 0.3 -0.1
v 0.8 0.2 -0.1
v 0.8 0.3 -0.1
v 0.6 0.1 0.1
v 0.6 0.2 0.1
v 0.7 0.1 0.1
v 0.7 0.2 0.1
v 0.7 0.3 0.1
v 0.8 0.2 0.1
v 0.8 0.3 0.1
v -0.7 0.1 -0.1
v -0.7 0.2 -0.1
v -0.6 0.2 -0.1
v -0.6 0.3 -0.1
v -0.5 0 -0.1
v -0.5 0.1 -0.1
v -0.5 0.2 -0.1
v -0.5 0.3 -0.1
v -0.4 0.3 -0.1
v -0.4 0.4 -0.1
v -0.2 0.3 -0.1
v -0.2 0.4 -0.1
v -0.1 0.4 -0.1
v -0.1 0.5 -0.1
v 0.6 0 -0.1
v 0.6 0.1 -0.1
v 0.6 0.4 -0.1
v 0.6 0.5 -0.1
v 0.6 0.6 -0.1
v 0.7 0.4 -0.1
v 0.7 0.6 -0.1
v -0.5 0.1 -0.2
v -0.5 0.3 -0.2
v -0.4 0.2 -0.2
v -0.4 0.3 -0.2
v -0.2 0.3 -0.2
v -0.2 0.4 -0.2
v -0.1 0.1 -0.2
v -0.1 0.2 -0.2
v -0.1 0.3 -0.2
v -0.1 0.4 -0.2
v 0.3 0.1 -0.2
v 0.3 0.2 -0.2
v 0.3 0.3 -0.2
v 0.3 0.4 -0.2
v 0.5 0.1 -0.2
v 0.5 0.2 -0.2
v 0.5 0.3 -0.2
v 0.5 0.4 -0.2
v 0.6 0.1 -0.2
v 0.6 0.2 -0.2
v 0.6 0.3 -0.2
v 0.6 0.4 -0.2
v 0.7 0.1 -0.2
v 0.7 0.2 -0.2
v 0.7 0.3 -0.2
v 0.7 0.4 -0.2
v -0.4 0.2 -0.3
v -0.4 0.3 -0.3
v -0.3 0.2 -0.3
v -0.3 0.3 -0.3
v -0.1 0.1 -0.3
v -0.1 0.2 -0.3
v -0.1 0.3 -0.3
v -0.1 0.4 -0.3
v 0.1 0.1 -0.3
v 0.1 0.2 -0.3
v 0.1 0.3 -0.3
v 0.1 0.4 -0.3
v 0.5 0.1 -0.3
v 0.5 0.2 -0.3
v 0.5 0.3 -0.3
v 0.5 0.4 -0.3
v 0.6 0.1 -0.3
v 0.6 0.2 -0.3
v 0.6 0.3 -0.3
v 0.6 0.4 -0.3
v 0.7 0.2 -0.3
v 0.7 0.3 -0.3
v 0.8 0.2 -0.3
v 0.8 0.3 -0.3
v -0.3 0.2 -0.4
v -0.3 0.3 -0.4
v -0.1 0.2 -0.4
v -0.1 0.3 -0.4
v 0.1 0.1 -0.4
v 0.1 0.2 -0.4
v 0.1 0.3 -0.4
v 0.1 0.4 -0.4
v 0.3 0.1 -0.4
v 0.3 0.2 -0.4
v 0.3 0.3 -0.4
v 0.3 0.4 -0.4
v 0.4 0.2 -0.4
v 0.4 0.3 -0.4
v 0.5 0.2 -0.4
v 0.5 0.3 -0.4
v -0.1 0.2 -0.5
v -0.1 0.3 -0.5
v 0.1 0.2 -0.5
v 0.1 0.3 -0.5
v 0.3 0.2 -0.5
v 0.3 0.3 -0.5
v 0.4 0.2 -0.5
v 0.4 0.3 -0.5
v 0.1 0.2 -0.6
v 0.1 0.3 -0.6
v 0.2 0.2 -0.6
v 0.2 0.3 -0.6
v 0.2 0.2 -0.7
v 0.2 0.3 -0.7
v 0.3 0.2 -0.7
v 0.3 0.3 -0.7
v -0.5 0 0.1
v 0.6 0 0.1
v -0.5 0 -0.1
v 0.6 0 -0.1
v 0.1 0.1 0.4
v 0.3 0.1 0.4
v -0.1 0.1 0.3
v 0.1 0.1 0.3
v 0.5 0.1 0.3
v 0.6 0.1 0.3
v -0.5 0.1 0.2
v -0.1 0.1 0.2
v 0.3 0.1 0.2
v 0.5 0.1 0.2
v 0.6 0.1 0.2
v 0.7 0.1 0.2
v -0.7 0.1 0.1
v -0.5 0.1 0.1
v 0.6 0.1 0.1
v 0.7 0.1 0.1
v -0.7 0.1 -0.1
v -0.5 0.1 -0.1
v 0.6 0.1 -0.1
v 0.7 0.1 -0.1
v -0.5 0.1 -0.2
v -0.1 0.1 -0.2
v 0.3 0.1 -0.2
v 0.5 0.1 -0.2
v 0.6 0.1 -0.2
v 0.7 0.1 -0.2
v -0.1 0.1 -0.3
v 0.1 0.1 -0.3
v 0.5 0.1 -0.3
v 0.6 0.1 -0.3
v 0.1 0.1 -0.4
v 0.3 0.1 -0.4
v 0.2 0.2 0.7
v 0.3 0.2 0.7
v 0.1 0.2 0.6
v 0.2 0.2 0.6
v 0.3 0.2 0.6
v -0.1 0.2 0.5
v 0.1 0.2 0.5
v 0.3 0.2 0.5
v 0.4 0.2 0.5
v -0.3 0.2 0.4
v -0.1 0.2 0.4
v 0.1 0.2 0.4
v 0.3 0.2 0.4
v 0.4 0.2 0.4
v 0.5 0.2 0.4
v -0.4 0.2 0.3
v -0.3 0.2 0.3
v -0.1 0.2 0.3
v 0.1 0.2 0.3
v 0.3 0.2 0.3
v 0.5 0.2 0.3
v 0.7 0.2 0.3
v 0.8 0.2 0.3
v -0.4 0.2 0.2
v -0.1 0.2 0.2
v 0.3 0.2 0.2
v 0.5 0.2 0.2
v 0.7 0.2 0.2
v 0.6 0.2 0.1
v 0.7 0.2 0.1
v 0.8 0.2 0.1
v 0.6 0.2 -0.1
v 0.7 0.2 -0.1
v 0.8 0.2 -0.1
v -0.4 0.2 -0.2
v -0.1 0.2 -0.2
v 0.3 0.2 -0.2
v 0.5 0.2 -0.2
v 0.7 0.2 -0.2
v -0.4 0.2 -0.3
v -0.3 0.2 -0.3
v -0.1 0.2 -0.3
v 0.1 0.2 -0.3
v 0.3 0.2 -0.3
v 0.5 0.2 -0.3
v 0.7 0.2 -0.3
v 0.8 0.2 -0.3
v -0.3 0.2 -0.4
v -0.1 0.2 -0.4
v 0.1 0.2 -0.4
v 0.3 0.2 -0.4
v 0.4 0.2 -0.4
v 0.5 0.2 -0.4
v -0.1 0.2 -0.5
v 0.1 0.2 -0.5
v 0.3 0.2 -0.5
v 0.4 0.2 -0.5
v 0.1 0.2 -0.6
v 0.2 0.2 -0.6
v 0.3 0.2 -0.6
v 0.2 0.2 -0.7
v 0.3 0.2 -0.7
v 0.5 0.3 0.3
v 0.6 0.3 0.3
v 0.5 0.3 0.2
v 0.6 0.3 0.2
v 0.5 0.3 -0.2
v 0.6 0.3 -0.2
v 0.5 0.3 -0.3
v 0.6 0.3 -0.3
v 0.5 0.2 0.3
v 0.6 0.2 0.3
v 0.5 0.2 0.2
v 0.6 0.2 0.2
v -0.7 0.2 0.1
v -0.6 0.2 0.1
v -0.7 0.2 -0.1
v -0.6 0.2 -0.1
v 0.5 0.2 -0.2
v 0.6 0.2 -0.2
v 0.5 0.2 -0.3
v 0.6 0.2 -0.3
v 0.2 0.3 0.7
v 0.3 0.3 0.7
v 0.1 0.3 0.6
v 0.2 0.3 0.6
v 0.3 0.3 0.6
v -0.1 0.3 0.5
v 0.1 0.3 0.5
v 0.3 0.3 0.5
v 0.4 0.3 0.5
v -0.3 0.3 0.4
v -0.1 0.3 0.4
v 0.1 0.3 0.4
v 0.3 0.3 0.4
v 0.4 0.3 0.4
v 0.5 0.3 0.4
v -0.4 0.3 0.3
v -0.3 0.3 0.3
v -0.1 0.3 0.3
v 0.1 0.3 0.3
v 0.3 0.3 0.3
v 0.5 0.3 0.3
v 0.7 0.3 0.3
v 0.8 0.3 0.3
v -0.5 0.3 0.2
v -0.4 0.3 0.2
v -0.2 0.3 0.2
v -0.1 0.3 0.2
v 0.3 0.3 0.2
v 0.5 0.3 0.2
v 0.7 0.3 0.2
v -0.6 0.3 0.1
v -0.5 0.3 0.1
v -0.4 0.3 0.1
v -0.2 0.3 0.1
v 0.7 0.3 0.1
v 0.8 0.3 0.1
v -0.6 0.3 -0.1
v -0.5 0.3 -0.1
v -0.4 0.3 -0.1
v -0.2 0.3 -0.1
v 0.7 0.3 -0.1
v 0.8 0.3 -0.1
v -0.5 0.3 -0.2
v -0.4 0.3 -0.2
v -0.2 0.3 -0.2
v -0.1 0.3 -0.2
v 0.3 0.3 -0.2
v 0.5 0.3 -0.2
v 0.7 0.3 -0.2
v -0.4 0.3 -0.3
v -0.3 0.3 -0.3
v -0.1 0.3 -0.3
v 0.1 0.3 -0.3
v 0.3 0.3 -0.3
v 0.5 0.3 -0.3
v 0.7 0.3 -0.3
v 0.8 0.3 -0.3
v -0.3 0.3 -0.4
v -0.1 0.3 -0.4
v 0.1 0.3 -0.4
v 0.3 0.3 -0.4
v 0.4 0.3 -0.4
v 0.5 0.3 -0.4
v -0.1 0.3 -0.5
v 0.1 0.3 -0.5
v 0.3 0.3 -0.5
v 0.4 0.3 -0.5
v 0.1 0.3 -0.6
v 0.2 0.3 -0.6
v 0.3 0.3 -0.6
v 0.2 0.3 -0.7
v 0.3 0.3 -0.7
v 0.1 0.4 0.4
v 0.3 0.4 0.4
v -0.1 0.4 0.3
v 0.1 0.4 0.3
v 0.5 0.4 0.3
v 0.6 0.4 0.3
v -0.2 0.4 0.2
v -0.1 0.4 0.2
v 0.3 0.4 0.2
v 0.5 0.4 0.2
v 0.6 0.4 0.2
v 0.7 0.4 0.2
v -0.4 0.4 0.1
v -0.2 0.4 0.1
v -0.1 0.4 0.1
v 0.6 0.4 0.1
v 0.7 0.4 0.1
v -0.4 0.4 -0.1
v -0.2 0.4 -0.1
v -0.1 0.4 -0.1
v 0.6 0.4 -0.1
v 0.7 0.4 -0.1
v -0.2 0.4 -0.2
v -0.1 0.4 -0.2
v 0.3 0.4 -0.2
v 0.5 0.4 -0.2
v 0.6 0.4 -0.2
v 0.7 0.4 -0.2
v -0.1 0.4 -0.3
v 0.1 0.4 -0.3
v 0.5 0.4 -0.3
v 0.6 0.4 -0.3
v 0.1 0.4 -0.4
v 0.3 0.4 -0.4
v -0.1 0.5 0.1
v 0.6 0.5 0.1
v -0.1 0.5 -0.1
v 0.6 0.5 -0.1
v 0.6 0.6 0.1
v 0.7 0.6 0.1
v 0.6 0.6 -0.1
v 0.7 0.6 -0.1

# faces
f 3/4/1 2/4/1 1/4/1
f 4/4/1 2/4/1 3/4/1
f 7/3/1 6/3/1 5/3/1
f 8/3/1 6/3/1 7/3/1
f 12/4/1 10/4/1 9/4/1
f 13/4/1 10/4/1 12/4/1
f 15/4/1 12/4/1 11/4/1
f 16/4/1 14/4/1 13/4/1
f 17/4/1 15/4/1 11/4/1
f 18/4/1 15/4/1 17/4/1
f 19/4/1 14/4/1 16/4/1
f 20/4/1 14/4/1 19/4/1
f 25/7/1 22/7/1 21/7/1
f 26/7/1 22/7/1 25/7/1
f 29/7/1 24/7/1 23/7/1
f 30/7/1 24/7/1 29/7/1
f 31/4/1 28/4/1 27/4/1
f 32/4/1 28/4/1 31/4/1
f 37/7/1 34/7/1 33/7/1
f 38/7/1 34/7/1 37/7/1
f 39/7/1 36/7/1 35/7/1
f 40/7/1 36/7/1 39/7/1
f 45/4/1 42/4/1 41/4/1
f 46/4/1 42/4/1 45/4/1
f 47/4/1 44/4/1 43/4/1
f 48/4/1 44/4/1 47/4/1
f 55/4/1 50/4/1 49/4/1
f 56/4/1 50/4/1 55/4/1
f 57/4/1 52/4/1 51/4/1
f 58/4/1 52/4/1 57/4/1
f 61/7/1 54/7/1 53/7/1
f 62/7/1 54/7/1 61/7/1
f 67/7/1 60/7/1 59/7/1
f 68/7/1 60/7/1 67/7/1
f 69/4/1 64/4/1 63/4/1
f 70/4/1 64/4/1 69/4/1
f 73/4/1 66/4/1 65/4/1
f 74/4/1 66/4/1 73/4/1
f 75/4/1 72/4/1 71/4/1
f 76/4/1 72/4/1 75/4/1
f 83/4/1 78/4/1 77/4/1
f 84/4/1 78/4/1 83/4/1
f 85/4/1 80/4/1 79/4/1
f 86/4/1 80/4/1 85/4/1
f 89/7/1 82/7/1 81/7/1
f 90/7/1 82/7/1 89/7/1
f 95/7/1 88/7/1 87/7/1
f 96/7/1 88/7/1 95/7/1
f 97/4/1 92/4/1 91/4/1
f 98/4/1 92/4/1 97/4/1
f 99/4/1 94/4/1 93/4/1
f 100/4/1 94/4/1 99/4/1
f 105/5/1 102/5/1 101/5/1
f 106/5/1 102/5/1 105/5/1
f 107/6/1 104/6/1 103/6/1
f 108/6/1 104/6/1 107/6/1
f 113/4/1 110/4/1 109/4/1
f 114/4/1 110/4/1 113/4/1
f 115/4/1 112/4/1 111/4/1
f 116/4/1 112/4/1 115/4/1
f 121/4/1 118/4/1 117/4/1
f 122/4/1 118/4/1 121/4/1
f 123/4/1 120/4/1 119/4/1
f 124/4/1 120/4/1 123/4/1
f 127/4/1 126/4/1 125/4/1
f 128/4/1 126/4/1 127/4/1
f 133/4/1 130/4/1 129/4/1
f 134/4/1 130/4/1 133/4/1
f 135/4/1 132/4/1 131/4/1
f 136/4/1 132/4/1 135/4/1
f 137/4/2 138/4/2 144/4/2
f 144/4/2 138/4/2 145/4/2
f 145/4/2 138/4/2 146/4/2
f 139/4/2 140/4/2 147/4/2
f 147/4/2 140/4/2 148/4/2
f 148/4/2 140/4/2 149/4/2
f 141/5/2 142/5/2 153/5/2
f 142/7/2 143/7/2 154/7/2
f 153/5/2 142/5/2 154/5/2
f 154/7/2 143/7/2 155/7/2
f 150/7/2 151/7/2 162/7/2
f 151/6/2 152/6/2 163/6/2
f 162/7/2 151/7/2 163/7/2
f 163/6/2 152/6/2 164/6/2
f 156/4/2 157/4/2 165/4/2
f 157/4/2 158/4/2 165/4/2
f 165/4/2 158/4/2 166/4/2
f 160/4/2 161/4/2 167/4/2
f 159/4/2 160/4/2 167/4/2
f 167/4/2 161/4/2 168/4/2
f 169/7/2 170/7/2 173/7/2
f 173/7/2 170/7/2 174/7/2
f 171/7/2 172/7/2 175/7/2
f 175/7/2 172/7/2 176/7/2
f 177/7/2 178/7/2 183/7/2
f 178/4/2 179/4/2 184/4/2
f 183/7/2 178/7/2 184/7/2
f 184/4/2 179/4/2 185/4/2
f 180/4/2 181/4/2 186/4/2
f 181/7/2 182/7/2 187/7/2
f 186/4/2 181/4/2 187/4/2
f 187/7/2 182/7/2 188/7/2
f 189/4/2 190/4/2 193/4/2
f 193/4/2 190/4/2 194/4/2
f 191/4/2 192/4/2 197/4/2
f 197/4/2 192/4/2 198/4/2
f 193/4/2 194/4/2 199/4/2
f 199/4/2 194/4/2 200/4/2
f 195/4/2 196/4/2 201/4/2
f 201/4/2 196/4/2 202/4/2
f 203/4/2 204/4/2 207/4/2
f 207/4/2 204/4/2 208/4/2
f 205/4/2 206/4/2 209/4/2
f 209/4/2 206/4/2 210/4/2
f 211/2/2 212/2/2 215/2/2
f 215/2/2 212/2/2 216/2/2
f 213/1/2 214/1/2 217/1/2
f 217/1/2 214/1/2 218/1/2
f 216/4/2 217/4/2 220/4/2
f 220/4/2 217/4/2 221/4/2
f 219/2/2 220/2/2 223/2/2
f 220/4/2 221/4/2 224/4/2
f 223/2/2 220/2/2 224/2/2
f 221/2/2 222/2/2 225/2/2
f 224/4/2 221/4/2 225/4/2
f 225/2/2 222/2/2 226/2/2
f 224/4/2 225/4/2 227/4/2
f 227/4/2 225/4/2 228/4/2
f 229/4/2 230/4/2 233/4/2
f 233/4/2 230/4/2 234/4/2
f 231/4/2 232/4/2 235/4/2
f 235/4/2 232/4/2 236/4/2
f 239/5/3 238/5/3 237/5/3
f 240/5/3 238/5/3 239/5/3
f 243/7/3 242/7/3 241/7/3
f 244/7/3 242/7/3 243/7/3
f 247/7/3 246/7/3 245/7/3
f 248/7/3 246/7/3 247/7/3
f 251/7/3 250/7/3 249/7/3
f 252/7/3 250/7/3 251/7/3
f 255/7/3 254/7/3 253/7/3
f 256/7/3 254/7/3 255/7/3
f 261/4/3 258/4/3 257/4/3
f 262/4/3 258/4/3 261/4/3
f 263/4/3 260/4/3 259/4/3
f 264/4/3 260/4/3 263/4/3
f 267/7/3 266/7/3 265/7/3
f 268/7/3 266/7/3 267/7/3
f 271/7/3 270/7/3 269/7/3
f 272/7/3 270/7/3 271/7/3
f 277/4/3 274/4/3 273/4/3
f 278/4/3 274/4/3 277/4/3
f 279/4/3 276/4/3 275/4/3
f 280/4/3 276/4/3 279/4/3
f 285/4/3 282/4/3 281/4/3
f 286/4/3 282/4/3 285/4/3
f 287/4/3 284/4/3 283/4/3
f 288/4/3 284/4/3 287/4/3
f 291/4/3 290/4/3 289/4/3
f 292/4/3 290/4/3 291/4/3
f 295/4/3 294/4/3 293/4/3
f 296/4/3 294/4/3 295/4/3
f 299/4/3 295/4/3 293/4/3
f 300/4/3 295/4/3 299/4/3
f 301/4/3 298/4/3 297/4/3
f 302/4/3 298/4/3 301/4/3
f 307/4/3 304/4/3 303/4/3
f 308/4/3 304/4/3 307/4/3
f 309/4/3 306/4/3 305/4/3
f 310/4/3 306/4/3 309/4/3
f 312/4/3 309/4/3 308/4/3
f 313/4/3 309/4/3 312/4/3
f 315/2/3 312/2/3 311/2/3
f 316/4/3 313/4/3 312/4/3
f 316/2/3 312/2/3 315/2/3
f 317/2/3 314/2/3 313/2/3
f 317/4/3 313/4/3 316/4/3
f 318/2/3 314/2/3 317/2/3
f 321/4/3 320/4/3 319/4/3
f 324/4/3 321/4/3 319/4/3
f 325/3/3 322/3/3 321/3/3
f 325/4/3 321/4/3 324/4/3
f 326/3/3 322/3/3 325/3/3
f 329/4/3 328/4/3 327/4/3
f 330/4/3 328/4/3 329/4/3
f 333/4/3 324/4/3 323/4/3
f 334/4/3 324/4/3 333/4/3
f 335/4/3 332/4/3 331/4/3
f 336/4/3 332/4/3 335/4/3
f 338/4/3 337/4/3 336/4/3
f 338/4/3 336/4/3 335/4/3
f 339/4/3 337/4/3 338/4/3
f 342/1/3 341/1/3 340/1/3
f 343/1/3 341/1/3 342/1/3
f 345/4/3 344/4/3 343/4/3
f 346/4/3 344/4/3 345/4/3
f 347/2/4 348/2/4 349/2/4
f 349/2/4 348/2/4 350/2/4
f 350/4/4 351/4/4 352/4/4
f 352/4/4 351/4/4 353/4/4
f 354/4/4 355/4/4 356/4/4
f 354/4/4 356/4/4 359/4/4
f 356/3/4 357/3/4 360/3/4
f 359/4/4 356/4/4 360/4/4
f 360/3/4 357/3/4 361/3/4
f 362/4/4 363/4/4 364/4/4
f 364/4/4 363/4/4 365/4/4
f 358/4/4 359/4/4 368/4/4
f 368/4/4 359/4/4 369/4/4
f 366/4/4 367/4/4 370/4/4
f 370/4/4 367/4/4 371/4/4
f 371/4/4 372/4/4 373/4/4
f 370/4/4 371/4/4 373/4/4
f 373/4/4 372/4/4 374/4/4
f 375/4/4 376/4/4 377/4/4
f 377/4/4 376/4/4 378/4/4
f 375/4/4 377/4/4 381/4/4
f 381/4/4 377/4/4 382/4/4
f 379/4/4 380/4/4 383/4/4
f 383/4/4 380/4/4 384/4/4
f 385/4/4 386/4/4 389/4/4
f 389/4/4 386/4/4 390/4/4
f 387/4/4 388/4/4 391/4/4
f 391/4/4 388/4/4 392/4/4
f 390/4/4 391/4/4 394/4/4
f 394/4/4 391/4/4 395/4/4
f 393/1/4 394/1/4 397/1/4
f 394/4/4 395/4/4 398/4/4
f 397/1/4 394/1/4 398/1/4
f 395/2/4 396/2/4 399/2/4
f 398/4/4 395/4/4 399/4/4
f 399/2/4 396/2/4 400/2/4
f 401/7/4 402/7/4 403/7/4
f 403/7/4 402/7/4 404/7/4
f 405/4/4 406/4/4 409/4/4
f 409/4/4 406/4/4 410/4/4
f 407/4/4 408/4/4 411/4/4
f 411/4/4 408/4/4 412/4/4
f 413/4/4 414/4/4 417/4/4
f 417/4/4 414/4/4 418/4/4
f 415/4/4 416/4/4 419/4/4
f 419/4/4 416/4/4 420/4/4
f 421/4/4 422/4/4 423/4/4
f 423/4/4 422/4/4 424/4/4
f 425/7/4 426/7/4 427/7/4
f 427/7/4 426/7/4 428/7/4
f 429/4/4 430/4/4 433/4/4
f 433/4/4 430/4/4 434/4/4
f 431/4/4 432/4/4 435/4/4
f 435/4/4 432/4/4 436/4/4
f 437/7/4 438/7/4 439/7/4
f 439/7/4 438/7/4 440/7/4
f 441/7/4 442/7/4 443/7/4
f 443/7/4 442/7/4 444/7/4
f 445/7/4 446/7/4 447/7/4
f 447/7/4 446/7/4 448/7/4
f 449/7/4 450/7/4 451/7/4
f 451/7/4 450/7/4 452/7/4
f 453/6/4 454/6/4 455/6/4
f 455/6/4 454/6/4 456/6/4
f 459/4/5 458/4/5 457/4/5
f 460/4/5 458/4/5 459/4/5
f 464/4/5 462/4/5 461/4/5
f 468/4/5 464/4/5 463/4/5
f 469/4/5 462/4/5 464/4/5
f 469/4/5 464/4/5 468/4/5
f 470/4/5 466/4/5 465/4/5
f 471/4/5 466/4/5 470/4/5
f 474/4/5 468/4/5 467/4/5
f 474/4/5 469/4/5 468/4/5
f 474/4/5 471/4/5 470/4/5
f 474/4/5 470/4/5 469/4/5
f 475/2/5 472/2/5 471/2/5
f 475/4/5 471/4/5 474/4/5
f 476/2/5 472/2/5 475/2/5
f 477/4/5 474/4/5 473/4/5
f 478/4/5 474/4/5 477/4/5
f 481/4/5 479/4/5 478/4/5
f 482/4/5 479/4/5 481/4/5
f 483/4/5 479/4/5 482/4/5
f 484/4/5 479/4/5 483/4/5
f 485/1/5 480/1/5 479/1/5
f 485/4/5 479/4/5 484/4/5
f 486/1/5 480/1/5 485/1/5
f 487/4/5 483/4/5 482/4/5
f 488/4/5 483/4/5 487/4/5
f 489/4/5 485/4/5 484/4/5
f 490/4/5 485/4/5 489/4/5
f 491/4/5 483/4/5 488/4/5
f 492/4/5 483/4/5 491/4/5
f 496/5/5 494/5/5 493/5/5
f 497/5/5 494/5/5 496/5/5
f 499/7/5 496/7/5 495/7/5
f 499/7/5 497/7/5 496/7/5
f 500/7/5 497/7/5 499/7/5
f 503/7/5 500/7/5 499/7/5
f 503/7/5 501/7/5 500/7/5
f 503/7/5 499/7/5 498/7/5
f 504/7/5 501/7/5 503/7/5
f 505/7/5 501/7/5 504/7/5
f 506/7/5 501/7/5 505/7/5
f 509/7/5 503/7/5 502/7/5
f 509/7/5 504/7/5 503/7/5
f 510/7/5 504/7/5 509/7/5
f 511/7/5 504/7/5 510/7/5
f 512/7/5 506/7/5 505/7/5
f 512/7/5 507/7/5 506/7/5
f 513/7/5 507/7/5 512/7/5
f 516/7/5 510/7/5 509/7/5
f 516/7/5 509/7/5 508/7/5
f 517/7/5 510/7/5 516/7/5
f 518/4/5 513/4/5 512/4/5
f 519/4/5 513/4/5 518/4/5
f 520/4/5 515/4/5 514/4/5
f 522/4/5 515/4/5 520/4/5
f 523/4/5 515/4/5 522/4/5
f 524/4/5 522/4/5 521/4/5
f 525/4/5 522/4/5 524/4/5
f 531/4/5 526/4/5 525/4/5
f 532/7/5 528/7/5 527/7/5
f 533/7/5 528/7/5 532/7/5
f 534/7/5 528/7/5 533/7/5
f 536/4/5 530/4/5 529/4/5
f 537/4/5 530/4/5 536/4/5
f 538/4/5 526/4/5 531/4/5
f 539/4/5 526/4/5 538/4/5
f 540/7/5 535/7/5 534/7/5
f 540/7/5 534/7/5 533/7/5
f 541/7/5 535/7/5 540/7/5
f 542/7/5 535/7/5 541/7/5
f 543/7/5 537/7/5 536/7/5
f 544/7/5 537/7/5 543/7/5
f 545/7/5 537/7/5 544/7/5
f 546/7/5 542/7/5 541/7/5
f 546/7/5 544/7/5 543/7/5
f 546/7/5 543/7/5 542/7/5
f 547/7/5 544/7/5 546/7/5
f 548/7/5 544/7/5 547/7/5
f 549/7/5 544/7/5 548/7/5
f 550/7/5 548/7/5 547/7/5
f 551/7/5 548/7/5 550/7/5
f 552/7/5 548/7/5 551/7/5
f 553/6/5 552/6/5 551/6/5
f 554/6/5 552/6/5 553/6/5
f 557/4/5 556/4/5 555/4/5
f 558/4/5 556/4/5 557/4/5
f 561/4/5 560/4/5 559/4/5
f 562/4/5 560/4/5 561/4/5
f 563/4/6 564/4/6 565/4/6
f 565/4/6 564/4/6 566/4/6
f 567/4/6 568/4/6 569/4/6
f 569/4/6 568/4/6 570/4/6
f 571/4/6 572/4/6 573/4/6
f 573/4/6 572/4/6 574/4/6
f 575/5/6 576/5/6 578/5/6
f 578/5/6 576/5/6 579/5/6
f 577/7/6 578/7/6 581/7/6
f 578/7/6 579/7/6 581/7/6
f 581/7/6 579/7/6 582/7/6
f 581/7/6 582/7/6 585/7/6
f 582/7/6 583/7/6 585/7/6
f 580/7/6 581/7/6 585/7/6
f 585/7/6 583/7/6 586/7/6
f 586/7/6 583/7/6 587/7/6
f 587/7/6 583/7/6 588/7/6
f 584/7/6 585/7/6 591/7/6
f 585/7/6 586/7/6 591/7/6
f 591/7/6 586/7/6 592/7/6
f 592/7/6 586/7/6 593/7/6
f 587/7/6 588/7/6 594/7/6
f 588/7/6 589/7/6 594/7/6
f 594/7/6 589/7/6 595/7/6
f 591/7/6 592/7/6 599/7/6
f 590/7/6 591/7/6 599/7/6
f 599/7/6 592/7/6 600/7/6
f 600/7/6 592/7/6 601/7/6
f 594/4/6 595/4/6 602/4/6
f 602/4/6 595/4/6 603/4/6
f 596/4/6 597/4/6 604/4/6
f 598/4/6 599/4/6 606/4/6
f 599/4/6 600/4/6 606/4/6
f 606/4/6 600/4/6 607/4/6
f 607/4/6 600/4/6 608/4/6
f 604/4/6 597/4/6 609/4/6
f 609/4/6 597/4/6 610/4/6
f 605/3/6 606/3/6 611/3/6
f 606/4/6 607/4/6 612/4/6
f 611/3/6 606/3/6 612/3/6
f 612/4/6 607/4/6 613/4/6
f 612/4/6 613/4/6 617/4/6
f 613/4/6 614/4/6 617/4/6
f 617/4/6 614/4/6 618/4/6
f 618/4/6 614/4/6 619/4/6
f 615/4/6 616/4/6 623/4/6
f 618/7/6 619/7/6 624/7/6
f 619/7/6 620/7/6 624/7/6
f 624/7/6 620/7/6 625/7/6
f 625/7/6 620/7/6 626/7/6
f 621/4/6 622/4/6 628/4/6
f 628/4/6 622/4/6 629/4/6
f 623/4/6 616/4/6 630/4/6
f 630/4/6 616/4/6 631/4/6
f 626/7/6 627/7/6 632/7/6
f 625/7/6 626/7/6 632/7/6
f 632/7/6 627/7/6 633/7/6
f 633/7/6 627/7/6 634/7/6
f 628/7/6 629/7/6 635/7/6
f 635/7/6 629/7/6 636/7/6
f 636/7/6 629/7/6 637/7/6
f 633/7/6 634/7/6 638/7/6
f 635/7/6 636/7/6 638/7/6
f 634/7/6 635/7/6 638/7/6
f 638/7/6 636/7/6 639/7/6
f 639/7/6 636/7/6 640/7/6
f 640/7/6 636/7/6 641/7/6
f 639/7/6 640/7/6 642/7/6
f 642/7/6 640/7/6 643/7/6
f 643/7/6 640/7/6 644/7/6
f 643/6/6 644/6/6 645/6/6
f 645/6/6 644/6/6 646/6/6
f 647/4/6 648/4/6 650/4/6
f 649/4/6 650/4/6 654/4/6
f 650/4/6 648/4/6 655/4/6
f 654/4/6 650/4/6 655/4/6
f 651/4/6 652/4/6 656/4/6
f 656/4/6 652/4/6 657/4/6
f 653/4/6 654/4/6 660/4/6
f 654/4/6 655/4/6 660/4/6
f 656/4/6 657/4/6 660/4/6
f 655/4/6 656/4/6 660/4/6
f 660/4/6 657/4/6 661/4/6
f 657/2/6 658/2/6 662/2/6
f 661/4/6 657/4/6 662/4/6
f 662/2/6 658/2/6 663/2/6
f 660/4/6 661/4/6 664/4/6
f 659/4/6 660/4/6 664/4/6
f 664/4/6 661/4/6 665/4/6
f 665/4/6 661/4/6 666/4/6
f 665/4/6 666/4/6 669/4/6
f 666/4/6 667/4/6 669/4/6
f 669/4/6 667/4/6 670/4/6
f 670/4/6 667/4/6 671/4/6
f 671/4/6 667/4/6 672/4/6
f 667/2/6 668/2/6 673/2/6
f 672/4/6 667/4/6 673/4/6
f 673/2/6 668/2/6 674/2/6
f 670/4/6 671/4/6 675/4/6
f 675/4/6 671/4/6 676/4/6
f 672/4/6 673/4/6 677/4/6
f 677/4/6 673/4/6 678/4/6
f 676/4/6 671/4/6 679/4/6
f 679/4/6 671/4/6 680/4/6
f 681/4/6 682/4/6 683/4/6
f 683/4/6 682/4/6 684/4/6
f 685/4/6 686/4/6 687/4/6
f 687/4/6 686/4/6 688/4/6
