# MagicaVoxel @ Ephtracy

# group
o 

# material
mtllib wall.mtl
usemtl palette

# normals
vn -1 0 0
vn 1 0 0
vn 0 0 1
vn 0 0 -1
vn 0 -1 0
vn 0 1 0

# texcoords
vt 0.673828 0.5
vt 0.982422 0.5

# verts
v -1.6 0.3 0.1
v -1.6 0.3 -0.1
v -1.6 0.5 0.1
v -1.6 0.5 -0.1
v -1.6 0.7 0.1
v -1.6 0.7 -0.1
v -1.6 0.9 0.1
v -1.6 0.9 -0.1
v -1.5 0 0.4
v -1.5 0 -0.4
v -1.5 0.3 0.1
v -1.5 0.3 -0.1
v -1.5 0.5 0.1
v -1.5 0.5 -0.1
v -1.5 0.7 0.1
v -1.5 0.7 -0.1
v -1.5 0.9 0.1
v -1.5 0.9 -0.1
v -1.5 1.1 0.4
v -1.5 1.1 -0.4
v -1.5 1.3 0.4
v -1.5 1.3 0.3
v -1.5 1.3 0
v -1.5 1.3 -0.1
v -1.5 1.4 0.3
v -1.5 1.4 0
v -1.5 1.4 -0.1
v -1.5 1.4 -0.4
v -1.1 0.3 -0.3
v -1.1 0.3 -0.4
v -1.1 0.4 0.4
v -1.1 0.4 0.3
v -1.1 0.4 0.2
v -1.1 0.4 0.1
v -1.1 0.4 -0.3
v -1.1 0.4 -0.4
v -1.1 0.5 0.4
v -1.1 0.5 0.3
v -1.1 0.5 0.2
v -1.1 0.5 0.1
v -1.1 0.6 0.2
v -1.1 0.6 0.1
v -1.1 0.7 0.2
v -1.1 0.7 0.1
v -1.1 1.1 0.4
v -1.1 1.1 0.1
v -1.1 1.3 0.4
v -1.1 1.3 0.1
v -1 0.4 0.3
v -1 0.4 0.2
v -1 0.4 -0.3
v -1 0.4 -0.4
v -1 0.5 0.3
v -1 0.5 0.2
v -1 0.5 0.1
v -1 0.5 -0.3
v -1 0.5 -0.4
v -1 0.6 0.3
v -1 0.6 0.2
v -1 0.6 0.1
v -1 0.7 0.3
v -1 0.7 0.2
v -1 0.8 0.3
v -1 0.8 0.2
v -1 1.1 0.1
v -1 1.1 0
v -1 1.3 0.4
v -1 1.3 0.1
v -1 1.3 0
v -1 1.4 0.4
v -1 1.4 0.1
v -0.9 0.5 0.4
v -0.9 0.5 0.3
v -0.9 0.6 0.3
v -0.9 0.6 0.2
v -0.9 0.7 0.3
v -0.9 0.7 0.2
v -0.9 0.8 0.4
v -0.9 0.8 0.3
v -0.9 1.3 -0.2
v -0.9 1.3 -0.4
v -0.9 1.5 -0.2
v -0.9 1.5 -0.4
v -0.8 0.4 -0.3
v -0.8 0.4 -0.4
v -0.8 0.5 -0.2
v -0.8 0.5 -0.3
v -0.8 0.6 -0.3
v -0.8 0.6 -0.4
v -0.8 0.7 -0.2
v -0.8 0.7 -0.3
v -0.8 1.1 0
v -0.8 1.1 -0.4
v -0.8 1.2 -0.2
v -0.8 1.2 -0.4
v -0.8 1.3 0.1
v -0.8 1.3 0
v -0.8 1.4 0.1
v -0.8 1.4 0
v -0.8 1.4 -0.1
v -0.8 1.5 0.1
v -0.8 1.5 0
v -0.8 1.5 -0.1
v -0.8 1.5 -0.2
v -0.8 1.5 -0.4
v -0.8 1.6 -0.2
v -0.8 1.6 -0.4
v -0.7 1.4 0.2
v -0.7 1.4 0.1
v -0.7 1.4 0
v -0.7 1.4 -0.1
v -0.7 1.5 0.2
v -0.7 1.5 0.1
v -0.7 1.5 0
v -0.7 1.5 -0.1
v -0.6 0.2 0.3
v -0.6 0.2 0.2
v -0.6 0.2 -0.3
v -0.6 0.2 -0.4
v -0.6 0.3 0.3
v -0.6 0.3 0.2
v -0.6 0.3 -0.3
v -0.6 0.3 -0.4
v -0.6 0.4 0.3
v -0.6 0.4 0.2
v -0.6 0.5 0.3
v -0.6 0.5 0.2
v -0.6 1.2 0.3
v -0.6 1.2 0.2
v -0.6 1.3 0.3
v -0.6 1.3 0.2
v -0.5 0.2 0.4
v -0.5 0.2 0.3
v -0.5 0.3 0.3
v -0.5 0.3 0.2
v -0.5 0.4 0.3
v -0.5 0.4 0.2
v -0.5 0.5 0.4
v -0.5 0.5 0.3
v -0.5 0.5 -0.2
v -0.5 0.5 -0.3
v -0.5 0.6 -0.2
v -0.5 0.6 -0.3
v -0.5 0.7 0.3
v -0.5 0.7 0.2
v -0.5 0.7 -0.3
v -0.5 0.7 -0.4
v -0.5 0.8 0.3
v -0.5 0.8 0.2
v -0.5 0.8 -0.3
v -0.5 0.8 -0.4
v -0.5 0.9 0.3
v -0.5 0.9 0.2
v -0.5 1 0.3
v -0.5 1 0.2
v -0.5 1.2 0.4
v -0.5 1.2 0.3
v -0.5 1.3 0.4
v -0.5 1.3 0.3
v -0.4 0.4 -0.3
v -0.4 0.4 -0.4
v -0.4 0.5 -0.3
v -0.4 0.5 -0.4
v -0.4 0.6 -0.3
v -0.4 0.6 -0.4
v -0.4 0.7 0.4
v -0.4 0.7 0.3
v -0.4 0.7 -0.3
v -0.4 0.7 -0.4
v -0.4 0.8 0.3
v -0.4 0.8 0.2
v -0.4 0.9 0.3
v -0.4 0.9 0.2
v -0.4 1 0.4
v -0.4 1 0.3
v -0.4 1.3 0.4
v -0.4 1.3 0.1
v -0.4 1.4 0.4
v -0.4 1.4 0.1
v -0.3 1.4 0.3
v -0.3 1.4 0.1
v -0.3 1.4 0
v -0.3 1.5 0.3
v -0.3 1.5 0.2
v -0.3 1.5 0.1
v -0.3 1.5 0
v -0.3 1.6 0.2
v -0.3 1.6 0.1
v -0.2 0.3 0.3
v -0.2 0.3 0.2
v -0.2 0.4 0.3
v -0.2 0.4 0.2
v -0.2 0.5 0.3
v -0.2 0.5 0.2
v -0.2 0.6 0.3
v -0.2 0.6 0.2
v -0.2 1.3 0.1
v -0.2 1.3 0
v -0.2 1.4 0.1
v -0.2 1.4 0
v -0.2 1.5 0.3
v -0.2 1.5 0.2
v -0.2 1.5 0.1
v -0.2 1.5 0
v -0.2 1.6 0.3
v -0.2 1.6 0.2
v -0.2 1.6 0.1
v -0.2 1.6 0
v -0.1 0.3 0.4
v -0.1 0.3 0.3
v -0.1 0.4 0.3
v -0.1 0.4 0.2
v -0.1 0.5 0.3
v -0.1 0.5 0.2
v -0.1 0.6 0.4
v -0.1 0.6 0.3
v -0.1 1.1 -0.1
v -0.1 1.1 -0.2
v -0.1 1.2 -0.1
v -0.1 1.2 -0.2
v -0.1 1.3 0
v -0.1 1.3 -0.1
v -0.1 1.4 0
v -0.1 1.4 -0.1
v 0 0.2 -0.3
v 0 0.2 -0.4
v 0 0.3 -0.3
v 0 0.3 -0.4
v 0 1.1 0.1
v 0 1.1 0
v 0 1.2 0.1
v 0 1.2 0
v 0 1.2 -0.1
v 0 1.2 -0.2
v 0 1.2 -0.3
v 0 1.2 -0.4
v 0 1.3 0.4
v 0 1.3 0.2
v 0 1.3 0
v 0 1.3 -0.1
v 0 1.3 -0.2
v 0 1.3 -0.3
v 0 1.3 -0.4
v 0 1.4 0.4
v 0 1.4 0.3
v 0 1.4 0.2
v 0 1.4 0
v 0 1.4 -0.1
v 0 1.5 0
v 0 1.5 -0.1
v 0.1 0.7 0.3
v 0.1 0.7 0.2
v 0.1 0.8 0.3
v 0.1 0.8 0.2
v 0.1 0.9 0.3
v 0.1 0.9 0.2
v 0.1 1 0.3
v 0.1 1 0.2
v 0.2 0.7 0.4
v 0.2 0.7 0.3
v 0.2 0.8 0.3
v 0.2 0.8 0.2
v 0.2 0.9 0.3
v 0.2 0.9 0.2
v 0.2 1 0.4
v 0.2 1 0.3
v 0.3 0.3 -0.3
v 0.3 0.3 -0.4
v 0.3 0.4 -0.3
v 0.3 0.4 -0.4
v 0.3 1.1 -0.2
v 0.3 1.1 -0.4
v 0.3 1.2 -0.2
v 0.3 1.2 -0.3
v 0.3 1.3 -0.3
v 0.3 1.3 -0.4
v 0.4 0.6 -0.3
v 0.4 0.6 -0.4
v 0.4 0.8 -0.3
v 0.4 0.8 -0.4
v 0.4 1.1 0
v 0.4 1.1 -0.2
v 0.4 1.2 0
v 0.4 1.2 -0.1
v 0.4 1.2 -0.2
v 0.4 1.2 -0.3
v 0.4 1.3 -0.1
v 0.4 1.3 -0.3
v 0.5 0.3 0.3
v 0.5 0.3 0.2
v 0.5 0.4 0.3
v 0.5 0.4 0.2
v 0.5 0.5 0.3
v 0.5 0.5 0.2
v 0.5 0.6 0.3
v 0.5 0.6 0.2
v 0.5 0.8 -0.3
v 0.5 0.8 -0.4
v 0.5 0.9 -0.3
v 0.5 0.9 -0.4
v 0.5 1.2 0.4
v 0.5 1.2 0.3
v 0.5 1.2 0.2
v 0.5 1.2 0.1
v 0.5 1.2 0
v 0.5 1.2 -0.1
v 0.5 1.3 0.4
v 0.5 1.3 0.3
v 0.5 1.3 0.2
v 0.5 1.3 0.1
v 0.5 1.3 0
v 0.5 1.3 -0.1
v 0.5 1.3 -0.2
v 0.5 1.3 -0.4
v 0.5 1.4 -0.2
v 0.5 1.4 -0.4
v 0.6 0.3 0.4
v 0.6 0.3 0.3
v 0.6 0.3 -0.2
v 0.6 0.3 -0.3
v 0.6 0.4 0.3
v 0.6 0.4 0.2
v 0.6 0.4 -0.2
v 0.6 0.4 -0.3
v 0.6 0.5 0.3
v 0.6 0.5 0.2
v 0.6 0.5 -0.3
v 0.6 0.5 -0.4
v 0.6 0.6 0.4
v 0.6 0.6 0.3
v 0.6 0.6 -0.3
v 0.6 0.6 -0.4
v 0.6 1.3 -0.1
v 0.6 1.3 -0.2
v 0.6 1.4 -0.1
v 0.6 1.4 -0.2
v 0.6 1.4 -0.4
v 0.6 1.5 -0.2
v 0.6 1.5 -0.4
v 0.7 0.4 -0.2
v 0.7 0.4 -0.3
v 0.7 0.5 -0.2
v 0.7 0.5 -0.3
v 0.7 0.6 -0.3
v 0.7 0.6 -0.4
v 0.7 0.8 -0.3
v 0.7 0.8 -0.4
v 0.8 0.3 -0.2
v 0.8 0.3 -0.3
v 0.8 0.4 -0.2
v 0.8 0.4 -0.3
v 0.8 0.6 0.3
v 0.8 0.6 0.2
v 0.8 0.7 0.3
v 0.8 0.7 0.2
v 0.8 0.8 0.3
v 0.8 0.8 0.2
v 0.8 0.9 0.3
v 0.8 0.9 0.2
v 0.8 1.1 0
v 0.8 1.1 -0.1
v 0.8 1.2 0
v 0.8 1.2 -0.1
v 0.9 1.2 0.4
v 0.9 1.2 0.3
v 0.9 1.2 0.2
v 0.9 1.2 0.1
v 0.9 1.2 0
v 0.9 1.2 -0.1
v 0.9 1.3 0.4
v 0.9 1.3 0.3
v 0.9 1.3 0.2
v 0.9 1.3 0.1
v 0.9 1.3 0
v 0.9 1.3 -0.1
v 1 0.5 -0.3
v 1 0.5 -0.4
v 1 0.7 -0.3
v 1 0.7 -0.4
v 1.1 0.3 -0.3
v 1.1 0.3 -0.4
v 1.1 0.5 -0.3
v 1.1 0.5 -0.4
v 1.1 0.6 0.3
v 1.1 0.6 0.2
v 1.1 0.7 0.3
v 1.1 0.7 0.2
v 1.1 0.8 0.3
v 1.1 0.8 0.2
v 1.1 0.8 -0.3
v 1.1 0.8 -0.4
v 1.1 0.9 0.3
v 1.1 0.9 0.2
v 1.1 0.9 -0.3
v 1.1 0.9 -0.4
v 1.1 1.3 -0.2
v 1.1 1.3 -0.3
v 1.1 1.4 -0.2
v 1.1 1.4 -0.3
v 1.2 0.6 0.4
v 1.2 0.6 0.3
v 1.2 0.7 0.3
v 1.2 0.7 0.2
v 1.2 0.8 0.3
v 1.2 0.8 0.2
v 1.2 0.9 0.4
v 1.2 0.9 0.3
v 1.2 1.1 0.4
v 1.2 1.1 0.1
v 1.2 1.3 0.4
v 1.2 1.3 0.1
v 1.3 1.1 0.1
v 1.3 1.1 0
v 1.3 1.3 0.4
v 1.3 1.3 0.1
v 1.3 1.3 0
v 1.3 1.4 0.4
v 1.3 1.4 0.1
v 1.4 0.7 -0.3
v 1.4 0.7 -0.4
v 1.4 0.8 -0.3
v 1.4 0.8 -0.4
v -1.4 0.3 -0.3
v -1.4 0.3 -0.4
v -1.4 0.4 -0.3
v -1.4 0.4 -0.4
v -1.3 0.4 0.3
v -1.3 0.4 0.2
v -1.3 0.5 0.4
v -1.3 0.5 0.3
v -1.3 0.5 0.2
v -1.3 0.5 0.1
v -1.3 0.6 0.4
v -1.3 0.6 0.3
v -1.3 0.6 0.2
v -1.3 0.6 0.1
v -1.3 0.7 0.3
v -1.3 0.7 0.2
v -1.3 1.1 0.4
v -1.3 1.1 0.3
v -1.3 1.3 0.4
v -1.3 1.3 0.3
v -1.3 1.3 0
v -1.3 1.4 0.3
v -1.3 1.4 0
v -1.2 0.4 0.4
v -1.2 0.4 0.3
v -1.2 0.4 0.2
v -1.2 0.4 0.1
v -1.2 0.4 -0.3
v -1.2 0.4 -0.4
v -1.2 0.5 0.4
v -1.2 0.5 0.3
v -1.2 0.5 0.2
v -1.2 0.5 0.1
v -1.2 0.5 -0.3
v -1.2 0.5 -0.4
v -1.2 0.6 0.4
v -1.2 0.6 0.3
v -1.2 0.6 0.2
v -1.2 0.6 0.1
v -1.2 0.7 0.3
v -1.2 0.7 0.2
v -1.2 0.7 0.1
v -1.2 0.8 0.4
v -1.2 0.8 0.3
v -1.2 1.1 0.3
v -1.2 1.1 0
v -1.2 1.3 0.3
v -1.2 1.3 0
v -1.1 0.6 -0.3
v -1.1 0.6 -0.4
v -1.1 0.7 0.3
v -1.1 0.7 0.2
v -1.1 0.8 0.3
v -1.1 0.8 0.2
v -1.1 0.8 -0.3
v -1.1 0.8 -0.4
v -1 0.5 -0.3
v -1 0.5 -0.4
v -1 0.6 -0.2
v -1 0.6 -0.3
v -1 0.6 -0.4
v -1 0.7 -0.2
v -1 0.7 -0.3
v -1 1.1 0
v -1 1.1 -0.1
v -1 1.3 0
v -1 1.3 -0.1
v -1 1.3 -0.4
v -1 1.4 -0.1
v -1 1.4 -0.4
v -0.9 0.4 -0.3
v -0.9 0.4 -0.4
v -0.9 0.5 -0.2
v -0.9 0.5 -0.3
v -0.9 0.5 -0.4
v -0.9 0.6 -0.2
v -0.9 0.6 -0.3
v -0.9 1.1 -0.1
v -0.9 1.1 -0.4
v -0.9 1.2 -0.2
v -0.9 1.2 -0.4
v -0.9 1.3 -0.1
v -0.9 1.3 -0.2
v -0.8 0.2 0.4
v -0.8 0.2 0.3
v -0.8 0.3 0.3
v -0.8 0.3 0.2
v -0.8 0.4 0.3
v -0.8 0.4 0.2
v -0.8 0.5 0.4
v -0.8 0.5 0.3
v -0.8 1.2 0.4
v -0.8 1.2 0.3
v -0.8 1.3 0.3
v -0.8 1.3 0.2
v -0.8 1.4 0.4
v -0.8 1.4 0.2
v -0.7 0.2 0.3
v -0.7 0.2 0.2
v -0.7 0.2 -0.3
v -0.7 0.2 -0.4
v -0.7 0.3 0.3
v -0.7 0.3 0.2
v -0.7 0.3 -0.3
v -0.7 0.3 -0.4
v -0.7 0.4 0.3
v -0.7 0.4 0.2
v -0.7 0.5 0.3
v -0.7 0.5 0.2
v -0.7 0.5 -0.3
v -0.7 0.5 -0.4
v -0.7 0.6 -0.3
v -0.7 0.6 -0.4
v -0.7 0.7 0.4
v -0.7 0.7 0.3
v -0.7 0.8 0.3
v -0.7 0.8 0.2
v -0.7 0.9 0.3
v -0.7 0.9 0.2
v -0.7 1 0.4
v -0.7 1 0.3
v -0.7 1.2 0.3
v -0.7 1.2 0.2
v -0.7 1.3 0.3
v -0.7 1.3 0.2
v -0.6 0.4 -0.3
v -0.6 0.4 -0.4
v -0.6 0.5 -0.2
v -0.6 0.5 -0.3
v -0.6 0.5 -0.4
v -0.6 0.6 -0.2
v -0.6 0.6 -0.3
v -0.6 0.7 0.3
v -0.6 0.7 0.2
v -0.6 0.8 0.3
v -0.6 0.8 0.2
v -0.6 0.9 0.3
v -0.6 0.9 0.2
v -0.6 1 0.3
v -0.6 1 0.2
v -0.6 1.4 0.2
v -0.6 1.4 0.1
v -0.6 1.4 0
v -0.6 1.4 -0.1
v -0.6 1.5 0.2
v -0.6 1.5 0.1
v -0.6 1.5 0
v -0.6 1.5 -0.1
v -0.5 1.3 0.2
v -0.5 1.3 0
v -0.5 1.4 0.2
v -0.5 1.4 0.1
v -0.5 1.4 0
v -0.5 1.4 -0.1
v -0.5 1.4 -0.2
v -0.5 1.5 0.1
v -0.5 1.5 0
v -0.5 1.5 -0.1
v -0.5 1.5 -0.2
v -0.5 1.5 -0.4
v -0.5 1.6 -0.2
v -0.5 1.6 -0.4
v -0.4 0.3 0.4
v -0.4 0.3 0.3
v -0.4 0.4 0.3
v -0.4 0.4 0.2
v -0.4 0.5 0.3
v -0.4 0.5 0.2
v -0.4 0.6 0.4
v -0.4 0.6 0.3
v -0.4 1.3 0
v -0.4 1.3 -0.1
v -0.4 1.4 0
v -0.4 1.4 -0.1
v -0.3 0.3 0.3
v -0.3 0.3 0.2
v -0.3 0.4 0.3
v -0.3 0.4 0.2
v -0.3 0.5 0.3
v -0.3 0.5 0.2
v -0.3 0.6 0.3
v -0.3 0.6 0.2
v -0.3 1.1 0
v -0.3 1.1 -0.1
v -0.3 1.3 0
v -0.3 1.3 -0.1
v -0.2 0.4 -0.3
v -0.2 0.4 -0.4
v -0.2 0.5 -0.3
v -0.2 0.5 -0.4
v -0.2 0.6 -0.3
v -0.2 0.6 -0.4
v -0.2 0.7 -0.3
v -0.2 0.7 -0.4
v -0.2 1.1 -0.1
v -0.2 1.1 -0.2
v -0.2 1.4 -0.1
v -0.2 1.4 -0.2
v -0.2 1.4 -0.4
v -0.2 1.5 -0.2
v -0.2 1.5 -0.4
v -0.1 0.2 -0.3
v -0.1 0.2 -0.4
v -0.1 0.3 -0.3
v -0.1 0.3 -0.4
v -0.1 0.7 0.4
v -0.1 0.7 0.3
v -0.1 0.8 0.3
v -0.1 0.8 0.2
v -0.1 0.9 0.3
v -0.1 0.9 0.2
v -0.1 1 0.4
v -0.1 1 0.3
v -0.1 1.1 0.1
v -0.1 1.1 0
v -0.1 1.2 0.1
v -0.1 1.2 0
v -0.1 1.2 -0.3
v -0.1 1.2 -0.4
v -0.1 1.3 0.4
v -0.1 1.3 0.2
v -0.1 1.3 -0.2
v -0.1 1.3 -0.3
v -0.1 1.4 0.4
v -0.1 1.4 0.3
v -0.1 1.4 0.2
v -0.1 1.4 -0.2
v -0.1 1.4 -0.4
v -0.1 1.5 0.3
v -0.1 1.5 0.2
v -0.1 1.5 0.1
v -0.1 1.5 0
v -0.1 1.6 0.3
v -0.1 1.6 0.2
v -0.1 1.6 0.1
v -0.1 1.6 0
v 0 0.4 -0.2
v 0 0.4 -0.3
v 0 0.5 -0.2
v 0 0.5 -0.3
v 0 0.7 0.3
v 0 0.7 0.2
v 0 0.7 -0.3
v 0 0.7 -0.4
v 0 0.8 0.3
v 0 0.8 0.2
v 0 0.8 -0.3
v 0 0.8 -0.4
v 0 0.9 0.3
v 0 0.9 0.2
v 0 1 0.3
v 0 1 0.2
v 0 1.4 0.3
v 0 1.4 0.2
v 0 1.5 0.3
v 0 1.5 0.2
v 0 1.5 0.1
v 0 1.6 0.2
v 0 1.6 0.1
v 0.1 1.2 0
v 0.1 1.2 -0.1
v 0.1 1.2 -0.2
v 0.1 1.2 -0.3
v 0.1 1.2 -0.4
v 0.1 1.3 0
v 0.1 1.3 -0.1
v 0.1 1.3 -0.2
v 0.1 1.3 -0.3
v 0.1 1.3 -0.4
v 0.1 1.4 0.2
v 0.1 1.4 0.1
v 0.1 1.4 0
v 0.1 1.4 -0.1
v 0.1 1.5 0.2
v 0.1 1.5 0.1
v 0.1 1.5 0
v 0.1 1.5 -0.1
v 0.2 0.3 -0.3
v 0.2 0.3 -0.4
v 0.2 0.4 -0.3
v 0.2 0.4 -0.4
v 0.2 1.1 -0.1
v 0.2 1.1 -0.4
v 0.2 1.2 -0.1
v 0.2 1.2 -0.2
v 0.2 1.2 -0.3
v 0.2 1.2 -0.4
v 0.2 1.3 0.1
v 0.2 1.3 0
v 0.2 1.3 -0.1
v 0.2 1.3 -0.2
v 0.2 1.3 -0.3
v 0.2 1.4 0.1
v 0.2 1.4 0
v 0.2 1.4 -0.1
v 0.2 1.5 0.1
v 0.2 1.5 0
v 0.3 0.3 0.4
v 0.3 0.3 0.3
v 0.3 0.4 0.3
v 0.3 0.4 0.2
v 0.3 0.5 0.3
v 0.3 0.5 0.2
v 0.3 0.6 0.4
v 0.3 0.6 0.3
v 0.3 0.8 -0.3
v 0.3 0.8 -0.4
v 0.3 0.9 -0.3
v 0.3 0.9 -0.4
v 0.3 1.1 0.1
v 0.3 1.1 0
v 0.3 1.3 0.4
v 0.3 1.3 0.1
v 0.3 1.3 0
v 0.3 1.4 0.4
v 0.3 1.4 0.1
v 0.4 0.3 0.3
v 0.4 0.3 0.2
v 0.4 0.4 0.3
v 0.4 0.4 0.2
v 0.4 0.5 0.3
v 0.4 0.5 0.2
v 0.4 0.6 0.3
v 0.4 0.6 0.2
v 0.4 1.2 0.4
v 0.4 1.2 0.3
v 0.4 1.2 0.2
v 0.4 1.2 0.1
v 0.4 1.3 0.4
v 0.4 1.3 0.3
v 0.4 1.3 0.2
v 0.4 1.3 0.1
v 0.5 0.3 -0.2
v 0.5 0.3 -0.4
v 0.5 0.4 -0.2
v 0.5 0.4 -0.4
v 0.5 0.6 -0.3
v 0.5 0.6 -0.4
v 0.5 0.8 -0.3
v 0.5 0.8 -0.4
v 0.6 0.6 0.4
v 0.6 0.6 0.3
v 0.6 0.7 0.3
v 0.6 0.7 0.2
v 0.6 0.8 0.3
v 0.6 0.8 0.2
v 0.6 0.9 0.4
v 0.6 0.9 0.3
v 0.6 1.2 0
v 0.6 1.2 -0.1
v 0.6 1.3 0
v 0.6 1.3 -0.1
v 0.7 0.3 -0.2
v 0.7 0.3 -0.3
v 0.7 0.4 -0.2
v 0.7 0.4 -0.3
v 0.7 0.6 0.3
v 0.7 0.6 0.2
v 0.7 0.7 0.3
v 0.7 0.7 0.2
v 0.7 0.8 0.3
v 0.7 0.8 0.2
v 0.7 0.9 0.3
v 0.7 0.9 0.2
v 0.7 1.1 0
v 0.7 1.1 -0.1
v 0.7 1.2 0.4
v 0.7 1.2 0.3
v 0.7 1.2 0.2
v 0.7 1.2 0.1
v 0.7 1.2 0
v 0.7 1.2 -0.1
v 0.7 1.3 0.4
v 0.7 1.3 0.3
v 0.7 1.3 0.2
v 0.7 1.3 0.1
v 0.9 0.5 -0.3
v 0.9 0.5 -0.4
v 0.9 0.8 -0.3
v 0.9 0.8 -0.4
v 0.9 1.3 -0.1
v 0.9 1.3 -0.2
v 0.9 1.4 -0.1
v 0.9 1.4 -0.2
v 0.9 1.4 -0.4
v 0.9 1.5 -0.2
v 0.9 1.5 -0.4
v 1 0.6 0.3
v 1 0.6 0.2
v 1 0.7 0.3
v 1 0.7 0.2
v 1 0.8 0.3
v 1 0.8 0.2
v 1 0.8 -0.3
v 1 0.8 -0.4
v 1 0.9 0.3
v 1 0.9 0.2
v 1 0.9 -0.3
v 1 0.9 -0.4
v 1 1.2 0.4
v 1 1.2 0.3
v 1 1.2 0.2
v 1 1.2 0.1
v 1 1.3 0.4
v 1 1.3 0.3
v 1 1.3 0.2
v 1 1.3 0.1
v 1 1.3 -0.2
v 1 1.3 -0.4
v 1 1.4 -0.2
v 1 1.4 -0.4
v 1.1 1.1 0.4
v 1.1 1.1 0.1
v 1.1 1.2 0.4
v 1.1 1.2 0.3
v 1.1 1.2 0.2
v 1.1 1.2 0.1
v 1.1 1.2 0
v 1.1 1.2 -0.1
v 1.1 1.3 0.3
v 1.1 1.3 0.2
v 1.1 1.3 0
v 1.1 1.3 -0.1
v 1.2 1.1 0
v 1.2 1.1 -0.1
v 1.2 1.2 0
v 1.2 1.2 -0.1
v 1.4 1.3 0.4
v 1.4 1.3 0.3
v 1.4 1.4 0.4
v 1.4 1.4 0.3
v 1.5 0 0.4
v 1.5 0 -0.4
v 1.5 0.3 0.1
v 1.5 0.3 -0.1
v 1.5 0.5 0.1
v 1.5 0.5 -0.1
v 1.5 0.7 0.1
v 1.5 0.7 -0.1
v 1.5 0.9 0.1
v 1.5 0.9 -0.1
v 1.5 1.1 0.4
v 1.5 1.1 0
v 1.5 1.1 -0.1
v 1.5 1.1 -0.4
v 1.5 1.3 0.4
v 1.5 1.3 0.3
v 1.5 1.3 0.1
v 1.5 1.3 0
v 1.5 1.3 -0.1
v 1.5 1.3 -0.2
v 1.5 1.3 -0.3
v 1.5 1.3 -0.4
v 1.5 1.4 0.3
v 1.5 1.4 0.1
v 1.5 1.4 -0.2
v 1.5 1.4 -0.3
v 1.6 0.3 0.1
v 1.6 0.3 -0.1
v 1.6 0.5 0.1
v 1.6 0.5 -0.1
v 1.6 0.7 0.1
v 1.6 0.7 -0.1
v 1.6 0.9 0.1
v 1.6 0.9 -0.1
v -1.5 0 0.4
v -1.5 1.1 0.4
v -1.5 1.3 0.4
v -1.3 0.5 0.4
v -1.3 0.6 0.4
v -1.3 1.1 0.4
v -1.3 1.3 0.4
v -1.2 0.4 0.4
v -1.2 0.5 0.4
v -1.2 0.6 0.4
v -1.2 0.8 0.4
v -1.1 0.4 0.4
v -1.1 0.5 0.4
v -1.1 1.1 0.4
v -1.1 1.3 0.4
v -1 1.3 0.4
v -1 1.4 0.4
v -0.9 0.5 0.4
v -0.9 0.8 0.4
v -0.8 0.2 0.4
v -0.8 0.5 0.4
v -0.8 1.2 0.4
v -0.8 1.4 0.4
v -0.7 0.7 0.4
v -0.7 1 0.4
v -0.5 0.2 0.4
v -0.5 0.5 0.4
v -0.5 1.2 0.4
v -0.5 1.3 0.4
v -0.4 0.3 0.4
v -0.4 0.6 0.4
v -0.4 0.7 0.4
v -0.4 1 0.4
v -0.4 1.3 0.4
v -0.4 1.4 0.4
v -0.1 0.3 0.4
v -0.1 0.6 0.4
v -0.1 0.7 0.4
v -0.1 1 0.4
v -0.1 1.3 0.4
v -0.1 1.4 0.4
v 0 1.3 0.4
v 0 1.4 0.4
v 0.2 0.7 0.4
v 0.2 1 0.4
v 0.3 0.3 0.4
v 0.3 0.6 0.4
v 0.3 1.3 0.4
v 0.3 1.4 0.4
v 0.4 1.2 0.4
v 0.4 1.3 0.4
v 0.5 1.2 0.4
v 0.5 1.3 0.4
v 0.6 0.3 0.4
v 0.6 0.6 0.4
v 0.6 0.9 0.4
v 0.7 1.2 0.4
v 0.7 1.3 0.4
v 0.9 1.2 0.4
v 0.9 1.3 0.4
v 1 1.2 0.4
v 1 1.3 0.4
v 1.1 1.1 0.4
v 1.1 1.2 0.4
v 1.2 0.6 0.4
v 1.2 0.9 0.4
v 1.2 1.1 0.4
v 1.2 1.3 0.4
v 1.3 1.3 0.4
v 1.3 1.4 0.4
v 1.4 1.3 0.4
v 1.4 1.4 0.4
v 1.5 0 0.4
v 1.5 1.1 0.4
v 1.5 1.3 0.4
v -1.5 1.3 0.3
v -1.5 1.4 0.3
v -1.3 1.1 0.3
v -1.3 1.3 0.3
v -1.3 1.4 0.3
v -1.2 0.7 0.3
v -1.2 0.8 0.3
v -1.2 1.1 0.3
v -1.2 1.3 0.3
v -1.1 0.7 0.3
v -1.1 0.8 0.3
v -1 0.5 0.3
v -1 0.6 0.3
v -1 0.7 0.3
v -1 0.8 0.3
v -0.9 0.5 0.3
v -0.9 0.6 0.3
v -0.9 0.7 0.3
v -0.9 0.8 0.3
v -0.8 0.2 0.3
v -0.8 0.3 0.3
v -0.8 0.4 0.3
v -0.8 0.5 0.3
v -0.8 1.2 0.3
v -0.8 1.3 0.3
v -0.7 0.2 0.3
v -0.7 0.3 0.3
v -0.7 0.4 0.3
v -0.7 0.5 0.3
v -0.7 0.7 0.3
v -0.7 0.8 0.3
v -0.7 0.9 0.3
v -0.7 1 0.3
v -0.7 1.2 0.3
v -0.7 1.3 0.3
v -0.6 0.2 0.3
v -0.6 0.3 0.3
v -0.6 0.4 0.3
v -0.6 0.5 0.3
v -0.6 0.7 0.3
v -0.6 0.8 0.3
v -0.6 0.9 0.3
v -0.6 1 0.3
v -0.6 1.2 0.3
v -0.6 1.3 0.3
v -0.5 0.2 0.3
v -0.5 0.3 0.3
v -0.5 0.4 0.3
v -0.5 0.5 0.3
v -0.5 0.7 0.3
v -0.5 0.8 0.3
v -0.5 0.9 0.3
v -0.5 1 0.3
v -0.5 1.2 0.3
v -0.5 1.3 0.3
v -0.4 0.3 0.3
v -0.4 0.4 0.3
v -0.4 0.5 0.3
v -0.4 0.6 0.3
v -0.4 0.7 0.3
v -0.4 0.8 0.3
v -0.4 0.9 0.3
v -0.4 1 0.3
v -0.3 0.3 0.3
v -0.3 0.4 0.3
v -0.3 0.5 0.3
v -0.3 0.6 0.3
v -0.3 1.4 0.3
v -0.3 1.5 0.3
v -0.2 0.3 0.3
v -0.2 0.4 0.3
v -0.2 0.5 0.3
v -0.2 0.6 0.3
v -0.2 1.5 0.3
v -0.2 1.6 0.3
v -0.1 0.3 0.3
v -0.1 0.4 0.3
v -0.1 0.5 0.3
v -0.1 0.6 0.3
v -0.1 0.7 0.3
v -0.1 0.8 0.3
v -0.1 0.9 0.3
v -0.1 1 0.3
v -0.1 1.4 0.3
v -0.1 1.5 0.3
v -0.1 1.6 0.3
v 0 0.7 0.3
v 0 0.8 0.3
v 0 0.9 0.3
v 0 1 0.3
v 0 1.4 0.3
v 0 1.5 0.3
v 0.1 0.7 0.3
v 0.1 0.8 0.3
v 0.1 0.9 0.3
v 0.1 1 0.3
v 0.2 0.7 0.3
v 0.2 0.8 0.3
v 0.2 0.9 0.3
v 0.2 1 0.3
v 0.3 0.3 0.3
v 0.3 0.4 0.3
v 0.3 0.5 0.3
v 0.3 0.6 0.3
v 0.4 0.3 0.3
v 0.4 0.4 0.3
v 0.4 0.5 0.3
v 0.4 0.6 0.3
v 0.4 1.2 0.3
v 0.4 1.3 0.3
v 0.5 0.3 0.3
v 0.5 0.4 0.3
v 0.5 0.5 0.3
v 0.5 0.6 0.3
v 0.5 1.2 0.3
v 0.5 1.3 0.3
v 0.6 0.3 0.3
v 0.6 0.4 0.3
v 0.6 0.5 0.3
v 0.6 0.6 0.3
v 0.6 0.7 0.3
v 0.6 0.8 0.3
v 0.6 0.9 0.3
v 0.7 0.6 0.3
v 0.7 0.7 0.3
v 0.7 0.8 0.3
v 0.7 0.9 0.3
v 0.7 1.2 0.3
v 0.7 1.3 0.3
v 0.8 0.6 0.3
v 0.8 0.7 0.3
v 0.8 0.8 0.3
v 0.8 0.9 0.3
v 0.9 1.2 0.3
v 0.9 1.3 0.3
v 1 0.6 0.3
v 1 0.7 0.3
v 1 0.8 0.3
v 1 0.9 0.3
v 1 1.2 0.3
v 1 1.3 0.3
v 1.1 0.6 0.3
v 1.1 0.7 0.3
v 1.1 0.8 0.3
v 1.1 0.9 0.3
v 1.1 1.2 0.3
v 1.1 1.3 0.3
v 1.2 0.6 0.3
v 1.2 0.7 0.3
v 1.2 0.8 0.3
v 1.2 0.9 0.3
v 1.4 1.3 0.3
v 1.4 1.4 0.3
v 1.5 1.3 0.3
v 1.5 1.4 0.3
v -1.3 0.4 0.2
v -1.3 0.5 0.2
v -1.3 0.6 0.2
v -1.3 0.7 0.2
v -1.2 0.4 0.2
v -1.2 0.5 0.2
v -1.2 0.6 0.2
v -1.2 0.7 0.2
v -1.1 0.4 0.2
v -1.1 0.5 0.2
v -1.1 0.6 0.2
v -1.1 0.7 0.2
v -1.1 0.8 0.2
v -1 0.4 0.2
v -1 0.5 0.2
v -1 0.6 0.2
v -1 0.7 0.2
v -1 0.8 0.2
v -0.9 0.6 0.2
v -0.9 0.7 0.2
v -0.8 0.3 0.2
v -0.8 0.4 0.2
v -0.8 1.3 0.2
v -0.8 1.4 0.2
v -0.7 0.2 0.2
v -0.7 0.3 0.2
v -0.7 0.4 0.2
v -0.7 0.5 0.2
v -0.7 0.8 0.2
v -0.7 0.9 0.2
v -0.7 1.2 0.2
v -0.7 1.3 0.2
v -0.7 1.4 0.2
v -0.7 1.5 0.2
v -0.6 0.2 0.2
v -0.6 0.3 0.2
v -0.6 0.4 0.2
v -0.6 0.5 0.2
v -0.6 0.7 0.2
v -0.6 0.8 0.2
v -0.6 0.9 0.2
v -0.6 1 0.2
v -0.6 1.2 0.2
v -0.6 1.3 0.2
v -0.6 1.4 0.2
v -0.6 1.5 0.2
v -0.5 0.3 0.2
v -0.5 0.4 0.2
v -0.5 0.7 0.2
v -0.5 0.8 0.2
v -0.5 0.9 0.2
v -0.5 1 0.2
v -0.5 1.3 0.2
v -0.5 1.4 0.2
v -0.4 0.4 0.2
v -0.4 0.5 0.2
v -0.4 0.8 0.2
v -0.4 0.9 0.2
v -0.3 0.3 0.2
v -0.3 0.4 0.2
v -0.3 0.5 0.2
v -0.3 0.6 0.2
v -0.3 1.5 0.2
v -0.3 1.6 0.2
v -0.2 0.3 0.2
v -0.2 0.4 0.2
v -0.2 0.5 0.2
v -0.2 0.6 0.2
v -0.2 1.5 0.2
v -0.2 1.6 0.2
v -0.1 0.4 0.2
v -0.1 0.5 0.2
v -0.1 0.8 0.2
v -0.1 0.9 0.2
v -0.1 1.3 0.2
v -0.1 1.4 0.2
v -0.1 1.5 0.2
v -0.1 1.6 0.2
v 0 0.7 0.2
v 0 0.8 0.2
v 0 0.9 0.2
v 0 1 0.2
v 0 1.3 0.2
v 0 1.4 0.2
v 0 1.5 0.2
v 0 1.6 0.2
v 0.1 0.7 0.2
v 0.1 0.8 0.2
v 0.1 0.9 0.2
v 0.1 1 0.2
v 0.1 1.4 0.2
v 0.1 1.5 0.2
v 0.2 0.8 0.2
v 0.2 0.9 0.2
v 0.3 0.4 0.2
v 0.3 0.5 0.2
v 0.4 0.3 0.2
v 0.4 0.4 0.2
v 0.4 0.5 0.2
v 0.4 0.6 0.2
v 0.5 0.3 0.2
v 0.5 0.4 0.2
v 0.5 0.5 0.2
v 0.5 0.6 0.2
v 0.6 0.4 0.2
v 0.6 0.5 0.2
v 0.6 0.7 0.2
v 0.6 0.8 0.2
v 0.7 0.6 0.2
v 0.7 0.7 0.2
v 0.7 0.8 0.2
v 0.7 0.9 0.2
v 0.8 0.6 0.2
v 0.8 0.7 0.2
v 0.8 0.8 0.2
v 0.8 0.9 0.2
v 1 0.6 0.2
v 1 0.7 0.2
v 1 0.8 0.2
v 1 0.9 0.2
v 1.1 0.6 0.2
v 1.1 0.7 0.2
v 1.1 0.8 0.2
v 1.1 0.9 0.2
v 1.2 0.7 0.2
v 1.2 0.8 0.2
v -1.6 0.3 0.1
v -1.6 0.5 0.1
v -1.6 0.7 0.1
v -1.6 0.9 0.1
v -1.5 0.3 0.1
v -1.5 0.5 0.1
v -1.5 0.7 0.1
v -1.5 0.9 0.1
v -1.3 0.5 0.1
v -1.3 0.6 0.1
v -1.2 0.4 0.1
v -1.2 0.5 0.1
v -1.2 0.6 0.1
v -1.2 0.7 0.1
v -1.1 0.4 0.1
v -1.1 0.5 0.1
v -1.1 0.6 0.1
v -1.1 0.7 0.1
v -1 0.5 0.1
v -1 0.6 0.1
v -0.8 1.4 0.1
v -0.8 1.5 0.1
v -0.7 1.4 0.1
v -0.7 1.5 0.1
v -0.6 1.4 0.1
v -0.6 1.5 0.1
v -0.5 1.4 0.1
v -0.5 1.5 0.1
v 0.1 1.4 0.1
v 0.1 1.5 0.1
v 0.2 1.4 0.1
v 0.2 1.5 0.1
v 1.5 0.3 0.1
v 1.5 0.5 0.1
v 1.5 0.7 0.1
v 1.5 0.9 0.1
v 1.6 0.3 0.1
v 1.6 0.5 0.1
v 1.6 0.7 0.1
v 1.6 0.9 0.1
v -1.2 1.1 0
v -1.2 1.3 0
v -1 1.1 0
v -1 1.3 0
v -0.5 1.3 0
v -0.5 1.4 0
v -0.4 1.3 0
v -0.4 1.4 0
v 0.4 1.1 0
v 0.4 1.2 0
v 0.5 1.2 0
v 0.5 1.3 0
v 0.6 1.2 0
v 0.6 1.3 0
v 0.7 1.1 0
v 0.7 1.2 0
v 0.8 1.1 0
v 0.8 1.2 0
v 0.9 1.2 0
v 0.9 1.3 0
v 1.1 1.2 0
v 1.1 1.3 0
v 1.2 1.1 0
v 1.2 1.2 0
v -1.5 1.3 -0.1
v -1.5 1.4 -0.1
v -1 1.1 -0.1
v -1 1.3 -0.1
v -1 1.4 -0.1
v -0.9 1.1 -0.1
v -0.9 1.3 -0.1
v -0.8 1.4 -0.1
v -0.8 1.5 -0.1
v -0.7 1.4 -0.1
v -0.7 1.5 -0.1
v -0.6 1.4 -0.1
v -0.6 1.5 -0.1
v -0.5 1.4 -0.1
v -0.5 1.5 -0.1
v -0.4 1.3 -0.1
v -0.4 1.4 -0.1
v -0.3 1.1 -0.1
v -0.3 1.3 -0.1
v -0.2 1.1 -0.1
v -0.2 1.4 -0.1
v -0.1 1.1 -0.1
v -0.1 1.2 -0.1
v 0 1.2 -0.1
v 0.1 1.2 -0.1
v 0.2 1.1 -0.1
v 0.2 1.2 -0.1
v 0.4 1.2 -0.1
v 0.4 1.3 -0.1
v 0.5 1.2 -0.1
v 0.5 1.3 -0.1
v 0.6 1.2 -0.1
v 0.6 1.3 -0.1
v 0.6 1.4 -0.1
v 0.7 1.1 -0.1
v 0.7 1.2 -0.1
v 0.8 1.1 -0.1
v 0.8 1.2 -0.1
v 0.9 1.2 -0.1
v 0.9 1.3 -0.1
v 0.9 1.4 -0.1
v 1.1 1.2 -0.1
v 1.1 1.3 -0.1
v 1.2 1.1 -0.1
v 1.2 1.2 -0.1
v 1.5 1.1 -0.1
v 1.5 1.3 -0.1
v -0.9 1.2 -0.2
v -0.9 1.3 -0.2
v -0.9 1.5 -0.2
v -0.8 1.2 -0.2
v -0.8 1.5 -0.2
v -0.8 1.6 -0.2
v -0.5 1.4 -0.2
v -0.5 1.5 -0.2
v -0.5 1.6 -0.2
v -0.2 1.1 -0.2
v -0.2 1.4 -0.2
v -0.2 1.5 -0.2
v -0.1 1.1 -0.2
v -0.1 1.2 -0.2
v -0.1 1.3 -0.2
v -0.1 1.4 -0.2
v 0 1.2 -0.2
v 0 1.3 -0.2
v 0.1 1.2 -0.2
v 0.1 1.3 -0.2
v 0.2 1.2 -0.2
v 0.2 1.3 -0.2
v 0.3 1.1 -0.2
v 0.3 1.2 -0.2
v 0.4 1.1 -0.2
v 0.4 1.2 -0.2
v 0.5 1.3 -0.2
v 0.5 1.4 -0.2
v 0.6 1.3 -0.2
v 0.6 1.4 -0.2
v 0.6 1.5 -0.2
v 0.9 1.3 -0.2
v 0.9 1.4 -0.2
v 0.9 1.5 -0.2
v 1 1.3 -0.2
v 1 1.4 -0.2
v 1.1 1.3 -0.2
v 1.1 1.4 -0.2
v 1.5 1.3 -0.2
v 1.5 1.4 -0.2
v 0.3 1.2 -0.3
v 0.3 1.3 -0.3
v 0.4 1.2 -0.3
v 0.4 1.3 -0.3
v -1.3 0.4 0.3
v -1.3 0.5 0.3
v -1.3 0.6 0.3
v -1.3 0.7 0.3
v -1.2 0.4 0.3
v -1.2 0.5 0.3
v -1.2 0.6 0.3
v -1.2 0.7 0.3
v -1.1 0.4 0.3
v -1.1 0.5 0.3
v -1 0.4 0.3
v -1 0.5 0.3
v 0.4 1.2 0.2
v 0.4 1.3 0.2
v 0.5 1.2 0.2
v 0.5 1.3 0.2
v 0.7 1.2 0.2
v 0.7 1.3 0.2
v 0.9 1.2 0.2
v 0.9 1.3 0.2
v 1 1.2 0.2
v 1 1.3 0.2
v 1.1 1.2 0.2
v 1.1 1.3 0.2
v -1.1 1.1 0.1
v -1.1 1.3 0.1
v -1 1.1 0.1
v -1 1.3 0.1
v -1 1.4 0.1
v -0.8 1.3 0.1
v -0.8 1.4 0.1
v -0.4 1.3 0.1
v -0.4 1.4 0.1
v -0.3 1.4 0.1
v -0.3 1.5 0.1
v -0.3 1.6 0.1
v -0.2 1.3 0.1
v -0.2 1.4 0.1
v -0.2 1.5 0.1
v -0.2 1.6 0.1
v -0.1 1.1 0.1
v -0.1 1.2 0.1
v -0.1 1.5 0.1
v -0.1 1.6 0.1
v 0 1.1 0.1
v 0 1.2 0.1
v 0 1.5 0.1
v 0 1.6 0.1
v 0.2 1.3 0.1
v 0.2 1.4 0.1
v 0.3 1.1 0.1
v 0.3 1.3 0.1
v 0.3 1.4 0.1
v 0.4 1.2 0.1
v 0.4 1.3 0.1
v 0.5 1.2 0.1
v 0.5 1.3 0.1
v 0.7 1.2 0.1
v 0.7 1.3 0.1
v 0.9 1.2 0.1
v 0.9 1.3 0.1
v 1 1.2 0.1
v 1 1.3 0.1
v 1.1 1.1 0.1
v 1.1 1.2 0.1
v 1.2 1.1 0.1
v 1.2 1.3 0.1
v 1.3 1.1 0.1
v 1.3 1.3 0.1
v 1.3 1.4 0.1
v 1.5 1.3 0.1
v 1.5 1.4 0.1
v -1.5 1.3 0
v -1.5 1.4 0
v -1.3 1.3 0
v -1.3 1.4 0
v -1 1.1 0
v -1 1.3 0
v -0.8 1.1 0
v -0.8 1.3 0
v -0.8 1.4 0
v -0.8 1.5 0
v -0.7 1.4 0
v -0.7 1.5 0
v -0.6 1.4 0
v -0.6 1.5 0
v -0.5 1.4 0
v -0.5 1.5 0
v -0.3 1.1 0
v -0.3 1.3 0
v -0.3 1.4 0
v -0.3 1.5 0
v -0.2 1.3 0
v -0.2 1.4 0
v -0.2 1.5 0
v -0.2 1.6 0
v -0.1 1.1 0
v -0.1 1.2 0
v -0.1 1.3 0
v -0.1 1.4 0
v -0.1 1.5 0
v -0.1 1.6 0
v 0 1.1 0
v 0 1.2 0
v 0 1.3 0
v 0 1.4 0
v 0 1.5 0
v 0.1 1.2 0
v 0.1 1.3 0
v 0.1 1.4 0
v 0.1 1.5 0
v 0.2 1.3 0
v 0.2 1.4 0
v 0.2 1.5 0
v 0.3 1.1 0
v 0.3 1.3 0
v 1.3 1.1 0
v 1.3 1.3 0
v 1.5 1.1 0
v 1.5 1.3 0
v -1.6 0.3 -0.1
v -1.6 0.5 -0.1
v -1.6 0.7 -0.1
v -1.6 0.9 -0.1
v -1.5 0.3 -0.1
v -1.5 0.5 -0.1
v -1.5 0.7 -0.1
v -1.5 0.9 -0.1
v -0.1 1.3 -0.1
v -0.1 1.4 -0.1
v 0 1.3 -0.1
v 0 1.4 -0.1
v 0 1.5 -0.1
v 0.1 1.3 -0.1
v 0.1 1.4 -0.1
v 0.1 1.5 -0.1
v 0.2 1.3 -0.1
v 0.2 1.4 -0.1
v 1.5 0.3 -0.1
v 1.5 0.5 -0.1
v 1.5 0.7 -0.1
v 1.5 0.9 -0.1
v 1.6 0.3 -0.1
v 1.6 0.5 -0.1
v 1.6 0.7 -0.1
v 1.6 0.9 -0.1
v -1 0.6 -0.2
v -1 0.7 -0.2
v -0.9 0.5 -0.2
v -0.9 0.6 -0.2
v -0.8 0.5 -0.2
v -0.8 0.7 -0.2
v -0.6 0.5 -0.2
v -0.6 0.6 -0.2
v -0.5 0.5 -0.2
v -0.5 0.6 -0.2
v 0 0.4 -0.2
v 0 0.5 -0.2
v 0.5 0.3 -0.2
v 0.5 0.4 -0.2
v 0.6 0.3 -0.2
v 0.6 0.4 -0.2
v 0.7 0.3 -0.2
v 0.7 0.4 -0.2
v 0.7 0.5 -0.2
v 0.8 0.3 -0.2
v 0.8 0.4 -0.2
v -1.4 0.3 -0.3
v -1.4 0.4 -0.3
v -1.2 0.4 -0.3
v -1.2 0.5 -0.3
v -1.1 0.3 -0.3
v -1.1 0.4 -0.3
v -1.1 0.6 -0.3
v -1.1 0.8 -0.3
v -1 0.4 -0.3
v -1 0.5 -0.3
v -1 0.6 -0.3
v -1 0.7 -0.3
v -0.9 0.4 -0.3
v -0.9 0.5 -0.3
v -0.9 0.6 -0.3
v -0.8 0.4 -0.3
v -0.8 0.5 -0.3
v -0.8 0.6 -0.3
v -0.8 0.7 -0.3
v -0.7 0.2 -0.3
v -0.7 0.3 -0.3
v -0.7 0.5 -0.3
v -0.7 0.6 -0.3
v -0.6 0.2 -0.3
v -0.6 0.3 -0.3
v -0.6 0.4 -0.3
v -0.6 0.5 -0.3
v -0.6 0.6 -0.3
v -0.5 0.5 -0.3
v -0.5 0.6 -0.3
v -0.5 0.7 -0.3
v -0.5 0.8 -0.3
v -0.4 0.4 -0.3
v -0.4 0.5 -0.3
v -0.4 0.6 -0.3
v -0.4 0.7 -0.3
v -0.2 0.4 -0.3
v -0.2 0.5 -0.3
v -0.2 0.6 -0.3
v -0.2 0.7 -0.3
v -0.1 0.2 -0.3
v -0.1 0.3 -0.3
v -0.1 1.2 -0.3
v -0.1 1.3 -0.3
v 0 0.2 -0.3
v 0 0.3 -0.3
v 0 0.4 -0.3
v 0 0.5 -0.3
v 0 0.7 -0.3
v 0 0.8 -0.3
v 0 1.2 -0.3
v 0 1.3 -0.3
v 0.1 1.2 -0.3
v 0.1 1.3 -0.3
v 0.2 0.3 -0.3
v 0.2 0.4 -0.3
v 0.2 1.2 -0.3
v 0.2 1.3 -0.3
v 0.3 0.3 -0.3
v 0.3 0.4 -0.3
v 0.3 0.8 -0.3
v 0.3 0.9 -0.3
v 0.4 0.6 -0.3
v 0.4 0.8 -0.3
v 0.5 0.6 -0.3
v 0.5 0.8 -0.3
v 0.5 0.9 -0.3
v 0.6 0.3 -0.3
v 0.6 0.4 -0.3
v 0.6 0.5 -0.3
v 0.6 0.6 -0.3
v 0.7 0.3 -0.3
v 0.7 0.4 -0.3
v 0.7 0.5 -0.3
v 0.7 0.6 -0.3
v 0.7 0.8 -0.3
v 0.8 0.3 -0.3
v 0.8 0.4 -0.3
v 0.9 0.5 -0.3
v 0.9 0.8 -0.3
v 1 0.5 -0.3
v 1 0.7 -0.3
v 1 0.8 -0.3
v 1 0.9 -0.3
v 1.1 0.3 -0.3
v 1.1 0.5 -0.3
v 1.1 0.8 -0.3
v 1.1 0.9 -0.3
v 1.1 1.3 -0.3
v 1.1 1.4 -0.3
v 1.4 0.7 -0.3
v 1.4 0.8 -0.3
v 1.5 1.3 -0.3
v 1.5 1.4 -0.3
v -1.5 0 -0.4
v -1.5 1.1 -0.4
v -1.5 1.4 -0.4
v -1.4 0.3 -0.4
v -1.4 0.4 -0.4
v -1.2 0.4 -0.4
v -1.2 0.5 -0.4
v -1.1 0.3 -0.4
v -1.1 0.4 -0.4
v -1.1 0.6 -0.4
v -1.1 0.8 -0.4
v -1 0.4 -0.4
v -1 0.5 -0.4
v -1 0.6 -0.4
v -1 1.3 -0.4
v -1 1.4 -0.4
v -0.9 0.4 -0.4
v -0.9 0.5 -0.4
v -0.9 1.1 -0.4
v -0.9 1.2 -0.4
v -0.9 1.3 -0.4
v -0.9 1.5 -0.4
v -0.8 0.4 -0.4
v -0.8 0.6 -0.4
v -0.8 1.1 -0.4
v -0.8 1.2 -0.4
v -0.8 1.5 -0.4
v -0.8 1.6 -0.4
v -0.7 0.2 -0.4
v -0.7 0.3 -0.4
v -0.7 0.5 -0.4
v -0.7 0.6 -0.4
v -0.6 0.2 -0.4
v -0.6 0.3 -0.4
v -0.6 0.4 -0.4
v -0.6 0.5 -0.4
v -0.5 0.7 -0.4
v -0.5 0.8 -0.4
v -0.5 1.5 -0.4
v -0.5 1.6 -0.4
v -0.4 0.4 -0.4
v -0.4 0.5 -0.4
v -0.4 0.6 -0.4
v -0.4 0.7 -0.4
v -0.2 0.4 -0.4
v -0.2 0.5 -0.4
v -0.2 0.6 -0.4
v -0.2 0.7 -0.4
v -0.2 1.4 -0.4
v -0.2 1.5 -0.4
v -0.1 0.2 -0.4
v -0.1 0.3 -0.4
v -0.1 1.2 -0.4
v -0.1 1.4 -0.4
v 0 0.2 -0.4
v 0 0.3 -0.4
v 0 0.7 -0.4
v 0 0.8 -0.4
v 0 1.2 -0.4
v 0 1.3 -0.4
v 0.1 1.2 -0.4
v 0.1 1.3 -0.4
v 0.2 0.3 -0.4
v 0.2 0.4 -0.4
v 0.2 1.1 -0.4
v 0.2 1.2 -0.4
v 0.3 0.3 -0.4
v 0.3 0.4 -0.4
v 0.3 0.8 -0.4
v 0.3 0.9 -0.4
v 0.3 1.1 -0.4
v 0.3 1.3 -0.4
v 0.4 0.6 -0.4
v 0.4 0.8 -0.4
v 0.5 0.3 -0.4
v 0.5 0.4 -0.4
v 0.5 0.6 -0.4
v 0.5 0.8 -0.4
v 0.5 0.9 -0.4
v 0.5 1.3 -0.4
v 0.5 1.4 -0.4
v 0.6 0.5 -0.4
v 0.6 0.6 -0.4
v 0.6 1.4 -0.4
v 0.6 1.5 -0.4
v 0.7 0.6 -0.4
v 0.7 0.8 -0.4
v 0.9 0.5 -0.4
v 0.9 0.8 -0.4
v 0.9 1.4 -0.4
v 0.9 1.5 -0.4
v 1 0.5 -0.4
v 1 0.7 -0.4
v 1 0.8 -0.4
v 1 0.9 -0.4
v 1 1.3 -0.4
v 1 1.4 -0.4
v 1.1 0.3 -0.4
v 1.1 0.5 -0.4
v 1.1 0.8 -0.4
v 1.1 0.9 -0.4
v 1.4 0.7 -0.4
v 1.4 0.8 -0.4
v 1.5 0 -0.4
v 1.5 1.1 -0.4
v 1.5 1.3 -0.4
v -1.5 0 0.4
v 1.5 0 0.4
v -1.5 0 -0.4
v 1.5 0 -0.4
v -1.6 0.3 0.1
v -1.5 0.3 0.1
v 1.5 0.3 0.1
v 1.6 0.3 0.1
v -1.6 0.3 -0.1
v -1.5 0.3 -0.1
v 1.5 0.3 -0.1
v 1.6 0.3 -0.1
v -0.7 0.3 -0.3
v -0.6 0.3 -0.3
v -0.1 0.3 -0.3
v 0 0.3 -0.3
v -0.7 0.3 -0.4
v -0.6 0.3 -0.4
v -0.1 0.3 -0.4
v 0 0.3 -0.4
v -0.8 0.4 0.3
v -0.7 0.4 0.3
v -0.6 0.4 0.3
v -0.5 0.4 0.3
v -0.8 0.4 0.2
v -0.7 0.4 0.2
v -0.6 0.4 0.2
v -0.5 0.4 0.2
v 0.7 0.4 -0.2
v 0.8 0.4 -0.2
v -1.4 0.4 -0.3
v -1.2 0.4 -0.3
v 0.7 0.4 -0.3
v 0.8 0.4 -0.3
v -1.4 0.4 -0.4
v -1.2 0.4 -0.4
v -0.8 0.5 0.4
v -0.5 0.5 0.4
v -0.8 0.5 0.3
v -0.7 0.5 0.3
v -0.6 0.5 0.3
v -0.5 0.5 0.3
v -0.4 0.5 0.3
v -0.3 0.5 0.3
v -0.2 0.5 0.3
v -0.1 0.5 0.3
v 0.3 0.5 0.3
v 0.4 0.5 0.3
v 0.5 0.5 0.3
v 0.6 0.5 0.3
v -0.7 0.5 0.2
v -0.6 0.5 0.2
v -0.4 0.5 0.2
v -0.3 0.5 0.2
v -0.2 0.5 0.2
v -0.1 0.5 0.2
v 0.3 0.5 0.2
v 0.4 0.5 0.2
v 0.5 0.5 0.2
v 0.6 0.5 0.2
v 0 0.5 -0.2
v 0.7 0.5 -0.2
v -1.2 0.5 -0.3
v -1 0.5 -0.3
v 0 0.5 -0.3
v 0.6 0.5 -0.3
v 0.7 0.5 -0.3
v 0.9 0.5 -0.3
v 1 0.5 -0.3
v 1.1 0.5 -0.3
v -1.2 0.5 -0.4
v -1 0.5 -0.4
v 0.6 0.5 -0.4
v 0.9 0.5 -0.4
v 1 0.5 -0.4
v 1.1 0.5 -0.4
v -1.3 0.6 0.4
v -1.2 0.6 0.4
v -0.4 0.6 0.4
v -0.1 0.6 0.4
v 0.3 0.6 0.4
v 0.6 0.6 0.4
v -1.3 0.6 0.3
v -1.2 0.6 0.3
v -0.4 0.6 0.3
v -0.3 0.6 0.3
v -0.2 0.6 0.3
v -0.1 0.6 0.3
v 0.3 0.6 0.3
v 0.4 0.6 0.3
v 0.5 0.6 0.3
v 0.6 0.6 0.3
v -1.3 0.6 0.2
v -1.2 0.6 0.2
v -1.1 0.6 0.2
v -1 0.6 0.2
v -0.3 0.6 0.2
v -0.2 0.6 0.2
v 0.4 0.6 0.2
v 0.5 0.6 0.2
v -1.3 0.6 0.1
v -1.2 0.6 0.1
v -1.1 0.6 0.1
v -1 0.6 0.1
v -0.6 0.6 -0.2
v -0.5 0.6 -0.2
v -0.6 0.6 -0.3
v -0.5 0.6 -0.3
v -0.4 0.6 -0.3
v -0.2 0.6 -0.3
v 0.4 0.6 -0.3
v 0.5 0.6 -0.3
v -0.4 0.6 -0.4
v -0.2 0.6 -0.4
v 0.4 0.6 -0.4
v 0.5 0.6 -0.4
v -1.3 0.7 0.3
v -1.2 0.7 0.3
v -1.1 0.7 0.3
v -1 0.7 0.3
v -0.9 0.7 0.3
v -1.3 0.7 0.2
v -1.2 0.7 0.2
v -1.1 0.7 0.2
v -1 0.7 0.2
v -0.9 0.7 0.2
v -1.6 0.7 0.1
v -1.5 0.7 0.1
v -1.2 0.7 0.1
v -1.1 0.7 0.1
v 1.5 0.7 0.1
v 1.6 0.7 0.1
v -1.6 0.7 -0.1
v -1.5 0.7 -0.1
v 1.5 0.7 -0.1
v 1.6 0.7 -0.1
v -1 0.7 -0.2
v -0.8 0.7 -0.2
v -1 0.7 -0.3
v -0.8 0.7 -0.3
v -0.5 0.7 -0.3
v -0.4 0.7 -0.3
v -0.2 0.7 -0.3
v 0 0.7 -0.3
v -0.5 0.7 -0.4
v -0.4 0.7 -0.4
v -0.2 0.7 -0.4
v 0 0.7 -0.4
v -1.2 0.8 0.4
v -0.9 0.8 0.4
v -1.2 0.8 0.3
v -1.1 0.8 0.3
v -1 0.8 0.3
v -0.9 0.8 0.3
v 0.6 0.8 0.3
v 0.7 0.8 0.3
v 0.8 0.8 0.3
v 1 0.8 0.3
v 1.1 0.8 0.3
v 1.2 0.8 0.3
v -1.1 0.8 0.2
v -1 0.8 0.2
v 0.6 0.8 0.2
v 0.7 0.8 0.2
v 0.8 0.8 0.2
v 1 0.8 0.2
v 1.1 0.8 0.2
v 1.2 0.8 0.2
v -1.1 0.8 -0.3
v -0.5 0.8 -0.3
v 0 0.8 -0.3
v 0.3 0.8 -0.3
v 0.5 0.8 -0.3
v 0.7 0.8 -0.3
v 0.9 0.8 -0.3
v 1 0.8 -0.3
v 1.1 0.8 -0.3
v 1.4 0.8 -0.3
v -1.1 0.8 -0.4
v -0.5 0.8 -0.4
v 0 0.8 -0.4
v 0.3 0.8 -0.4
v 0.5 0.8 -0.4
v 0.7 0.8 -0.4
v 0.9 0.8 -0.4
v 1 0.8 -0.4
v 1.1 0.8 -0.4
v 1.4 0.8 -0.4
v 0.6 0.9 0.4
v 1.2 0.9 0.4
v -0.7 0.9 0.3
v -0.6 0.9 0.3
v -0.5 0.9 0.3
v -0.4 0.9 0.3
v -0.1 0.9 0.3
v 0 0.9 0.3
v 0.1 0.9 0.3
v 0.2 0.9 0.3
v 0.6 0.9 0.3
v 0.7 0.9 0.3
v 0.8 0.9 0.3
v 1 0.9 0.3
v 1.1 0.9 0.3
v 1.2 0.9 0.3
v -0.7 0.9 0.2
v -0.6 0.9 0.2
v -0.5 0.9 0.2
v -0.4 0.9 0.2
v -0.1 0.9 0.2
v 0 0.9 0.2
v 0.1 0.9 0.2
v 0.2 0.9 0.2
v 0.7 0.9 0.2
v 0.8 0.9 0.2
v 1 0.9 0.2
v 1.1 0.9 0.2
v 0.3 0.9 -0.3
v 0.5 0.9 -0.3
v 1 0.9 -0.3
v 1.1 0.9 -0.3
v 0.3 0.9 -0.4
v 0.5 0.9 -0.4
v 1 0.9 -0.4
v 1.1 0.9 -0.4
v -0.7 1 0.4
v -0.4 1 0.4
v -0.1 1 0.4
v 0.2 1 0.4
v -0.7 1 0.3
v -0.6 1 0.3
v -0.5 1 0.3
v -0.4 1 0.3
v -0.1 1 0.3
v 0 1 0.3
v 0.1 1 0.3
v 0.2 1 0.3
v -0.6 1 0.2
v -0.5 1 0.2
v 0 1 0.2
v 0.1 1 0.2
v -0.1 1.2 0.1
v 0 1.2 0.1
v -0.1 1.2 0
v 0 1.2 0
v 0.1 1.2 0
v 0 1.2 -0.1
v 0.1 1.2 -0.1
v -0.9 1.2 -0.2
v -0.8 1.2 -0.2
v -0.9 1.2 -0.4
v -0.8 1.2 -0.4
v -0.1 1.3 0
v 0 1.3 0
v 0.1 1.3 0
v 0.2 1.3 0
v -0.1 1.3 -0.1
v 0 1.3 -0.1
v 0.1 1.3 -0.1
v 0.2 1.3 -0.1
v -0.1 1.4 0.3
v 0 1.4 0.3
v -0.1 1.4 0.2
v 0 1.4 0.2
v -0.3 1.4 0.1
v -0.2 1.4 0.1
v -0.3 1.4 0
v -0.2 1.4 0
v -0.8 0.2 0.4
v -0.5 0.2 0.4
v -0.8 0.2 0.3
v -0.7 0.2 0.3
v -0.6 0.2 0.3
v -0.5 0.2 0.3
v -0.7 0.2 0.2
v -0.6 0.2 0.2
v -0.7 0.2 -0.3
v -0.6 0.2 -0.3
v -0.1 0.2 -0.3
v 0 0.2 -0.3
v -0.7 0.2 -0.4
v -0.6 0.2 -0.4
v -0.1 0.2 -0.4
v 0 0.2 -0.4
v -0.4 0.3 0.4
v -0.1 0.3 0.4
v 0.3 0.3 0.4
v 0.6 0.3 0.4
v -0.8 0.3 0.3
v -0.7 0.3 0.3
v -0.6 0.3 0.3
v -0.5 0.3 0.3
v -0.4 0.3 0.3
v -0.3 0.3 0.3
v -0.2 0.3 0.3
v -0.1 0.3 0.3
v 0.3 0.3 0.3
v 0.4 0.3 0.3
v 0.5 0.3 0.3
v 0.6 0.3 0.3
v -0.8 0.3 0.2
v -0.7 0.3 0.2
v -0.6 0.3 0.2
v -0.5 0.3 0.2
v -0.3 0.3 0.2
v -0.2 0.3 0.2
v 0.4 0.3 0.2
v 0.5 0.3 0.2
v 0.5 0.3 -0.2
v 0.6 0.3 -0.2
v 0.7 0.3 -0.2
v 0.8 0.3 -0.2
v -1.4 0.3 -0.3
v -1.1 0.3 -0.3
v 0.2 0.3 -0.3
v 0.3 0.3 -0.3
v 0.6 0.3 -0.3
v 0.7 0.3 -0.3
v 0.8 0.3 -0.3
v 1.1 0.3 -0.3
v -1.4 0.3 -0.4
v -1.1 0.3 -0.4
v 0.2 0.3 -0.4
v 0.3 0.3 -0.4
v 0.5 0.3 -0.4
v 1.1 0.3 -0.4
v -1.2 0.4 0.4
v -1.1 0.4 0.4
v -1.3 0.4 0.3
v -1.2 0.4 0.3
v -1.1 0.4 0.3
v -1 0.4 0.3
v -0.4 0.4 0.3
v -0.3 0.4 0.3
v -0.2 0.4 0.3
v -0.1 0.4 0.3
v 0.3 0.4 0.3
v 0.4 0.4 0.3
v 0.5 0.4 0.3
v 0.6 0.4 0.3
v -1.3 0.4 0.2
v -1.2 0.4 0.2
v -1.1 0.4 0.2
v -1 0.4 0.2
v -0.4 0.4 0.2
v -0.3 0.4 0.2
v -0.2 0.4 0.2
v -0.1 0.4 0.2
v 0.3 0.4 0.2
v 0.4 0.4 0.2
v 0.5 0.4 0.2
v 0.6 0.4 0.2
v -1.2 0.4 0.1
v -1.1 0.4 0.1
v 0 0.4 -0.2
v 0.5 0.4 -0.2
v 0.6 0.4 -0.2
v 0.7 0.4 -0.2
v -1.1 0.4 -0.3
v -1 0.4 -0.3
v -0.9 0.4 -0.3
v -0.8 0.4 -0.3
v -0.6 0.4 -0.3
v -0.4 0.4 -0.3
v -0.2 0.4 -0.3
v 0 0.4 -0.3
v 0.2 0.4 -0.3
v 0.3 0.4 -0.3
v 0.6 0.4 -0.3
v 0.7 0.4 -0.3
v -1.1 0.4 -0.4
v -1 0.4 -0.4
v -0.9 0.4 -0.4
v -0.8 0.4 -0.4
v -0.6 0.4 -0.4
v -0.4 0.4 -0.4
v -0.2 0.4 -0.4
v 0.2 0.4 -0.4
v 0.3 0.4 -0.4
v 0.5 0.4 -0.4
v -1.3 0.5 0.4
v -1.2 0.5 0.4
v -1.1 0.5 0.4
v -0.9 0.5 0.4
v -1.3 0.5 0.3
v -1.2 0.5 0.3
v -1.1 0.5 0.3
v -1 0.5 0.3
v -0.9 0.5 0.3
v -1.3 0.5 0.2
v -1.2 0.5 0.2
v -1.1 0.5 0.2
v -1 0.5 0.2
v -1.6 0.5 0.1
v -1.5 0.5 0.1
v -1.3 0.5 0.1
v -1.2 0.5 0.1
v -1.1 0.5 0.1
v -1 0.5 0.1
v 1.5 0.5 0.1
v 1.6 0.5 0.1
v -1.6 0.5 -0.1
v -1.5 0.5 -0.1
v 1.5 0.5 -0.1
v 1.6 0.5 -0.1
v -0.9 0.5 -0.2
v -0.8 0.5 -0.2
v -0.6 0.5 -0.2
v -0.5 0.5 -0.2
v -1 0.5 -0.3
v -0.9 0.5 -0.3
v -0.8 0.5 -0.3
v -0.7 0.5 -0.3
v -0.6 0.5 -0.3
v -0.5 0.5 -0.3
v -0.4 0.5 -0.3
v -0.2 0.5 -0.3
v -1 0.5 -0.4
v -0.9 0.5 -0.4
v -0.7 0.5 -0.4
v -0.6 0.5 -0.4
v -0.4 0.5 -0.4
v -0.2 0.5 -0.4
v 0.6 0.6 0.4
v 1.2 0.6 0.4
v -1 0.6 0.3
v -0.9 0.6 0.3
v 0.6 0.6 0.3
v 0.7 0.6 0.3
v 0.8 0.6 0.3
v 1 0.6 0.3
v 1.1 0.6 0.3
v 1.2 0.6 0.3
v -1 0.6 0.2
v -0.9 0.6 0.2
v 0.7 0.6 0.2
v 0.8 0.6 0.2
v 1 0.6 0.2
v 1.1 0.6 0.2
v -1 0.6 -0.2
v -0.9 0.6 -0.2
v -1.1 0.6 -0.3
v -1 0.6 -0.3
v -0.9 0.6 -0.3
v -0.8 0.6 -0.3
v -0.7 0.6 -0.3
v 0.6 0.6 -0.3
v 0.7 0.6 -0.3
v -1.1 0.6 -0.4
v -1 0.6 -0.4
v -0.8 0.6 -0.4
v -0.7 0.6 -0.4
v 0.6 0.6 -0.4
v 0.7 0.6 -0.4
v -0.7 0.7 0.4
v -0.4 0.7 0.4
v -0.1 0.7 0.4
v 0.2 0.7 0.4
v -0.7 0.7 0.3
v -0.6 0.7 0.3
v -0.5 0.7 0.3
v -0.4 0.7 0.3
v -0.1 0.7 0.3
v 0 0.7 0.3
v 0.1 0.7 0.3
v 0.2 0.7 0.3
v 0.6 0.7 0.3
v 0.7 0.7 0.3
v 0.8 0.7 0.3
v 1 0.7 0.3
v 1.1 0.7 0.3
v 1.2 0.7 0.3
v -0.6 0.7 0.2
v -0.5 0.7 0.2
v 0 0.7 0.2
v 0.1 0.7 0.2
v 0.6 0.7 0.2
v 0.7 0.7 0.2
v 0.8 0.7 0.2
v 1 0.7 0.2
v 1.1 0.7 0.2
v 1.2 0.7 0.2
v 1 0.7 -0.3
v 1.4 0.7 -0.3
v 1 0.7 -0.4
v 1.4 0.7 -0.4
v -0.7 0.8 0.3
v -0.6 0.8 0.3
v -0.5 0.8 0.3
v -0.4 0.8 0.3
v -0.1 0.8 0.3
v 0 0.8 0.3
v 0.1 0.8 0.3
v 0.2 0.8 0.3
v -0.7 0.8 0.2
v -0.6 0.8 0.2
v -0.5 0.8 0.2
v -0.4 0.8 0.2
v -0.1 0.8 0.2
v 0 0.8 0.2
v 0.1 0.8 0.2
v 0.2 0.8 0.2
v 0.4 0.8 -0.3
v 0.5 0.8 -0.3
v 0.4 0.8 -0.4
v 0.5 0.8 -0.4
v -1.6 0.9 0.1
v -1.5 0.9 0.1
v 1.5 0.9 0.1
v 1.6 0.9 0.1
v -1.6 0.9 -0.1
v -1.5 0.9 -0.1
v 1.5 0.9 -0.1
v 1.6 0.9 -0.1
v -1.3 1.1 0.4
v -1.1 1.1 0.4
v 1.1 1.1 0.4
v 1.2 1.1 0.4
v -1.3 1.1 0.3
v -1.2 1.1 0.3
v -1.1 1.1 0.1
v -1 1.1 0.1
v -0.1 1.1 0.1
v 0 1.1 0.1
v 0.3 1.1 0.1
v 1.1 1.1 0.1
v 1.2 1.1 0.1
v 1.3 1.1 0.1
v -1.2 1.1 0
v -1 1.1 0
v -0.8 1.1 0
v -0.3 1.1 0
v -0.1 1.1 0
v 0 1.1 0
v 0.3 1.1 0
v 0.4 1.1 0
v 0.7 1.1 0
v 0.8 1.1 0
v 1.2 1.1 0
v 1.3 1.1 0
v 1.5 1.1 0
v -1 1.1 -0.1
v -0.9 1.1 -0.1
v -0.3 1.1 -0.1
v -0.2 1.1 -0.1
v -0.1 1.1 -0.1
v 0.2 1.1 -0.1
v 0.7 1.1 -0.1
v 0.8 1.1 -0.1
v 1.2 1.1 -0.1
v 1.5 1.1 -0.1
v -0.2 1.1 -0.2
v -0.1 1.1 -0.2
v 0.3 1.1 -0.2
v 0.4 1.1 -0.2
v -0.9 1.1 -0.4
v -0.8 1.1 -0.4
v 0.2 1.1 -0.4
v 0.3 1.1 -0.4
v -0.8 1.2 0.4
v -0.5 1.2 0.4
v 0.4 1.2 0.4
v 0.5 1.2 0.4
v 0.7 1.2 0.4
v 0.9 1.2 0.4
v 1 1.2 0.4
v 1.1 1.2 0.4
v -0.8 1.2 0.3
v -0.7 1.2 0.3
v -0.6 1.2 0.3
v -0.5 1.2 0.3
v 0.4 1.2 0.3
v 0.5 1.2 0.3
v 0.7 1.2 0.3
v 0.9 1.2 0.3
v 1 1.2 0.3
v 1.1 1.2 0.3
v -0.7 1.2 0.2
v -0.6 1.2 0.2
v 0.4 1.2 0.2
v 0.5 1.2 0.2
v 0.7 1.2 0.2
v 0.9 1.2 0.2
v 1 1.2 0.2
v 1.1 1.2 0.2
v 0.4 1.2 0.1
v 0.5 1.2 0.1
v 0.7 1.2 0.1
v 0.9 1.2 0.1
v 1 1.2 0.1
v 1.1 1.2 0.1
v 0.4 1.2 0
v 0.5 1.2 0
v 0.6 1.2 0
v 0.7 1.2 0
v 0.8 1.2 0
v 0.9 1.2 0
v 1.1 1.2 0
v 1.2 1.2 0
v -0.1 1.2 -0.1
v 0 1.2 -0.1
v 0.1 1.2 -0.1
v 0.2 1.2 -0.1
v 0.4 1.2 -0.1
v 0.5 1.2 -0.1
v 0.6 1.2 -0.1
v 0.7 1.2 -0.1
v 0.8 1.2 -0.1
v 0.9 1.2 -0.1
v 1.1 1.2 -0.1
v 1.2 1.2 -0.1
v -0.1 1.2 -0.2
v 0 1.2 -0.2
v 0.1 1.2 -0.2
v 0.2 1.2 -0.2
v 0.3 1.2 -0.2
v 0.4 1.2 -0.2
v -0.1 1.2 -0.3
v 0 1.2 -0.3
v 0.1 1.2 -0.3
v 0.2 1.2 -0.3
v 0.3 1.2 -0.3
v 0.4 1.2 -0.3
v -0.1 1.2 -0.4
v 0 1.2 -0.4
v 0.1 1.2 -0.4
v 0.2 1.2 -0.4
v -1.5 1.3 0.4
v -1.3 1.3 0.4
v -1.1 1.3 0.4
v -1 1.3 0.4
v -0.5 1.3 0.4
v -0.4 1.3 0.4
v -0.1 1.3 0.4
v 0 1.3 0.4
v 0.3 1.3 0.4
v 0.4 1.3 0.4
v 0.5 1.3 0.4
v 0.7 1.3 0.4
v 0.9 1.3 0.4
v 1 1.3 0.4
v 1.2 1.3 0.4
v 1.3 1.3 0.4
v 1.4 1.3 0.4
v 1.5 1.3 0.4
v -1.5 1.3 0.3
v -1.3 1.3 0.3
v -1.2 1.3 0.3
v -0.8 1.3 0.3
v -0.7 1.3 0.3
v -0.6 1.3 0.3
v -0.5 1.3 0.3
v 0.4 1.3 0.3
v 0.5 1.3 0.3
v 0.7 1.3 0.3
v 0.9 1.3 0.3
v 1 1.3 0.3
v 1.1 1.3 0.3
v 1.4 1.3 0.3
v 1.5 1.3 0.3
v -0.8 1.3 0.2
v -0.7 1.3 0.2
v -0.6 1.3 0.2
v -0.5 1.3 0.2
v -0.1 1.3 0.2
v 0 1.3 0.2
v 0.4 1.3 0.2
v 0.5 1.3 0.2
v 0.7 1.3 0.2
v 0.9 1.3 0.2
v 1 1.3 0.2
v 1.1 1.3 0.2
v -1.1 1.3 0.1
v -1 1.3 0.1
v -0.8 1.3 0.1
v -0.4 1.3 0.1
v -0.2 1.3 0.1
v 0.2 1.3 0.1
v 0.3 1.3 0.1
v 0.4 1.3 0.1
v 0.5 1.3 0.1
v 0.7 1.3 0.1
v 0.9 1.3 0.1
v 1 1.3 0.1
v 1.2 1.3 0.1
v 1.3 1.3 0.1
v 1.5 1.3 0.1
v -1.5 1.3 0
v -1.3 1.3 0
v -1.2 1.3 0
v -1 1.3 0
v -0.8 1.3 0
v -0.5 1.3 0
v -0.4 1.3 0
v -0.3 1.3 0
v -0.2 1.3 0
v 0.2 1.3 0
v 0.3 1.3 0
v 0.5 1.3 0
v 0.6 1.3 0
v 0.9 1.3 0
v 1.1 1.3 0
v 1.3 1.3 0
v 1.5 1.3 0
v -1.5 1.3 -0.1
v -1 1.3 -0.1
v -0.9 1.3 -0.1
v -0.4 1.3 -0.1
v -0.3 1.3 -0.1
v 0 1.3 -0.1
v 0.1 1.3 -0.1
v 0.4 1.3 -0.1
v 0.5 1.3 -0.1
v 0.6 1.3 -0.1
v 0.9 1.3 -0.1
v 1.1 1.3 -0.1
v 1.5 1.3 -0.1
v -0.9 1.3 -0.2
v -0.1 1.3 -0.2
v 0 1.3 -0.2
v 0.1 1.3 -0.2
v 0.2 1.3 -0.2
v 0.5 1.3 -0.2
v 0.6 1.3 -0.2
v 0.9 1.3 -0.2
v 1 1.3 -0.2
v 1.1 1.3 -0.2
v 1.5 1.3 -0.2
v -0.1 1.3 -0.3
v 0 1.3 -0.3
v 0.1 1.3 -0.3
v 0.2 1.3 -0.3
v 0.3 1.3 -0.3
v 0.4 1.3 -0.3
v 1.1 1.3 -0.3
v 1.5 1.3 -0.3
v -1 1.3 -0.4
v -0.9 1.3 -0.4
v 0 1.3 -0.4
v 0.1 1.3 -0.4
v 0.3 1.3 -0.4
v 0.5 1.3 -0.4
v 1 1.3 -0.4
v 1.5 1.3 -0.4
v -1 1.4 0.4
v -0.8 1.4 0.4
v -0.4 1.4 0.4
v -0.1 1.4 0.4
v 0 1.4 0.4
v 0.3 1.4 0.4
v 1.3 1.4 0.4
v 1.4 1.4 0.4
v -1.5 1.4 0.3
v -1.3 1.4 0.3
v -0.3 1.4 0.3
v -0.1 1.4 0.3
v 0 1.4 0.3
v 1.4 1.4 0.3
v 1.5 1.4 0.3
v -0.8 1.4 0.2
v -0.7 1.4 0.2
v -0.6 1.4 0.2
v -0.5 1.4 0.2
v 0 1.4 0.2
v 0.1 1.4 0.2
v -1 1.4 0.1
v -0.8 1.4 0.1
v -0.7 1.4 0.1
v -0.6 1.4 0.1
v -0.5 1.4 0.1
v -0.4 1.4 0.1
v -0.3 1.4 0.1
v 0.1 1.4 0.1
v 0.2 1.4 0.1
v 0.3 1.4 0.1
v 1.3 1.4 0.1
v 1.5 1.4 0.1
v -1.5 1.4 0
v -1.3 1.4 0
v -0.8 1.4 0
v -0.7 1.4 0
v -0.6 1.4 0
v -0.5 1.4 0
v -0.4 1.4 0
v -0.1 1.4 0
v 0 1.4 0
v 0.1 1.4 0
v 0.2 1.4 0
v -1.5 1.4 -0.1
v -1 1.4 -0.1
v -0.8 1.4 -0.1
v -0.7 1.4 -0.1
v -0.6 1.4 -0.1
v -0.5 1.4 -0.1
v -0.4 1.4 -0.1
v -0.2 1.4 -0.1
v -0.1 1.4 -0.1
v 0 1.4 -0.1
v 0.1 1.4 -0.1
v 0.2 1.4 -0.1
v 0.6 1.4 -0.1
v 0.9 1.4 -0.1
v -0.5 1.4 -0.2
v -0.2 1.4 -0.2
v -0.1 1.4 -0.2
v 0.5 1.4 -0.2
v 0.6 1.4 -0.2
v 0.9 1.4 -0.2
v 1 1.4 -0.2
v 1.1 1.4 -0.2
v 1.5 1.4 -0.2
v 1.1 1.4 -0.3
v 1.5 1.4 -0.3
v -1.5 1.4 -0.4
v -1 1.4 -0.4
v -0.2 1.4 -0.4
v -0.1 1.4 -0.4
v 0.5 1.4 -0.4
v 0.6 1.4 -0.4
v 0.9 1.4 -0.4
v 1 1.4 -0.4
v -0.3 1.5 0.3
v -0.2 1.5 0.3
v -0.1 1.5 0.3
v 0 1.5 0.3
v -0.7 1.5 0.2
v -0.6 1.5 0.2
v -0.3 1.5 0.2
v -0.2 1.5 0.2
v -0.1 1.5 0.2
v 0 1.5 0.2
v 0.1 1.5 0.2
v -0.8 1.5 0.1
v -0.7 1.5 0.1
v -0.6 1.5 0.1
v -0.5 1.5 0.1
v -0.3 1.5 0.1
v -0.2 1.5 0.1
v -0.1 1.5 0.1
v 0 1.5 0.1
v 0.1 1.5 0.1
v 0.2 1.5 0.1
v -0.8 1.5 0
v -0.7 1.5 0
v -0.6 1.5 0
v -0.5 1.5 0
v -0.3 1.5 0
v -0.2 1.5 0
v -0.1 1.5 0
v 0 1.5 0
v 0.1 1.5 0
v 0.2 1.5 0
v -0.8 1.5 -0.1
v -0.7 1.5 -0.1
v -0.6 1.5 -0.1
v -0.5 1.5 -0.1
v 0 1.5 -0.1
v 0.1 1.5 -0.1
v -0.9 1.5 -0.2
v -0.8 1.5 -0.2
v -0.5 1.5 -0.2
v -0.2 1.5 -0.2
v 0.6 1.5 -0.2
v 0.9 1.5 -0.2
v -0.9 1.5 -0.4
v -0.8 1.5 -0.4
v -0.5 1.5 -0.4
v -0.2 1.5 -0.4
v 0.6 1.5 -0.4
v 0.9 1.5 -0.4
v -0.2 1.6 0.3
v -0.1 1.6 0.3
v -0.3 1.6 0.2
v -0.2 1.6 0.2
v -0.1 1.6 0.2
v 0 1.6 0.2
v -0.3 1.6 0.1
v -0.2 1.6 0.1
v -0.1 1.6 0.1
v 0 1.6 0.1
v -0.2 1.6 0
v -0.1 1.6 0
v -0.8 1.6 -0.2
v -0.5 1.6 -0.2
v -0.8 1.6 -0.4
v -0.5 1.6 -0.4

# faces
f 3/2/1 2/2/1 1/2/1
f 4/2/1 2/2/1 3/2/1
f 7/2/1 6/2/1 5/2/1
f 8/2/1 6/2/1 7/2/1
f 11/1/1 10/1/1 9/1/1
f 12/1/1 10/1/1 11/1/1
f 13/1/1 11/1/1 9/1/1
f 14/1/1 10/1/1 12/1/1
f 15/1/1 13/1/1 9/1/1
f 15/1/1 14/1/1 13/1/1
f 16/1/1 10/1/1 14/1/1
f 16/1/1 14/1/1 15/1/1
f 17/1/1 15/1/1 9/1/1
f 18/1/1 10/1/1 16/1/1
f 19/1/1 17/1/1 9/1/1
f 19/1/1 18/1/1 17/1/1
f 20/1/1 10/1/1 18/1/1
f 20/1/1 18/1/1 19/1/1
f 21/2/1 20/2/1 19/2/1
f 22/2/1 20/2/1 21/2/1
f 23/2/1 20/2/1 22/2/1
f 24/2/1 20/2/1 23/2/1
f 25/2/1 23/2/1 22/2/1
f 26/2/1 23/2/1 25/2/1
f 27/2/1 20/2/1 24/2/1
f 28/2/1 20/2/1 27/2/1
f 35/1/1 30/1/1 29/1/1
f 36/1/1 30/1/1 35/1/1
f 37/1/1 32/1/1 31/1/1
f 38/1/1 32/1/1 37/1/1
f 39/1/1 34/1/1 33/1/1
f 40/1/1 34/1/1 39/1/1
f 43/1/1 42/1/1 41/1/1
f 44/1/1 42/1/1 43/1/1
f 47/2/1 46/2/1 45/2/1
f 48/2/1 46/2/1 47/2/1
f 53/1/1 50/1/1 49/1/1
f 54/1/1 50/1/1 53/1/1
f 56/1/1 52/1/1 51/1/1
f 57/1/1 52/1/1 56/1/1
f 58/1/1 55/1/1 54/1/1
f 58/1/1 54/1/1 53/1/1
f 59/1/1 55/1/1 58/1/1
f 60/1/1 55/1/1 59/1/1
f 63/1/1 62/1/1 61/1/1
f 64/1/1 62/1/1 63/1/1
f 68/2/1 66/2/1 65/2/1
f 69/2/1 66/2/1 68/2/1
f 70/2/1 68/2/1 67/2/1
f 71/2/1 68/2/1 70/2/1
f 74/1/1 73/1/1 72/1/1
f 76/1/1 74/1/1 72/1/1
f 76/1/1 75/1/1 74/1/1
f 77/1/1 75/1/1 76/1/1
f 78/1/1 76/1/1 72/1/1
f 79/1/1 76/1/1 78/1/1
f 82/2/1 81/2/1 80/2/1
f 83/2/1 81/2/1 82/2/1
f 87/1/1 85/1/1 84/1/1
f 88/1/1 85/1/1 87/1/1
f 88/1/1 87/1/1 86/1/1
f 89/1/1 85/1/1 88/1/1
f 90/1/1 88/1/1 86/1/1
f 91/1/1 88/1/1 90/1/1
f 94/2/1 93/2/1 92/2/1
f 95/2/1 93/2/1 94/2/1
f 97/2/1 94/2/1 92/2/1
f 98/2/1 97/2/1 96/2/1
f 99/2/1 94/2/1 97/2/1
f 99/2/1 97/2/1 98/2/1
f 100/2/1 94/2/1 99/2/1
f 101/2/1 99/2/1 98/2/1
f 102/2/1 99/2/1 101/2/1
f 103/2/1 94/2/1 100/2/1
f 104/2/1 94/2/1 103/2/1
f 106/2/1 105/2/1 104/2/1
f 107/2/1 105/2/1 106/2/1
f 112/2/1 109/2/1 108/2/1
f 113/2/1 109/2/1 112/2/1
f 114/2/1 111/2/1 110/2/1
f 115/2/1 111/2/1 114/2/1
f 120/1/1 117/1/1 116/1/1
f 121/1/1 117/1/1 120/1/1
f 122/1/1 119/1/1 118/1/1
f 123/1/1 119/1/1 122/1/1
f 126/1/1 125/1/1 124/1/1
f 127/1/1 125/1/1 126/1/1
f 130/2/1 129/2/1 128/2/1
f 131/2/1 129/2/1 130/2/1
f 134/1/1 133/1/1 132/1/1
f 136/1/1 134/1/1 132/1/1
f 136/1/1 135/1/1 134/1/1
f 137/1/1 135/1/1 136/1/1
f 138/1/1 136/1/1 132/1/1
f 139/1/1 136/1/1 138/1/1
f 142/1/1 141/1/1 140/1/1
f 143/1/1 141/1/1 142/1/1
f 148/1/1 145/1/1 144/1/1
f 149/1/1 145/1/1 148/1/1
f 150/1/1 147/1/1 146/1/1
f 151/1/1 147/1/1 150/1/1
f 154/1/1 153/1/1 152/1/1
f 155/1/1 153/1/1 154/1/1
f 158/2/1 157/2/1 156/2/1
f 159/2/1 157/2/1 158/2/1
f 162/1/1 161/1/1 160/1/1
f 163/1/1 161/1/1 162/1/1
f 168/1/1 165/1/1 164/1/1
f 169/1/1 165/1/1 168/1/1
f 170/1/1 167/1/1 166/1/1
f 172/1/1 170/1/1 166/1/1
f 172/1/1 171/1/1 170/1/1
f 173/1/1 171/1/1 172/1/1
f 174/1/1 172/1/1 166/1/1
f 175/1/1 172/1/1 174/1/1
f 178/2/1 177/2/1 176/2/1
f 179/2/1 177/2/1 178/2/1
f 183/2/1 181/2/1 180/2/1
f 183/2/1 182/2/1 181/2/1
f 184/2/1 182/2/1 183/2/1
f 185/2/1 182/2/1 184/2/1
f 186/2/1 182/2/1 185/2/1
f 187/2/1 185/2/1 184/2/1
f 188/2/1 185/2/1 187/2/1
f 191/1/1 190/1/1 189/1/1
f 192/1/1 190/1/1 191/1/1
f 195/1/1 194/1/1 193/1/1
f 196/1/1 194/1/1 195/1/1
f 199/2/1 198/2/1 197/2/1
f 200/2/1 198/2/1 199/2/1
f 205/2/1 202/2/1 201/2/1
f 206/2/1 202/2/1 205/2/1
f 207/2/1 204/2/1 203/2/1
f 208/2/1 204/2/1 207/2/1
f 211/1/1 210/1/1 209/1/1
f 213/1/1 211/1/1 209/1/1
f 213/1/1 212/1/1 211/1/1
f 214/1/1 212/1/1 213/1/1
f 215/1/1 213/1/1 209/1/1
f 216/1/1 213/1/1 215/1/1
f 219/2/1 218/2/1 217/2/1
f 220/2/1 218/2/1 219/2/1
f 223/2/1 222/2/1 221/2/1
f 224/2/1 222/2/1 223/2/1
f 227/1/1 226/1/1 225/1/1
f 228/1/1 226/1/1 227/1/1
f 231/2/1 230/2/1 229/2/1
f 232/2/1 230/2/1 231/2/1
f 239/2/1 233/2/1 232/2/1
f 239/2/1 234/2/1 233/2/1
f 240/2/1 234/2/1 239/2/1
f 241/2/1 234/2/1 240/2/1
f 242/2/1 236/2/1 235/2/1
f 243/2/1 236/2/1 242/2/1
f 244/2/1 238/2/1 237/2/1
f 245/2/1 238/2/1 244/2/1
f 246/2/1 238/2/1 245/2/1
f 249/2/1 248/2/1 247/2/1
f 250/2/1 248/2/1 249/2/1
f 253/1/1 252/1/1 251/1/1
f 254/1/1 252/1/1 253/1/1
f 257/1/1 256/1/1 255/1/1
f 258/1/1 256/1/1 257/1/1
f 261/1/1 260/1/1 259/1/1
f 263/1/1 261/1/1 259/1/1
f 263/1/1 262/1/1 261/1/1
f 264/1/1 262/1/1 263/1/1
f 265/1/1 263/1/1 259/1/1
f 266/1/1 263/1/1 265/1/1
f 269/1/1 268/1/1 267/1/1
f 270/1/1 268/1/1 269/1/1
f 273/2/1 272/2/1 271/2/1
f 274/2/1 272/2/1 273/2/1
f 275/2/1 272/2/1 274/2/1
f 276/2/1 272/2/1 275/2/1
f 279/1/1 278/1/1 277/1/1
f 280/1/1 278/1/1 279/1/1
f 283/2/1 282/2/1 281/2/1
f 284/2/1 282/2/1 283/2/1
f 285/2/1 282/2/1 284/2/1
f 287/2/1 286/2/1 285/2/1
f 287/2/1 285/2/1 284/2/1
f 288/2/1 286/2/1 287/2/1
f 291/1/1 290/1/1 289/1/1
f 292/1/1 290/1/1 291/1/1
f 295/1/1 294/1/1 293/1/1
f 296/1/1 294/1/1 295/1/1
f 299/1/1 298/1/1 297/1/1
f 300/1/1 298/1/1 299/1/1
f 307/2/1 302/2/1 301/2/1
f 308/2/1 302/2/1 307/2/1
f 309/2/1 304/2/1 303/2/1
f 310/2/1 304/2/1 309/2/1
f 311/2/1 306/2/1 305/2/1
f 312/2/1 306/2/1 311/2/1
f 315/2/1 314/2/1 313/2/1
f 316/2/1 314/2/1 315/2/1
f 321/1/1 318/1/1 317/1/1
f 323/1/1 320/1/1 319/1/1
f 324/1/1 320/1/1 323/1/1
f 325/1/1 322/1/1 321/1/1
f 325/1/1 321/1/1 317/1/1
f 326/1/1 322/1/1 325/1/1
f 329/1/1 325/1/1 317/1/1
f 330/1/1 325/1/1 329/1/1
f 331/1/1 328/1/1 327/1/1
f 332/1/1 328/1/1 331/1/1
f 335/2/1 334/2/1 333/2/1
f 336/2/1 334/2/1 335/2/1
f 338/2/1 337/2/1 336/2/1
f 339/2/1 337/2/1 338/2/1
f 342/1/1 341/1/1 340/1/1
f 343/1/1 341/1/1 342/1/1
f 346/1/1 345/1/1 344/1/1
f 347/1/1 345/1/1 346/1/1
f 350/1/1 349/1/1 348/1/1
f 351/1/1 349/1/1 350/1/1
f 354/1/1 353/1/1 352/1/1
f 355/1/1 353/1/1 354/1/1
f 358/1/1 357/1/1 356/1/1
f 359/1/1 357/1/1 358/1/1
f 362/2/1 361/2/1 360/2/1
f 363/2/1 361/2/1 362/2/1
f 370/2/1 365/2/1 364/2/1
f 371/2/1 365/2/1 370/2/1
f 372/2/1 367/2/1 366/2/1
f 373/2/1 367/2/1 372/2/1
f 374/2/1 369/2/1 368/2/1
f 375/2/1 369/2/1 374/2/1
f 378/1/1 377/1/1 376/1/1
f 379/1/1 377/1/1 378/1/1
f 382/1/1 381/1/1 380/1/1
f 383/1/1 381/1/1 382/1/1
f 386/1/1 385/1/1 384/1/1
f 387/1/1 385/1/1 386/1/1
f 392/1/1 389/1/1 388/1/1
f 393/1/1 389/1/1 392/1/1
f 394/1/1 391/1/1 390/1/1
f 395/1/1 391/1/1 394/1/1
f 398/2/1 397/2/1 396/2/1
f 399/2/1 397/2/1 398/2/1
f 402/1/1 401/1/1 400/1/1
f 404/1/1 402/1/1 400/1/1
f 404/1/1 403/1/1 402/1/1
f 405/1/1 403/1/1 404/1/1
f 406/1/1 404/1/1 400/1/1
f 407/1/1 404/1/1 406/1/1
f 410/2/1 409/2/1 408/2/1
f 411/2/1 409/2/1 410/2/1
f 415/2/1 413/2/1 412/2/1
f 416/2/1 413/2/1 415/2/1
f 417/2/1 415/2/1 414/2/1
f 418/2/1 415/2/1 417/2/1
f 421/1/1 420/1/1 419/1/1
f 422/1/1 420/1/1 421/1/1
f 423/1/2 424/1/2 425/1/2
f 425/1/2 424/1/2 426/1/2
f 427/1/2 428/1/2 430/1/2
f 430/1/2 428/1/2 431/1/2
f 429/1/2 430/1/2 433/1/2
f 431/1/2 432/1/2 433/1/2
f 430/1/2 431/1/2 433/1/2
f 433/1/2 432/1/2 434/1/2
f 434/1/2 432/1/2 435/1/2
f 435/1/2 432/1/2 436/1/2
f 434/1/2 435/1/2 437/1/2
f 437/1/2 435/1/2 438/1/2
f 439/2/2 440/2/2 441/2/2
f 441/2/2 440/2/2 442/2/2
f 442/2/2 443/2/2 444/2/2
f 444/2/2 443/2/2 445/2/2
f 446/1/2 447/1/2 452/1/2
f 452/1/2 447/1/2 453/1/2
f 448/1/2 449/1/2 454/1/2
f 454/1/2 449/1/2 455/1/2
f 450/1/2 451/1/2 456/1/2
f 456/1/2 451/1/2 457/1/2
f 458/1/2 459/1/2 462/1/2
f 460/1/2 461/1/2 463/1/2
f 463/1/2 461/1/2 464/1/2
f 458/1/2 462/1/2 465/1/2
f 465/1/2 462/1/2 466/1/2
f 467/2/2 468/2/2 469/2/2
f 469/2/2 468/2/2 470/2/2
f 473/1/2 474/1/2 475/1/2
f 475/1/2 474/1/2 476/1/2
f 471/1/2 472/1/2 477/1/2
f 477/1/2 472/1/2 478/1/2
f 479/1/2 480/1/2 482/1/2
f 482/1/2 480/1/2 483/1/2
f 481/1/2 482/1/2 484/1/2
f 484/1/2 482/1/2 485/1/2
f 486/2/2 487/2/2 488/2/2
f 488/2/2 487/2/2 489/2/2
f 489/2/2 490/2/2 491/2/2
f 491/2/2 490/2/2 492/2/2
f 493/1/2 494/1/2 496/1/2
f 496/1/2 494/1/2 497/1/2
f 495/1/2 496/1/2 498/1/2
f 498/1/2 496/1/2 499/1/2
f 500/2/2 501/2/2 502/2/2
f 502/2/2 501/2/2 503/2/2
f 500/2/2 502/2/2 504/2/2
f 504/2/2 502/2/2 505/2/2
f 506/1/2 507/1/2 508/1/2
f 506/1/2 508/1/2 510/1/2
f 508/1/2 509/1/2 510/1/2
f 510/1/2 509/1/2 511/1/2
f 506/1/2 510/1/2 512/1/2
f 512/1/2 510/1/2 513/1/2
f 514/2/2 515/2/2 516/2/2
f 514/2/2 516/2/2 518/2/2
f 516/2/2 517/2/2 518/2/2
f 518/2/2 517/2/2 519/2/2
f 520/1/2 521/1/2 524/1/2
f 524/1/2 521/1/2 525/1/2
f 522/1/2 523/1/2 526/1/2
f 526/1/2 523/1/2 527/1/2
f 528/1/2 529/1/2 530/1/2
f 530/1/2 529/1/2 531/1/2
f 532/1/2 533/1/2 534/1/2
f 534/1/2 533/1/2 535/1/2
f 536/1/2 537/1/2 538/1/2
f 536/1/2 538/1/2 540/1/2
f 538/1/2 539/1/2 540/1/2
f 540/1/2 539/1/2 541/1/2
f 536/1/2 540/1/2 542/1/2
f 542/1/2 540/1/2 543/1/2
f 544/2/2 545/2/2 546/2/2
f 546/2/2 545/2/2 547/2/2
f 548/1/2 549/1/2 551/1/2
f 551/1/2 549/1/2 552/1/2
f 550/1/2 551/1/2 553/1/2
f 553/1/2 551/1/2 554/1/2
f 555/1/2 556/1/2 557/1/2
f 557/1/2 556/1/2 558/1/2
f 559/1/2 560/1/2 561/1/2
f 561/1/2 560/1/2 562/1/2
f 563/2/2 564/2/2 567/2/2
f 567/2/2 564/2/2 568/2/2
f 565/2/2 566/2/2 569/2/2
f 569/2/2 566/2/2 570/2/2
f 571/2/2 572/2/2 573/2/2
f 573/2/2 572/2/2 574/2/2
f 574/2/2 572/2/2 575/2/2
f 574/2/2 575/2/2 578/2/2
f 578/2/2 575/2/2 579/2/2
f 576/2/2 577/2/2 580/2/2
f 580/2/2 577/2/2 581/2/2
f 581/2/2 582/2/2 583/2/2
f 583/2/2 582/2/2 584/2/2
f 585/1/2 586/1/2 587/1/2
f 585/1/2 587/1/2 589/1/2
f 587/1/2 588/1/2 589/1/2
f 589/1/2 588/1/2 590/1/2
f 585/1/2 589/1/2 591/1/2
f 591/1/2 589/1/2 592/1/2
f 593/2/2 594/2/2 595/2/2
f 595/2/2 594/2/2 596/2/2
f 597/1/2 598/1/2 599/1/2
f 599/1/2 598/1/2 600/1/2
f 601/1/2 602/1/2 603/1/2
f 603/1/2 602/1/2 604/1/2
f 605/2/2 606/2/2 607/2/2
f 607/2/2 606/2/2 608/2/2
f 609/1/2 610/1/2 611/1/2
f 611/1/2 610/1/2 612/1/2
f 613/1/2 614/1/2 615/1/2
f 615/1/2 614/1/2 616/1/2
f 617/2/2 618/2/2 619/2/2
f 619/2/2 618/2/2 620/2/2
f 620/2/2 621/2/2 622/2/2
f 622/2/2 621/2/2 623/2/2
f 624/1/2 625/1/2 626/1/2
f 626/1/2 625/1/2 627/1/2
f 628/1/2 629/1/2 630/1/2
f 628/1/2 630/1/2 632/1/2
f 630/1/2 631/1/2 632/1/2
f 632/1/2 631/1/2 633/1/2
f 628/1/2 632/1/2 634/1/2
f 634/1/2 632/1/2 635/1/2
f 636/2/2 637/2/2 638/2/2
f 638/2/2 637/2/2 639/2/2
f 640/2/2 641/2/2 645/2/2
f 642/2/2 643/2/2 646/2/2
f 646/2/2 643/2/2 647/2/2
f 647/2/2 643/2/2 648/2/2
f 644/2/2 645/2/2 649/2/2
f 645/2/2 641/2/2 650/2/2
f 649/2/2 645/2/2 650/2/2
f 651/2/2 652/2/2 655/2/2
f 655/2/2 652/2/2 656/2/2
f 653/2/2 654/2/2 657/2/2
f 657/2/2 654/2/2 658/2/2
f 659/1/2 660/1/2 661/1/2
f 661/1/2 660/1/2 662/1/2
f 663/1/2 664/1/2 667/1/2
f 667/1/2 664/1/2 668/1/2
f 665/1/2 666/1/2 669/1/2
f 669/1/2 666/1/2 670/1/2
f 671/1/2 672/1/2 673/1/2
f 673/1/2 672/1/2 674/1/2
f 675/2/2 676/2/2 677/2/2
f 677/2/2 676/2/2 678/2/2
f 678/2/2 679/2/2 680/2/2
f 680/2/2 679/2/2 681/2/2
f 682/2/2 683/2/2 687/2/2
f 683/2/2 684/2/2 687/2/2
f 687/2/2 684/2/2 688/2/2
f 688/2/2 684/2/2 689/2/2
f 685/2/2 686/2/2 690/2/2
f 690/2/2 686/2/2 691/2/2
f 692/2/2 693/2/2 696/2/2
f 696/2/2 693/2/2 697/2/2
f 694/2/2 695/2/2 698/2/2
f 698/2/2 695/2/2 699/2/2
f 700/1/2 701/1/2 702/1/2
f 702/1/2 701/1/2 703/1/2
f 704/2/2 705/2/2 706/2/2
f 706/2/2 705/2/2 707/2/2
f 707/2/2 705/2/2 708/2/2
f 708/2/2 705/2/2 709/2/2
f 707/2/2 708/2/2 713/2/2
f 713/2/2 708/2/2 714/2/2
f 711/2/2 712/2/2 715/2/2
f 710/2/2 711/2/2 715/2/2
f 715/2/2 712/2/2 716/2/2
f 716/2/2 712/2/2 717/2/2
f 715/2/2 716/2/2 718/2/2
f 718/2/2 716/2/2 719/2/2
f 720/1/2 721/1/2 722/1/2
f 720/1/2 722/1/2 724/1/2
f 722/1/2 723/1/2 724/1/2
f 724/1/2 723/1/2 725/1/2
f 720/1/2 724/1/2 726/1/2
f 726/1/2 724/1/2 727/1/2
f 728/1/2 729/1/2 730/1/2
f 730/1/2 729/1/2 731/1/2
f 732/2/2 733/2/2 735/2/2
f 735/2/2 733/2/2 736/2/2
f 734/2/2 735/2/2 737/2/2
f 737/2/2 735/2/2 738/2/2
f 739/1/2 740/1/2 741/1/2
f 741/1/2 740/1/2 742/1/2
f 743/1/2 744/1/2 745/1/2
f 745/1/2 744/1/2 746/1/2
f 747/2/2 748/2/2 751/2/2
f 751/2/2 748/2/2 752/2/2
f 749/2/2 750/2/2 753/2/2
f 753/2/2 750/2/2 754/2/2
f 755/1/2 756/1/2 757/1/2
f 757/1/2 756/1/2 758/1/2
f 759/1/2 760/1/2 761/1/2
f 761/1/2 760/1/2 762/1/2
f 763/1/2 764/1/2 765/1/2
f 763/1/2 765/1/2 767/1/2
f 765/1/2 766/1/2 767/1/2
f 767/1/2 766/1/2 768/1/2
f 763/1/2 767/1/2 769/1/2
f 769/1/2 767/1/2 770/1/2
f 771/2/2 772/2/2 773/2/2
f 773/2/2 772/2/2 774/2/2
f 775/1/2 776/1/2 777/1/2
f 777/1/2 776/1/2 778/1/2
f 779/1/2 780/1/2 781/1/2
f 781/1/2 780/1/2 782/1/2
f 783/1/2 784/1/2 785/1/2
f 785/1/2 784/1/2 786/1/2
f 787/2/2 788/2/2 793/2/2
f 793/2/2 788/2/2 794/2/2
f 789/2/2 790/2/2 795/2/2
f 795/2/2 790/2/2 796/2/2
f 791/2/2 792/2/2 797/2/2
f 797/2/2 792/2/2 798/2/2
f 799/1/2 800/1/2 801/1/2
f 801/1/2 800/1/2 802/1/2
f 803/2/2 804/2/2 805/2/2
f 805/2/2 804/2/2 806/2/2
f 806/2/2 807/2/2 808/2/2
f 808/2/2 807/2/2 809/2/2
f 810/1/2 811/1/2 812/1/2
f 812/1/2 811/1/2 813/1/2
f 814/1/2 815/1/2 818/1/2
f 818/1/2 815/1/2 819/1/2
f 816/1/2 817/1/2 820/1/2
f 820/1/2 817/1/2 821/1/2
f 822/2/2 823/2/2 826/2/2
f 826/2/2 823/2/2 827/2/2
f 824/2/2 825/2/2 828/2/2
f 828/2/2 825/2/2 829/2/2
f 830/2/2 831/2/2 832/2/2
f 832/2/2 831/2/2 833/2/2
f 834/2/2 835/2/2 836/2/2
f 836/2/2 835/2/2 837/2/2
f 837/2/2 835/2/2 838/2/2
f 838/2/2 835/2/2 839/2/2
f 837/2/2 838/2/2 842/2/2
f 842/2/2 838/2/2 843/2/2
f 840/2/2 841/2/2 844/2/2
f 844/2/2 841/2/2 845/2/2
f 846/2/2 847/2/2 848/2/2
f 848/2/2 847/2/2 849/2/2
f 850/2/2 851/2/2 852/2/2
f 852/2/2 851/2/2 853/2/2
f 854/1/2 855/1/2 856/1/2
f 856/1/2 855/1/2 857/1/2
f 854/1/2 856/1/2 858/1/2
f 857/1/2 855/1/2 859/1/2
f 854/1/2 858/1/2 860/1/2
f 858/1/2 859/1/2 860/1/2
f 859/1/2 855/1/2 861/1/2
f 860/1/2 859/1/2 861/1/2
f 854/1/2 860/1/2 862/1/2
f 861/1/2 855/1/2 863/1/2
f 854/1/2 862/1/2 864/1/2
f 862/1/2 863/1/2 864/1/2
f 864/1/2 863/1/2 865/1/2
f 863/1/2 855/1/2 866/1/2
f 865/1/2 863/1/2 866/1/2
f 866/1/2 855/1/2 867/1/2
f 864/2/2 865/2/2 868/2/2
f 868/2/2 865/2/2 869/2/2
f 869/2/2 865/2/2 870/2/2
f 870/2/2 865/2/2 871/2/2
f 866/2/2 867/2/2 872/2/2
f 872/2/2 867/2/2 873/2/2
f 873/2/2 867/2/2 874/2/2
f 874/2/2 867/2/2 875/2/2
f 869/2/2 870/2/2 876/2/2
f 876/2/2 870/2/2 877/2/2
f 873/2/2 874/2/2 878/2/2
f 878/2/2 874/2/2 879/2/2
f 880/2/2 881/2/2 882/2/2
f 882/2/2 881/2/2 883/2/2
f 884/2/2 885/2/2 886/2/2
f 886/2/2 885/2/2 887/2/2
f 891/1/3 889/1/3 888/1/3
f 892/1/3 889/1/3 891/1/3
f 893/2/3 890/2/3 889/2/3
f 893/1/3 889/1/3 892/1/3
f 894/2/3 890/2/3 893/2/3
f 895/1/3 891/1/3 888/1/3
f 896/1/3 891/1/3 895/1/3
f 897/1/3 893/1/3 892/1/3
f 898/1/3 893/1/3 897/1/3
f 899/1/3 895/1/3 888/1/3
f 901/1/3 893/1/3 898/1/3
f 903/2/3 902/2/3 901/2/3
f 905/1/3 900/1/3 899/1/3
f 906/1/3 901/1/3 898/1/3
f 907/1/3 899/1/3 888/1/3
f 907/1/3 906/1/3 905/1/3
f 907/1/3 905/1/3 899/1/3
f 908/1/3 906/1/3 907/1/3
f 909/2/3 903/2/3 901/2/3
f 909/2/3 904/2/3 903/2/3
f 910/2/3 904/2/3 909/2/3
f 911/1/3 906/1/3 908/1/3
f 912/1/3 901/1/3 906/1/3
f 912/1/3 906/1/3 911/1/3
f 913/1/3 907/1/3 888/1/3
f 914/1/3 911/1/3 908/1/3
f 915/2/3 909/2/3 901/2/3
f 917/1/3 914/1/3 913/1/3
f 918/1/3 911/1/3 914/1/3
f 918/1/3 914/1/3 917/1/3
f 919/1/3 911/1/3 918/1/3
f 920/1/3 901/1/3 912/1/3
f 921/2/3 916/2/3 915/2/3
f 923/1/3 917/1/3 913/1/3
f 924/1/3 920/1/3 919/1/3
f 924/1/3 919/1/3 918/1/3
f 925/1/3 920/1/3 924/1/3
f 926/1/3 901/1/3 920/1/3
f 926/1/3 920/1/3 925/1/3
f 927/2/3 922/2/3 921/2/3
f 927/2/3 921/2/3 915/2/3
f 928/2/3 922/2/3 927/2/3
f 929/2/3 927/2/3 915/2/3
f 931/1/3 925/1/3 924/1/3
f 931/1/3 924/1/3 923/1/3
f 932/1/3 901/1/3 926/1/3
f 933/1/3 923/1/3 913/1/3
f 933/1/3 932/1/3 931/1/3
f 933/1/3 931/1/3 923/1/3
f 934/1/3 932/1/3 933/1/3
f 935/2/3 930/2/3 929/2/3
f 935/2/3 929/2/3 915/2/3
f 936/2/3 930/2/3 935/2/3
f 937/2/3 915/2/3 901/2/3
f 937/2/3 935/2/3 915/2/3
f 938/2/3 935/2/3 937/2/3
f 939/2/3 937/2/3 901/2/3
f 941/1/3 933/1/3 913/1/3
f 942/1/3 932/1/3 934/1/3
f 943/1/3 932/1/3 942/1/3
f 944/2/3 940/2/3 939/2/3
f 944/2/3 939/2/3 901/2/3
f 945/2/3 940/2/3 944/2/3
f 946/2/3 944/2/3 901/2/3
f 948/2/3 946/2/3 901/2/3
f 948/2/3 947/2/3 946/2/3
f 949/2/3 947/2/3 948/2/3
f 950/1/3 901/1/3 932/1/3
f 950/1/3 932/1/3 943/1/3
f 950/2/3 948/2/3 901/2/3
f 951/2/3 948/2/3 950/2/3
f 952/1/3 942/1/3 941/1/3
f 953/1/3 950/1/3 943/1/3
f 954/1/3 950/1/3 953/1/3
f 956/2/3 955/2/3 954/2/3
f 958/2/3 956/2/3 954/2/3
f 958/2/3 957/2/3 956/2/3
f 959/2/3 957/2/3 958/2/3
f 960/1/3 952/1/3 941/1/3
f 960/1/3 913/1/3 888/1/3
f 960/1/3 941/1/3 913/1/3
f 960/1/3 953/1/3 952/1/3
f 960/1/3 954/1/3 953/1/3
f 961/2/3 958/2/3 954/2/3
f 961/1/3 954/1/3 960/1/3
f 962/2/3 958/2/3 961/2/3
f 966/2/3 964/2/3 963/2/3
f 967/2/3 964/2/3 966/2/3
f 970/2/3 966/2/3 965/2/3
f 971/2/3 966/2/3 970/2/3
f 972/1/3 969/1/3 968/1/3
f 973/1/3 969/1/3 972/1/3
f 978/1/3 975/1/3 974/1/3
f 979/1/3 975/1/3 978/1/3
f 980/1/3 977/1/3 976/1/3
f 981/1/3 977/1/3 980/1/3
f 988/1/3 983/1/3 982/1/3
f 989/1/3 983/1/3 988/1/3
f 990/1/3 985/1/3 984/1/3
f 991/1/3 985/1/3 990/1/3
f 996/2/3 987/2/3 986/2/3
f 997/2/3 987/2/3 996/2/3
f 1002/1/3 993/1/3 992/1/3
f 1003/1/3 993/1/3 1002/1/3
f 1004/1/3 995/1/3 994/1/3
f 1005/1/3 995/1/3 1004/1/3
f 1008/1/3 999/1/3 998/1/3
f 1009/1/3 999/1/3 1008/1/3
f 1010/1/3 1001/1/3 1000/1/3
f 1011/1/3 1001/1/3 1010/1/3
f 1016/2/3 1007/2/3 1006/2/3
f 1017/2/3 1007/2/3 1016/2/3
f 1022/1/3 1013/1/3 1012/1/3
f 1023/1/3 1013/1/3 1022/1/3
f 1024/1/3 1015/1/3 1014/1/3
f 1025/1/3 1015/1/3 1024/1/3
f 1026/1/3 1019/1/3 1018/1/3
f 1027/1/3 1019/1/3 1026/1/3
f 1028/1/3 1021/1/3 1020/1/3
f 1029/1/3 1021/1/3 1028/1/3
f 1036/2/3 1031/2/3 1030/2/3
f 1038/1/3 1033/1/3 1032/1/3
f 1039/1/3 1033/1/3 1038/1/3
f 1040/1/3 1035/1/3 1034/1/3
f 1041/1/3 1035/1/3 1040/1/3
f 1046/2/3 1037/2/3 1036/2/3
f 1046/2/3 1036/2/3 1030/2/3
f 1047/2/3 1037/2/3 1046/2/3
f 1048/2/3 1037/2/3 1047/2/3
f 1049/1/3 1043/1/3 1042/1/3
f 1050/1/3 1043/1/3 1049/1/3
f 1051/1/3 1045/1/3 1044/1/3
f 1052/1/3 1045/1/3 1051/1/3
f 1053/2/3 1047/2/3 1046/2/3
f 1054/2/3 1047/2/3 1053/2/3
f 1059/1/3 1056/1/3 1055/1/3
f 1060/1/3 1056/1/3 1059/1/3
f 1061/1/3 1058/1/3 1057/1/3
f 1062/1/3 1058/1/3 1061/1/3
f 1067/1/3 1064/1/3 1063/1/3
f 1068/1/3 1064/1/3 1067/1/3
f 1069/1/3 1066/1/3 1065/1/3
f 1070/1/3 1066/1/3 1069/1/3
f 1077/2/3 1072/2/3 1071/2/3
f 1078/2/3 1072/2/3 1077/2/3
f 1079/1/3 1074/1/3 1073/1/3
f 1080/1/3 1074/1/3 1079/1/3
f 1081/1/3 1076/1/3 1075/1/3
f 1082/1/3 1076/1/3 1081/1/3
f 1086/1/3 1083/1/3 1082/1/3
f 1087/1/3 1083/1/3 1086/1/3
f 1088/1/3 1085/1/3 1084/1/3
f 1089/1/3 1085/1/3 1088/1/3
f 1096/2/3 1091/2/3 1090/2/3
f 1097/2/3 1091/2/3 1096/2/3
f 1098/1/3 1093/1/3 1092/1/3
f 1099/1/3 1093/1/3 1098/1/3
f 1100/1/3 1095/1/3 1094/1/3
f 1101/1/3 1095/1/3 1100/1/3
f 1108/2/3 1103/2/3 1102/2/3
f 1109/2/3 1103/2/3 1108/2/3
f 1110/1/3 1105/1/3 1104/1/3
f 1111/1/3 1105/1/3 1110/1/3
f 1112/1/3 1107/1/3 1106/1/3
f 1113/1/3 1107/1/3 1112/1/3
f 1116/2/3 1115/2/3 1114/2/3
f 1117/2/3 1115/2/3 1116/2/3
f 1122/1/3 1119/1/3 1118/1/3
f 1123/1/3 1119/1/3 1122/1/3
f 1124/1/3 1121/1/3 1120/1/3
f 1125/1/3 1121/1/3 1124/1/3
f 1131/1/3 1127/1/3 1126/1/3
f 1132/1/3 1127/1/3 1131/1/3
f 1133/1/3 1129/1/3 1128/1/3
f 1133/1/3 1130/1/3 1129/1/3
f 1134/1/3 1130/1/3 1133/1/3
f 1135/1/3 1130/1/3 1134/1/3
f 1136/1/3 1134/1/3 1133/1/3
f 1137/1/3 1134/1/3 1136/1/3
f 1143/1/3 1139/1/3 1138/1/3
f 1144/1/3 1139/1/3 1143/1/3
f 1149/2/3 1141/2/3 1140/2/3
f 1150/2/3 1141/2/3 1149/2/3
f 1152/1/3 1143/1/3 1142/1/3
f 1152/1/3 1144/1/3 1143/1/3
f 1152/1/3 1145/1/3 1144/1/3
f 1153/1/3 1145/1/3 1152/1/3
f 1154/1/3 1145/1/3 1153/1/3
f 1155/1/3 1145/1/3 1154/1/3
f 1157/1/3 1147/1/3 1146/1/3
f 1158/1/3 1147/1/3 1157/1/3
f 1160/2/3 1151/2/3 1150/2/3
f 1160/2/3 1150/2/3 1149/2/3
f 1160/2/3 1149/2/3 1148/2/3
f 1161/2/3 1151/2/3 1160/2/3
f 1162/2/3 1151/2/3 1161/2/3
f 1163/2/3 1151/2/3 1162/2/3
f 1164/1/3 1154/1/3 1153/1/3
f 1165/1/3 1154/1/3 1164/1/3
f 1166/1/3 1159/1/3 1158/1/3
f 1166/1/3 1158/1/3 1157/1/3
f 1166/1/3 1157/1/3 1156/1/3
f 1167/1/3 1159/1/3 1166/1/3
f 1168/1/3 1159/1/3 1167/1/3
f 1169/1/3 1159/1/3 1168/1/3
f 1170/2/3 1162/2/3 1161/2/3
f 1171/2/3 1162/2/3 1170/2/3
f 1174/1/3 1168/1/3 1167/1/3
f 1175/1/3 1168/1/3 1174/1/3
f 1177/1/3 1173/1/3 1172/1/3
f 1178/1/3 1173/1/3 1177/1/3
f 1182/1/3 1177/1/3 1176/1/3
f 1182/1/3 1179/1/3 1178/1/3
f 1182/1/3 1178/1/3 1177/1/3
f 1183/1/3 1179/1/3 1182/1/3
f 1184/1/3 1179/1/3 1183/1/3
f 1185/1/3 1179/1/3 1184/1/3
f 1186/2/3 1181/2/3 1180/2/3
f 1187/2/3 1181/2/3 1186/2/3
f 1188/1/3 1184/1/3 1183/1/3
f 1189/1/3 1184/1/3 1188/1/3
f 1197/1/3 1191/1/3 1190/1/3
f 1198/1/3 1191/1/3 1197/1/3
f 1200/2/3 1193/2/3 1192/2/3
f 1201/2/3 1193/2/3 1200/2/3
f 1202/2/3 1195/2/3 1194/2/3
f 1203/2/3 1195/2/3 1202/2/3
f 1204/1/3 1199/1/3 1198/1/3
f 1204/1/3 1197/1/3 1196/1/3
f 1204/1/3 1198/1/3 1197/1/3
f 1205/1/3 1199/1/3 1204/1/3
f 1206/1/3 1199/1/3 1205/1/3
f 1207/1/3 1199/1/3 1206/1/3
f 1208/2/3 1202/2/3 1201/2/3
f 1209/2/3 1202/2/3 1208/2/3
f 1210/1/3 1206/1/3 1205/1/3
f 1211/1/3 1206/1/3 1210/1/3
f 1215/1/3 1213/1/3 1212/1/3
f 1216/1/3 1213/1/3 1215/1/3
f 1218/1/3 1215/1/3 1214/1/3
f 1218/1/3 1217/1/3 1216/1/3
f 1218/1/3 1216/1/3 1215/1/3
f 1219/1/3 1217/1/3 1218/1/3
f 1220/1/3 1217/1/3 1219/1/3
f 1221/1/3 1217/1/3 1220/1/3
f 1222/1/3 1220/1/3 1219/1/3
f 1223/1/3 1220/1/3 1222/1/3
f 1227/1/3 1225/1/3 1224/1/3
f 1228/1/3 1225/1/3 1227/1/3
f 1230/1/3 1227/1/3 1226/1/3
f 1230/1/3 1229/1/3 1228/1/3
f 1230/1/3 1228/1/3 1227/1/3
f 1231/1/3 1229/1/3 1230/1/3
f 1232/1/3 1229/1/3 1231/1/3
f 1233/1/3 1229/1/3 1232/1/3
f 1235/1/3 1232/1/3 1231/1/3
f 1236/1/3 1232/1/3 1235/1/3
f 1238/1/3 1235/1/3 1234/1/3
f 1238/1/3 1237/1/3 1236/1/3
f 1238/1/3 1236/1/3 1235/1/3
f 1239/1/3 1237/1/3 1238/1/3
f 1240/1/3 1237/1/3 1239/1/3
f 1241/1/3 1237/1/3 1240/1/3
f 1242/1/3 1240/1/3 1239/1/3
f 1243/1/3 1240/1/3 1242/1/3
f 1248/2/3 1245/2/3 1244/2/3
f 1249/2/3 1245/2/3 1248/2/3
f 1250/2/3 1247/2/3 1246/2/3
f 1251/2/3 1247/2/3 1250/2/3
f 1255/1/3 1253/1/3 1252/1/3
f 1256/1/3 1253/1/3 1255/1/3
f 1258/1/3 1255/1/3 1254/1/3
f 1258/1/3 1257/1/3 1256/1/3
f 1258/1/3 1256/1/3 1255/1/3
f 1259/1/3 1257/1/3 1258/1/3
f 1260/1/3 1257/1/3 1259/1/3
f 1261/1/3 1257/1/3 1260/1/3
f 1262/1/3 1260/1/3 1259/1/3
f 1263/1/3 1260/1/3 1262/1/3
f 1266/2/3 1265/2/3 1264/2/3
f 1267/2/3 1265/2/3 1266/2/3
f 1270/2/3 1269/2/3 1268/2/3
f 1271/2/3 1269/2/3 1270/2/3
f 1274/2/3 1273/2/3 1272/2/3
f 1275/2/3 1273/2/3 1274/2/3
f 1280/2/3 1277/2/3 1276/2/3
f 1281/2/3 1277/2/3 1280/2/3
f 1282/2/3 1279/2/3 1278/2/3
f 1283/2/3 1279/2/3 1282/2/3
f 1286/2/3 1285/2/3 1284/2/3
f 1287/2/3 1285/2/3 1286/2/3
f 1290/2/3 1289/2/3 1288/2/3
f 1291/2/3 1289/2/3 1290/2/3
f 1294/2/3 1293/2/3 1292/2/3
f 1296/2/3 1294/2/3 1292/2/3
f 1296/2/3 1295/2/3 1294/2/3
f 1297/2/3 1295/2/3 1296/2/3
f 1298/2/3 1296/2/3 1292/2/3
f 1299/2/3 1296/2/3 1298/2/3
f 1302/2/3 1301/2/3 1300/2/3
f 1304/2/3 1302/2/3 1300/2/3
f 1304/2/3 1303/2/3 1302/2/3
f 1305/2/3 1303/2/3 1304/2/3
f 1306/2/3 1304/2/3 1300/2/3
f 1307/2/3 1304/2/3 1306/2/3
f 1311/2/3 1309/2/3 1308/2/3
f 1312/2/3 1309/2/3 1311/2/3
f 1313/2/3 1311/2/3 1310/2/3
f 1314/2/3 1311/2/3 1313/2/3
f 1317/2/3 1316/2/3 1315/2/3
f 1318/2/3 1316/2/3 1317/2/3
f 1321/2/3 1320/2/3 1319/2/3
f 1322/2/3 1320/2/3 1321/2/3
f 1326/2/3 1324/2/3 1323/2/3
f 1327/2/3 1326/2/3 1325/2/3
f 1328/2/3 1324/2/3 1326/2/3
f 1328/2/3 1326/2/3 1327/2/3
f 1331/2/3 1330/2/3 1329/2/3
f 1332/2/3 1331/2/3 1329/2/3
f 1333/2/3 1332/2/3 1329/2/3
f 1334/2/3 1332/2/3 1333/2/3
f 1337/2/3 1336/2/3 1335/2/3
f 1338/2/3 1336/2/3 1337/2/3
f 1343/2/3 1340/2/3 1339/2/3
f 1343/2/3 1341/2/3 1340/2/3
f 1344/2/3 1343/2/3 1342/2/3
f 1345/2/3 1341/2/3 1343/2/3
f 1345/2/3 1343/2/3 1344/2/3
f 1346/2/3 1341/2/3 1345/2/3
f 1347/2/3 1341/2/3 1346/2/3
f 1348/2/3 1341/2/3 1347/2/3
f 1352/2/3 1350/2/3 1349/2/3
f 1353/2/3 1352/2/3 1351/2/3
f 1354/2/3 1350/2/3 1352/2/3
f 1354/2/3 1352/2/3 1353/2/3
f 1358/2/3 1356/2/3 1355/2/3
f 1358/2/3 1357/2/3 1356/2/3
f 1359/2/3 1357/2/3 1358/2/3
f 1362/2/3 1360/2/3 1359/2/3
f 1363/2/3 1360/2/3 1362/2/3
f 1365/2/3 1362/2/3 1361/2/3
f 1366/2/3 1362/2/3 1365/2/3
f 1367/2/3 1365/2/3 1364/2/3
f 1368/2/3 1365/2/3 1367/2/3
f 1369/2/3 1365/2/3 1368/2/3
f 1370/2/3 1365/2/3 1369/2/3
f 1371/2/3 1369/2/3 1368/2/3
f 1372/2/3 1369/2/3 1371/2/3
f 1375/2/3 1374/2/3 1373/2/3
f 1376/2/3 1374/2/3 1375/2/3
f 1379/2/3 1378/2/3 1377/2/3
f 1380/2/3 1378/2/3 1379/2/3
f 1383/2/3 1382/2/3 1381/2/3
f 1384/2/3 1382/2/3 1383/2/3
f 1387/2/3 1385/2/3 1384/2/3
f 1388/2/3 1385/2/3 1387/2/3
f 1389/2/3 1387/2/3 1386/2/3
f 1390/2/3 1387/2/3 1389/2/3
f 1393/2/3 1392/2/3 1391/2/3
f 1394/2/3 1392/2/3 1393/2/3
f 1397/2/3 1396/2/3 1395/2/3
f 1398/2/3 1396/2/3 1397/2/3
f 1399/1/4 1400/1/4 1403/1/4
f 1403/1/4 1400/1/4 1404/1/4
f 1401/1/4 1402/1/4 1405/1/4
f 1405/1/4 1402/1/4 1406/1/4
f 1407/1/4 1408/1/4 1409/1/4
f 1409/1/4 1408/1/4 1410/1/4
f 1411/2/4 1412/2/4 1413/2/4
f 1413/2/4 1412/2/4 1414/2/4
f 1415/2/4 1416/2/4 1417/2/4
f 1417/2/4 1416/2/4 1418/2/4
f 1419/2/4 1420/2/4 1421/2/4
f 1421/2/4 1420/2/4 1422/2/4
f 1423/2/4 1424/2/4 1425/2/4
f 1425/2/4 1424/2/4 1426/2/4
f 1426/2/4 1427/2/4 1428/2/4
f 1428/2/4 1427/2/4 1429/2/4
f 1430/2/4 1431/2/4 1432/2/4
f 1430/2/4 1432/2/4 1435/2/4
f 1435/2/4 1432/2/4 1436/2/4
f 1433/2/4 1434/2/4 1437/2/4
f 1437/2/4 1434/2/4 1438/2/4
f 1439/2/4 1440/2/4 1443/2/4
f 1443/2/4 1440/2/4 1444/2/4
f 1441/2/4 1442/2/4 1445/2/4
f 1445/2/4 1442/2/4 1446/2/4
f 1447/2/4 1448/2/4 1450/2/4
f 1450/2/4 1448/2/4 1451/2/4
f 1449/2/4 1450/2/4 1452/2/4
f 1452/2/4 1450/2/4 1453/2/4
f 1449/2/4 1452/2/4 1454/2/4
f 1449/2/4 1454/2/4 1456/2/4
f 1454/2/4 1455/2/4 1456/2/4
f 1456/2/4 1455/2/4 1457/2/4
f 1449/2/4 1456/2/4 1458/2/4
f 1449/2/4 1458/2/4 1460/2/4
f 1458/2/4 1459/2/4 1460/2/4
f 1460/2/4 1459/2/4 1461/2/4
f 1449/2/4 1460/2/4 1462/2/4
f 1462/2/4 1460/2/4 1463/2/4
f 1464/2/4 1465/2/4 1466/2/4
f 1466/2/4 1465/2/4 1467/2/4
f 1467/2/4 1468/2/4 1469/2/4
f 1469/2/4 1468/2/4 1470/2/4
f 1471/2/4 1472/2/4 1473/2/4
f 1473/2/4 1472/2/4 1474/2/4
f 1475/2/4 1476/2/4 1477/2/4
f 1477/2/4 1476/2/4 1478/2/4
f 1479/2/4 1480/2/4 1481/2/4
f 1481/2/4 1480/2/4 1482/2/4
f 1483/2/4 1484/2/4 1485/2/4
f 1485/2/4 1484/2/4 1486/2/4
f 1487/2/4 1488/2/4 1491/2/4
f 1489/2/4 1490/2/4 1492/2/4
f 1492/2/4 1490/2/4 1493/2/4
f 1492/2/4 1493/2/4 1495/2/4
f 1493/2/4 1494/2/4 1495/2/4
f 1491/2/4 1492/2/4 1495/2/4
f 1487/2/4 1491/2/4 1495/2/4
f 1495/2/4 1494/2/4 1496/2/4
f 1496/2/4 1494/2/4 1497/2/4
f 1497/2/4 1494/2/4 1498/2/4
f 1498/2/4 1494/2/4 1499/2/4
f 1499/2/4 1494/2/4 1500/2/4
f 1496/2/4 1497/2/4 1502/2/4
f 1502/2/4 1497/2/4 1503/2/4
f 1498/2/4 1499/2/4 1504/2/4
f 1504/2/4 1499/2/4 1505/2/4
f 1501/2/4 1502/2/4 1506/2/4
f 1506/2/4 1507/2/4 1510/2/4
f 1508/2/4 1509/2/4 1511/2/4
f 1511/2/4 1509/2/4 1512/2/4
f 1501/2/4 1506/2/4 1513/2/4
f 1506/2/4 1510/2/4 1513/2/4
f 1513/2/4 1510/2/4 1514/2/4
f 1515/2/4 1516/2/4 1517/2/4
f 1517/2/4 1516/2/4 1518/2/4
f 1519/2/4 1520/2/4 1523/2/4
f 1523/2/4 1520/2/4 1524/2/4
f 1521/2/4 1522/2/4 1525/2/4
f 1525/2/4 1522/2/4 1526/2/4
f 1527/2/4 1528/2/4 1529/2/4
f 1529/2/4 1528/2/4 1530/2/4
f 1529/2/4 1530/2/4 1532/2/4
f 1530/2/4 1531/2/4 1532/2/4
f 1532/2/4 1531/2/4 1533/2/4
f 1533/2/4 1531/2/4 1534/2/4
f 1532/2/4 1533/2/4 1535/2/4
f 1535/2/4 1533/2/4 1536/2/4
f 1537/2/4 1538/2/4 1541/2/4
f 1541/2/4 1538/2/4 1542/2/4
f 1539/2/4 1540/2/4 1543/2/4
f 1543/2/4 1540/2/4 1544/2/4
f 1545/1/4 1546/1/4 1548/1/4
f 1547/1/4 1548/1/4 1549/1/4
f 1548/1/4 1546/1/4 1550/1/4
f 1549/1/4 1548/1/4 1550/1/4
f 1551/1/4 1552/1/4 1553/1/4
f 1553/1/4 1552/1/4 1554/1/4
f 1555/1/4 1556/1/4 1558/1/4
f 1557/1/4 1558/1/4 1559/1/4
f 1558/1/4 1556/1/4 1560/1/4
f 1559/1/4 1558/1/4 1560/1/4
f 1560/1/4 1556/1/4 1562/1/4
f 1562/1/4 1556/1/4 1563/1/4
f 1561/1/4 1562/1/4 1564/1/4
f 1564/1/4 1562/1/4 1565/1/4
f 1566/1/4 1567/1/4 1568/1/4
f 1566/1/4 1568/1/4 1570/1/4
f 1568/1/4 1569/1/4 1570/1/4
f 1570/1/4 1569/1/4 1571/1/4
f 1571/1/4 1569/1/4 1574/1/4
f 1574/1/4 1569/1/4 1575/1/4
f 1572/1/4 1573/1/4 1576/1/4
f 1576/1/4 1573/1/4 1577/1/4
f 1575/1/4 1576/1/4 1579/1/4
f 1579/1/4 1576/1/4 1580/1/4
f 1578/1/4 1579/1/4 1581/1/4
f 1581/1/4 1579/1/4 1582/1/4
f 1577/1/4 1573/1/4 1584/1/4
f 1583/1/4 1584/1/4 1588/1/4
f 1585/1/4 1586/1/4 1589/1/4
f 1589/1/4 1586/1/4 1590/1/4
f 1587/1/4 1588/1/4 1592/1/4
f 1588/1/4 1584/1/4 1593/1/4
f 1592/1/4 1588/1/4 1593/1/4
f 1591/1/4 1592/1/4 1594/1/4
f 1593/1/4 1584/1/4 1595/1/4
f 1584/1/4 1573/1/4 1596/1/4
f 1595/1/4 1584/1/4 1596/1/4
f 1596/1/4 1573/1/4 1597/1/4
f 1591/1/4 1594/1/4 1598/1/4
f 1594/1/4 1595/1/4 1598/1/4
f 1595/1/4 1596/1/4 1598/1/4
f 1598/1/4 1596/1/4 1599/1/4
f 1599/1/4 1596/1/4 1600/1/4
f 1600/1/4 1596/1/4 1601/1/4
f 1599/1/4 1600/1/4 1603/1/4
f 1603/1/4 1600/1/4 1604/1/4
f 1606/1/4 1607/1/4 1610/1/4
f 1610/1/4 1607/1/4 1611/1/4
f 1604/1/4 1605/1/4 1612/1/4
f 1602/1/4 1603/1/4 1612/1/4
f 1603/1/4 1604/1/4 1612/1/4
f 1612/1/4 1605/1/4 1613/1/4
f 1613/1/4 1605/1/4 1614/1/4
f 1608/2/4 1609/2/4 1616/2/4
f 1616/2/4 1609/2/4 1617/2/4
f 1618/2/4 1619/2/4 1622/2/4
f 1622/2/4 1619/2/4 1623/2/4
f 1620/1/4 1621/1/4 1624/1/4
f 1624/1/4 1621/1/4 1625/1/4
f 1614/1/4 1615/1/4 1626/1/4
f 1613/1/4 1614/1/4 1626/1/4
f 1626/1/4 1627/1/4 1628/1/4
f 1613/1/4 1626/1/4 1628/1/4
f 1628/1/4 1627/1/4 1629/1/4
f 1613/1/4 1628/1/4 1630/1/4
f 1629/1/4 1627/1/4 1631/1/4
f 1631/1/4 1627/1/4 1632/1/4
f 1613/1/4 1630/1/4 1635/1/4
f 1630/1/4 1631/1/4 1635/1/4
f 1635/1/4 1631/1/4 1636/1/4
f 1633/1/4 1634/1/4 1637/1/4
f 1637/1/4 1634/1/4 1638/1/4
f 1636/1/4 1631/1/4 1640/1/4
f 1640/1/4 1631/1/4 1641/1/4
f 1638/1/4 1639/1/4 1643/1/4
f 1643/1/4 1639/1/4 1644/1/4
f 1642/1/4 1643/1/4 1644/1/4
f 1642/1/4 1644/1/4 1646/1/4
f 1644/1/4 1645/1/4 1646/1/4
f 1646/1/4 1645/1/4 1647/1/4
f 1647/1/4 1645/1/4 1648/1/4
f 1642/1/4 1646/1/4 1650/1/4
f 1650/1/4 1646/1/4 1651/1/4
f 1647/1/4 1648/1/4 1652/1/4
f 1648/1/4 1649/1/4 1652/1/4
f 1652/1/4 1649/1/4 1653/1/4
f 1647/1/4 1652/1/4 1656/1/4
f 1656/1/4 1652/1/4 1657/1/4
f 1654/2/4 1655/2/4 1658/2/4
f 1658/2/4 1655/2/4 1659/2/4
f 1660/1/4 1661/1/4 1663/1/4
f 1663/1/4 1661/1/4 1664/1/4
f 1664/1/4 1661/1/4 1665/1/4
f 1665/1/4 1661/1/4 1666/1/4
f 1660/1/4 1663/1/4 1667/1/4
f 1666/1/4 1661/1/4 1669/1/4
f 1669/1/4 1661/1/4 1670/1/4
f 1667/1/4 1668/1/4 1671/1/4
f 1666/1/4 1669/1/4 1672/1/4
f 1672/1/4 1669/1/4 1673/1/4
f 1661/2/4 1662/2/4 1674/2/4
f 1674/2/4 1662/2/4 1675/2/4
f 1667/1/4 1671/1/4 1676/1/4
f 1671/1/4 1672/1/4 1676/1/4
f 1676/1/4 1672/1/4 1677/1/4
f 1670/1/4 1661/1/4 1678/1/4
f 1661/2/4 1674/2/4 1678/2/4
f 1678/2/4 1674/2/4 1679/2/4
f 1679/2/4 1674/2/4 1680/2/4
f 1667/1/4 1676/1/4 1682/1/4
f 1670/1/4 1678/1/4 1684/1/4
f 1679/2/4 1680/2/4 1685/2/4
f 1680/2/4 1681/2/4 1685/2/4
f 1685/2/4 1681/2/4 1686/2/4
f 1667/1/4 1682/1/4 1688/1/4
f 1660/1/4 1667/1/4 1688/1/4
f 1682/1/4 1683/1/4 1688/1/4
f 1688/1/4 1683/1/4 1689/1/4
f 1689/1/4 1683/1/4 1690/1/4
f 1690/1/4 1683/1/4 1691/1/4
f 1660/1/4 1688/1/4 1692/1/4
f 1689/1/4 1690/1/4 1693/1/4
f 1693/1/4 1690/1/4 1694/1/4
f 1694/1/4 1690/1/4 1695/1/4
f 1670/1/4 1684/1/4 1697/1/4
f 1686/2/4 1687/2/4 1698/2/4
f 1685/2/4 1686/2/4 1698/2/4
f 1684/2/4 1685/2/4 1698/2/4
f 1698/2/4 1687/2/4 1699/2/4
f 1692/1/4 1693/1/4 1700/1/4
f 1693/1/4 1694/1/4 1700/1/4
f 1696/1/4 1697/1/4 1703/1/4
f 1700/1/4 1701/1/4 1704/1/4
f 1692/1/4 1700/1/4 1704/1/4
f 1704/1/4 1701/1/4 1705/1/4
f 1702/1/4 1703/1/4 1706/1/4
f 1703/1/4 1697/1/4 1707/1/4
f 1706/1/4 1703/1/4 1707/1/4
f 1684/2/4 1698/2/4 1708/2/4
f 1708/2/4 1698/2/4 1709/2/4
f 1660/1/4 1692/1/4 1710/1/4
f 1692/1/4 1704/1/4 1710/1/4
f 1710/1/4 1704/1/4 1711/1/4
f 1684/2/4 1708/2/4 1712/2/4
f 1712/2/4 1708/2/4 1713/2/4
f 1660/1/4 1710/1/4 1714/1/4
f 1711/1/4 1704/1/4 1715/1/4
f 1707/1/4 1697/1/4 1716/1/4
f 1697/1/4 1684/1/4 1717/1/4
f 1716/1/4 1697/1/4 1717/1/4
f 1684/2/4 1712/2/4 1718/2/4
f 1718/2/4 1719/2/4 1720/2/4
f 1684/2/4 1718/2/4 1720/2/4
f 1720/2/4 1719/2/4 1721/2/4
f 1714/1/4 1715/1/4 1722/1/4
f 1715/1/4 1704/1/4 1722/1/4
f 1722/1/4 1704/1/4 1723/1/4
f 1717/1/4 1684/1/4 1724/1/4
f 1684/2/4 1720/2/4 1724/2/4
f 1724/2/4 1720/2/4 1725/2/4
f 1714/1/4 1722/1/4 1726/1/4
f 1717/1/4 1724/1/4 1728/1/4
f 1728/1/4 1724/1/4 1729/1/4
f 1729/1/4 1724/1/4 1730/1/4
f 1726/1/4 1727/1/4 1734/1/4
f 1714/1/4 1726/1/4 1734/1/4
f 1734/1/4 1727/1/4 1735/1/4
f 1732/1/4 1733/1/4 1736/1/4
f 1736/1/4 1733/1/4 1737/1/4
f 1729/1/4 1730/1/4 1738/1/4
f 1730/2/4 1731/2/4 1739/2/4
f 1739/2/4 1740/2/4 1743/2/4
f 1741/1/4 1742/1/4 1745/1/4
f 1737/1/4 1738/1/4 1746/1/4
f 1741/1/4 1745/1/4 1747/1/4
f 1745/1/4 1746/1/4 1747/1/4
f 1746/1/4 1738/1/4 1748/1/4
f 1747/1/4 1746/1/4 1748/1/4
f 1739/2/4 1743/2/4 1749/2/4
f 1743/2/4 1744/2/4 1749/2/4
f 1749/2/4 1744/2/4 1750/2/4
f 1748/1/4 1738/1/4 1753/1/4
f 1738/1/4 1730/1/4 1754/1/4
f 1753/1/4 1738/1/4 1754/1/4
f 1730/2/4 1739/2/4 1755/2/4
f 1739/2/4 1749/2/4 1755/2/4
f 1755/2/4 1749/2/4 1756/2/4
f 1714/1/4 1734/1/4 1757/1/4
f 1751/1/4 1752/1/4 1758/1/4
f 1754/1/4 1730/1/4 1760/1/4
f 1757/1/4 1758/1/4 1761/1/4
f 1758/1/4 1752/1/4 1761/1/4
f 1759/1/4 1760/1/4 1762/1/4
f 1757/1/4 1761/1/4 1763/1/4
f 1761/1/4 1762/1/4 1763/1/4
f 1660/1/4 1714/1/4 1763/1/4
f 1714/1/4 1757/1/4 1763/1/4
f 1762/1/4 1760/1/4 1764/1/4
f 1763/1/4 1762/1/4 1764/1/4
f 1730/2/4 1755/2/4 1764/2/4
f 1760/1/4 1730/1/4 1764/1/4
f 1764/2/4 1755/2/4 1765/2/4
f 1768/1/5 1767/1/5 1766/1/5
f 1769/1/5 1767/1/5 1768/1/5
f 1774/2/5 1771/2/5 1770/2/5
f 1775/2/5 1771/2/5 1774/2/5
f 1776/2/5 1773/2/5 1772/2/5
f 1777/2/5 1773/2/5 1776/2/5
f 1782/1/5 1779/1/5 1778/1/5
f 1783/1/5 1779/1/5 1782/1/5
f 1784/1/5 1781/1/5 1780/1/5
f 1785/1/5 1781/1/5 1784/1/5
f 1790/1/5 1787/1/5 1786/1/5
f 1791/1/5 1787/1/5 1790/1/5
f 1792/1/5 1789/1/5 1788/1/5
f 1793/1/5 1789/1/5 1792/1/5
f 1798/1/5 1795/1/5 1794/1/5
f 1799/1/5 1795/1/5 1798/1/5
f 1800/1/5 1797/1/5 1796/1/5
f 1801/1/5 1797/1/5 1800/1/5
f 1804/1/5 1803/1/5 1802/1/5
f 1805/1/5 1803/1/5 1804/1/5
f 1806/1/5 1803/1/5 1805/1/5
f 1807/1/5 1803/1/5 1806/1/5
f 1816/1/5 1806/1/5 1805/1/5
f 1817/1/5 1806/1/5 1816/1/5
f 1818/1/5 1809/1/5 1808/1/5
f 1819/1/5 1809/1/5 1818/1/5
f 1820/1/5 1811/1/5 1810/1/5
f 1821/1/5 1811/1/5 1820/1/5
f 1822/1/5 1813/1/5 1812/1/5
f 1823/1/5 1813/1/5 1822/1/5
f 1824/1/5 1815/1/5 1814/1/5
f 1825/1/5 1815/1/5 1824/1/5
f 1830/1/5 1827/1/5 1826/1/5
f 1831/1/5 1827/1/5 1830/1/5
f 1832/1/5 1827/1/5 1831/1/5
f 1836/1/5 1829/1/5 1828/1/5
f 1837/1/5 1829/1/5 1836/1/5
f 1838/1/5 1833/1/5 1832/1/5
f 1838/1/5 1832/1/5 1831/1/5
f 1839/1/5 1833/1/5 1838/1/5
f 1840/1/5 1835/1/5 1834/1/5
f 1841/1/5 1835/1/5 1840/1/5
f 1848/1/5 1843/1/5 1842/1/5
f 1849/1/5 1843/1/5 1848/1/5
f 1850/1/5 1845/1/5 1844/1/5
f 1851/1/5 1845/1/5 1850/1/5
f 1852/1/5 1845/1/5 1851/1/5
f 1853/1/5 1845/1/5 1852/1/5
f 1854/1/5 1847/1/5 1846/1/5
f 1855/1/5 1847/1/5 1854/1/5
f 1856/1/5 1847/1/5 1855/1/5
f 1857/1/5 1847/1/5 1856/1/5
f 1862/1/5 1852/1/5 1851/1/5
f 1863/1/5 1852/1/5 1862/1/5
f 1864/1/5 1856/1/5 1855/1/5
f 1865/1/5 1856/1/5 1864/1/5
f 1866/1/5 1859/1/5 1858/1/5
f 1867/1/5 1859/1/5 1866/1/5
f 1868/1/5 1861/1/5 1860/1/5
f 1869/1/5 1861/1/5 1868/1/5
f 1872/1/5 1871/1/5 1870/1/5
f 1873/1/5 1871/1/5 1872/1/5
f 1878/1/5 1875/1/5 1874/1/5
f 1879/1/5 1875/1/5 1878/1/5
f 1880/1/5 1877/1/5 1876/1/5
f 1881/1/5 1877/1/5 1880/1/5
f 1887/1/5 1883/1/5 1882/1/5
f 1887/1/5 1884/1/5 1883/1/5
f 1888/1/5 1884/1/5 1887/1/5
f 1889/1/5 1884/1/5 1888/1/5
f 1890/1/5 1886/1/5 1885/1/5
f 1891/1/5 1886/1/5 1890/1/5
f 1894/1/5 1889/1/5 1888/1/5
f 1895/1/5 1889/1/5 1894/1/5
f 1898/2/5 1893/2/5 1892/2/5
f 1899/2/5 1893/2/5 1898/2/5
f 1900/2/5 1897/2/5 1896/2/5
f 1901/2/5 1897/2/5 1900/2/5
f 1904/1/5 1903/1/5 1902/1/5
f 1905/1/5 1903/1/5 1904/1/5
f 1910/1/5 1907/1/5 1906/1/5
f 1911/1/5 1907/1/5 1910/1/5
f 1912/1/5 1909/1/5 1908/1/5
f 1913/1/5 1909/1/5 1912/1/5
f 1916/1/5 1915/1/5 1914/1/5
f 1917/1/5 1915/1/5 1916/1/5
f 1918/1/5 1915/1/5 1917/1/5
f 1919/1/5 1915/1/5 1918/1/5
f 1926/1/5 1918/1/5 1917/1/5
f 1927/1/5 1918/1/5 1926/1/5
f 1928/1/5 1921/1/5 1920/1/5
f 1929/1/5 1921/1/5 1928/1/5
f 1930/1/5 1923/1/5 1922/1/5
f 1931/1/5 1923/1/5 1930/1/5
f 1932/1/5 1925/1/5 1924/1/5
f 1933/1/5 1925/1/5 1932/1/5
f 1944/1/5 1935/1/5 1934/1/5
f 1945/1/5 1935/1/5 1944/1/5
f 1946/1/5 1937/1/5 1936/1/5
f 1947/1/5 1937/1/5 1946/1/5
f 1948/1/5 1939/1/5 1938/1/5
f 1949/1/5 1939/1/5 1948/1/5
f 1950/1/5 1941/1/5 1940/1/5
f 1951/1/5 1941/1/5 1950/1/5
f 1952/1/5 1943/1/5 1942/1/5
f 1953/1/5 1943/1/5 1952/1/5
f 1964/1/5 1955/1/5 1954/1/5
f 1965/1/5 1955/1/5 1964/1/5
f 1966/1/5 1955/1/5 1965/1/5
f 1967/1/5 1955/1/5 1966/1/5
f 1968/1/5 1955/1/5 1967/1/5
f 1969/1/5 1955/1/5 1968/1/5
f 1970/1/5 1957/1/5 1956/1/5
f 1971/1/5 1957/1/5 1970/1/5
f 1972/1/5 1959/1/5 1958/1/5
f 1973/1/5 1959/1/5 1972/1/5
f 1974/1/5 1961/1/5 1960/1/5
f 1975/1/5 1961/1/5 1974/1/5
f 1976/1/5 1963/1/5 1962/1/5
f 1977/1/5 1963/1/5 1976/1/5
f 1978/1/5 1966/1/5 1965/1/5
f 1979/1/5 1966/1/5 1978/1/5
f 1980/1/5 1968/1/5 1967/1/5
f 1981/1/5 1968/1/5 1980/1/5
f 1986/1/5 1983/1/5 1982/1/5
f 1987/1/5 1983/1/5 1986/1/5
f 1988/1/5 1985/1/5 1984/1/5
f 1989/1/5 1985/1/5 1988/1/5
f 1994/1/5 1991/1/5 1990/1/5
f 1995/1/5 1991/1/5 1994/1/5
f 1996/1/5 1991/1/5 1995/1/5
f 1997/1/5 1991/1/5 1996/1/5
f 1998/1/5 1993/1/5 1992/1/5
f 1999/1/5 1993/1/5 1998/1/5
f 2000/1/5 1993/1/5 1999/1/5
f 2001/1/5 1993/1/5 2000/1/5
f 2002/1/5 1996/1/5 1995/1/5
f 2003/1/5 1996/1/5 2002/1/5
f 2004/1/5 2000/1/5 1999/1/5
f 2005/1/5 2000/1/5 2004/1/5
f 2008/2/5 2007/2/5 2006/2/5
f 2009/2/5 2007/2/5 2008/2/5
f 2011/2/5 2010/2/5 2009/2/5
f 2012/2/5 2010/2/5 2011/2/5
f 2015/2/5 2014/2/5 2013/2/5
f 2016/2/5 2014/2/5 2015/2/5
f 2021/2/5 2018/2/5 2017/2/5
f 2022/2/5 2018/2/5 2021/2/5
f 2023/2/5 2020/2/5 2019/2/5
f 2024/2/5 2020/2/5 2023/2/5
f 2027/2/5 2026/2/5 2025/2/5
f 2028/2/5 2026/2/5 2027/2/5
f 2031/2/5 2030/2/5 2029/2/5
f 2032/2/5 2030/2/5 2031/2/5
f 2033/1/6 2034/1/6 2035/1/6
f 2035/1/6 2034/1/6 2036/1/6
f 2036/1/6 2034/1/6 2037/1/6
f 2037/1/6 2034/1/6 2038/1/6
f 2036/1/6 2037/1/6 2039/1/6
f 2039/1/6 2037/1/6 2040/1/6
f 2041/1/6 2042/1/6 2045/1/6
f 2045/1/6 2042/1/6 2046/1/6
f 2043/1/6 2044/1/6 2047/1/6
f 2047/1/6 2044/1/6 2048/1/6
f 2049/1/6 2050/1/6 2057/1/6
f 2057/1/6 2050/1/6 2058/1/6
f 2058/1/6 2050/1/6 2059/1/6
f 2059/1/6 2050/1/6 2060/1/6
f 2051/1/6 2052/1/6 2061/1/6
f 2061/1/6 2052/1/6 2062/1/6
f 2062/1/6 2052/1/6 2063/1/6
f 2063/1/6 2052/1/6 2064/1/6
f 2053/1/6 2054/1/6 2065/1/6
f 2065/1/6 2054/1/6 2066/1/6
f 2055/1/6 2056/1/6 2067/1/6
f 2067/1/6 2056/1/6 2068/1/6
f 2058/1/6 2059/1/6 2069/1/6
f 2069/1/6 2059/1/6 2070/1/6
f 2062/1/6 2063/1/6 2071/1/6
f 2071/1/6 2063/1/6 2072/1/6
f 2073/1/6 2074/1/6 2081/1/6
f 2075/1/6 2076/1/6 2082/1/6
f 2082/1/6 2076/1/6 2083/1/6
f 2077/1/6 2078/1/6 2085/1/6
f 2085/1/6 2078/1/6 2086/1/6
f 2079/1/6 2080/1/6 2087/1/6
f 2087/1/6 2080/1/6 2088/1/6
f 2073/1/6 2081/1/6 2089/1/6
f 2083/1/6 2084/1/6 2089/1/6
f 2081/1/6 2082/1/6 2089/1/6
f 2082/1/6 2083/1/6 2089/1/6
f 2089/1/6 2084/1/6 2090/1/6
f 2091/1/6 2092/1/6 2094/1/6
f 2094/1/6 2092/1/6 2095/1/6
f 2093/1/6 2094/1/6 2105/1/6
f 2094/1/6 2095/1/6 2105/1/6
f 2095/1/6 2096/1/6 2105/1/6
f 2105/1/6 2096/1/6 2106/1/6
f 2106/1/6 2096/1/6 2107/1/6
f 2107/1/6 2096/1/6 2108/1/6
f 2097/1/6 2098/1/6 2109/1/6
f 2109/1/6 2098/1/6 2110/1/6
f 2099/1/6 2100/1/6 2111/1/6
f 2111/1/6 2100/1/6 2112/1/6
f 2101/1/6 2102/1/6 2113/1/6
f 2113/1/6 2102/1/6 2114/1/6
f 2103/1/6 2104/1/6 2115/1/6
f 2115/1/6 2104/1/6 2116/1/6
f 2106/1/6 2107/1/6 2117/1/6
f 2117/1/6 2107/1/6 2118/1/6
f 2119/1/6 2120/1/6 2130/1/6
f 2130/1/6 2120/1/6 2131/1/6
f 2131/1/6 2120/1/6 2132/1/6
f 2121/1/6 2122/1/6 2133/1/6
f 2133/1/6 2122/1/6 2134/1/6
f 2123/1/6 2124/1/6 2135/1/6
f 2135/1/6 2124/1/6 2136/1/6
f 2125/1/6 2126/1/6 2137/1/6
f 2137/1/6 2126/1/6 2138/1/6
f 2127/1/6 2128/1/6 2139/1/6
f 2139/1/6 2128/1/6 2140/1/6
f 2129/1/6 2130/1/6 2141/1/6
f 2130/1/6 2131/1/6 2141/1/6
f 2141/1/6 2131/1/6 2142/1/6
f 2132/1/6 2120/1/6 2143/1/6
f 2143/1/6 2120/1/6 2144/1/6
f 2145/1/6 2146/1/6 2149/1/6
f 2149/1/6 2146/1/6 2150/1/6
f 2147/1/6 2148/1/6 2151/1/6
f 2151/1/6 2148/1/6 2152/1/6
f 2152/1/6 2148/1/6 2153/1/6
f 2154/1/6 2155/1/6 2160/1/6
f 2160/1/6 2155/1/6 2161/1/6
f 2156/1/6 2157/1/6 2162/1/6
f 2162/1/6 2157/1/6 2163/1/6
f 2158/2/6 2159/2/6 2166/2/6
f 2166/2/6 2159/2/6 2167/2/6
f 2164/2/6 2165/2/6 2168/2/6
f 2168/2/6 2165/2/6 2169/2/6
f 2170/1/6 2171/1/6 2175/1/6
f 2175/1/6 2171/1/6 2176/1/6
f 2172/1/6 2173/1/6 2178/1/6
f 2178/1/6 2173/1/6 2179/1/6
f 2174/1/6 2175/1/6 2182/1/6
f 2182/1/6 2175/1/6 2183/1/6
f 2177/1/6 2178/1/6 2184/1/6
f 2184/1/6 2178/1/6 2185/1/6
f 2180/1/6 2181/1/6 2186/1/6
f 2186/1/6 2181/1/6 2187/1/6
f 2188/1/6 2189/1/6 2192/1/6
f 2192/1/6 2189/1/6 2193/1/6
f 2193/1/6 2189/1/6 2194/1/6
f 2194/1/6 2189/1/6 2195/1/6
f 2195/1/6 2189/1/6 2196/1/6
f 2196/1/6 2189/1/6 2197/1/6
f 2190/1/6 2191/1/6 2198/1/6
f 2198/1/6 2191/1/6 2199/1/6
f 2193/1/6 2194/1/6 2200/1/6
f 2200/1/6 2194/1/6 2201/1/6
f 2195/1/6 2196/1/6 2202/1/6
f 2202/1/6 2196/1/6 2203/1/6
f 2204/1/6 2205/1/6 2207/1/6
f 2207/1/6 2205/1/6 2208/1/6
f 2206/1/6 2207/1/6 2213/1/6
f 2213/1/6 2207/1/6 2214/1/6
f 2209/1/6 2210/1/6 2215/1/6
f 2215/1/6 2210/1/6 2216/1/6
f 2211/1/6 2212/1/6 2217/1/6
f 2217/1/6 2212/1/6 2218/1/6
f 2219/1/6 2220/1/6 2223/1/6
f 2223/1/6 2220/1/6 2224/1/6
f 2224/1/6 2220/1/6 2225/1/6
f 2225/1/6 2220/1/6 2226/1/6
f 2221/1/6 2222/1/6 2227/1/6
f 2227/1/6 2222/1/6 2228/1/6
f 2228/1/6 2222/1/6 2229/1/6
f 2229/1/6 2222/1/6 2230/1/6
f 2224/1/6 2225/1/6 2237/1/6
f 2237/1/6 2225/1/6 2238/1/6
f 2228/1/6 2229/1/6 2239/1/6
f 2239/1/6 2229/1/6 2240/1/6
f 2231/1/6 2232/1/6 2241/1/6
f 2241/1/6 2232/1/6 2242/1/6
f 2233/1/6 2234/1/6 2243/1/6
f 2243/1/6 2234/1/6 2244/1/6
f 2235/1/6 2236/1/6 2245/1/6
f 2245/1/6 2236/1/6 2246/1/6
f 2247/1/6 2248/1/6 2249/1/6
f 2249/1/6 2248/1/6 2250/1/6
f 2251/1/6 2252/1/6 2259/1/6
f 2259/1/6 2252/1/6 2260/1/6
f 2253/1/6 2254/1/6 2261/1/6
f 2261/1/6 2254/1/6 2262/1/6
f 2255/1/6 2256/1/6 2263/1/6
f 2263/1/6 2256/1/6 2264/1/6
f 2257/1/6 2258/1/6 2265/1/6
f 2265/1/6 2258/1/6 2266/1/6
f 2267/1/6 2268/1/6 2269/1/6
f 2269/1/6 2268/1/6 2270/1/6
f 2271/2/6 2272/2/6 2275/2/6
f 2275/2/6 2272/2/6 2276/2/6
f 2273/2/6 2274/2/6 2277/2/6
f 2277/2/6 2274/2/6 2278/2/6
f 2279/1/6 2280/1/6 2283/1/6
f 2283/1/6 2280/1/6 2284/1/6
f 2284/1/6 2280/1/6 2285/1/6
f 2281/1/6 2282/1/6 2290/1/6
f 2290/1/6 2282/1/6 2291/1/6
f 2284/1/6 2285/1/6 2293/1/6
f 2285/1/6 2286/1/6 2293/1/6
f 2293/1/6 2286/1/6 2294/1/6
f 2287/1/6 2288/1/6 2297/1/6
f 2297/1/6 2288/1/6 2298/1/6
f 2291/1/6 2292/1/6 2299/1/6
f 2290/1/6 2291/1/6 2299/1/6
f 2289/1/6 2290/1/6 2299/1/6
f 2299/1/6 2292/1/6 2300/1/6
f 2300/1/6 2292/1/6 2301/1/6
f 2301/1/6 2292/1/6 2302/1/6
f 2302/1/6 2292/1/6 2303/1/6
f 2303/1/6 2292/1/6 2304/1/6
f 2294/1/6 2295/1/6 2306/1/6
f 2306/1/6 2295/1/6 2307/1/6
f 2297/1/6 2298/1/6 2308/1/6
f 2296/1/6 2297/1/6 2308/1/6
f 2298/1/6 2299/1/6 2308/1/6
f 2299/1/6 2300/1/6 2308/1/6
f 2308/1/6 2300/1/6 2309/1/6
f 2309/1/6 2300/1/6 2310/1/6
f 2310/1/6 2300/1/6 2311/1/6
f 2301/1/6 2302/1/6 2312/1/6
f 2312/1/6 2302/1/6 2313/1/6
f 2304/1/6 2305/1/6 2314/1/6
f 2303/1/6 2304/1/6 2314/1/6
f 2314/1/6 2305/1/6 2315/1/6
f 2309/1/6 2310/1/6 2316/1/6
f 2316/1/6 2310/1/6 2317/1/6
f 2311/1/6 2300/1/6 2318/1/6
f 2318/1/6 2300/1/6 2319/1/6
f 2307/1/6 2295/1/6 2320/1/6
f 2320/1/6 2295/1/6 2321/1/6
f 2311/1/6 2318/1/6 2322/1/6
f 2322/1/6 2318/1/6 2323/1/6
f 2324/2/6 2325/2/6 2332/2/6
f 2332/2/6 2325/2/6 2333/2/6
f 2333/2/6 2325/2/6 2334/2/6
f 2334/2/6 2325/2/6 2335/2/6
f 2326/2/6 2327/2/6 2336/2/6
f 2336/2/6 2327/2/6 2337/2/6
f 2328/2/6 2329/2/6 2338/2/6
f 2338/2/6 2329/2/6 2339/2/6
f 2330/2/6 2331/2/6 2340/2/6
f 2340/2/6 2331/2/6 2341/2/6
f 2333/2/6 2334/2/6 2342/2/6
f 2342/2/6 2334/2/6 2343/2/6
f 2344/2/6 2345/2/6 2350/2/6
f 2350/2/6 2345/2/6 2351/2/6
f 2346/2/6 2347/2/6 2352/2/6
f 2352/2/6 2347/2/6 2353/2/6
f 2348/2/6 2349/2/6 2354/2/6
f 2354/2/6 2349/2/6 2355/2/6
f 2356/2/6 2357/2/6 2368/2/6
f 2368/2/6 2357/2/6 2369/2/6
f 2358/2/6 2359/2/6 2370/2/6
f 2370/2/6 2359/2/6 2371/2/6
f 2360/2/6 2361/2/6 2372/2/6
f 2372/2/6 2361/2/6 2373/2/6
f 2362/2/6 2363/2/6 2374/2/6
f 2374/2/6 2363/2/6 2375/2/6
f 2364/2/6 2365/2/6 2376/2/6
f 2376/2/6 2365/2/6 2377/2/6
f 2366/2/6 2367/2/6 2378/2/6
f 2378/2/6 2367/2/6 2379/2/6
f 2380/2/6 2381/2/6 2386/2/6
f 2386/2/6 2381/2/6 2387/2/6
f 2382/2/6 2383/2/6 2388/2/6
f 2388/2/6 2383/2/6 2389/2/6
f 2384/2/6 2385/2/6 2390/2/6
f 2390/2/6 2385/2/6 2391/2/6
f 2392/2/6 2393/2/6 2410/2/6
f 2410/2/6 2393/2/6 2411/2/6
f 2396/2/6 2397/2/6 2416/2/6
f 2400/2/6 2401/2/6 2417/2/6
f 2402/2/6 2403/2/6 2418/2/6
f 2418/2/6 2403/2/6 2419/2/6
f 2404/2/6 2405/2/6 2420/2/6
f 2420/2/6 2405/2/6 2421/2/6
f 2408/2/6 2409/2/6 2423/2/6
f 2423/2/6 2409/2/6 2424/2/6
f 2413/2/6 2414/2/6 2425/2/6
f 2425/2/6 2414/2/6 2426/2/6
f 2415/2/6 2416/2/6 2427/2/6
f 2416/2/6 2397/2/6 2428/2/6
f 2427/2/6 2416/2/6 2428/2/6
f 2398/2/6 2399/2/6 2429/2/6
f 2429/2/6 2399/2/6 2430/2/6
f 2421/2/6 2422/2/6 2431/2/6
f 2400/2/6 2417/2/6 2431/2/6
f 2418/2/6 2419/2/6 2431/2/6
f 2417/2/6 2418/2/6 2431/2/6
f 2419/2/6 2420/2/6 2431/2/6
f 2420/2/6 2421/2/6 2431/2/6
f 2431/2/6 2422/2/6 2432/2/6
f 2432/2/6 2422/2/6 2433/2/6
f 2433/2/6 2422/2/6 2434/2/6
f 2434/2/6 2422/2/6 2435/2/6
f 2435/2/6 2422/2/6 2436/2/6
f 2394/2/6 2395/2/6 2437/2/6
f 2437/2/6 2395/2/6 2438/2/6
f 2428/2/6 2397/2/6 2440/2/6
f 2400/2/6 2431/2/6 2443/2/6
f 2443/2/6 2431/2/6 2444/2/6
f 2432/2/6 2433/2/6 2445/2/6
f 2445/2/6 2433/2/6 2446/2/6
f 2434/2/6 2435/2/6 2447/2/6
f 2447/2/6 2435/2/6 2448/2/6
f 2406/2/6 2407/2/6 2449/2/6
f 2449/2/6 2407/2/6 2450/2/6
f 2411/2/6 2412/2/6 2453/2/6
f 2453/2/6 2412/2/6 2454/2/6
f 2438/2/6 2439/2/6 2455/2/6
f 2455/2/6 2439/2/6 2456/2/6
f 2440/2/6 2441/2/6 2457/2/6
f 2428/2/6 2440/2/6 2457/2/6
f 2457/2/6 2441/2/6 2458/2/6
f 2458/2/6 2441/2/6 2459/2/6
f 2459/2/6 2441/2/6 2460/2/6
f 2442/2/6 2443/2/6 2461/2/6
f 2461/2/6 2443/2/6 2462/2/6
f 2450/2/6 2451/2/6 2467/2/6
f 2467/2/6 2451/2/6 2468/2/6
f 2453/2/6 2454/2/6 2469/2/6
f 2454/2/6 2455/2/6 2469/2/6
f 2452/2/6 2453/2/6 2469/2/6
f 2469/2/6 2455/2/6 2470/2/6
f 2458/2/6 2459/2/6 2472/2/6
f 2472/2/6 2459/2/6 2473/2/6
f 2463/2/6 2464/2/6 2477/2/6
f 2477/2/6 2464/2/6 2478/2/6
f 2465/2/6 2466/2/6 2479/2/6
f 2479/2/6 2466/2/6 2480/2/6
f 2470/2/6 2471/2/6 2482/2/6
f 2474/2/6 2475/2/6 2484/2/6
f 2484/2/6 2475/2/6 2485/2/6
f 2477/2/6 2478/2/6 2487/2/6
f 2476/2/6 2477/2/6 2487/2/6
f 2487/2/6 2478/2/6 2488/2/6
f 2480/2/6 2481/2/6 2489/2/6
f 2479/2/6 2480/2/6 2489/2/6
f 2489/2/6 2481/2/6 2490/2/6
f 2490/2/6 2481/2/6 2491/2/6
f 2491/2/6 2481/2/6 2492/2/6
f 2485/2/6 2486/2/6 2493/2/6
f 2484/2/6 2485/2/6 2493/2/6
f 2483/2/6 2484/2/6 2493/2/6
f 2493/2/6 2486/2/6 2494/2/6
f 2494/2/6 2486/2/6 2495/2/6
f 2495/2/6 2486/2/6 2496/2/6
f 2476/2/6 2487/2/6 2498/2/6
f 2490/2/6 2491/2/6 2499/2/6
f 2470/2/6 2482/2/6 2501/2/6
f 2501/2/6 2482/2/6 2502/2/6
f 2494/2/6 2495/2/6 2503/2/6
f 2503/2/6 2495/2/6 2504/2/6
f 2497/2/6 2498/2/6 2505/2/6
f 2498/2/6 2487/2/6 2506/2/6
f 2505/2/6 2498/2/6 2506/2/6
f 2499/2/6 2500/2/6 2507/2/6
f 2490/2/6 2499/2/6 2507/2/6
f 2507/2/6 2500/2/6 2508/2/6
f 2511/2/6 2512/2/6 2519/2/6
f 2519/2/6 2512/2/6 2520/2/6
f 2513/2/6 2514/2/6 2521/2/6
f 2515/2/6 2516/2/6 2522/2/6
f 2509/2/6 2510/2/6 2524/2/6
f 2521/2/6 2514/2/6 2528/2/6
f 2528/2/6 2514/2/6 2529/2/6
f 2509/2/6 2524/2/6 2530/2/6
f 2524/2/6 2525/2/6 2530/2/6
f 2530/2/6 2525/2/6 2531/2/6
f 2531/2/6 2525/2/6 2532/2/6
f 2526/2/6 2527/2/6 2533/2/6
f 2533/2/6 2527/2/6 2534/2/6
f 2511/2/6 2519/2/6 2535/2/6
f 2535/2/6 2519/2/6 2536/2/6
f 2529/2/6 2514/2/6 2537/2/6
f 2537/2/6 2514/2/6 2538/2/6
f 2538/2/6 2514/2/6 2539/2/6
f 2522/2/6 2523/2/6 2540/2/6
f 2515/2/6 2522/2/6 2540/2/6
f 2540/2/6 2523/2/6 2541/2/6
f 2517/2/6 2518/2/6 2542/2/6
f 2542/2/6 2518/2/6 2543/2/6
f 2544/2/6 2545/2/6 2555/2/6
f 2555/2/6 2545/2/6 2556/2/6
f 2546/2/6 2547/2/6 2557/2/6
f 2547/2/6 2548/2/6 2557/2/6
f 2557/2/6 2548/2/6 2558/2/6
f 2558/2/6 2548/2/6 2559/2/6
f 2549/2/6 2550/2/6 2561/2/6
f 2561/2/6 2550/2/6 2562/2/6
f 2551/2/6 2552/2/6 2563/2/6
f 2563/2/6 2552/2/6 2564/2/6
f 2559/2/6 2560/2/6 2567/2/6
f 2558/2/6 2559/2/6 2567/2/6
f 2567/2/6 2560/2/6 2568/2/6
f 2565/2/6 2566/2/6 2571/2/6
f 2571/2/6 2566/2/6 2572/2/6
f 2574/2/6 2575/2/6 2576/2/6
f 2576/2/6 2575/2/6 2577/2/6
f 2553/2/6 2554/2/6 2578/2/6
f 2578/2/6 2554/2/6 2579/2/6
f 2568/2/6 2569/2/6 2580/2/6
f 2580/2/6 2569/2/6 2581/2/6
f 2570/2/6 2571/2/6 2582/2/6
f 2582/2/6 2571/2/6 2583/2/6
f 2572/2/6 2573/2/6 2584/2/6
f 2584/2/6 2573/2/6 2585/2/6
f 2586/2/6 2587/2/6 2592/2/6
f 2592/2/6 2587/2/6 2593/2/6
f 2588/2/6 2589/2/6 2594/2/6
f 2594/2/6 2589/2/6 2595/2/6
f 2590/2/6 2591/2/6 2598/2/6
f 2598/2/6 2591/2/6 2599/2/6
f 2595/2/6 2596/2/6 2604/2/6
f 2604/2/6 2596/2/6 2605/2/6
f 2597/2/6 2598/2/6 2607/2/6
f 2598/2/6 2599/2/6 2607/2/6
f 2599/2/6 2600/2/6 2607/2/6
f 2607/2/6 2600/2/6 2608/2/6
f 2608/2/6 2600/2/6 2609/2/6
f 2609/2/6 2600/2/6 2610/2/6
f 2601/2/6 2602/2/6 2611/2/6
f 2611/2/6 2602/2/6 2612/2/6
f 2605/2/6 2606/2/6 2613/2/6
f 2604/2/6 2605/2/6 2613/2/6
f 2603/2/6 2604/2/6 2613/2/6
f 2613/2/6 2606/2/6 2614/2/6
f 2614/2/6 2606/2/6 2615/2/6
f 2615/2/6 2606/2/6 2616/2/6
f 2608/2/6 2609/2/6 2618/2/6
f 2618/2/6 2609/2/6 2619/2/6
f 2614/2/6 2615/2/6 2621/2/6
f 2621/2/6 2615/2/6 2622/2/6
f 2619/2/6 2620/2/6 2624/2/6
f 2617/2/6 2618/2/6 2624/2/6
f 2618/2/6 2619/2/6 2624/2/6
f 2624/2/6 2620/2/6 2625/2/6
f 2623/2/6 2624/2/6 2629/2/6
f 2629/2/6 2624/2/6 2630/2/6
f 2625/2/6 2626/2/6 2631/2/6
f 2631/2/6 2626/2/6 2632/2/6
f 2627/2/6 2628/2/6 2633/2/6
f 2633/2/6 2628/2/6 2634/2/6
f 2635/2/6 2636/2/6 2638/2/6
f 2638/2/6 2636/2/6 2639/2/6
f 2637/2/6 2638/2/6 2641/2/6
f 2639/2/6 2640/2/6 2641/2/6
f 2638/2/6 2639/2/6 2641/2/6
f 2641/2/6 2640/2/6 2642/2/6
f 2642/2/6 2640/2/6 2643/2/6
f 2643/2/6 2640/2/6 2644/2/6
f 2642/2/6 2643/2/6 2645/2/6
f 2645/2/6 2643/2/6 2646/2/6
f 2647/2/6 2648/2/6 2649/2/6
f 2649/2/6 2648/2/6 2650/2/6
