# MagicaVoxel @ Ephtracy

# group
o 

# material
mtllib огненная пушка.mtl
usemtl palette

# normals
vn -1 0 0
vn 1 0 0
vn 0 0 1
vn 0 0 -1
vn 0 -1 0
vn 0 1 0

# texcoords
vt 0.115234 0.5
vt 0.166016 0.5
vt 0.169922 0.5
vt 0.173828 0.5
vt 0.177734 0.5
vt 0.193359 0.5
vt 0.197266 0.5
vt 0.201172 0.5
vt 0.205078 0.5
vt 0.208984 0.5
vt 0.294922 0.5
vt 0.298828 0.5
vt 0.302734 0.5
vt 0.306641 0.5

# verts
v -3 1.4 0.1
v -3 1.4 -0.1
v -3 1.5 0.2
v -3 1.5 0.1
v -3 1.5 -0.1
v -3 1.5 -0.2
v -3 1.6 0.3
v -3 1.6 0.2
v -3 1.6 0.1
v -3 1.6 -0.1
v -3 1.6 -0.2
v -3 1.6 -0.3
v -3 1.7 0.4
v -3 1.7 0.3
v -3 1.7 0.2
v -3 1.7 0.1
v -3 1.7 -0.1
v -3 1.7 -0.2
v -3 1.7 -0.3
v -3 1.7 -0.4
v -3 1.9 0.1
v -3 1.9 -0.1
v -3 2 0.4
v -3 2 0.3
v -3 2 0.2
v -3 2 0.1
v -3 2 -0.1
v -3 2 -0.2
v -3 2 -0.3
v -3 2 -0.4
v -3 2.1 0.3
v -3 2.1 0.2
v -3 2.1 0.1
v -3 2.1 -0.1
v -3 2.1 -0.2
v -3 2.1 -0.3
v -3 2.2 0.2
v -3 2.2 -0.2
v -2.9 1.7 0.1
v -2.9 1.7 -0.1
v -2.9 1.9 0.1
v -2.9 1.9 -0.1
v -1.6 1.6 0.2
v -1.6 1.6 0.1
v -1.6 1.6 -0.1
v -1.6 1.6 -0.2
v -1.6 1.7 0.2
v -1.6 1.7 0.1
v -1.6 1.7 -0.1
v -1.6 1.7 -0.2
v -1.2 1.6 0.2
v -1.2 1.6 0.1
v -1.2 1.6 -0.1
v -1.2 1.6 -0.2
v -1.2 1.7 0.3
v -1.2 1.7 0.2
v -1.2 1.7 0.1
v -1.2 1.7 -0.1
v -1.2 1.7 -0.2
v -1.2 1.7 -0.3
v -1.2 2 0.3
v -1.2 2 0.2
v -1.2 2 0.1
v -1.2 2 -0.1
v -1.2 2 -0.2
v -1.2 2 -0.3
v -1.2 2.1 0.2
v -1.2 2.1 0.1
v -1.2 2.1 -0.1
v -1.2 2.1 -0.2
v -1.1 0 1.5
v -1.1 0 1.2
v -1.1 0 -1.2
v -1.1 0 -1.5
v -1.1 0.3 1.2
v -1.1 0.3 0.7
v -1.1 0.3 -0.7
v -1.1 0.3 -1.2
v -1.1 0.4 1.5
v -1.1 0.4 1.3
v -1.1 0.4 0.7
v -1.1 0.4 0.6
v -1.1 0.4 -0.6
v -1.1 0.4 -0.7
v -1.1 0.4 -1.3
v -1.1 0.4 -1.5
v -1.1 0.5 1.3
v -1.1 0.5 1.2
v -1.1 0.5 -1.2
v -1.1 0.5 -1.3
v -1.1 0.6 1.3
v -1.1 0.6 1.2
v -1.1 0.6 0.8
v -1.1 0.6 0.7
v -1.1 0.6 0.6
v -1.1 0.6 -0.6
v -1.1 0.6 -0.7
v -1.1 0.6 -0.8
v -1.1 0.6 -1.2
v -1.1 1.1 0.7
v -1.1 1.1 0.3
v -1.1 1.1 -0.3
v -1.1 1.1 -0.7
v -1.1 1.4 0.8
v -1.1 1.4 0.5
v -1.1 1.4 0.3
v -1.1 1.4 -0.3
v -1.1 1.4 -0.5
v -1.1 1.4 -0.8
v -1.1 1.5 0.1
v -1.1 1.5 -0.1
v -1.1 1.6 0.5
v -1.1 1.6 0.4
v -1.1 1.6 0.2
v -1.1 1.6 0.1
v -1.1 1.6 -0.1
v -1.1 1.6 -0.2
v -1.1 1.6 -0.4
v -1.1 1.6 -0.5
v -1.1 1.7 0.3
v -1.1 1.7 0.2
v -1.1 1.7 -0.2
v -1.1 1.7 -0.3
v -1.1 2 0.4
v -1.1 2 0.3
v -1.1 2 0.2
v -1.1 2 -0.2
v -1.1 2 -0.3
v -1.1 2 -0.4
v -1.1 2.1 0.3
v -1.1 2.1 0.2
v -1.1 2.1 0.1
v -1.1 2.1 -0.1
v -1.1 2.1 -0.2
v -1.1 2.1 -0.3
v -1.1 2.2 0.2
v -1.1 2.2 0.1
v -1.1 2.2 -0.1
v -1.1 2.2 -0.2
v -1 0.6 0.9
v -1 0.6 0.8
v -1 0.6 0.7
v -1 0.6 0.6
v -1 0.6 -0.6
v -1 0.6 -0.7
v -1 0.6 -0.8
v -1 0.6 -0.9
v -1 1.1 0.7
v -1 1.1 0.6
v -1 1.1 -0.6
v -1 1.1 -0.7
v -1 1.3 0.9
v -1 1.3 0.8
v -1 1.3 -0.8
v -1 1.3 -0.9
v -1 2 0.4
v -1 2 0.3
v -1 2 0.1
v -1 2 -0.1
v -1 2 -0.3
v -1 2 -0.4
v -1 2.1 0.4
v -1 2.1 0.3
v -1 2.1 0.2
v -1 2.1 0.1
v -1 2.1 -0.1
v -1 2.1 -0.2
v -1 2.1 -0.3
v -1 2.1 -0.4
v -1 2.2 0.3
v -1 2.2 0.2
v -1 2.2 -0.2
v -1 2.2 -0.3
v -1 2.3 0.2
v -1 2.3 -0.2
v -0.9 1.6 0.5
v -0.9 1.6 0.4
v -0.9 1.6 -0.4
v -0.9 1.6 -0.5
v -0.9 1.9 0.5
v -0.9 1.9 0.4
v -0.9 1.9 -0.4
v -0.9 1.9 -0.5
v -0.7 1.7 0.2
v -0.7 1.7 0.1
v -0.7 2 0.2
v -0.7 2 0.1
v -0.5 1.9 0.5
v -0.5 1.9 0.4
v -0.5 1.9 -0.4
v -0.5 1.9 -0.5
v -0.5 2 0.5
v -0.5 2 0.4
v -0.5 2 -0.4
v -0.5 2 -0.5
v -0.3 1.6 0.1
v -0.3 1.6 -0.1
v -0.3 1.7 0.1
v -0.3 1.7 -0.1
v -0.3 1.7 -0.2
v -0.3 2 -0.1
v -0.3 2 -0.2
v 0.1 1.5 0.1
v 0.1 1.5 -0.1
v 0.1 1.6 0.1
v 0.1 1.6 0
v 0.1 1.6 -0.1
v 0.4 2 0.5
v 0.4 2 0.4
v 0.4 2 -0.4
v 0.4 2 -0.5
v 0.4 2.1 0.5
v 0.4 2.1 0.4
v 0.4 2.1 -0.4
v 0.4 2.1 -0.5
v 0.7 1.5 0.3
v 0.7 1.5 0.2
v 0.7 1.5 -0.2
v 0.7 1.5 -0.3
v 0.7 1.6 0.5
v 0.7 1.6 0.3
v 0.7 1.6 -0.3
v 0.7 1.6 -0.5
v 0.7 1.9 0.5
v 0.7 1.9 0.2
v 0.7 1.9 -0.2
v 0.7 1.9 -0.5
v 0.8 1.5 0.2
v 0.8 1.5 0.1
v 0.8 1.5 -0.1
v 0.8 1.5 -0.2
v 0.8 1.7 -0.1
v 0.8 1.8 0.1
v 0.8 1.9 0.2
v 0.8 1.9 0.1
v 0.8 1.9 -0.1
v 0.8 1.9 -0.2
v 2.6 0.6 0.9
v 2.6 0.6 0.6
v 2.6 0.6 -0.6
v 2.6 0.6 -0.9
v 2.6 1.1 0.6
v 2.6 1.1 0.3
v 2.6 1.1 -0.3
v 2.6 1.1 -0.6
v 2.6 1.3 0.4
v 2.6 1.3 0.3
v 2.6 1.3 -0.3
v 2.6 1.3 -0.4
v 2.6 1.4 0.9
v 2.6 1.4 0.4
v 2.6 1.4 -0.4
v 2.6 1.4 -0.9
v 2.7 1.7 0.3
v 2.7 1.7 0.2
v 2.7 1.7 -0.2
v 2.7 1.7 -0.3
v 2.7 1.8 0.3
v 2.7 1.8 0.2
v 2.7 1.8 -0.2
v 2.7 1.8 -0.3
v -2.9 1.6 0.1
v -2.9 1.6 -0.1
v -2.9 1.7 0.2
v -2.9 1.7 0.1
v -2.9 1.7 -0.1
v -2.9 1.7 -0.2
v -2.9 1.9 0.1
v -2.9 1.9 -0.1
v -2.9 2 0.2
v -2.9 2 0.1
v -2.9 2 -0.1
v -2.9 2 -0.2
v -2.9 2.1 0.1
v -2.9 2.1 -0.1
v -2.1 1.4 0.1
v -2.1 1.4 -0.1
v -2.1 1.5 0.2
v -2.1 1.5 0.1
v -2.1 1.5 -0.1
v -2.1 1.5 -0.2
v -2.1 1.6 0.3
v -2.1 1.6 0.2
v -2.1 1.6 0.1
v -2.1 1.6 -0.1
v -2.1 1.6 -0.2
v -2.1 1.6 -0.3
v -2.1 1.7 0.4
v -2.1 1.7 0.3
v -2.1 1.7 0.2
v -2.1 1.7 -0.2
v -2.1 1.7 -0.3
v -2.1 1.7 -0.4
v -2.1 2 0.4
v -2.1 2 0.3
v -2.1 2 0.2
v -2.1 2 -0.2
v -2.1 2 -0.3
v -2.1 2 -0.4
v -2.1 2.1 0.3
v -2.1 2.1 0.2
v -2.1 2.1 -0.2
v -2.1 2.1 -0.3
v -2 2.1 0.2
v -2 2.1 0.1
v -2 2.1 -0.1
v -2 2.1 -0.2
v -2 2.2 0.2
v -2 2.2 0.1
v -2 2.2 -0.1
v -2 2.2 -0.2
v -1.7 1.6 0.2
v -1.7 1.6 0.1
v -1.7 1.6 -0.1
v -1.7 1.6 -0.2
v -1.7 1.7 0.2
v -1.7 1.7 0.1
v -1.7 1.7 -0.1
v -1.7 1.7 -0.2
v -1.3 1.6 0.2
v -1.3 1.6 0.1
v -1.3 1.6 -0.1
v -1.3 1.6 -0.2
v -1.3 1.7 0.3
v -1.3 1.7 0.2
v -1.3 1.7 0.1
v -1.3 1.7 -0.1
v -1.3 1.7 -0.2
v -1.3 1.7 -0.3
v -1.3 2 0.3
v -1.3 2 0.2
v -1.3 2 0.1
v -1.3 2 -0.1
v -1.3 2 -0.2
v -1.3 2 -0.3
v -1.3 2.1 0.2
v -1.3 2.1 0.1
v -1.3 2.1 -0.1
v -1.3 2.1 -0.2
v -0.9 0.6 0.7
v -0.9 0.6 0.6
v -0.9 0.6 -0.6
v -0.9 0.6 -0.7
v -0.9 1.1 0.7
v -0.9 1.1 0.6
v -0.9 1.1 0.5
v -0.9 1.1 0.3
v -0.9 1.1 -0.3
v -0.9 1.1 -0.5
v -0.9 1.1 -0.6
v -0.9 1.1 -0.7
v -0.9 1.3 0.5
v -0.9 1.3 0.4
v -0.9 1.3 0.3
v -0.9 1.3 -0.3
v -0.9 1.3 -0.4
v -0.9 1.3 -0.5
v -0.8 0.6 0.9
v -0.8 0.6 0.7
v -0.8 0.6 -0.7
v -0.8 0.6 -0.9
v -0.8 1.1 0.7
v -0.8 1.1 0.5
v -0.8 1.1 -0.5
v -0.8 1.1 -0.7
v -0.8 1.3 0.9
v -0.8 1.3 0.8
v -0.8 1.3 0.5
v -0.8 1.3 0.4
v -0.8 1.3 -0.4
v -0.8 1.3 -0.5
v -0.8 1.3 -0.8
v -0.8 1.3 -0.9
v -0.8 1.4 0.8
v -0.8 1.4 0.5
v -0.8 1.4 0.4
v -0.8 1.4 -0.4
v -0.8 1.4 -0.5
v -0.8 1.4 -0.8
v -0.8 1.5 0.5
v -0.8 1.5 0.4
v -0.8 1.5 -0.4
v -0.8 1.5 -0.5
v -0.0999999 1.5 0.2
v -0.0999999 1.5 0.1
v -0.0999999 1.5 -0.1
v -0.0999999 1.5 -0.2
v -0.0999999 1.6 0.2
v -0.0999999 1.6 0.1
v -0.0999999 1.6 -0.1
v -0.0999999 1.6 -0.2
v -0.0999999 1.9 0.2
v -0.0999999 1.9 0.1
v -0.0999999 1.9 -0.1
v -0.0999999 1.9 -0.2
v 2.38419e-07 1.5 0.1
v 2.38419e-07 1.5 -0.1
v 2.38419e-07 1.6 0.1
v 2.38419e-07 1.6 0
v 2.38419e-07 1.6 -0.1
v 0.2 1.5 0.3
v 0.2 1.5 0.2
v 0.2 1.5 -0.2
v 0.2 1.5 -0.3
v 0.2 1.6 0.5
v 0.2 1.6 0.3
v 0.2 1.6 -0.3
v 0.2 1.6 -0.5
v 0.2 1.9 0.5
v 0.2 1.9 0.2
v 0.2 1.9 -0.2
v 0.2 1.9 -0.5
v 2.1 1.5 0.5
v 2.1 1.5 0.4
v 2.1 1.5 -0.4
v 2.1 1.5 -0.5
v 2.1 1.6 0.5
v 2.1 1.6 0.4
v 2.1 1.6 -0.4
v 2.1 1.6 -0.5
v 2.2 2 0.5
v 2.2 2 0.4
v 2.2 2 -0.4
v 2.2 2 -0.5
v 2.2 2.1 0.5
v 2.2 2.1 0.4
v 2.2 2.1 -0.4
v 2.2 2.1 -0.5
v 2.5 1.6 0.5
v 2.5 1.6 0.4
v 2.5 1.6 -0.4
v 2.5 1.6 -0.5
v 2.5 1.7 0.5
v 2.5 1.7 0.4
v 2.5 1.7 -0.4
v 2.5 1.7 -0.5
v 2.6 1.7 0.3
v 2.6 1.7 0.2
v 2.6 1.7 -0.2
v 2.6 1.7 -0.3
v 2.6 1.8 0.3
v 2.6 1.8 0.2
v 2.6 1.8 -0.2
v 2.6 1.8 -0.3
v 2.7 1.7 0.5
v 2.7 1.7 0.4
v 2.7 1.7 -0.4
v 2.7 1.7 -0.5
v 2.7 2 0.5
v 2.7 2 0.4
v 2.7 2 0.3
v 2.7 2 -0.3
v 2.7 2 -0.4
v 2.7 2 -0.5
v 2.7 2.1 0.4
v 2.7 2.1 0.3
v 2.7 2.1 0.2
v 2.7 2.1 -0.2
v 2.7 2.1 -0.3
v 2.7 2.1 -0.4
v 2.7 2.2 0.3
v 2.7 2.2 0.2
v 2.7 2.2 -0.2
v 2.7 2.2 -0.3
v 2.7 2.3 0.2
v 2.7 2.3 -0.2
v 2.8 1.4 0.4
v 2.8 1.4 0.3
v 2.8 1.4 0.2
v 2.8 1.4 -0.2
v 2.8 1.4 -0.3
v 2.8 1.4 -0.4
v 2.8 1.5 0.3
v 2.8 1.5 0.2
v 2.8 1.5 -0.2
v 2.8 1.5 -0.3
v 2.8 1.6 0.4
v 2.8 1.6 0.3
v 2.8 1.6 -0.3
v 2.8 1.6 -0.4
v 2.9 0 1.5
v 2.9 0 1.2
v 2.9 0 -1.2
v 2.9 0 -1.5
v 2.9 0.3 1.2
v 2.9 0.3 0.7
v 2.9 0.3 -0.7
v 2.9 0.3 -1.2
v 2.9 0.4 1.5
v 2.9 0.4 1.3
v 2.9 0.4 0.7
v 2.9 0.4 0.6
v 2.9 0.4 -0.6
v 2.9 0.4 -0.7
v 2.9 0.4 -1.3
v 2.9 0.4 -1.5
v 2.9 0.5 -1.2
v 2.9 0.5 -1.3
v 2.9 0.6 1.3
v 2.9 0.6 0.9
v 2.9 0.6 -0.9
v 2.9 0.6 -1.2
v 2.9 1.1 0.6
v 2.9 1.1 0.3
v 2.9 1.1 -0.3
v 2.9 1.1 -0.6
v 2.9 1.4 0.9
v 2.9 1.4 0.3
v 2.9 1.4 0.2
v 2.9 1.4 -0.2
v 2.9 1.4 -0.3
v 2.9 1.4 -0.9
v 2.9 1.5 0.3
v 2.9 1.5 0.2
v 2.9 1.5 -0.2
v 2.9 1.5 -0.3
v 2.9 1.6 0.4
v 2.9 1.6 0.3
v 2.9 1.6 -0.3
v 2.9 1.6 -0.4
v 2.9 2 0.4
v 2.9 2 0.3
v 2.9 2 -0.3
v 2.9 2 -0.4
v 2.9 2.1 0.3
v 2.9 2.1 0.2
v 2.9 2.1 -0.2
v 2.9 2.1 -0.3
v 2.9 2.2 0.2
v 2.9 2.2 -0.2
v -1.1 0 1.5
v -1.1 0.4 1.5
v 2.9 0 1.5
v 2.9 0.4 1.5
v -1.1 0.4 1.3
v -1.1 0.5 1.3
v -1.1 0.6 1.3
v -1 0.4 1.3
v -1 0.5 1.3
v 2.8 0.4 1.3
v 2.8 0.6 1.3
v 2.9 0.4 1.3
v 2.9 0.6 1.3
v -1 0.6 0.9
v -1 1.3 0.9
v -0.8 0.6 0.9
v -0.8 1.3 0.9
v 2.6 0.6 0.9
v 2.6 1.4 0.9
v 2.8 0.6 0.9
v 2.8 1.4 0.9
v 2.9 0.6 0.9
v 2.9 1.4 0.9
v -1.1 0.6 0.8
v -1.1 1.4 0.8
v -1 0.6 0.8
v -1 1.3 0.8
v -0.8 1.3 0.8
v -0.8 1.4 0.8
v -1.1 1.4 0.5
v -1.1 1.6 0.5
v -0.9 1.6 0.5
v -0.9 1.9 0.5
v -0.8 1.4 0.5
v -0.8 1.5 0.5
v -0.5 1.9 0.5
v -0.5 2 0.5
v 0.2 1.6 0.5
v 0.2 1.9 0.5
v 0.4 2 0.5
v 0.4 2.1 0.5
v 0.7 1.6 0.5
v 0.7 1.9 0.5
v 1.3 1.5 0.5
v 1.3 1.6 0.5
v 1.4 1.6 0.5
v 1.4 1.8 0.5
v 1.5 1.8 0.5
v 1.5 1.9 0.5
v 1.6 1.5 0.5
v 1.6 1.6 0.5
v 1.6 1.7 0.5
v 1.6 1.9 0.5
v 1.6 2 0.5
v 1.7 1.5 0.5
v 1.7 1.6 0.5
v 1.7 1.7 0.5
v 1.7 1.9 0.5
v 1.7 2 0.5
v 1.8 1.8 0.5
v 1.8 1.9 0.5
v 1.9 1.6 0.5
v 1.9 1.8 0.5
v 2 1.5 0.5
v 2 1.6 0.5
v 2.1 1.5 0.5
v 2.1 1.6 0.5
v 2.2 2 0.5
v 2.2 2.1 0.5
v 2.5 1.6 0.5
v 2.5 1.7 0.5
v 2.7 1.7 0.5
v 2.7 2 0.5
v -3 1.7 0.4
v -3 2 0.4
v -2.1 1.7 0.4
v -2.1 2 0.4
v -1.1 1.6 0.4
v -1.1 2 0.4
v -1 2 0.4
v -1 2.1 0.4
v -0.9 1.6 0.4
v -0.9 1.9 0.4
v -0.8 1.3 0.4
v -0.8 1.4 0.4
v -0.8 1.5 0.4
v -0.5 1.9 0.4
v -0.5 2 0.4
v 0.4 2 0.4
v 0.4 2.1 0.4
v 1.3 1.5 0.4
v 1.6 1.5 0.4
v 1.7 1.5 0.4
v 2 1.5 0.4
v 2.1 1.5 0.4
v 2.1 1.6 0.4
v 2.2 2 0.4
v 2.2 2.1 0.4
v 2.5 1.6 0.4
v 2.5 1.7 0.4
v 2.6 1.3 0.4
v 2.6 1.4 0.4
v 2.7 1.7 0.4
v 2.7 2 0.4
v 2.7 2.1 0.4
v 2.8 1.4 0.4
v 2.8 1.6 0.4
v 2.8 2 0.4
v 2.9 1.6 0.4
v 2.9 2 0.4
v -3 1.6 0.3
v -3 1.7 0.3
v -3 2 0.3
v -3 2.1 0.3
v -2.1 1.6 0.3
v -2.1 1.7 0.3
v -2.1 2 0.3
v -2.1 2.1 0.3
v -1.3 1.7 0.3
v -1.3 2 0.3
v -1.2 1.7 0.3
v -1.2 2 0.3
v -1.1 1.7 0.3
v -1.1 2 0.3
v -1.1 2.1 0.3
v -1 2 0.3
v -1 2.1 0.3
v -1 2.2 0.3
v 2.7 2 0.3
v 2.7 2.1 0.3
v 2.7 2.2 0.3
v 2.8 1.5 0.3
v 2.8 1.6 0.3
v 2.8 2 0.3
v 2.8 2.1 0.3
v 2.9 1.5 0.3
v 2.9 1.6 0.3
v 2.9 2 0.3
v 2.9 2.1 0.3
v -3 1.5 0.2
v -3 1.6 0.2
v -3 2.1 0.2
v -3 2.2 0.2
v -2.1 1.5 0.2
v -2.1 1.6 0.2
v -2.1 1.7 0.2
v -2.1 2 0.2
v -2.1 2.1 0.2
v -2 2.1 0.2
v -2 2.2 0.2
v -1.7 1.6 0.2
v -1.7 1.7 0.2
v -1.7 2 0.2
v -1.7 2.1 0.2
v -1.6 1.6 0.2
v -1.6 1.7 0.2
v -1.6 2 0.2
v -1.6 2.1 0.2
v -1.3 1.6 0.2
v -1.3 1.7 0.2
v -1.3 2 0.2
v -1.3 2.1 0.2
v -1.2 1.6 0.2
v -1.2 1.7 0.2
v -1.2 2 0.2
v -1.2 2.1 0.2
v -1.1 1.6 0.2
v -1.1 1.7 0.2
v -1.1 2 0.2
v -1.1 2.1 0.2
v -1.1 2.2 0.2
v -1 2.1 0.2
v -1 2.2 0.2
v -1 2.3 0.2
v 2.6 1.7 0.2
v 2.6 1.8 0.2
v 2.7 1.7 0.2
v 2.7 1.8 0.2
v 2.7 2.1 0.2
v 2.7 2.2 0.2
v 2.7 2.3 0.2
v 2.8 1.4 0.2
v 2.8 1.5 0.2
v 2.8 2.1 0.2
v 2.8 2.2 0.2
v 2.9 1.4 0.2
v 2.9 1.5 0.2
v 2.9 2.1 0.2
v 2.9 2.2 0.2
v -3 1.4 0.1
v -3 1.5 0.1
v -2.9 1.7 0.1
v -2.9 1.9 0.1
v -2.9 2 0.1
v -2.8 1.7 0.1
v -2.8 1.9 0.1
v -2.8 2 0.1
v -2.7 1.7 0.1
v -2.7 2 0.1
v -2.6 1.7 0.1
v -2.6 2 0.1
v -2.2 1.7 0.1
v -2.2 1.8 0.1
v -2.2 2 0.1
v -2.1 1.4 0.1
v -2.1 1.5 0.1
v -2.1 1.6 0.1
v -2.1 1.7 0.1
v -2.1 1.8 0.1
v -2.1 2 0.1
v -2 2.1 0.1
v -2 2.2 0.1
v -1.7 1.6 0.1
v -1.7 1.7 0.1
v -1.7 1.8 0.1
v -1.7 2 0.1
v -1.7 2.1 0.1
v -1.6 1.6 0.1
v -1.6 1.7 0.1
v -1.6 1.8 0.1
v -1.6 2 0.1
v -1.6 2.1 0.1
v -1.3 1.6 0.1
v -1.3 1.7 0.1
v -1.3 1.8 0.1
v -1.3 1.9 0.1
v -1.3 2 0.1
v -1.3 2.1 0.1
v -1.2 1.6 0.1
v -1.2 1.7 0.1
v -1.2 1.8 0.1
v -1.2 1.9 0.1
v -1.2 2 0.1
v -1.2 2.1 0.1
v -1.1 1.5 0.1
v -1.1 1.6 0.1
v -1.1 1.7 0.1
v -1.1 2 0.1
v -1.1 2.1 0.1
v -1.1 2.2 0.1
v -0.7 1.7 0.1
v -0.7 2 0.1
v -0.0999999 1.5 0.1
v -0.0999999 1.6 0.1
v -0.0999999 1.9 0.1
v 2.38419e-07 1.5 0.1
v 2.38419e-07 1.6 0.1
v 0.1 1.5 0.1
v 0.1 1.6 0.1
v 0.1 1.8 0.1
v 0.2 1.8 0.1
v 0.2 1.9 0.1
v 0.3 1.7 0.1
v 0.3 1.8 0.1
v 0.3 1.9 0.1
v 0.4 1.6 0.1
v 0.4 1.7 0.1
v 0.4 1.8 0.1
v 0.5 1.6 0.1
v 0.5 1.7 0.1
v 0.5 1.8 0.1
v 0.6 1.8 0.1
v 0.6 1.9 0.1
v 0.7 1.7 0.1
v 0.7 1.8 0.1
v 0.7 1.9 0.1
v 0.8 1.5 0.1
v 0.8 1.8 0.1
v 0.8 1.9 0.1
v -3 1.7 -0.1
v -3 1.9 -0.1
v -2.9 1.6 -0.1
v -2.9 1.7 -0.1
v -2.9 1.9 -0.1
v -2.9 2 -0.1
v -2.9 2.1 -0.1
v -2.8 1.7 -0.1
v -2.8 2 -0.1
v -2.7 1.6 -0.1
v -2.7 1.7 -0.1
v -2.7 2 -0.1
v -2.7 2.1 -0.1
v -2.6 1.6 -0.1
v -2.6 1.7 -0.1
v -2.6 2 -0.1
v -2.6 2.1 -0.1
v -2.2 1.6 -0.1
v -2.2 1.7 -0.1
v -2.2 2 -0.1
v -2.2 2.1 -0.1
v -2.1 1.6 -0.1
v -2.1 1.7 -0.1
v -2.1 2 -0.1
v -2.1 2.1 -0.1
v -2 2.1 -0.1
v -1.7 1.6 -0.1
v -1.7 1.7 -0.1
v -1.7 2 -0.1
v -1.7 2.1 -0.1
v -1.6 1.6 -0.1
v -1.6 1.7 -0.1
v -1.6 2 -0.1
v -1.6 2.1 -0.1
v -1.3 1.6 -0.1
v -1.3 1.7 -0.1
v -1.3 2 -0.1
v -1.3 2.1 -0.1
v -1.2 1.6 -0.1
v -1.2 1.7 -0.1
v -1.2 2 -0.1
v -1.2 2.1 -0.1
v -1.1 1.6 -0.1
v -1.1 1.7 -0.1
v -1.1 2 -0.1
v -1.1 2.1 -0.1
v -1 2 -0.1
v -1 2.1 -0.1
v -0.3 1.6 -0.1
v -0.3 1.7 -0.1
v -2.9 1.7 -0.2
v -2.9 2 -0.2
v -2.7 1.7 -0.2
v -2.7 2 -0.2
v -2.6 1.7 -0.2
v -2.6 2 -0.2
v -2.2 1.7 -0.2
v -2.2 2 -0.2
v -2.1 1.7 -0.2
v -2.1 2 -0.2
v -1.7 1.7 -0.2
v -1.7 2 -0.2
v -1.6 1.7 -0.2
v -1.6 2 -0.2
v -1.3 1.7 -0.2
v -1.3 2 -0.2
v -1.2 1.7 -0.2
v -1.2 2 -0.2
v -1.1 1.7 -0.2
v -1.1 2 -0.2
v -0.3 1.7 -0.2
v -0.3 2 -0.2
v -0.0999999 1.5 -0.2
v -0.0999999 1.6 -0.2
v -0.0999999 1.9 -0.2
v 0.2 1.5 -0.2
v 0.2 1.9 -0.2
v 0.7 1.5 -0.2
v 0.7 1.9 -0.2
v 0.8 1.5 -0.2
v 0.8 1.9 -0.2
v -1.1 1.1 -0.3
v -1.1 1.4 -0.3
v -1 1.3 -0.3
v -1 1.4 -0.3
v -0.9 1.1 -0.3
v -0.9 1.3 -0.3
v 0.2 1.5 -0.3
v 0.2 1.6 -0.3
v 0.7 1.5 -0.3
v 0.7 1.6 -0.3
v 2.6 1.1 -0.3
v 2.6 1.3 -0.3
v 2.6 1.7 -0.3
v 2.6 1.8 -0.3
v 2.7 1.7 -0.3
v 2.7 1.8 -0.3
v 2.8 1.1 -0.3
v 2.8 1.4 -0.3
v 2.9 1.1 -0.3
v 2.9 1.4 -0.3
v -0.9 1.1 -0.5
v -0.9 1.3 -0.5
v -0.8 1.1 -0.5
v -0.8 1.3 -0.5
v -1.1 0.4 -0.6
v -1.1 0.6 -0.6
v -1 0.4 -0.6
v -1 0.6 -0.6
v -1 1.1 -0.6
v -0.9 0.6 -0.6
v -0.9 1.1 -0.6
v 2.6 0.6 -0.6
v 2.6 1.1 -0.6
v 2.8 0.4 -0.6
v 2.8 1.1 -0.6
v 2.9 0.4 -0.6
v 2.9 1.1 -0.6
v -1.1 0.3 -0.7
v -1.1 0.4 -0.7
v -1.1 0.6 -0.7
v -1.1 1.1 -0.7
v -1 0.3 -0.7
v -1 0.4 -0.7
v -1 0.6 -0.7
v -1 1.1 -0.7
v -0.9 0.6 -0.7
v -0.9 1.1 -0.7
v -0.8 0.6 -0.7
v -0.8 1.1 -0.7
v 2.8 0.3 -0.7
v 2.8 0.4 -0.7
v 2.9 0.3 -0.7
v 2.9 0.4 -0.7
v -1.1 0 -1.2
v -1.1 0.3 -1.2
v -1 0 -1.2
v -1 0.3 -1.2
v 2.8 0 -1.2
v 2.8 0.3 -1.2
v 2.9 0 -1.2
v 2.9 0.3 -1.2
v -1.1 0 1.2
v -1.1 0.3 1.2
v -1 0 1.2
v -1 0.3 1.2
v 2.8 0 1.2
v 2.8 0.3 1.2
v 2.9 0 1.2
v 2.9 0.3 1.2
v -1.1 0.3 0.7
v -1.1 0.4 0.7
v -1.1 0.6 0.7
v -1.1 1.1 0.7
v -1 0.3 0.7
v -1 0.4 0.7
v -1 0.6 0.7
v -1 1.1 0.7
v -0.9 0.6 0.7
v -0.9 1.1 0.7
v -0.8 0.6 0.7
v -0.8 1.1 0.7
v 2.8 0.3 0.7
v 2.8 0.4 0.7
v 2.9 0.3 0.7
v 2.9 0.4 0.7
v -1.1 0.4 0.6
v -1.1 0.6 0.6
v -1 0.4 0.6
v -1 0.6 0.6
v -1 1.1 0.6
v -0.9 0.6 0.6
v -0.9 1.1 0.6
v 2.6 0.6 0.6
v 2.6 1.1 0.6
v 2.8 0.4 0.6
v 2.8 1.1 0.6
v 2.9 0.4 0.6
v 2.9 1.1 0.6
v -0.9 1.1 0.5
v -0.9 1.3 0.5
v -0.8 1.1 0.5
v -0.8 1.3 0.5
v -1.1 1.1 0.3
v -1.1 1.4 0.3
v -1 1.3 0.3
v -1 1.4 0.3
v -0.9 1.1 0.3
v -0.9 1.3 0.3
v 0.2 1.5 0.3
v 0.2 1.6 0.3
v 0.7 1.5 0.3
v 0.7 1.6 0.3
v 2.6 1.1 0.3
v 2.6 1.3 0.3
v 2.6 1.7 0.3
v 2.6 1.8 0.3
v 2.7 1.7 0.3
v 2.7 1.8 0.3
v 2.8 1.1 0.3
v 2.8 1.4 0.3
v 2.9 1.1 0.3
v 2.9 1.4 0.3
v -2.9 1.7 0.2
v -2.9 2 0.2
v -2.7 1.7 0.2
v -2.7 2 0.2
v -2.6 1.7 0.2
v -2.6 2 0.2
v -2.2 1.7 0.2
v -2.2 2 0.2
v -2.1 1.7 0.2
v -2.1 2 0.2
v -1.7 1.7 0.2
v -1.7 2 0.2
v -1.6 1.7 0.2
v -1.6 2 0.2
v -1.3 1.7 0.2
v -1.3 2 0.2
v -1.2 1.7 0.2
v -1.2 2 0.2
v -1.1 1.7 0.2
v -1.1 2 0.2
v -0.7 1.7 0.2
v -0.7 2 0.2
v -0.0999999 1.5 0.2
v -0.0999999 1.6 0.2
v -0.0999999 1.9 0.2
v 0.2 1.5 0.2
v 0.2 1.9 0.2
v 0.7 1.5 0.2
v 0.7 1.9 0.2
v 0.8 1.5 0.2
v 0.8 1.9 0.2
v -3 1.7 0.1
v -3 1.9 0.1
v -2.9 1.6 0.1
v -2.9 1.7 0.1
v -2.9 1.9 0.1
v -2.9 2 0.1
v -2.9 2.1 0.1
v -2.8 1.7 0.1
v -2.8 2 0.1
v -2.7 1.6 0.1
v -2.7 1.7 0.1
v -2.7 2 0.1
v -2.7 2.1 0.1
v -2.6 1.6 0.1
v -2.6 1.7 0.1
v -2.6 2 0.1
v -2.6 2.1 0.1
v -2.2 1.6 0.1
v -2.2 1.7 0.1
v -2.2 2 0.1
v -2.2 2.1 0.1
v -2.1 1.6 0.1
v -2.1 1.7 0.1
v -2.1 2 0.1
v -2.1 2.1 0.1
v -2 2.1 0.1
v -1.7 1.6 0.1
v -1.7 1.7 0.1
v -1.7 2 0.1
v -1.7 2.1 0.1
v -1.6 1.6 0.1
v -1.6 1.7 0.1
v -1.6 2 0.1
v -1.6 2.1 0.1
v -1.3 1.6 0.1
v -1.3 1.7 0.1
v -1.3 2 0.1
v -1.3 2.1 0.1
v -1.2 1.6 0.1
v -1.2 1.7 0.1
v -1.2 2 0.1
v -1.2 2.1 0.1
v -1.1 1.6 0.1
v -1.1 1.7 0.1
v -1.1 2 0.1
v -1.1 2.1 0.1
v -1 2 0.1
v -1 2.1 0.1
v -0.3 1.6 0.1
v -0.3 1.7 0.1
v -3 1.4 -0.1
v -3 1.5 -0.1
v -2.9 1.7 -0.1
v -2.9 1.9 -0.1
v -2.9 2 -0.1
v -2.8 1.7 -0.1
v -2.8 1.9 -0.1
v -2.8 2 -0.1
v -2.7 1.7 -0.1
v -2.7 2 -0.1
v -2.6 1.7 -0.1
v -2.6 2 -0.1
v -2.2 1.7 -0.1
v -2.2 1.8 -0.1
v -2.2 2 -0.1
v -2.1 1.4 -0.1
v -2.1 1.5 -0.1
v -2.1 1.6 -0.1
v -2.1 1.7 -0.1
v -2.1 1.8 -0.1
v -2.1 2 -0.1
v -2 2.1 -0.1
v -2 2.2 -0.1
v -1.7 1.6 -0.1
v -1.7 1.7 -0.1
v -1.7 1.8 -0.1
v -1.7 2 -0.1
v -1.7 2.1 -0.1
v -1.6 1.6 -0.1
v -1.6 1.7 -0.1
v -1.6 1.8 -0.1
v -1.6 2 -0.1
v -1.6 2.1 -0.1
v -1.3 1.6 -0.1
v -1.3 1.7 -0.1
v -1.3 1.8 -0.1
v -1.3 1.9 -0.1
v -1.3 2 -0.1
v -1.3 2.1 -0.1
v -1.2 1.6 -0.1
v -1.2 1.7 -0.1
v -1.2 1.8 -0.1
v -1.2 1.9 -0.1
v -1.2 2 -0.1
v -1.2 2.1 -0.1
v -1.1 1.5 -0.1
v -1.1 1.6 -0.1
v -1.1 1.7 -0.1
v -1.1 2 -0.1
v -1.1 2.1 -0.1
v -1.1 2.2 -0.1
v -0.3 1.7 -0.1
v -0.3 2 -0.1
v -0.0999999 1.5 -0.1
v -0.0999999 1.6 -0.1
v -0.0999999 1.9 -0.1
v 2.38419e-07 1.5 -0.1
v 2.38419e-07 1.6 -0.1
v 2.38419e-07 1.7 -0.1
v 0.1 1.5 -0.1
v 0.1 1.6 -0.1
v 0.1 1.7 -0.1
v 0.1 1.8 -0.1
v 0.2 1.6 -0.1
v 0.2 1.7 -0.1
v 0.2 1.8 -0.1
v 0.2 1.9 -0.1
v 0.3 1.7 -0.1
v 0.3 1.8 -0.1
v 0.3 1.9 -0.1
v 0.4 1.6 -0.1
v 0.4 1.7 -0.1
v 0.4 1.8 -0.1
v 0.5 1.6 -0.1
v 0.5 1.7 -0.1
v 0.5 1.8 -0.1
v 0.5 1.9 -0.1
v 0.6 1.7 -0.1
v 0.6 1.8 -0.1
v 0.6 1.9 -0.1
v 0.7 1.7 -0.1
v 0.7 1.8 -0.1
v 0.8 1.5 -0.1
v 0.8 1.7 -0.1
v 0.8 1.9 -0.1
v -3 1.5 -0.2
v -3 1.6 -0.2
v -3 2.1 -0.2
v -3 2.2 -0.2
v -2.1 1.5 -0.2
v -2.1 1.6 -0.2
v -2.1 1.7 -0.2
v -2.1 2 -0.2
v -2.1 2.1 -0.2
v -2 2.1 -0.2
v -2 2.2 -0.2
v -1.7 1.6 -0.2
v -1.7 1.7 -0.2
v -1.7 2 -0.2
v -1.7 2.1 -0.2
v -1.6 1.6 -0.2
v -1.6 1.7 -0.2
v -1.6 2 -0.2
v -1.6 2.1 -0.2
v -1.3 1.6 -0.2
v -1.3 1.7 -0.2
v -1.3 2 -0.2
v -1.3 2.1 -0.2
v -1.2 1.6 -0.2
v -1.2 1.7 -0.2
v -1.2 2 -0.2
v -1.2 2.1 -0.2
v -1.1 1.6 -0.2
v -1.1 1.7 -0.2
v -1.1 2 -0.2
v -1.1 2.1 -0.2
v -1.1 2.2 -0.2
v -1 2.1 -0.2
v -1 2.2 -0.2
v -1 2.3 -0.2
v 2.6 1.7 -0.2
v 2.6 1.8 -0.2
v 2.7 1.7 -0.2
v 2.7 1.8 -0.2
v 2.7 2.1 -0.2
v 2.7 2.2 -0.2
v 2.7 2.3 -0.2
v 2.8 1.4 -0.2
v 2.8 1.5 -0.2
v 2.8 2.1 -0.2
v 2.8 2.2 -0.2
v 2.9 1.4 -0.2
v 2.9 1.5 -0.2
v 2.9 2.1 -0.2
v 2.9 2.2 -0.2
v -3 1.6 -0.3
v -3 1.7 -0.3
v -3 2 -0.3
v -3 2.1 -0.3
v -2.1 1.6 -0.3
v -2.1 1.7 -0.3
v -2.1 2 -0.3
v -2.1 2.1 -0.3
v -1.3 1.7 -0.3
v -1.3 2 -0.3
v -1.2 1.7 -0.3
v -1.2 2 -0.3
v -1.1 1.7 -0.3
v -1.1 2 -0.3
v -1.1 2.1 -0.3
v -1 2 -0.3
v -1 2.1 -0.3
v -1 2.2 -0.3
v 2.7 2 -0.3
v 2.7 2.1 -0.3
v 2.7 2.2 -0.3
v 2.8 1.5 -0.3
v 2.8 1.6 -0.3
v 2.8 2 -0.3
v 2.8 2.1 -0.3
v 2.9 1.5 -0.3
v 2.9 1.6 -0.3
v 2.9 2 -0.3
v 2.9 2.1 -0.3
v -3 1.7 -0.4
v -3 2 -0.4
v -2.1 1.7 -0.4
v -2.1 2 -0.4
v -1.1 1.6 -0.4
v -1.1 2 -0.4
v -1 2 -0.4
v -1 2.1 -0.4
v -0.9 1.6 -0.4
v -0.9 1.9 -0.4
v -0.8 1.3 -0.4
v -0.8 1.4 -0.4
v -0.8 1.5 -0.4
v -0.5 1.9 -0.4
v -0.5 2 -0.4
v 0.4 2 -0.4
v 0.4 2.1 -0.4
v 1.3 1.5 -0.4
v 1.6 1.5 -0.4
v 1.7 1.5 -0.4
v 2 1.5 -0.4
v 2.1 1.5 -0.4
v 2.1 1.6 -0.4
v 2.2 2 -0.4
v 2.2 2.1 -0.4
v 2.5 1.6 -0.4
v 2.5 1.7 -0.4
v 2.6 1.3 -0.4
v 2.6 1.4 -0.4
v 2.7 1.7 -0.4
v 2.7 2 -0.4
v 2.7 2.1 -0.4
v 2.8 1.4 -0.4
v 2.8 1.6 -0.4
v 2.8 2 -0.4
v 2.9 1.6 -0.4
v 2.9 2 -0.4
v -1.1 1.4 -0.5
v -1.1 1.6 -0.5
v -0.9 1.6 -0.5
v -0.9 1.9 -0.5
v -0.8 1.4 -0.5
v -0.8 1.5 -0.5
v -0.5 1.9 -0.5
v -0.5 2 -0.5
v 0.2 1.6 -0.5
v 0.2 1.9 -0.5
v 0.4 2 -0.5
v 0.4 2.1 -0.5
v 0.7 1.6 -0.5
v 0.7 1.9 -0.5
v 1.3 1.5 -0.5
v 1.3 1.6 -0.5
v 1.4 1.6 -0.5
v 1.4 1.8 -0.5
v 1.5 1.8 -0.5
v 1.5 1.9 -0.5
v 1.6 1.5 -0.5
v 1.6 1.6 -0.5
v 1.6 1.7 -0.5
v 1.6 1.9 -0.5
v 1.6 2 -0.5
v 1.7 1.5 -0.5
v 1.7 1.6 -0.5
v 1.7 1.7 -0.5
v 1.7 1.9 -0.5
v 1.7 2 -0.5
v 1.8 1.8 -0.5
v 1.8 1.9 -0.5
v 1.9 1.6 -0.5
v 1.9 1.8 -0.5
v 2 1.5 -0.5
v 2 1.6 -0.5
v 2.1 1.5 -0.5
v 2.1 1.6 -0.5
v 2.2 2 -0.5
v 2.2 2.1 -0.5
v 2.5 1.6 -0.5
v 2.5 1.7 -0.5
v 2.7 1.7 -0.5
v 2.7 2 -0.5
v -1.1 0.6 -0.8
v -1.1 1.4 -0.8
v -1 0.6 -0.8
v -1 1.3 -0.8
v -0.8 1.3 -0.8
v -0.8 1.4 -0.8
v -1 0.6 -0.9
v -1 1.3 -0.9
v -0.8 0.6 -0.9
v -0.8 1.3 -0.9
v 2.6 0.6 -0.9
v 2.6 1.4 -0.9
v 2.8 0.6 -0.9
v 2.8 1.4 -0.9
v 2.9 0.6 -0.9
v 2.9 1.4 -0.9
v -1.1 0.5 -1.2
v -1.1 0.6 -1.2
v -1 0.5 -1.2
v -1 0.6 -1.2
v 2.8 0.5 -1.2
v 2.8 0.6 -1.2
v 2.9 0.5 -1.2
v 2.9 0.6 -1.2
v -1.1 0.4 -1.3
v -1.1 0.5 -1.3
v -1 0.4 -1.3
v -1 0.5 -1.3
v 2.8 0.4 -1.3
v 2.8 0.5 -1.3
v 2.9 0.4 -1.3
v 2.9 0.5 -1.3
v -1.1 0 -1.5
v -1.1 0.4 -1.5
v 2.9 0 -1.5
v 2.9 0.4 -1.5
v -1.1 0 1.5
v 2.9 0 1.5
v -1 0 1.4
v 2.8 0 1.4
v -1.1 0 1.2
v -1 0 1.2
v 2.8 0 1.2
v 2.9 0 1.2
v -1.1 0 -1.2
v -1 0 -1.2
v 2.8 0 -1.2
v 2.9 0 -1.2
v -1 0 -1.4
v 2.8 0 -1.4
v -1.1 0 -1.5
v 2.9 0 -1.5
v -1.1 0.3 1.2
v -1 0.3 1.2
v 2.8 0.3 1.2
v 2.9 0.3 1.2
v -1.1 0.3 0.7
v -1 0.3 0.7
v 2.8 0.3 0.7
v 2.9 0.3 0.7
v -1.1 0.3 -0.7
v -1 0.3 -0.7
v 2.8 0.3 -0.7
v 2.9 0.3 -0.7
v -1.1 0.3 -1.2
v -1 0.3 -1.2
v 2.8 0.3 -1.2
v 2.9 0.3 -1.2
v -1.1 0.4 0.7
v -1 0.4 0.7
v 2.8 0.4 0.7
v 2.9 0.4 0.7
v -1.1 0.4 0.6
v -1 0.4 0.6
v 2.8 0.4 0.6
v 2.9 0.4 0.6
v -1.1 0.4 -0.6
v -1 0.4 -0.6
v 2.8 0.4 -0.6
v 2.9 0.4 -0.6
v -1.1 0.4 -0.7
v -1 0.4 -0.7
v 2.8 0.4 -0.7
v 2.9 0.4 -0.7
v -1.1 1.1 0.7
v -1 1.1 0.7
v -0.9 1.1 0.7
v -0.8 1.1 0.7
v -1 1.1 0.6
v -0.9 1.1 0.6
v 2.6 1.1 0.6
v 2.8 1.1 0.6
v 2.9 1.1 0.6
v -0.9 1.1 0.5
v -0.8 1.1 0.5
v -1.1 1.1 0.3
v -0.9 1.1 0.3
v 2.6 1.1 0.3
v 2.8 1.1 0.3
v 2.9 1.1 0.3
v -1.1 1.1 -0.3
v -0.9 1.1 -0.3
v 2.6 1.1 -0.3
v 2.8 1.1 -0.3
v 2.9 1.1 -0.3
v -0.9 1.1 -0.5
v -0.8 1.1 -0.5
v -1 1.1 -0.6
v -0.9 1.1 -0.6
v 2.6 1.1 -0.6
v 2.8 1.1 -0.6
v 2.9 1.1 -0.6
v -1.1 1.1 -0.7
v -1 1.1 -0.7
v -0.9 1.1 -0.7
v -0.8 1.1 -0.7
v -0.9 1.3 0.5
v -0.8 1.3 0.5
v -0.9 1.3 0.4
v -0.8 1.3 0.4
v 2.6 1.3 0.4
v -0.9 1.3 0.3
v 2.6 1.3 0.3
v -0.9 1.3 -0.3
v 2.6 1.3 -0.3
v -0.9 1.3 -0.4
v -0.8 1.3 -0.4
v 2.6 1.3 -0.4
v -0.9 1.3 -0.5
v -0.8 1.3 -0.5
v -1.1 1.4 0.3
v -1 1.4 0.3
v 2.8 1.4 0.3
v 2.8 1.4 0.2
v 2.9 1.4 0.2
v -3 1.4 0.1
v -2.1 1.4 0.1
v -3 1.4 -0.1
v -2.1 1.4 -0.1
v 2.8 1.4 -0.2
v 2.9 1.4 -0.2
v -1.1 1.4 -0.3
v -1 1.4 -0.3
v 2.8 1.4 -0.3
v -0.8 1.5 0.5
v 1.3 1.5 0.5
v 1.6 1.5 0.5
v 1.7 1.5 0.5
v 2 1.5 0.5
v 2.1 1.5 0.5
v -0.8 1.5 0.4
v 1.3 1.5 0.4
v 1.6 1.5 0.4
v 1.7 1.5 0.4
v 2 1.5 0.4
v 2.1 1.5 0.4
v 2.8 1.5 0.3
v 2.9 1.5 0.3
v -3 1.5 0.2
v -2.1 1.5 0.2
v 2.8 1.5 0.2
v 2.9 1.5 0.2
v -3 1.5 0.1
v -2.1 1.5 0.1
v -1.1 1.5 0.1
v -3 1.5 -0.1
v -2.1 1.5 -0.1
v -1.1 1.5 -0.1
v -3 1.5 -0.2
v -2.1 1.5 -0.2
v 2.8 1.5 -0.2
v 2.9 1.5 -0.2
v 2.8 1.5 -0.3
v 2.9 1.5 -0.3
v -0.8 1.5 -0.4
v 1.3 1.5 -0.4
v 1.6 1.5 -0.4
v 1.7 1.5 -0.4
v 2 1.5 -0.4
v 2.1 1.5 -0.4
v -0.8 1.5 -0.5
v 1.3 1.5 -0.5
v 1.6 1.5 -0.5
v 1.7 1.5 -0.5
v 2 1.5 -0.5
v 2.1 1.5 -0.5
v 2.1 1.6 0.5
v 2.5 1.6 0.5
v 2.1 1.6 0.4
v 2.5 1.6 0.4
v 2.8 1.6 0.4
v 2.9 1.6 0.4
v -3 1.6 0.3
v -2.1 1.6 0.3
v 2.8 1.6 0.3
v 2.9 1.6 0.3
v -3 1.6 0.2
v -2.1 1.6 0.2
v -1.7 1.6 0.2
v -1.6 1.6 0.2
v -1.3 1.6 0.2
v -1.2 1.6 0.2
v -1.1 1.6 0.2
v -2.1 1.6 0.1
v -1.7 1.6 0.1
v -1.6 1.6 0.1
v -1.3 1.6 0.1
v -1.2 1.6 0.1
v -1.1 1.6 0.1
v 2.38419e-07 1.6 0.1
v 0.1 1.6 0.1
v 2.38419e-07 1.6 0
v 0.1 1.6 0
v -2.1 1.6 -0.1
v -1.7 1.6 -0.1
v -1.6 1.6 -0.1
v -1.3 1.6 -0.1
v -1.2 1.6 -0.1
v -1.1 1.6 -0.1
v 2.38419e-07 1.6 -0.1
v 0.1 1.6 -0.1
v -3 1.6 -0.2
v -2.1 1.6 -0.2
v -1.7 1.6 -0.2
v -1.6 1.6 -0.2
v -1.3 1.6 -0.2
v -1.2 1.6 -0.2
v -1.1 1.6 -0.2
v -3 1.6 -0.3
v -2.1 1.6 -0.3
v 2.8 1.6 -0.3
v 2.9 1.6 -0.3
v 2.1 1.6 -0.4
v 2.5 1.6 -0.4
v 2.8 1.6 -0.4
v 2.9 1.6 -0.4
v 2.1 1.6 -0.5
v 2.5 1.6 -0.5
v 2.5 1.7 0.5
v 2.7 1.7 0.5
v -3 1.7 0.4
v -2.1 1.7 0.4
v 2.5 1.7 0.4
v 2.7 1.7 0.4
v -3 1.7 0.3
v -2.1 1.7 0.3
v -1.3 1.7 0.3
v -1.2 1.7 0.3
v -1.1 1.7 0.3
v -2.1 1.7 0.2
v -1.7 1.7 0.2
v -1.6 1.7 0.2
v -1.3 1.7 0.2
v -1.2 1.7 0.2
v -1.1 1.7 0.2
v -2.9 1.7 0.1
v -2.8 1.7 0.1
v -2.7 1.7 0.1
v -2.6 1.7 0.1
v -2.2 1.7 0.1
v -2.1 1.7 0.1
v -1.7 1.7 0.1
v -1.6 1.7 0.1
v -1.3 1.7 0.1
v -1.2 1.7 0.1
v -1.1 1.7 0.1
v -0.3 1.7 0.1
v -2.9 1.7 -0.1
v -2.8 1.7 -0.1
v -2.7 1.7 -0.1
v -2.6 1.7 -0.1
v -2.2 1.7 -0.1
v -2.1 1.7 -0.1
v -1.7 1.7 -0.1
v -1.6 1.7 -0.1
v -1.3 1.7 -0.1
v -1.2 1.7 -0.1
v -1.1 1.7 -0.1
v -0.3 1.7 -0.1
v -2.1 1.7 -0.2
v -1.7 1.7 -0.2
v -1.6 1.7 -0.2
v -1.3 1.7 -0.2
v -1.2 1.7 -0.2
v -1.1 1.7 -0.2
v -3 1.7 -0.3
v -2.1 1.7 -0.3
v -1.3 1.7 -0.3
v -1.2 1.7 -0.3
v -1.1 1.7 -0.3
v -3 1.7 -0.4
v -2.1 1.7 -0.4
v 2.5 1.7 -0.4
v 2.7 1.7 -0.4
v 2.5 1.7 -0.5
v 2.7 1.7 -0.5
v 2.6 1.8 0.3
v 2.7 1.8 0.3
v 2.6 1.8 0.2
v 2.7 1.8 0.2
v 2.6 1.8 -0.2
v 2.7 1.8 -0.2
v 2.6 1.8 -0.3
v 2.7 1.8 -0.3
v 0.2 1.9 0.5
v 0.7 1.9 0.5
v -0.0999999 1.9 0.2
v 0.2 1.9 0.2
v 0.7 1.9 0.2
v 0.8 1.9 0.2
v -3 1.9 0.1
v -2.9 1.9 0.1
v -0.0999999 1.9 0.1
v 0.2 1.9 0.1
v 0.3 1.9 0.1
v 0.6 1.9 0.1
v 0.7 1.9 0.1
v 0.8 1.9 0.1
v -3 1.9 -0.1
v -2.9 1.9 -0.1
v -0.0999999 1.9 -0.1
v 0.2 1.9 -0.1
v 0.3 1.9 -0.1
v 0.5 1.9 -0.1
v 0.6 1.9 -0.1
v 0.8 1.9 -0.1
v -0.0999999 1.9 -0.2
v 0.2 1.9 -0.2
v 0.7 1.9 -0.2
v 0.8 1.9 -0.2
v 0.2 1.9 -0.5
v 0.7 1.9 -0.5
v -2.9 2 0.2
v -2.7 2 0.2
v -2.6 2 0.2
v -2.2 2 0.2
v -2.1 2 0.2
v -1.7 2 0.2
v -1.6 2 0.2
v -1.3 2 0.2
v -1.2 2 0.2
v -1.1 2 0.2
v -0.7 2 0.2
v -2.9 2 0.1
v -2.8 2 0.1
v -2.7 2 0.1
v -2.6 2 0.1
v -2.2 2 0.1
v -2.1 2 0.1
v -1.7 2 0.1
v -1.6 2 0.1
v -1.3 2 0.1
v -1.2 2 0.1
v -1.1 2 0.1
v -0.7 2 0.1
v -2.9 2 -0.1
v -2.8 2 -0.1
v -2.7 2 -0.1
v -2.6 2 -0.1
v -2.2 2 -0.1
v -2.1 2 -0.1
v -1.7 2 -0.1
v -1.6 2 -0.1
v -1.3 2 -0.1
v -1.2 2 -0.1
v -1.1 2 -0.1
v -0.3 2 -0.1
v -2.9 2 -0.2
v -2.7 2 -0.2
v -2.6 2 -0.2
v -2.2 2 -0.2
v -2.1 2 -0.2
v -1.7 2 -0.2
v -1.6 2 -0.2
v -1.3 2 -0.2
v -1.2 2 -0.2
v -1.1 2 -0.2
v -0.3 2 -0.2
v -2.9 2.1 0.1
v -2.7 2.1 0.1
v -2.6 2.1 0.1
v -2.2 2.1 0.1
v -2.1 2.1 0.1
v -2 2.1 0.1
v -1.7 2.1 0.1
v -1.6 2.1 0.1
v -1.3 2.1 0.1
v -1.2 2.1 0.1
v -1.1 2.1 0.1
v -1 2.1 0.1
v -2.9 2.1 -0.1
v -2.7 2.1 -0.1
v -2.6 2.1 -0.1
v -2.2 2.1 -0.1
v -2.1 2.1 -0.1
v -2 2.1 -0.1
v -1.7 2.1 -0.1
v -1.6 2.1 -0.1
v -1.3 2.1 -0.1
v -1.2 2.1 -0.1
v -1.1 2.1 -0.1
v -1 2.1 -0.1
v -1.1 0.4 1.5
v 2.9 0.4 1.5
v -1 0.4 1.4
v 2.8 0.4 1.4
v -1.1 0.4 1.3
v -1 0.4 1.3
v 2.8 0.4 1.3
v 2.9 0.4 1.3
v -1.1 0.4 -1.3
v -1 0.4 -1.3
v 2.8 0.4 -1.3
v 2.9 0.4 -1.3
v -1 0.4 -1.4
v 2.8 0.4 -1.4
v -1.1 0.4 -1.5
v 2.9 0.4 -1.5
v -1.1 0.5 -1.2
v -1 0.5 -1.2
v 2.8 0.5 -1.2
v 2.9 0.5 -1.2
v -1.1 0.5 -1.3
v -1 0.5 -1.3
v 2.8 0.5 -1.3
v 2.9 0.5 -1.3
v -1.1 0.6 1.3
v 2.8 0.6 1.3
v 2.9 0.6 1.3
v -1.1 0.6 1.2
v -1 0.6 1.2
v -1 0.6 0.9
v -0.8 0.6 0.9
v 2.6 0.6 0.9
v 2.8 0.6 0.9
v 2.9 0.6 0.9
v -1.1 0.6 0.8
v -1 0.6 0.8
v -1.1 0.6 0.7
v -1 0.6 0.7
v -0.9 0.6 0.7
v -0.8 0.6 0.7
v -1.1 0.6 0.6
v -1 0.6 0.6
v -0.9 0.6 0.6
v 2.6 0.6 0.6
v -1.1 0.6 -0.6
v -1 0.6 -0.6
v -0.9 0.6 -0.6
v 2.6 0.6 -0.6
v -1.1 0.6 -0.7
v -1 0.6 -0.7
v -0.9 0.6 -0.7
v -0.8 0.6 -0.7
v -1.1 0.6 -0.8
v -1 0.6 -0.8
v -1 0.6 -0.9
v -0.8 0.6 -0.9
v 2.6 0.6 -0.9
v 2.8 0.6 -0.9
v 2.9 0.6 -0.9
v -1.1 0.6 -1.2
v -1 0.6 -1.2
v 2.8 0.6 -1.2
v 2.9 0.6 -1.2
v -1 1.3 0.9
v -0.8 1.3 0.9
v -1 1.3 0.8
v -0.8 1.3 0.8
v -1 1.3 -0.8
v -0.8 1.3 -0.8
v -1 1.3 -0.9
v -0.8 1.3 -0.9
v 2.6 1.4 0.9
v 2.8 1.4 0.9
v 2.9 1.4 0.9
v -1.1 1.4 0.8
v -0.8 1.4 0.8
v -1.1 1.4 0.5
v -0.8 1.4 0.5
v 2.6 1.4 0.4
v 2.8 1.4 0.4
v 2.8 1.4 0.3
v 2.9 1.4 0.3
v 2.8 1.4 -0.3
v 2.9 1.4 -0.3
v 2.6 1.4 -0.4
v 2.8 1.4 -0.4
v -1.1 1.4 -0.5
v -0.8 1.4 -0.5
v -1.1 1.4 -0.8
v -0.8 1.4 -0.8
v 2.6 1.4 -0.9
v 2.8 1.4 -0.9
v 2.9 1.4 -0.9
v 0.2 1.5 0.3
v 0.7 1.5 0.3
v -0.0999999 1.5 0.2
v 0.2 1.5 0.2
v 0.7 1.5 0.2
v 0.8 1.5 0.2
v -0.0999999 1.5 0.1
v 2.38419e-07 1.5 0.1
v 0.1 1.5 0.1
v 0.8 1.5 0.1
v -0.0999999 1.5 -0.1
v 2.38419e-07 1.5 -0.1
v 0.1 1.5 -0.1
v 0.8 1.5 -0.1
v -0.0999999 1.5 -0.2
v 0.2 1.5 -0.2
v 0.7 1.5 -0.2
v 0.8 1.5 -0.2
v 0.2 1.5 -0.3
v 0.7 1.5 -0.3
v -1.1 1.6 0.5
v -0.9 1.6 0.5
v 0.2 1.6 0.5
v 0.7 1.6 0.5
v -1.1 1.6 0.4
v -0.9 1.6 0.4
v 0.2 1.6 0.3
v 0.7 1.6 0.3
v -2.9 1.6 0.1
v -2.7 1.6 0.1
v -2.6 1.6 0.1
v -2.2 1.6 0.1
v -2.1 1.6 0.1
v -1.7 1.6 0.1
v -1.6 1.6 0.1
v -1.3 1.6 0.1
v -1.2 1.6 0.1
v -1.1 1.6 0.1
v -0.3 1.6 0.1
v -2.9 1.6 -0.1
v -2.7 1.6 -0.1
v -2.6 1.6 -0.1
v -2.2 1.6 -0.1
v -2.1 1.6 -0.1
v -1.7 1.6 -0.1
v -1.6 1.6 -0.1
v -1.3 1.6 -0.1
v -1.2 1.6 -0.1
v -1.1 1.6 -0.1
v -0.3 1.6 -0.1
v 0.2 1.6 -0.3
v 0.7 1.6 -0.3
v -1.1 1.6 -0.4
v -0.9 1.6 -0.4
v -1.1 1.6 -0.5
v -0.9 1.6 -0.5
v 0.2 1.6 -0.5
v 0.7 1.6 -0.5
v 2.6 1.7 0.3
v 2.7 1.7 0.3
v -2.9 1.7 0.2
v -2.7 1.7 0.2
v -2.6 1.7 0.2
v -2.2 1.7 0.2
v -2.1 1.7 0.2
v -1.7 1.7 0.2
v -1.6 1.7 0.2
v -1.3 1.7 0.2
v -1.2 1.7 0.2
v -1.1 1.7 0.2
v -0.7 1.7 0.2
v 2.6 1.7 0.2
v 2.7 1.7 0.2
v -3 1.7 0.1
v -2.9 1.7 0.1
v -2.8 1.7 0.1
v -2.7 1.7 0.1
v -2.6 1.7 0.1
v -2.2 1.7 0.1
v -2.1 1.7 0.1
v -1.7 1.7 0.1
v -1.6 1.7 0.1
v -1.3 1.7 0.1
v -1.2 1.7 0.1
v -1.1 1.7 0.1
v -0.7 1.7 0.1
v -3 1.7 -0.1
v -2.9 1.7 -0.1
v -2.8 1.7 -0.1
v -2.7 1.7 -0.1
v -2.6 1.7 -0.1
v -2.2 1.7 -0.1
v -2.1 1.7 -0.1
v -1.7 1.7 -0.1
v -1.6 1.7 -0.1
v -1.3 1.7 -0.1
v -1.2 1.7 -0.1
v -1.1 1.7 -0.1
v -0.3 1.7 -0.1
v -2.9 1.7 -0.2
v -2.7 1.7 -0.2
v -2.6 1.7 -0.2
v -2.2 1.7 -0.2
v -2.1 1.7 -0.2
v -1.7 1.7 -0.2
v -1.6 1.7 -0.2
v -1.3 1.7 -0.2
v -1.2 1.7 -0.2
v -1.1 1.7 -0.2
v -0.3 1.7 -0.2
v 2.6 1.7 -0.2
v 2.7 1.7 -0.2
v 2.6 1.7 -0.3
v 2.7 1.7 -0.3
v -0.9 1.9 0.5
v -0.5 1.9 0.5
v -0.9 1.9 0.4
v -0.5 1.9 0.4
v -0.9 1.9 -0.4
v -0.5 1.9 -0.4
v -0.9 1.9 -0.5
v -0.5 1.9 -0.5
v -0.5 2 0.5
v 0.4 2 0.5
v 2.2 2 0.5
v 2.7 2 0.5
v -3 2 0.4
v -2.1 2 0.4
v -1.1 2 0.4
v -1 2 0.4
v -0.5 2 0.4
v 0.4 2 0.4
v 2.2 2 0.4
v 2.7 2 0.4
v 2.8 2 0.4
v 2.9 2 0.4
v -3 2 0.3
v -2.1 2 0.3
v -1.3 2 0.3
v -1.2 2 0.3
v -1.1 2 0.3
v -1 2 0.3
v 2.7 2 0.3
v 2.8 2 0.3
v 2.9 2 0.3
v -2.1 2 0.2
v -1.7 2 0.2
v -1.6 2 0.2
v -1.3 2 0.2
v -1.2 2 0.2
v -1.1 2 0.2
v -2.9 2 0.1
v -2.8 2 0.1
v -2.7 2 0.1
v -2.6 2 0.1
v -2.2 2 0.1
v -2.1 2 0.1
v -1.7 2 0.1
v -1.6 2 0.1
v -1.3 2 0.1
v -1.2 2 0.1
v -1.1 2 0.1
v -1 2 0.1
v -2.9 2 -0.1
v -2.8 2 -0.1
v -2.7 2 -0.1
v -2.6 2 -0.1
v -2.2 2 -0.1
v -2.1 2 -0.1
v -1.7 2 -0.1
v -1.6 2 -0.1
v -1.3 2 -0.1
v -1.2 2 -0.1
v -1.1 2 -0.1
v -1 2 -0.1
v -2.1 2 -0.2
v -1.7 2 -0.2
v -1.6 2 -0.2
v -1.3 2 -0.2
v -1.2 2 -0.2
v -1.1 2 -0.2
v -3 2 -0.3
v -2.1 2 -0.3
v -1.3 2 -0.3
v -1.2 2 -0.3
v -1.1 2 -0.3
v -1 2 -0.3
v 2.7 2 -0.3
v 2.8 2 -0.3
v 2.9 2 -0.3
v -3 2 -0.4
v -2.1 2 -0.4
v -1.1 2 -0.4
v -1 2 -0.4
v -0.5 2 -0.4
v 0.4 2 -0.4
v 2.2 2 -0.4
v 2.7 2 -0.4
v 2.8 2 -0.4
v 2.9 2 -0.4
v -0.5 2 -0.5
v 0.4 2 -0.5
v 2.2 2 -0.5
v 2.7 2 -0.5
v 0.4 2.1 0.5
v 2.2 2.1 0.5
v -1 2.1 0.4
v 0.4 2.1 0.4
v 2.2 2.1 0.4
v 2.7 2.1 0.4
v -3 2.1 0.3
v -2.1 2.1 0.3
v -1.1 2.1 0.3
v -1 2.1 0.3
v 2.7 2.1 0.3
v 2.8 2.1 0.3
v 2.9 2.1 0.3
v -3 2.1 0.2
v -2.1 2.1 0.2
v -2 2.1 0.2
v -1.7 2.1 0.2
v -1.6 2.1 0.2
v -1.3 2.1 0.2
v -1.2 2.1 0.2
v -1.1 2.1 0.2
v -1 2.1 0.2
v 2.7 2.1 0.2
v 2.8 2.1 0.2
v 2.9 2.1 0.2
v -2 2.1 0.1
v -1.7 2.1 0.1
v -1.6 2.1 0.1
v -1.3 2.1 0.1
v -1.2 2.1 0.1
v -1.1 2.1 0.1
v -2 2.1 -0.1
v -1.7 2.1 -0.1
v -1.6 2.1 -0.1
v -1.3 2.1 -0.1
v -1.2 2.1 -0.1
v -1.1 2.1 -0.1
v -3 2.1 -0.2
v -2.1 2.1 -0.2
v -2 2.1 -0.2
v -1.7 2.1 -0.2
v -1.6 2.1 -0.2
v -1.3 2.1 -0.2
v -1.2 2.1 -0.2
v -1.1 2.1 -0.2
v -1 2.1 -0.2
v 2.7 2.1 -0.2
v 2.8 2.1 -0.2
v 2.9 2.1 -0.2
v -3 2.1 -0.3
v -2.1 2.1 -0.3
v -1.1 2.1 -0.3
v -1 2.1 -0.3
v 2.7 2.1 -0.3
v 2.8 2.1 -0.3
v 2.9 2.1 -0.3
v -1 2.1 -0.4
v 0.4 2.1 -0.4
v 2.2 2.1 -0.4
v 2.7 2.1 -0.4
v 0.4 2.1 -0.5
v 2.2 2.1 -0.5
v -1 2.2 0.3
v 2.7 2.2 0.3
v -3 2.2 0.2
v -2 2.2 0.2
v -1.1 2.2 0.2
v -1 2.2 0.2
v 2.7 2.2 0.2
v 2.8 2.2 0.2
v 2.9 2.2 0.2
v -2 2.2 0.1
v -1.1 2.2 0.1
v -2 2.2 -0.1
v -1.1 2.2 -0.1
v -3 2.2 -0.2
v -2 2.2 -0.2
v -1.1 2.2 -0.2
v -1 2.2 -0.2
v 2.7 2.2 -0.2
v 2.8 2.2 -0.2
v 2.9 2.2 -0.2
v -1 2.2 -0.3
v 2.7 2.2 -0.3
v -1 2.3 0.2
v 2.7 2.3 0.2
v -1 2.3 -0.2
v 2.7 2.3 -0.2

# faces
f 4/9/1 2/9/1 1/9/1
f 5/9/1 2/9/1 4/9/1
f 8/9/1 4/9/1 3/9/1
f 9/2/1 5/2/1 4/2/1
f 9/9/1 4/9/1 8/9/1
f 10/9/1 6/9/1 5/9/1
f 10/2/1 5/2/1 9/2/1
f 11/9/1 6/9/1 10/9/1
f 14/9/1 8/9/1 7/9/1
f 15/7/1 9/7/1 8/7/1
f 15/9/1 8/9/1 14/9/1
f 16/3/1 10/3/1 9/3/1
f 16/7/1 9/7/1 15/7/1
f 17/7/1 11/7/1 10/7/1
f 17/3/1 10/3/1 16/3/1
f 18/9/1 12/9/1 11/9/1
f 18/7/1 11/7/1 17/7/1
f 19/9/1 12/9/1 18/9/1
f 21/3/1 16/3/1 15/3/1
f 22/3/1 18/3/1 17/3/1
f 23/9/1 14/9/1 13/9/1
f 24/8/1 15/8/1 14/8/1
f 24/9/1 14/9/1 23/9/1
f 25/3/1 22/3/1 21/3/1
f 25/8/1 15/8/1 24/8/1
f 25/3/1 21/3/1 15/3/1
f 26/3/1 22/3/1 25/3/1
f 27/3/1 18/3/1 22/3/1
f 27/3/1 22/3/1 26/3/1
f 28/8/1 19/8/1 18/8/1
f 28/3/1 18/3/1 27/3/1
f 29/9/1 20/9/1 19/9/1
f 29/8/1 19/8/1 28/8/1
f 30/9/1 20/9/1 29/9/1
f 31/9/1 25/9/1 24/9/1
f 32/2/1 26/2/1 25/2/1
f 32/9/1 25/9/1 31/9/1
f 33/3/1 27/3/1 26/3/1
f 33/2/1 26/2/1 32/2/1
f 34/2/1 28/2/1 27/2/1
f 34/3/1 27/3/1 33/3/1
f 35/9/1 29/9/1 28/9/1
f 35/2/1 28/2/1 34/2/1
f 36/9/1 29/9/1 35/9/1
f 37/9/1 33/9/1 32/9/1
f 37/9/1 35/9/1 34/9/1
f 37/9/1 34/9/1 33/9/1
f 38/9/1 35/9/1 37/9/1
f 41/14/1 40/14/1 39/14/1
f 42/14/1 40/14/1 41/14/1
f 47/7/1 44/7/1 43/7/1
f 48/7/1 44/7/1 47/7/1
f 49/7/1 46/7/1 45/7/1
f 50/7/1 46/7/1 49/7/1
f 56/7/1 52/7/1 51/7/1
f 57/7/1 52/7/1 56/7/1
f 58/7/1 54/7/1 53/7/1
f 59/7/1 54/7/1 58/7/1
f 61/8/1 56/8/1 55/8/1
f 62/8/1 56/8/1 61/8/1
f 65/8/1 60/8/1 59/8/1
f 66/8/1 60/8/1 65/8/1
f 67/2/1 63/2/1 62/2/1
f 68/2/1 63/2/1 67/2/1
f 69/2/1 65/2/1 64/2/1
f 70/2/1 65/2/1 69/2/1
f 75/9/1 72/9/1 71/9/1
f 78/9/1 74/9/1 73/9/1
f 79/9/1 76/9/1 75/9/1
f 79/9/1 75/9/1 71/9/1
f 80/9/1 76/9/1 79/9/1
f 81/9/1 76/9/1 80/9/1
f 84/9/1 78/9/1 77/9/1
f 85/9/1 74/9/1 78/9/1
f 85/9/1 78/9/1 84/9/1
f 86/9/1 74/9/1 85/9/1
f 87/9/1 82/9/1 81/9/1
f 87/9/1 81/9/1 80/9/1
f 88/9/1 82/9/1 87/9/1
f 89/9/1 84/9/1 83/9/1
f 89/9/1 85/9/1 84/9/1
f 90/9/1 85/9/1 89/9/1
f 91/1/1 88/1/1 87/1/1
f 92/9/1 82/9/1 88/9/1
f 92/1/1 88/1/1 91/1/1
f 93/9/1 82/9/1 92/9/1
f 94/9/1 82/9/1 93/9/1
f 95/9/1 82/9/1 94/9/1
f 96/9/1 89/9/1 83/9/1
f 97/9/1 89/9/1 96/9/1
f 98/9/1 89/9/1 97/9/1
f 99/9/1 89/9/1 98/9/1
f 100/6/1 94/6/1 93/6/1
f 103/6/1 98/6/1 97/6/1
f 104/6/1 101/6/1 100/6/1
f 104/6/1 100/6/1 93/6/1
f 105/6/1 101/6/1 104/6/1
f 106/6/1 101/6/1 105/6/1
f 107/6/1 103/6/1 102/6/1
f 108/6/1 103/6/1 107/6/1
f 109/6/1 98/6/1 103/6/1
f 109/6/1 103/6/1 108/6/1
f 110/1/1 106/1/1 105/1/1
f 110/1/1 108/1/1 107/1/1
f 110/1/1 107/1/1 106/1/1
f 111/1/1 108/1/1 110/1/1
f 112/1/1 110/1/1 105/1/1
f 113/1/1 110/1/1 112/1/1
f 114/1/1 110/1/1 113/1/1
f 115/1/1 110/1/1 114/1/1
f 116/1/1 108/1/1 111/1/1
f 117/1/1 108/1/1 116/1/1
f 118/1/1 108/1/1 117/1/1
f 119/1/1 108/1/1 118/1/1
f 120/1/1 114/1/1 113/1/1
f 121/1/1 114/1/1 120/1/1
f 122/1/1 118/1/1 117/1/1
f 123/1/1 118/1/1 122/1/1
f 124/1/1 120/1/1 113/1/1
f 125/1/1 120/1/1 124/1/1
f 128/1/1 118/1/1 123/1/1
f 129/1/1 118/1/1 128/1/1
f 130/1/1 126/1/1 125/1/1
f 131/1/1 126/1/1 130/1/1
f 134/1/1 128/1/1 127/1/1
f 135/1/1 128/1/1 134/1/1
f 136/1/1 132/1/1 131/1/1
f 137/1/1 132/1/1 136/1/1
f 138/1/1 134/1/1 133/1/1
f 139/1/1 134/1/1 138/1/1
f 148/6/1 143/6/1 142/6/1
f 149/6/1 143/6/1 148/6/1
f 150/6/1 145/6/1 144/6/1
f 151/6/1 145/6/1 150/6/1
f 152/6/1 141/6/1 140/6/1
f 153/6/1 141/6/1 152/6/1
f 154/6/1 147/6/1 146/6/1
f 155/6/1 147/6/1 154/6/1
f 162/1/1 157/1/1 156/1/1
f 163/1/1 157/1/1 162/1/1
f 165/1/1 159/1/1 158/1/1
f 166/1/1 159/1/1 165/1/1
f 168/1/1 161/1/1 160/1/1
f 169/1/1 161/1/1 168/1/1
f 170/1/1 164/1/1 163/1/1
f 171/1/1 164/1/1 170/1/1
f 172/1/1 168/1/1 167/1/1
f 173/1/1 168/1/1 172/1/1
f 174/1/1 172/1/1 171/1/1
f 175/1/1 172/1/1 174/1/1
f 180/1/1 177/1/1 176/1/1
f 181/1/1 177/1/1 180/1/1
f 182/1/1 179/1/1 178/1/1
f 183/1/1 179/1/1 182/1/1
f 186/1/1 185/1/1 184/1/1
f 187/1/1 185/1/1 186/1/1
f 192/1/1 189/1/1 188/1/1
f 193/1/1 189/1/1 192/1/1
f 194/1/1 191/1/1 190/1/1
f 195/1/1 191/1/1 194/1/1
f 198/1/1 197/1/1 196/1/1
f 199/1/1 197/1/1 198/1/1
f 201/1/1 200/1/1 199/1/1
f 202/1/1 200/1/1 201/1/1
f 205/11/1 204/11/1 203/11/1
f 206/11/1 204/11/1 205/11/1
f 207/11/1 204/11/1 206/11/1
f 212/1/1 209/1/1 208/1/1
f 213/1/1 209/1/1 212/1/1
f 214/1/1 211/1/1 210/1/1
f 215/1/1 211/1/1 214/1/1
f 221/1/1 217/1/1 216/1/1
f 222/1/1 219/1/1 218/1/1
f 224/1/1 221/1/1 220/1/1
f 225/1/1 217/1/1 221/1/1
f 225/1/1 221/1/1 224/1/1
f 226/1/1 223/1/1 222/1/1
f 226/1/1 222/1/1 218/1/1
f 227/1/1 223/1/1 226/1/1
f 232/14/1 231/14/1 230/14/1
f 233/14/1 229/14/1 228/14/1
f 234/14/1 233/14/1 228/14/1
f 235/14/1 233/14/1 234/14/1
f 236/14/1 231/14/1 232/14/1
f 237/14/1 231/14/1 236/14/1
f 242/1/1 239/1/1 238/1/1
f 245/1/1 241/1/1 240/1/1
f 246/1/1 243/1/1 242/1/1
f 247/1/1 243/1/1 246/1/1
f 248/1/1 245/1/1 244/1/1
f 249/1/1 245/1/1 248/1/1
f 250/1/1 242/1/1 238/1/1
f 250/1/1 246/1/1 242/1/1
f 251/1/1 246/1/1 250/1/1
f 252/1/1 245/1/1 249/1/1
f 253/1/1 241/1/1 245/1/1
f 253/1/1 245/1/1 252/1/1
f 258/1/1 255/1/1 254/1/1
f 259/1/1 255/1/1 258/1/1
f 260/1/1 257/1/1 256/1/1
f 261/1/1 257/1/1 260/1/1
f 262/3/2 263/3/2 265/3/2
f 265/3/2 263/3/2 266/3/2
f 264/3/2 265/3/2 268/3/2
f 266/3/2 267/3/2 269/3/2
f 264/3/2 268/3/2 270/3/2
f 270/3/2 268/3/2 271/3/2
f 269/3/2 267/3/2 272/3/2
f 272/3/2 267/3/2 273/3/2
f 271/3/2 272/3/2 274/3/2
f 274/3/2 272/3/2 275/3/2
f 276/9/2 277/9/2 279/9/2
f 279/9/2 277/9/2 280/9/2
f 278/9/2 279/9/2 283/9/2
f 283/9/2 279/9/2 284/9/2
f 280/9/2 281/9/2 285/9/2
f 285/9/2 281/9/2 286/9/2
f 282/9/2 283/9/2 289/9/2
f 289/9/2 283/9/2 290/9/2
f 286/9/2 287/9/2 291/9/2
f 291/9/2 287/9/2 292/9/2
f 288/9/2 289/9/2 294/9/2
f 294/9/2 289/9/2 295/9/2
f 292/9/2 293/9/2 298/9/2
f 298/9/2 293/9/2 299/9/2
f 295/9/2 296/9/2 300/9/2
f 300/9/2 296/9/2 301/9/2
f 297/9/2 298/9/2 302/9/2
f 302/9/2 298/9/2 303/9/2
f 304/9/2 305/9/2 308/9/2
f 308/9/2 305/9/2 309/9/2
f 306/9/2 307/9/2 310/9/2
f 310/9/2 307/9/2 311/9/2
f 312/7/2 313/7/2 316/7/2
f 316/7/2 313/7/2 317/7/2
f 314/7/2 315/7/2 318/7/2
f 318/7/2 315/7/2 319/7/2
f 320/7/2 321/7/2 325/7/2
f 325/7/2 321/7/2 326/7/2
f 322/7/2 323/7/2 327/7/2
f 327/7/2 323/7/2 328/7/2
f 324/8/2 325/8/2 330/8/2
f 330/8/2 325/8/2 331/8/2
f 328/8/2 329/8/2 334/8/2
f 334/8/2 329/8/2 335/8/2
f 331/2/2 332/2/2 336/2/2
f 336/2/2 332/2/2 337/2/2
f 333/2/2 334/2/2 338/2/2
f 338/2/2 334/2/2 339/2/2
f 340/6/2 341/6/2 344/6/2
f 344/6/2 341/6/2 345/6/2
f 342/6/2 343/6/2 350/6/2
f 350/6/2 343/6/2 351/6/2
f 346/6/2 347/6/2 352/6/2
f 352/6/2 347/6/2 353/6/2
f 353/6/2 347/6/2 354/6/2
f 348/6/2 349/6/2 355/6/2
f 355/6/2 349/6/2 356/6/2
f 356/6/2 349/6/2 357/6/2
f 358/6/2 359/6/2 362/6/2
f 360/6/2 361/6/2 365/6/2
f 362/6/2 363/6/2 366/6/2
f 358/6/2 362/6/2 366/6/2
f 366/6/2 363/6/2 367/6/2
f 367/6/2 363/6/2 368/6/2
f 364/6/2 365/6/2 371/6/2
f 365/6/2 361/6/2 372/6/2
f 371/6/2 365/6/2 372/6/2
f 372/6/2 361/6/2 373/6/2
f 368/6/2 369/6/2 374/6/2
f 367/6/2 368/6/2 374/6/2
f 374/6/2 369/6/2 375/6/2
f 375/6/2 369/6/2 376/6/2
f 370/6/2 371/6/2 377/6/2
f 371/6/2 372/6/2 377/6/2
f 377/6/2 372/6/2 378/6/2
f 378/6/2 372/6/2 379/6/2
f 375/1/2 376/1/2 380/1/2
f 380/1/2 376/1/2 381/1/2
f 377/1/2 378/1/2 382/1/2
f 382/1/2 378/1/2 383/1/2
f 384/1/2 385/1/2 388/1/2
f 388/1/2 385/1/2 389/1/2
f 386/1/2 387/1/2 390/1/2
f 390/1/2 387/1/2 391/1/2
f 388/4/2 389/4/2 392/4/2
f 392/4/2 389/4/2 393/4/2
f 390/4/2 391/4/2 394/4/2
f 394/4/2 391/4/2 395/4/2
f 396/11/2 397/11/2 398/11/2
f 398/11/2 397/11/2 399/11/2
f 399/11/2 397/11/2 400/11/2
f 401/1/2 402/1/2 406/1/2
f 403/1/2 404/1/2 407/1/2
f 405/1/2 406/1/2 409/1/2
f 406/1/2 402/1/2 410/1/2
f 409/1/2 406/1/2 410/1/2
f 407/1/2 408/1/2 411/1/2
f 403/1/2 407/1/2 411/1/2
f 411/1/2 408/1/2 412/1/2
f 413/1/2 414/1/2 417/1/2
f 417/1/2 414/1/2 418/1/2
f 415/1/2 416/1/2 419/1/2
f 419/1/2 416/1/2 420/1/2
f 421/1/2 422/1/2 425/1/2
f 425/1/2 422/1/2 426/1/2
f 423/1/2 424/1/2 427/1/2
f 427/1/2 424/1/2 428/1/2
f 429/1/2 430/1/2 433/1/2
f 433/1/2 430/1/2 434/1/2
f 431/1/2 432/1/2 435/1/2
f 435/1/2 432/1/2 436/1/2
f 437/1/2 438/1/2 441/1/2
f 441/1/2 438/1/2 442/1/2
f 439/1/2 440/1/2 443/1/2
f 443/1/2 440/1/2 444/1/2
f 445/1/2 446/1/2 449/1/2
f 449/1/2 446/1/2 450/1/2
f 447/1/2 448/1/2 453/1/2
f 453/1/2 448/1/2 454/1/2
f 450/1/2 451/1/2 455/1/2
f 455/1/2 451/1/2 456/1/2
f 452/1/2 453/1/2 459/1/2
f 459/1/2 453/1/2 460/1/2
f 456/1/2 457/1/2 461/1/2
f 461/1/2 457/1/2 462/1/2
f 458/1/2 459/1/2 463/1/2
f 463/1/2 459/1/2 464/1/2
f 462/1/2 463/1/2 465/1/2
f 465/1/2 463/1/2 466/1/2
f 467/1/2 468/1/2 473/1/2
f 468/1/2 469/1/2 473/1/2
f 473/1/2 469/1/2 474/1/2
f 471/1/2 472/1/2 475/1/2
f 470/1/2 471/1/2 475/1/2
f 475/1/2 472/1/2 476/1/2
f 467/1/2 473/1/2 477/1/2
f 477/1/2 473/1/2 478/1/2
f 476/1/2 472/1/2 479/1/2
f 479/1/2 472/1/2 480/1/2
f 481/9/2 482/9/2 485/9/2
f 483/9/2 484/9/2 488/9/2
f 485/9/2 486/9/2 489/9/2
f 481/9/2 485/9/2 489/9/2
f 489/9/2 486/9/2 490/9/2
f 490/9/2 486/9/2 491/9/2
f 487/9/2 488/9/2 494/9/2
f 488/9/2 484/9/2 495/9/2
f 494/9/2 488/9/2 495/9/2
f 495/9/2 484/9/2 496/9/2
f 493/9/2 494/9/2 497/9/2
f 494/9/2 495/9/2 497/9/2
f 497/9/2 495/9/2 498/9/2
f 491/9/2 492/9/2 499/9/2
f 490/9/2 491/9/2 499/9/2
f 499/9/2 492/9/2 500/9/2
f 493/9/2 497/9/2 501/9/2
f 501/9/2 497/9/2 502/9/2
f 500/9/2 492/9/2 503/9/2
f 493/9/2 501/9/2 506/9/2
f 503/9/2 504/9/2 507/9/2
f 500/9/2 503/9/2 507/9/2
f 507/9/2 504/9/2 508/9/2
f 505/9/2 506/9/2 511/9/2
f 506/9/2 501/9/2 512/9/2
f 511/9/2 506/9/2 512/9/2
f 509/9/2 510/9/2 514/9/2
f 514/9/2 510/9/2 515/9/2
f 513/9/2 514/9/2 518/9/2
f 515/9/2 516/9/2 518/9/2
f 514/9/2 515/9/2 518/9/2
f 518/9/2 516/9/2 519/9/2
f 517/9/2 518/9/2 521/9/2
f 519/9/2 520/9/2 521/9/2
f 518/9/2 519/9/2 521/9/2
f 521/9/2 520/9/2 522/9/2
f 522/9/2 520/9/2 523/9/2
f 523/9/2 520/9/2 524/9/2
f 522/9/2 523/9/2 525/9/2
f 525/9/2 523/9/2 526/9/2
f 526/9/2 523/9/2 527/9/2
f 527/9/2 523/9/2 528/9/2
f 526/9/2 527/9/2 529/9/2
f 529/9/2 527/9/2 530/9/2
f 533/9/3 532/9/3 531/9/3
f 534/9/3 532/9/3 533/9/3
f 538/9/3 536/9/3 535/9/3
f 539/1/3 537/1/3 536/1/3
f 539/9/3 536/9/3 538/9/3
f 540/1/3 539/1/3 538/1/3
f 541/1/3 537/1/3 539/1/3
f 541/1/3 539/1/3 540/1/3
f 542/9/3 541/9/3 540/9/3
f 543/9/3 541/9/3 542/9/3
f 546/6/3 545/6/3 544/6/3
f 547/6/3 545/6/3 546/6/3
f 550/1/3 549/1/3 548/1/3
f 551/1/3 549/1/3 550/1/3
f 552/9/3 551/9/3 550/9/3
f 553/9/3 551/9/3 552/9/3
f 556/6/3 555/6/3 554/6/3
f 557/6/3 555/6/3 556/6/3
f 558/6/3 555/6/3 557/6/3
f 559/6/3 555/6/3 558/6/3
f 562/1/3 561/1/3 560/1/3
f 564/1/3 562/1/3 560/1/3
f 564/1/3 563/1/3 562/1/3
f 565/1/3 563/1/3 564/1/3
f 566/1/3 563/1/3 565/1/3
f 568/1/3 566/1/3 565/1/3
f 568/1/3 567/1/3 566/1/3
f 569/1/3 567/1/3 568/1/3
f 570/1/3 567/1/3 569/1/3
f 572/1/3 568/1/3 565/1/3
f 573/1/3 571/1/3 570/1/3
f 573/1/3 570/1/3 569/1/3
f 574/1/3 572/1/3 565/1/3
f 574/1/3 573/1/3 572/1/3
f 575/1/3 573/1/3 574/1/3
f 576/10/3 575/10/3 574/10/3
f 576/1/3 573/1/3 575/1/3
f 577/1/3 573/1/3 576/1/3
f 578/10/3 577/10/3 576/10/3
f 578/1/3 573/1/3 577/1/3
f 579/1/3 571/1/3 573/1/3
f 579/1/3 573/1/3 578/1/3
f 580/10/3 578/10/3 576/10/3
f 580/10/3 576/10/3 574/10/3
f 580/10/3 579/10/3 578/10/3
f 581/10/3 579/10/3 580/10/3
f 582/10/3 579/10/3 581/10/3
f 583/1/3 571/1/3 579/1/3
f 583/10/3 579/10/3 582/10/3
f 584/1/3 571/1/3 583/1/3
f 585/5/3 581/5/3 580/5/3
f 586/10/3 582/10/3 581/10/3
f 586/5/3 581/5/3 585/5/3
f 587/5/3 583/5/3 582/5/3
f 587/10/3 582/10/3 586/10/3
f 588/10/3 584/10/3 583/10/3
f 588/5/3 583/5/3 587/5/3
f 589/1/3 571/1/3 584/1/3
f 589/10/3 584/10/3 588/10/3
f 590/10/3 588/10/3 587/10/3
f 590/10/3 586/10/3 585/10/3
f 590/10/3 587/10/3 586/10/3
f 591/1/3 589/1/3 588/1/3
f 591/10/3 588/10/3 590/10/3
f 592/10/3 590/10/3 585/10/3
f 593/1/3 591/1/3 590/1/3
f 593/10/3 590/10/3 592/10/3
f 594/10/3 592/10/3 585/10/3
f 595/1/3 593/1/3 592/1/3
f 595/10/3 592/10/3 594/10/3
f 596/1/3 595/1/3 594/1/3
f 597/1/3 593/1/3 595/1/3
f 597/1/3 595/1/3 596/1/3
f 598/1/3 571/1/3 589/1/3
f 598/1/3 593/1/3 597/1/3
f 598/1/3 589/1/3 591/1/3
f 598/1/3 591/1/3 593/1/3
f 599/1/3 571/1/3 598/1/3
f 600/1/3 598/1/3 597/1/3
f 601/1/3 598/1/3 600/1/3
f 602/1/3 598/1/3 601/1/3
f 603/1/3 598/1/3 602/1/3
f 606/9/3 605/9/3 604/9/3
f 607/9/3 605/9/3 606/9/3
f 610/1/3 609/1/3 608/1/3
f 612/1/3 610/1/3 608/1/3
f 612/1/3 611/1/3 610/1/3
f 613/1/3 611/1/3 612/1/3
f 617/1/3 611/1/3 613/1/3
f 618/1/3 611/1/3 617/1/3
f 619/1/3 611/1/3 618/1/3
f 620/1/3 611/1/3 619/1/3
f 621/1/3 616/1/3 615/1/3
f 621/1/3 615/1/3 614/1/3
f 622/1/3 621/1/3 614/1/3
f 623/1/3 622/1/3 614/1/3
f 624/1/3 623/1/3 614/1/3
f 625/1/3 624/1/3 614/1/3
f 629/1/3 626/1/3 625/1/3
f 631/1/3 625/1/3 614/1/3
f 631/1/3 630/1/3 629/1/3
f 631/1/3 629/1/3 625/1/3
f 632/1/3 630/1/3 631/1/3
f 633/1/3 630/1/3 632/1/3
f 634/1/3 628/1/3 627/1/3
f 635/1/3 628/1/3 634/1/3
f 636/1/3 633/1/3 632/1/3
f 636/1/3 634/1/3 633/1/3
f 637/1/3 634/1/3 636/1/3
f 638/1/3 634/1/3 637/1/3
f 639/9/3 638/9/3 637/9/3
f 640/9/3 638/9/3 639/9/3
f 645/9/3 642/9/3 641/9/3
f 646/9/3 642/9/3 645/9/3
f 647/9/3 644/9/3 643/9/3
f 648/9/3 644/9/3 647/9/3
f 649/8/3 647/8/3 646/8/3
f 650/8/3 647/8/3 649/8/3
f 653/8/3 652/8/3 651/8/3
f 654/8/3 652/8/3 653/8/3
f 656/1/3 655/1/3 654/1/3
f 657/1/3 655/1/3 656/1/3
f 660/1/3 658/1/3 657/1/3
f 661/1/3 658/1/3 660/1/3
f 664/1/3 660/1/3 659/1/3
f 665/1/3 660/1/3 664/1/3
f 666/9/3 663/9/3 662/9/3
f 667/9/3 663/9/3 666/9/3
f 668/9/3 665/9/3 664/9/3
f 669/9/3 665/9/3 668/9/3
f 674/9/3 671/9/3 670/9/3
f 675/9/3 671/9/3 674/9/3
f 678/9/3 673/9/3 672/9/3
f 679/2/3 678/2/3 677/2/3
f 679/9/3 673/9/3 678/9/3
f 680/9/3 673/9/3 679/9/3
f 681/7/3 676/7/3 675/7/3
f 682/7/3 676/7/3 681/7/3
f 683/2/3 679/2/3 677/2/3
f 684/2/3 679/2/3 683/2/3
f 687/6/3 684/6/3 683/6/3
f 688/6/3 684/6/3 687/6/3
f 689/7/3 686/7/3 685/7/3
f 690/7/3 686/7/3 689/7/3
f 691/2/3 688/2/3 687/2/3
f 692/2/3 688/2/3 691/2/3
f 697/7/3 694/7/3 693/7/3
f 698/7/3 694/7/3 697/7/3
f 699/2/3 696/2/3 695/2/3
f 700/2/3 696/2/3 699/2/3
f 702/1/3 701/1/3 700/1/3
f 703/1/3 701/1/3 702/1/3
f 707/1/3 706/1/3 705/1/3
f 708/1/3 706/1/3 707/1/3
f 710/1/3 704/1/3 703/1/3
f 711/1/3 704/1/3 710/1/3
f 714/1/3 710/1/3 709/1/3
f 715/1/3 710/1/3 714/1/3
f 716/9/3 713/9/3 712/9/3
f 717/9/3 713/9/3 716/9/3
f 718/9/3 715/9/3 714/9/3
f 719/9/3 715/9/3 718/9/3
f 725/14/3 723/14/3 722/14/3
f 726/3/3 724/3/3 723/3/3
f 726/14/3 723/14/3 725/14/3
f 727/3/3 724/3/3 726/3/3
f 728/11/3 726/11/3 725/11/3
f 728/11/3 727/11/3 726/11/3
f 729/11/3 727/11/3 728/11/3
f 730/11/3 729/11/3 728/11/3
f 731/11/3 729/11/3 730/11/3
f 732/11/3 731/11/3 730/11/3
f 733/11/3 731/11/3 732/11/3
f 734/11/3 731/11/3 733/11/3
f 735/9/3 721/9/3 720/9/3
f 736/9/3 721/9/3 735/9/3
f 738/13/3 733/13/3 732/13/3
f 739/11/3 734/11/3 733/11/3
f 739/13/3 733/13/3 738/13/3
f 740/11/3 734/11/3 739/11/3
f 743/2/3 737/2/3 736/2/3
f 744/11/3 740/11/3 739/11/3
f 744/11/3 739/11/3 738/11/3
f 745/11/3 740/11/3 744/11/3
f 746/11/3 740/11/3 745/11/3
f 747/1/3 742/1/3 741/1/3
f 748/2/3 743/2/3 736/2/3
f 749/12/3 745/12/3 744/12/3
f 750/11/3 746/11/3 745/11/3
f 750/12/3 745/12/3 749/12/3
f 751/11/3 746/11/3 750/11/3
f 752/1/3 742/1/3 747/1/3
f 753/2/3 748/2/3 736/2/3
f 754/11/3 751/11/3 750/11/3
f 754/11/3 750/11/3 749/11/3
f 755/11/3 751/11/3 754/11/3
f 756/11/3 751/11/3 755/11/3
f 757/11/3 751/11/3 756/11/3
f 758/1/3 742/1/3 752/1/3
f 759/2/3 753/2/3 736/2/3
f 760/13/3 755/13/3 754/13/3
f 761/11/3 756/11/3 755/11/3
f 761/13/3 755/13/3 760/13/3
f 762/12/3 757/12/3 756/12/3
f 762/11/3 756/11/3 761/11/3
f 763/12/3 757/12/3 762/12/3
f 764/1/3 742/1/3 758/1/3
f 765/2/3 759/2/3 736/2/3
f 766/2/3 759/2/3 765/2/3
f 767/11/3 763/11/3 762/11/3
f 767/11/3 761/11/3 760/11/3
f 767/11/3 762/11/3 761/11/3
f 768/11/3 763/11/3 767/11/3
f 769/1/3 742/1/3 764/1/3
f 770/1/3 742/1/3 769/1/3
f 771/11/3 768/11/3 767/11/3
f 772/11/3 768/11/3 771/11/3
f 776/11/3 774/11/3 773/11/3
f 777/13/3 775/13/3 774/13/3
f 777/11/3 774/11/3 776/11/3
f 779/13/3 775/13/3 777/13/3
f 780/13/3 775/13/3 779/13/3
f 781/11/3 779/11/3 778/11/3
f 781/13/3 775/13/3 780/13/3
f 781/11/3 780/11/3 779/11/3
f 782/13/3 775/13/3 781/13/3
f 783/11/3 781/11/3 778/11/3
f 784/12/3 782/12/3 781/12/3
f 784/11/3 781/11/3 783/11/3
f 785/12/3 782/12/3 784/12/3
f 786/11/3 783/11/3 778/11/3
f 787/12/3 784/12/3 783/12/3
f 787/11/3 783/11/3 786/11/3
f 788/13/3 785/13/3 784/13/3
f 788/12/3 784/12/3 787/12/3
f 789/11/3 786/11/3 778/11/3
f 789/12/3 787/12/3 786/12/3
f 790/13/3 788/13/3 787/13/3
f 790/12/3 787/12/3 789/12/3
f 791/13/3 785/13/3 788/13/3
f 791/13/3 788/13/3 790/13/3
f 792/12/3 791/12/3 790/12/3
f 792/13/3 785/13/3 791/13/3
f 793/13/3 785/13/3 792/13/3
f 794/11/3 790/11/3 789/11/3
f 794/12/3 792/12/3 790/12/3
f 795/11/3 793/11/3 792/11/3
f 795/12/3 792/12/3 794/12/3
f 796/11/3 793/11/3 795/11/3
f 797/11/3 789/11/3 778/11/3
f 797/11/3 794/11/3 789/11/3
f 797/11/3 795/11/3 794/11/3
f 798/13/3 796/13/3 795/13/3
f 798/11/3 795/11/3 797/11/3
f 799/13/3 796/13/3 798/13/3
f 803/3/3 801/3/3 800/3/3
f 804/3/3 801/3/3 803/3/3
f 807/7/3 803/7/3 802/7/3
f 808/2/3 806/2/3 805/2/3
f 809/7/3 807/7/3 802/7/3
f 810/7/3 807/7/3 809/7/3
f 811/2/3 806/2/3 808/2/3
f 812/2/3 806/2/3 811/2/3
f 813/9/3 810/9/3 809/9/3
f 814/9/3 810/9/3 813/9/3
f 815/9/3 812/9/3 811/9/3
f 816/9/3 812/9/3 815/9/3
f 817/7/3 814/7/3 813/7/3
f 818/7/3 814/7/3 817/7/3
f 819/2/3 816/2/3 815/2/3
f 820/2/3 816/2/3 819/2/3
f 821/9/3 818/9/3 817/9/3
f 822/9/3 818/9/3 821/9/3
f 823/6/3 820/6/3 819/6/3
f 824/6/3 820/6/3 823/6/3
f 825/2/3 824/2/3 823/2/3
f 826/7/3 822/7/3 821/7/3
f 827/7/3 822/7/3 826/7/3
f 828/2/3 825/2/3 823/2/3
f 829/2/3 825/2/3 828/2/3
f 832/6/3 829/6/3 828/6/3
f 833/6/3 829/6/3 832/6/3
f 834/7/3 831/7/3 830/7/3
f 835/7/3 831/7/3 834/7/3
f 836/2/3 833/2/3 832/2/3
f 837/2/3 833/2/3 836/2/3
f 842/7/3 839/7/3 838/7/3
f 843/7/3 839/7/3 842/7/3
f 844/2/3 841/2/3 840/2/3
f 845/2/3 841/2/3 844/2/3
f 846/1/3 845/1/3 844/1/3
f 847/1/3 845/1/3 846/1/3
f 848/1/3 843/1/3 842/1/3
f 849/1/3 843/1/3 848/1/3
f 852/8/3 851/8/3 850/8/3
f 853/8/3 851/8/3 852/8/3
f 854/9/3 853/9/3 852/9/3
f 855/9/3 853/9/3 854/9/3
f 856/8/3 855/8/3 854/8/3
f 857/8/3 855/8/3 856/8/3
f 858/8/3 857/8/3 856/8/3
f 859/8/3 857/8/3 858/8/3
f 860/8/3 859/8/3 858/8/3
f 861/8/3 859/8/3 860/8/3
f 862/8/3 861/8/3 860/8/3
f 863/8/3 861/8/3 862/8/3
f 864/8/3 863/8/3 862/8/3
f 865/8/3 863/8/3 864/8/3
f 868/8/3 867/8/3 866/8/3
f 869/8/3 867/8/3 868/8/3
f 870/1/3 869/1/3 868/1/3
f 871/1/3 869/1/3 870/1/3
f 875/1/3 873/1/3 872/1/3
f 875/1/3 874/1/3 873/1/3
f 876/1/3 874/1/3 875/1/3
f 879/1/3 878/1/3 877/1/3
f 880/1/3 878/1/3 879/1/3
f 883/6/3 882/6/3 881/6/3
f 884/6/3 882/6/3 883/6/3
f 885/6/3 883/6/3 881/6/3
f 886/1/3 884/1/3 883/1/3
f 886/6/3 883/6/3 885/6/3
f 889/1/3 888/1/3 887/1/3
f 890/1/3 888/1/3 889/1/3
f 892/1/3 884/1/3 886/1/3
f 895/1/3 894/1/3 893/1/3
f 896/1/3 894/1/3 895/1/3
f 897/1/3 892/1/3 891/1/3
f 898/1/3 884/1/3 892/1/3
f 898/1/3 892/1/3 897/1/3
f 899/9/3 898/9/3 897/9/3
f 900/9/3 898/9/3 899/9/3
f 903/6/3 902/6/3 901/6/3
f 904/6/3 902/6/3 903/6/3
f 907/9/3 906/9/3 905/9/3
f 908/9/3 906/9/3 907/9/3
f 910/1/3 908/1/3 907/1/3
f 910/6/3 909/6/3 908/6/3
f 911/6/3 909/6/3 910/6/3
f 912/1/3 910/1/3 907/1/3
f 914/1/3 912/1/3 907/1/3
f 914/1/3 913/1/3 912/1/3
f 915/1/3 913/1/3 914/1/3
f 916/9/3 915/9/3 914/9/3
f 917/9/3 915/9/3 916/9/3
f 922/9/3 919/9/3 918/9/3
f 923/9/3 919/9/3 922/9/3
f 924/6/3 921/6/3 920/6/3
f 925/6/3 921/6/3 924/6/3
f 928/6/3 927/6/3 926/6/3
f 929/6/3 927/6/3 928/6/3
f 930/1/3 923/1/3 922/1/3
f 931/1/3 923/1/3 930/1/3
f 932/9/3 931/9/3 930/9/3
f 933/9/3 931/9/3 932/9/3
f 936/9/3 935/9/3 934/9/3
f 937/9/3 935/9/3 936/9/3
f 938/1/3 937/1/3 936/1/3
f 939/1/3 937/1/3 938/1/3
f 940/9/3 939/9/3 938/9/3
f 941/9/3 939/9/3 940/9/3
f 942/9/4 943/9/4 944/9/4
f 944/9/4 943/9/4 945/9/4
f 944/1/4 945/1/4 946/1/4
f 946/1/4 945/1/4 947/1/4
f 946/9/4 947/9/4 948/9/4
f 948/9/4 947/9/4 949/9/4
f 950/9/4 951/9/4 954/9/4
f 954/9/4 951/9/4 955/9/4
f 952/6/4 953/6/4 956/6/4
f 956/6/4 953/6/4 957/6/4
f 958/6/4 959/6/4 960/6/4
f 960/6/4 959/6/4 961/6/4
f 954/1/4 955/1/4 962/1/4
f 962/1/4 955/1/4 963/1/4
f 962/9/4 963/9/4 964/9/4
f 964/9/4 963/9/4 965/9/4
f 966/9/4 967/9/4 968/9/4
f 968/9/4 967/9/4 969/9/4
f 968/1/4 969/1/4 971/1/4
f 969/6/4 970/6/4 971/6/4
f 971/6/4 970/6/4 972/6/4
f 968/1/4 971/1/4 973/1/4
f 968/1/4 973/1/4 975/1/4
f 973/1/4 974/1/4 975/1/4
f 975/1/4 974/1/4 976/1/4
f 975/9/4 976/9/4 977/9/4
f 977/9/4 976/9/4 978/9/4
f 979/6/4 980/6/4 981/6/4
f 981/6/4 980/6/4 982/6/4
f 983/6/4 984/6/4 985/6/4
f 985/6/4 984/6/4 986/6/4
f 983/6/4 985/6/4 987/6/4
f 985/1/4 986/1/4 988/1/4
f 987/6/4 985/6/4 988/6/4
f 989/1/4 990/1/4 991/1/4
f 991/1/4 990/1/4 992/1/4
f 988/1/4 986/1/4 994/1/4
f 995/1/4 996/1/4 997/1/4
f 997/1/4 996/1/4 998/1/4
f 993/1/4 994/1/4 999/1/4
f 994/1/4 986/1/4 1000/1/4
f 999/1/4 994/1/4 1000/1/4
f 999/9/4 1000/9/4 1001/9/4
f 1001/9/4 1000/9/4 1002/9/4
f 1003/8/4 1004/8/4 1005/8/4
f 1005/8/4 1004/8/4 1006/8/4
f 1005/9/4 1006/9/4 1007/9/4
f 1007/9/4 1006/9/4 1008/9/4
f 1007/8/4 1008/8/4 1009/8/4
f 1009/8/4 1008/8/4 1010/8/4
f 1009/8/4 1010/8/4 1011/8/4
f 1011/8/4 1010/8/4 1012/8/4
f 1011/8/4 1012/8/4 1013/8/4
f 1013/8/4 1012/8/4 1014/8/4
f 1013/8/4 1014/8/4 1015/8/4
f 1015/8/4 1014/8/4 1016/8/4
f 1015/8/4 1016/8/4 1017/8/4
f 1017/8/4 1016/8/4 1018/8/4
f 1019/8/4 1020/8/4 1021/8/4
f 1021/8/4 1020/8/4 1022/8/4
f 1021/1/4 1022/1/4 1023/1/4
f 1023/1/4 1022/1/4 1024/1/4
f 1025/1/4 1026/1/4 1028/1/4
f 1026/1/4 1027/1/4 1028/1/4
f 1028/1/4 1027/1/4 1029/1/4
f 1030/1/4 1031/1/4 1032/1/4
f 1032/1/4 1031/1/4 1033/1/4
f 1034/3/4 1035/3/4 1037/3/4
f 1037/3/4 1035/3/4 1038/3/4
f 1036/7/4 1037/7/4 1041/7/4
f 1039/2/4 1040/2/4 1042/2/4
f 1036/7/4 1041/7/4 1043/7/4
f 1043/7/4 1041/7/4 1044/7/4
f 1042/2/4 1040/2/4 1045/2/4
f 1045/2/4 1040/2/4 1046/2/4
f 1043/9/4 1044/9/4 1047/9/4
f 1047/9/4 1044/9/4 1048/9/4
f 1045/9/4 1046/9/4 1049/9/4
f 1049/9/4 1046/9/4 1050/9/4
f 1047/7/4 1048/7/4 1051/7/4
f 1051/7/4 1048/7/4 1052/7/4
f 1049/2/4 1050/2/4 1053/2/4
f 1053/2/4 1050/2/4 1054/2/4
f 1051/9/4 1052/9/4 1055/9/4
f 1055/9/4 1052/9/4 1056/9/4
f 1053/6/4 1054/6/4 1057/6/4
f 1057/6/4 1054/6/4 1058/6/4
f 1057/2/4 1058/2/4 1059/2/4
f 1055/7/4 1056/7/4 1060/7/4
f 1060/7/4 1056/7/4 1061/7/4
f 1057/2/4 1059/2/4 1062/2/4
f 1062/2/4 1059/2/4 1063/2/4
f 1062/6/4 1063/6/4 1066/6/4
f 1066/6/4 1063/6/4 1067/6/4
f 1064/7/4 1065/7/4 1068/7/4
f 1068/7/4 1065/7/4 1069/7/4
f 1066/2/4 1067/2/4 1070/2/4
f 1070/2/4 1067/2/4 1071/2/4
f 1072/7/4 1073/7/4 1076/7/4
f 1076/7/4 1073/7/4 1077/7/4
f 1074/2/4 1075/2/4 1078/2/4
f 1078/2/4 1075/2/4 1079/2/4
f 1078/1/4 1079/1/4 1080/1/4
f 1080/1/4 1079/1/4 1081/1/4
f 1076/1/4 1077/1/4 1082/1/4
f 1082/1/4 1077/1/4 1083/1/4
f 1086/14/4 1087/14/4 1089/14/4
f 1087/3/4 1088/3/4 1090/3/4
f 1089/14/4 1087/14/4 1090/14/4
f 1090/3/4 1088/3/4 1091/3/4
f 1089/11/4 1090/11/4 1092/11/4
f 1090/11/4 1091/11/4 1092/11/4
f 1092/11/4 1091/11/4 1093/11/4
f 1092/11/4 1093/11/4 1094/11/4
f 1094/11/4 1093/11/4 1095/11/4
f 1094/11/4 1095/11/4 1096/11/4
f 1096/11/4 1095/11/4 1097/11/4
f 1097/11/4 1095/11/4 1098/11/4
f 1084/9/4 1085/9/4 1099/9/4
f 1099/9/4 1085/9/4 1100/9/4
f 1096/13/4 1097/13/4 1102/13/4
f 1097/11/4 1098/11/4 1103/11/4
f 1102/13/4 1097/13/4 1103/13/4
f 1103/11/4 1098/11/4 1104/11/4
f 1100/2/4 1101/2/4 1107/2/4
f 1103/11/4 1104/11/4 1108/11/4
f 1102/11/4 1103/11/4 1108/11/4
f 1108/11/4 1104/11/4 1109/11/4
f 1109/11/4 1104/11/4 1110/11/4
f 1105/1/4 1106/1/4 1111/1/4
f 1100/2/4 1107/2/4 1112/2/4
f 1108/12/4 1109/12/4 1113/12/4
f 1109/11/4 1110/11/4 1114/11/4
f 1113/12/4 1109/12/4 1114/12/4
f 1114/11/4 1110/11/4 1115/11/4
f 1111/1/4 1106/1/4 1116/1/4
f 1100/2/4 1112/2/4 1117/2/4
f 1114/11/4 1115/11/4 1118/11/4
f 1113/11/4 1114/11/4 1118/11/4
f 1118/11/4 1115/11/4 1119/11/4
f 1119/11/4 1115/11/4 1120/11/4
f 1120/11/4 1115/11/4 1121/11/4
f 1116/1/4 1106/1/4 1122/1/4
f 1100/2/4 1117/2/4 1123/2/4
f 1118/13/4 1119/13/4 1124/13/4
f 1119/11/4 1120/11/4 1125/11/4
f 1124/13/4 1119/13/4 1125/13/4
f 1120/12/4 1121/12/4 1126/12/4
f 1125/11/4 1120/11/4 1126/11/4
f 1126/12/4 1121/12/4 1127/12/4
f 1122/1/4 1106/1/4 1128/1/4
f 1100/2/4 1123/2/4 1129/2/4
f 1129/2/4 1123/2/4 1130/2/4
f 1126/11/4 1127/11/4 1131/11/4
f 1124/11/4 1125/11/4 1131/11/4
f 1125/11/4 1126/11/4 1131/11/4
f 1131/11/4 1127/11/4 1132/11/4
f 1128/1/4 1106/1/4 1133/1/4
f 1133/1/4 1106/1/4 1134/1/4
f 1131/11/4 1132/11/4 1135/11/4
f 1135/11/4 1132/11/4 1136/11/4
f 1137/11/4 1138/11/4 1140/11/4
f 1138/13/4 1139/13/4 1141/13/4
f 1140/11/4 1138/11/4 1141/11/4
f 1141/13/4 1139/13/4 1142/13/4
f 1141/12/4 1142/12/4 1144/12/4
f 1142/13/4 1139/13/4 1145/13/4
f 1144/12/4 1142/12/4 1145/12/4
f 1145/13/4 1139/13/4 1146/13/4
f 1143/11/4 1144/11/4 1147/11/4
f 1144/12/4 1145/12/4 1147/12/4
f 1145/11/4 1146/11/4 1148/11/4
f 1147/12/4 1145/12/4 1148/12/4
f 1146/13/4 1139/13/4 1149/13/4
f 1148/11/4 1146/11/4 1149/11/4
f 1149/13/4 1139/13/4 1150/13/4
f 1147/11/4 1148/11/4 1151/11/4
f 1148/11/4 1149/11/4 1151/11/4
f 1149/12/4 1150/12/4 1152/12/4
f 1151/11/4 1149/11/4 1152/11/4
f 1152/12/4 1150/12/4 1153/12/4
f 1143/11/4 1147/11/4 1154/11/4
f 1147/11/4 1151/11/4 1154/11/4
f 1152/13/4 1153/13/4 1155/13/4
f 1154/11/4 1151/11/4 1155/11/4
f 1151/13/4 1152/13/4 1155/13/4
f 1155/13/4 1153/13/4 1156/13/4
f 1143/11/4 1154/11/4 1157/11/4
f 1154/12/4 1155/12/4 1157/12/4
f 1155/11/4 1156/11/4 1158/11/4
f 1157/12/4 1155/12/4 1158/12/4
f 1156/13/4 1153/13/4 1159/13/4
f 1158/11/4 1156/11/4 1159/11/4
f 1159/13/4 1153/13/4 1160/13/4
f 1157/11/4 1158/11/4 1161/11/4
f 1158/11/4 1159/11/4 1161/11/4
f 1159/12/4 1160/12/4 1162/12/4
f 1161/11/4 1159/11/4 1162/11/4
f 1162/12/4 1160/12/4 1163/12/4
f 1157/11/4 1161/11/4 1164/11/4
f 1161/12/4 1162/12/4 1164/12/4
f 1162/13/4 1163/13/4 1165/13/4
f 1164/12/4 1162/12/4 1165/12/4
f 1143/11/4 1157/11/4 1166/11/4
f 1157/11/4 1164/11/4 1166/11/4
f 1164/13/4 1165/13/4 1167/13/4
f 1166/11/4 1164/11/4 1167/11/4
f 1165/13/4 1163/13/4 1168/13/4
f 1167/13/4 1165/13/4 1168/13/4
f 1169/9/4 1170/9/4 1173/9/4
f 1173/9/4 1170/9/4 1174/9/4
f 1171/9/4 1172/9/4 1177/9/4
f 1176/2/4 1177/2/4 1178/2/4
f 1177/9/4 1172/9/4 1178/9/4
f 1178/9/4 1172/9/4 1179/9/4
f 1174/7/4 1175/7/4 1180/7/4
f 1180/7/4 1175/7/4 1181/7/4
f 1176/2/4 1178/2/4 1182/2/4
f 1182/2/4 1178/2/4 1183/2/4
f 1182/6/4 1183/6/4 1186/6/4
f 1186/6/4 1183/6/4 1187/6/4
f 1184/7/4 1185/7/4 1188/7/4
f 1188/7/4 1185/7/4 1189/7/4
f 1186/2/4 1187/2/4 1190/2/4
f 1190/2/4 1187/2/4 1191/2/4
f 1192/7/4 1193/7/4 1196/7/4
f 1196/7/4 1193/7/4 1197/7/4
f 1194/2/4 1195/2/4 1198/2/4
f 1198/2/4 1195/2/4 1199/2/4
f 1199/1/4 1200/1/4 1201/1/4
f 1201/1/4 1200/1/4 1202/1/4
f 1204/1/4 1205/1/4 1206/1/4
f 1206/1/4 1205/1/4 1207/1/4
f 1202/1/4 1203/1/4 1209/1/4
f 1209/1/4 1203/1/4 1210/1/4
f 1208/1/4 1209/1/4 1213/1/4
f 1213/1/4 1209/1/4 1214/1/4
f 1211/9/4 1212/9/4 1215/9/4
f 1215/9/4 1212/9/4 1216/9/4
f 1213/9/4 1214/9/4 1217/9/4
f 1217/9/4 1214/9/4 1218/9/4
f 1219/9/4 1220/9/4 1223/9/4
f 1223/9/4 1220/9/4 1224/9/4
f 1221/9/4 1222/9/4 1225/9/4
f 1225/9/4 1222/9/4 1226/9/4
f 1224/8/4 1225/8/4 1227/8/4
f 1227/8/4 1225/8/4 1228/8/4
f 1229/8/4 1230/8/4 1231/8/4
f 1231/8/4 1230/8/4 1232/8/4
f 1232/1/4 1233/1/4 1234/1/4
f 1234/1/4 1233/1/4 1235/1/4
f 1235/1/4 1236/1/4 1238/1/4
f 1238/1/4 1236/1/4 1239/1/4
f 1237/1/4 1238/1/4 1242/1/4
f 1242/1/4 1238/1/4 1243/1/4
f 1240/9/4 1241/9/4 1244/9/4
f 1244/9/4 1241/9/4 1245/9/4
f 1242/9/4 1243/9/4 1246/9/4
f 1246/9/4 1243/9/4 1247/9/4
f 1248/9/4 1249/9/4 1250/9/4
f 1250/9/4 1249/9/4 1251/9/4
f 1252/1/4 1253/1/4 1254/1/4
f 1252/1/4 1254/1/4 1256/1/4
f 1254/1/4 1255/1/4 1256/1/4
f 1256/1/4 1255/1/4 1257/1/4
f 1257/1/4 1255/1/4 1261/1/4
f 1261/1/4 1255/1/4 1262/1/4
f 1262/1/4 1255/1/4 1263/1/4
f 1263/1/4 1255/1/4 1264/1/4
f 1259/1/4 1260/1/4 1265/1/4
f 1258/1/4 1259/1/4 1265/1/4
f 1258/1/4 1265/1/4 1266/1/4
f 1258/1/4 1266/1/4 1267/1/4
f 1258/1/4 1267/1/4 1268/1/4
f 1258/1/4 1268/1/4 1269/1/4
f 1269/1/4 1270/1/4 1273/1/4
f 1258/1/4 1269/1/4 1275/1/4
f 1273/1/4 1274/1/4 1275/1/4
f 1269/1/4 1273/1/4 1275/1/4
f 1275/1/4 1274/1/4 1276/1/4
f 1276/1/4 1274/1/4 1277/1/4
f 1271/1/4 1272/1/4 1278/1/4
f 1278/1/4 1272/1/4 1279/1/4
f 1276/1/4 1277/1/4 1280/1/4
f 1277/1/4 1278/1/4 1280/1/4
f 1280/1/4 1278/1/4 1281/1/4
f 1281/1/4 1278/1/4 1282/1/4
f 1281/9/4 1282/9/4 1283/9/4
f 1283/9/4 1282/9/4 1284/9/4
f 1285/1/4 1286/1/4 1287/1/4
f 1285/1/4 1287/1/4 1289/1/4
f 1287/1/4 1288/1/4 1289/1/4
f 1289/1/4 1288/1/4 1290/1/4
f 1290/1/4 1288/1/4 1291/1/4
f 1290/1/4 1291/1/4 1293/1/4
f 1291/1/4 1292/1/4 1293/1/4
f 1293/1/4 1292/1/4 1294/1/4
f 1294/1/4 1292/1/4 1295/1/4
f 1290/1/4 1293/1/4 1297/1/4
f 1295/1/4 1296/1/4 1298/1/4
f 1294/1/4 1295/1/4 1298/1/4
f 1290/1/4 1297/1/4 1299/1/4
f 1297/1/4 1298/1/4 1299/1/4
f 1299/1/4 1298/1/4 1300/1/4
f 1299/10/4 1300/10/4 1301/10/4
f 1300/1/4 1298/1/4 1301/1/4
f 1301/1/4 1298/1/4 1302/1/4
f 1301/10/4 1302/10/4 1303/10/4
f 1302/1/4 1298/1/4 1303/1/4
f 1298/1/4 1296/1/4 1304/1/4
f 1303/1/4 1298/1/4 1304/1/4
f 1301/10/4 1303/10/4 1305/10/4
f 1299/10/4 1301/10/4 1305/10/4
f 1303/10/4 1304/10/4 1305/10/4
f 1305/10/4 1304/10/4 1306/10/4
f 1306/10/4 1304/10/4 1307/10/4
f 1304/1/4 1296/1/4 1308/1/4
f 1307/10/4 1304/10/4 1308/10/4
f 1308/1/4 1296/1/4 1309/1/4
f 1305/5/4 1306/5/4 1310/5/4
f 1306/10/4 1307/10/4 1311/10/4
f 1310/5/4 1306/5/4 1311/5/4
f 1307/5/4 1308/5/4 1312/5/4
f 1311/10/4 1307/10/4 1312/10/4
f 1308/10/4 1309/10/4 1313/10/4
f 1312/5/4 1308/5/4 1313/5/4
f 1309/1/4 1296/1/4 1314/1/4
f 1313/10/4 1309/10/4 1314/10/4
f 1312/10/4 1313/10/4 1315/10/4
f 1310/10/4 1311/10/4 1315/10/4
f 1311/10/4 1312/10/4 1315/10/4
f 1313/1/4 1314/1/4 1316/1/4
f 1315/10/4 1313/10/4 1316/10/4
f 1310/10/4 1315/10/4 1317/10/4
f 1315/1/4 1316/1/4 1318/1/4
f 1317/10/4 1315/10/4 1318/10/4
f 1310/10/4 1317/10/4 1319/10/4
f 1317/1/4 1318/1/4 1320/1/4
f 1319/10/4 1317/10/4 1320/10/4
f 1319/1/4 1320/1/4 1321/1/4
f 1320/1/4 1318/1/4 1322/1/4
f 1321/1/4 1320/1/4 1322/1/4
f 1314/1/4 1296/1/4 1323/1/4
f 1322/1/4 1318/1/4 1323/1/4
f 1316/1/4 1314/1/4 1323/1/4
f 1318/1/4 1316/1/4 1323/1/4
f 1323/1/4 1296/1/4 1324/1/4
f 1322/1/4 1323/1/4 1325/1/4
f 1325/1/4 1323/1/4 1326/1/4
f 1326/1/4 1323/1/4 1327/1/4
f 1327/1/4 1323/1/4 1328/1/4
f 1329/6/4 1330/6/4 1331/6/4
f 1331/6/4 1330/6/4 1332/6/4
f 1332/6/4 1330/6/4 1333/6/4
f 1333/6/4 1330/6/4 1334/6/4
f 1335/6/4 1336/6/4 1337/6/4
f 1337/6/4 1336/6/4 1338/6/4
f 1339/1/4 1340/1/4 1341/1/4
f 1341/1/4 1340/1/4 1342/1/4
f 1341/9/4 1342/9/4 1343/9/4
f 1343/9/4 1342/9/4 1344/9/4
f 1345/9/4 1346/9/4 1347/9/4
f 1347/9/4 1346/9/4 1348/9/4
f 1347/1/4 1348/1/4 1349/1/4
f 1349/1/4 1348/1/4 1350/1/4
f 1349/9/4 1350/9/4 1351/9/4
f 1351/9/4 1350/9/4 1352/9/4
f 1353/9/4 1354/9/4 1355/9/4
f 1355/9/4 1354/9/4 1356/9/4
f 1355/1/4 1356/1/4 1357/1/4
f 1357/1/4 1356/1/4 1358/1/4
f 1357/9/4 1358/9/4 1359/9/4
f 1359/9/4 1358/9/4 1360/9/4
f 1361/9/4 1362/9/4 1363/9/4
f 1363/9/4 1362/9/4 1364/9/4
f 1367/9/5 1366/9/5 1365/9/5
f 1368/9/5 1366/9/5 1367/9/5
f 1369/9/5 1367/9/5 1365/9/5
f 1370/1/5 1368/1/5 1367/1/5
f 1370/9/5 1367/9/5 1369/9/5
f 1371/9/5 1366/9/5 1368/9/5
f 1371/1/5 1368/1/5 1370/1/5
f 1372/9/5 1366/9/5 1371/9/5
f 1377/9/5 1374/9/5 1373/9/5
f 1377/1/5 1375/1/5 1374/1/5
f 1378/9/5 1376/9/5 1375/9/5
f 1378/1/5 1375/1/5 1377/1/5
f 1379/9/5 1377/9/5 1373/9/5
f 1379/9/5 1378/9/5 1377/9/5
f 1380/9/5 1376/9/5 1378/9/5
f 1380/9/5 1378/9/5 1379/9/5
f 1385/9/5 1382/9/5 1381/9/5
f 1386/1/5 1383/1/5 1382/1/5
f 1386/9/5 1382/9/5 1385/9/5
f 1387/9/5 1384/9/5 1383/9/5
f 1387/1/5 1383/1/5 1386/1/5
f 1388/9/5 1384/9/5 1387/9/5
f 1393/9/5 1390/9/5 1389/9/5
f 1394/1/5 1391/1/5 1390/1/5
f 1394/9/5 1390/9/5 1393/9/5
f 1395/9/5 1392/9/5 1391/9/5
f 1395/1/5 1391/1/5 1394/1/5
f 1396/9/5 1392/9/5 1395/9/5
f 1401/9/5 1398/9/5 1397/9/5
f 1402/1/5 1399/1/5 1398/1/5
f 1402/9/5 1398/9/5 1401/9/5
f 1403/9/5 1400/9/5 1399/9/5
f 1403/1/5 1399/1/5 1402/1/5
f 1404/9/5 1400/9/5 1403/9/5
f 1409/9/5 1406/9/5 1405/9/5
f 1410/1/5 1407/1/5 1406/1/5
f 1410/9/5 1406/9/5 1409/9/5
f 1411/9/5 1408/9/5 1407/9/5
f 1411/1/5 1407/1/5 1410/1/5
f 1412/9/5 1408/9/5 1411/9/5
f 1417/6/5 1414/6/5 1413/6/5
f 1418/6/5 1416/6/5 1415/6/5
f 1422/6/5 1416/6/5 1418/6/5
f 1422/6/5 1418/6/5 1417/6/5
f 1423/6/5 1416/6/5 1422/6/5
f 1424/6/5 1417/6/5 1413/6/5
f 1424/6/5 1422/6/5 1417/6/5
f 1425/6/5 1422/6/5 1424/6/5
f 1426/1/5 1420/1/5 1419/1/5
f 1427/9/5 1421/9/5 1420/9/5
f 1427/1/5 1420/1/5 1426/1/5
f 1428/9/5 1421/9/5 1427/9/5
f 1434/6/5 1430/6/5 1429/6/5
f 1436/6/5 1434/6/5 1429/6/5
f 1436/6/5 1435/6/5 1434/6/5
f 1437/6/5 1435/6/5 1436/6/5
f 1438/1/5 1432/1/5 1431/1/5
f 1439/9/5 1433/9/5 1432/9/5
f 1439/1/5 1432/1/5 1438/1/5
f 1440/9/5 1433/9/5 1439/9/5
f 1441/6/5 1436/6/5 1429/6/5
f 1442/6/5 1436/6/5 1441/6/5
f 1443/6/5 1435/6/5 1437/6/5
f 1444/6/5 1435/6/5 1443/6/5
f 1447/6/5 1446/6/5 1445/6/5
f 1448/6/5 1446/6/5 1447/6/5
f 1450/1/5 1448/1/5 1447/1/5
f 1450/1/5 1449/1/5 1448/1/5
f 1451/1/5 1449/1/5 1450/1/5
f 1454/1/5 1453/1/5 1452/1/5
f 1455/1/5 1453/1/5 1454/1/5
f 1456/1/5 1453/1/5 1455/1/5
f 1457/6/5 1455/6/5 1454/6/5
f 1458/6/5 1455/6/5 1457/6/5
f 1462/1/5 1460/1/5 1459/1/5
f 1462/1/5 1461/1/5 1460/1/5
f 1466/9/5 1465/9/5 1464/9/5
f 1467/9/5 1465/9/5 1466/9/5
f 1468/1/5 1462/1/5 1459/1/5
f 1468/9/5 1463/9/5 1462/9/5
f 1469/9/5 1463/9/5 1468/9/5
f 1470/1/5 1468/1/5 1459/1/5
f 1471/1/5 1468/1/5 1470/1/5
f 1472/1/5 1468/1/5 1471/1/5
f 1479/1/5 1474/1/5 1473/1/5
f 1480/10/5 1475/10/5 1474/10/5
f 1480/1/5 1474/1/5 1479/1/5
f 1481/5/5 1476/5/5 1475/5/5
f 1481/10/5 1475/10/5 1480/10/5
f 1482/10/5 1477/10/5 1476/10/5
f 1482/5/5 1476/5/5 1481/5/5
f 1483/1/5 1478/1/5 1477/1/5
f 1483/10/5 1477/10/5 1482/10/5
f 1484/1/5 1478/1/5 1483/1/5
f 1489/9/5 1486/9/5 1485/9/5
f 1490/9/5 1486/9/5 1489/9/5
f 1491/9/5 1488/9/5 1487/9/5
f 1492/9/5 1488/9/5 1491/9/5
f 1495/2/5 1493/2/5 1492/2/5
f 1496/2/5 1493/2/5 1495/2/5
f 1497/9/5 1495/9/5 1494/9/5
f 1498/9/5 1495/9/5 1497/9/5
f 1501/9/5 1500/9/5 1499/9/5
f 1502/9/5 1500/9/5 1501/9/5
f 1509/1/5 1504/1/5 1503/1/5
f 1510/10/5 1505/10/5 1504/10/5
f 1510/1/5 1504/1/5 1509/1/5
f 1511/5/5 1506/5/5 1505/5/5
f 1511/10/5 1505/10/5 1510/10/5
f 1512/10/5 1507/10/5 1506/10/5
f 1512/5/5 1506/5/5 1511/5/5
f 1513/1/5 1508/1/5 1507/1/5
f 1513/10/5 1507/10/5 1512/10/5
f 1514/1/5 1508/1/5 1513/1/5
f 1517/1/5 1516/1/5 1515/1/5
f 1518/1/5 1516/1/5 1517/1/5
f 1523/9/5 1520/9/5 1519/9/5
f 1524/9/5 1520/9/5 1523/9/5
f 1525/9/5 1522/9/5 1521/9/5
f 1526/9/5 1522/9/5 1525/9/5
f 1532/7/5 1527/7/5 1526/7/5
f 1533/7/5 1527/7/5 1532/7/5
f 1534/7/5 1529/7/5 1528/7/5
f 1535/7/5 1529/7/5 1534/7/5
f 1536/7/5 1531/7/5 1530/7/5
f 1537/7/5 1531/7/5 1536/7/5
f 1540/13/5 1539/13/5 1538/13/5
f 1541/13/5 1539/13/5 1540/13/5
f 1548/12/5 1541/12/5 1540/12/5
f 1549/12/5 1541/12/5 1548/12/5
f 1551/7/5 1543/7/5 1542/7/5
f 1552/7/5 1543/7/5 1551/7/5
f 1553/7/5 1545/7/5 1544/7/5
f 1554/7/5 1545/7/5 1553/7/5
f 1555/7/5 1547/7/5 1546/7/5
f 1556/7/5 1547/7/5 1555/7/5
f 1557/9/5 1551/9/5 1550/9/5
f 1558/9/5 1551/9/5 1557/9/5
f 1563/9/5 1560/9/5 1559/9/5
f 1564/9/5 1560/9/5 1563/9/5
f 1565/1/5 1562/1/5 1561/1/5
f 1566/1/5 1562/1/5 1565/1/5
f 1571/1/5 1568/1/5 1567/1/5
f 1572/1/5 1568/1/5 1571/1/5
f 1573/9/5 1570/9/5 1569/9/5
f 1574/9/5 1570/9/5 1573/9/5
f 1578/8/5 1575/8/5 1574/8/5
f 1579/8/5 1575/8/5 1578/8/5
f 1580/8/5 1575/8/5 1579/8/5
f 1581/8/5 1575/8/5 1580/8/5
f 1582/8/5 1577/8/5 1576/8/5
f 1583/8/5 1577/8/5 1582/8/5
f 1596/14/5 1585/14/5 1584/14/5
f 1597/11/5 1586/11/5 1585/11/5
f 1597/14/5 1585/14/5 1596/14/5
f 1597/11/5 1587/11/5 1586/11/5
f 1597/11/5 1588/11/5 1587/11/5
f 1598/11/5 1588/11/5 1597/11/5
f 1599/11/5 1588/11/5 1598/11/5
f 1600/13/5 1589/13/5 1588/13/5
f 1600/11/5 1588/11/5 1599/11/5
f 1601/11/5 1590/11/5 1589/11/5
f 1601/13/5 1589/13/5 1600/13/5
f 1602/12/5 1591/12/5 1590/12/5
f 1602/11/5 1590/11/5 1601/11/5
f 1603/11/5 1592/11/5 1591/11/5
f 1603/12/5 1591/12/5 1602/12/5
f 1604/13/5 1593/13/5 1592/13/5
f 1604/11/5 1592/11/5 1603/11/5
f 1605/11/5 1594/11/5 1593/11/5
f 1605/13/5 1593/13/5 1604/13/5
f 1605/11/5 1595/11/5 1594/11/5
f 1606/11/5 1595/11/5 1605/11/5
f 1607/11/5 1595/11/5 1606/11/5
f 1615/8/5 1609/8/5 1608/8/5
f 1615/8/5 1610/8/5 1609/8/5
f 1615/8/5 1611/8/5 1610/8/5
f 1616/8/5 1611/8/5 1615/8/5
f 1617/8/5 1613/8/5 1612/8/5
f 1618/8/5 1613/8/5 1617/8/5
f 1619/9/5 1615/9/5 1614/9/5
f 1620/9/5 1615/9/5 1619/9/5
f 1623/1/5 1622/1/5 1621/1/5
f 1624/1/5 1622/1/5 1623/1/5
f 1627/1/5 1626/1/5 1625/1/5
f 1628/1/5 1626/1/5 1627/1/5
f 1631/1/5 1630/1/5 1629/1/5
f 1632/1/5 1630/1/5 1631/1/5
f 1636/1/5 1634/1/5 1633/1/5
f 1637/1/5 1634/1/5 1636/1/5
f 1641/1/5 1636/1/5 1635/1/5
f 1641/1/5 1637/1/5 1636/1/5
f 1641/1/5 1638/1/5 1637/1/5
f 1642/1/5 1638/1/5 1641/1/5
f 1643/1/5 1638/1/5 1642/1/5
f 1644/1/5 1638/1/5 1643/1/5
f 1645/1/5 1638/1/5 1644/1/5
f 1646/1/5 1638/1/5 1645/1/5
f 1647/3/5 1640/3/5 1639/3/5
f 1648/3/5 1640/3/5 1647/3/5
f 1655/1/5 1654/1/5 1653/1/5
f 1655/1/5 1653/1/5 1652/1/5
f 1655/1/5 1652/1/5 1651/1/5
f 1655/1/5 1651/1/5 1650/1/5
f 1655/1/5 1650/1/5 1649/1/5
f 1656/1/5 1654/1/5 1655/1/5
f 1657/1/5 1654/1/5 1656/1/5
f 1658/1/5 1654/1/5 1657/1/5
f 1659/1/5 1657/1/5 1656/1/5
f 1660/1/5 1657/1/5 1659/1/5
f 1672/2/5 1662/2/5 1661/2/5
f 1673/2/5 1662/2/5 1672/2/5
f 1674/9/5 1663/9/5 1662/9/5
f 1674/2/5 1662/2/5 1673/2/5
f 1675/2/5 1664/2/5 1663/2/5
f 1675/9/5 1663/9/5 1674/9/5
f 1676/6/5 1665/6/5 1664/6/5
f 1676/2/5 1664/2/5 1675/2/5
f 1677/2/5 1666/2/5 1665/2/5
f 1677/6/5 1665/6/5 1676/6/5
f 1678/6/5 1667/6/5 1666/6/5
f 1678/2/5 1666/2/5 1677/2/5
f 1679/2/5 1668/2/5 1667/2/5
f 1679/6/5 1667/6/5 1678/6/5
f 1680/2/5 1668/2/5 1679/2/5
f 1681/2/5 1670/2/5 1669/2/5
f 1682/1/5 1671/1/5 1670/1/5
f 1682/2/5 1670/2/5 1681/2/5
f 1683/1/5 1671/1/5 1682/1/5
f 1696/2/5 1685/2/5 1684/2/5
f 1696/2/5 1686/2/5 1685/2/5
f 1697/9/5 1687/9/5 1686/9/5
f 1697/2/5 1686/2/5 1696/2/5
f 1698/2/5 1688/2/5 1687/2/5
f 1698/9/5 1687/9/5 1697/9/5
f 1699/6/5 1689/6/5 1688/6/5
f 1699/2/5 1688/2/5 1698/2/5
f 1700/2/5 1690/2/5 1689/2/5
f 1700/6/5 1689/6/5 1699/6/5
f 1701/6/5 1691/6/5 1690/6/5
f 1701/2/5 1690/2/5 1700/2/5
f 1702/2/5 1692/2/5 1691/2/5
f 1702/6/5 1691/6/5 1701/6/5
f 1703/2/5 1692/2/5 1702/2/5
f 1704/2/5 1694/2/5 1693/2/5
f 1705/1/5 1695/1/5 1694/1/5
f 1705/2/5 1694/2/5 1704/2/5
f 1706/1/5 1695/1/5 1705/1/5
f 1719/9/5 1708/9/5 1707/9/5
f 1719/9/5 1709/9/5 1708/9/5
f 1719/9/5 1710/9/5 1709/9/5
f 1719/9/5 1711/9/5 1710/9/5
f 1719/9/5 1712/9/5 1711/9/5
f 1720/9/5 1712/9/5 1719/9/5
f 1721/9/5 1712/9/5 1720/9/5
f 1722/9/5 1712/9/5 1721/9/5
f 1723/9/5 1712/9/5 1722/9/5
f 1724/1/5 1718/1/5 1717/1/5
f 1724/9/5 1712/9/5 1723/9/5
f 1724/1/5 1717/1/5 1716/1/5
f 1724/1/5 1716/1/5 1715/1/5
f 1724/1/5 1715/1/5 1714/1/5
f 1724/1/5 1714/1/5 1713/1/5
f 1724/1/5 1713/1/5 1712/1/5
f 1725/1/5 1718/1/5 1724/1/5
f 1726/1/5 1718/1/5 1725/1/5
f 1727/1/5 1718/1/5 1726/1/5
f 1728/1/5 1718/1/5 1727/1/5
f 1729/1/5 1718/1/5 1728/1/5
f 1730/1/5 1718/1/5 1729/1/5
f 1731/9/6 1732/9/6 1733/9/6
f 1733/9/6 1732/9/6 1734/9/6
f 1731/9/6 1733/9/6 1735/9/6
f 1733/1/6 1734/1/6 1736/1/6
f 1735/9/6 1733/9/6 1736/9/6
f 1734/9/6 1732/9/6 1737/9/6
f 1736/1/6 1734/1/6 1737/1/6
f 1737/9/6 1732/9/6 1738/9/6
f 1739/9/6 1740/9/6 1743/9/6
f 1740/1/6 1741/1/6 1743/1/6
f 1741/9/6 1742/9/6 1744/9/6
f 1743/1/6 1741/1/6 1744/1/6
f 1739/9/6 1743/9/6 1745/9/6
f 1743/9/6 1744/9/6 1745/9/6
f 1744/9/6 1742/9/6 1746/9/6
f 1745/9/6 1744/9/6 1746/9/6
f 1747/9/6 1748/9/6 1751/9/6
f 1748/1/6 1749/1/6 1752/1/6
f 1751/9/6 1748/9/6 1752/9/6
f 1749/9/6 1750/9/6 1753/9/6
f 1752/1/6 1749/1/6 1753/1/6
f 1753/9/6 1750/9/6 1754/9/6
f 1755/1/6 1756/1/6 1758/1/6
f 1758/1/6 1756/1/6 1759/1/6
f 1758/9/6 1759/9/6 1760/9/6
f 1759/1/6 1756/1/6 1760/1/6
f 1760/1/6 1756/1/6 1761/1/6
f 1761/1/6 1756/1/6 1762/1/6
f 1756/9/6 1757/9/6 1763/9/6
f 1762/1/6 1756/1/6 1763/1/6
f 1763/9/6 1757/9/6 1764/9/6
f 1758/9/6 1760/9/6 1765/9/6
f 1765/9/6 1760/9/6 1766/9/6
f 1761/1/6 1762/1/6 1770/1/6
f 1767/9/6 1768/9/6 1771/9/6
f 1771/9/6 1768/9/6 1772/9/6
f 1769/1/6 1770/1/6 1773/1/6
f 1770/1/6 1762/1/6 1774/1/6
f 1773/1/6 1770/1/6 1774/1/6
f 1775/9/6 1776/9/6 1779/9/6
f 1779/9/6 1776/9/6 1780/9/6
f 1777/1/6 1778/1/6 1781/1/6
f 1781/1/6 1778/1/6 1782/1/6
f 1783/9/6 1784/9/6 1785/9/6
f 1782/1/6 1778/1/6 1786/1/6
f 1786/1/6 1778/1/6 1787/1/6
f 1783/9/6 1785/9/6 1790/9/6
f 1786/1/6 1787/1/6 1791/1/6
f 1790/9/6 1785/9/6 1791/9/6
f 1785/1/6 1786/1/6 1791/1/6
f 1787/1/6 1788/1/6 1791/1/6
f 1788/9/6 1789/9/6 1792/9/6
f 1791/1/6 1788/1/6 1792/1/6
f 1792/9/6 1789/9/6 1793/9/6
f 1794/6/6 1795/6/6 1796/6/6
f 1796/6/6 1795/6/6 1797/6/6
f 1798/6/6 1799/6/6 1800/6/6
f 1800/6/6 1799/6/6 1801/6/6
f 1805/6/6 1806/6/6 1807/6/6
f 1807/6/6 1806/6/6 1808/6/6
f 1802/1/6 1803/1/6 1809/1/6
f 1803/9/6 1804/9/6 1810/9/6
f 1809/1/6 1803/1/6 1810/1/6
f 1810/9/6 1804/9/6 1811/9/6
f 1811/9/6 1804/9/6 1812/9/6
f 1813/9/6 1814/9/6 1816/9/6
f 1817/6/6 1818/6/6 1819/6/6
f 1819/6/6 1818/6/6 1820/6/6
f 1815/1/6 1816/1/6 1821/1/6
f 1816/9/6 1814/9/6 1822/9/6
f 1821/1/6 1816/1/6 1822/1/6
f 1822/9/6 1814/9/6 1823/9/6
f 1824/1/6 1825/1/6 1827/1/6
f 1827/1/6 1825/1/6 1828/1/6
f 1826/1/6 1827/1/6 1830/1/6
f 1828/1/6 1829/1/6 1830/1/6
f 1827/1/6 1828/1/6 1830/1/6
f 1830/1/6 1829/1/6 1831/1/6
f 1831/1/6 1829/1/6 1832/1/6
f 1832/1/6 1829/1/6 1833/1/6
f 1831/1/6 1832/1/6 1835/1/6
f 1835/1/6 1832/1/6 1836/1/6
f 1834/1/6 1835/1/6 1838/1/6
f 1836/1/6 1837/1/6 1838/1/6
f 1835/1/6 1836/1/6 1838/1/6
f 1838/1/6 1837/1/6 1839/1/6
f 1839/1/6 1837/1/6 1840/1/6
f 1840/1/6 1837/1/6 1841/1/6
f 1839/1/6 1840/1/6 1842/1/6
f 1842/1/6 1840/1/6 1843/1/6
f 1844/1/6 1845/1/6 1848/1/6
f 1848/1/6 1845/1/6 1849/1/6
f 1846/1/6 1847/1/6 1850/1/6
f 1850/1/6 1847/1/6 1851/1/6
f 1852/2/6 1853/2/6 1863/2/6
f 1853/2/6 1854/2/6 1863/2/6
f 1860/2/6 1861/2/6 1863/2/6
f 1859/2/6 1860/2/6 1863/2/6
f 1858/2/6 1859/2/6 1863/2/6
f 1857/2/6 1858/2/6 1863/2/6
f 1856/2/6 1857/2/6 1863/2/6
f 1855/2/6 1856/2/6 1863/2/6
f 1854/2/6 1855/2/6 1863/2/6
f 1863/2/6 1861/2/6 1864/2/6
f 1864/2/6 1861/2/6 1865/2/6
f 1865/2/6 1861/2/6 1866/2/6
f 1866/2/6 1861/2/6 1867/2/6
f 1867/2/6 1861/2/6 1868/2/6
f 1868/2/6 1861/2/6 1869/2/6
f 1869/2/6 1861/2/6 1870/2/6
f 1870/2/6 1861/2/6 1871/2/6
f 1861/1/6 1862/1/6 1872/1/6
f 1871/2/6 1861/2/6 1872/2/6
f 1872/1/6 1862/1/6 1873/1/6
f 1876/1/6 1877/1/6 1878/1/6
f 1878/1/6 1877/1/6 1879/1/6
f 1874/1/6 1875/1/6 1880/1/6
f 1880/1/6 1875/1/6 1881/1/6
f 1882/1/6 1883/1/6 1895/1/6
f 1895/1/6 1883/1/6 1896/1/6
f 1884/7/6 1885/7/6 1898/7/6
f 1898/7/6 1885/7/6 1899/7/6
f 1885/9/6 1886/9/6 1900/9/6
f 1899/7/6 1885/7/6 1900/7/6
f 1886/7/6 1887/7/6 1901/7/6
f 1900/9/6 1886/9/6 1901/9/6
f 1887/9/6 1888/9/6 1902/9/6
f 1901/7/6 1887/7/6 1902/7/6
f 1888/7/6 1889/7/6 1903/7/6
f 1902/9/6 1888/9/6 1903/9/6
f 1903/7/6 1889/7/6 1904/7/6
f 1890/7/6 1891/7/6 1905/7/6
f 1905/7/6 1891/7/6 1906/7/6
f 1892/7/6 1893/7/6 1907/7/6
f 1893/1/6 1894/1/6 1908/1/6
f 1907/7/6 1893/7/6 1908/7/6
f 1908/1/6 1894/1/6 1909/1/6
f 1897/3/6 1898/3/6 1910/3/6
f 1910/3/6 1898/3/6 1911/3/6
f 1911/7/6 1912/7/6 1923/7/6
f 1912/7/6 1913/7/6 1923/7/6
f 1913/9/6 1914/9/6 1924/9/6
f 1923/7/6 1913/7/6 1924/7/6
f 1914/7/6 1915/7/6 1925/7/6
f 1924/9/6 1914/9/6 1925/9/6
f 1915/9/6 1916/9/6 1926/9/6
f 1925/7/6 1915/7/6 1926/7/6
f 1916/7/6 1917/7/6 1927/7/6
f 1926/9/6 1916/9/6 1927/9/6
f 1927/7/6 1917/7/6 1928/7/6
f 1918/7/6 1919/7/6 1929/7/6
f 1929/7/6 1919/7/6 1930/7/6
f 1920/7/6 1921/7/6 1931/7/6
f 1921/1/6 1922/1/6 1932/1/6
f 1931/7/6 1921/7/6 1932/7/6
f 1932/1/6 1922/1/6 1933/1/6
f 1934/1/6 1935/1/6 1936/1/6
f 1936/1/6 1935/1/6 1937/1/6
f 1938/1/6 1939/1/6 1940/1/6
f 1940/1/6 1939/1/6 1941/1/6
f 1942/1/6 1943/1/6 1944/1/6
f 1944/1/6 1943/1/6 1945/1/6
f 1946/1/6 1947/1/6 1954/1/6
f 1954/1/6 1947/1/6 1955/1/6
f 1948/1/6 1949/1/6 1956/1/6
f 1956/1/6 1949/1/6 1957/1/6
f 1950/9/6 1951/9/6 1960/9/6
f 1960/9/6 1951/9/6 1961/9/6
f 1952/1/6 1953/1/6 1964/1/6
f 1964/1/6 1953/1/6 1965/1/6
f 1957/1/6 1958/1/6 1966/1/6
f 1958/9/6 1959/9/6 1967/9/6
f 1966/1/6 1958/1/6 1967/1/6
f 1967/9/6 1959/9/6 1968/9/6
f 1961/8/6 1962/8/6 1969/8/6
f 1969/8/6 1962/8/6 1970/8/6
f 1970/8/6 1962/8/6 1971/8/6
f 1971/8/6 1962/8/6 1972/8/6
f 1963/8/6 1964/8/6 1973/8/6
f 1973/8/6 1964/8/6 1974/8/6
f 1975/3/6 1976/3/6 1987/3/6
f 1976/11/6 1977/11/6 1988/11/6
f 1987/3/6 1976/3/6 1988/3/6
f 1977/11/6 1978/11/6 1988/11/6
f 1978/11/6 1979/11/6 1988/11/6
f 1982/11/6 1983/11/6 1988/11/6
f 1981/11/6 1982/11/6 1988/11/6
f 1980/11/6 1981/11/6 1988/11/6
f 1979/11/6 1980/11/6 1988/11/6
f 1988/11/6 1983/11/6 1989/11/6
f 1989/11/6 1983/11/6 1990/11/6
f 1990/11/6 1983/11/6 1991/11/6
f 1991/11/6 1983/11/6 1992/11/6
f 1992/11/6 1983/11/6 1993/11/6
f 1993/11/6 1983/11/6 1994/11/6
f 1983/12/6 1984/12/6 1995/12/6
f 1994/11/6 1983/11/6 1995/11/6
f 1984/11/6 1985/11/6 1996/11/6
f 1995/12/6 1984/12/6 1996/12/6
f 1985/11/6 1986/11/6 1996/11/6
f 1996/11/6 1986/11/6 1997/11/6
f 1997/11/6 1986/11/6 1998/11/6
f 1999/8/6 2000/8/6 2006/8/6
f 2000/8/6 2001/8/6 2006/8/6
f 2001/8/6 2002/8/6 2006/8/6
f 2006/8/6 2002/8/6 2007/8/6
f 2003/8/6 2004/8/6 2008/8/6
f 2008/8/6 2004/8/6 2009/8/6
f 2005/9/6 2006/9/6 2014/9/6
f 2014/9/6 2006/9/6 2015/9/6
f 2009/1/6 2010/1/6 2016/1/6
f 2016/1/6 2010/1/6 2017/1/6
f 2011/1/6 2012/1/6 2021/1/6
f 2012/9/6 2013/9/6 2022/9/6
f 2021/1/6 2012/1/6 2022/1/6
f 2022/9/6 2013/9/6 2023/9/6
f 2018/1/6 2019/1/6 2024/1/6
f 2024/1/6 2019/1/6 2025/1/6
f 2020/1/6 2021/1/6 2026/1/6
f 2026/1/6 2021/1/6 2027/1/6
f 2028/1/6 2029/1/6 2031/1/6
f 2031/1/6 2029/1/6 2032/1/6
f 2030/1/6 2031/1/6 2037/1/6
f 2031/1/6 2032/1/6 2037/1/6
f 2032/1/6 2033/1/6 2037/1/6
f 2037/1/6 2033/1/6 2038/1/6
f 2034/9/6 2035/9/6 2041/9/6
f 2041/9/6 2035/9/6 2042/9/6
f 2036/1/6 2037/1/6 2048/1/6
f 2048/1/6 2037/1/6 2049/1/6
f 2038/1/6 2039/1/6 2050/1/6
f 2039/9/6 2040/9/6 2051/9/6
f 2050/1/6 2039/1/6 2051/1/6
f 2051/9/6 2040/9/6 2052/9/6
f 2043/2/6 2044/2/6 2053/2/6
f 2044/6/6 2045/6/6 2054/6/6
f 2053/2/6 2044/2/6 2054/2/6
f 2045/2/6 2046/2/6 2055/2/6
f 2054/6/6 2045/6/6 2055/6/6
f 2055/2/6 2046/2/6 2056/2/6
f 2047/2/6 2048/2/6 2057/2/6
f 2057/2/6 2048/2/6 2058/2/6
f 2059/2/6 2060/2/6 2067/2/6
f 2060/6/6 2061/6/6 2068/6/6
f 2067/2/6 2060/2/6 2068/2/6
f 2061/2/6 2062/2/6 2069/2/6
f 2068/6/6 2061/6/6 2069/6/6
f 2069/2/6 2062/2/6 2070/2/6
f 2063/2/6 2064/2/6 2071/2/6
f 2071/2/6 2064/2/6 2072/2/6
f 2065/9/6 2066/9/6 2077/9/6
f 2077/9/6 2066/9/6 2078/9/6
f 2072/1/6 2073/1/6 2079/1/6
f 2079/1/6 2073/1/6 2080/1/6
f 2074/1/6 2075/1/6 2081/1/6
f 2075/9/6 2076/9/6 2082/9/6
f 2081/1/6 2075/1/6 2082/1/6
f 2082/9/6 2076/9/6 2083/9/6
f 2080/1/6 2081/1/6 2084/1/6
f 2084/1/6 2081/1/6 2085/1/6
f 2085/1/6 2081/1/6 2086/1/6
f 2086/1/6 2081/1/6 2087/1/6
f 2085/1/6 2086/1/6 2088/1/6
f 2088/1/6 2086/1/6 2089/1/6
f 2090/1/6 2091/1/6 2095/1/6
f 2095/1/6 2091/1/6 2096/1/6
f 2092/9/6 2093/9/6 2099/9/6
f 2094/1/6 2095/1/6 2100/1/6
f 2092/9/6 2099/9/6 2101/9/6
f 2099/1/6 2100/1/6 2101/1/6
f 2100/1/6 2095/1/6 2102/1/6
f 2101/1/6 2100/1/6 2102/1/6
f 2092/9/6 2101/9/6 2103/9/6
f 2103/9/6 2101/9/6 2104/9/6
f 2102/1/6 2095/1/6 2105/1/6
f 2105/1/6 2095/1/6 2106/1/6
f 2096/1/6 2097/1/6 2107/1/6
f 2097/9/6 2098/9/6 2108/9/6
f 2107/1/6 2097/1/6 2108/1/6
f 2108/9/6 2098/9/6 2109/9/6
f 2106/1/6 2107/1/6 2110/1/6
f 2110/1/6 2107/1/6 2111/1/6
f 2112/1/6 2113/1/6 2114/1/6
f 2114/1/6 2113/1/6 2115/1/6
