# MagicaVoxel @ Ephtracy

# group
o 

# material
mtllib пушка радиация.mtl
usemtl palette

# normals
vn -1 0 0
vn 1 0 0
vn 0 0 1
vn 0 0 -1
vn 0 -1 0
vn 0 1 0

# texcoords
vt 0.115234 0.5
vt 0.126953 0.5
vt 0.158203 0.5
vt 0.162109 0.5
vt 0.166016 0.5
vt 0.169922 0.5
vt 0.173828 0.5
vt 0.177734 0.5
vt 0.193359 0.5
vt 0.197266 0.5
vt 0.201172 0.5
vt 0.205078 0.5
vt 0.208984 0.5

# verts
v -3 1.5 0.1
v -3 1.5 -0.1
v -3 1.6 0.2
v -3 1.6 0.1
v -3 1.6 -0.1
v -3 1.6 -0.2
v -3 1.7 0.3
v -3 1.7 0.2
v -3 1.7 0.1
v -3 1.7 -0.1
v -3 1.7 -0.2
v -3 1.7 -0.3
v -3 1.9 0.1
v -3 1.9 -0.1
v -3 2 0.3
v -3 2 0.2
v -3 2 0.1
v -3 2 -0.1
v -3 2 -0.2
v -3 2 -0.3
v -3 2.1 0.2
v -3 2.1 0.1
v -3 2.1 -0.1
v -3 2.1 -0.2
v -3 2.2 0.1
v -3 2.2 -0.1
v -2.9 1.7 0.1
v -2.9 1.7 -0.1
v -2.9 1.9 0.1
v -2.9 1.9 -0.1
v -2.6 1.6 0.2
v -2.6 1.6 0.1
v -2.6 1.6 -0.1
v -2.6 1.6 -0.2
v -2.6 1.7 0.3
v -2.6 1.7 0.2
v -2.6 1.7 0.1
v -2.6 1.7 -0.1
v -2.6 1.7 -0.2
v -2.6 1.7 -0.3
v -2.6 2 0.3
v -2.6 2 0.2
v -2.6 2 0.1
v -2.6 2 -0.1
v -2.6 2 -0.2
v -2.6 2 -0.3
v -2.6 2.1 0.2
v -2.6 2.1 0.1
v -2.6 2.1 -0.1
v -2.6 2.1 -0.2
v -2.1 1.6 0.2
v -2.1 1.6 0.1
v -2.1 1.6 -0.1
v -2.1 1.6 -0.2
v -2.1 1.7 0.3
v -2.1 1.7 0.2
v -2.1 1.7 0.1
v -2.1 1.7 -0.1
v -2.1 1.7 -0.2
v -2.1 1.7 -0.3
v -2.1 2 0.3
v -2.1 2 0.2
v -2.1 2 0.1
v -2.1 2 -0.1
v -2.1 2 -0.2
v -2.1 2 -0.3
v -2.1 2.1 0.2
v -2.1 2.1 0.1
v -2.1 2.1 -0.1
v -2.1 2.1 -0.2
v -1.6 1.6 0.2
v -1.6 1.6 0.1
v -1.6 1.6 -0.1
v -1.6 1.6 -0.2
v -1.6 1.7 0.3
v -1.6 1.7 0.2
v -1.6 1.7 0.1
v -1.6 1.7 -0.1
v -1.6 1.7 -0.2
v -1.6 1.7 -0.3
v -1.6 2 0.3
v -1.6 2 0.2
v -1.6 2 0.1
v -1.6 2 -0.1
v -1.6 2 -0.2
v -1.6 2 -0.3
v -1.6 2.1 0.2
v -1.6 2.1 0.1
v -1.6 2.1 -0.1
v -1.6 2.1 -0.2
v -1.2 1.6 -0.1
v -1.2 1.6 -0.2
v -1.2 1.7 -0.1
v -1.2 1.7 -0.2
v -1.2 1.7 -0.3
v -1.2 2 -0.1
v -1.2 2 -0.2
v -1.2 2 -0.3
v -1.2 2.1 -0.1
v -1.2 2.1 -0.2
v -1.1 0 1.5
v -1.1 0 1.2
v -1.1 0 -1.2
v -1.1 0 -1.5
v -1.1 0.3 1.2
v -1.1 0.3 0.7
v -1.1 0.3 -0.7
v -1.1 0.3 -1.2
v -1.1 0.4 1.5
v -1.1 0.4 1.3
v -1.1 0.4 0.7
v -1.1 0.4 0.6
v -1.1 0.4 -0.6
v -1.1 0.4 -0.7
v -1.1 0.4 -1.3
v -1.1 0.4 -1.5
v -1.1 0.5 1.3
v -1.1 0.5 1.2
v -1.1 0.5 -1.2
v -1.1 0.5 -1.3
v -1.1 0.6 1.3
v -1.1 0.6 1.2
v -1.1 0.6 0.8
v -1.1 0.6 0.7
v -1.1 0.6 0.6
v -1.1 0.6 -0.6
v -1.1 0.6 -0.7
v -1.1 0.6 -0.8
v -1.1 0.6 -1.2
v -1.1 1.1 0.7
v -1.1 1.1 0.3
v -1.1 1.1 -0.3
v -1.1 1.1 -0.7
v -1.1 1.4 0.8
v -1.1 1.4 0.5
v -1.1 1.4 0.3
v -1.1 1.4 -0.3
v -1.1 1.4 -0.5
v -1.1 1.4 -0.8
v -1.1 1.5 0.1
v -1.1 1.5 -0.1
v -1.1 1.6 0.5
v -1.1 1.6 0.4
v -1.1 1.6 0.2
v -1.1 1.6 0.1
v -1.1 1.6 -0.1
v -1.1 1.6 -0.2
v -1.1 1.6 -0.4
v -1.1 1.6 -0.5
v -1.1 1.7 0.3
v -1.1 1.7 0.2
v -1.1 1.7 -0.2
v -1.1 1.7 -0.3
v -1.1 2 0.4
v -1.1 2 0.3
v -1.1 2 0.2
v -1.1 2 -0.2
v -1.1 2 -0.3
v -1.1 2 -0.4
v -1.1 2.1 0.3
v -1.1 2.1 0.2
v -1.1 2.1 0.1
v -1.1 2.1 -0.1
v -1.1 2.1 -0.2
v -1.1 2.1 -0.3
v -1.1 2.2 0.2
v -1.1 2.2 0.1
v -1.1 2.2 -0.1
v -1.1 2.2 -0.2
v -1 0.6 0.9
v -1 0.6 0.8
v -1 0.6 0.7
v -1 0.6 0.6
v -1 0.6 -0.6
v -1 0.6 -0.7
v -1 0.6 -0.8
v -1 0.6 -0.9
v -1 1.1 0.7
v -1 1.1 0.6
v -1 1.1 -0.6
v -1 1.1 -0.7
v -1 1.3 0.9
v -1 1.3 0.8
v -1 1.3 -0.8
v -1 1.3 -0.9
v -1 2 0.4
v -1 2 0.3
v -1 2 0.1
v -1 2 -0.1
v -1 2 -0.3
v -1 2 -0.4
v -1 2.1 0.4
v -1 2.1 0.3
v -1 2.1 0.2
v -1 2.1 0.1
v -1 2.1 -0.1
v -1 2.1 -0.2
v -1 2.1 -0.3
v -1 2.1 -0.4
v -1 2.2 0.3
v -1 2.2 0.2
v -1 2.2 -0.2
v -1 2.2 -0.3
v -1 2.3 0.2
v -1 2.3 -0.2
v -0.9 1.6 0.5
v -0.9 1.6 0.4
v -0.9 1.6 -0.4
v -0.9 1.6 -0.5
v -0.9 1.9 0.5
v -0.9 1.9 0.4
v -0.9 1.9 -0.4
v -0.9 1.9 -0.5
v -0.7 1.7 0.2
v -0.7 1.7 0.1
v -0.7 2 0.2
v -0.7 2 0.1
v -0.5 1.9 0.5
v -0.5 1.9 0.4
v -0.5 1.9 -0.4
v -0.5 1.9 -0.5
v -0.5 2 0.5
v -0.5 2 0.4
v -0.5 2 -0.4
v -0.5 2 -0.5
v -0.3 1.6 0.1
v -0.3 1.6 -0.1
v -0.3 1.7 0.1
v -0.3 1.7 -0.1
v -0.3 1.7 -0.2
v -0.3 2 -0.1
v -0.3 2 -0.2
v 0.4 2 0.5
v 0.4 2 0.4
v 0.4 2 -0.4
v 0.4 2 -0.5
v 0.4 2.1 0.5
v 0.4 2.1 0.4
v 0.4 2.1 -0.4
v 0.4 2.1 -0.5
v 0.7 1.5 0.3
v 0.7 1.5 0.2
v 0.7 1.5 -0.2
v 0.7 1.5 -0.3
v 0.7 1.6 0.5
v 0.7 1.6 0.3
v 0.7 1.6 -0.3
v 0.7 1.6 -0.5
v 0.7 1.9 0.5
v 0.7 1.9 0.2
v 0.7 1.9 -0.2
v 0.7 1.9 -0.5
v 0.8 1.5 0.2
v 0.8 1.5 -0.2
v 0.8 1.6 0.1
v 0.8 1.6 -0.1
v 0.8 1.8 0.1
v 0.8 1.8 -0.1
v 0.8 1.9 0.2
v 0.8 1.9 -0.2
v 2.6 0.6 0.9
v 2.6 0.6 0.6
v 2.6 0.6 -0.6
v 2.6 0.6 -0.9
v 2.6 1.1 0.6
v 2.6 1.1 0.3
v 2.6 1.1 -0.3
v 2.6 1.1 -0.6
v 2.6 1.3 0.4
v 2.6 1.3 0.3
v 2.6 1.3 -0.3
v 2.6 1.3 -0.4
v 2.6 1.4 0.9
v 2.6 1.4 0.4
v 2.6 1.4 -0.4
v 2.6 1.4 -0.9
v 2.7 1.7 0.3
v 2.7 1.7 0.2
v 2.7 1.7 -0.2
v 2.7 1.7 -0.3
v 2.7 1.8 0.3
v 2.7 1.8 0.2
v 2.7 1.8 -0.2
v 2.7 1.8 -0.3
v -2.9 1.6 0.1
v -2.9 1.6 -0.1
v -2.9 1.7 0.2
v -2.9 1.7 0.1
v -2.9 1.7 -0.1
v -2.9 1.7 -0.2
v -2.9 1.9 0.1
v -2.9 1.9 -0.1
v -2.9 2 0.2
v -2.9 2 0.1
v -2.9 2 -0.1
v -2.9 2 -0.2
v -2.9 2.1 0.1
v -2.9 2.1 -0.1
v -2.7 1.6 0.2
v -2.7 1.6 0.1
v -2.7 1.6 -0.1
v -2.7 1.6 -0.2
v -2.7 1.7 0.3
v -2.7 1.7 0.2
v -2.7 1.7 0.1
v -2.7 1.7 -0.1
v -2.7 1.7 -0.2
v -2.7 1.7 -0.3
v -2.7 2 0.3
v -2.7 2 0.2
v -2.7 2 0.1
v -2.7 2 -0.1
v -2.7 2 -0.2
v -2.7 2 -0.3
v -2.7 2.1 0.2
v -2.7 2.1 0.1
v -2.7 2.1 -0.1
v -2.7 2.1 -0.2
v -2.2 1.6 0.2
v -2.2 1.6 0.1
v -2.2 1.6 -0.1
v -2.2 1.6 -0.2
v -2.2 1.7 0.3
v -2.2 1.7 0.2
v -2.2 1.7 0.1
v -2.2 1.7 -0.1
v -2.2 1.7 -0.2
v -2.2 1.7 -0.3
v -2.2 2 0.3
v -2.2 2 0.2
v -2.2 2 0.1
v -2.2 2 -0.1
v -2.2 2 -0.2
v -2.2 2 -0.3
v -2.2 2.1 0.2
v -2.2 2.1 0.1
v -2.2 2.1 -0.1
v -2.2 2.1 -0.2
v -1.7 1.6 0.2
v -1.7 1.6 0.1
v -1.7 1.6 -0.1
v -1.7 1.6 -0.2
v -1.7 1.7 0.3
v -1.7 1.7 0.2
v -1.7 1.7 0.1
v -1.7 1.7 -0.1
v -1.7 1.7 -0.2
v -1.7 1.7 -0.3
v -1.7 2 0.3
v -1.7 2 0.2
v -1.7 2 0.1
v -1.7 2 -0.1
v -1.7 2 -0.2
v -1.7 2 -0.3
v -1.7 2.1 0.2
v -1.7 2.1 0.1
v -1.7 2.1 -0.1
v -1.7 2.1 -0.2
v -1.3 1.6 -0.1
v -1.3 1.6 -0.2
v -1.3 1.7 -0.1
v -1.3 1.7 -0.2
v -1.3 1.7 -0.3
v -1.3 2 -0.1
v -1.3 2 -0.2
v -1.3 2 -0.3
v -1.3 2.1 -0.1
v -1.3 2.1 -0.2
v -0.9 0.6 0.7
v -0.9 0.6 0.6
v -0.9 0.6 -0.6
v -0.9 0.6 -0.7
v -0.9 1.1 0.7
v -0.9 1.1 0.6
v -0.9 1.1 0.5
v -0.9 1.1 0.3
v -0.9 1.1 -0.3
v -0.9 1.1 -0.5
v -0.9 1.1 -0.6
v -0.9 1.1 -0.7
v -0.9 1.3 0.5
v -0.9 1.3 0.4
v -0.9 1.3 0.3
v -0.9 1.3 -0.3
v -0.9 1.3 -0.4
v -0.9 1.3 -0.5
v -0.8 0.6 0.9
v -0.8 0.6 0.7
v -0.8 0.6 -0.7
v -0.8 0.6 -0.9
v -0.8 1.1 0.7
v -0.8 1.1 0.5
v -0.8 1.1 -0.5
v -0.8 1.1 -0.7
v -0.8 1.3 0.9
v -0.8 1.3 0.8
v -0.8 1.3 0.5
v -0.8 1.3 0.4
v -0.8 1.3 -0.4
v -0.8 1.3 -0.5
v -0.8 1.3 -0.8
v -0.8 1.3 -0.9
v -0.8 1.4 0.8
v -0.8 1.4 0.5
v -0.8 1.4 0.4
v -0.8 1.4 -0.4
v -0.8 1.4 -0.5
v -0.8 1.4 -0.8
v -0.8 1.5 0.5
v -0.8 1.5 0.4
v -0.8 1.5 -0.4
v -0.8 1.5 -0.5
v -0.0999999 1.5 0.2
v -0.0999999 1.5 -0.2
v -0.0999999 1.6 0.2
v -0.0999999 1.6 0.1
v -0.0999999 1.6 -0.1
v -0.0999999 1.6 -0.2
v -0.0999999 1.8 0.1
v -0.0999999 1.8 -0.1
v -0.0999999 1.9 0.2
v -0.0999999 1.9 -0.2
v 0.2 1.5 0.3
v 0.2 1.5 0.2
v 0.2 1.5 -0.2
v 0.2 1.5 -0.3
v 0.2 1.6 0.5
v 0.2 1.6 0.3
v 0.2 1.6 -0.3
v 0.2 1.6 -0.5
v 0.2 1.9 0.5
v 0.2 1.9 0.2
v 0.2 1.9 -0.2
v 0.2 1.9 -0.5
v 2.1 1.5 0.5
v 2.1 1.5 0.4
v 2.1 1.5 -0.4
v 2.1 1.5 -0.5
v 2.1 1.6 0.5
v 2.1 1.6 0.4
v 2.1 1.6 -0.4
v 2.1 1.6 -0.5
v 2.2 2 0.5
v 2.2 2 0.4
v 2.2 2 -0.4
v 2.2 2 -0.5
v 2.2 2.1 0.5
v 2.2 2.1 0.4
v 2.2 2.1 -0.4
v 2.2 2.1 -0.5
v 2.5 1.6 0.5
v 2.5 1.6 0.4
v 2.5 1.6 -0.4
v 2.5 1.6 -0.5
v 2.5 1.7 0.5
v 2.5 1.7 0.4
v 2.5 1.7 -0.4
v 2.5 1.7 -0.5
v 2.6 1.7 0.3
v 2.6 1.7 0.2
v 2.6 1.7 -0.2
v 2.6 1.7 -0.3
v 2.6 1.8 0.3
v 2.6 1.8 0.2
v 2.6 1.8 -0.2
v 2.6 1.8 -0.3
v 2.7 1.7 0.5
v 2.7 1.7 0.4
v 2.7 1.7 -0.4
v 2.7 1.7 -0.5
v 2.7 2 0.5
v 2.7 2 0.4
v 2.7 2 0.3
v 2.7 2 -0.3
v 2.7 2 -0.4
v 2.7 2 -0.5
v 2.7 2.1 0.4
v 2.7 2.1 0.3
v 2.7 2.1 0.2
v 2.7 2.1 -0.2
v 2.7 2.1 -0.3
v 2.7 2.1 -0.4
v 2.7 2.2 0.3
v 2.7 2.2 0.2
v 2.7 2.2 -0.2
v 2.7 2.2 -0.3
v 2.7 2.3 0.2
v 2.7 2.3 -0.2
v 2.8 1.4 0.4
v 2.8 1.4 0.3
v 2.8 1.4 0.2
v 2.8 1.4 -0.2
v 2.8 1.4 -0.3
v 2.8 1.4 -0.4
v 2.8 1.5 0.3
v 2.8 1.5 0.2
v 2.8 1.5 -0.2
v 2.8 1.5 -0.3
v 2.8 1.6 0.4
v 2.8 1.6 0.3
v 2.8 1.6 -0.3
v 2.8 1.6 -0.4
v 2.9 0 1.5
v 2.9 0 1.2
v 2.9 0 -1.2
v 2.9 0 -1.5
v 2.9 0.3 1.2
v 2.9 0.3 0.7
v 2.9 0.3 -0.7
v 2.9 0.3 -1.2
v 2.9 0.4 1.5
v 2.9 0.4 1.3
v 2.9 0.4 0.7
v 2.9 0.4 0.6
v 2.9 0.4 -0.6
v 2.9 0.4 -0.7
v 2.9 0.4 -1.3
v 2.9 0.4 -1.5
v 2.9 0.5 -1.2
v 2.9 0.5 -1.3
v 2.9 0.6 1.3
v 2.9 0.6 0.9
v 2.9 0.6 -0.9
v 2.9 0.6 -1.2
v 2.9 1.1 0.6
v 2.9 1.1 0.3
v 2.9 1.1 -0.3
v 2.9 1.1 -0.6
v 2.9 1.4 0.9
v 2.9 1.4 0.3
v 2.9 1.4 0.2
v 2.9 1.4 -0.2
v 2.9 1.4 -0.3
v 2.9 1.4 -0.9
v 2.9 1.5 0.3
v 2.9 1.5 0.2
v 2.9 1.5 -0.2
v 2.9 1.5 -0.3
v 2.9 1.6 0.4
v 2.9 1.6 0.3
v 2.9 1.6 -0.3
v 2.9 1.6 -0.4
v 2.9 2 0.4
v 2.9 2 0.3
v 2.9 2 -0.3
v 2.9 2 -0.4
v 2.9 2.1 0.3
v 2.9 2.1 0.2
v 2.9 2.1 -0.2
v 2.9 2.1 -0.3
v 2.9 2.2 0.2
v 2.9 2.2 -0.2
v -1.1 0 1.5
v -1.1 0.4 1.5
v 2.9 0 1.5
v 2.9 0.4 1.5
v -1.1 0.4 1.3
v -1.1 0.5 1.3
v -1.1 0.6 1.3
v -1 0.4 1.3
v -1 0.5 1.3
v 2.8 0.4 1.3
v 2.8 0.6 1.3
v 2.9 0.4 1.3
v 2.9 0.6 1.3
v -1 0.6 0.9
v -1 1.3 0.9
v -0.8 0.6 0.9
v -0.8 1.3 0.9
v 2.6 0.6 0.9
v 2.6 1.4 0.9
v 2.8 0.6 0.9
v 2.8 1.4 0.9
v 2.9 0.6 0.9
v 2.9 1.4 0.9
v -1.1 0.6 0.8
v -1.1 1.4 0.8
v -1 0.6 0.8
v -1 1.3 0.8
v -0.8 1.3 0.8
v -0.8 1.4 0.8
v -1.1 1.4 0.5
v -1.1 1.6 0.5
v -0.9 1.6 0.5
v -0.9 1.9 0.5
v -0.8 1.4 0.5
v -0.8 1.5 0.5
v -0.5 1.9 0.5
v -0.5 2 0.5
v 0.2 1.6 0.5
v 0.2 1.9 0.5
v 0.4 2 0.5
v 0.4 2.1 0.5
v 0.7 1.6 0.5
v 0.7 1.9 0.5
v 1.3 1.5 0.5
v 1.3 1.6 0.5
v 1.4 1.6 0.5
v 1.4 1.8 0.5
v 1.5 1.8 0.5
v 1.5 1.9 0.5
v 1.6 1.5 0.5
v 1.6 1.6 0.5
v 1.6 1.7 0.5
v 1.6 1.9 0.5
v 1.6 2 0.5
v 1.7 1.5 0.5
v 1.7 1.6 0.5
v 1.7 1.7 0.5
v 1.7 1.9 0.5
v 1.7 2 0.5
v 1.8 1.8 0.5
v 1.8 1.9 0.5
v 1.9 1.6 0.5
v 1.9 1.8 0.5
v 2 1.5 0.5
v 2 1.6 0.5
v 2.1 1.5 0.5
v 2.1 1.6 0.5
v 2.2 2 0.5
v 2.2 2.1 0.5
v 2.5 1.6 0.5
v 2.5 1.7 0.5
v 2.7 1.7 0.5
v 2.7 2 0.5
v -1.1 1.6 0.4
v -1.1 2 0.4
v -1 2 0.4
v -1 2.1 0.4
v -0.9 1.6 0.4
v -0.9 1.9 0.4
v -0.8 1.3 0.4
v -0.8 1.4 0.4
v -0.8 1.5 0.4
v -0.5 1.9 0.4
v -0.5 2 0.4
v 0.4 2 0.4
v 0.4 2.1 0.4
v 1.3 1.5 0.4
v 1.6 1.5 0.4
v 1.7 1.5 0.4
v 2 1.5 0.4
v 2.1 1.5 0.4
v 2.1 1.6 0.4
v 2.2 2 0.4
v 2.2 2.1 0.4
v 2.5 1.6 0.4
v 2.5 1.7 0.4
v 2.6 1.3 0.4
v 2.6 1.4 0.4
v 2.7 1.7 0.4
v 2.7 2 0.4
v 2.7 2.1 0.4
v 2.8 1.4 0.4
v 2.8 1.6 0.4
v 2.8 2 0.4
v 2.9 1.6 0.4
v 2.9 2 0.4
v -3 1.7 0.3
v -3 2 0.3
v -2.7 1.7 0.3
v -2.7 2 0.3
v -2.6 1.7 0.3
v -2.6 2 0.3
v -2.2 1.7 0.3
v -2.2 2 0.3
v -2.1 1.7 0.3
v -2.1 2 0.3
v -1.7 1.7 0.3
v -1.7 2 0.3
v -1.6 1.7 0.3
v -1.6 2 0.3
v -1.3 1.7 0.3
v -1.3 2 0.3
v -1.2 1.7 0.3
v -1.2 2 0.3
v -1.1 1.7 0.3
v -1.1 2 0.3
v -1.1 2.1 0.3
v -1 2 0.3
v -1 2.1 0.3
v -1 2.2 0.3
v 2.7 2 0.3
v 2.7 2.1 0.3
v 2.7 2.2 0.3
v 2.8 1.5 0.3
v 2.8 1.6 0.3
v 2.8 2 0.3
v 2.8 2.1 0.3
v 2.9 1.5 0.3
v 2.9 1.6 0.3
v 2.9 2 0.3
v 2.9 2.1 0.3
v -3 1.6 0.2
v -3 1.7 0.2
v -3 2 0.2
v -3 2.1 0.2
v -2.7 1.6 0.2
v -2.7 1.7 0.2
v -2.7 2 0.2
v -2.7 2.1 0.2
v -2.6 1.6 0.2
v -2.6 1.7 0.2
v -2.6 2 0.2
v -2.6 2.1 0.2
v -2.2 1.6 0.2
v -2.2 1.7 0.2
v -2.2 2 0.2
v -2.2 2.1 0.2
v -2.1 1.6 0.2
v -2.1 1.7 0.2
v -2.1 2 0.2
v -2.1 2.1 0.2
v -1.7 1.6 0.2
v -1.7 1.7 0.2
v -1.7 2 0.2
v -1.7 2.1 0.2
v -1.6 1.6 0.2
v -1.6 1.7 0.2
v -1.6 2 0.2
v -1.6 2.1 0.2
v -1.3 1.6 0.2
v -1.3 1.7 0.2
v -1.3 2 0.2
v -1.3 2.1 0.2
v -1.2 1.6 0.2
v -1.2 1.7 0.2
v -1.2 2 0.2
v -1.2 2.1 0.2
v -1.1 1.6 0.2
v -1.1 1.7 0.2
v -1.1 2 0.2
v -1.1 2.1 0.2
v -1.1 2.2 0.2
v -1 2.1 0.2
v -1 2.2 0.2
v -1 2.3 0.2
v 2.6 1.7 0.2
v 2.6 1.8 0.2
v 2.7 1.7 0.2
v 2.7 1.8 0.2
v 2.7 2.1 0.2
v 2.7 2.2 0.2
v 2.7 2.3 0.2
v 2.8 1.4 0.2
v 2.8 1.5 0.2
v 2.8 2.1 0.2
v 2.8 2.2 0.2
v 2.9 1.4 0.2
v 2.9 1.5 0.2
v 2.9 2.1 0.2
v 2.9 2.2 0.2
v -3 1.5 0.1
v -3 1.6 0.1
v -3 2.1 0.1
v -3 2.2 0.1
v -2.9 1.7 0.1
v -2.9 1.9 0.1
v -2.9 2 0.1
v -2.8 1.7 0.1
v -2.8 1.9 0.1
v -2.8 2 0.1
v -2.7 1.6 0.1
v -2.7 1.7 0.1
v -2.7 2 0.1
v -2.7 2.1 0.1
v -2.6 1.6 0.1
v -2.6 1.7 0.1
v -2.6 2 0.1
v -2.6 2.1 0.1
v -2.2 1.6 0.1
v -2.2 1.7 0.1
v -2.2 2 0.1
v -2.2 2.1 0.1
v -2.1 1.6 0.1
v -2.1 1.7 0.1
v -2.1 2 0.1
v -2.1 2.1 0.1
v -1.7 1.6 0.1
v -1.7 1.7 0.1
v -1.7 2 0.1
v -1.7 2.1 0.1
v -1.6 1.6 0.1
v -1.6 1.7 0.1
v -1.6 2 0.1
v -1.6 2.1 0.1
v -1.3 1.6 0.1
v -1.3 1.7 0.1
v -1.3 2 0.1
v -1.3 2.1 0.1
v -1.2 1.6 0.1
v -1.2 1.7 0.1
v -1.2 2 0.1
v -1.2 2.1 0.1
v -1.1 1.5 0.1
v -1.1 1.6 0.1
v -1.1 1.7 0.1
v -1.1 2 0.1
v -1.1 2.1 0.1
v -1.1 2.2 0.1
v -0.7 1.7 0.1
v -0.7 2 0.1
v -0.0999999 1.6 0.1
v -0.0999999 1.8 0.1
v 0.2 1.6 0.1
v 0.2 1.8 0.1
v 0.3 1.6 0.1
v 0.3 1.8 0.1
v 0.4 1.6 0.1
v 0.4 1.8 0.1
v 0.5 1.6 0.1
v 0.5 1.8 0.1
v 0.6 1.6 0.1
v 0.6 1.8 0.1
v 0.7 1.6 0.1
v 0.7 1.8 0.1
v 0.8 1.6 0.1
v 0.8 1.8 0.1
v -3 1.7 -0.1
v -3 1.9 -0.1
v -2.9 1.6 -0.1
v -2.9 1.7 -0.1
v -2.9 1.9 -0.1
v -2.9 2 -0.1
v -2.9 2.1 -0.1
v -2.8 1.7 -0.1
v -2.8 2 -0.1
v -2.7 1.6 -0.1
v -2.7 1.7 -0.1
v -2.7 2 -0.1
v -2.7 2.1 -0.1
v -2.6 1.6 -0.1
v -2.6 1.7 -0.1
v -2.6 2 -0.1
v -2.6 2.1 -0.1
v -2.2 1.6 -0.1
v -2.2 1.7 -0.1
v -2.2 2 -0.1
v -2.2 2.1 -0.1
v -2.1 1.6 -0.1
v -2.1 1.7 -0.1
v -2.1 2 -0.1
v -2.1 2.1 -0.1
v -1.7 1.6 -0.1
v -1.7 1.7 -0.1
v -1.7 2 -0.1
v -1.7 2.1 -0.1
v -1.6 1.6 -0.1
v -1.6 1.7 -0.1
v -1.6 2 -0.1
v -1.6 2.1 -0.1
v -1.3 1.6 -0.1
v -1.3 1.7 -0.1
v -1.3 2 -0.1
v -1.3 2.1 -0.1
v -1.2 1.6 -0.1
v -1.2 1.7 -0.1
v -1.2 2 -0.1
v -1.2 2.1 -0.1
v -1.1 1.6 -0.1
v -1.1 1.7 -0.1
v -1.1 2 -0.1
v -1.1 2.1 -0.1
v -1 2 -0.1
v -1 2.1 -0.1
v -0.3 1.6 -0.1
v -0.3 1.7 -0.1
v -2.9 1.7 -0.2
v -2.9 2 -0.2
v -2.7 1.7 -0.2
v -2.7 2 -0.2
v -2.6 1.7 -0.2
v -2.6 2 -0.2
v -2.2 1.7 -0.2
v -2.2 2 -0.2
v -2.1 1.7 -0.2
v -2.1 2 -0.2
v -1.7 1.7 -0.2
v -1.7 2 -0.2
v -1.6 1.7 -0.2
v -1.6 2 -0.2
v -1.3 1.7 -0.2
v -1.3 2 -0.2
v -1.2 1.7 -0.2
v -1.2 2 -0.2
v -1.1 1.7 -0.2
v -1.1 2 -0.2
v -0.3 1.7 -0.2
v -0.3 2 -0.2
v -0.0999999 1.5 -0.2
v -0.0999999 1.6 -0.2
v -0.0999999 1.9 -0.2
v 0.2 1.5 -0.2
v 0.2 1.9 -0.2
v 0.7 1.5 -0.2
v 0.7 1.9 -0.2
v 0.8 1.5 -0.2
v 0.8 1.9 -0.2
v -1.1 1.1 -0.3
v -1.1 1.4 -0.3
v -1 1.3 -0.3
v -1 1.4 -0.3
v -0.9 1.1 -0.3
v -0.9 1.3 -0.3
v 0.2 1.5 -0.3
v 0.2 1.6 -0.3
v 0.7 1.5 -0.3
v 0.7 1.6 -0.3
v 2.6 1.1 -0.3
v 2.6 1.3 -0.3
v 2.6 1.7 -0.3
v 2.6 1.8 -0.3
v 2.7 1.7 -0.3
v 2.7 1.8 -0.3
v 2.8 1.1 -0.3
v 2.8 1.4 -0.3
v 2.9 1.1 -0.3
v 2.9 1.4 -0.3
v -0.9 1.1 -0.5
v -0.9 1.3 -0.5
v -0.8 1.1 -0.5
v -0.8 1.3 -0.5
v -1.1 0.4 -0.6
v -1.1 0.6 -0.6
v -1 0.4 -0.6
v -1 0.6 -0.6
v -1 1.1 -0.6
v -0.9 0.6 -0.6
v -0.9 1.1 -0.6
v 2.6 0.6 -0.6
v 2.6 1.1 -0.6
v 2.8 0.4 -0.6
v 2.8 1.1 -0.6
v 2.9 0.4 -0.6
v 2.9 1.1 -0.6
v -1.1 0.3 -0.7
v -1.1 0.4 -0.7
v -1.1 0.6 -0.7
v -1.1 1.1 -0.7
v -1 0.3 -0.7
v -1 0.4 -0.7
v -1 0.6 -0.7
v -1 1.1 -0.7
v -0.9 0.6 -0.7
v -0.9 1.1 -0.7
v -0.8 0.6 -0.7
v -0.8 1.1 -0.7
v 2.8 0.3 -0.7
v 2.8 0.4 -0.7
v 2.9 0.3 -0.7
v 2.9 0.4 -0.7
v -1.1 0 -1.2
v -1.1 0.3 -1.2
v -1 0 -1.2
v -1 0.3 -1.2
v 2.8 0 -1.2
v 2.8 0.3 -1.2
v 2.9 0 -1.2
v 2.9 0.3 -1.2
v -1.1 0 1.2
v -1.1 0.3 1.2
v -1 0 1.2
v -1 0.3 1.2
v 2.8 0 1.2
v 2.8 0.3 1.2
v 2.9 0 1.2
v 2.9 0.3 1.2
v -1.1 0.3 0.7
v -1.1 0.4 0.7
v -1.1 0.6 0.7
v -1.1 1.1 0.7
v -1 0.3 0.7
v -1 0.4 0.7
v -1 0.6 0.7
v -1 1.1 0.7
v -0.9 0.6 0.7
v -0.9 1.1 0.7
v -0.8 0.6 0.7
v -0.8 1.1 0.7
v 2.8 0.3 0.7
v 2.8 0.4 0.7
v 2.9 0.3 0.7
v 2.9 0.4 0.7
v -1.1 0.4 0.6
v -1.1 0.6 0.6
v -1 0.4 0.6
v -1 0.6 0.6
v -1 1.1 0.6
v -0.9 0.6 0.6
v -0.9 1.1 0.6
v 2.6 0.6 0.6
v 2.6 1.1 0.6
v 2.8 0.4 0.6
v 2.8 1.1 0.6
v 2.9 0.4 0.6
v 2.9 1.1 0.6
v -0.9 1.1 0.5
v -0.9 1.3 0.5
v -0.8 1.1 0.5
v -0.8 1.3 0.5
v -1.1 1.1 0.3
v -1.1 1.4 0.3
v -1 1.3 0.3
v -1 1.4 0.3
v -0.9 1.1 0.3
v -0.9 1.3 0.3
v 0.2 1.5 0.3
v 0.2 1.6 0.3
v 0.7 1.5 0.3
v 0.7 1.6 0.3
v 2.6 1.1 0.3
v 2.6 1.3 0.3
v 2.6 1.7 0.3
v 2.6 1.8 0.3
v 2.7 1.7 0.3
v 2.7 1.8 0.3
v 2.8 1.1 0.3
v 2.8 1.4 0.3
v 2.9 1.1 0.3
v 2.9 1.4 0.3
v -2.9 1.7 0.2
v -2.9 2 0.2
v -2.7 1.7 0.2
v -2.7 2 0.2
v -2.6 1.7 0.2
v -2.6 2 0.2
v -2.2 1.7 0.2
v -2.2 2 0.2
v -2.1 1.7 0.2
v -2.1 2 0.2
v -1.7 1.7 0.2
v -1.7 2 0.2
v -1.6 1.7 0.2
v -1.6 2 0.2
v -1.3 1.7 0.2
v -1.3 2 0.2
v -1.2 1.7 0.2
v -1.2 2 0.2
v -1.1 1.7 0.2
v -1.1 2 0.2
v -0.7 1.7 0.2
v -0.7 2 0.2
v -0.0999999 1.5 0.2
v -0.0999999 1.6 0.2
v -0.0999999 1.9 0.2
v 0.2 1.5 0.2
v 0.2 1.9 0.2
v 0.7 1.5 0.2
v 0.7 1.9 0.2
v 0.8 1.5 0.2
v 0.8 1.9 0.2
v -3 1.7 0.1
v -3 1.9 0.1
v -2.9 1.6 0.1
v -2.9 1.7 0.1
v -2.9 1.9 0.1
v -2.9 2 0.1
v -2.9 2.1 0.1
v -2.8 1.7 0.1
v -2.8 2 0.1
v -2.7 1.6 0.1
v -2.7 1.7 0.1
v -2.7 2 0.1
v -2.7 2.1 0.1
v -2.6 1.6 0.1
v -2.6 1.7 0.1
v -2.6 2 0.1
v -2.6 2.1 0.1
v -2.2 1.6 0.1
v -2.2 1.7 0.1
v -2.2 2 0.1
v -2.2 2.1 0.1
v -2.1 1.6 0.1
v -2.1 1.7 0.1
v -2.1 2 0.1
v -2.1 2.1 0.1
v -1.7 1.6 0.1
v -1.7 1.7 0.1
v -1.7 2 0.1
v -1.7 2.1 0.1
v -1.6 1.6 0.1
v -1.6 1.7 0.1
v -1.6 2 0.1
v -1.6 2.1 0.1
v -1.3 1.6 0.1
v -1.3 1.7 0.1
v -1.3 2 0.1
v -1.3 2.1 0.1
v -1.2 1.6 0.1
v -1.2 1.7 0.1
v -1.2 2 0.1
v -1.2 2.1 0.1
v -1.1 1.6 0.1
v -1.1 1.7 0.1
v -1.1 2 0.1
v -1.1 2.1 0.1
v -1 2 0.1
v -1 2.1 0.1
v -0.3 1.6 0.1
v -0.3 1.7 0.1
v -3 1.5 -0.1
v -3 1.6 -0.1
v -3 2.1 -0.1
v -3 2.2 -0.1
v -2.9 1.7 -0.1
v -2.9 1.9 -0.1
v -2.9 2 -0.1
v -2.8 1.7 -0.1
v -2.8 1.9 -0.1
v -2.8 2 -0.1
v -2.7 1.6 -0.1
v -2.7 1.7 -0.1
v -2.7 2 -0.1
v -2.7 2.1 -0.1
v -2.6 1.6 -0.1
v -2.6 1.7 -0.1
v -2.6 2 -0.1
v -2.6 2.1 -0.1
v -2.2 1.6 -0.1
v -2.2 1.7 -0.1
v -2.2 2 -0.1
v -2.2 2.1 -0.1
v -2.1 1.6 -0.1
v -2.1 1.7 -0.1
v -2.1 2 -0.1
v -2.1 2.1 -0.1
v -1.7 1.6 -0.1
v -1.7 1.7 -0.1
v -1.7 2 -0.1
v -1.7 2.1 -0.1
v -1.6 1.6 -0.1
v -1.6 1.7 -0.1
v -1.6 2 -0.1
v -1.6 2.1 -0.1
v -1.3 1.6 -0.1
v -1.3 1.7 -0.1
v -1.3 2 -0.1
v -1.3 2.1 -0.1
v -1.2 1.6 -0.1
v -1.2 1.7 -0.1
v -1.2 2 -0.1
v -1.2 2.1 -0.1
v -1.1 1.5 -0.1
v -1.1 1.6 -0.1
v -1.1 1.7 -0.1
v -1.1 2 -0.1
v -1.1 2.1 -0.1
v -1.1 2.2 -0.1
v -0.3 1.7 -0.1
v -0.3 2 -0.1
v -0.0999999 1.6 -0.1
v -0.0999999 1.8 -0.1
v 0.2 1.6 -0.1
v 0.2 1.8 -0.1
v 0.3 1.6 -0.1
v 0.3 1.8 -0.1
v 0.4 1.6 -0.1
v 0.4 1.8 -0.1
v 0.5 1.6 -0.1
v 0.5 1.8 -0.1
v 0.6 1.6 -0.1
v 0.6 1.8 -0.1
v 0.7 1.6 -0.1
v 0.7 1.8 -0.1
v 0.8 1.6 -0.1
v 0.8 1.8 -0.1
v -3 1.6 -0.2
v -3 1.7 -0.2
v -3 2 -0.2
v -3 2.1 -0.2
v -2.7 1.6 -0.2
v -2.7 1.7 -0.2
v -2.7 2 -0.2
v -2.7 2.1 -0.2
v -2.6 1.6 -0.2
v -2.6 1.7 -0.2
v -2.6 2 -0.2
v -2.6 2.1 -0.2
v -2.2 1.6 -0.2
v -2.2 1.7 -0.2
v -2.2 2 -0.2
v -2.2 2.1 -0.2
v -2.1 1.6 -0.2
v -2.1 1.7 -0.2
v -2.1 2 -0.2
v -2.1 2.1 -0.2
v -1.7 1.6 -0.2
v -1.7 1.7 -0.2
v -1.7 2 -0.2
v -1.7 2.1 -0.2
v -1.6 1.6 -0.2
v -1.6 1.7 -0.2
v -1.6 2 -0.2
v -1.6 2.1 -0.2
v -1.3 1.6 -0.2
v -1.3 1.7 -0.2
v -1.3 2 -0.2
v -1.3 2.1 -0.2
v -1.2 1.6 -0.2
v -1.2 1.7 -0.2
v -1.2 2 -0.2
v -1.2 2.1 -0.2
v -1.1 1.6 -0.2
v -1.1 1.7 -0.2
v -1.1 2 -0.2
v -1.1 2.1 -0.2
v -1.1 2.2 -0.2
v -1 2.1 -0.2
v -1 2.2 -0.2
v -1 2.3 -0.2
v 2.6 1.7 -0.2
v 2.6 1.8 -0.2
v 2.7 1.7 -0.2
v 2.7 1.8 -0.2
v 2.7 2.1 -0.2
v 2.7 2.2 -0.2
v 2.7 2.3 -0.2
v 2.8 1.4 -0.2
v 2.8 1.5 -0.2
v 2.8 2.1 -0.2
v 2.8 2.2 -0.2
v 2.9 1.4 -0.2
v 2.9 1.5 -0.2
v 2.9 2.1 -0.2
v 2.9 2.2 -0.2
v -3 1.7 -0.3
v -3 2 -0.3
v -2.7 1.7 -0.3
v -2.7 2 -0.3
v -2.6 1.7 -0.3
v -2.6 2 -0.3
v -2.2 1.7 -0.3
v -2.2 2 -0.3
v -2.1 1.7 -0.3
v -2.1 2 -0.3
v -1.7 1.7 -0.3
v -1.7 2 -0.3
v -1.6 1.7 -0.3
v -1.6 2 -0.3
v -1.3 1.7 -0.3
v -1.3 2 -0.3
v -1.2 1.7 -0.3
v -1.2 2 -0.3
v -1.1 1.7 -0.3
v -1.1 2 -0.3
v -1.1 2.1 -0.3
v -1 2 -0.3
v -1 2.1 -0.3
v -1 2.2 -0.3
v 2.7 2 -0.3
v 2.7 2.1 -0.3
v 2.7 2.2 -0.3
v 2.8 1.5 -0.3
v 2.8 1.6 -0.3
v 2.8 2 -0.3
v 2.8 2.1 -0.3
v 2.9 1.5 -0.3
v 2.9 1.6 -0.3
v 2.9 2 -0.3
v 2.9 2.1 -0.3
v -1.1 1.6 -0.4
v -1.1 2 -0.4
v -1 2 -0.4
v -1 2.1 -0.4
v -0.9 1.6 -0.4
v -0.9 1.9 -0.4
v -0.8 1.3 -0.4
v -0.8 1.4 -0.4
v -0.8 1.5 -0.4
v -0.5 1.9 -0.4
v -0.5 2 -0.4
v 0.4 2 -0.4
v 0.4 2.1 -0.4
v 1.3 1.5 -0.4
v 1.6 1.5 -0.4
v 1.7 1.5 -0.4
v 2 1.5 -0.4
v 2.1 1.5 -0.4
v 2.1 1.6 -0.4
v 2.2 2 -0.4
v 2.2 2.1 -0.4
v 2.5 1.6 -0.4
v 2.5 1.7 -0.4
v 2.6 1.3 -0.4
v 2.6 1.4 -0.4
v 2.7 1.7 -0.4
v 2.7 2 -0.4
v 2.7 2.1 -0.4
v 2.8 1.4 -0.4
v 2.8 1.6 -0.4
v 2.8 2 -0.4
v 2.9 1.6 -0.4
v 2.9 2 -0.4
v -1.1 1.4 -0.5
v -1.1 1.6 -0.5
v -0.9 1.6 -0.5
v -0.9 1.9 -0.5
v -0.8 1.4 -0.5
v -0.8 1.5 -0.5
v -0.5 1.9 -0.5
v -0.5 2 -0.5
v 0.2 1.6 -0.5
v 0.2 1.9 -0.5
v 0.4 2 -0.5
v 0.4 2.1 -0.5
v 0.7 1.6 -0.5
v 0.7 1.9 -0.5
v 1.3 1.5 -0.5
v 1.3 1.6 -0.5
v 1.4 1.6 -0.5
v 1.4 1.8 -0.5
v 1.5 1.8 -0.5
v 1.5 1.9 -0.5
v 1.6 1.5 -0.5
v 1.6 1.6 -0.5
v 1.6 1.7 -0.5
v 1.6 1.9 -0.5
v 1.6 2 -0.5
v 1.7 1.5 -0.5
v 1.7 1.6 -0.5
v 1.7 1.7 -0.5
v 1.7 1.9 -0.5
v 1.7 2 -0.5
v 1.8 1.8 -0.5
v 1.8 1.9 -0.5
v 1.9 1.6 -0.5
v 1.9 1.8 -0.5
v 2 1.5 -0.5
v 2 1.6 -0.5
v 2.1 1.5 -0.5
v 2.1 1.6 -0.5
v 2.2 2 -0.5
v 2.2 2.1 -0.5
v 2.5 1.6 -0.5
v 2.5 1.7 -0.5
v 2.7 1.7 -0.5
v 2.7 2 -0.5
v -1.1 0.6 -0.8
v -1.1 1.4 -0.8
v -1 0.6 -0.8
v -1 1.3 -0.8
v -0.8 1.3 -0.8
v -0.8 1.4 -0.8
v -1 0.6 -0.9
v -1 1.3 -0.9
v -0.8 0.6 -0.9
v -0.8 1.3 -0.9
v 2.6 0.6 -0.9
v 2.6 1.4 -0.9
v 2.8 0.6 -0.9
v 2.8 1.4 -0.9
v 2.9 0.6 -0.9
v 2.9 1.4 -0.9
v -1.1 0.5 -1.2
v -1.1 0.6 -1.2
v -1 0.5 -1.2
v -1 0.6 -1.2
v 2.8 0.5 -1.2
v 2.8 0.6 -1.2
v 2.9 0.5 -1.2
v 2.9 0.6 -1.2
v -1.1 0.4 -1.3
v -1.1 0.5 -1.3
v -1 0.4 -1.3
v -1 0.5 -1.3
v 2.8 0.4 -1.3
v 2.8 0.5 -1.3
v 2.9 0.4 -1.3
v 2.9 0.5 -1.3
v -1.1 0 -1.5
v -1.1 0.4 -1.5
v 2.9 0 -1.5
v 2.9 0.4 -1.5
v -1.1 0 1.5
v 2.9 0 1.5
v -1 0 1.4
v 2.8 0 1.4
v -1.1 0 1.2
v -1 0 1.2
v 2.8 0 1.2
v 2.9 0 1.2
v -1.1 0 -1.2
v -1 0 -1.2
v 2.8 0 -1.2
v 2.9 0 -1.2
v -1 0 -1.4
v 2.8 0 -1.4
v -1.1 0 -1.5
v 2.9 0 -1.5
v -1.1 0.3 1.2
v -1 0.3 1.2
v 2.8 0.3 1.2
v 2.9 0.3 1.2
v -1.1 0.3 0.7
v -1 0.3 0.7
v 2.8 0.3 0.7
v 2.9 0.3 0.7
v -1.1 0.3 -0.7
v -1 0.3 -0.7
v 2.8 0.3 -0.7
v 2.9 0.3 -0.7
v -1.1 0.3 -1.2
v -1 0.3 -1.2
v 2.8 0.3 -1.2
v 2.9 0.3 -1.2
v -1.1 0.4 0.7
v -1 0.4 0.7
v 2.8 0.4 0.7
v 2.9 0.4 0.7
v -1.1 0.4 0.6
v -1 0.4 0.6
v 2.8 0.4 0.6
v 2.9 0.4 0.6
v -1.1 0.4 -0.6
v -1 0.4 -0.6
v 2.8 0.4 -0.6
v 2.9 0.4 -0.6
v -1.1 0.4 -0.7
v -1 0.4 -0.7
v 2.8 0.4 -0.7
v 2.9 0.4 -0.7
v -1.1 1.1 0.7
v -1 1.1 0.7
v -0.9 1.1 0.7
v -0.8 1.1 0.7
v -1 1.1 0.6
v -0.9 1.1 0.6
v 2.6 1.1 0.6
v 2.8 1.1 0.6
v 2.9 1.1 0.6
v -0.9 1.1 0.5
v -0.8 1.1 0.5
v -1.1 1.1 0.3
v -0.9 1.1 0.3
v 2.6 1.1 0.3
v 2.8 1.1 0.3
v 2.9 1.1 0.3
v -1.1 1.1 -0.3
v -0.9 1.1 -0.3
v 2.6 1.1 -0.3
v 2.8 1.1 -0.3
v 2.9 1.1 -0.3
v -0.9 1.1 -0.5
v -0.8 1.1 -0.5
v -1 1.1 -0.6
v -0.9 1.1 -0.6
v 2.6 1.1 -0.6
v 2.8 1.1 -0.6
v 2.9 1.1 -0.6
v -1.1 1.1 -0.7
v -1 1.1 -0.7
v -0.9 1.1 -0.7
v -0.8 1.1 -0.7
v -0.9 1.3 0.5
v -0.8 1.3 0.5
v -0.9 1.3 0.4
v -0.8 1.3 0.4
v 2.6 1.3 0.4
v -0.9 1.3 0.3
v 2.6 1.3 0.3
v -0.9 1.3 -0.3
v 2.6 1.3 -0.3
v -0.9 1.3 -0.4
v -0.8 1.3 -0.4
v 2.6 1.3 -0.4
v -0.9 1.3 -0.5
v -0.8 1.3 -0.5
v -1.1 1.4 0.3
v -1 1.4 0.3
v 2.8 1.4 0.3
v 2.8 1.4 0.2
v 2.9 1.4 0.2
v 2.8 1.4 -0.2
v 2.9 1.4 -0.2
v -1.1 1.4 -0.3
v -1 1.4 -0.3
v 2.8 1.4 -0.3
v -0.8 1.5 0.5
v 1.3 1.5 0.5
v 1.6 1.5 0.5
v 1.7 1.5 0.5
v 2 1.5 0.5
v 2.1 1.5 0.5
v -0.8 1.5 0.4
v 1.3 1.5 0.4
v 1.6 1.5 0.4
v 1.7 1.5 0.4
v 2 1.5 0.4
v 2.1 1.5 0.4
v 2.8 1.5 0.3
v 2.9 1.5 0.3
v 2.8 1.5 0.2
v 2.9 1.5 0.2
v -3 1.5 0.1
v -1.1 1.5 0.1
v -3 1.5 -0.1
v -1.1 1.5 -0.1
v 2.8 1.5 -0.2
v 2.9 1.5 -0.2
v 2.8 1.5 -0.3
v 2.9 1.5 -0.3
v -0.8 1.5 -0.4
v 1.3 1.5 -0.4
v 1.6 1.5 -0.4
v 1.7 1.5 -0.4
v 2 1.5 -0.4
v 2.1 1.5 -0.4
v -0.8 1.5 -0.5
v 1.3 1.5 -0.5
v 1.6 1.5 -0.5
v 1.7 1.5 -0.5
v 2 1.5 -0.5
v 2.1 1.5 -0.5
v 2.1 1.6 0.5
v 2.5 1.6 0.5
v 2.1 1.6 0.4
v 2.5 1.6 0.4
v 2.8 1.6 0.4
v 2.9 1.6 0.4
v 2.8 1.6 0.3
v 2.9 1.6 0.3
v -3 1.6 0.2
v -2.7 1.6 0.2
v -2.6 1.6 0.2
v -2.2 1.6 0.2
v -2.1 1.6 0.2
v -1.7 1.6 0.2
v -1.6 1.6 0.2
v -1.3 1.6 0.2
v -1.2 1.6 0.2
v -1.1 1.6 0.2
v -3 1.6 0.1
v -2.7 1.6 0.1
v -2.6 1.6 0.1
v -2.2 1.6 0.1
v -2.1 1.6 0.1
v -1.7 1.6 0.1
v -1.6 1.6 0.1
v -1.3 1.6 0.1
v -1.2 1.6 0.1
v -1.1 1.6 0.1
v -0.0999999 1.6 0.1
v 0.2 1.6 0.1
v 0.3 1.6 0.1
v 0.4 1.6 0.1
v 0.5 1.6 0.1
v 0.6 1.6 0.1
v 0.7 1.6 0.1
v 0.8 1.6 0.1
v -3 1.6 -0.1
v -2.7 1.6 -0.1
v -2.6 1.6 -0.1
v -2.2 1.6 -0.1
v -2.1 1.6 -0.1
v -1.7 1.6 -0.1
v -1.6 1.6 -0.1
v -1.3 1.6 -0.1
v -1.2 1.6 -0.1
v -1.1 1.6 -0.1
v -0.0999999 1.6 -0.1
v 0.2 1.6 -0.1
v 0.3 1.6 -0.1
v 0.4 1.6 -0.1
v 0.5 1.6 -0.1
v 0.6 1.6 -0.1
v 0.7 1.6 -0.1
v 0.8 1.6 -0.1
v -3 1.6 -0.2
v -2.7 1.6 -0.2
v -2.6 1.6 -0.2
v -2.2 1.6 -0.2
v -2.1 1.6 -0.2
v -1.7 1.6 -0.2
v -1.6 1.6 -0.2
v -1.3 1.6 -0.2
v -1.2 1.6 -0.2
v -1.1 1.6 -0.2
v 2.8 1.6 -0.3
v 2.9 1.6 -0.3
v 2.1 1.6 -0.4
v 2.5 1.6 -0.4
v 2.8 1.6 -0.4
v 2.9 1.6 -0.4
v 2.1 1.6 -0.5
v 2.5 1.6 -0.5
v 2.5 1.7 0.5
v 2.7 1.7 0.5
v 2.5 1.7 0.4
v 2.7 1.7 0.4
v -3 1.7 0.3
v -2.7 1.7 0.3
v -2.6 1.7 0.3
v -2.2 1.7 0.3
v -2.1 1.7 0.3
v -1.7 1.7 0.3
v -1.6 1.7 0.3
v -1.3 1.7 0.3
v -1.2 1.7 0.3
v -1.1 1.7 0.3
v -3 1.7 0.2
v -2.7 1.7 0.2
v -2.6 1.7 0.2
v -2.2 1.7 0.2
v -2.1 1.7 0.2
v -1.7 1.7 0.2
v -1.6 1.7 0.2
v -1.3 1.7 0.2
v -1.2 1.7 0.2
v -1.1 1.7 0.2
v -2.9 1.7 0.1
v -2.8 1.7 0.1
v -2.7 1.7 0.1
v -2.6 1.7 0.1
v -2.2 1.7 0.1
v -2.1 1.7 0.1
v -1.7 1.7 0.1
v -1.6 1.7 0.1
v -1.3 1.7 0.1
v -1.2 1.7 0.1
v -1.1 1.7 0.1
v -0.3 1.7 0.1
v -2.9 1.7 -0.1
v -2.8 1.7 -0.1
v -2.7 1.7 -0.1
v -2.6 1.7 -0.1
v -2.2 1.7 -0.1
v -2.1 1.7 -0.1
v -1.7 1.7 -0.1
v -1.6 1.7 -0.1
v -1.3 1.7 -0.1
v -1.2 1.7 -0.1
v -1.1 1.7 -0.1
v -0.3 1.7 -0.1
v -3 1.7 -0.2
v -2.7 1.7 -0.2
v -2.6 1.7 -0.2
v -2.2 1.7 -0.2
v -2.1 1.7 -0.2
v -1.7 1.7 -0.2
v -1.6 1.7 -0.2
v -1.3 1.7 -0.2
v -1.2 1.7 -0.2
v -1.1 1.7 -0.2
v -3 1.7 -0.3
v -2.7 1.7 -0.3
v -2.6 1.7 -0.3
v -2.2 1.7 -0.3
v -2.1 1.7 -0.3
v -1.7 1.7 -0.3
v -1.6 1.7 -0.3
v -1.3 1.7 -0.3
v -1.2 1.7 -0.3
v -1.1 1.7 -0.3
v 2.5 1.7 -0.4
v 2.7 1.7 -0.4
v 2.5 1.7 -0.5
v 2.7 1.7 -0.5
v 2.6 1.8 0.3
v 2.7 1.8 0.3
v 2.6 1.8 0.2
v 2.7 1.8 0.2
v 2.6 1.8 -0.2
v 2.7 1.8 -0.2
v 2.6 1.8 -0.3
v 2.7 1.8 -0.3
v 0.2 1.9 0.5
v 0.7 1.9 0.5
v -0.0999999 1.9 0.2
v 0.2 1.9 0.2
v 0.7 1.9 0.2
v 0.8 1.9 0.2
v -3 1.9 0.1
v -2.9 1.9 0.1
v -3 1.9 -0.1
v -2.9 1.9 -0.1
v -0.0999999 1.9 -0.2
v 0.2 1.9 -0.2
v 0.7 1.9 -0.2
v 0.8 1.9 -0.2
v 0.2 1.9 -0.5
v 0.7 1.9 -0.5
v -2.9 2 0.2
v -2.7 2 0.2
v -2.6 2 0.2
v -2.2 2 0.2
v -2.1 2 0.2
v -1.7 2 0.2
v -1.6 2 0.2
v -1.3 2 0.2
v -1.2 2 0.2
v -1.1 2 0.2
v -0.7 2 0.2
v -2.9 2 0.1
v -2.8 2 0.1
v -2.7 2 0.1
v -2.6 2 0.1
v -2.2 2 0.1
v -2.1 2 0.1
v -1.7 2 0.1
v -1.6 2 0.1
v -1.3 2 0.1
v -1.2 2 0.1
v -1.1 2 0.1
v -0.7 2 0.1
v -2.9 2 -0.1
v -2.8 2 -0.1
v -2.7 2 -0.1
v -2.6 2 -0.1
v -2.2 2 -0.1
v -2.1 2 -0.1
v -1.7 2 -0.1
v -1.6 2 -0.1
v -1.3 2 -0.1
v -1.2 2 -0.1
v -1.1 2 -0.1
v -0.3 2 -0.1
v -2.9 2 -0.2
v -2.7 2 -0.2
v -2.6 2 -0.2
v -2.2 2 -0.2
v -2.1 2 -0.2
v -1.7 2 -0.2
v -1.6 2 -0.2
v -1.3 2 -0.2
v -1.2 2 -0.2
v -1.1 2 -0.2
v -0.3 2 -0.2
v -2.9 2.1 0.1
v -2.7 2.1 0.1
v -2.6 2.1 0.1
v -2.2 2.1 0.1
v -2.1 2.1 0.1
v -1.7 2.1 0.1
v -1.6 2.1 0.1
v -1.3 2.1 0.1
v -1.2 2.1 0.1
v -1.1 2.1 0.1
v -1 2.1 0.1
v -2.9 2.1 -0.1
v -2.7 2.1 -0.1
v -2.6 2.1 -0.1
v -2.2 2.1 -0.1
v -2.1 2.1 -0.1
v -1.7 2.1 -0.1
v -1.6 2.1 -0.1
v -1.3 2.1 -0.1
v -1.2 2.1 -0.1
v -1.1 2.1 -0.1
v -1 2.1 -0.1
v -1.1 0.4 1.5
v 2.9 0.4 1.5
v -1 0.4 1.4
v 2.8 0.4 1.4
v -1.1 0.4 1.3
v -1 0.4 1.3
v 2.8 0.4 1.3
v 2.9 0.4 1.3
v -1.1 0.4 -1.3
v -1 0.4 -1.3
v 2.8 0.4 -1.3
v 2.9 0.4 -1.3
v -1 0.4 -1.4
v 2.8 0.4 -1.4
v -1.1 0.4 -1.5
v 2.9 0.4 -1.5
v -1.1 0.5 -1.2
v -1 0.5 -1.2
v 2.8 0.5 -1.2
v 2.9 0.5 -1.2
v -1.1 0.5 -1.3
v -1 0.5 -1.3
v 2.8 0.5 -1.3
v 2.9 0.5 -1.3
v -1.1 0.6 1.3
v 2.8 0.6 1.3
v 2.9 0.6 1.3
v -1.1 0.6 1.2
v -1 0.6 1.2
v -1 0.6 0.9
v -0.8 0.6 0.9
v 2.6 0.6 0.9
v 2.8 0.6 0.9
v 2.9 0.6 0.9
v -1.1 0.6 0.8
v -1 0.6 0.8
v -1.1 0.6 0.7
v -1 0.6 0.7
v -0.9 0.6 0.7
v -0.8 0.6 0.7
v -1.1 0.6 0.6
v -1 0.6 0.6
v -0.9 0.6 0.6
v 2.6 0.6 0.6
v -1.1 0.6 -0.6
v -1 0.6 -0.6
v -0.9 0.6 -0.6
v 2.6 0.6 -0.6
v -1.1 0.6 -0.7
v -1 0.6 -0.7
v -0.9 0.6 -0.7
v -0.8 0.6 -0.7
v -1.1 0.6 -0.8
v -1 0.6 -0.8
v -1 0.6 -0.9
v -0.8 0.6 -0.9
v 2.6 0.6 -0.9
v 2.8 0.6 -0.9
v 2.9 0.6 -0.9
v -1.1 0.6 -1.2
v -1 0.6 -1.2
v 2.8 0.6 -1.2
v 2.9 0.6 -1.2
v -1 1.3 0.9
v -0.8 1.3 0.9
v -1 1.3 0.8
v -0.8 1.3 0.8
v -1 1.3 -0.8
v -0.8 1.3 -0.8
v -1 1.3 -0.9
v -0.8 1.3 -0.9
v 2.6 1.4 0.9
v 2.8 1.4 0.9
v 2.9 1.4 0.9
v -1.1 1.4 0.8
v -0.8 1.4 0.8
v -1.1 1.4 0.5
v -0.8 1.4 0.5
v 2.6 1.4 0.4
v 2.8 1.4 0.4
v 2.8 1.4 0.3
v 2.9 1.4 0.3
v 2.8 1.4 -0.3
v 2.9 1.4 -0.3
v 2.6 1.4 -0.4
v 2.8 1.4 -0.4
v -1.1 1.4 -0.5
v -0.8 1.4 -0.5
v -1.1 1.4 -0.8
v -0.8 1.4 -0.8
v 2.6 1.4 -0.9
v 2.8 1.4 -0.9
v 2.9 1.4 -0.9
v 0.2 1.5 0.3
v 0.7 1.5 0.3
v -0.0999999 1.5 0.2
v 0.2 1.5 0.2
v 0.7 1.5 0.2
v 0.8 1.5 0.2
v -0.0999999 1.5 -0.2
v 0.2 1.5 -0.2
v 0.7 1.5 -0.2
v 0.8 1.5 -0.2
v 0.2 1.5 -0.3
v 0.7 1.5 -0.3
v -1.1 1.6 0.5
v -0.9 1.6 0.5
v 0.2 1.6 0.5
v 0.7 1.6 0.5
v -1.1 1.6 0.4
v -0.9 1.6 0.4
v 0.2 1.6 0.3
v 0.7 1.6 0.3
v -2.9 1.6 0.1
v -2.7 1.6 0.1
v -2.6 1.6 0.1
v -2.2 1.6 0.1
v -2.1 1.6 0.1
v -1.7 1.6 0.1
v -1.6 1.6 0.1
v -1.3 1.6 0.1
v -1.2 1.6 0.1
v -1.1 1.6 0.1
v -0.3 1.6 0.1
v -2.9 1.6 -0.1
v -2.7 1.6 -0.1
v -2.6 1.6 -0.1
v -2.2 1.6 -0.1
v -2.1 1.6 -0.1
v -1.7 1.6 -0.1
v -1.6 1.6 -0.1
v -1.3 1.6 -0.1
v -1.2 1.6 -0.1
v -1.1 1.6 -0.1
v -0.3 1.6 -0.1
v 0.2 1.6 -0.3
v 0.7 1.6 -0.3
v -1.1 1.6 -0.4
v -0.9 1.6 -0.4
v -1.1 1.6 -0.5
v -0.9 1.6 -0.5
v 0.2 1.6 -0.5
v 0.7 1.6 -0.5
v 2.6 1.7 0.3
v 2.7 1.7 0.3
v -2.9 1.7 0.2
v -2.7 1.7 0.2
v -2.6 1.7 0.2
v -2.2 1.7 0.2
v -2.1 1.7 0.2
v -1.7 1.7 0.2
v -1.6 1.7 0.2
v -1.3 1.7 0.2
v -1.2 1.7 0.2
v -1.1 1.7 0.2
v -0.7 1.7 0.2
v 2.6 1.7 0.2
v 2.7 1.7 0.2
v -3 1.7 0.1
v -2.9 1.7 0.1
v -2.8 1.7 0.1
v -2.7 1.7 0.1
v -2.6 1.7 0.1
v -2.2 1.7 0.1
v -2.1 1.7 0.1
v -1.7 1.7 0.1
v -1.6 1.7 0.1
v -1.3 1.7 0.1
v -1.2 1.7 0.1
v -1.1 1.7 0.1
v -0.7 1.7 0.1
v -3 1.7 -0.1
v -2.9 1.7 -0.1
v -2.8 1.7 -0.1
v -2.7 1.7 -0.1
v -2.6 1.7 -0.1
v -2.2 1.7 -0.1
v -2.1 1.7 -0.1
v -1.7 1.7 -0.1
v -1.6 1.7 -0.1
v -1.3 1.7 -0.1
v -1.2 1.7 -0.1
v -1.1 1.7 -0.1
v -0.3 1.7 -0.1
v -2.9 1.7 -0.2
v -2.7 1.7 -0.2
v -2.6 1.7 -0.2
v -2.2 1.7 -0.2
v -2.1 1.7 -0.2
v -1.7 1.7 -0.2
v -1.6 1.7 -0.2
v -1.3 1.7 -0.2
v -1.2 1.7 -0.2
v -1.1 1.7 -0.2
v -0.3 1.7 -0.2
v 2.6 1.7 -0.2
v 2.7 1.7 -0.2
v 2.6 1.7 -0.3
v 2.7 1.7 -0.3
v -0.0999999 1.8 0.1
v 0.2 1.8 0.1
v 0.3 1.8 0.1
v 0.4 1.8 0.1
v 0.5 1.8 0.1
v 0.6 1.8 0.1
v 0.7 1.8 0.1
v 0.8 1.8 0.1
v -0.0999999 1.8 -0.1
v 0.2 1.8 -0.1
v 0.3 1.8 -0.1
v 0.4 1.8 -0.1
v 0.5 1.8 -0.1
v 0.6 1.8 -0.1
v 0.7 1.8 -0.1
v 0.8 1.8 -0.1
v -0.9 1.9 0.5
v -0.5 1.9 0.5
v -0.9 1.9 0.4
v -0.5 1.9 0.4
v -0.9 1.9 -0.4
v -0.5 1.9 -0.4
v -0.9 1.9 -0.5
v -0.5 1.9 -0.5
v -0.5 2 0.5
v 0.4 2 0.5
v 2.2 2 0.5
v 2.7 2 0.5
v -1.1 2 0.4
v -1 2 0.4
v -0.5 2 0.4
v 0.4 2 0.4
v 2.2 2 0.4
v 2.7 2 0.4
v 2.8 2 0.4
v 2.9 2 0.4
v -3 2 0.3
v -2.7 2 0.3
v -2.6 2 0.3
v -2.2 2 0.3
v -2.1 2 0.3
v -1.7 2 0.3
v -1.6 2 0.3
v -1.3 2 0.3
v -1.2 2 0.3
v -1.1 2 0.3
v -1 2 0.3
v 2.7 2 0.3
v 2.8 2 0.3
v 2.9 2 0.3
v -3 2 0.2
v -2.7 2 0.2
v -2.6 2 0.2
v -2.2 2 0.2
v -2.1 2 0.2
v -1.7 2 0.2
v -1.6 2 0.2
v -1.3 2 0.2
v -1.2 2 0.2
v -1.1 2 0.2
v -2.9 2 0.1
v -2.8 2 0.1
v -2.7 2 0.1
v -2.6 2 0.1
v -2.2 2 0.1
v -2.1 2 0.1
v -1.7 2 0.1
v -1.6 2 0.1
v -1.3 2 0.1
v -1.2 2 0.1
v -1.1 2 0.1
v -1 2 0.1
v -2.9 2 -0.1
v -2.8 2 -0.1
v -2.7 2 -0.1
v -2.6 2 -0.1
v -2.2 2 -0.1
v -2.1 2 -0.1
v -1.7 2 -0.1
v -1.6 2 -0.1
v -1.3 2 -0.1
v -1.2 2 -0.1
v -1.1 2 -0.1
v -1 2 -0.1
v -3 2 -0.2
v -2.7 2 -0.2
v -2.6 2 -0.2
v -2.2 2 -0.2
v -2.1 2 -0.2
v -1.7 2 -0.2
v -1.6 2 -0.2
v -1.3 2 -0.2
v -1.2 2 -0.2
v -1.1 2 -0.2
v -3 2 -0.3
v -2.7 2 -0.3
v -2.6 2 -0.3
v -2.2 2 -0.3
v -2.1 2 -0.3
v -1.7 2 -0.3
v -1.6 2 -0.3
v -1.3 2 -0.3
v -1.2 2 -0.3
v -1.1 2 -0.3
v -1 2 -0.3
v 2.7 2 -0.3
v 2.8 2 -0.3
v 2.9 2 -0.3
v -1.1 2 -0.4
v -1 2 -0.4
v -0.5 2 -0.4
v 0.4 2 -0.4
v 2.2 2 -0.4
v 2.7 2 -0.4
v 2.8 2 -0.4
v 2.9 2 -0.4
v -0.5 2 -0.5
v 0.4 2 -0.5
v 2.2 2 -0.5
v 2.7 2 -0.5
v 0.4 2.1 0.5
v 2.2 2.1 0.5
v -1 2.1 0.4
v 0.4 2.1 0.4
v 2.2 2.1 0.4
v 2.7 2.1 0.4
v -1.1 2.1 0.3
v -1 2.1 0.3
v 2.7 2.1 0.3
v 2.8 2.1 0.3
v 2.9 2.1 0.3
v -3 2.1 0.2
v -2.7 2.1 0.2
v -2.6 2.1 0.2
v -2.2 2.1 0.2
v -2.1 2.1 0.2
v -1.7 2.1 0.2
v -1.6 2.1 0.2
v -1.3 2.1 0.2
v -1.2 2.1 0.2
v -1.1 2.1 0.2
v -1 2.1 0.2
v 2.7 2.1 0.2
v 2.8 2.1 0.2
v 2.9 2.1 0.2
v -3 2.1 0.1
v -2.7 2.1 0.1
v -2.6 2.1 0.1
v -2.2 2.1 0.1
v -2.1 2.1 0.1
v -1.7 2.1 0.1
v -1.6 2.1 0.1
v -1.3 2.1 0.1
v -1.2 2.1 0.1
v -1.1 2.1 0.1
v -3 2.1 -0.1
v -2.7 2.1 -0.1
v -2.6 2.1 -0.1
v -2.2 2.1 -0.1
v -2.1 2.1 -0.1
v -1.7 2.1 -0.1
v -1.6 2.1 -0.1
v -1.3 2.1 -0.1
v -1.2 2.1 -0.1
v -1.1 2.1 -0.1
v -3 2.1 -0.2
v -2.7 2.1 -0.2
v -2.6 2.1 -0.2
v -2.2 2.1 -0.2
v -2.1 2.1 -0.2
v -1.7 2.1 -0.2
v -1.6 2.1 -0.2
v -1.3 2.1 -0.2
v -1.2 2.1 -0.2
v -1.1 2.1 -0.2
v -1 2.1 -0.2
v 2.7 2.1 -0.2
v 2.8 2.1 -0.2
v 2.9 2.1 -0.2
v -1.1 2.1 -0.3
v -1 2.1 -0.3
v 2.7 2.1 -0.3
v 2.8 2.1 -0.3
v 2.9 2.1 -0.3
v -1 2.1 -0.4
v 0.4 2.1 -0.4
v 2.2 2.1 -0.4
v 2.7 2.1 -0.4
v 0.4 2.1 -0.5
v 2.2 2.1 -0.5
v -1 2.2 0.3
v 2.7 2.2 0.3
v -1.1 2.2 0.2
v -1 2.2 0.2
v 2.7 2.2 0.2
v 2.8 2.2 0.2
v 2.9 2.2 0.2
v -3 2.2 0.1
v -1.1 2.2 0.1
v -3 2.2 -0.1
v -1.1 2.2 -0.1
v -1.1 2.2 -0.2
v -1 2.2 -0.2
v 2.7 2.2 -0.2
v 2.8 2.2 -0.2
v 2.9 2.2 -0.2
v -1 2.2 -0.3
v 2.7 2.2 -0.3
v -1 2.3 0.2
v 2.7 2.3 0.2
v -1 2.3 -0.2
v 2.7 2.3 -0.2

# faces
f 4/5/1 2/5/1 1/5/1
f 5/5/1 2/5/1 4/5/1
f 8/10/1 4/10/1 3/10/1
f 9/6/1 5/6/1 4/6/1
f 9/10/1 4/10/1 8/10/1
f 10/10/1 6/10/1 5/10/1
f 10/6/1 5/6/1 9/6/1
f 11/10/1 6/10/1 10/10/1
f 13/6/1 9/6/1 8/6/1
f 14/6/1 11/6/1 10/6/1
f 15/11/1 8/11/1 7/11/1
f 16/6/1 14/6/1 13/6/1
f 16/11/1 8/11/1 15/11/1
f 16/6/1 13/6/1 8/6/1
f 17/6/1 14/6/1 16/6/1
f 18/6/1 11/6/1 14/6/1
f 18/6/1 14/6/1 17/6/1
f 19/11/1 12/11/1 11/11/1
f 19/6/1 11/6/1 18/6/1
f 20/11/1 12/11/1 19/11/1
f 21/5/1 17/5/1 16/5/1
f 22/6/1 18/6/1 17/6/1
f 22/5/1 17/5/1 21/5/1
f 23/5/1 19/5/1 18/5/1
f 23/6/1 18/6/1 22/6/1
f 24/5/1 19/5/1 23/5/1
f 25/1/1 23/1/1 22/1/1
f 26/1/1 23/1/1 25/1/1
f 29/7/1 28/7/1 27/7/1
f 30/7/1 28/7/1 29/7/1
f 36/10/1 32/10/1 31/10/1
f 37/10/1 32/10/1 36/10/1
f 38/10/1 34/10/1 33/10/1
f 39/10/1 34/10/1 38/10/1
f 41/11/1 36/11/1 35/11/1
f 42/11/1 36/11/1 41/11/1
f 45/11/1 40/11/1 39/11/1
f 46/11/1 40/11/1 45/11/1
f 47/5/1 43/5/1 42/5/1
f 48/5/1 43/5/1 47/5/1
f 49/5/1 45/5/1 44/5/1
f 50/5/1 45/5/1 49/5/1
f 56/10/1 52/10/1 51/10/1
f 57/10/1 52/10/1 56/10/1
f 58/10/1 54/10/1 53/10/1
f 59/10/1 54/10/1 58/10/1
f 61/11/1 56/11/1 55/11/1
f 62/11/1 56/11/1 61/11/1
f 65/11/1 60/11/1 59/11/1
f 66/11/1 60/11/1 65/11/1
f 67/5/1 63/5/1 62/5/1
f 68/5/1 63/5/1 67/5/1
f 69/5/1 65/5/1 64/5/1
f 70/5/1 65/5/1 69/5/1
f 76/10/1 72/10/1 71/10/1
f 77/10/1 72/10/1 76/10/1
f 78/10/1 74/10/1 73/10/1
f 79/10/1 74/10/1 78/10/1
f 81/11/1 76/11/1 75/11/1
f 82/11/1 76/11/1 81/11/1
f 85/11/1 80/11/1 79/11/1
f 86/11/1 80/11/1 85/11/1
f 87/5/1 83/5/1 82/5/1
f 88/5/1 83/5/1 87/5/1
f 89/5/1 85/5/1 84/5/1
f 90/5/1 85/5/1 89/5/1
f 93/10/1 92/10/1 91/10/1
f 94/10/1 92/10/1 93/10/1
f 97/11/1 95/11/1 94/11/1
f 98/11/1 95/11/1 97/11/1
f 99/5/1 97/5/1 96/5/1
f 100/5/1 97/5/1 99/5/1
f 105/12/1 102/12/1 101/12/1
f 108/12/1 104/12/1 103/12/1
f 109/12/1 106/12/1 105/12/1
f 109/12/1 105/12/1 101/12/1
f 110/12/1 106/12/1 109/12/1
f 111/12/1 106/12/1 110/12/1
f 114/12/1 108/12/1 107/12/1
f 115/12/1 104/12/1 108/12/1
f 115/12/1 108/12/1 114/12/1
f 116/12/1 104/12/1 115/12/1
f 117/12/1 112/12/1 111/12/1
f 117/12/1 111/12/1 110/12/1
f 118/12/1 112/12/1 117/12/1
f 119/12/1 114/12/1 113/12/1
f 119/12/1 115/12/1 114/12/1
f 120/12/1 115/12/1 119/12/1
f 121/1/1 118/1/1 117/1/1
f 122/12/1 112/12/1 118/12/1
f 122/1/1 118/1/1 121/1/1
f 123/12/1 112/12/1 122/12/1
f 124/12/1 112/12/1 123/12/1
f 125/12/1 112/12/1 124/12/1
f 126/12/1 119/12/1 113/12/1
f 127/12/1 119/12/1 126/12/1
f 128/12/1 119/12/1 127/12/1
f 129/12/1 119/12/1 128/12/1
f 130/9/1 124/9/1 123/9/1
f 133/9/1 128/9/1 127/9/1
f 134/9/1 131/9/1 130/9/1
f 134/9/1 130/9/1 123/9/1
f 135/9/1 131/9/1 134/9/1
f 136/9/1 131/9/1 135/9/1
f 137/9/1 133/9/1 132/9/1
f 138/9/1 133/9/1 137/9/1
f 139/9/1 128/9/1 133/9/1
f 139/9/1 133/9/1 138/9/1
f 140/1/1 136/1/1 135/1/1
f 140/1/1 138/1/1 137/1/1
f 140/1/1 137/1/1 136/1/1
f 141/1/1 138/1/1 140/1/1
f 142/1/1 140/1/1 135/1/1
f 143/1/1 140/1/1 142/1/1
f 144/1/1 140/1/1 143/1/1
f 145/1/1 140/1/1 144/1/1
f 146/1/1 138/1/1 141/1/1
f 147/1/1 138/1/1 146/1/1
f 148/1/1 138/1/1 147/1/1
f 149/1/1 138/1/1 148/1/1
f 150/1/1 144/1/1 143/1/1
f 151/1/1 144/1/1 150/1/1
f 152/1/1 148/1/1 147/1/1
f 153/1/1 148/1/1 152/1/1
f 154/1/1 150/1/1 143/1/1
f 155/1/1 150/1/1 154/1/1
f 158/1/1 148/1/1 153/1/1
f 159/1/1 148/1/1 158/1/1
f 160/1/1 156/1/1 155/1/1
f 161/1/1 156/1/1 160/1/1
f 164/1/1 158/1/1 157/1/1
f 165/1/1 158/1/1 164/1/1
f 166/1/1 162/1/1 161/1/1
f 167/1/1 162/1/1 166/1/1
f 168/1/1 164/1/1 163/1/1
f 169/1/1 164/1/1 168/1/1
f 178/9/1 173/9/1 172/9/1
f 179/9/1 173/9/1 178/9/1
f 180/9/1 175/9/1 174/9/1
f 181/9/1 175/9/1 180/9/1
f 182/9/1 171/9/1 170/9/1
f 183/9/1 171/9/1 182/9/1
f 184/9/1 177/9/1 176/9/1
f 185/9/1 177/9/1 184/9/1
f 192/1/1 187/1/1 186/1/1
f 193/1/1 187/1/1 192/1/1
f 195/1/1 189/1/1 188/1/1
f 196/1/1 189/1/1 195/1/1
f 198/1/1 191/1/1 190/1/1
f 199/1/1 191/1/1 198/1/1
f 200/1/1 194/1/1 193/1/1
f 201/1/1 194/1/1 200/1/1
f 202/1/1 198/1/1 197/1/1
f 203/1/1 198/1/1 202/1/1
f 204/1/1 202/1/1 201/1/1
f 205/1/1 202/1/1 204/1/1
f 210/1/1 207/1/1 206/1/1
f 211/1/1 207/1/1 210/1/1
f 212/1/1 209/1/1 208/1/1
f 213/1/1 209/1/1 212/1/1
f 216/1/1 215/1/1 214/1/1
f 217/1/1 215/1/1 216/1/1
f 222/1/1 219/1/1 218/1/1
f 223/1/1 219/1/1 222/1/1
f 224/1/1 221/1/1 220/1/1
f 225/1/1 221/1/1 224/1/1
f 228/1/1 227/1/1 226/1/1
f 229/1/1 227/1/1 228/1/1
f 231/1/1 230/1/1 229/1/1
f 232/1/1 230/1/1 231/1/1
f 237/1/1 234/1/1 233/1/1
f 238/1/1 234/1/1 237/1/1
f 239/1/1 236/1/1 235/1/1
f 240/1/1 236/1/1 239/1/1
f 246/1/1 242/1/1 241/1/1
f 247/1/1 244/1/1 243/1/1
f 249/1/1 246/1/1 245/1/1
f 250/1/1 242/1/1 246/1/1
f 250/1/1 246/1/1 249/1/1
f 251/1/1 248/1/1 247/1/1
f 251/1/1 247/1/1 243/1/1
f 252/1/1 248/1/1 251/1/1
f 255/7/1 254/7/1 253/7/1
f 256/7/1 254/7/1 255/7/1
f 257/7/1 255/7/1 253/7/1
f 258/7/1 254/7/1 256/7/1
f 259/7/1 257/7/1 253/7/1
f 259/7/1 258/7/1 257/7/1
f 260/7/1 254/7/1 258/7/1
f 260/7/1 258/7/1 259/7/1
f 265/1/1 262/1/1 261/1/1
f 268/1/1 264/1/1 263/1/1
f 269/1/1 266/1/1 265/1/1
f 270/1/1 266/1/1 269/1/1
f 271/1/1 268/1/1 267/1/1
f 272/1/1 268/1/1 271/1/1
f 273/1/1 265/1/1 261/1/1
f 273/1/1 269/1/1 265/1/1
f 274/1/1 269/1/1 273/1/1
f 275/1/1 268/1/1 272/1/1
f 276/1/1 264/1/1 268/1/1
f 276/1/1 268/1/1 275/1/1
f 281/1/1 278/1/1 277/1/1
f 282/1/1 278/1/1 281/1/1
f 283/1/1 280/1/1 279/1/1
f 284/1/1 280/1/1 283/1/1
f 285/6/2 286/6/2 288/6/2
f 288/6/2 286/6/2 289/6/2
f 287/6/2 288/6/2 291/6/2
f 289/6/2 290/6/2 292/6/2
f 287/6/2 291/6/2 293/6/2
f 293/6/2 291/6/2 294/6/2
f 292/6/2 290/6/2 295/6/2
f 295/6/2 290/6/2 296/6/2
f 294/6/2 295/6/2 297/6/2
f 297/6/2 295/6/2 298/6/2
f 299/10/2 300/10/2 304/10/2
f 304/10/2 300/10/2 305/10/2
f 301/10/2 302/10/2 306/10/2
f 306/10/2 302/10/2 307/10/2
f 303/11/2 304/11/2 309/11/2
f 309/11/2 304/11/2 310/11/2
f 307/11/2 308/11/2 313/11/2
f 313/11/2 308/11/2 314/11/2
f 310/5/2 311/5/2 315/5/2
f 315/5/2 311/5/2 316/5/2
f 312/5/2 313/5/2 317/5/2
f 317/5/2 313/5/2 318/5/2
f 319/10/2 320/10/2 324/10/2
f 324/10/2 320/10/2 325/10/2
f 321/10/2 322/10/2 326/10/2
f 326/10/2 322/10/2 327/10/2
f 323/11/2 324/11/2 329/11/2
f 329/11/2 324/11/2 330/11/2
f 327/11/2 328/11/2 333/11/2
f 333/11/2 328/11/2 334/11/2
f 330/5/2 331/5/2 335/5/2
f 335/5/2 331/5/2 336/5/2
f 332/5/2 333/5/2 337/5/2
f 337/5/2 333/5/2 338/5/2
f 339/10/2 340/10/2 344/10/2
f 344/10/2 340/10/2 345/10/2
f 341/10/2 342/10/2 346/10/2
f 346/10/2 342/10/2 347/10/2
f 343/11/2 344/11/2 349/11/2
f 349/11/2 344/11/2 350/11/2
f 347/11/2 348/11/2 353/11/2
f 353/11/2 348/11/2 354/11/2
f 350/5/2 351/5/2 355/5/2
f 355/5/2 351/5/2 356/5/2
f 352/5/2 353/5/2 357/5/2
f 357/5/2 353/5/2 358/5/2
f 359/10/2 360/10/2 361/10/2
f 361/10/2 360/10/2 362/10/2
f 362/11/2 363/11/2 365/11/2
f 365/11/2 363/11/2 366/11/2
f 364/5/2 365/5/2 367/5/2
f 367/5/2 365/5/2 368/5/2
f 369/9/2 370/9/2 373/9/2
f 373/9/2 370/9/2 374/9/2
f 371/9/2 372/9/2 379/9/2
f 379/9/2 372/9/2 380/9/2
f 375/9/2 376/9/2 381/9/2
f 381/9/2 376/9/2 382/9/2
f 382/9/2 376/9/2 383/9/2
f 377/9/2 378/9/2 384/9/2
f 384/9/2 378/9/2 385/9/2
f 385/9/2 378/9/2 386/9/2
f 387/9/2 388/9/2 391/9/2
f 389/9/2 390/9/2 394/9/2
f 391/9/2 392/9/2 395/9/2
f 387/9/2 391/9/2 395/9/2
f 395/9/2 392/9/2 396/9/2
f 396/9/2 392/9/2 397/9/2
f 393/9/2 394/9/2 400/9/2
f 394/9/2 390/9/2 401/9/2
f 400/9/2 394/9/2 401/9/2
f 401/9/2 390/9/2 402/9/2
f 397/9/2 398/9/2 403/9/2
f 396/9/2 397/9/2 403/9/2
f 403/9/2 398/9/2 404/9/2
f 404/9/2 398/9/2 405/9/2
f 399/9/2 400/9/2 406/9/2
f 400/9/2 401/9/2 406/9/2
f 406/9/2 401/9/2 407/9/2
f 407/9/2 401/9/2 408/9/2
f 404/1/2 405/1/2 409/1/2
f 409/1/2 405/1/2 410/1/2
f 406/1/2 407/1/2 411/1/2
f 411/1/2 407/1/2 412/1/2
f 413/1/2 414/1/2 415/1/2
f 415/1/2 414/1/2 416/1/2
f 416/1/2 414/1/2 417/1/2
f 417/1/2 414/1/2 418/1/2
f 415/7/2 416/7/2 419/7/2
f 417/7/2 418/7/2 420/7/2
f 415/7/2 419/7/2 421/7/2
f 419/7/2 420/7/2 421/7/2
f 420/7/2 418/7/2 422/7/2
f 421/7/2 420/7/2 422/7/2
f 423/1/2 424/1/2 428/1/2
f 425/1/2 426/1/2 429/1/2
f 427/1/2 428/1/2 431/1/2
f 428/1/2 424/1/2 432/1/2
f 431/1/2 428/1/2 432/1/2
f 429/1/2 430/1/2 433/1/2
f 425/1/2 429/1/2 433/1/2
f 433/1/2 430/1/2 434/1/2
f 435/1/2 436/1/2 439/1/2
f 439/1/2 436/1/2 440/1/2
f 437/1/2 438/1/2 441/1/2
f 441/1/2 438/1/2 442/1/2
f 443/1/2 444/1/2 447/1/2
f 447/1/2 444/1/2 448/1/2
f 445/1/2 446/1/2 449/1/2
f 449/1/2 446/1/2 450/1/2
f 451/1/2 452/1/2 455/1/2
f 455/1/2 452/1/2 456/1/2
f 453/1/2 454/1/2 457/1/2
f 457/1/2 454/1/2 458/1/2
f 459/1/2 460/1/2 463/1/2
f 463/1/2 460/1/2 464/1/2
f 461/1/2 462/1/2 465/1/2
f 465/1/2 462/1/2 466/1/2
f 467/1/2 468/1/2 471/1/2
f 471/1/2 468/1/2 472/1/2
f 469/1/2 470/1/2 475/1/2
f 475/1/2 470/1/2 476/1/2
f 472/1/2 473/1/2 477/1/2
f 477/1/2 473/1/2 478/1/2
f 474/1/2 475/1/2 481/1/2
f 481/1/2 475/1/2 482/1/2
f 478/1/2 479/1/2 483/1/2
f 483/1/2 479/1/2 484/1/2
f 480/1/2 481/1/2 485/1/2
f 485/1/2 481/1/2 486/1/2
f 484/1/2 485/1/2 487/1/2
f 487/1/2 485/1/2 488/1/2
f 489/1/2 490/1/2 495/1/2
f 490/1/2 491/1/2 495/1/2
f 495/1/2 491/1/2 496/1/2
f 493/1/2 494/1/2 497/1/2
f 492/1/2 493/1/2 497/1/2
f 497/1/2 494/1/2 498/1/2
f 489/1/2 495/1/2 499/1/2
f 499/1/2 495/1/2 500/1/2
f 498/1/2 494/1/2 501/1/2
f 501/1/2 494/1/2 502/1/2
f 503/12/2 504/12/2 507/12/2
f 505/12/2 506/12/2 510/12/2
f 507/12/2 508/12/2 511/12/2
f 503/12/2 507/12/2 511/12/2
f 511/12/2 508/12/2 512/12/2
f 512/12/2 508/12/2 513/12/2
f 509/12/2 510/12/2 516/12/2
f 510/12/2 506/12/2 517/12/2
f 516/12/2 510/12/2 517/12/2
f 517/12/2 506/12/2 518/12/2
f 515/12/2 516/12/2 519/12/2
f 516/12/2 517/12/2 519/12/2
f 519/12/2 517/12/2 520/12/2
f 513/12/2 514/12/2 521/12/2
f 512/12/2 513/12/2 521/12/2
f 521/12/2 514/12/2 522/12/2
f 515/12/2 519/12/2 523/12/2
f 523/12/2 519/12/2 524/12/2
f 522/12/2 514/12/2 525/12/2
f 515/12/2 523/12/2 528/12/2
f 525/12/2 526/12/2 529/12/2
f 522/12/2 525/12/2 529/12/2
f 529/12/2 526/12/2 530/12/2
f 527/12/2 528/12/2 533/12/2
f 528/12/2 523/12/2 534/12/2
f 533/12/2 528/12/2 534/12/2
f 531/12/2 532/12/2 536/12/2
f 536/12/2 532/12/2 537/12/2
f 535/12/2 536/12/2 540/12/2
f 537/12/2 538/12/2 540/12/2
f 536/12/2 537/12/2 540/12/2
f 540/12/2 538/12/2 541/12/2
f 539/12/2 540/12/2 543/12/2
f 541/12/2 542/12/2 543/12/2
f 540/12/2 541/12/2 543/12/2
f 543/12/2 542/12/2 544/12/2
f 544/12/2 542/12/2 545/12/2
f 545/12/2 542/12/2 546/12/2
f 544/12/2 545/12/2 547/12/2
f 547/12/2 545/12/2 548/12/2
f 548/12/2 545/12/2 549/12/2
f 549/12/2 545/12/2 550/12/2
f 548/12/2 549/12/2 551/12/2
f 551/12/2 549/12/2 552/12/2
f 555/12/3 554/12/3 553/12/3
f 556/12/3 554/12/3 555/12/3
f 560/12/3 558/12/3 557/12/3
f 561/1/3 559/1/3 558/1/3
f 561/12/3 558/12/3 560/12/3
f 562/1/3 561/1/3 560/1/3
f 563/1/3 559/1/3 561/1/3
f 563/1/3 561/1/3 562/1/3
f 564/12/3 563/12/3 562/12/3
f 565/12/3 563/12/3 564/12/3
f 568/9/3 567/9/3 566/9/3
f 569/9/3 567/9/3 568/9/3
f 572/1/3 571/1/3 570/1/3
f 573/1/3 571/1/3 572/1/3
f 574/12/3 573/12/3 572/12/3
f 575/12/3 573/12/3 574/12/3
f 578/9/3 577/9/3 576/9/3
f 579/9/3 577/9/3 578/9/3
f 580/9/3 577/9/3 579/9/3
f 581/9/3 577/9/3 580/9/3
f 584/1/3 583/1/3 582/1/3
f 586/1/3 584/1/3 582/1/3
f 586/1/3 585/1/3 584/1/3
f 587/1/3 585/1/3 586/1/3
f 588/1/3 585/1/3 587/1/3
f 590/1/3 588/1/3 587/1/3
f 590/1/3 589/1/3 588/1/3
f 591/1/3 589/1/3 590/1/3
f 592/1/3 589/1/3 591/1/3
f 594/1/3 590/1/3 587/1/3
f 595/1/3 593/1/3 592/1/3
f 595/1/3 592/1/3 591/1/3
f 596/1/3 594/1/3 587/1/3
f 596/1/3 595/1/3 594/1/3
f 597/1/3 595/1/3 596/1/3
f 598/13/3 597/13/3 596/13/3
f 598/1/3 595/1/3 597/1/3
f 599/1/3 595/1/3 598/1/3
f 600/13/3 599/13/3 598/13/3
f 600/1/3 595/1/3 599/1/3
f 601/1/3 593/1/3 595/1/3
f 601/1/3 595/1/3 600/1/3
f 602/13/3 600/13/3 598/13/3
f 602/13/3 598/13/3 596/13/3
f 602/13/3 601/13/3 600/13/3
f 603/13/3 601/13/3 602/13/3
f 604/13/3 601/13/3 603/13/3
f 605/1/3 593/1/3 601/1/3
f 605/13/3 601/13/3 604/13/3
f 606/1/3 593/1/3 605/1/3
f 607/8/3 603/8/3 602/8/3
f 608/13/3 604/13/3 603/13/3
f 608/8/3 603/8/3 607/8/3
f 609/8/3 605/8/3 604/8/3
f 609/13/3 604/13/3 608/13/3
f 610/13/3 606/13/3 605/13/3
f 610/8/3 605/8/3 609/8/3
f 611/1/3 593/1/3 606/1/3
f 611/13/3 606/13/3 610/13/3
f 612/13/3 610/13/3 609/13/3
f 612/13/3 608/13/3 607/13/3
f 612/13/3 609/13/3 608/13/3
f 613/1/3 611/1/3 610/1/3
f 613/13/3 610/13/3 612/13/3
f 614/13/3 612/13/3 607/13/3
f 615/1/3 613/1/3 612/1/3
f 615/13/3 612/13/3 614/13/3
f 616/13/3 614/13/3 607/13/3
f 617/1/3 615/1/3 614/1/3
f 617/13/3 614/13/3 616/13/3
f 618/1/3 617/1/3 616/1/3
f 619/1/3 615/1/3 617/1/3
f 619/1/3 617/1/3 618/1/3
f 620/1/3 593/1/3 611/1/3
f 620/1/3 615/1/3 619/1/3
f 620/1/3 611/1/3 613/1/3
f 620/1/3 613/1/3 615/1/3
f 621/1/3 593/1/3 620/1/3
f 622/1/3 620/1/3 619/1/3
f 623/1/3 620/1/3 622/1/3
f 624/1/3 620/1/3 623/1/3
f 625/1/3 620/1/3 624/1/3
f 628/1/3 627/1/3 626/1/3
f 630/1/3 628/1/3 626/1/3
f 630/1/3 629/1/3 628/1/3
f 631/1/3 629/1/3 630/1/3
f 635/1/3 629/1/3 631/1/3
f 636/1/3 629/1/3 635/1/3
f 637/1/3 629/1/3 636/1/3
f 638/1/3 629/1/3 637/1/3
f 639/1/3 634/1/3 633/1/3
f 639/1/3 633/1/3 632/1/3
f 640/1/3 639/1/3 632/1/3
f 641/1/3 640/1/3 632/1/3
f 642/1/3 641/1/3 632/1/3
f 643/1/3 642/1/3 632/1/3
f 647/1/3 644/1/3 643/1/3
f 649/1/3 643/1/3 632/1/3
f 649/1/3 648/1/3 647/1/3
f 649/1/3 647/1/3 643/1/3
f 650/1/3 648/1/3 649/1/3
f 651/1/3 648/1/3 650/1/3
f 652/1/3 646/1/3 645/1/3
f 653/1/3 646/1/3 652/1/3
f 654/1/3 651/1/3 650/1/3
f 654/1/3 652/1/3 651/1/3
f 655/1/3 652/1/3 654/1/3
f 656/1/3 652/1/3 655/1/3
f 657/12/3 656/12/3 655/12/3
f 658/12/3 656/12/3 657/12/3
f 661/11/3 660/11/3 659/11/3
f 662/11/3 660/11/3 661/11/3
f 665/11/3 664/11/3 663/11/3
f 666/11/3 664/11/3 665/11/3
f 669/11/3 668/11/3 667/11/3
f 670/11/3 668/11/3 669/11/3
f 673/11/3 672/11/3 671/11/3
f 674/11/3 672/11/3 673/11/3
f 675/1/3 674/1/3 673/1/3
f 676/1/3 674/1/3 675/1/3
f 677/11/3 676/11/3 675/11/3
f 678/11/3 676/11/3 677/11/3
f 680/1/3 679/1/3 678/1/3
f 681/1/3 679/1/3 680/1/3
f 684/1/3 682/1/3 681/1/3
f 685/1/3 682/1/3 684/1/3
f 688/1/3 684/1/3 683/1/3
f 689/1/3 684/1/3 688/1/3
f 690/12/3 687/12/3 686/12/3
f 691/12/3 687/12/3 690/12/3
f 692/12/3 689/12/3 688/12/3
f 693/12/3 689/12/3 692/12/3
f 698/10/3 695/10/3 694/10/3
f 699/10/3 695/10/3 698/10/3
f 700/5/3 697/5/3 696/5/3
f 701/5/3 697/5/3 700/5/3
f 706/10/3 703/10/3 702/10/3
f 707/10/3 703/10/3 706/10/3
f 708/5/3 705/5/3 704/5/3
f 709/5/3 705/5/3 708/5/3
f 714/10/3 711/10/3 710/10/3
f 715/10/3 711/10/3 714/10/3
f 716/5/3 713/5/3 712/5/3
f 717/5/3 713/5/3 716/5/3
f 722/10/3 719/10/3 718/10/3
f 723/10/3 719/10/3 722/10/3
f 724/5/3 721/5/3 720/5/3
f 725/5/3 721/5/3 724/5/3
f 726/1/3 723/1/3 722/1/3
f 727/1/3 723/1/3 726/1/3
f 728/1/3 725/1/3 724/1/3
f 729/1/3 725/1/3 728/1/3
f 730/10/3 727/10/3 726/10/3
f 731/10/3 727/10/3 730/10/3
f 732/5/3 729/5/3 728/5/3
f 733/5/3 729/5/3 732/5/3
f 735/1/3 734/1/3 733/1/3
f 736/1/3 734/1/3 735/1/3
f 740/1/3 739/1/3 738/1/3
f 741/1/3 739/1/3 740/1/3
f 743/1/3 737/1/3 736/1/3
f 744/1/3 737/1/3 743/1/3
f 747/1/3 743/1/3 742/1/3
f 748/1/3 743/1/3 747/1/3
f 749/12/3 746/12/3 745/12/3
f 750/12/3 746/12/3 749/12/3
f 751/12/3 748/12/3 747/12/3
f 752/12/3 748/12/3 751/12/3
f 760/7/3 758/7/3 757/7/3
f 761/6/3 759/6/3 758/6/3
f 761/7/3 758/7/3 760/7/3
f 762/6/3 759/6/3 761/6/3
f 763/5/3 754/5/3 753/5/3
f 764/4/3 761/4/3 760/4/3
f 764/4/3 762/4/3 761/4/3
f 765/4/3 762/4/3 764/4/3
f 766/1/3 756/1/3 755/1/3
f 767/5/3 763/5/3 753/5/3
f 768/4/3 765/4/3 764/4/3
f 769/4/3 765/4/3 768/4/3
f 770/1/3 756/1/3 766/1/3
f 771/5/3 767/5/3 753/5/3
f 772/4/3 769/4/3 768/4/3
f 773/4/3 769/4/3 772/4/3
f 774/1/3 756/1/3 770/1/3
f 775/5/3 771/5/3 753/5/3
f 776/4/3 773/4/3 772/4/3
f 777/4/3 773/4/3 776/4/3
f 778/1/3 756/1/3 774/1/3
f 779/5/3 775/5/3 753/5/3
f 780/4/3 777/4/3 776/4/3
f 781/4/3 777/4/3 780/4/3
f 782/1/3 756/1/3 778/1/3
f 783/5/3 779/5/3 753/5/3
f 784/4/3 781/4/3 780/4/3
f 785/4/3 781/4/3 784/4/3
f 786/1/3 756/1/3 782/1/3
f 787/5/3 783/5/3 753/5/3
f 788/4/3 785/4/3 784/4/3
f 789/4/3 785/4/3 788/4/3
f 790/1/3 756/1/3 786/1/3
f 791/5/3 787/5/3 753/5/3
f 792/4/3 789/4/3 788/4/3
f 793/4/3 789/4/3 792/4/3
f 794/1/3 756/1/3 790/1/3
f 795/5/3 791/5/3 753/5/3
f 796/5/3 791/5/3 795/5/3
f 797/4/3 793/4/3 792/4/3
f 798/4/3 793/4/3 797/4/3
f 799/1/3 756/1/3 794/1/3
f 800/1/3 756/1/3 799/1/3
f 801/4/3 798/4/3 797/4/3
f 802/4/3 798/4/3 801/4/3
f 805/3/3 804/3/3 803/3/3
f 806/3/3 804/3/3 805/3/3
f 807/2/3 806/2/3 805/2/3
f 808/2/3 806/2/3 807/2/3
f 809/3/3 808/3/3 807/3/3
f 810/3/3 808/3/3 809/3/3
f 811/2/3 810/2/3 809/2/3
f 812/2/3 810/2/3 811/2/3
f 813/3/3 812/3/3 811/3/3
f 814/3/3 812/3/3 813/3/3
f 815/2/3 814/2/3 813/2/3
f 816/2/3 814/2/3 815/2/3
f 817/3/3 816/3/3 815/3/3
f 818/3/3 816/3/3 817/3/3
f 822/6/3 820/6/3 819/6/3
f 823/6/3 820/6/3 822/6/3
f 826/10/3 822/10/3 821/10/3
f 827/5/3 825/5/3 824/5/3
f 828/10/3 826/10/3 821/10/3
f 829/10/3 826/10/3 828/10/3
f 830/5/3 825/5/3 827/5/3
f 831/5/3 825/5/3 830/5/3
f 836/10/3 833/10/3 832/10/3
f 837/10/3 833/10/3 836/10/3
f 838/5/3 835/5/3 834/5/3
f 839/5/3 835/5/3 838/5/3
f 844/10/3 841/10/3 840/10/3
f 845/10/3 841/10/3 844/10/3
f 846/5/3 843/5/3 842/5/3
f 847/5/3 843/5/3 846/5/3
f 852/10/3 849/10/3 848/10/3
f 853/10/3 849/10/3 852/10/3
f 854/5/3 851/5/3 850/5/3
f 855/5/3 851/5/3 854/5/3
f 860/10/3 857/10/3 856/10/3
f 861/10/3 857/10/3 860/10/3
f 862/5/3 859/5/3 858/5/3
f 863/5/3 859/5/3 862/5/3
f 864/1/3 863/1/3 862/1/3
f 865/1/3 863/1/3 864/1/3
f 866/1/3 861/1/3 860/1/3
f 867/1/3 861/1/3 866/1/3
f 870/11/3 869/11/3 868/11/3
f 871/11/3 869/11/3 870/11/3
f 874/11/3 873/11/3 872/11/3
f 875/11/3 873/11/3 874/11/3
f 878/11/3 877/11/3 876/11/3
f 879/11/3 877/11/3 878/11/3
f 882/11/3 881/11/3 880/11/3
f 883/11/3 881/11/3 882/11/3
f 886/11/3 885/11/3 884/11/3
f 887/11/3 885/11/3 886/11/3
f 888/1/3 887/1/3 886/1/3
f 889/1/3 887/1/3 888/1/3
f 893/1/3 891/1/3 890/1/3
f 893/1/3 892/1/3 891/1/3
f 894/1/3 892/1/3 893/1/3
f 897/1/3 896/1/3 895/1/3
f 898/1/3 896/1/3 897/1/3
f 901/9/3 900/9/3 899/9/3
f 902/9/3 900/9/3 901/9/3
f 903/9/3 901/9/3 899/9/3
f 904/1/3 902/1/3 901/1/3
f 904/9/3 901/9/3 903/9/3
f 907/1/3 906/1/3 905/1/3
f 908/1/3 906/1/3 907/1/3
f 910/1/3 902/1/3 904/1/3
f 913/1/3 912/1/3 911/1/3
f 914/1/3 912/1/3 913/1/3
f 915/1/3 910/1/3 909/1/3
f 916/1/3 902/1/3 910/1/3
f 916/1/3 910/1/3 915/1/3
f 917/12/3 916/12/3 915/12/3
f 918/12/3 916/12/3 917/12/3
f 921/9/3 920/9/3 919/9/3
f 922/9/3 920/9/3 921/9/3
f 925/12/3 924/12/3 923/12/3
f 926/12/3 924/12/3 925/12/3
f 928/1/3 926/1/3 925/1/3
f 928/9/3 927/9/3 926/9/3
f 929/9/3 927/9/3 928/9/3
f 930/1/3 928/1/3 925/1/3
f 932/1/3 930/1/3 925/1/3
f 932/1/3 931/1/3 930/1/3
f 933/1/3 931/1/3 932/1/3
f 934/12/3 933/12/3 932/12/3
f 935/12/3 933/12/3 934/12/3
f 940/12/3 937/12/3 936/12/3
f 941/12/3 937/12/3 940/12/3
f 942/9/3 939/9/3 938/9/3
f 943/9/3 939/9/3 942/9/3
f 946/9/3 945/9/3 944/9/3
f 947/9/3 945/9/3 946/9/3
f 948/1/3 941/1/3 940/1/3
f 949/1/3 941/1/3 948/1/3
f 950/12/3 949/12/3 948/12/3
f 951/12/3 949/12/3 950/12/3
f 954/12/3 953/12/3 952/12/3
f 955/12/3 953/12/3 954/12/3
f 956/1/3 955/1/3 954/1/3
f 957/1/3 955/1/3 956/1/3
f 958/12/3 957/12/3 956/12/3
f 959/12/3 957/12/3 958/12/3
f 960/12/4 961/12/4 962/12/4
f 962/12/4 961/12/4 963/12/4
f 962/1/4 963/1/4 964/1/4
f 964/1/4 963/1/4 965/1/4
f 964/12/4 965/12/4 966/12/4
f 966/12/4 965/12/4 967/12/4
f 968/12/4 969/12/4 972/12/4
f 972/12/4 969/12/4 973/12/4
f 970/9/4 971/9/4 974/9/4
f 974/9/4 971/9/4 975/9/4
f 976/9/4 977/9/4 978/9/4
f 978/9/4 977/9/4 979/9/4
f 972/1/4 973/1/4 980/1/4
f 980/1/4 973/1/4 981/1/4
f 980/12/4 981/12/4 982/12/4
f 982/12/4 981/12/4 983/12/4
f 984/12/4 985/12/4 986/12/4
f 986/12/4 985/12/4 987/12/4
f 986/1/4 987/1/4 989/1/4
f 987/9/4 988/9/4 989/9/4
f 989/9/4 988/9/4 990/9/4
f 986/1/4 989/1/4 991/1/4
f 986/1/4 991/1/4 993/1/4
f 991/1/4 992/1/4 993/1/4
f 993/1/4 992/1/4 994/1/4
f 993/12/4 994/12/4 995/12/4
f 995/12/4 994/12/4 996/12/4
f 997/9/4 998/9/4 999/9/4
f 999/9/4 998/9/4 1000/9/4
f 1001/9/4 1002/9/4 1003/9/4
f 1003/9/4 1002/9/4 1004/9/4
f 1001/9/4 1003/9/4 1005/9/4
f 1003/1/4 1004/1/4 1006/1/4
f 1005/9/4 1003/9/4 1006/9/4
f 1007/1/4 1008/1/4 1009/1/4
f 1009/1/4 1008/1/4 1010/1/4
f 1006/1/4 1004/1/4 1012/1/4
f 1013/1/4 1014/1/4 1015/1/4
f 1015/1/4 1014/1/4 1016/1/4
f 1011/1/4 1012/1/4 1017/1/4
f 1012/1/4 1004/1/4 1018/1/4
f 1017/1/4 1012/1/4 1018/1/4
f 1017/12/4 1018/12/4 1019/12/4
f 1019/12/4 1018/12/4 1020/12/4
f 1021/11/4 1022/11/4 1023/11/4
f 1023/11/4 1022/11/4 1024/11/4
f 1025/11/4 1026/11/4 1027/11/4
f 1027/11/4 1026/11/4 1028/11/4
f 1029/11/4 1030/11/4 1031/11/4
f 1031/11/4 1030/11/4 1032/11/4
f 1033/11/4 1034/11/4 1035/11/4
f 1035/11/4 1034/11/4 1036/11/4
f 1035/1/4 1036/1/4 1037/1/4
f 1037/1/4 1036/1/4 1038/1/4
f 1037/11/4 1038/11/4 1039/11/4
f 1039/11/4 1038/11/4 1040/11/4
f 1039/1/4 1040/1/4 1041/1/4
f 1041/1/4 1040/1/4 1042/1/4
f 1043/1/4 1044/1/4 1046/1/4
f 1044/1/4 1045/1/4 1046/1/4
f 1046/1/4 1045/1/4 1047/1/4
f 1048/1/4 1049/1/4 1050/1/4
f 1050/1/4 1049/1/4 1051/1/4
f 1052/6/4 1053/6/4 1055/6/4
f 1055/6/4 1053/6/4 1056/6/4
f 1054/10/4 1055/10/4 1059/10/4
f 1057/5/4 1058/5/4 1060/5/4
f 1054/10/4 1059/10/4 1061/10/4
f 1061/10/4 1059/10/4 1062/10/4
f 1060/5/4 1058/5/4 1063/5/4
f 1063/5/4 1058/5/4 1064/5/4
f 1065/10/4 1066/10/4 1069/10/4
f 1069/10/4 1066/10/4 1070/10/4
f 1067/5/4 1068/5/4 1071/5/4
f 1071/5/4 1068/5/4 1072/5/4
f 1073/10/4 1074/10/4 1077/10/4
f 1077/10/4 1074/10/4 1078/10/4
f 1075/5/4 1076/5/4 1079/5/4
f 1079/5/4 1076/5/4 1080/5/4
f 1081/10/4 1082/10/4 1085/10/4
f 1085/10/4 1082/10/4 1086/10/4
f 1083/5/4 1084/5/4 1087/5/4
f 1087/5/4 1084/5/4 1088/5/4
f 1085/1/4 1086/1/4 1089/1/4
f 1089/1/4 1086/1/4 1090/1/4
f 1087/1/4 1088/1/4 1091/1/4
f 1091/1/4 1088/1/4 1092/1/4
f 1089/10/4 1090/10/4 1093/10/4
f 1093/10/4 1090/10/4 1094/10/4
f 1091/5/4 1092/5/4 1095/5/4
f 1095/5/4 1092/5/4 1096/5/4
f 1095/1/4 1096/1/4 1097/1/4
f 1097/1/4 1096/1/4 1098/1/4
f 1093/1/4 1094/1/4 1099/1/4
f 1099/1/4 1094/1/4 1100/1/4
f 1105/7/4 1106/7/4 1108/7/4
f 1106/6/4 1107/6/4 1109/6/4
f 1108/7/4 1106/7/4 1109/7/4
f 1109/6/4 1107/6/4 1110/6/4
f 1101/5/4 1102/5/4 1111/5/4
f 1108/4/4 1109/4/4 1112/4/4
f 1109/4/4 1110/4/4 1112/4/4
f 1112/4/4 1110/4/4 1113/4/4
f 1103/1/4 1104/1/4 1114/1/4
f 1101/5/4 1111/5/4 1115/5/4
f 1112/4/4 1113/4/4 1116/4/4
f 1116/4/4 1113/4/4 1117/4/4
f 1114/1/4 1104/1/4 1118/1/4
f 1101/5/4 1115/5/4 1119/5/4
f 1116/4/4 1117/4/4 1120/4/4
f 1120/4/4 1117/4/4 1121/4/4
f 1118/1/4 1104/1/4 1122/1/4
f 1101/5/4 1119/5/4 1123/5/4
f 1120/4/4 1121/4/4 1124/4/4
f 1124/4/4 1121/4/4 1125/4/4
f 1122/1/4 1104/1/4 1126/1/4
f 1101/5/4 1123/5/4 1127/5/4
f 1124/4/4 1125/4/4 1128/4/4
f 1128/4/4 1125/4/4 1129/4/4
f 1126/1/4 1104/1/4 1130/1/4
f 1101/5/4 1127/5/4 1131/5/4
f 1128/4/4 1129/4/4 1132/4/4
f 1132/4/4 1129/4/4 1133/4/4
f 1130/1/4 1104/1/4 1134/1/4
f 1101/5/4 1131/5/4 1135/5/4
f 1132/4/4 1133/4/4 1136/4/4
f 1136/4/4 1133/4/4 1137/4/4
f 1134/1/4 1104/1/4 1138/1/4
f 1101/5/4 1135/5/4 1139/5/4
f 1136/4/4 1137/4/4 1140/4/4
f 1140/4/4 1137/4/4 1141/4/4
f 1138/1/4 1104/1/4 1142/1/4
f 1101/5/4 1139/5/4 1143/5/4
f 1143/5/4 1139/5/4 1144/5/4
f 1140/4/4 1141/4/4 1145/4/4
f 1145/4/4 1141/4/4 1146/4/4
f 1142/1/4 1104/1/4 1147/1/4
f 1147/1/4 1104/1/4 1148/1/4
f 1145/4/4 1146/4/4 1149/4/4
f 1149/4/4 1146/4/4 1150/4/4
f 1151/3/4 1152/3/4 1153/3/4
f 1153/3/4 1152/3/4 1154/3/4
f 1153/2/4 1154/2/4 1155/2/4
f 1155/2/4 1154/2/4 1156/2/4
f 1155/3/4 1156/3/4 1157/3/4
f 1157/3/4 1156/3/4 1158/3/4
f 1157/2/4 1158/2/4 1159/2/4
f 1159/2/4 1158/2/4 1160/2/4
f 1159/3/4 1160/3/4 1161/3/4
f 1161/3/4 1160/3/4 1162/3/4
f 1161/2/4 1162/2/4 1163/2/4
f 1163/2/4 1162/2/4 1164/2/4
f 1163/3/4 1164/3/4 1165/3/4
f 1165/3/4 1164/3/4 1166/3/4
f 1167/10/4 1168/10/4 1171/10/4
f 1171/10/4 1168/10/4 1172/10/4
f 1169/5/4 1170/5/4 1173/5/4
f 1173/5/4 1170/5/4 1174/5/4
f 1175/10/4 1176/10/4 1179/10/4
f 1179/10/4 1176/10/4 1180/10/4
f 1177/5/4 1178/5/4 1181/5/4
f 1181/5/4 1178/5/4 1182/5/4
f 1183/10/4 1184/10/4 1187/10/4
f 1187/10/4 1184/10/4 1188/10/4
f 1185/5/4 1186/5/4 1189/5/4
f 1189/5/4 1186/5/4 1190/5/4
f 1191/10/4 1192/10/4 1195/10/4
f 1195/10/4 1192/10/4 1196/10/4
f 1193/5/4 1194/5/4 1197/5/4
f 1197/5/4 1194/5/4 1198/5/4
f 1199/10/4 1200/10/4 1203/10/4
f 1203/10/4 1200/10/4 1204/10/4
f 1201/5/4 1202/5/4 1205/5/4
f 1205/5/4 1202/5/4 1206/5/4
f 1206/1/4 1207/1/4 1208/1/4
f 1208/1/4 1207/1/4 1209/1/4
f 1211/1/4 1212/1/4 1213/1/4
f 1213/1/4 1212/1/4 1214/1/4
f 1209/1/4 1210/1/4 1216/1/4
f 1216/1/4 1210/1/4 1217/1/4
f 1215/1/4 1216/1/4 1220/1/4
f 1220/1/4 1216/1/4 1221/1/4
f 1218/12/4 1219/12/4 1222/12/4
f 1222/12/4 1219/12/4 1223/12/4
f 1220/12/4 1221/12/4 1224/12/4
f 1224/12/4 1221/12/4 1225/12/4
f 1226/11/4 1227/11/4 1228/11/4
f 1228/11/4 1227/11/4 1229/11/4
f 1230/11/4 1231/11/4 1232/11/4
f 1232/11/4 1231/11/4 1233/11/4
f 1234/11/4 1235/11/4 1236/11/4
f 1236/11/4 1235/11/4 1237/11/4
f 1238/11/4 1239/11/4 1240/11/4
f 1240/11/4 1239/11/4 1241/11/4
f 1242/11/4 1243/11/4 1244/11/4
f 1244/11/4 1243/11/4 1245/11/4
f 1245/1/4 1246/1/4 1247/1/4
f 1247/1/4 1246/1/4 1248/1/4
f 1248/1/4 1249/1/4 1251/1/4
f 1251/1/4 1249/1/4 1252/1/4
f 1250/1/4 1251/1/4 1255/1/4
f 1255/1/4 1251/1/4 1256/1/4
f 1253/12/4 1254/12/4 1257/12/4
f 1257/12/4 1254/12/4 1258/12/4
f 1255/12/4 1256/12/4 1259/12/4
f 1259/12/4 1256/12/4 1260/12/4
f 1261/1/4 1262/1/4 1263/1/4
f 1261/1/4 1263/1/4 1265/1/4
f 1263/1/4 1264/1/4 1265/1/4
f 1265/1/4 1264/1/4 1266/1/4
f 1266/1/4 1264/1/4 1270/1/4
f 1270/1/4 1264/1/4 1271/1/4
f 1271/1/4 1264/1/4 1272/1/4
f 1272/1/4 1264/1/4 1273/1/4
f 1268/1/4 1269/1/4 1274/1/4
f 1267/1/4 1268/1/4 1274/1/4
f 1267/1/4 1274/1/4 1275/1/4
f 1267/1/4 1275/1/4 1276/1/4
f 1267/1/4 1276/1/4 1277/1/4
f 1267/1/4 1277/1/4 1278/1/4
f 1278/1/4 1279/1/4 1282/1/4
f 1267/1/4 1278/1/4 1284/1/4
f 1282/1/4 1283/1/4 1284/1/4
f 1278/1/4 1282/1/4 1284/1/4
f 1284/1/4 1283/1/4 1285/1/4
f 1285/1/4 1283/1/4 1286/1/4
f 1280/1/4 1281/1/4 1287/1/4
f 1287/1/4 1281/1/4 1288/1/4
f 1285/1/4 1286/1/4 1289/1/4
f 1286/1/4 1287/1/4 1289/1/4
f 1289/1/4 1287/1/4 1290/1/4
f 1290/1/4 1287/1/4 1291/1/4
f 1290/12/4 1291/12/4 1292/12/4
f 1292/12/4 1291/12/4 1293/12/4
f 1294/1/4 1295/1/4 1296/1/4
f 1294/1/4 1296/1/4 1298/1/4
f 1296/1/4 1297/1/4 1298/1/4
f 1298/1/4 1297/1/4 1299/1/4
f 1299/1/4 1297/1/4 1300/1/4
f 1299/1/4 1300/1/4 1302/1/4
f 1300/1/4 1301/1/4 1302/1/4
f 1302/1/4 1301/1/4 1303/1/4
f 1303/1/4 1301/1/4 1304/1/4
f 1299/1/4 1302/1/4 1306/1/4
f 1304/1/4 1305/1/4 1307/1/4
f 1303/1/4 1304/1/4 1307/1/4
f 1299/1/4 1306/1/4 1308/1/4
f 1306/1/4 1307/1/4 1308/1/4
f 1308/1/4 1307/1/4 1309/1/4
f 1308/13/4 1309/13/4 1310/13/4
f 1309/1/4 1307/1/4 1310/1/4
f 1310/1/4 1307/1/4 1311/1/4
f 1310/13/4 1311/13/4 1312/13/4
f 1311/1/4 1307/1/4 1312/1/4
f 1307/1/4 1305/1/4 1313/1/4
f 1312/1/4 1307/1/4 1313/1/4
f 1310/13/4 1312/13/4 1314/13/4
f 1308/13/4 1310/13/4 1314/13/4
f 1312/13/4 1313/13/4 1314/13/4
f 1314/13/4 1313/13/4 1315/13/4
f 1315/13/4 1313/13/4 1316/13/4
f 1313/1/4 1305/1/4 1317/1/4
f 1316/13/4 1313/13/4 1317/13/4
f 1317/1/4 1305/1/4 1318/1/4
f 1314/8/4 1315/8/4 1319/8/4
f 1315/13/4 1316/13/4 1320/13/4
f 1319/8/4 1315/8/4 1320/8/4
f 1316/8/4 1317/8/4 1321/8/4
f 1320/13/4 1316/13/4 1321/13/4
f 1317/13/4 1318/13/4 1322/13/4
f 1321/8/4 1317/8/4 1322/8/4
f 1318/1/4 1305/1/4 1323/1/4
f 1322/13/4 1318/13/4 1323/13/4
f 1321/13/4 1322/13/4 1324/13/4
f 1319/13/4 1320/13/4 1324/13/4
f 1320/13/4 1321/13/4 1324/13/4
f 1322/1/4 1323/1/4 1325/1/4
f 1324/13/4 1322/13/4 1325/13/4
f 1319/13/4 1324/13/4 1326/13/4
f 1324/1/4 1325/1/4 1327/1/4
f 1326/13/4 1324/13/4 1327/13/4
f 1319/13/4 1326/13/4 1328/13/4
f 1326/1/4 1327/1/4 1329/1/4
f 1328/13/4 1326/13/4 1329/13/4
f 1328/1/4 1329/1/4 1330/1/4
f 1329/1/4 1327/1/4 1331/1/4
f 1330/1/4 1329/1/4 1331/1/4
f 1323/1/4 1305/1/4 1332/1/4
f 1331/1/4 1327/1/4 1332/1/4
f 1325/1/4 1323/1/4 1332/1/4
f 1327/1/4 1325/1/4 1332/1/4
f 1332/1/4 1305/1/4 1333/1/4
f 1331/1/4 1332/1/4 1334/1/4
f 1334/1/4 1332/1/4 1335/1/4
f 1335/1/4 1332/1/4 1336/1/4
f 1336/1/4 1332/1/4 1337/1/4
f 1338/9/4 1339/9/4 1340/9/4
f 1340/9/4 1339/9/4 1341/9/4
f 1341/9/4 1339/9/4 1342/9/4
f 1342/9/4 1339/9/4 1343/9/4
f 1344/9/4 1345/9/4 1346/9/4
f 1346/9/4 1345/9/4 1347/9/4
f 1348/1/4 1349/1/4 1350/1/4
f 1350/1/4 1349/1/4 1351/1/4
f 1350/12/4 1351/12/4 1352/12/4
f 1352/12/4 1351/12/4 1353/12/4
f 1354/12/4 1355/12/4 1356/12/4
f 1356/12/4 1355/12/4 1357/12/4
f 1356/1/4 1357/1/4 1358/1/4
f 1358/1/4 1357/1/4 1359/1/4
f 1358/12/4 1359/12/4 1360/12/4
f 1360/12/4 1359/12/4 1361/12/4
f 1362/12/4 1363/12/4 1364/12/4
f 1364/12/4 1363/12/4 1365/12/4
f 1364/1/4 1365/1/4 1366/1/4
f 1366/1/4 1365/1/4 1367/1/4
f 1366/12/4 1367/12/4 1368/12/4
f 1368/12/4 1367/12/4 1369/12/4
f 1370/12/4 1371/12/4 1372/12/4
f 1372/12/4 1371/12/4 1373/12/4
f 1376/12/5 1375/12/5 1374/12/5
f 1377/12/5 1375/12/5 1376/12/5
f 1378/12/5 1376/12/5 1374/12/5
f 1379/1/5 1377/1/5 1376/1/5
f 1379/12/5 1376/12/5 1378/12/5
f 1380/12/5 1375/12/5 1377/12/5
f 1380/1/5 1377/1/5 1379/1/5
f 1381/12/5 1375/12/5 1380/12/5
f 1386/12/5 1383/12/5 1382/12/5
f 1386/1/5 1384/1/5 1383/1/5
f 1387/12/5 1385/12/5 1384/12/5
f 1387/1/5 1384/1/5 1386/1/5
f 1388/12/5 1386/12/5 1382/12/5
f 1388/12/5 1387/12/5 1386/12/5
f 1389/12/5 1385/12/5 1387/12/5
f 1389/12/5 1387/12/5 1388/12/5
f 1394/12/5 1391/12/5 1390/12/5
f 1395/1/5 1392/1/5 1391/1/5
f 1395/12/5 1391/12/5 1394/12/5
f 1396/12/5 1393/12/5 1392/12/5
f 1396/1/5 1392/1/5 1395/1/5
f 1397/12/5 1393/12/5 1396/12/5
f 1402/12/5 1399/12/5 1398/12/5
f 1403/1/5 1400/1/5 1399/1/5
f 1403/12/5 1399/12/5 1402/12/5
f 1404/12/5 1401/12/5 1400/12/5
f 1404/1/5 1400/1/5 1403/1/5
f 1405/12/5 1401/12/5 1404/12/5
f 1410/12/5 1407/12/5 1406/12/5
f 1411/1/5 1408/1/5 1407/1/5
f 1411/12/5 1407/12/5 1410/12/5
f 1412/12/5 1409/12/5 1408/12/5
f 1412/1/5 1408/1/5 1411/1/5
f 1413/12/5 1409/12/5 1412/12/5
f 1418/12/5 1415/12/5 1414/12/5
f 1419/1/5 1416/1/5 1415/1/5
f 1419/12/5 1415/12/5 1418/12/5
f 1420/12/5 1417/12/5 1416/12/5
f 1420/1/5 1416/1/5 1419/1/5
f 1421/12/5 1417/12/5 1420/12/5
f 1426/9/5 1423/9/5 1422/9/5
f 1427/9/5 1425/9/5 1424/9/5
f 1431/9/5 1425/9/5 1427/9/5
f 1431/9/5 1427/9/5 1426/9/5
f 1432/9/5 1425/9/5 1431/9/5
f 1433/9/5 1426/9/5 1422/9/5
f 1433/9/5 1431/9/5 1426/9/5
f 1434/9/5 1431/9/5 1433/9/5
f 1435/1/5 1429/1/5 1428/1/5
f 1436/12/5 1430/12/5 1429/12/5
f 1436/1/5 1429/1/5 1435/1/5
f 1437/12/5 1430/12/5 1436/12/5
f 1443/9/5 1439/9/5 1438/9/5
f 1445/9/5 1443/9/5 1438/9/5
f 1445/9/5 1444/9/5 1443/9/5
f 1446/9/5 1444/9/5 1445/9/5
f 1447/1/5 1441/1/5 1440/1/5
f 1448/12/5 1442/12/5 1441/12/5
f 1448/1/5 1441/1/5 1447/1/5
f 1449/12/5 1442/12/5 1448/12/5
f 1450/9/5 1445/9/5 1438/9/5
f 1451/9/5 1445/9/5 1450/9/5
f 1452/9/5 1444/9/5 1446/9/5
f 1453/9/5 1444/9/5 1452/9/5
f 1456/9/5 1455/9/5 1454/9/5
f 1457/9/5 1455/9/5 1456/9/5
f 1459/1/5 1457/1/5 1456/1/5
f 1459/1/5 1458/1/5 1457/1/5
f 1460/1/5 1458/1/5 1459/1/5
f 1463/1/5 1462/1/5 1461/1/5
f 1464/1/5 1462/1/5 1463/1/5
f 1465/1/5 1462/1/5 1464/1/5
f 1466/9/5 1464/9/5 1463/9/5
f 1467/9/5 1464/9/5 1466/9/5
f 1471/1/5 1469/1/5 1468/1/5
f 1471/1/5 1470/1/5 1469/1/5
f 1473/1/5 1471/1/5 1468/1/5
f 1473/12/5 1472/12/5 1471/12/5
f 1474/12/5 1472/12/5 1473/12/5
f 1475/1/5 1473/1/5 1468/1/5
f 1476/1/5 1473/1/5 1475/1/5
f 1477/1/5 1473/1/5 1476/1/5
f 1484/1/5 1479/1/5 1478/1/5
f 1485/13/5 1480/13/5 1479/13/5
f 1485/1/5 1479/1/5 1484/1/5
f 1486/8/5 1481/8/5 1480/8/5
f 1486/13/5 1480/13/5 1485/13/5
f 1487/13/5 1482/13/5 1481/13/5
f 1487/8/5 1481/8/5 1486/8/5
f 1488/1/5 1483/1/5 1482/1/5
f 1488/13/5 1482/13/5 1487/13/5
f 1489/1/5 1483/1/5 1488/1/5
f 1492/12/5 1491/12/5 1490/12/5
f 1493/12/5 1491/12/5 1492/12/5
f 1496/5/5 1495/5/5 1494/5/5
f 1497/5/5 1495/5/5 1496/5/5
f 1500/12/5 1499/12/5 1498/12/5
f 1501/12/5 1499/12/5 1500/12/5
f 1508/1/5 1503/1/5 1502/1/5
f 1509/13/5 1504/13/5 1503/13/5
f 1509/1/5 1503/1/5 1508/1/5
f 1510/8/5 1505/8/5 1504/8/5
f 1510/13/5 1504/13/5 1509/13/5
f 1511/13/5 1506/13/5 1505/13/5
f 1511/8/5 1505/8/5 1510/8/5
f 1512/1/5 1507/1/5 1506/1/5
f 1512/13/5 1506/13/5 1511/13/5
f 1513/1/5 1507/1/5 1512/1/5
f 1516/1/5 1515/1/5 1514/1/5
f 1517/1/5 1515/1/5 1516/1/5
f 1520/12/5 1519/12/5 1518/12/5
f 1521/12/5 1519/12/5 1520/12/5
f 1532/10/5 1523/10/5 1522/10/5
f 1533/10/5 1523/10/5 1532/10/5
f 1534/10/5 1525/10/5 1524/10/5
f 1535/10/5 1525/10/5 1534/10/5
f 1536/10/5 1527/10/5 1526/10/5
f 1537/10/5 1527/10/5 1536/10/5
f 1538/10/5 1529/10/5 1528/10/5
f 1539/1/5 1530/1/5 1529/1/5
f 1539/10/5 1529/10/5 1538/10/5
f 1540/10/5 1531/10/5 1530/10/5
f 1540/1/5 1530/1/5 1539/1/5
f 1541/10/5 1531/10/5 1540/10/5
f 1560/3/5 1543/3/5 1542/3/5
f 1561/2/5 1544/2/5 1543/2/5
f 1561/3/5 1543/3/5 1560/3/5
f 1562/3/5 1545/3/5 1544/3/5
f 1562/2/5 1544/2/5 1561/2/5
f 1563/2/5 1546/2/5 1545/2/5
f 1563/3/5 1545/3/5 1562/3/5
f 1564/3/5 1547/3/5 1546/3/5
f 1564/2/5 1546/2/5 1563/2/5
f 1565/2/5 1548/2/5 1547/2/5
f 1565/3/5 1547/3/5 1564/3/5
f 1566/3/5 1549/3/5 1548/3/5
f 1566/2/5 1548/2/5 1565/2/5
f 1567/3/5 1549/3/5 1566/3/5
f 1568/10/5 1551/10/5 1550/10/5
f 1569/10/5 1551/10/5 1568/10/5
f 1570/10/5 1553/10/5 1552/10/5
f 1571/10/5 1553/10/5 1570/10/5
f 1572/10/5 1555/10/5 1554/10/5
f 1573/10/5 1555/10/5 1572/10/5
f 1574/10/5 1557/10/5 1556/10/5
f 1575/10/5 1557/10/5 1574/10/5
f 1576/10/5 1559/10/5 1558/10/5
f 1577/10/5 1559/10/5 1576/10/5
f 1582/12/5 1579/12/5 1578/12/5
f 1583/12/5 1579/12/5 1582/12/5
f 1584/1/5 1581/1/5 1580/1/5
f 1585/1/5 1581/1/5 1584/1/5
f 1588/1/5 1587/1/5 1586/1/5
f 1589/1/5 1587/1/5 1588/1/5
f 1600/11/5 1591/11/5 1590/11/5
f 1601/11/5 1591/11/5 1600/11/5
f 1602/11/5 1593/11/5 1592/11/5
f 1603/11/5 1593/11/5 1602/11/5
f 1604/11/5 1595/11/5 1594/11/5
f 1605/11/5 1595/11/5 1604/11/5
f 1606/11/5 1597/11/5 1596/11/5
f 1607/1/5 1598/1/5 1597/1/5
f 1607/11/5 1597/11/5 1606/11/5
f 1608/11/5 1599/11/5 1598/11/5
f 1608/1/5 1598/1/5 1607/1/5
f 1609/11/5 1599/11/5 1608/11/5
f 1622/7/5 1611/7/5 1610/7/5
f 1623/4/5 1620/4/5 1619/4/5
f 1623/7/5 1611/7/5 1622/7/5
f 1623/4/5 1621/4/5 1620/4/5
f 1623/4/5 1619/4/5 1618/4/5
f 1623/4/5 1618/4/5 1617/4/5
f 1623/4/5 1617/4/5 1616/4/5
f 1623/4/5 1616/4/5 1615/4/5
f 1623/4/5 1615/4/5 1614/4/5
f 1623/4/5 1614/4/5 1613/4/5
f 1623/4/5 1613/4/5 1612/4/5
f 1623/4/5 1612/4/5 1611/4/5
f 1624/4/5 1621/4/5 1623/4/5
f 1625/4/5 1621/4/5 1624/4/5
f 1626/4/5 1621/4/5 1625/4/5
f 1627/4/5 1621/4/5 1626/4/5
f 1628/4/5 1621/4/5 1627/4/5
f 1629/4/5 1621/4/5 1628/4/5
f 1630/4/5 1621/4/5 1629/4/5
f 1631/4/5 1621/4/5 1630/4/5
f 1632/4/5 1621/4/5 1631/4/5
f 1633/4/5 1621/4/5 1632/4/5
f 1644/11/5 1635/11/5 1634/11/5
f 1645/11/5 1635/11/5 1644/11/5
f 1646/11/5 1637/11/5 1636/11/5
f 1647/11/5 1637/11/5 1646/11/5
f 1648/11/5 1639/11/5 1638/11/5
f 1649/11/5 1639/11/5 1648/11/5
f 1650/11/5 1641/11/5 1640/11/5
f 1651/11/5 1641/11/5 1650/11/5
f 1652/11/5 1643/11/5 1642/11/5
f 1653/11/5 1643/11/5 1652/11/5
f 1656/1/5 1655/1/5 1654/1/5
f 1657/1/5 1655/1/5 1656/1/5
f 1660/1/5 1659/1/5 1658/1/5
f 1661/1/5 1659/1/5 1660/1/5
f 1664/1/5 1663/1/5 1662/1/5
f 1665/1/5 1663/1/5 1664/1/5
f 1669/1/5 1667/1/5 1666/1/5
f 1670/1/5 1667/1/5 1669/1/5
f 1674/6/5 1673/6/5 1672/6/5
f 1675/6/5 1673/6/5 1674/6/5
f 1676/1/5 1669/1/5 1668/1/5
f 1676/1/5 1670/1/5 1669/1/5
f 1676/1/5 1671/1/5 1670/1/5
f 1677/1/5 1671/1/5 1676/1/5
f 1678/1/5 1671/1/5 1677/1/5
f 1679/1/5 1671/1/5 1678/1/5
f 1680/1/5 1678/1/5 1677/1/5
f 1681/1/5 1678/1/5 1680/1/5
f 1693/5/5 1683/5/5 1682/5/5
f 1694/5/5 1683/5/5 1693/5/5
f 1695/5/5 1683/5/5 1694/5/5
f 1696/5/5 1685/5/5 1684/5/5
f 1697/5/5 1685/5/5 1696/5/5
f 1698/5/5 1687/5/5 1686/5/5
f 1699/5/5 1687/5/5 1698/5/5
f 1700/5/5 1689/5/5 1688/5/5
f 1701/1/5 1690/1/5 1689/1/5
f 1701/5/5 1689/5/5 1700/5/5
f 1702/5/5 1691/5/5 1690/5/5
f 1702/1/5 1690/1/5 1701/1/5
f 1703/1/5 1692/1/5 1691/1/5
f 1703/5/5 1691/5/5 1702/5/5
f 1704/1/5 1692/1/5 1703/1/5
f 1717/5/5 1706/5/5 1705/5/5
f 1717/5/5 1707/5/5 1706/5/5
f 1718/5/5 1707/5/5 1717/5/5
f 1719/5/5 1709/5/5 1708/5/5
f 1720/5/5 1709/5/5 1719/5/5
f 1721/5/5 1711/5/5 1710/5/5
f 1722/5/5 1711/5/5 1721/5/5
f 1723/5/5 1713/5/5 1712/5/5
f 1724/5/5 1713/5/5 1723/5/5
f 1725/5/5 1715/5/5 1714/5/5
f 1726/1/5 1716/1/5 1715/1/5
f 1726/5/5 1715/5/5 1725/5/5
f 1727/1/5 1716/1/5 1726/1/5
f 1739/1/5 1729/1/5 1728/1/5
f 1739/1/5 1738/1/5 1737/1/5
f 1739/1/5 1737/1/5 1736/1/5
f 1739/1/5 1736/1/5 1735/1/5
f 1739/1/5 1735/1/5 1734/1/5
f 1739/1/5 1734/1/5 1733/1/5
f 1739/1/5 1733/1/5 1732/1/5
f 1739/1/5 1732/1/5 1731/1/5
f 1739/1/5 1731/1/5 1730/1/5
f 1739/1/5 1730/1/5 1729/1/5
f 1740/1/5 1738/1/5 1739/1/5
f 1741/1/5 1738/1/5 1740/1/5
f 1742/1/5 1738/1/5 1741/1/5
f 1743/1/5 1738/1/5 1742/1/5
f 1744/1/5 1738/1/5 1743/1/5
f 1745/1/5 1738/1/5 1744/1/5
f 1746/1/5 1738/1/5 1745/1/5
f 1747/1/5 1738/1/5 1746/1/5
f 1748/1/5 1738/1/5 1747/1/5
f 1749/1/5 1738/1/5 1748/1/5
f 1750/12/6 1751/12/6 1752/12/6
f 1752/12/6 1751/12/6 1753/12/6
f 1750/12/6 1752/12/6 1754/12/6
f 1752/1/6 1753/1/6 1755/1/6
f 1754/12/6 1752/12/6 1755/12/6
f 1753/12/6 1751/12/6 1756/12/6
f 1755/1/6 1753/1/6 1756/1/6
f 1756/12/6 1751/12/6 1757/12/6
f 1758/12/6 1759/12/6 1762/12/6
f 1759/1/6 1760/1/6 1762/1/6
f 1760/12/6 1761/12/6 1763/12/6
f 1762/1/6 1760/1/6 1763/1/6
f 1758/12/6 1762/12/6 1764/12/6
f 1762/12/6 1763/12/6 1764/12/6
f 1763/12/6 1761/12/6 1765/12/6
f 1764/12/6 1763/12/6 1765/12/6
f 1766/12/6 1767/12/6 1770/12/6
f 1767/1/6 1768/1/6 1771/1/6
f 1770/12/6 1767/12/6 1771/12/6
f 1768/12/6 1769/12/6 1772/12/6
f 1771/1/6 1768/1/6 1772/1/6
f 1772/12/6 1769/12/6 1773/12/6
f 1774/1/6 1775/1/6 1777/1/6
f 1777/1/6 1775/1/6 1778/1/6
f 1777/12/6 1778/12/6 1779/12/6
f 1778/1/6 1775/1/6 1779/1/6
f 1779/1/6 1775/1/6 1780/1/6
f 1780/1/6 1775/1/6 1781/1/6
f 1775/12/6 1776/12/6 1782/12/6
f 1781/1/6 1775/1/6 1782/1/6
f 1782/12/6 1776/12/6 1783/12/6
f 1777/12/6 1779/12/6 1784/12/6
f 1784/12/6 1779/12/6 1785/12/6
f 1780/1/6 1781/1/6 1789/1/6
f 1786/12/6 1787/12/6 1790/12/6
f 1790/12/6 1787/12/6 1791/12/6
f 1788/1/6 1789/1/6 1792/1/6
f 1789/1/6 1781/1/6 1793/1/6
f 1792/1/6 1789/1/6 1793/1/6
f 1794/12/6 1795/12/6 1798/12/6
f 1798/12/6 1795/12/6 1799/12/6
f 1796/1/6 1797/1/6 1800/1/6
f 1800/1/6 1797/1/6 1801/1/6
f 1802/12/6 1803/12/6 1804/12/6
f 1801/1/6 1797/1/6 1805/1/6
f 1805/1/6 1797/1/6 1806/1/6
f 1802/12/6 1804/12/6 1809/12/6
f 1805/1/6 1806/1/6 1810/1/6
f 1809/12/6 1804/12/6 1810/12/6
f 1804/1/6 1805/1/6 1810/1/6
f 1806/1/6 1807/1/6 1810/1/6
f 1807/12/6 1808/12/6 1811/12/6
f 1810/1/6 1807/1/6 1811/1/6
f 1811/12/6 1808/12/6 1812/12/6
f 1813/9/6 1814/9/6 1815/9/6
f 1815/9/6 1814/9/6 1816/9/6
f 1817/9/6 1818/9/6 1819/9/6
f 1819/9/6 1818/9/6 1820/9/6
f 1824/9/6 1825/9/6 1826/9/6
f 1826/9/6 1825/9/6 1827/9/6
f 1821/1/6 1822/1/6 1828/1/6
f 1822/12/6 1823/12/6 1829/12/6
f 1828/1/6 1822/1/6 1829/1/6
f 1829/12/6 1823/12/6 1830/12/6
f 1830/12/6 1823/12/6 1831/12/6
f 1832/12/6 1833/12/6 1835/12/6
f 1836/9/6 1837/9/6 1838/9/6
f 1838/9/6 1837/9/6 1839/9/6
f 1834/1/6 1835/1/6 1840/1/6
f 1835/12/6 1833/12/6 1841/12/6
f 1840/1/6 1835/1/6 1841/1/6
f 1841/12/6 1833/12/6 1842/12/6
f 1843/1/6 1844/1/6 1846/1/6
f 1846/1/6 1844/1/6 1847/1/6
f 1845/1/6 1846/1/6 1849/1/6
f 1847/1/6 1848/1/6 1849/1/6
f 1846/1/6 1847/1/6 1849/1/6
f 1849/1/6 1848/1/6 1850/1/6
f 1850/1/6 1848/1/6 1851/1/6
f 1851/1/6 1848/1/6 1852/1/6
f 1850/1/6 1851/1/6 1853/1/6
f 1853/1/6 1851/1/6 1854/1/6
f 1855/1/6 1856/1/6 1859/1/6
f 1859/1/6 1856/1/6 1860/1/6
f 1857/1/6 1858/1/6 1861/1/6
f 1861/1/6 1858/1/6 1862/1/6
f 1863/5/6 1864/5/6 1874/5/6
f 1864/5/6 1865/5/6 1874/5/6
f 1871/5/6 1872/5/6 1874/5/6
f 1870/5/6 1871/5/6 1874/5/6
f 1869/5/6 1870/5/6 1874/5/6
f 1868/5/6 1869/5/6 1874/5/6
f 1867/5/6 1868/5/6 1874/5/6
f 1866/5/6 1867/5/6 1874/5/6
f 1865/5/6 1866/5/6 1874/5/6
f 1874/5/6 1872/5/6 1875/5/6
f 1875/5/6 1872/5/6 1876/5/6
f 1876/5/6 1872/5/6 1877/5/6
f 1877/5/6 1872/5/6 1878/5/6
f 1878/5/6 1872/5/6 1879/5/6
f 1879/5/6 1872/5/6 1880/5/6
f 1880/5/6 1872/5/6 1881/5/6
f 1881/5/6 1872/5/6 1882/5/6
f 1872/1/6 1873/1/6 1883/1/6
f 1882/5/6 1872/5/6 1883/5/6
f 1883/1/6 1873/1/6 1884/1/6
f 1887/1/6 1888/1/6 1889/1/6
f 1889/1/6 1888/1/6 1890/1/6
f 1885/1/6 1886/1/6 1891/1/6
f 1891/1/6 1886/1/6 1892/1/6
f 1893/1/6 1894/1/6 1906/1/6
f 1906/1/6 1894/1/6 1907/1/6
f 1895/10/6 1896/10/6 1909/10/6
f 1909/10/6 1896/10/6 1910/10/6
f 1910/10/6 1896/10/6 1911/10/6
f 1897/10/6 1898/10/6 1912/10/6
f 1912/10/6 1898/10/6 1913/10/6
f 1899/10/6 1900/10/6 1914/10/6
f 1914/10/6 1900/10/6 1915/10/6
f 1901/10/6 1902/10/6 1916/10/6
f 1902/1/6 1903/1/6 1917/1/6
f 1916/10/6 1902/10/6 1917/10/6
f 1903/10/6 1904/10/6 1918/10/6
f 1917/1/6 1903/1/6 1918/1/6
f 1904/1/6 1905/1/6 1919/1/6
f 1918/10/6 1904/10/6 1919/10/6
f 1919/1/6 1905/1/6 1920/1/6
f 1908/6/6 1909/6/6 1921/6/6
f 1921/6/6 1909/6/6 1922/6/6
f 1922/10/6 1923/10/6 1934/10/6
f 1923/10/6 1924/10/6 1934/10/6
f 1934/10/6 1924/10/6 1935/10/6
f 1925/10/6 1926/10/6 1936/10/6
f 1936/10/6 1926/10/6 1937/10/6
f 1927/10/6 1928/10/6 1938/10/6
f 1938/10/6 1928/10/6 1939/10/6
f 1929/10/6 1930/10/6 1940/10/6
f 1940/10/6 1930/10/6 1941/10/6
f 1931/10/6 1932/10/6 1942/10/6
f 1932/1/6 1933/1/6 1943/1/6
f 1942/10/6 1932/10/6 1943/10/6
f 1943/1/6 1933/1/6 1944/1/6
f 1945/1/6 1946/1/6 1947/1/6
f 1947/1/6 1946/1/6 1948/1/6
f 1949/3/6 1950/3/6 1957/3/6
f 1950/2/6 1951/2/6 1958/2/6
f 1957/3/6 1950/3/6 1958/3/6
f 1951/3/6 1952/3/6 1959/3/6
f 1958/2/6 1951/2/6 1959/2/6
f 1952/2/6 1953/2/6 1960/2/6
f 1959/3/6 1952/3/6 1960/3/6
f 1953/3/6 1954/3/6 1961/3/6
f 1960/2/6 1953/2/6 1961/2/6
f 1954/2/6 1955/2/6 1962/2/6
f 1961/3/6 1954/3/6 1962/3/6
f 1955/3/6 1956/3/6 1963/3/6
f 1962/2/6 1955/2/6 1963/2/6
f 1963/3/6 1956/3/6 1964/3/6
f 1965/1/6 1966/1/6 1967/1/6
f 1967/1/6 1966/1/6 1968/1/6
f 1969/1/6 1970/1/6 1971/1/6
f 1971/1/6 1970/1/6 1972/1/6
f 1973/1/6 1974/1/6 1979/1/6
f 1979/1/6 1974/1/6 1980/1/6
f 1975/1/6 1976/1/6 1981/1/6
f 1981/1/6 1976/1/6 1982/1/6
f 1977/1/6 1978/1/6 1994/1/6
f 1994/1/6 1978/1/6 1995/1/6
f 1982/1/6 1983/1/6 1996/1/6
f 1983/12/6 1984/12/6 1997/12/6
f 1996/1/6 1983/1/6 1997/1/6
f 1997/12/6 1984/12/6 1998/12/6
f 1985/11/6 1986/11/6 1999/11/6
f 1999/11/6 1986/11/6 2000/11/6
f 1987/11/6 1988/11/6 2001/11/6
f 2001/11/6 1988/11/6 2002/11/6
f 1989/11/6 1990/11/6 2003/11/6
f 2003/11/6 1990/11/6 2004/11/6
f 1991/11/6 1992/11/6 2005/11/6
f 1992/1/6 1993/1/6 2006/1/6
f 2005/11/6 1992/11/6 2006/11/6
f 1993/11/6 1994/11/6 2007/11/6
f 2006/1/6 1993/1/6 2007/1/6
f 2007/11/6 1994/11/6 2008/11/6
f 2009/6/6 2010/6/6 2021/6/6
f 2018/4/6 2019/4/6 2022/4/6
f 2021/6/6 2010/6/6 2022/6/6
f 2019/4/6 2020/4/6 2022/4/6
f 2017/4/6 2018/4/6 2022/4/6
f 2016/4/6 2017/4/6 2022/4/6
f 2015/4/6 2016/4/6 2022/4/6
f 2014/4/6 2015/4/6 2022/4/6
f 2013/4/6 2014/4/6 2022/4/6
f 2012/4/6 2013/4/6 2022/4/6
f 2011/4/6 2012/4/6 2022/4/6
f 2010/4/6 2011/4/6 2022/4/6
f 2022/4/6 2020/4/6 2023/4/6
f 2023/4/6 2020/4/6 2024/4/6
f 2024/4/6 2020/4/6 2025/4/6
f 2025/4/6 2020/4/6 2026/4/6
f 2026/4/6 2020/4/6 2027/4/6
f 2027/4/6 2020/4/6 2028/4/6
f 2028/4/6 2020/4/6 2029/4/6
f 2029/4/6 2020/4/6 2030/4/6
f 2030/4/6 2020/4/6 2031/4/6
f 2031/4/6 2020/4/6 2032/4/6
f 2033/11/6 2034/11/6 2043/11/6
f 2043/11/6 2034/11/6 2044/11/6
f 2035/11/6 2036/11/6 2045/11/6
f 2045/11/6 2036/11/6 2046/11/6
f 2037/11/6 2038/11/6 2047/11/6
f 2047/11/6 2038/11/6 2048/11/6
f 2039/11/6 2040/11/6 2049/11/6
f 2049/11/6 2040/11/6 2050/11/6
f 2041/11/6 2042/11/6 2051/11/6
f 2051/11/6 2042/11/6 2052/11/6
f 2052/1/6 2053/1/6 2057/1/6
f 2057/1/6 2053/1/6 2058/1/6
f 2054/1/6 2055/1/6 2062/1/6
f 2055/12/6 2056/12/6 2063/12/6
f 2062/1/6 2055/1/6 2063/1/6
f 2063/12/6 2056/12/6 2064/12/6
f 2059/1/6 2060/1/6 2065/1/6
f 2065/1/6 2060/1/6 2066/1/6
f 2061/1/6 2062/1/6 2067/1/6
f 2067/1/6 2062/1/6 2068/1/6
f 2069/1/6 2070/1/6 2072/1/6
f 2072/1/6 2070/1/6 2073/1/6
f 2071/1/6 2072/1/6 2076/1/6
f 2073/1/6 2074/1/6 2076/1/6
f 2072/1/6 2073/1/6 2076/1/6
f 2076/1/6 2074/1/6 2077/1/6
f 2075/1/6 2076/1/6 2089/1/6
f 2089/1/6 2076/1/6 2090/1/6
f 2077/1/6 2078/1/6 2091/1/6
f 2078/12/6 2079/12/6 2092/12/6
f 2091/1/6 2078/1/6 2092/1/6
f 2092/12/6 2079/12/6 2093/12/6
f 2080/5/6 2081/5/6 2094/5/6
f 2094/5/6 2081/5/6 2095/5/6
f 2082/5/6 2083/5/6 2096/5/6
f 2096/5/6 2083/5/6 2097/5/6
f 2084/5/6 2085/5/6 2098/5/6
f 2098/5/6 2085/5/6 2099/5/6
f 2086/5/6 2087/5/6 2100/5/6
f 2087/1/6 2088/1/6 2101/1/6
f 2100/5/6 2087/5/6 2101/5/6
f 2088/5/6 2089/5/6 2102/5/6
f 2101/1/6 2088/1/6 2102/1/6
f 2102/5/6 2089/5/6 2103/5/6
f 2104/5/6 2105/5/6 2114/5/6
f 2114/5/6 2105/5/6 2115/5/6
f 2106/5/6 2107/5/6 2116/5/6
f 2116/5/6 2107/5/6 2117/5/6
f 2108/5/6 2109/5/6 2118/5/6
f 2118/5/6 2109/5/6 2119/5/6
f 2110/5/6 2111/5/6 2120/5/6
f 2120/5/6 2111/5/6 2121/5/6
f 2112/5/6 2113/5/6 2122/5/6
f 2122/5/6 2113/5/6 2123/5/6
f 2123/1/6 2124/1/6 2128/1/6
f 2128/1/6 2124/1/6 2129/1/6
f 2125/1/6 2126/1/6 2130/1/6
f 2126/12/6 2127/12/6 2131/12/6
f 2130/1/6 2126/1/6 2131/1/6
f 2131/12/6 2127/12/6 2132/12/6
f 2129/1/6 2130/1/6 2133/1/6
f 2133/1/6 2130/1/6 2134/1/6
f 2134/1/6 2130/1/6 2135/1/6
f 2135/1/6 2130/1/6 2136/1/6
f 2134/1/6 2135/1/6 2137/1/6
f 2137/1/6 2135/1/6 2138/1/6
f 2139/1/6 2140/1/6 2142/1/6
f 2142/1/6 2140/1/6 2143/1/6
f 2141/1/6 2142/1/6 2147/1/6
f 2146/1/6 2147/1/6 2148/1/6
f 2147/1/6 2142/1/6 2149/1/6
f 2148/1/6 2147/1/6 2149/1/6
f 2149/1/6 2142/1/6 2150/1/6
f 2150/1/6 2142/1/6 2151/1/6
f 2143/1/6 2144/1/6 2152/1/6
f 2144/12/6 2145/12/6 2153/12/6
f 2152/1/6 2144/1/6 2153/1/6
f 2153/12/6 2145/12/6 2154/12/6
f 2151/1/6 2152/1/6 2155/1/6
f 2155/1/6 2152/1/6 2156/1/6
f 2157/1/6 2158/1/6 2159/1/6
f 2159/1/6 2158/1/6 2160/1/6
