# MagicaVoxel @ Ephtracy

# group
o 

# material
mtllib пушка электро.mtl
usemtl palette

# normals
vn -1 0 0
vn 1 0 0
vn 0 0 1
vn 0 0 -1
vn 0 -1 0
vn 0 1 0

# texcoords
vt 0.00976563 0.5
vt 0.0332031 0.5
vt 0.0371094 0.5
vt 0.115234 0.5
vt 0.166016 0.5
vt 0.169922 0.5
vt 0.173828 0.5
vt 0.177734 0.5
vt 0.193359 0.5
vt 0.197266 0.5
vt 0.201172 0.5
vt 0.205078 0.5
vt 0.208984 0.5

# verts
v -3 1.5 0.1
v -3 1.5 -0.1
v -3 1.6 0.2
v -3 1.6 0.1
v -3 1.6 -0.1
v -3 1.6 -0.2
v -3 1.7 0.3
v -3 1.7 0.2
v -3 1.7 0.1
v -3 1.7 -0.1
v -3 1.7 -0.2
v -3 1.7 -0.3
v -3 1.9 0.1
v -3 1.9 -0.1
v -3 2 0.3
v -3 2 0.2
v -3 2 0.1
v -3 2 -0.1
v -3 2 -0.2
v -3 2 -0.3
v -3 2.1 0.2
v -3 2.1 0.1
v -3 2.1 -0.1
v -3 2.1 -0.2
v -3 2.2 0.1
v -3 2.2 -0.1
v -2.9 1.7 0.1
v -2.9 1.7 -0.1
v -2.9 1.9 0.1
v -2.9 1.9 -0.1
v -2.6 1.6 0.2
v -2.6 1.6 0.1
v -2.6 1.6 -0.1
v -2.6 1.6 -0.2
v -2.6 1.7 0.3
v -2.6 1.7 0.2
v -2.6 1.7 0.1
v -2.6 1.7 -0.1
v -2.6 1.7 -0.2
v -2.6 1.7 -0.3
v -2.6 2 0.3
v -2.6 2 0.2
v -2.6 2 0.1
v -2.6 2 -0.1
v -2.6 2 -0.2
v -2.6 2 -0.3
v -2.6 2.1 0.2
v -2.6 2.1 0.1
v -2.6 2.1 -0.1
v -2.6 2.1 -0.2
v -2.1 1.6 0.2
v -2.1 1.6 0.1
v -2.1 1.6 -0.1
v -2.1 1.6 -0.2
v -2.1 1.7 0.3
v -2.1 1.7 0.2
v -2.1 1.7 0.1
v -2.1 1.7 -0.1
v -2.1 1.7 -0.2
v -2.1 1.7 -0.3
v -2.1 2 0.3
v -2.1 2 0.2
v -2.1 2 0.1
v -2.1 2 -0.1
v -2.1 2 -0.2
v -2.1 2 -0.3
v -2.1 2.1 0.2
v -2.1 2.1 0.1
v -2.1 2.1 -0.1
v -2.1 2.1 -0.2
v -1.6 1.6 0.2
v -1.6 1.6 0.1
v -1.6 1.6 -0.1
v -1.6 1.6 -0.2
v -1.6 1.7 0.3
v -1.6 1.7 0.2
v -1.6 1.7 0.1
v -1.6 1.7 -0.1
v -1.6 1.7 -0.2
v -1.6 1.7 -0.3
v -1.6 2 0.3
v -1.6 2 0.2
v -1.6 2 0.1
v -1.6 2 -0.1
v -1.6 2 -0.2
v -1.6 2 -0.3
v -1.6 2.1 0.2
v -1.6 2.1 0.1
v -1.6 2.1 -0.1
v -1.6 2.1 -0.2
v -1.2 1.6 -0.1
v -1.2 1.6 -0.2
v -1.2 1.7 -0.1
v -1.2 1.7 -0.2
v -1.2 1.7 -0.3
v -1.2 2 -0.1
v -1.2 2 -0.2
v -1.2 2 -0.3
v -1.2 2.1 -0.1
v -1.2 2.1 -0.2
v -1.1 0 1.5
v -1.1 0 1.2
v -1.1 0 -1.2
v -1.1 0 -1.5
v -1.1 0.3 1.2
v -1.1 0.3 0.7
v -1.1 0.3 -0.7
v -1.1 0.3 -1.2
v -1.1 0.4 1.5
v -1.1 0.4 1.3
v -1.1 0.4 0.7
v -1.1 0.4 0.6
v -1.1 0.4 -0.6
v -1.1 0.4 -0.7
v -1.1 0.4 -1.3
v -1.1 0.4 -1.5
v -1.1 0.5 1.3
v -1.1 0.5 1.2
v -1.1 0.5 -1.2
v -1.1 0.5 -1.3
v -1.1 0.6 1.3
v -1.1 0.6 1.2
v -1.1 0.6 0.8
v -1.1 0.6 0.7
v -1.1 0.6 0.6
v -1.1 0.6 -0.6
v -1.1 0.6 -0.7
v -1.1 0.6 -0.8
v -1.1 0.6 -1.2
v -1.1 1.1 0.7
v -1.1 1.1 0.3
v -1.1 1.1 -0.3
v -1.1 1.1 -0.7
v -1.1 1.4 0.8
v -1.1 1.4 0.5
v -1.1 1.4 0.3
v -1.1 1.4 -0.3
v -1.1 1.4 -0.5
v -1.1 1.4 -0.8
v -1.1 1.5 0.1
v -1.1 1.5 -0.1
v -1.1 1.6 0.5
v -1.1 1.6 0.4
v -1.1 1.6 0.2
v -1.1 1.6 0.1
v -1.1 1.6 -0.1
v -1.1 1.6 -0.2
v -1.1 1.6 -0.4
v -1.1 1.6 -0.5
v -1.1 1.7 0.3
v -1.1 1.7 0.2
v -1.1 1.7 -0.2
v -1.1 1.7 -0.3
v -1.1 2 0.4
v -1.1 2 0.3
v -1.1 2 0.2
v -1.1 2 -0.2
v -1.1 2 -0.3
v -1.1 2 -0.4
v -1.1 2.1 0.3
v -1.1 2.1 0.2
v -1.1 2.1 0.1
v -1.1 2.1 -0.1
v -1.1 2.1 -0.2
v -1.1 2.1 -0.3
v -1.1 2.2 0.2
v -1.1 2.2 0.1
v -1.1 2.2 -0.1
v -1.1 2.2 -0.2
v -1 0.6 0.9
v -1 0.6 0.8
v -1 0.6 0.7
v -1 0.6 0.6
v -1 0.6 -0.6
v -1 0.6 -0.7
v -1 0.6 -0.8
v -1 0.6 -0.9
v -1 1.1 0.7
v -1 1.1 0.6
v -1 1.1 -0.6
v -1 1.1 -0.7
v -1 1.3 0.9
v -1 1.3 0.8
v -1 1.3 -0.8
v -1 1.3 -0.9
v -1 2 0.4
v -1 2 0.3
v -1 2 0.1
v -1 2 -0.1
v -1 2 -0.3
v -1 2 -0.4
v -1 2.1 0.4
v -1 2.1 0.3
v -1 2.1 0.2
v -1 2.1 0.1
v -1 2.1 -0.1
v -1 2.1 -0.2
v -1 2.1 -0.3
v -1 2.1 -0.4
v -1 2.2 0.3
v -1 2.2 0.2
v -1 2.2 -0.2
v -1 2.2 -0.3
v -1 2.3 0.2
v -1 2.3 -0.2
v -0.9 1.6 0.5
v -0.9 1.6 0.4
v -0.9 1.6 -0.4
v -0.9 1.6 -0.5
v -0.9 1.9 0.5
v -0.9 1.9 0.4
v -0.9 1.9 -0.4
v -0.9 1.9 -0.5
v -0.7 1.7 0.2
v -0.7 1.7 0.1
v -0.7 2 0.2
v -0.7 2 0.1
v -0.5 1.9 0.5
v -0.5 1.9 0.4
v -0.5 1.9 -0.4
v -0.5 1.9 -0.5
v -0.5 2 0.5
v -0.5 2 0.4
v -0.5 2 -0.4
v -0.5 2 -0.5
v -0.3 1.6 0.1
v -0.3 1.6 -0.1
v -0.3 1.7 0.1
v -0.3 1.7 -0.1
v -0.3 1.7 -0.2
v -0.3 2 -0.1
v -0.3 2 -0.2
v 0.4 2 0.5
v 0.4 2 0.4
v 0.4 2 -0.4
v 0.4 2 -0.5
v 0.4 2.1 0.5
v 0.4 2.1 0.4
v 0.4 2.1 -0.4
v 0.4 2.1 -0.5
v 0.7 1.5 0.3
v 0.7 1.5 0.2
v 0.7 1.5 -0.2
v 0.7 1.5 -0.3
v 0.7 1.6 0.5
v 0.7 1.6 0.3
v 0.7 1.6 -0.3
v 0.7 1.6 -0.5
v 0.7 1.9 0.5
v 0.7 1.9 0.2
v 0.7 1.9 -0.2
v 0.7 1.9 -0.5
v 0.8 1.5 0.2
v 0.8 1.5 -0.2
v 0.8 1.6 0.1
v 0.8 1.6 -0.1
v 0.8 1.8 0.1
v 0.8 1.8 -0.1
v 0.8 1.9 0.2
v 0.8 1.9 -0.2
v 2.6 0.6 0.9
v 2.6 0.6 0.8
v 2.6 0.6 0.7
v 2.6 0.6 0.6
v 2.6 0.6 -0.6
v 2.6 0.6 -0.7
v 2.6 0.6 -0.8
v 2.6 0.6 -0.9
v 2.6 1.1 0.6
v 2.6 1.1 0.3
v 2.6 1.1 -0.3
v 2.6 1.1 -0.6
v 2.6 1.3 0.4
v 2.6 1.3 0.3
v 2.6 1.3 -0.3
v 2.6 1.3 -0.4
v 2.6 1.4 0.9
v 2.6 1.4 0.4
v 2.6 1.4 -0.4
v 2.6 1.4 -0.9
v 2.7 1.7 0.3
v 2.7 1.7 0.2
v 2.7 1.7 -0.2
v 2.7 1.7 -0.3
v 2.7 1.8 0.3
v 2.7 1.8 0.2
v 2.7 1.8 -0.2
v 2.7 1.8 -0.3
v 2.8 0.5 0.7
v 2.8 0.5 0.6
v 2.8 0.5 -0.6
v 2.8 0.5 -0.7
v 2.8 0.6 0.7
v 2.8 0.6 0.6
v 2.8 0.6 -0.6
v 2.8 0.6 -0.7
v -2.9 1.6 0.1
v -2.9 1.6 -0.1
v -2.9 1.7 0.2
v -2.9 1.7 0.1
v -2.9 1.7 -0.1
v -2.9 1.7 -0.2
v -2.9 1.9 0.1
v -2.9 1.9 -0.1
v -2.9 2 0.2
v -2.9 2 0.1
v -2.9 2 -0.1
v -2.9 2 -0.2
v -2.9 2.1 0.1
v -2.9 2.1 -0.1
v -2.7 1.6 0.2
v -2.7 1.6 0.1
v -2.7 1.6 -0.1
v -2.7 1.6 -0.2
v -2.7 1.7 0.3
v -2.7 1.7 0.2
v -2.7 1.7 0.1
v -2.7 1.7 -0.1
v -2.7 1.7 -0.2
v -2.7 1.7 -0.3
v -2.7 2 0.3
v -2.7 2 0.2
v -2.7 2 0.1
v -2.7 2 -0.1
v -2.7 2 -0.2
v -2.7 2 -0.3
v -2.7 2.1 0.2
v -2.7 2.1 0.1
v -2.7 2.1 -0.1
v -2.7 2.1 -0.2
v -2.2 1.6 0.2
v -2.2 1.6 0.1
v -2.2 1.6 -0.1
v -2.2 1.6 -0.2
v -2.2 1.7 0.3
v -2.2 1.7 0.2
v -2.2 1.7 0.1
v -2.2 1.7 -0.1
v -2.2 1.7 -0.2
v -2.2 1.7 -0.3
v -2.2 2 0.3
v -2.2 2 0.2
v -2.2 2 0.1
v -2.2 2 -0.1
v -2.2 2 -0.2
v -2.2 2 -0.3
v -2.2 2.1 0.2
v -2.2 2.1 0.1
v -2.2 2.1 -0.1
v -2.2 2.1 -0.2
v -1.7 1.6 0.2
v -1.7 1.6 0.1
v -1.7 1.6 -0.1
v -1.7 1.6 -0.2
v -1.7 1.7 0.3
v -1.7 1.7 0.2
v -1.7 1.7 0.1
v -1.7 1.7 -0.1
v -1.7 1.7 -0.2
v -1.7 1.7 -0.3
v -1.7 2 0.3
v -1.7 2 0.2
v -1.7 2 0.1
v -1.7 2 -0.1
v -1.7 2 -0.2
v -1.7 2 -0.3
v -1.7 2.1 0.2
v -1.7 2.1 0.1
v -1.7 2.1 -0.1
v -1.7 2.1 -0.2
v -1.3 1.6 -0.1
v -1.3 1.6 -0.2
v -1.3 1.7 -0.1
v -1.3 1.7 -0.2
v -1.3 1.7 -0.3
v -1.3 2 -0.1
v -1.3 2 -0.2
v -1.3 2 -0.3
v -1.3 2.1 -0.1
v -1.3 2.1 -0.2
v -1 0.5 0.7
v -1 0.5 0.6
v -1 0.5 -0.6
v -1 0.5 -0.7
v -1 0.6 0.7
v -1 0.6 0.6
v -1 0.6 -0.6
v -1 0.6 -0.7
v -0.9 0.6 0.7
v -0.9 0.6 0.6
v -0.9 0.6 -0.6
v -0.9 0.6 -0.7
v -0.9 1.1 0.7
v -0.9 1.1 0.6
v -0.9 1.1 0.5
v -0.9 1.1 0.3
v -0.9 1.1 -0.3
v -0.9 1.1 -0.5
v -0.9 1.1 -0.6
v -0.9 1.1 -0.7
v -0.9 1.3 0.5
v -0.9 1.3 0.4
v -0.9 1.3 0.3
v -0.9 1.3 -0.3
v -0.9 1.3 -0.4
v -0.9 1.3 -0.5
v -0.8 0.6 0.9
v -0.8 0.6 0.8
v -0.8 0.6 0.7
v -0.8 0.6 -0.7
v -0.8 0.6 -0.8
v -0.8 0.6 -0.9
v -0.8 1.1 0.7
v -0.8 1.1 0.5
v -0.8 1.1 -0.5
v -0.8 1.1 -0.7
v -0.8 1.3 0.9
v -0.8 1.3 0.8
v -0.8 1.3 0.5
v -0.8 1.3 0.4
v -0.8 1.3 -0.4
v -0.8 1.3 -0.5
v -0.8 1.3 -0.8
v -0.8 1.3 -0.9
v -0.8 1.4 0.8
v -0.8 1.4 0.5
v -0.8 1.4 0.4
v -0.8 1.4 -0.4
v -0.8 1.4 -0.5
v -0.8 1.4 -0.8
v -0.8 1.5 0.5
v -0.8 1.5 0.4
v -0.8 1.5 -0.4
v -0.8 1.5 -0.5
v -0.0999999 1.5 0.2
v -0.0999999 1.5 -0.2
v -0.0999999 1.6 0.2
v -0.0999999 1.6 0.1
v -0.0999999 1.6 -0.1
v -0.0999999 1.6 -0.2
v -0.0999999 1.8 0.1
v -0.0999999 1.8 -0.1
v -0.0999999 1.9 0.2
v -0.0999999 1.9 -0.2
v 0.2 1.5 0.3
v 0.2 1.5 0.2
v 0.2 1.5 -0.2
v 0.2 1.5 -0.3
v 0.2 1.6 0.5
v 0.2 1.6 0.3
v 0.2 1.6 -0.3
v 0.2 1.6 -0.5
v 0.2 1.9 0.5
v 0.2 1.9 0.2
v 0.2 1.9 -0.2
v 0.2 1.9 -0.5
v 2.1 1.5 0.5
v 2.1 1.5 0.4
v 2.1 1.5 -0.4
v 2.1 1.5 -0.5
v 2.1 1.6 0.5
v 2.1 1.6 0.4
v 2.1 1.6 -0.4
v 2.1 1.6 -0.5
v 2.2 2 0.5
v 2.2 2 0.4
v 2.2 2 -0.4
v 2.2 2 -0.5
v 2.2 2.1 0.5
v 2.2 2.1 0.4
v 2.2 2.1 -0.4
v 2.2 2.1 -0.5
v 2.5 1.6 0.5
v 2.5 1.6 0.4
v 2.5 1.6 -0.4
v 2.5 1.6 -0.5
v 2.5 1.7 0.5
v 2.5 1.7 0.4
v 2.5 1.7 -0.4
v 2.5 1.7 -0.5
v 2.6 1.7 0.3
v 2.6 1.7 0.2
v 2.6 1.7 -0.2
v 2.6 1.7 -0.3
v 2.6 1.8 0.3
v 2.6 1.8 0.2
v 2.6 1.8 -0.2
v 2.6 1.8 -0.3
v 2.7 1.7 0.5
v 2.7 1.7 0.4
v 2.7 1.7 -0.4
v 2.7 1.7 -0.5
v 2.7 2 0.5
v 2.7 2 0.4
v 2.7 2 0.3
v 2.7 2 -0.3
v 2.7 2 -0.4
v 2.7 2 -0.5
v 2.7 2.1 0.4
v 2.7 2.1 0.3
v 2.7 2.1 0.2
v 2.7 2.1 -0.2
v 2.7 2.1 -0.3
v 2.7 2.1 -0.4
v 2.7 2.2 0.3
v 2.7 2.2 0.2
v 2.7 2.2 -0.2
v 2.7 2.2 -0.3
v 2.7 2.3 0.2
v 2.7 2.3 -0.2
v 2.8 1.4 0.4
v 2.8 1.4 0.3
v 2.8 1.4 0.2
v 2.8 1.4 -0.2
v 2.8 1.4 -0.3
v 2.8 1.4 -0.4
v 2.8 1.5 0.3
v 2.8 1.5 0.2
v 2.8 1.5 -0.2
v 2.8 1.5 -0.3
v 2.8 1.6 0.4
v 2.8 1.6 0.3
v 2.8 1.6 -0.3
v 2.8 1.6 -0.4
v 2.9 0 1.5
v 2.9 0 1.2
v 2.9 0 -1.2
v 2.9 0 -1.5
v 2.9 0.3 1.2
v 2.9 0.3 0.7
v 2.9 0.3 -0.7
v 2.9 0.3 -1.2
v 2.9 0.4 1.5
v 2.9 0.4 1.3
v 2.9 0.4 0.7
v 2.9 0.4 0.6
v 2.9 0.4 -0.6
v 2.9 0.4 -0.7
v 2.9 0.4 -1.3
v 2.9 0.4 -1.5
v 2.9 0.5 -1.2
v 2.9 0.5 -1.3
v 2.9 0.6 1.3
v 2.9 0.6 0.9
v 2.9 0.6 -0.9
v 2.9 0.6 -1.2
v 2.9 1.1 0.6
v 2.9 1.1 0.3
v 2.9 1.1 -0.3
v 2.9 1.1 -0.6
v 2.9 1.4 0.9
v 2.9 1.4 0.3
v 2.9 1.4 0.2
v 2.9 1.4 -0.2
v 2.9 1.4 -0.3
v 2.9 1.4 -0.9
v 2.9 1.5 0.3
v 2.9 1.5 0.2
v 2.9 1.5 -0.2
v 2.9 1.5 -0.3
v 2.9 1.6 0.4
v 2.9 1.6 0.3
v 2.9 1.6 -0.3
v 2.9 1.6 -0.4
v 2.9 2 0.4
v 2.9 2 0.3
v 2.9 2 -0.3
v 2.9 2 -0.4
v 2.9 2.1 0.3
v 2.9 2.1 0.2
v 2.9 2.1 -0.2
v 2.9 2.1 -0.3
v 2.9 2.2 0.2
v 2.9 2.2 -0.2
v -1.1 0 1.5
v -1.1 0.4 1.5
v 2.9 0 1.5
v 2.9 0.4 1.5
v -1.1 0.4 1.3
v -1.1 0.5 1.3
v -1.1 0.6 1.3
v -1 0.4 1.3
v -1 0.5 1.3
v 2.8 0.4 1.3
v 2.8 0.6 1.3
v 2.9 0.4 1.3
v 2.9 0.6 1.3
v -1 0.6 0.9
v -1 1.3 0.9
v -0.8 0.6 0.9
v -0.8 1.3 0.9
v 2.6 0.6 0.9
v 2.6 1.4 0.9
v 2.8 0.6 0.9
v 2.8 1.4 0.9
v 2.9 0.6 0.9
v 2.9 1.4 0.9
v -1.1 0.6 0.8
v -1.1 1.4 0.8
v -1 0.6 0.8
v -1 1.3 0.8
v -0.8 1.3 0.8
v -0.8 1.4 0.8
v -1.1 1.4 0.5
v -1.1 1.6 0.5
v -0.9 1.6 0.5
v -0.9 1.9 0.5
v -0.8 1.4 0.5
v -0.8 1.5 0.5
v -0.5 1.9 0.5
v -0.5 2 0.5
v 0.2 1.6 0.5
v 0.2 1.9 0.5
v 0.4 2 0.5
v 0.4 2.1 0.5
v 0.7 1.6 0.5
v 0.7 1.9 0.5
v 1.3 1.5 0.5
v 1.3 1.6 0.5
v 1.4 1.6 0.5
v 1.4 1.8 0.5
v 1.5 1.8 0.5
v 1.5 1.9 0.5
v 1.6 1.5 0.5
v 1.6 1.6 0.5
v 1.6 1.7 0.5
v 1.6 1.9 0.5
v 1.6 2 0.5
v 1.7 1.5 0.5
v 1.7 1.6 0.5
v 1.7 1.7 0.5
v 1.7 1.9 0.5
v 1.7 2 0.5
v 1.8 1.8 0.5
v 1.8 1.9 0.5
v 1.9 1.6 0.5
v 1.9 1.8 0.5
v 2 1.5 0.5
v 2 1.6 0.5
v 2.1 1.5 0.5
v 2.1 1.6 0.5
v 2.2 2 0.5
v 2.2 2.1 0.5
v 2.5 1.6 0.5
v 2.5 1.7 0.5
v 2.7 1.7 0.5
v 2.7 2 0.5
v -1.1 1.6 0.4
v -1.1 2 0.4
v -1 2 0.4
v -1 2.1 0.4
v -0.9 1.6 0.4
v -0.9 1.9 0.4
v -0.8 1.3 0.4
v -0.8 1.4 0.4
v -0.8 1.5 0.4
v -0.5 1.9 0.4
v -0.5 2 0.4
v 0.4 2 0.4
v 0.4 2.1 0.4
v 1.3 1.5 0.4
v 1.6 1.5 0.4
v 1.7 1.5 0.4
v 2 1.5 0.4
v 2.1 1.5 0.4
v 2.1 1.6 0.4
v 2.2 2 0.4
v 2.2 2.1 0.4
v 2.5 1.6 0.4
v 2.5 1.7 0.4
v 2.6 1.3 0.4
v 2.6 1.4 0.4
v 2.7 1.7 0.4
v 2.7 2 0.4
v 2.7 2.1 0.4
v 2.8 1.4 0.4
v 2.8 1.6 0.4
v 2.8 2 0.4
v 2.9 1.6 0.4
v 2.9 2 0.4
v -3 1.7 0.3
v -3 2 0.3
v -2.9 1.7 0.3
v -2.9 2 0.3
v -2.7 1.7 0.3
v -2.7 2 0.3
v -2.6 1.7 0.3
v -2.6 2 0.3
v -2.2 1.7 0.3
v -2.2 2 0.3
v -2.1 1.7 0.3
v -2.1 2 0.3
v -1.7 1.7 0.3
v -1.7 2 0.3
v -1.6 1.7 0.3
v -1.6 2 0.3
v -1.3 1.7 0.3
v -1.3 2 0.3
v -1.2 1.7 0.3
v -1.2 2 0.3
v -1.1 1.7 0.3
v -1.1 2 0.3
v -1.1 2.1 0.3
v -1 2 0.3
v -1 2.1 0.3
v -1 2.2 0.3
v -0.7 2.1 0.3
v -0.7 2.2 0.3
v 2.6 2.1 0.3
v 2.6 2.2 0.3
v 2.7 2 0.3
v 2.7 2.1 0.3
v 2.7 2.2 0.3
v 2.8 1.5 0.3
v 2.8 1.6 0.3
v 2.8 2 0.3
v 2.8 2.1 0.3
v 2.9 1.5 0.3
v 2.9 1.6 0.3
v 2.9 2 0.3
v 2.9 2.1 0.3
v -3 1.6 0.2
v -3 1.7 0.2
v -3 2 0.2
v -3 2.1 0.2
v -2.9 1.7 0.2
v -2.9 2 0.2
v -2.8 2 0.2
v -2.8 2.1 0.2
v -2.7 1.6 0.2
v -2.7 1.7 0.2
v -2.7 2 0.2
v -2.7 2.1 0.2
v -2.6 1.6 0.2
v -2.6 1.7 0.2
v -2.6 2 0.2
v -2.6 2.1 0.2
v -2.2 1.6 0.2
v -2.2 1.7 0.2
v -2.2 2 0.2
v -2.2 2.1 0.2
v -2.1 1.6 0.2
v -2.1 1.7 0.2
v -2.1 2 0.2
v -2.1 2.1 0.2
v -1.7 1.6 0.2
v -1.7 1.7 0.2
v -1.7 2 0.2
v -1.7 2.1 0.2
v -1.6 1.6 0.2
v -1.6 1.7 0.2
v -1.6 2 0.2
v -1.6 2.1 0.2
v -1.4 2 0.2
v -1.4 2.1 0.2
v -1.3 1.6 0.2
v -1.3 1.7 0.2
v -1.3 2 0.2
v -1.3 2.1 0.2
v -1.2 1.6 0.2
v -1.2 1.7 0.2
v -1.2 2 0.2
v -1.2 2.1 0.2
v -1.1 1.6 0.2
v -1.1 1.7 0.2
v -1.1 2 0.2
v -1.1 2.1 0.2
v -1.1 2.2 0.2
v -1 2.1 0.2
v -1 2.2 0.2
v -1 2.3 0.2
v -0.7 2.2 0.2
v 2.6 1.7 0.2
v 2.6 1.8 0.2
v 2.6 2.2 0.2
v 2.7 1.7 0.2
v 2.7 1.8 0.2
v 2.7 2.1 0.2
v 2.7 2.2 0.2
v 2.7 2.3 0.2
v 2.8 1.4 0.2
v 2.8 1.5 0.2
v 2.8 2.1 0.2
v 2.8 2.2 0.2
v 2.9 1.4 0.2
v 2.9 1.5 0.2
v 2.9 2.1 0.2
v 2.9 2.2 0.2
v -3 1.5 0.1
v -3 1.6 0.1
v -3 2.1 0.1
v -3 2.2 0.1
v -2.9 1.7 0.1
v -2.9 1.9 0.1
v -2.9 2 0.1
v -2.9 2.1 0.1
v -2.9 2.2 0.1
v -2.8 1.7 0.1
v -2.8 1.9 0.1
v -2.8 2 0.1
v -2.8 2.1 0.1
v -2.7 1.6 0.1
v -2.7 1.7 0.1
v -2.7 2 0.1
v -2.7 2.1 0.1
v -2.6 1.6 0.1
v -2.6 1.7 0.1
v -2.6 2 0.1
v -2.6 2.1 0.1
v -2.4 2.1 0.1
v -2.4 2.2 0.1
v -2.3 2.1 0.1
v -2.3 2.2 0.1
v -2.2 1.6 0.1
v -2.2 1.7 0.1
v -2.2 2 0.1
v -2.2 2.1 0.1
v -2.1 1.6 0.1
v -2.1 1.7 0.1
v -2.1 2 0.1
v -2.1 2.1 0.1
v -1.7 1.6 0.1
v -1.7 1.7 0.1
v -1.7 2 0.1
v -1.7 2.1 0.1
v -1.6 1.6 0.1
v -1.6 1.7 0.1
v -1.6 2 0.1
v -1.6 2.1 0.1
v -1.4 2 0.1
v -1.4 2.1 0.1
v -1.4 2.2 0.1
v -1.3 1.6 0.1
v -1.3 1.7 0.1
v -1.3 2 0.1
v -1.3 2.1 0.1
v -1.2 1.6 0.1
v -1.2 1.7 0.1
v -1.2 2 0.1
v -1.2 2.1 0.1
v -1.2 2.2 0.1
v -1.1 1.5 0.1
v -1.1 1.6 0.1
v -1.1 1.7 0.1
v -1.1 2 0.1
v -1.1 2.1 0.1
v -1.1 2.2 0.1
v -0.7 1.7 0.1
v -0.7 2 0.1
v -0.0999999 1.6 0.1
v -0.0999999 1.8 0.1
v 0.2 1.6 0.1
v 0.2 1.8 0.1
v 0.3 1.6 0.1
v 0.3 1.8 0.1
v 0.4 1.6 0.1
v 0.4 1.8 0.1
v 0.5 1.6 0.1
v 0.5 1.8 0.1
v 0.6 1.6 0.1
v 0.6 1.8 0.1
v 0.7 1.6 0.1
v 0.7 1.8 0.1
v 0.8 1.6 0.1
v 0.8 1.8 0.1
v -3 1.7 -0.1
v -3 1.9 -0.1
v -2.9 1.6 -0.1
v -2.9 1.7 -0.1
v -2.9 1.9 -0.1
v -2.9 2 -0.1
v -2.9 2.1 -0.1
v -2.8 1.7 -0.1
v -2.8 2 -0.1
v -2.8 2.1 -0.1
v -2.7 1.6 -0.1
v -2.7 1.7 -0.1
v -2.7 2 -0.1
v -2.7 2.1 -0.1
v -2.6 1.6 -0.1
v -2.6 1.7 -0.1
v -2.6 2 -0.1
v -2.6 2.1 -0.1
v -2.4 2.1 -0.1
v -2.3 2.1 -0.1
v -2.2 1.6 -0.1
v -2.2 1.7 -0.1
v -2.2 2 -0.1
v -2.2 2.1 -0.1
v -2.1 1.6 -0.1
v -2.1 1.7 -0.1
v -2.1 2 -0.1
v -2.1 2.1 -0.1
v -1.7 1.6 -0.1
v -1.7 1.7 -0.1
v -1.7 2 -0.1
v -1.7 2.1 -0.1
v -1.6 1.6 -0.1
v -1.6 1.7 -0.1
v -1.6 2 -0.1
v -1.6 2.1 -0.1
v -1.4 2 -0.1
v -1.4 2.1 -0.1
v -1.3 1.6 -0.1
v -1.3 1.7 -0.1
v -1.3 2 -0.1
v -1.3 2.1 -0.1
v -1.2 1.6 -0.1
v -1.2 1.7 -0.1
v -1.2 2 -0.1
v -1.2 2.1 -0.1
v -1.1 1.6 -0.1
v -1.1 1.7 -0.1
v -1.1 2 -0.1
v -1.1 2.1 -0.1
v -1 2 -0.1
v -1 2.1 -0.1
v -0.3 1.6 -0.1
v -0.3 1.7 -0.1
v -2.9 1.7 -0.2
v -2.9 2 -0.2
v -2.8 2 -0.2
v -2.7 1.7 -0.2
v -2.7 2 -0.2
v -2.6 1.7 -0.2
v -2.6 2 -0.2
v -2.2 1.7 -0.2
v -2.2 2 -0.2
v -2.1 1.7 -0.2
v -2.1 2 -0.2
v -1.7 1.7 -0.2
v -1.7 2 -0.2
v -1.6 1.7 -0.2
v -1.6 2 -0.2
v -1.4 2 -0.2
v -1.3 1.7 -0.2
v -1.3 2 -0.2
v -1.2 1.7 -0.2
v -1.2 2 -0.2
v -1.1 1.7 -0.2
v -1.1 2 -0.2
v -0.3 1.7 -0.2
v -0.3 2 -0.2
v -0.0999999 1.5 -0.2
v -0.0999999 1.6 -0.2
v -0.0999999 1.9 -0.2
v 0.2 1.5 -0.2
v 0.2 1.9 -0.2
v 0.7 1.5 -0.2
v 0.7 1.9 -0.2
v 0.8 1.5 -0.2
v 0.8 1.9 -0.2
v -1.1 1.1 -0.3
v -1.1 1.4 -0.3
v -1 1.3 -0.3
v -1 1.4 -0.3
v -0.9 1.1 -0.3
v -0.9 1.3 -0.3
v 0.2 1.5 -0.3
v 0.2 1.6 -0.3
v 0.7 1.5 -0.3
v 0.7 1.6 -0.3
v 2.6 1.1 -0.3
v 2.6 1.3 -0.3
v 2.6 1.7 -0.3
v 2.6 1.8 -0.3
v 2.7 1.7 -0.3
v 2.7 1.8 -0.3
v 2.8 1.1 -0.3
v 2.8 1.4 -0.3
v 2.9 1.1 -0.3
v 2.9 1.4 -0.3
v -0.9 1.1 -0.5
v -0.9 1.3 -0.5
v -0.8 1.1 -0.5
v -0.8 1.3 -0.5
v -1.1 0.4 -0.6
v -1.1 0.6 -0.6
v -1 0.4 -0.6
v -1 0.5 -0.6
v -1 0.6 -0.6
v -1 1.1 -0.6
v -0.9 0.6 -0.6
v -0.9 1.1 -0.6
v 2.6 0.6 -0.6
v 2.6 1.1 -0.6
v 2.8 0.4 -0.6
v 2.8 0.5 -0.6
v 2.8 0.6 -0.6
v 2.8 1.1 -0.6
v 2.9 0.4 -0.6
v 2.9 1.1 -0.6
v -1.1 0.3 -0.7
v -1.1 0.4 -0.7
v -1.1 0.6 -0.7
v -1.1 1.1 -0.7
v -1 0.3 -0.7
v -1 0.4 -0.7
v -1 0.5 -0.7
v -1 0.6 -0.7
v -1 1.1 -0.7
v -0.9 0.6 -0.7
v -0.9 1.1 -0.7
v -0.8 0.6 -0.7
v -0.8 1.1 -0.7
v 2.6 0.6 -0.7
v 2.8 0.3 -0.7
v 2.8 0.4 -0.7
v 2.8 0.5 -0.7
v 2.8 0.6 -0.7
v 2.9 0.3 -0.7
v 2.9 0.4 -0.7
v -1.1 0 -1.2
v -1.1 0.3 -1.2
v -1 0 -1.2
v -1 0.3 -1.2
v 2.8 0 -1.2
v 2.8 0.3 -1.2
v 2.9 0 -1.2
v 2.9 0.3 -1.2
v -1.1 0 1.2
v -1.1 0.3 1.2
v -1 0 1.2
v -1 0.3 1.2
v 2.8 0 1.2
v 2.8 0.3 1.2
v 2.9 0 1.2
v 2.9 0.3 1.2
v -1.1 0.3 0.7
v -1.1 0.4 0.7
v -1.1 0.6 0.7
v -1.1 1.1 0.7
v -1 0.3 0.7
v -1 0.4 0.7
v -1 0.5 0.7
v -1 0.6 0.7
v -1 1.1 0.7
v -0.9 0.6 0.7
v -0.9 1.1 0.7
v -0.8 0.6 0.7
v -0.8 1.1 0.7
v 2.6 0.6 0.7
v 2.8 0.3 0.7
v 2.8 0.4 0.7
v 2.8 0.5 0.7
v 2.8 0.6 0.7
v 2.9 0.3 0.7
v 2.9 0.4 0.7
v -1.1 0.4 0.6
v -1.1 0.6 0.6
v -1 0.4 0.6
v -1 0.5 0.6
v -1 0.6 0.6
v -1 1.1 0.6
v -0.9 0.6 0.6
v -0.9 1.1 0.6
v 2.6 0.6 0.6
v 2.6 1.1 0.6
v 2.8 0.4 0.6
v 2.8 0.5 0.6
v 2.8 0.6 0.6
v 2.8 1.1 0.6
v 2.9 0.4 0.6
v 2.9 1.1 0.6
v -0.9 1.1 0.5
v -0.9 1.3 0.5
v -0.8 1.1 0.5
v -0.8 1.3 0.5
v -1.1 1.1 0.3
v -1.1 1.4 0.3
v -1 1.3 0.3
v -1 1.4 0.3
v -0.9 1.1 0.3
v -0.9 1.3 0.3
v 0.2 1.5 0.3
v 0.2 1.6 0.3
v 0.7 1.5 0.3
v 0.7 1.6 0.3
v 2.6 1.1 0.3
v 2.6 1.3 0.3
v 2.6 1.7 0.3
v 2.6 1.8 0.3
v 2.7 1.7 0.3
v 2.7 1.8 0.3
v 2.8 1.1 0.3
v 2.8 1.4 0.3
v 2.9 1.1 0.3
v 2.9 1.4 0.3
v -2.9 1.7 0.2
v -2.9 2 0.2
v -2.8 2 0.2
v -2.7 1.7 0.2
v -2.7 2 0.2
v -2.6 1.7 0.2
v -2.6 2 0.2
v -2.2 1.7 0.2
v -2.2 2 0.2
v -2.1 1.7 0.2
v -2.1 2 0.2
v -1.7 1.7 0.2
v -1.7 2 0.2
v -1.6 1.7 0.2
v -1.6 2 0.2
v -1.4 2 0.2
v -1.3 1.7 0.2
v -1.3 2 0.2
v -1.2 1.7 0.2
v -1.2 2 0.2
v -1.1 1.7 0.2
v -1.1 2 0.2
v -0.7 1.7 0.2
v -0.7 2 0.2
v -0.0999999 1.5 0.2
v -0.0999999 1.6 0.2
v -0.0999999 1.9 0.2
v 0.2 1.5 0.2
v 0.2 1.9 0.2
v 0.7 1.5 0.2
v 0.7 1.9 0.2
v 0.8 1.5 0.2
v 0.8 1.9 0.2
v -3 1.7 0.1
v -3 1.9 0.1
v -2.9 1.6 0.1
v -2.9 1.7 0.1
v -2.9 1.9 0.1
v -2.9 2 0.1
v -2.9 2.1 0.1
v -2.8 1.7 0.1
v -2.8 2 0.1
v -2.8 2.1 0.1
v -2.7 1.6 0.1
v -2.7 1.7 0.1
v -2.7 2 0.1
v -2.7 2.1 0.1
v -2.6 1.6 0.1
v -2.6 1.7 0.1
v -2.6 2 0.1
v -2.6 2.1 0.1
v -2.4 2.1 0.1
v -2.3 2.1 0.1
v -2.2 1.6 0.1
v -2.2 1.7 0.1
v -2.2 2 0.1
v -2.2 2.1 0.1
v -2.1 1.6 0.1
v -2.1 1.7 0.1
v -2.1 2 0.1
v -2.1 2.1 0.1
v -1.7 1.6 0.1
v -1.7 1.7 0.1
v -1.7 2 0.1
v -1.7 2.1 0.1
v -1.6 1.6 0.1
v -1.6 1.7 0.1
v -1.6 2 0.1
v -1.6 2.1 0.1
v -1.4 2 0.1
v -1.4 2.1 0.1
v -1.3 1.6 0.1
v -1.3 1.7 0.1
v -1.3 2 0.1
v -1.3 2.1 0.1
v -1.2 1.6 0.1
v -1.2 1.7 0.1
v -1.2 2 0.1
v -1.2 2.1 0.1
v -1.1 1.6 0.1
v -1.1 1.7 0.1
v -1.1 2 0.1
v -1.1 2.1 0.1
v -1 2 0.1
v -1 2.1 0.1
v -0.3 1.6 0.1
v -0.3 1.7 0.1
v -3 1.5 -0.1
v -3 1.6 -0.1
v -3 2.1 -0.1
v -3 2.2 -0.1
v -2.9 1.7 -0.1
v -2.9 1.9 -0.1
v -2.9 2 -0.1
v -2.9 2.1 -0.1
v -2.9 2.2 -0.1
v -2.8 1.7 -0.1
v -2.8 1.9 -0.1
v -2.8 2 -0.1
v -2.8 2.1 -0.1
v -2.7 1.6 -0.1
v -2.7 1.7 -0.1
v -2.7 2 -0.1
v -2.7 2.1 -0.1
v -2.6 1.6 -0.1
v -2.6 1.7 -0.1
v -2.6 2 -0.1
v -2.6 2.1 -0.1
v -2.4 2.1 -0.1
v -2.4 2.2 -0.1
v -2.3 2.1 -0.1
v -2.3 2.2 -0.1
v -2.2 1.6 -0.1
v -2.2 1.7 -0.1
v -2.2 2 -0.1
v -2.2 2.1 -0.1
v -2.1 1.6 -0.1
v -2.1 1.7 -0.1
v -2.1 2 -0.1
v -2.1 2.1 -0.1
v -1.7 1.6 -0.1
v -1.7 1.7 -0.1
v -1.7 2 -0.1
v -1.7 2.1 -0.1
v -1.6 1.6 -0.1
v -1.6 1.7 -0.1
v -1.6 2 -0.1
v -1.6 2.1 -0.1
v -1.4 2 -0.1
v -1.4 2.1 -0.1
v -1.4 2.2 -0.1
v -1.3 1.6 -0.1
v -1.3 1.7 -0.1
v -1.3 2 -0.1
v -1.3 2.1 -0.1
v -1.2 1.6 -0.1
v -1.2 1.7 -0.1
v -1.2 2 -0.1
v -1.2 2.1 -0.1
v -1.2 2.2 -0.1
v -1.1 1.5 -0.1
v -1.1 1.6 -0.1
v -1.1 1.7 -0.1
v -1.1 2 -0.1
v -1.1 2.1 -0.1
v -1.1 2.2 -0.1
v -0.3 1.7 -0.1
v -0.3 2 -0.1
v -0.0999999 1.6 -0.1
v -0.0999999 1.8 -0.1
v 0.2 1.6 -0.1
v 0.2 1.8 -0.1
v 0.3 1.6 -0.1
v 0.3 1.8 -0.1
v 0.4 1.6 -0.1
v 0.4 1.8 -0.1
v 0.5 1.6 -0.1
v 0.5 1.8 -0.1
v 0.6 1.6 -0.1
v 0.6 1.8 -0.1
v 0.7 1.6 -0.1
v 0.7 1.8 -0.1
v 0.8 1.6 -0.1
v 0.8 1.8 -0.1
v -3 1.6 -0.2
v -3 1.7 -0.2
v -3 2 -0.2
v -3 2.1 -0.2
v -2.9 1.7 -0.2
v -2.9 2 -0.2
v -2.8 2 -0.2
v -2.8 2.1 -0.2
v -2.7 1.6 -0.2
v -2.7 1.7 -0.2
v -2.7 2 -0.2
v -2.7 2.1 -0.2
v -2.6 1.6 -0.2
v -2.6 1.7 -0.2
v -2.6 2 -0.2
v -2.6 2.1 -0.2
v -2.2 1.6 -0.2
v -2.2 1.7 -0.2
v -2.2 2 -0.2
v -2.2 2.1 -0.2
v -2.1 1.6 -0.2
v -2.1 1.7 -0.2
v -2.1 2 -0.2
v -2.1 2.1 -0.2
v -1.7 1.6 -0.2
v -1.7 1.7 -0.2
v -1.7 2 -0.2
v -1.7 2.1 -0.2
v -1.6 1.6 -0.2
v -1.6 1.7 -0.2
v -1.6 2 -0.2
v -1.6 2.1 -0.2
v -1.4 2 -0.2
v -1.4 2.1 -0.2
v -1.3 1.6 -0.2
v -1.3 1.7 -0.2
v -1.3 2 -0.2
v -1.3 2.1 -0.2
v -1.2 1.6 -0.2
v -1.2 1.7 -0.2
v -1.2 2 -0.2
v -1.2 2.1 -0.2
v -1.1 1.6 -0.2
v -1.1 1.7 -0.2
v -1.1 2 -0.2
v -1.1 2.1 -0.2
v -1.1 2.2 -0.2
v -1 2.1 -0.2
v -1 2.2 -0.2
v -1 2.3 -0.2
v -0.7 2.2 -0.2
v 2.6 1.7 -0.2
v 2.6 1.8 -0.2
v 2.6 2.2 -0.2
v 2.7 1.7 -0.2
v 2.7 1.8 -0.2
v 2.7 2.1 -0.2
v 2.7 2.2 -0.2
v 2.7 2.3 -0.2
v 2.8 1.4 -0.2
v 2.8 1.5 -0.2
v 2.8 2.1 -0.2
v 2.8 2.2 -0.2
v 2.9 1.4 -0.2
v 2.9 1.5 -0.2
v 2.9 2.1 -0.2
v 2.9 2.2 -0.2
v -3 1.7 -0.3
v -3 2 -0.3
v -2.9 1.7 -0.3
v -2.9 2 -0.3
v -2.7 1.7 -0.3
v -2.7 2 -0.3
v -2.6 1.7 -0.3
v -2.6 2 -0.3
v -2.2 1.7 -0.3
v -2.2 2 -0.3
v -2.1 1.7 -0.3
v -2.1 2 -0.3
v -1.7 1.7 -0.3
v -1.7 2 -0.3
v -1.6 1.7 -0.3
v -1.6 2 -0.3
v -1.3 1.7 -0.3
v -1.3 2 -0.3
v -1.2 1.7 -0.3
v -1.2 2 -0.3
v -1.1 1.7 -0.3
v -1.1 2 -0.3
v -1.1 2.1 -0.3
v -1 2 -0.3
v -1 2.1 -0.3
v -1 2.2 -0.3
v -0.7 2.1 -0.3
v -0.7 2.2 -0.3
v 2.6 2.1 -0.3
v 2.6 2.2 -0.3
v 2.7 2 -0.3
v 2.7 2.1 -0.3
v 2.7 2.2 -0.3
v 2.8 1.5 -0.3
v 2.8 1.6 -0.3
v 2.8 2 -0.3
v 2.8 2.1 -0.3
v 2.9 1.5 -0.3
v 2.9 1.6 -0.3
v 2.9 2 -0.3
v 2.9 2.1 -0.3
v -1.1 1.6 -0.4
v -1.1 2 -0.4
v -1 2 -0.4
v -1 2.1 -0.4
v -0.9 1.6 -0.4
v -0.9 1.9 -0.4
v -0.8 1.3 -0.4
v -0.8 1.4 -0.4
v -0.8 1.5 -0.4
v -0.5 1.9 -0.4
v -0.5 2 -0.4
v 0.4 2 -0.4
v 0.4 2.1 -0.4
v 1.3 1.5 -0.4
v 1.6 1.5 -0.4
v 1.7 1.5 -0.4
v 2 1.5 -0.4
v 2.1 1.5 -0.4
v 2.1 1.6 -0.4
v 2.2 2 -0.4
v 2.2 2.1 -0.4
v 2.5 1.6 -0.4
v 2.5 1.7 -0.4
v 2.6 1.3 -0.4
v 2.6 1.4 -0.4
v 2.7 1.7 -0.4
v 2.7 2 -0.4
v 2.7 2.1 -0.4
v 2.8 1.4 -0.4
v 2.8 1.6 -0.4
v 2.8 2 -0.4
v 2.9 1.6 -0.4
v 2.9 2 -0.4
v -1.1 1.4 -0.5
v -1.1 1.6 -0.5
v -0.9 1.6 -0.5
v -0.9 1.9 -0.5
v -0.8 1.4 -0.5
v -0.8 1.5 -0.5
v -0.5 1.9 -0.5
v -0.5 2 -0.5
v 0.2 1.6 -0.5
v 0.2 1.9 -0.5
v 0.4 2 -0.5
v 0.4 2.1 -0.5
v 0.7 1.6 -0.5
v 0.7 1.9 -0.5
v 1.3 1.5 -0.5
v 1.3 1.6 -0.5
v 1.4 1.6 -0.5
v 1.4 1.8 -0.5
v 1.5 1.8 -0.5
v 1.5 1.9 -0.5
v 1.6 1.5 -0.5
v 1.6 1.6 -0.5
v 1.6 1.7 -0.5
v 1.6 1.9 -0.5
v 1.6 2 -0.5
v 1.7 1.5 -0.5
v 1.7 1.6 -0.5
v 1.7 1.7 -0.5
v 1.7 1.9 -0.5
v 1.7 2 -0.5
v 1.8 1.8 -0.5
v 1.8 1.9 -0.5
v 1.9 1.6 -0.5
v 1.9 1.8 -0.5
v 2 1.5 -0.5
v 2 1.6 -0.5
v 2.1 1.5 -0.5
v 2.1 1.6 -0.5
v 2.2 2 -0.5
v 2.2 2.1 -0.5
v 2.5 1.6 -0.5
v 2.5 1.7 -0.5
v 2.7 1.7 -0.5
v 2.7 2 -0.5
v -1.1 0.6 -0.8
v -1.1 1.4 -0.8
v -1 0.6 -0.8
v -1 1.3 -0.8
v -0.8 1.3 -0.8
v -0.8 1.4 -0.8
v -1 0.6 -0.9
v -1 1.3 -0.9
v -0.8 0.6 -0.9
v -0.8 1.3 -0.9
v 2.6 0.6 -0.9
v 2.6 1.4 -0.9
v 2.8 0.6 -0.9
v 2.8 1.4 -0.9
v 2.9 0.6 -0.9
v 2.9 1.4 -0.9
v -1.1 0.5 -1.2
v -1.1 0.6 -1.2
v -1 0.5 -1.2
v -1 0.6 -1.2
v 2.8 0.5 -1.2
v 2.8 0.6 -1.2
v 2.9 0.5 -1.2
v 2.9 0.6 -1.2
v -1.1 0.4 -1.3
v -1.1 0.5 -1.3
v -1 0.4 -1.3
v -1 0.5 -1.3
v 2.8 0.4 -1.3
v 2.8 0.5 -1.3
v 2.9 0.4 -1.3
v 2.9 0.5 -1.3
v -1.1 0 -1.5
v -1.1 0.4 -1.5
v 2.9 0 -1.5
v 2.9 0.4 -1.5
v -1.1 0 1.5
v 2.9 0 1.5
v -1 0 1.4
v 2.8 0 1.4
v -1.1 0 1.2
v -1 0 1.2
v 2.8 0 1.2
v 2.9 0 1.2
v -1.1 0 -1.2
v -1 0 -1.2
v 2.8 0 -1.2
v 2.9 0 -1.2
v -1 0 -1.4
v 2.8 0 -1.4
v -1.1 0 -1.5
v 2.9 0 -1.5
v -1.1 0.3 1.2
v -1 0.3 1.2
v 2.8 0.3 1.2
v 2.9 0.3 1.2
v -1.1 0.3 0.7
v -1 0.3 0.7
v 2.8 0.3 0.7
v 2.9 0.3 0.7
v -1.1 0.3 -0.7
v -1 0.3 -0.7
v 2.8 0.3 -0.7
v 2.9 0.3 -0.7
v -1.1 0.3 -1.2
v -1 0.3 -1.2
v 2.8 0.3 -1.2
v 2.9 0.3 -1.2
v -1.1 0.4 0.7
v -1 0.4 0.7
v 2.8 0.4 0.7
v 2.9 0.4 0.7
v -1.1 0.4 0.6
v -1 0.4 0.6
v 2.8 0.4 0.6
v 2.9 0.4 0.6
v -1.1 0.4 -0.6
v -1 0.4 -0.6
v 2.8 0.4 -0.6
v 2.9 0.4 -0.6
v -1.1 0.4 -0.7
v -1 0.4 -0.7
v 2.8 0.4 -0.7
v 2.9 0.4 -0.7
v -1 0.6 0.7
v -0.9 0.6 0.7
v 2.6 0.6 0.7
v 2.8 0.6 0.7
v -1 0.6 0.6
v -0.9 0.6 0.6
v 2.6 0.6 0.6
v 2.8 0.6 0.6
v -1 0.6 -0.6
v -0.9 0.6 -0.6
v 2.6 0.6 -0.6
v 2.8 0.6 -0.6
v -1 0.6 -0.7
v -0.9 0.6 -0.7
v 2.6 0.6 -0.7
v 2.8 0.6 -0.7
v -1.1 1.1 0.7
v -1 1.1 0.7
v -0.9 1.1 0.7
v -0.8 1.1 0.7
v -1 1.1 0.6
v -0.9 1.1 0.6
v 2.6 1.1 0.6
v 2.8 1.1 0.6
v 2.9 1.1 0.6
v -0.9 1.1 0.5
v -0.8 1.1 0.5
v -1.1 1.1 0.3
v -0.9 1.1 0.3
v 2.6 1.1 0.3
v 2.8 1.1 0.3
v 2.9 1.1 0.3
v -1.1 1.1 -0.3
v -0.9 1.1 -0.3
v 2.6 1.1 -0.3
v 2.8 1.1 -0.3
v 2.9 1.1 -0.3
v -0.9 1.1 -0.5
v -0.8 1.1 -0.5
v -1 1.1 -0.6
v -0.9 1.1 -0.6
v 2.6 1.1 -0.6
v 2.8 1.1 -0.6
v 2.9 1.1 -0.6
v -1.1 1.1 -0.7
v -1 1.1 -0.7
v -0.9 1.1 -0.7
v -0.8 1.1 -0.7
v -0.9 1.3 0.5
v -0.8 1.3 0.5
v -0.9 1.3 0.4
v -0.8 1.3 0.4
v 2.6 1.3 0.4
v -0.9 1.3 0.3
v 2.6 1.3 0.3
v -0.9 1.3 -0.3
v 2.6 1.3 -0.3
v -0.9 1.3 -0.4
v -0.8 1.3 -0.4
v 2.6 1.3 -0.4
v -0.9 1.3 -0.5
v -0.8 1.3 -0.5
v -1.1 1.4 0.3
v -1 1.4 0.3
v 2.8 1.4 0.3
v 2.8 1.4 0.2
v 2.9 1.4 0.2
v 2.8 1.4 -0.2
v 2.9 1.4 -0.2
v -1.1 1.4 -0.3
v -1 1.4 -0.3
v 2.8 1.4 -0.3
v -0.8 1.5 0.5
v 1.3 1.5 0.5
v 1.6 1.5 0.5
v 1.7 1.5 0.5
v 2 1.5 0.5
v 2.1 1.5 0.5
v -0.8 1.5 0.4
v 1.3 1.5 0.4
v 1.6 1.5 0.4
v 1.7 1.5 0.4
v 2 1.5 0.4
v 2.1 1.5 0.4
v 2.8 1.5 0.3
v 2.9 1.5 0.3
v 2.8 1.5 0.2
v 2.9 1.5 0.2
v -3 1.5 0.1
v -1.1 1.5 0.1
v -3 1.5 -0.1
v -1.1 1.5 -0.1
v 2.8 1.5 -0.2
v 2.9 1.5 -0.2
v 2.8 1.5 -0.3
v 2.9 1.5 -0.3
v -0.8 1.5 -0.4
v 1.3 1.5 -0.4
v 1.6 1.5 -0.4
v 1.7 1.5 -0.4
v 2 1.5 -0.4
v 2.1 1.5 -0.4
v -0.8 1.5 -0.5
v 1.3 1.5 -0.5
v 1.6 1.5 -0.5
v 1.7 1.5 -0.5
v 2 1.5 -0.5
v 2.1 1.5 -0.5
v 2.1 1.6 0.5
v 2.5 1.6 0.5
v 2.1 1.6 0.4
v 2.5 1.6 0.4
v 2.8 1.6 0.4
v 2.9 1.6 0.4
v 2.8 1.6 0.3
v 2.9 1.6 0.3
v -3 1.6 0.2
v -2.7 1.6 0.2
v -2.6 1.6 0.2
v -2.2 1.6 0.2
v -2.1 1.6 0.2
v -1.7 1.6 0.2
v -1.6 1.6 0.2
v -1.3 1.6 0.2
v -1.2 1.6 0.2
v -1.1 1.6 0.2
v -3 1.6 0.1
v -2.7 1.6 0.1
v -2.6 1.6 0.1
v -2.2 1.6 0.1
v -2.1 1.6 0.1
v -1.7 1.6 0.1
v -1.6 1.6 0.1
v -1.3 1.6 0.1
v -1.2 1.6 0.1
v -1.1 1.6 0.1
v -0.0999999 1.6 0.1
v 0.2 1.6 0.1
v 0.3 1.6 0.1
v 0.4 1.6 0.1
v 0.5 1.6 0.1
v 0.6 1.6 0.1
v 0.7 1.6 0.1
v 0.8 1.6 0.1
v -3 1.6 -0.1
v -2.7 1.6 -0.1
v -2.6 1.6 -0.1
v -2.2 1.6 -0.1
v -2.1 1.6 -0.1
v -1.7 1.6 -0.1
v -1.6 1.6 -0.1
v -1.3 1.6 -0.1
v -1.2 1.6 -0.1
v -1.1 1.6 -0.1
v -0.0999999 1.6 -0.1
v 0.2 1.6 -0.1
v 0.3 1.6 -0.1
v 0.4 1.6 -0.1
v 0.5 1.6 -0.1
v 0.6 1.6 -0.1
v 0.7 1.6 -0.1
v 0.8 1.6 -0.1
v -3 1.6 -0.2
v -2.7 1.6 -0.2
v -2.6 1.6 -0.2
v -2.2 1.6 -0.2
v -2.1 1.6 -0.2
v -1.7 1.6 -0.2
v -1.6 1.6 -0.2
v -1.3 1.6 -0.2
v -1.2 1.6 -0.2
v -1.1 1.6 -0.2
v 2.8 1.6 -0.3
v 2.9 1.6 -0.3
v 2.1 1.6 -0.4
v 2.5 1.6 -0.4
v 2.8 1.6 -0.4
v 2.9 1.6 -0.4
v 2.1 1.6 -0.5
v 2.5 1.6 -0.5
v 2.5 1.7 0.5
v 2.7 1.7 0.5
v 2.5 1.7 0.4
v 2.7 1.7 0.4
v -3 1.7 0.3
v -2.9 1.7 0.3
v -2.7 1.7 0.3
v -2.6 1.7 0.3
v -2.2 1.7 0.3
v -2.1 1.7 0.3
v -1.7 1.7 0.3
v -1.6 1.7 0.3
v -1.3 1.7 0.3
v -1.2 1.7 0.3
v -1.1 1.7 0.3
v -3 1.7 0.2
v -2.9 1.7 0.2
v -2.7 1.7 0.2
v -2.6 1.7 0.2
v -2.2 1.7 0.2
v -2.1 1.7 0.2
v -1.7 1.7 0.2
v -1.6 1.7 0.2
v -1.3 1.7 0.2
v -1.2 1.7 0.2
v -1.1 1.7 0.2
v -2.9 1.7 0.1
v -2.8 1.7 0.1
v -2.7 1.7 0.1
v -2.6 1.7 0.1
v -2.2 1.7 0.1
v -2.1 1.7 0.1
v -1.7 1.7 0.1
v -1.6 1.7 0.1
v -1.3 1.7 0.1
v -1.2 1.7 0.1
v -1.1 1.7 0.1
v -0.3 1.7 0.1
v -2.9 1.7 -0.1
v -2.8 1.7 -0.1
v -2.7 1.7 -0.1
v -2.6 1.7 -0.1
v -2.2 1.7 -0.1
v -2.1 1.7 -0.1
v -1.7 1.7 -0.1
v -1.6 1.7 -0.1
v -1.3 1.7 -0.1
v -1.2 1.7 -0.1
v -1.1 1.7 -0.1
v -0.3 1.7 -0.1
v -3 1.7 -0.2
v -2.9 1.7 -0.2
v -2.7 1.7 -0.2
v -2.6 1.7 -0.2
v -2.2 1.7 -0.2
v -2.1 1.7 -0.2
v -1.7 1.7 -0.2
v -1.6 1.7 -0.2
v -1.3 1.7 -0.2
v -1.2 1.7 -0.2
v -1.1 1.7 -0.2
v -3 1.7 -0.3
v -2.9 1.7 -0.3
v -2.7 1.7 -0.3
v -2.6 1.7 -0.3
v -2.2 1.7 -0.3
v -2.1 1.7 -0.3
v -1.7 1.7 -0.3
v -1.6 1.7 -0.3
v -1.3 1.7 -0.3
v -1.2 1.7 -0.3
v -1.1 1.7 -0.3
v 2.5 1.7 -0.4
v 2.7 1.7 -0.4
v 2.5 1.7 -0.5
v 2.7 1.7 -0.5
v 2.6 1.8 0.3
v 2.7 1.8 0.3
v 2.6 1.8 0.2
v 2.7 1.8 0.2
v 2.6 1.8 -0.2
v 2.7 1.8 -0.2
v 2.6 1.8 -0.3
v 2.7 1.8 -0.3
v 0.2 1.9 0.5
v 0.7 1.9 0.5
v -0.0999999 1.9 0.2
v 0.2 1.9 0.2
v 0.7 1.9 0.2
v 0.8 1.9 0.2
v -3 1.9 0.1
v -2.9 1.9 0.1
v -3 1.9 -0.1
v -2.9 1.9 -0.1
v -0.0999999 1.9 -0.2
v 0.2 1.9 -0.2
v 0.7 1.9 -0.2
v 0.8 1.9 -0.2
v 0.2 1.9 -0.5
v 0.7 1.9 -0.5
v -2.9 2 0.2
v -2.8 2 0.2
v -2.7 2 0.2
v -2.6 2 0.2
v -2.2 2 0.2
v -2.1 2 0.2
v -1.7 2 0.2
v -1.6 2 0.2
v -1.4 2 0.2
v -1.3 2 0.2
v -1.2 2 0.2
v -1.1 2 0.2
v -0.7 2 0.2
v -2.9 2 0.1
v -2.8 2 0.1
v -2.7 2 0.1
v -2.6 2 0.1
v -2.2 2 0.1
v -2.1 2 0.1
v -1.7 2 0.1
v -1.6 2 0.1
v -1.4 2 0.1
v -1.3 2 0.1
v -1.2 2 0.1
v -1.1 2 0.1
v -0.7 2 0.1
v -2.9 2 -0.1
v -2.8 2 -0.1
v -2.7 2 -0.1
v -2.6 2 -0.1
v -2.2 2 -0.1
v -2.1 2 -0.1
v -1.7 2 -0.1
v -1.6 2 -0.1
v -1.4 2 -0.1
v -1.3 2 -0.1
v -1.2 2 -0.1
v -1.1 2 -0.1
v -0.3 2 -0.1
v -2.9 2 -0.2
v -2.8 2 -0.2
v -2.7 2 -0.2
v -2.6 2 -0.2
v -2.2 2 -0.2
v -2.1 2 -0.2
v -1.7 2 -0.2
v -1.6 2 -0.2
v -1.4 2 -0.2
v -1.3 2 -0.2
v -1.2 2 -0.2
v -1.1 2 -0.2
v -0.3 2 -0.2
v -2.9 2.1 0.1
v -2.8 2.1 0.1
v -2.7 2.1 0.1
v -2.6 2.1 0.1
v -2.4 2.1 0.1
v -2.3 2.1 0.1
v -2.2 2.1 0.1
v -2.1 2.1 0.1
v -1.7 2.1 0.1
v -1.6 2.1 0.1
v -1.4 2.1 0.1
v -1.3 2.1 0.1
v -1.2 2.1 0.1
v -1.1 2.1 0.1
v -1 2.1 0.1
v -2.9 2.1 -0.1
v -2.8 2.1 -0.1
v -2.7 2.1 -0.1
v -2.6 2.1 -0.1
v -2.4 2.1 -0.1
v -2.3 2.1 -0.1
v -2.2 2.1 -0.1
v -2.1 2.1 -0.1
v -1.7 2.1 -0.1
v -1.6 2.1 -0.1
v -1.4 2.1 -0.1
v -1.3 2.1 -0.1
v -1.2 2.1 -0.1
v -1.1 2.1 -0.1
v -1 2.1 -0.1
v -1.1 0.4 1.5
v 2.9 0.4 1.5
v -1 0.4 1.4
v 2.8 0.4 1.4
v -1.1 0.4 1.3
v -1 0.4 1.3
v 2.8 0.4 1.3
v 2.9 0.4 1.3
v -1.1 0.4 -1.3
v -1 0.4 -1.3
v 2.8 0.4 -1.3
v 2.9 0.4 -1.3
v -1 0.4 -1.4
v 2.8 0.4 -1.4
v -1.1 0.4 -1.5
v 2.9 0.4 -1.5
v -1 0.5 0.7
v 2.8 0.5 0.7
v -1 0.5 0.6
v 2.8 0.5 0.6
v -1 0.5 -0.6
v 2.8 0.5 -0.6
v -1 0.5 -0.7
v 2.8 0.5 -0.7
v -1.1 0.5 -1.2
v -1 0.5 -1.2
v 2.8 0.5 -1.2
v 2.9 0.5 -1.2
v -1.1 0.5 -1.3
v -1 0.5 -1.3
v 2.8 0.5 -1.3
v 2.9 0.5 -1.3
v -1.1 0.6 1.3
v 2.8 0.6 1.3
v 2.9 0.6 1.3
v -1.1 0.6 1.2
v -1 0.6 1.2
v -1 0.6 0.9
v -0.8 0.6 0.9
v 2.6 0.6 0.9
v 2.8 0.6 0.9
v 2.9 0.6 0.9
v -1.1 0.6 0.8
v -1 0.6 0.8
v -0.8 0.6 0.8
v 2.6 0.6 0.8
v -1.1 0.6 0.7
v -1 0.6 0.7
v -0.8 0.6 0.7
v 2.6 0.6 0.7
v -1.1 0.6 0.6
v -1 0.6 0.6
v -1.1 0.6 -0.6
v -1 0.6 -0.6
v -1.1 0.6 -0.7
v -1 0.6 -0.7
v -0.8 0.6 -0.7
v 2.6 0.6 -0.7
v -1.1 0.6 -0.8
v -1 0.6 -0.8
v -0.8 0.6 -0.8
v 2.6 0.6 -0.8
v -1 0.6 -0.9
v -0.8 0.6 -0.9
v 2.6 0.6 -0.9
v 2.8 0.6 -0.9
v 2.9 0.6 -0.9
v -1.1 0.6 -1.2
v -1 0.6 -1.2
v 2.8 0.6 -1.2
v 2.9 0.6 -1.2
v -1 1.3 0.9
v -0.8 1.3 0.9
v -1 1.3 0.8
v -0.8 1.3 0.8
v -1 1.3 -0.8
v -0.8 1.3 -0.8
v -1 1.3 -0.9
v -0.8 1.3 -0.9
v 2.6 1.4 0.9
v 2.8 1.4 0.9
v 2.9 1.4 0.9
v -1.1 1.4 0.8
v -0.8 1.4 0.8
v -1.1 1.4 0.5
v -0.8 1.4 0.5
v 2.6 1.4 0.4
v 2.8 1.4 0.4
v 2.8 1.4 0.3
v 2.9 1.4 0.3
v 2.8 1.4 -0.3
v 2.9 1.4 -0.3
v 2.6 1.4 -0.4
v 2.8 1.4 -0.4
v -1.1 1.4 -0.5
v -0.8 1.4 -0.5
v -1.1 1.4 -0.8
v -0.8 1.4 -0.8
v 2.6 1.4 -0.9
v 2.8 1.4 -0.9
v 2.9 1.4 -0.9
v 0.2 1.5 0.3
v 0.7 1.5 0.3
v -0.0999999 1.5 0.2
v 0.2 1.5 0.2
v 0.7 1.5 0.2
v 0.8 1.5 0.2
v -0.0999999 1.5 -0.2
v 0.2 1.5 -0.2
v 0.7 1.5 -0.2
v 0.8 1.5 -0.2
v 0.2 1.5 -0.3
v 0.7 1.5 -0.3
v -1.1 1.6 0.5
v -0.9 1.6 0.5
v 0.2 1.6 0.5
v 0.7 1.6 0.5
v -1.1 1.6 0.4
v -0.9 1.6 0.4
v 0.2 1.6 0.3
v 0.7 1.6 0.3
v -2.9 1.6 0.1
v -2.7 1.6 0.1
v -2.6 1.6 0.1
v -2.2 1.6 0.1
v -2.1 1.6 0.1
v -1.7 1.6 0.1
v -1.6 1.6 0.1
v -1.3 1.6 0.1
v -1.2 1.6 0.1
v -1.1 1.6 0.1
v -0.3 1.6 0.1
v -2.9 1.6 -0.1
v -2.7 1.6 -0.1
v -2.6 1.6 -0.1
v -2.2 1.6 -0.1
v -2.1 1.6 -0.1
v -1.7 1.6 -0.1
v -1.6 1.6 -0.1
v -1.3 1.6 -0.1
v -1.2 1.6 -0.1
v -1.1 1.6 -0.1
v -0.3 1.6 -0.1
v 0.2 1.6 -0.3
v 0.7 1.6 -0.3
v -1.1 1.6 -0.4
v -0.9 1.6 -0.4
v -1.1 1.6 -0.5
v -0.9 1.6 -0.5
v 0.2 1.6 -0.5
v 0.7 1.6 -0.5
v 2.6 1.7 0.3
v 2.7 1.7 0.3
v -2.9 1.7 0.2
v -2.7 1.7 0.2
v -2.6 1.7 0.2
v -2.2 1.7 0.2
v -2.1 1.7 0.2
v -1.7 1.7 0.2
v -1.6 1.7 0.2
v -1.3 1.7 0.2
v -1.2 1.7 0.2
v -1.1 1.7 0.2
v -0.7 1.7 0.2
v 2.6 1.7 0.2
v 2.7 1.7 0.2
v -3 1.7 0.1
v -2.9 1.7 0.1
v -2.8 1.7 0.1
v -2.7 1.7 0.1
v -2.6 1.7 0.1
v -2.2 1.7 0.1
v -2.1 1.7 0.1
v -1.7 1.7 0.1
v -1.6 1.7 0.1
v -1.3 1.7 0.1
v -1.2 1.7 0.1
v -1.1 1.7 0.1
v -0.7 1.7 0.1
v -3 1.7 -0.1
v -2.9 1.7 -0.1
v -2.8 1.7 -0.1
v -2.7 1.7 -0.1
v -2.6 1.7 -0.1
v -2.2 1.7 -0.1
v -2.1 1.7 -0.1
v -1.7 1.7 -0.1
v -1.6 1.7 -0.1
v -1.3 1.7 -0.1
v -1.2 1.7 -0.1
v -1.1 1.7 -0.1
v -0.3 1.7 -0.1
v -2.9 1.7 -0.2
v -2.7 1.7 -0.2
v -2.6 1.7 -0.2
v -2.2 1.7 -0.2
v -2.1 1.7 -0.2
v -1.7 1.7 -0.2
v -1.6 1.7 -0.2
v -1.3 1.7 -0.2
v -1.2 1.7 -0.2
v -1.1 1.7 -0.2
v -0.3 1.7 -0.2
v 2.6 1.7 -0.2
v 2.7 1.7 -0.2
v 2.6 1.7 -0.3
v 2.7 1.7 -0.3
v -0.0999999 1.8 0.1
v 0.2 1.8 0.1
v 0.3 1.8 0.1
v 0.4 1.8 0.1
v 0.5 1.8 0.1
v 0.6 1.8 0.1
v 0.7 1.8 0.1
v 0.8 1.8 0.1
v -0.0999999 1.8 -0.1
v 0.2 1.8 -0.1
v 0.3 1.8 -0.1
v 0.4 1.8 -0.1
v 0.5 1.8 -0.1
v 0.6 1.8 -0.1
v 0.7 1.8 -0.1
v 0.8 1.8 -0.1
v -0.9 1.9 0.5
v -0.5 1.9 0.5
v -0.9 1.9 0.4
v -0.5 1.9 0.4
v -0.9 1.9 -0.4
v -0.5 1.9 -0.4
v -0.9 1.9 -0.5
v -0.5 1.9 -0.5
v -0.5 2 0.5
v 0.4 2 0.5
v 2.2 2 0.5
v 2.7 2 0.5
v -1.1 2 0.4
v -1 2 0.4
v -0.5 2 0.4
v 0.4 2 0.4
v 2.2 2 0.4
v 2.7 2 0.4
v 2.8 2 0.4
v 2.9 2 0.4
v -3 2 0.3
v -2.9 2 0.3
v -2.7 2 0.3
v -2.6 2 0.3
v -2.2 2 0.3
v -2.1 2 0.3
v -1.7 2 0.3
v -1.6 2 0.3
v -1.3 2 0.3
v -1.2 2 0.3
v -1.1 2 0.3
v -1 2 0.3
v 2.7 2 0.3
v 2.8 2 0.3
v 2.9 2 0.3
v -3 2 0.2
v -2.9 2 0.2
v -2.8 2 0.2
v -2.7 2 0.2
v -2.6 2 0.2
v -2.2 2 0.2
v -2.1 2 0.2
v -1.7 2 0.2
v -1.6 2 0.2
v -1.4 2 0.2
v -1.3 2 0.2
v -1.2 2 0.2
v -1.1 2 0.2
v -2.9 2 0.1
v -2.8 2 0.1
v -2.7 2 0.1
v -2.6 2 0.1
v -2.2 2 0.1
v -2.1 2 0.1
v -1.7 2 0.1
v -1.6 2 0.1
v -1.4 2 0.1
v -1.3 2 0.1
v -1.2 2 0.1
v -1.1 2 0.1
v -1 2 0.1
v -2.9 2 -0.1
v -2.8 2 -0.1
v -2.7 2 -0.1
v -2.6 2 -0.1
v -2.2 2 -0.1
v -2.1 2 -0.1
v -1.7 2 -0.1
v -1.6 2 -0.1
v -1.4 2 -0.1
v -1.3 2 -0.1
v -1.2 2 -0.1
v -1.1 2 -0.1
v -1 2 -0.1
v -3 2 -0.2
v -2.9 2 -0.2
v -2.8 2 -0.2
v -2.7 2 -0.2
v -2.6 2 -0.2
v -2.2 2 -0.2
v -2.1 2 -0.2
v -1.7 2 -0.2
v -1.6 2 -0.2
v -1.4 2 -0.2
v -1.3 2 -0.2
v -1.2 2 -0.2
v -1.1 2 -0.2
v -3 2 -0.3
v -2.9 2 -0.3
v -2.7 2 -0.3
v -2.6 2 -0.3
v -2.2 2 -0.3
v -2.1 2 -0.3
v -1.7 2 -0.3
v -1.6 2 -0.3
v -1.3 2 -0.3
v -1.2 2 -0.3
v -1.1 2 -0.3
v -1 2 -0.3
v 2.7 2 -0.3
v 2.8 2 -0.3
v 2.9 2 -0.3
v -1.1 2 -0.4
v -1 2 -0.4
v -0.5 2 -0.4
v 0.4 2 -0.4
v 2.2 2 -0.4
v 2.7 2 -0.4
v 2.8 2 -0.4
v 2.9 2 -0.4
v -0.5 2 -0.5
v 0.4 2 -0.5
v 2.2 2 -0.5
v 2.7 2 -0.5
v 0.4 2.1 0.5
v 2.2 2.1 0.5
v -1 2.1 0.4
v 0.4 2.1 0.4
v 2.2 2.1 0.4
v 2.7 2.1 0.4
v -1.1 2.1 0.3
v -1 2.1 0.3
v -0.7 2.1 0.3
v 2.6 2.1 0.3
v 2.7 2.1 0.3
v 2.8 2.1 0.3
v 2.9 2.1 0.3
v -3 2.1 0.2
v -2.8 2.1 0.2
v -2.7 2.1 0.2
v -2.6 2.1 0.2
v -2.2 2.1 0.2
v -2.1 2.1 0.2
v -1.7 2.1 0.2
v -1.6 2.1 0.2
v -1.4 2.1 0.2
v -1.3 2.1 0.2
v -1.2 2.1 0.2
v -1.1 2.1 0.2
v -1 2.1 0.2
v 2.7 2.1 0.2
v 2.8 2.1 0.2
v 2.9 2.1 0.2
v -3 2.1 0.1
v -2.9 2.1 0.1
v -2.8 2.1 0.1
v -2.7 2.1 0.1
v -2.6 2.1 0.1
v -2.4 2.1 0.1
v -2.3 2.1 0.1
v -2.2 2.1 0.1
v -2.1 2.1 0.1
v -1.7 2.1 0.1
v -1.6 2.1 0.1
v -1.4 2.1 0.1
v -1.3 2.1 0.1
v -1.2 2.1 0.1
v -1.1 2.1 0.1
v -3 2.1 -0.1
v -2.9 2.1 -0.1
v -2.8 2.1 -0.1
v -2.7 2.1 -0.1
v -2.6 2.1 -0.1
v -2.4 2.1 -0.1
v -2.3 2.1 -0.1
v -2.2 2.1 -0.1
v -2.1 2.1 -0.1
v -1.7 2.1 -0.1
v -1.6 2.1 -0.1
v -1.4 2.1 -0.1
v -1.3 2.1 -0.1
v -1.2 2.1 -0.1
v -1.1 2.1 -0.1
v -3 2.1 -0.2
v -2.8 2.1 -0.2
v -2.7 2.1 -0.2
v -2.6 2.1 -0.2
v -2.2 2.1 -0.2
v -2.1 2.1 -0.2
v -1.7 2.1 -0.2
v -1.6 2.1 -0.2
v -1.4 2.1 -0.2
v -1.3 2.1 -0.2
v -1.2 2.1 -0.2
v -1.1 2.1 -0.2
v -1 2.1 -0.2
v 2.7 2.1 -0.2
v 2.8 2.1 -0.2
v 2.9 2.1 -0.2
v -1.1 2.1 -0.3
v -1 2.1 -0.3
v -0.7 2.1 -0.3
v 2.6 2.1 -0.3
v 2.7 2.1 -0.3
v 2.8 2.1 -0.3
v 2.9 2.1 -0.3
v -1 2.1 -0.4
v 0.4 2.1 -0.4
v 2.2 2.1 -0.4
v 2.7 2.1 -0.4
v 0.4 2.1 -0.5
v 2.2 2.1 -0.5
v -1 2.2 0.3
v -0.7 2.2 0.3
v 2.6 2.2 0.3
v 2.7 2.2 0.3
v -1.1 2.2 0.2
v -1 2.2 0.2
v -0.7 2.2 0.2
v 2.6 2.2 0.2
v 2.7 2.2 0.2
v 2.8 2.2 0.2
v 2.9 2.2 0.2
v -3 2.2 0.1
v -2.9 2.2 0.1
v -2.4 2.2 0.1
v -2.3 2.2 0.1
v -1.4 2.2 0.1
v -1.2 2.2 0.1
v -1.1 2.2 0.1
v -3 2.2 -0.1
v -2.9 2.2 -0.1
v -2.4 2.2 -0.1
v -2.3 2.2 -0.1
v -1.4 2.2 -0.1
v -1.2 2.2 -0.1
v -1.1 2.2 -0.1
v -1.1 2.2 -0.2
v -1 2.2 -0.2
v -0.7 2.2 -0.2
v 2.6 2.2 -0.2
v 2.7 2.2 -0.2
v 2.8 2.2 -0.2
v 2.9 2.2 -0.2
v -1 2.2 -0.3
v -0.7 2.2 -0.3
v 2.6 2.2 -0.3
v 2.7 2.2 -0.3
v -1 2.3 0.2
v 2.7 2.3 0.2
v -1 2.3 -0.2
v 2.7 2.3 -0.2

# faces
f 4/5/1 2/5/1 1/5/1
f 5/5/1 2/5/1 4/5/1
f 8/10/1 4/10/1 3/10/1
f 9/6/1 5/6/1 4/6/1
f 9/10/1 4/10/1 8/10/1
f 10/10/1 6/10/1 5/10/1
f 10/6/1 5/6/1 9/6/1
f 11/10/1 6/10/1 10/10/1
f 13/6/1 9/6/1 8/6/1
f 14/6/1 11/6/1 10/6/1
f 15/13/1 8/13/1 7/13/1
f 16/6/1 14/6/1 13/6/1
f 16/13/1 8/13/1 15/13/1
f 16/6/1 13/6/1 8/6/1
f 17/6/1 14/6/1 16/6/1
f 18/6/1 11/6/1 14/6/1
f 18/6/1 14/6/1 17/6/1
f 19/13/1 12/13/1 11/13/1
f 19/6/1 11/6/1 18/6/1
f 20/13/1 12/13/1 19/13/1
f 21/1/1 17/1/1 16/1/1
f 22/6/1 18/6/1 17/6/1
f 22/1/1 17/1/1 21/1/1
f 23/1/1 19/1/1 18/1/1
f 23/6/1 18/6/1 22/6/1
f 24/1/1 19/1/1 23/1/1
f 25/1/1 23/1/1 22/1/1
f 26/1/1 23/1/1 25/1/1
f 29/7/1 28/7/1 27/7/1
f 30/7/1 28/7/1 29/7/1
f 36/10/1 32/10/1 31/10/1
f 37/10/1 32/10/1 36/10/1
f 38/10/1 34/10/1 33/10/1
f 39/10/1 34/10/1 38/10/1
f 41/11/1 36/11/1 35/11/1
f 42/11/1 36/11/1 41/11/1
f 45/11/1 40/11/1 39/11/1
f 46/11/1 40/11/1 45/11/1
f 47/5/1 43/5/1 42/5/1
f 48/5/1 43/5/1 47/5/1
f 49/5/1 45/5/1 44/5/1
f 50/5/1 45/5/1 49/5/1
f 56/10/1 52/10/1 51/10/1
f 57/10/1 52/10/1 56/10/1
f 58/10/1 54/10/1 53/10/1
f 59/10/1 54/10/1 58/10/1
f 61/11/1 56/11/1 55/11/1
f 62/11/1 56/11/1 61/11/1
f 65/11/1 60/11/1 59/11/1
f 66/11/1 60/11/1 65/11/1
f 67/5/1 63/5/1 62/5/1
f 68/5/1 63/5/1 67/5/1
f 69/5/1 65/5/1 64/5/1
f 70/5/1 65/5/1 69/5/1
f 76/10/1 72/10/1 71/10/1
f 77/10/1 72/10/1 76/10/1
f 78/10/1 74/10/1 73/10/1
f 79/10/1 74/10/1 78/10/1
f 81/11/1 76/11/1 75/11/1
f 82/11/1 76/11/1 81/11/1
f 85/11/1 80/11/1 79/11/1
f 86/11/1 80/11/1 85/11/1
f 87/5/1 83/5/1 82/5/1
f 88/5/1 83/5/1 87/5/1
f 89/5/1 85/5/1 84/5/1
f 90/5/1 85/5/1 89/5/1
f 93/10/1 92/10/1 91/10/1
f 94/10/1 92/10/1 93/10/1
f 97/11/1 95/11/1 94/11/1
f 98/11/1 95/11/1 97/11/1
f 99/5/1 97/5/1 96/5/1
f 100/5/1 97/5/1 99/5/1
f 105/12/1 102/12/1 101/12/1
f 108/12/1 104/12/1 103/12/1
f 109/12/1 106/12/1 105/12/1
f 109/12/1 105/12/1 101/12/1
f 110/12/1 106/12/1 109/12/1
f 111/12/1 106/12/1 110/12/1
f 114/12/1 108/12/1 107/12/1
f 115/12/1 104/12/1 108/12/1
f 115/12/1 108/12/1 114/12/1
f 116/12/1 104/12/1 115/12/1
f 117/12/1 112/12/1 111/12/1
f 117/12/1 111/12/1 110/12/1
f 118/12/1 112/12/1 117/12/1
f 119/12/1 114/12/1 113/12/1
f 119/12/1 115/12/1 114/12/1
f 120/12/1 115/12/1 119/12/1
f 121/4/1 118/4/1 117/4/1
f 122/12/1 112/12/1 118/12/1
f 122/4/1 118/4/1 121/4/1
f 123/12/1 112/12/1 122/12/1
f 124/12/1 112/12/1 123/12/1
f 125/12/1 112/12/1 124/12/1
f 126/12/1 119/12/1 113/12/1
f 127/12/1 119/12/1 126/12/1
f 128/12/1 119/12/1 127/12/1
f 129/12/1 119/12/1 128/12/1
f 130/9/1 124/9/1 123/9/1
f 133/9/1 128/9/1 127/9/1
f 134/9/1 131/9/1 130/9/1
f 134/9/1 130/9/1 123/9/1
f 135/9/1 131/9/1 134/9/1
f 136/9/1 131/9/1 135/9/1
f 137/9/1 133/9/1 132/9/1
f 138/9/1 133/9/1 137/9/1
f 139/9/1 128/9/1 133/9/1
f 139/9/1 133/9/1 138/9/1
f 140/4/1 136/4/1 135/4/1
f 140/4/1 138/4/1 137/4/1
f 140/4/1 137/4/1 136/4/1
f 141/4/1 138/4/1 140/4/1
f 142/4/1 140/4/1 135/4/1
f 143/4/1 140/4/1 142/4/1
f 144/4/1 140/4/1 143/4/1
f 145/4/1 140/4/1 144/4/1
f 146/4/1 138/4/1 141/4/1
f 147/4/1 138/4/1 146/4/1
f 148/4/1 138/4/1 147/4/1
f 149/4/1 138/4/1 148/4/1
f 150/4/1 144/4/1 143/4/1
f 151/4/1 144/4/1 150/4/1
f 152/4/1 148/4/1 147/4/1
f 153/4/1 148/4/1 152/4/1
f 154/4/1 150/4/1 143/4/1
f 155/4/1 150/4/1 154/4/1
f 158/4/1 148/4/1 153/4/1
f 159/4/1 148/4/1 158/4/1
f 160/4/1 156/4/1 155/4/1
f 161/4/1 156/4/1 160/4/1
f 164/4/1 158/4/1 157/4/1
f 165/4/1 158/4/1 164/4/1
f 166/4/1 162/4/1 161/4/1
f 167/4/1 162/4/1 166/4/1
f 168/4/1 164/4/1 163/4/1
f 169/4/1 164/4/1 168/4/1
f 178/9/1 173/9/1 172/9/1
f 179/9/1 173/9/1 178/9/1
f 180/9/1 175/9/1 174/9/1
f 181/9/1 175/9/1 180/9/1
f 182/9/1 171/9/1 170/9/1
f 183/9/1 171/9/1 182/9/1
f 184/9/1 177/9/1 176/9/1
f 185/9/1 177/9/1 184/9/1
f 192/4/1 187/4/1 186/4/1
f 193/4/1 187/4/1 192/4/1
f 195/4/1 189/4/1 188/4/1
f 196/4/1 189/4/1 195/4/1
f 198/4/1 191/4/1 190/4/1
f 199/4/1 191/4/1 198/4/1
f 200/4/1 194/4/1 193/4/1
f 201/4/1 194/4/1 200/4/1
f 202/4/1 198/4/1 197/4/1
f 203/4/1 198/4/1 202/4/1
f 204/4/1 202/4/1 201/4/1
f 205/4/1 202/4/1 204/4/1
f 210/4/1 207/4/1 206/4/1
f 211/4/1 207/4/1 210/4/1
f 212/4/1 209/4/1 208/4/1
f 213/4/1 209/4/1 212/4/1
f 216/4/1 215/4/1 214/4/1
f 217/4/1 215/4/1 216/4/1
f 222/4/1 219/4/1 218/4/1
f 223/4/1 219/4/1 222/4/1
f 224/4/1 221/4/1 220/4/1
f 225/4/1 221/4/1 224/4/1
f 228/4/1 227/4/1 226/4/1
f 229/4/1 227/4/1 228/4/1
f 231/4/1 230/4/1 229/4/1
f 232/4/1 230/4/1 231/4/1
f 237/4/1 234/4/1 233/4/1
f 238/4/1 234/4/1 237/4/1
f 239/4/1 236/4/1 235/4/1
f 240/4/1 236/4/1 239/4/1
f 246/4/1 242/4/1 241/4/1
f 247/4/1 244/4/1 243/4/1
f 249/4/1 246/4/1 245/4/1
f 250/4/1 242/4/1 246/4/1
f 250/4/1 246/4/1 249/4/1
f 251/4/1 248/4/1 247/4/1
f 251/4/1 247/4/1 243/4/1
f 252/4/1 248/4/1 251/4/1
f 255/7/1 254/7/1 253/7/1
f 256/7/1 254/7/1 255/7/1
f 257/7/1 255/7/1 253/7/1
f 258/7/1 254/7/1 256/7/1
f 259/7/1 257/7/1 253/7/1
f 259/7/1 258/7/1 257/7/1
f 260/7/1 254/7/1 258/7/1
f 260/7/1 258/7/1 259/7/1
f 269/4/1 262/4/1 261/4/1
f 269/4/1 263/4/1 262/4/1
f 269/4/1 264/4/1 263/4/1
f 272/4/1 268/4/1 267/4/1
f 272/4/1 267/4/1 266/4/1
f 272/4/1 266/4/1 265/4/1
f 273/4/1 270/4/1 269/4/1
f 274/4/1 270/4/1 273/4/1
f 275/4/1 272/4/1 271/4/1
f 276/4/1 272/4/1 275/4/1
f 277/4/1 269/4/1 261/4/1
f 277/4/1 273/4/1 269/4/1
f 278/4/1 273/4/1 277/4/1
f 279/4/1 272/4/1 276/4/1
f 280/4/1 268/4/1 272/4/1
f 280/4/1 272/4/1 279/4/1
f 285/4/1 282/4/1 281/4/1
f 286/4/1 282/4/1 285/4/1
f 287/4/1 284/4/1 283/4/1
f 288/4/1 284/4/1 287/4/1
f 293/12/1 290/12/1 289/12/1
f 294/12/1 290/12/1 293/12/1
f 295/12/1 292/12/1 291/12/1
f 296/12/1 292/12/1 295/12/1
f 297/6/2 298/6/2 300/6/2
f 300/6/2 298/6/2 301/6/2
f 299/6/2 300/6/2 303/6/2
f 301/6/2 302/6/2 304/6/2
f 299/6/2 303/6/2 305/6/2
f 305/6/2 303/6/2 306/6/2
f 304/6/2 302/6/2 307/6/2
f 307/6/2 302/6/2 308/6/2
f 306/6/2 307/6/2 309/6/2
f 309/6/2 307/6/2 310/6/2
f 311/10/2 312/10/2 316/10/2
f 316/10/2 312/10/2 317/10/2
f 313/10/2 314/10/2 318/10/2
f 318/10/2 314/10/2 319/10/2
f 315/11/2 316/11/2 321/11/2
f 321/11/2 316/11/2 322/11/2
f 319/11/2 320/11/2 325/11/2
f 325/11/2 320/11/2 326/11/2
f 322/5/2 323/5/2 327/5/2
f 327/5/2 323/5/2 328/5/2
f 324/5/2 325/5/2 329/5/2
f 329/5/2 325/5/2 330/5/2
f 331/10/2 332/10/2 336/10/2
f 336/10/2 332/10/2 337/10/2
f 333/10/2 334/10/2 338/10/2
f 338/10/2 334/10/2 339/10/2
f 335/11/2 336/11/2 341/11/2
f 341/11/2 336/11/2 342/11/2
f 339/11/2 340/11/2 345/11/2
f 345/11/2 340/11/2 346/11/2
f 342/5/2 343/5/2 347/5/2
f 347/5/2 343/5/2 348/5/2
f 344/5/2 345/5/2 349/5/2
f 349/5/2 345/5/2 350/5/2
f 351/10/2 352/10/2 356/10/2
f 356/10/2 352/10/2 357/10/2
f 353/10/2 354/10/2 358/10/2
f 358/10/2 354/10/2 359/10/2
f 355/11/2 356/11/2 361/11/2
f 361/11/2 356/11/2 362/11/2
f 359/11/2 360/11/2 365/11/2
f 365/11/2 360/11/2 366/11/2
f 362/5/2 363/5/2 367/5/2
f 367/5/2 363/5/2 368/5/2
f 364/5/2 365/5/2 369/5/2
f 369/5/2 365/5/2 370/5/2
f 371/10/2 372/10/2 373/10/2
f 373/10/2 372/10/2 374/10/2
f 374/11/2 375/11/2 377/11/2
f 377/11/2 375/11/2 378/11/2
f 376/1/2 377/1/2 379/1/2
f 379/1/2 377/1/2 380/1/2
f 381/12/2 382/12/2 385/12/2
f 385/12/2 382/12/2 386/12/2
f 383/12/2 384/12/2 387/12/2
f 387/12/2 384/12/2 388/12/2
f 389/9/2 390/9/2 393/9/2
f 393/9/2 390/9/2 394/9/2
f 391/9/2 392/9/2 399/9/2
f 399/9/2 392/9/2 400/9/2
f 395/9/2 396/9/2 401/9/2
f 401/9/2 396/9/2 402/9/2
f 402/9/2 396/9/2 403/9/2
f 397/9/2 398/9/2 404/9/2
f 404/9/2 398/9/2 405/9/2
f 405/9/2 398/9/2 406/9/2
f 407/9/2 408/9/2 413/9/2
f 408/9/2 409/9/2 413/9/2
f 411/9/2 412/9/2 416/9/2
f 410/9/2 411/9/2 416/9/2
f 413/9/2 414/9/2 417/9/2
f 407/9/2 413/9/2 417/9/2
f 417/9/2 414/9/2 418/9/2
f 418/9/2 414/9/2 419/9/2
f 415/9/2 416/9/2 422/9/2
f 416/9/2 412/9/2 423/9/2
f 422/9/2 416/9/2 423/9/2
f 423/9/2 412/9/2 424/9/2
f 419/9/2 420/9/2 425/9/2
f 418/9/2 419/9/2 425/9/2
f 425/9/2 420/9/2 426/9/2
f 426/9/2 420/9/2 427/9/2
f 421/9/2 422/9/2 428/9/2
f 422/9/2 423/9/2 428/9/2
f 428/9/2 423/9/2 429/9/2
f 429/9/2 423/9/2 430/9/2
f 426/4/2 427/4/2 431/4/2
f 431/4/2 427/4/2 432/4/2
f 428/4/2 429/4/2 433/4/2
f 433/4/2 429/4/2 434/4/2
f 435/4/2 436/4/2 437/4/2
f 437/4/2 436/4/2 438/4/2
f 438/4/2 436/4/2 439/4/2
f 439/4/2 436/4/2 440/4/2
f 437/7/2 438/7/2 441/7/2
f 439/7/2 440/7/2 442/7/2
f 437/7/2 441/7/2 443/7/2
f 441/7/2 442/7/2 443/7/2
f 442/7/2 440/7/2 444/7/2
f 443/7/2 442/7/2 444/7/2
f 445/4/2 446/4/2 450/4/2
f 447/4/2 448/4/2 451/4/2
f 449/4/2 450/4/2 453/4/2
f 450/4/2 446/4/2 454/4/2
f 453/4/2 450/4/2 454/4/2
f 451/4/2 452/4/2 455/4/2
f 447/4/2 451/4/2 455/4/2
f 455/4/2 452/4/2 456/4/2
f 457/4/2 458/4/2 461/4/2
f 461/4/2 458/4/2 462/4/2
f 459/4/2 460/4/2 463/4/2
f 463/4/2 460/4/2 464/4/2
f 465/4/2 466/4/2 469/4/2
f 469/4/2 466/4/2 470/4/2
f 467/4/2 468/4/2 471/4/2
f 471/4/2 468/4/2 472/4/2
f 473/4/2 474/4/2 477/4/2
f 477/4/2 474/4/2 478/4/2
f 475/4/2 476/4/2 479/4/2
f 479/4/2 476/4/2 480/4/2
f 481/4/2 482/4/2 485/4/2
f 485/4/2 482/4/2 486/4/2
f 483/4/2 484/4/2 487/4/2
f 487/4/2 484/4/2 488/4/2
f 489/4/2 490/4/2 493/4/2
f 493/4/2 490/4/2 494/4/2
f 491/4/2 492/4/2 497/4/2
f 497/4/2 492/4/2 498/4/2
f 494/4/2 495/4/2 499/4/2
f 499/4/2 495/4/2 500/4/2
f 496/4/2 497/4/2 503/4/2
f 503/4/2 497/4/2 504/4/2
f 500/4/2 501/4/2 505/4/2
f 505/4/2 501/4/2 506/4/2
f 502/4/2 503/4/2 507/4/2
f 507/4/2 503/4/2 508/4/2
f 506/4/2 507/4/2 509/4/2
f 509/4/2 507/4/2 510/4/2
f 511/4/2 512/4/2 517/4/2
f 512/4/2 513/4/2 517/4/2
f 517/4/2 513/4/2 518/4/2
f 515/4/2 516/4/2 519/4/2
f 514/4/2 515/4/2 519/4/2
f 519/4/2 516/4/2 520/4/2
f 511/4/2 517/4/2 521/4/2
f 521/4/2 517/4/2 522/4/2
f 520/4/2 516/4/2 523/4/2
f 523/4/2 516/4/2 524/4/2
f 525/12/2 526/12/2 529/12/2
f 527/12/2 528/12/2 532/12/2
f 529/12/2 530/12/2 533/12/2
f 525/12/2 529/12/2 533/12/2
f 533/12/2 530/12/2 534/12/2
f 534/12/2 530/12/2 535/12/2
f 531/12/2 532/12/2 538/12/2
f 532/12/2 528/12/2 539/12/2
f 538/12/2 532/12/2 539/12/2
f 539/12/2 528/12/2 540/12/2
f 537/12/2 538/12/2 541/12/2
f 538/12/2 539/12/2 541/12/2
f 541/12/2 539/12/2 542/12/2
f 535/12/2 536/12/2 543/12/2
f 534/12/2 535/12/2 543/12/2
f 543/12/2 536/12/2 544/12/2
f 537/12/2 541/12/2 545/12/2
f 545/12/2 541/12/2 546/12/2
f 544/12/2 536/12/2 547/12/2
f 537/12/2 545/12/2 550/12/2
f 547/12/2 548/12/2 551/12/2
f 544/12/2 547/12/2 551/12/2
f 551/12/2 548/12/2 552/12/2
f 549/12/2 550/12/2 555/12/2
f 550/12/2 545/12/2 556/12/2
f 555/12/2 550/12/2 556/12/2
f 553/12/2 554/12/2 558/12/2
f 558/12/2 554/12/2 559/12/2
f 557/12/2 558/12/2 562/12/2
f 559/12/2 560/12/2 562/12/2
f 558/12/2 559/12/2 562/12/2
f 562/12/2 560/12/2 563/12/2
f 561/12/2 562/12/2 565/12/2
f 563/12/2 564/12/2 565/12/2
f 562/12/2 563/12/2 565/12/2
f 565/12/2 564/12/2 566/12/2
f 566/12/2 564/12/2 567/12/2
f 567/12/2 564/12/2 568/12/2
f 566/12/2 567/12/2 569/12/2
f 569/12/2 567/12/2 570/12/2
f 570/12/2 567/12/2 571/12/2
f 571/12/2 567/12/2 572/12/2
f 570/12/2 571/12/2 573/12/2
f 573/12/2 571/12/2 574/12/2
f 577/12/3 576/12/3 575/12/3
f 578/12/3 576/12/3 577/12/3
f 582/12/3 580/12/3 579/12/3
f 583/4/3 581/4/3 580/4/3
f 583/12/3 580/12/3 582/12/3
f 584/4/3 583/4/3 582/4/3
f 585/4/3 581/4/3 583/4/3
f 585/4/3 583/4/3 584/4/3
f 586/12/3 585/12/3 584/12/3
f 587/12/3 585/12/3 586/12/3
f 590/9/3 589/9/3 588/9/3
f 591/9/3 589/9/3 590/9/3
f 594/4/3 593/4/3 592/4/3
f 595/4/3 593/4/3 594/4/3
f 596/12/3 595/12/3 594/12/3
f 597/12/3 595/12/3 596/12/3
f 600/9/3 599/9/3 598/9/3
f 601/9/3 599/9/3 600/9/3
f 602/9/3 599/9/3 601/9/3
f 603/9/3 599/9/3 602/9/3
f 606/4/3 605/4/3 604/4/3
f 608/4/3 606/4/3 604/4/3
f 608/4/3 607/4/3 606/4/3
f 609/4/3 607/4/3 608/4/3
f 610/4/3 607/4/3 609/4/3
f 612/4/3 610/4/3 609/4/3
f 612/4/3 611/4/3 610/4/3
f 613/4/3 611/4/3 612/4/3
f 614/4/3 611/4/3 613/4/3
f 616/4/3 612/4/3 609/4/3
f 617/4/3 615/4/3 614/4/3
f 617/4/3 614/4/3 613/4/3
f 618/4/3 616/4/3 609/4/3
f 618/4/3 617/4/3 616/4/3
f 619/4/3 617/4/3 618/4/3
f 620/13/3 619/13/3 618/13/3
f 620/4/3 617/4/3 619/4/3
f 621/4/3 617/4/3 620/4/3
f 622/13/3 621/13/3 620/13/3
f 622/4/3 617/4/3 621/4/3
f 623/4/3 615/4/3 617/4/3
f 623/4/3 617/4/3 622/4/3
f 624/13/3 622/13/3 620/13/3
f 624/13/3 620/13/3 618/13/3
f 624/13/3 623/13/3 622/13/3
f 625/13/3 623/13/3 624/13/3
f 626/13/3 623/13/3 625/13/3
f 627/4/3 615/4/3 623/4/3
f 627/13/3 623/13/3 626/13/3
f 628/4/3 615/4/3 627/4/3
f 629/8/3 625/8/3 624/8/3
f 630/13/3 626/13/3 625/13/3
f 630/8/3 625/8/3 629/8/3
f 631/8/3 627/8/3 626/8/3
f 631/13/3 626/13/3 630/13/3
f 632/13/3 628/13/3 627/13/3
f 632/8/3 627/8/3 631/8/3
f 633/4/3 615/4/3 628/4/3
f 633/13/3 628/13/3 632/13/3
f 634/13/3 632/13/3 631/13/3
f 634/13/3 630/13/3 629/13/3
f 634/13/3 631/13/3 630/13/3
f 635/4/3 633/4/3 632/4/3
f 635/13/3 632/13/3 634/13/3
f 636/13/3 634/13/3 629/13/3
f 637/4/3 635/4/3 634/4/3
f 637/13/3 634/13/3 636/13/3
f 638/13/3 636/13/3 629/13/3
f 639/4/3 637/4/3 636/4/3
f 639/13/3 636/13/3 638/13/3
f 640/4/3 639/4/3 638/4/3
f 641/4/3 637/4/3 639/4/3
f 641/4/3 639/4/3 640/4/3
f 642/4/3 615/4/3 633/4/3
f 642/4/3 637/4/3 641/4/3
f 642/4/3 633/4/3 635/4/3
f 642/4/3 635/4/3 637/4/3
f 643/4/3 615/4/3 642/4/3
f 644/4/3 642/4/3 641/4/3
f 645/4/3 642/4/3 644/4/3
f 646/4/3 642/4/3 645/4/3
f 647/4/3 642/4/3 646/4/3
f 650/4/3 649/4/3 648/4/3
f 652/4/3 650/4/3 648/4/3
f 652/4/3 651/4/3 650/4/3
f 653/4/3 651/4/3 652/4/3
f 657/4/3 651/4/3 653/4/3
f 658/4/3 651/4/3 657/4/3
f 659/4/3 651/4/3 658/4/3
f 660/4/3 651/4/3 659/4/3
f 661/4/3 656/4/3 655/4/3
f 661/4/3 655/4/3 654/4/3
f 662/4/3 661/4/3 654/4/3
f 663/4/3 662/4/3 654/4/3
f 664/4/3 663/4/3 654/4/3
f 665/4/3 664/4/3 654/4/3
f 669/4/3 666/4/3 665/4/3
f 671/4/3 665/4/3 654/4/3
f 671/4/3 670/4/3 669/4/3
f 671/4/3 669/4/3 665/4/3
f 672/4/3 670/4/3 671/4/3
f 673/4/3 670/4/3 672/4/3
f 674/4/3 668/4/3 667/4/3
f 675/4/3 668/4/3 674/4/3
f 676/4/3 673/4/3 672/4/3
f 676/4/3 674/4/3 673/4/3
f 677/4/3 674/4/3 676/4/3
f 678/4/3 674/4/3 677/4/3
f 679/12/3 678/12/3 677/12/3
f 680/12/3 678/12/3 679/12/3
f 683/13/3 682/13/3 681/13/3
f 684/13/3 682/13/3 683/13/3
f 685/11/3 684/11/3 683/11/3
f 686/11/3 684/11/3 685/11/3
f 689/11/3 688/11/3 687/11/3
f 690/11/3 688/11/3 689/11/3
f 693/11/3 692/11/3 691/11/3
f 694/11/3 692/11/3 693/11/3
f 697/11/3 696/11/3 695/11/3
f 698/11/3 696/11/3 697/11/3
f 699/4/3 698/4/3 697/4/3
f 700/4/3 698/4/3 699/4/3
f 701/11/3 700/11/3 699/11/3
f 702/11/3 700/11/3 701/11/3
f 704/4/3 703/4/3 702/4/3
f 705/4/3 703/4/3 704/4/3
f 707/4/3 706/4/3 705/4/3
f 708/4/3 706/4/3 707/4/3
f 709/1/3 708/1/3 707/1/3
f 710/1/3 708/1/3 709/1/3
f 712/4/3 710/4/3 709/4/3
f 713/4/3 710/4/3 712/4/3
f 716/4/3 712/4/3 711/4/3
f 717/4/3 712/4/3 716/4/3
f 718/12/3 715/12/3 714/12/3
f 719/12/3 715/12/3 718/12/3
f 720/12/3 717/12/3 716/12/3
f 721/12/3 717/12/3 720/12/3
f 726/10/3 723/10/3 722/10/3
f 727/1/3 725/1/3 724/1/3
f 728/1/3 725/1/3 727/1/3
f 729/1/3 725/1/3 728/1/3
f 730/10/3 726/10/3 722/10/3
f 731/10/3 726/10/3 730/10/3
f 732/5/3 729/5/3 728/5/3
f 733/5/3 729/5/3 732/5/3
f 738/10/3 735/10/3 734/10/3
f 739/10/3 735/10/3 738/10/3
f 740/5/3 737/5/3 736/5/3
f 741/5/3 737/5/3 740/5/3
f 746/10/3 743/10/3 742/10/3
f 747/10/3 743/10/3 746/10/3
f 748/5/3 745/5/3 744/5/3
f 749/5/3 745/5/3 748/5/3
f 754/5/3 753/5/3 752/5/3
f 755/5/3 753/5/3 754/5/3
f 756/10/3 751/10/3 750/10/3
f 757/10/3 751/10/3 756/10/3
f 758/1/3 755/1/3 754/1/3
f 759/1/3 755/1/3 758/1/3
f 760/4/3 757/4/3 756/4/3
f 761/4/3 757/4/3 760/4/3
f 762/4/3 759/4/3 758/4/3
f 763/4/3 759/4/3 762/4/3
f 764/10/3 761/10/3 760/10/3
f 765/10/3 761/10/3 764/10/3
f 766/5/3 763/5/3 762/5/3
f 767/5/3 763/5/3 766/5/3
f 769/4/3 768/4/3 767/4/3
f 770/4/3 768/4/3 769/4/3
f 772/4/3 771/4/3 770/4/3
f 775/4/3 771/4/3 772/4/3
f 776/4/3 774/4/3 773/4/3
f 777/4/3 774/4/3 776/4/3
f 779/4/3 771/4/3 775/4/3
f 780/4/3 771/4/3 779/4/3
f 783/4/3 779/4/3 778/4/3
f 784/4/3 779/4/3 783/4/3
f 785/12/3 782/12/3 781/12/3
f 786/12/3 782/12/3 785/12/3
f 787/12/3 784/12/3 783/12/3
f 788/12/3 784/12/3 787/12/3
f 796/1/3 792/1/3 791/1/3
f 797/1/3 792/1/3 796/1/3
f 798/7/3 794/7/3 793/7/3
f 799/6/3 795/6/3 794/6/3
f 799/7/3 794/7/3 798/7/3
f 800/6/3 795/6/3 799/6/3
f 801/4/3 797/4/3 796/4/3
f 802/5/3 790/5/3 789/5/3
f 803/3/3 800/3/3 799/3/3
f 803/3/3 799/3/3 798/3/3
f 804/3/3 800/3/3 803/3/3
f 805/4/3 797/4/3 801/4/3
f 806/5/3 802/5/3 789/5/3
f 807/3/3 804/3/3 803/3/3
f 808/3/3 804/3/3 807/3/3
f 809/4/3 797/4/3 805/4/3
f 810/4/3 797/4/3 809/4/3
f 811/4/3 797/4/3 810/4/3
f 812/1/3 811/1/3 810/1/3
f 813/1/3 811/1/3 812/1/3
f 814/5/3 806/5/3 789/5/3
f 815/3/3 808/3/3 807/3/3
f 816/3/3 808/3/3 815/3/3
f 817/4/3 813/4/3 812/4/3
f 818/5/3 814/5/3 789/5/3
f 819/3/3 816/3/3 815/3/3
f 820/3/3 816/3/3 819/3/3
f 821/4/3 813/4/3 817/4/3
f 822/5/3 818/5/3 789/5/3
f 823/3/3 820/3/3 819/3/3
f 824/3/3 820/3/3 823/3/3
f 825/4/3 813/4/3 821/4/3
f 826/5/3 822/5/3 789/5/3
f 827/3/3 824/3/3 823/3/3
f 828/3/3 824/3/3 827/3/3
f 829/4/3 813/4/3 825/4/3
f 830/3/3 828/3/3 827/3/3
f 831/4/3 813/4/3 829/4/3
f 832/4/3 813/4/3 831/4/3
f 833/5/3 826/5/3 789/5/3
f 834/3/3 830/3/3 827/3/3
f 835/3/3 830/3/3 834/3/3
f 836/1/3 832/1/3 831/1/3
f 837/5/3 833/5/3 789/5/3
f 838/3/3 835/3/3 834/3/3
f 839/3/3 835/3/3 838/3/3
f 840/1/3 832/1/3 836/1/3
f 841/1/3 832/1/3 840/1/3
f 842/5/3 837/5/3 789/5/3
f 843/5/3 837/5/3 842/5/3
f 844/3/3 839/3/3 838/3/3
f 845/3/3 839/3/3 844/3/3
f 846/4/3 841/4/3 840/4/3
f 847/4/3 841/4/3 846/4/3
f 848/3/3 845/3/3 844/3/3
f 849/3/3 845/3/3 848/3/3
f 852/3/3 851/3/3 850/3/3
f 853/3/3 851/3/3 852/3/3
f 854/2/3 853/2/3 852/2/3
f 855/2/3 853/2/3 854/2/3
f 856/3/3 855/3/3 854/3/3
f 857/3/3 855/3/3 856/3/3
f 858/2/3 857/2/3 856/2/3
f 859/2/3 857/2/3 858/2/3
f 860/3/3 859/3/3 858/3/3
f 861/3/3 859/3/3 860/3/3
f 862/2/3 861/2/3 860/2/3
f 863/2/3 861/2/3 862/2/3
f 864/3/3 863/3/3 862/3/3
f 865/3/3 863/3/3 864/3/3
f 869/6/3 867/6/3 866/6/3
f 870/6/3 867/6/3 869/6/3
f 873/10/3 869/10/3 868/10/3
f 874/1/3 872/1/3 871/1/3
f 875/1/3 872/1/3 874/1/3
f 876/10/3 873/10/3 868/10/3
f 877/10/3 873/10/3 876/10/3
f 878/5/3 875/5/3 874/5/3
f 879/5/3 875/5/3 878/5/3
f 884/5/3 883/5/3 882/5/3
f 885/5/3 884/5/3 882/5/3
f 886/10/3 881/10/3 880/10/3
f 887/10/3 881/10/3 886/10/3
f 888/5/3 885/5/3 882/5/3
f 889/5/3 885/5/3 888/5/3
f 894/10/3 891/10/3 890/10/3
f 895/10/3 891/10/3 894/10/3
f 896/5/3 893/5/3 892/5/3
f 897/5/3 893/5/3 896/5/3
f 902/5/3 901/5/3 900/5/3
f 903/5/3 901/5/3 902/5/3
f 904/10/3 899/10/3 898/10/3
f 905/10/3 899/10/3 904/10/3
f 906/1/3 903/1/3 902/1/3
f 907/1/3 903/1/3 906/1/3
f 912/10/3 909/10/3 908/10/3
f 913/10/3 909/10/3 912/10/3
f 914/5/3 911/5/3 910/5/3
f 915/5/3 911/5/3 914/5/3
f 916/4/3 915/4/3 914/4/3
f 917/4/3 915/4/3 916/4/3
f 918/4/3 913/4/3 912/4/3
f 919/4/3 913/4/3 918/4/3
f 922/11/3 921/11/3 920/11/3
f 923/11/3 922/11/3 920/11/3
f 924/11/3 922/11/3 923/11/3
f 927/11/3 926/11/3 925/11/3
f 928/11/3 926/11/3 927/11/3
f 931/11/3 930/11/3 929/11/3
f 932/11/3 930/11/3 931/11/3
f 935/11/3 934/11/3 933/11/3
f 936/11/3 935/11/3 933/11/3
f 937/11/3 935/11/3 936/11/3
f 940/11/3 939/11/3 938/11/3
f 941/11/3 939/11/3 940/11/3
f 942/4/3 941/4/3 940/4/3
f 943/4/3 941/4/3 942/4/3
f 947/4/3 945/4/3 944/4/3
f 947/4/3 946/4/3 945/4/3
f 948/4/3 946/4/3 947/4/3
f 951/4/3 950/4/3 949/4/3
f 952/4/3 950/4/3 951/4/3
f 955/9/3 954/9/3 953/9/3
f 956/9/3 954/9/3 955/9/3
f 957/9/3 955/9/3 953/9/3
f 958/4/3 956/4/3 955/4/3
f 958/9/3 955/9/3 957/9/3
f 961/4/3 960/4/3 959/4/3
f 962/4/3 960/4/3 961/4/3
f 964/4/3 956/4/3 958/4/3
f 967/4/3 966/4/3 965/4/3
f 968/4/3 966/4/3 967/4/3
f 969/4/3 964/4/3 963/4/3
f 970/4/3 956/4/3 964/4/3
f 970/4/3 964/4/3 969/4/3
f 971/12/3 970/12/3 969/12/3
f 972/12/3 970/12/3 971/12/3
f 975/9/3 974/9/3 973/9/3
f 976/9/3 974/9/3 975/9/3
f 979/12/3 978/12/3 977/12/3
f 980/12/3 978/12/3 979/12/3
f 981/12/3 978/12/3 980/12/3
f 983/9/3 982/9/3 981/9/3
f 984/9/3 982/9/3 983/9/3
f 987/4/3 980/4/3 979/4/3
f 988/4/3 980/4/3 987/4/3
f 989/4/3 986/4/3 985/4/3
f 990/4/3 986/4/3 989/4/3
f 991/12/3 988/12/3 987/12/3
f 991/12/3 989/12/3 988/12/3
f 991/12/3 990/12/3 989/12/3
f 992/12/3 990/12/3 991/12/3
f 997/12/3 994/12/3 993/12/3
f 998/12/3 994/12/3 997/12/3
f 1000/9/3 996/9/3 995/9/3
f 1001/9/3 996/9/3 1000/9/3
f 1002/1/3 1000/1/3 999/1/3
f 1004/1/3 1002/1/3 999/1/3
f 1004/9/3 1003/9/3 1002/9/3
f 1005/9/3 1003/9/3 1004/9/3
f 1006/1/3 1004/1/3 999/1/3
f 1007/4/3 998/4/3 997/4/3
f 1008/4/3 998/4/3 1007/4/3
f 1009/1/3 1006/1/3 999/1/3
f 1010/1/3 1006/1/3 1009/1/3
f 1011/12/3 1008/12/3 1007/12/3
f 1012/12/3 1008/12/3 1011/12/3
f 1015/12/3 1014/12/3 1013/12/3
f 1016/12/3 1014/12/3 1015/12/3
f 1017/4/3 1016/4/3 1015/4/3
f 1018/4/3 1016/4/3 1017/4/3
f 1019/12/3 1018/12/3 1017/12/3
f 1020/12/3 1018/12/3 1019/12/3
f 1021/12/4 1022/12/4 1023/12/4
f 1023/12/4 1022/12/4 1024/12/4
f 1023/4/4 1024/4/4 1025/4/4
f 1025/4/4 1024/4/4 1026/4/4
f 1025/12/4 1026/12/4 1027/12/4
f 1027/12/4 1026/12/4 1028/12/4
f 1029/12/4 1030/12/4 1033/12/4
f 1033/12/4 1030/12/4 1034/12/4
f 1031/9/4 1032/9/4 1036/9/4
f 1036/9/4 1032/9/4 1037/9/4
f 1035/1/4 1036/1/4 1038/1/4
f 1035/1/4 1038/1/4 1040/1/4
f 1038/9/4 1039/9/4 1040/9/4
f 1040/9/4 1039/9/4 1041/9/4
f 1035/1/4 1040/1/4 1042/1/4
f 1033/4/4 1034/4/4 1043/4/4
f 1043/4/4 1034/4/4 1044/4/4
f 1035/1/4 1042/1/4 1045/1/4
f 1045/1/4 1042/1/4 1046/1/4
f 1043/12/4 1044/12/4 1047/12/4
f 1047/12/4 1044/12/4 1048/12/4
f 1049/12/4 1050/12/4 1051/12/4
f 1051/12/4 1050/12/4 1052/12/4
f 1052/12/4 1050/12/4 1053/12/4
f 1053/9/4 1054/9/4 1055/9/4
f 1055/9/4 1054/9/4 1056/9/4
f 1051/4/4 1052/4/4 1059/4/4
f 1059/4/4 1052/4/4 1060/4/4
f 1057/4/4 1058/4/4 1061/4/4
f 1061/4/4 1058/4/4 1062/4/4
f 1059/12/4 1060/12/4 1063/12/4
f 1060/12/4 1061/12/4 1063/12/4
f 1061/12/4 1062/12/4 1063/12/4
f 1063/12/4 1062/12/4 1064/12/4
f 1065/9/4 1066/9/4 1067/9/4
f 1067/9/4 1066/9/4 1068/9/4
f 1069/9/4 1070/9/4 1071/9/4
f 1071/9/4 1070/9/4 1072/9/4
f 1069/9/4 1071/9/4 1073/9/4
f 1071/4/4 1072/4/4 1074/4/4
f 1073/9/4 1071/9/4 1074/9/4
f 1075/4/4 1076/4/4 1077/4/4
f 1077/4/4 1076/4/4 1078/4/4
f 1074/4/4 1072/4/4 1080/4/4
f 1081/4/4 1082/4/4 1083/4/4
f 1083/4/4 1082/4/4 1084/4/4
f 1079/4/4 1080/4/4 1085/4/4
f 1080/4/4 1072/4/4 1086/4/4
f 1085/4/4 1080/4/4 1086/4/4
f 1085/12/4 1086/12/4 1087/12/4
f 1087/12/4 1086/12/4 1088/12/4
f 1089/11/4 1090/11/4 1091/11/4
f 1089/11/4 1091/11/4 1092/11/4
f 1092/11/4 1091/11/4 1093/11/4
f 1094/11/4 1095/11/4 1096/11/4
f 1096/11/4 1095/11/4 1097/11/4
f 1098/11/4 1099/11/4 1100/11/4
f 1100/11/4 1099/11/4 1101/11/4
f 1102/11/4 1103/11/4 1104/11/4
f 1102/11/4 1104/11/4 1105/11/4
f 1105/11/4 1104/11/4 1106/11/4
f 1105/4/4 1106/4/4 1107/4/4
f 1107/4/4 1106/4/4 1108/4/4
f 1107/11/4 1108/11/4 1109/11/4
f 1109/11/4 1108/11/4 1110/11/4
f 1109/4/4 1110/4/4 1111/4/4
f 1111/4/4 1110/4/4 1112/4/4
f 1113/4/4 1114/4/4 1116/4/4
f 1114/4/4 1115/4/4 1116/4/4
f 1116/4/4 1115/4/4 1117/4/4
f 1118/4/4 1119/4/4 1120/4/4
f 1120/4/4 1119/4/4 1121/4/4
f 1122/6/4 1123/6/4 1125/6/4
f 1125/6/4 1123/6/4 1126/6/4
f 1124/10/4 1125/10/4 1129/10/4
f 1127/1/4 1128/1/4 1130/1/4
f 1130/1/4 1128/1/4 1131/1/4
f 1124/10/4 1129/10/4 1132/10/4
f 1132/10/4 1129/10/4 1133/10/4
f 1130/5/4 1131/5/4 1134/5/4
f 1134/5/4 1131/5/4 1135/5/4
f 1138/5/4 1139/5/4 1140/5/4
f 1138/5/4 1140/5/4 1141/5/4
f 1136/10/4 1137/10/4 1142/10/4
f 1142/10/4 1137/10/4 1143/10/4
f 1138/5/4 1141/5/4 1144/5/4
f 1144/5/4 1141/5/4 1145/5/4
f 1146/10/4 1147/10/4 1150/10/4
f 1150/10/4 1147/10/4 1151/10/4
f 1148/5/4 1149/5/4 1152/5/4
f 1152/5/4 1149/5/4 1153/5/4
f 1156/5/4 1157/5/4 1158/5/4
f 1158/5/4 1157/5/4 1159/5/4
f 1154/10/4 1155/10/4 1160/10/4
f 1160/10/4 1155/10/4 1161/10/4
f 1158/1/4 1159/1/4 1162/1/4
f 1162/1/4 1159/1/4 1163/1/4
f 1160/4/4 1161/4/4 1164/4/4
f 1164/4/4 1161/4/4 1165/4/4
f 1162/4/4 1163/4/4 1166/4/4
f 1166/4/4 1163/4/4 1167/4/4
f 1164/10/4 1165/10/4 1168/10/4
f 1168/10/4 1165/10/4 1169/10/4
f 1166/5/4 1167/5/4 1170/5/4
f 1170/5/4 1167/5/4 1171/5/4
f 1170/4/4 1171/4/4 1172/4/4
f 1172/4/4 1171/4/4 1173/4/4
f 1168/4/4 1169/4/4 1174/4/4
f 1174/4/4 1169/4/4 1175/4/4
f 1178/1/4 1179/1/4 1183/1/4
f 1183/1/4 1179/1/4 1184/1/4
f 1180/7/4 1181/7/4 1185/7/4
f 1181/6/4 1182/6/4 1186/6/4
f 1185/7/4 1181/7/4 1186/7/4
f 1186/6/4 1182/6/4 1187/6/4
f 1183/4/4 1184/4/4 1188/4/4
f 1176/5/4 1177/5/4 1189/5/4
f 1186/3/4 1187/3/4 1190/3/4
f 1185/3/4 1186/3/4 1190/3/4
f 1190/3/4 1187/3/4 1191/3/4
f 1188/4/4 1184/4/4 1192/4/4
f 1176/5/4 1189/5/4 1193/5/4
f 1190/3/4 1191/3/4 1194/3/4
f 1194/3/4 1191/3/4 1195/3/4
f 1192/4/4 1184/4/4 1196/4/4
f 1196/4/4 1184/4/4 1197/4/4
f 1197/4/4 1184/4/4 1198/4/4
f 1197/1/4 1198/1/4 1199/1/4
f 1199/1/4 1198/1/4 1200/1/4
f 1176/5/4 1193/5/4 1201/5/4
f 1194/3/4 1195/3/4 1202/3/4
f 1202/3/4 1195/3/4 1203/3/4
f 1199/4/4 1200/4/4 1204/4/4
f 1176/5/4 1201/5/4 1205/5/4
f 1202/3/4 1203/3/4 1206/3/4
f 1206/3/4 1203/3/4 1207/3/4
f 1204/4/4 1200/4/4 1208/4/4
f 1176/5/4 1205/5/4 1209/5/4
f 1206/3/4 1207/3/4 1210/3/4
f 1210/3/4 1207/3/4 1211/3/4
f 1208/4/4 1200/4/4 1212/4/4
f 1176/5/4 1209/5/4 1213/5/4
f 1210/3/4 1211/3/4 1214/3/4
f 1214/3/4 1211/3/4 1215/3/4
f 1212/4/4 1200/4/4 1216/4/4
f 1214/3/4 1215/3/4 1217/3/4
f 1216/4/4 1200/4/4 1218/4/4
f 1218/4/4 1200/4/4 1219/4/4
f 1176/5/4 1213/5/4 1220/5/4
f 1214/3/4 1217/3/4 1221/3/4
f 1221/3/4 1217/3/4 1222/3/4
f 1218/1/4 1219/1/4 1223/1/4
f 1176/5/4 1220/5/4 1224/5/4
f 1221/3/4 1222/3/4 1225/3/4
f 1225/3/4 1222/3/4 1226/3/4
f 1223/1/4 1219/1/4 1227/1/4
f 1227/1/4 1219/1/4 1228/1/4
f 1176/5/4 1224/5/4 1229/5/4
f 1229/5/4 1224/5/4 1230/5/4
f 1225/3/4 1226/3/4 1231/3/4
f 1231/3/4 1226/3/4 1232/3/4
f 1227/4/4 1228/4/4 1233/4/4
f 1233/4/4 1228/4/4 1234/4/4
f 1231/3/4 1232/3/4 1235/3/4
f 1235/3/4 1232/3/4 1236/3/4
f 1237/3/4 1238/3/4 1239/3/4
f 1239/3/4 1238/3/4 1240/3/4
f 1239/2/4 1240/2/4 1241/2/4
f 1241/2/4 1240/2/4 1242/2/4
f 1241/3/4 1242/3/4 1243/3/4
f 1243/3/4 1242/3/4 1244/3/4
f 1243/2/4 1244/2/4 1245/2/4
f 1245/2/4 1244/2/4 1246/2/4
f 1245/3/4 1246/3/4 1247/3/4
f 1247/3/4 1246/3/4 1248/3/4
f 1247/2/4 1248/2/4 1249/2/4
f 1249/2/4 1248/2/4 1250/2/4
f 1249/3/4 1250/3/4 1251/3/4
f 1251/3/4 1250/3/4 1252/3/4
f 1253/10/4 1254/10/4 1257/10/4
f 1255/1/4 1256/1/4 1258/1/4
f 1258/1/4 1256/1/4 1259/1/4
f 1259/1/4 1256/1/4 1260/1/4
f 1253/10/4 1257/10/4 1261/10/4
f 1261/10/4 1257/10/4 1262/10/4
f 1259/5/4 1260/5/4 1263/5/4
f 1263/5/4 1260/5/4 1264/5/4
f 1265/10/4 1266/10/4 1269/10/4
f 1269/10/4 1266/10/4 1270/10/4
f 1267/5/4 1268/5/4 1271/5/4
f 1271/5/4 1268/5/4 1272/5/4
f 1273/10/4 1274/10/4 1277/10/4
f 1277/10/4 1274/10/4 1278/10/4
f 1275/5/4 1276/5/4 1279/5/4
f 1279/5/4 1276/5/4 1280/5/4
f 1283/5/4 1284/5/4 1285/5/4
f 1285/5/4 1284/5/4 1286/5/4
f 1281/10/4 1282/10/4 1287/10/4
f 1287/10/4 1282/10/4 1288/10/4
f 1285/1/4 1286/1/4 1289/1/4
f 1289/1/4 1286/1/4 1290/1/4
f 1291/10/4 1292/10/4 1295/10/4
f 1295/10/4 1292/10/4 1296/10/4
f 1293/5/4 1294/5/4 1297/5/4
f 1297/5/4 1294/5/4 1298/5/4
f 1298/4/4 1299/4/4 1300/4/4
f 1300/4/4 1299/4/4 1301/4/4
f 1301/4/4 1302/4/4 1303/4/4
f 1303/4/4 1302/4/4 1306/4/4
f 1304/4/4 1305/4/4 1307/4/4
f 1307/4/4 1305/4/4 1308/4/4
f 1306/4/4 1302/4/4 1310/4/4
f 1310/4/4 1302/4/4 1311/4/4
f 1309/4/4 1310/4/4 1314/4/4
f 1314/4/4 1310/4/4 1315/4/4
f 1312/12/4 1313/12/4 1316/12/4
f 1316/12/4 1313/12/4 1317/12/4
f 1314/12/4 1315/12/4 1318/12/4
f 1318/12/4 1315/12/4 1319/12/4
f 1320/13/4 1321/13/4 1322/13/4
f 1322/13/4 1321/13/4 1323/13/4
f 1322/11/4 1323/11/4 1324/11/4
f 1324/11/4 1323/11/4 1325/11/4
f 1326/11/4 1327/11/4 1328/11/4
f 1328/11/4 1327/11/4 1329/11/4
f 1330/11/4 1331/11/4 1332/11/4
f 1332/11/4 1331/11/4 1333/11/4
f 1334/11/4 1335/11/4 1336/11/4
f 1336/11/4 1335/11/4 1337/11/4
f 1338/11/4 1339/11/4 1340/11/4
f 1340/11/4 1339/11/4 1341/11/4
f 1341/4/4 1342/4/4 1343/4/4
f 1343/4/4 1342/4/4 1344/4/4
f 1344/4/4 1345/4/4 1346/4/4
f 1346/4/4 1345/4/4 1347/4/4
f 1346/1/4 1347/1/4 1348/1/4
f 1348/1/4 1347/1/4 1349/1/4
f 1348/4/4 1349/4/4 1351/4/4
f 1351/4/4 1349/4/4 1352/4/4
f 1350/4/4 1351/4/4 1355/4/4
f 1355/4/4 1351/4/4 1356/4/4
f 1353/12/4 1354/12/4 1357/12/4
f 1357/12/4 1354/12/4 1358/12/4
f 1355/12/4 1356/12/4 1359/12/4
f 1359/12/4 1356/12/4 1360/12/4
f 1361/4/4 1362/4/4 1363/4/4
f 1361/4/4 1363/4/4 1365/4/4
f 1363/4/4 1364/4/4 1365/4/4
f 1365/4/4 1364/4/4 1366/4/4
f 1366/4/4 1364/4/4 1370/4/4
f 1370/4/4 1364/4/4 1371/4/4
f 1371/4/4 1364/4/4 1372/4/4
f 1372/4/4 1364/4/4 1373/4/4
f 1368/4/4 1369/4/4 1374/4/4
f 1367/4/4 1368/4/4 1374/4/4
f 1367/4/4 1374/4/4 1375/4/4
f 1367/4/4 1375/4/4 1376/4/4
f 1367/4/4 1376/4/4 1377/4/4
f 1367/4/4 1377/4/4 1378/4/4
f 1378/4/4 1379/4/4 1382/4/4
f 1367/4/4 1378/4/4 1384/4/4
f 1382/4/4 1383/4/4 1384/4/4
f 1378/4/4 1382/4/4 1384/4/4
f 1384/4/4 1383/4/4 1385/4/4
f 1385/4/4 1383/4/4 1386/4/4
f 1380/4/4 1381/4/4 1387/4/4
f 1387/4/4 1381/4/4 1388/4/4
f 1385/4/4 1386/4/4 1389/4/4
f 1386/4/4 1387/4/4 1389/4/4
f 1389/4/4 1387/4/4 1390/4/4
f 1390/4/4 1387/4/4 1391/4/4
f 1390/12/4 1391/12/4 1392/12/4
f 1392/12/4 1391/12/4 1393/12/4
f 1394/4/4 1395/4/4 1396/4/4
f 1394/4/4 1396/4/4 1398/4/4
f 1396/4/4 1397/4/4 1398/4/4
f 1398/4/4 1397/4/4 1399/4/4
f 1399/4/4 1397/4/4 1400/4/4
f 1399/4/4 1400/4/4 1402/4/4
f 1400/4/4 1401/4/4 1402/4/4
f 1402/4/4 1401/4/4 1403/4/4
f 1403/4/4 1401/4/4 1404/4/4
f 1399/4/4 1402/4/4 1406/4/4
f 1404/4/4 1405/4/4 1407/4/4
f 1403/4/4 1404/4/4 1407/4/4
f 1399/4/4 1406/4/4 1408/4/4
f 1406/4/4 1407/4/4 1408/4/4
f 1408/4/4 1407/4/4 1409/4/4
f 1408/13/4 1409/13/4 1410/13/4
f 1409/4/4 1407/4/4 1410/4/4
f 1410/4/4 1407/4/4 1411/4/4
f 1410/13/4 1411/13/4 1412/13/4
f 1411/4/4 1407/4/4 1412/4/4
f 1407/4/4 1405/4/4 1413/4/4
f 1412/4/4 1407/4/4 1413/4/4
f 1410/13/4 1412/13/4 1414/13/4
f 1408/13/4 1410/13/4 1414/13/4
f 1412/13/4 1413/13/4 1414/13/4
f 1414/13/4 1413/13/4 1415/13/4
f 1415/13/4 1413/13/4 1416/13/4
f 1413/4/4 1405/4/4 1417/4/4
f 1416/13/4 1413/13/4 1417/13/4
f 1417/4/4 1405/4/4 1418/4/4
f 1414/8/4 1415/8/4 1419/8/4
f 1415/13/4 1416/13/4 1420/13/4
f 1419/8/4 1415/8/4 1420/8/4
f 1416/8/4 1417/8/4 1421/8/4
f 1420/13/4 1416/13/4 1421/13/4
f 1417/13/4 1418/13/4 1422/13/4
f 1421/8/4 1417/8/4 1422/8/4
f 1418/4/4 1405/4/4 1423/4/4
f 1422/13/4 1418/13/4 1423/13/4
f 1421/13/4 1422/13/4 1424/13/4
f 1419/13/4 1420/13/4 1424/13/4
f 1420/13/4 1421/13/4 1424/13/4
f 1422/4/4 1423/4/4 1425/4/4
f 1424/13/4 1422/13/4 1425/13/4
f 1419/13/4 1424/13/4 1426/13/4
f 1424/4/4 1425/4/4 1427/4/4
f 1426/13/4 1424/13/4 1427/13/4
f 1419/13/4 1426/13/4 1428/13/4
f 1426/4/4 1427/4/4 1429/4/4
f 1428/13/4 1426/13/4 1429/13/4
f 1428/4/4 1429/4/4 1430/4/4
f 1429/4/4 1427/4/4 1431/4/4
f 1430/4/4 1429/4/4 1431/4/4
f 1423/4/4 1405/4/4 1432/4/4
f 1431/4/4 1427/4/4 1432/4/4
f 1425/4/4 1423/4/4 1432/4/4
f 1427/4/4 1425/4/4 1432/4/4
f 1432/4/4 1405/4/4 1433/4/4
f 1431/4/4 1432/4/4 1434/4/4
f 1434/4/4 1432/4/4 1435/4/4
f 1435/4/4 1432/4/4 1436/4/4
f 1436/4/4 1432/4/4 1437/4/4
f 1438/9/4 1439/9/4 1440/9/4
f 1440/9/4 1439/9/4 1441/9/4
f 1441/9/4 1439/9/4 1442/9/4
f 1442/9/4 1439/9/4 1443/9/4
f 1444/9/4 1445/9/4 1446/9/4
f 1446/9/4 1445/9/4 1447/9/4
f 1448/4/4 1449/4/4 1450/4/4
f 1450/4/4 1449/4/4 1451/4/4
f 1450/12/4 1451/12/4 1452/12/4
f 1452/12/4 1451/12/4 1453/12/4
f 1454/12/4 1455/12/4 1456/12/4
f 1456/12/4 1455/12/4 1457/12/4
f 1456/4/4 1457/4/4 1458/4/4
f 1458/4/4 1457/4/4 1459/4/4
f 1458/12/4 1459/12/4 1460/12/4
f 1460/12/4 1459/12/4 1461/12/4
f 1462/12/4 1463/12/4 1464/12/4
f 1464/12/4 1463/12/4 1465/12/4
f 1464/4/4 1465/4/4 1466/4/4
f 1466/4/4 1465/4/4 1467/4/4
f 1466/12/4 1467/12/4 1468/12/4
f 1468/12/4 1467/12/4 1469/12/4
f 1470/12/4 1471/12/4 1472/12/4
f 1472/12/4 1471/12/4 1473/12/4
f 1476/12/5 1475/12/5 1474/12/5
f 1477/12/5 1475/12/5 1476/12/5
f 1478/12/5 1476/12/5 1474/12/5
f 1479/4/5 1477/4/5 1476/4/5
f 1479/12/5 1476/12/5 1478/12/5
f 1480/12/5 1475/12/5 1477/12/5
f 1480/4/5 1477/4/5 1479/4/5
f 1481/12/5 1475/12/5 1480/12/5
f 1486/12/5 1483/12/5 1482/12/5
f 1486/4/5 1484/4/5 1483/4/5
f 1487/12/5 1485/12/5 1484/12/5
f 1487/4/5 1484/4/5 1486/4/5
f 1488/12/5 1486/12/5 1482/12/5
f 1488/12/5 1487/12/5 1486/12/5
f 1489/12/5 1485/12/5 1487/12/5
f 1489/12/5 1487/12/5 1488/12/5
f 1494/12/5 1491/12/5 1490/12/5
f 1495/4/5 1492/4/5 1491/4/5
f 1495/12/5 1491/12/5 1494/12/5
f 1496/12/5 1493/12/5 1492/12/5
f 1496/4/5 1492/4/5 1495/4/5
f 1497/12/5 1493/12/5 1496/12/5
f 1502/12/5 1499/12/5 1498/12/5
f 1503/4/5 1500/4/5 1499/4/5
f 1503/12/5 1499/12/5 1502/12/5
f 1504/12/5 1501/12/5 1500/12/5
f 1504/4/5 1500/4/5 1503/4/5
f 1505/12/5 1501/12/5 1504/12/5
f 1510/12/5 1507/12/5 1506/12/5
f 1511/4/5 1508/4/5 1507/4/5
f 1511/12/5 1507/12/5 1510/12/5
f 1512/12/5 1509/12/5 1508/12/5
f 1512/4/5 1508/4/5 1511/4/5
f 1513/12/5 1509/12/5 1512/12/5
f 1518/12/5 1515/12/5 1514/12/5
f 1519/4/5 1516/4/5 1515/4/5
f 1519/12/5 1515/12/5 1518/12/5
f 1520/12/5 1517/12/5 1516/12/5
f 1520/4/5 1516/4/5 1519/4/5
f 1521/12/5 1517/12/5 1520/12/5
f 1526/9/5 1523/9/5 1522/9/5
f 1527/9/5 1523/9/5 1526/9/5
f 1528/4/5 1525/4/5 1524/4/5
f 1529/4/5 1525/4/5 1528/4/5
f 1534/9/5 1531/9/5 1530/9/5
f 1535/9/5 1531/9/5 1534/9/5
f 1536/4/5 1533/4/5 1532/4/5
f 1537/4/5 1533/4/5 1536/4/5
f 1542/9/5 1539/9/5 1538/9/5
f 1543/9/5 1541/9/5 1540/9/5
f 1547/9/5 1541/9/5 1543/9/5
f 1547/9/5 1543/9/5 1542/9/5
f 1548/9/5 1541/9/5 1547/9/5
f 1549/9/5 1542/9/5 1538/9/5
f 1549/9/5 1547/9/5 1542/9/5
f 1550/9/5 1547/9/5 1549/9/5
f 1551/4/5 1545/4/5 1544/4/5
f 1552/12/5 1546/12/5 1545/12/5
f 1552/4/5 1545/4/5 1551/4/5
f 1553/12/5 1546/12/5 1552/12/5
f 1559/9/5 1555/9/5 1554/9/5
f 1561/9/5 1559/9/5 1554/9/5
f 1561/9/5 1560/9/5 1559/9/5
f 1562/9/5 1560/9/5 1561/9/5
f 1563/4/5 1557/4/5 1556/4/5
f 1564/12/5 1558/12/5 1557/12/5
f 1564/4/5 1557/4/5 1563/4/5
f 1565/12/5 1558/12/5 1564/12/5
f 1566/9/5 1561/9/5 1554/9/5
f 1567/9/5 1561/9/5 1566/9/5
f 1568/9/5 1560/9/5 1562/9/5
f 1569/9/5 1560/9/5 1568/9/5
f 1572/9/5 1571/9/5 1570/9/5
f 1573/9/5 1571/9/5 1572/9/5
f 1575/4/5 1573/4/5 1572/4/5
f 1575/4/5 1574/4/5 1573/4/5
f 1576/4/5 1574/4/5 1575/4/5
f 1579/4/5 1578/4/5 1577/4/5
f 1580/4/5 1578/4/5 1579/4/5
f 1581/4/5 1578/4/5 1580/4/5
f 1582/9/5 1580/9/5 1579/9/5
f 1583/9/5 1580/9/5 1582/9/5
f 1587/4/5 1585/4/5 1584/4/5
f 1587/4/5 1586/4/5 1585/4/5
f 1589/4/5 1587/4/5 1584/4/5
f 1589/12/5 1588/12/5 1587/12/5
f 1590/12/5 1588/12/5 1589/12/5
f 1591/4/5 1589/4/5 1584/4/5
f 1592/4/5 1589/4/5 1591/4/5
f 1593/4/5 1589/4/5 1592/4/5
f 1600/4/5 1595/4/5 1594/4/5
f 1601/13/5 1596/13/5 1595/13/5
f 1601/4/5 1595/4/5 1600/4/5
f 1602/8/5 1597/8/5 1596/8/5
f 1602/13/5 1596/13/5 1601/13/5
f 1603/13/5 1598/13/5 1597/13/5
f 1603/8/5 1597/8/5 1602/8/5
f 1604/4/5 1599/4/5 1598/4/5
f 1604/13/5 1598/13/5 1603/13/5
f 1605/4/5 1599/4/5 1604/4/5
f 1608/12/5 1607/12/5 1606/12/5
f 1609/12/5 1607/12/5 1608/12/5
f 1612/5/5 1611/5/5 1610/5/5
f 1613/5/5 1611/5/5 1612/5/5
f 1616/12/5 1615/12/5 1614/12/5
f 1617/12/5 1615/12/5 1616/12/5
f 1624/4/5 1619/4/5 1618/4/5
f 1625/13/5 1620/13/5 1619/13/5
f 1625/4/5 1619/4/5 1624/4/5
f 1626/8/5 1621/8/5 1620/8/5
f 1626/13/5 1620/13/5 1625/13/5
f 1627/13/5 1622/13/5 1621/13/5
f 1627/8/5 1621/8/5 1626/8/5
f 1628/4/5 1623/4/5 1622/4/5
f 1628/13/5 1622/13/5 1627/13/5
f 1629/4/5 1623/4/5 1628/4/5
f 1632/4/5 1631/4/5 1630/4/5
f 1633/4/5 1631/4/5 1632/4/5
f 1636/12/5 1635/12/5 1634/12/5
f 1637/12/5 1635/12/5 1636/12/5
f 1648/10/5 1639/10/5 1638/10/5
f 1649/10/5 1639/10/5 1648/10/5
f 1650/10/5 1641/10/5 1640/10/5
f 1651/10/5 1641/10/5 1650/10/5
f 1652/10/5 1643/10/5 1642/10/5
f 1653/10/5 1643/10/5 1652/10/5
f 1654/10/5 1645/10/5 1644/10/5
f 1655/4/5 1646/4/5 1645/4/5
f 1655/10/5 1645/10/5 1654/10/5
f 1656/10/5 1647/10/5 1646/10/5
f 1656/4/5 1646/4/5 1655/4/5
f 1657/10/5 1647/10/5 1656/10/5
f 1676/3/5 1659/3/5 1658/3/5
f 1677/2/5 1660/2/5 1659/2/5
f 1677/3/5 1659/3/5 1676/3/5
f 1678/3/5 1661/3/5 1660/3/5
f 1678/2/5 1660/2/5 1677/2/5
f 1679/2/5 1662/2/5 1661/2/5
f 1679/3/5 1661/3/5 1678/3/5
f 1680/3/5 1663/3/5 1662/3/5
f 1680/2/5 1662/2/5 1679/2/5
f 1681/2/5 1664/2/5 1663/2/5
f 1681/3/5 1663/3/5 1680/3/5
f 1682/3/5 1665/3/5 1664/3/5
f 1682/2/5 1664/2/5 1681/2/5
f 1683/3/5 1665/3/5 1682/3/5
f 1684/10/5 1667/10/5 1666/10/5
f 1685/10/5 1667/10/5 1684/10/5
f 1686/10/5 1669/10/5 1668/10/5
f 1687/10/5 1669/10/5 1686/10/5
f 1688/10/5 1671/10/5 1670/10/5
f 1689/10/5 1671/10/5 1688/10/5
f 1690/10/5 1673/10/5 1672/10/5
f 1691/10/5 1673/10/5 1690/10/5
f 1692/10/5 1675/10/5 1674/10/5
f 1693/10/5 1675/10/5 1692/10/5
f 1698/12/5 1695/12/5 1694/12/5
f 1699/12/5 1695/12/5 1698/12/5
f 1700/4/5 1697/4/5 1696/4/5
f 1701/4/5 1697/4/5 1700/4/5
f 1704/4/5 1703/4/5 1702/4/5
f 1705/4/5 1703/4/5 1704/4/5
f 1717/13/5 1707/13/5 1706/13/5
f 1718/11/5 1708/11/5 1707/11/5
f 1718/13/5 1707/13/5 1717/13/5
f 1719/11/5 1708/11/5 1718/11/5
f 1720/11/5 1710/11/5 1709/11/5
f 1721/11/5 1710/11/5 1720/11/5
f 1722/11/5 1712/11/5 1711/11/5
f 1723/11/5 1712/11/5 1722/11/5
f 1724/11/5 1714/11/5 1713/11/5
f 1725/4/5 1715/4/5 1714/4/5
f 1725/11/5 1714/11/5 1724/11/5
f 1726/11/5 1716/11/5 1715/11/5
f 1726/4/5 1715/4/5 1725/4/5
f 1727/11/5 1716/11/5 1726/11/5
f 1740/7/5 1729/7/5 1728/7/5
f 1741/3/5 1738/3/5 1737/3/5
f 1741/7/5 1729/7/5 1740/7/5
f 1741/3/5 1739/3/5 1738/3/5
f 1741/3/5 1737/3/5 1736/3/5
f 1741/3/5 1736/3/5 1735/3/5
f 1741/3/5 1735/3/5 1734/3/5
f 1741/3/5 1734/3/5 1733/3/5
f 1741/3/5 1733/3/5 1732/3/5
f 1741/3/5 1732/3/5 1731/3/5
f 1741/3/5 1731/3/5 1730/3/5
f 1741/3/5 1730/3/5 1729/3/5
f 1742/3/5 1739/3/5 1741/3/5
f 1743/3/5 1739/3/5 1742/3/5
f 1744/3/5 1739/3/5 1743/3/5
f 1745/3/5 1739/3/5 1744/3/5
f 1746/3/5 1739/3/5 1745/3/5
f 1747/3/5 1739/3/5 1746/3/5
f 1748/3/5 1739/3/5 1747/3/5
f 1749/3/5 1739/3/5 1748/3/5
f 1750/3/5 1739/3/5 1749/3/5
f 1751/3/5 1739/3/5 1750/3/5
f 1763/13/5 1753/13/5 1752/13/5
f 1764/11/5 1754/11/5 1753/11/5
f 1764/13/5 1753/13/5 1763/13/5
f 1765/11/5 1754/11/5 1764/11/5
f 1766/11/5 1756/11/5 1755/11/5
f 1767/11/5 1756/11/5 1766/11/5
f 1768/11/5 1758/11/5 1757/11/5
f 1769/11/5 1758/11/5 1768/11/5
f 1770/11/5 1760/11/5 1759/11/5
f 1771/11/5 1760/11/5 1770/11/5
f 1772/11/5 1762/11/5 1761/11/5
f 1773/11/5 1762/11/5 1772/11/5
f 1776/4/5 1775/4/5 1774/4/5
f 1777/4/5 1775/4/5 1776/4/5
f 1780/4/5 1779/4/5 1778/4/5
f 1781/4/5 1779/4/5 1780/4/5
f 1784/4/5 1783/4/5 1782/4/5
f 1785/4/5 1783/4/5 1784/4/5
f 1789/4/5 1787/4/5 1786/4/5
f 1790/4/5 1787/4/5 1789/4/5
f 1794/6/5 1793/6/5 1792/6/5
f 1795/6/5 1793/6/5 1794/6/5
f 1796/4/5 1789/4/5 1788/4/5
f 1796/4/5 1790/4/5 1789/4/5
f 1796/4/5 1791/4/5 1790/4/5
f 1797/4/5 1791/4/5 1796/4/5
f 1798/4/5 1791/4/5 1797/4/5
f 1799/4/5 1791/4/5 1798/4/5
f 1800/4/5 1798/4/5 1797/4/5
f 1801/4/5 1798/4/5 1800/4/5
f 1815/1/5 1803/1/5 1802/1/5
f 1816/5/5 1804/5/5 1803/5/5
f 1816/1/5 1803/1/5 1815/1/5
f 1817/5/5 1804/5/5 1816/5/5
f 1818/5/5 1806/5/5 1805/5/5
f 1819/5/5 1806/5/5 1818/5/5
f 1820/5/5 1808/5/5 1807/5/5
f 1821/5/5 1808/5/5 1820/5/5
f 1822/5/5 1810/5/5 1809/5/5
f 1823/1/5 1811/1/5 1810/1/5
f 1823/5/5 1810/5/5 1822/5/5
f 1824/4/5 1812/4/5 1811/4/5
f 1824/1/5 1811/1/5 1823/1/5
f 1825/5/5 1813/5/5 1812/5/5
f 1825/4/5 1812/4/5 1824/4/5
f 1826/4/5 1814/4/5 1813/4/5
f 1826/5/5 1813/5/5 1825/5/5
f 1827/4/5 1814/4/5 1826/4/5
f 1841/1/5 1829/1/5 1828/1/5
f 1842/5/5 1830/5/5 1829/5/5
f 1842/1/5 1829/1/5 1841/1/5
f 1843/5/5 1830/5/5 1842/5/5
f 1844/5/5 1832/5/5 1831/5/5
f 1845/5/5 1832/5/5 1844/5/5
f 1846/5/5 1834/5/5 1833/5/5
f 1847/5/5 1834/5/5 1846/5/5
f 1848/5/5 1836/5/5 1835/5/5
f 1849/1/5 1837/1/5 1836/1/5
f 1849/5/5 1836/5/5 1848/5/5
f 1850/1/5 1837/1/5 1849/1/5
f 1851/5/5 1839/5/5 1838/5/5
f 1852/4/5 1840/4/5 1839/4/5
f 1852/5/5 1839/5/5 1851/5/5
f 1853/4/5 1840/4/5 1852/4/5
f 1869/4/5 1855/4/5 1854/4/5
f 1869/4/5 1856/4/5 1855/4/5
f 1869/4/5 1857/4/5 1856/4/5
f 1869/4/5 1858/4/5 1857/4/5
f 1870/4/5 1858/4/5 1869/4/5
f 1871/4/5 1858/4/5 1870/4/5
f 1872/4/5 1858/4/5 1871/4/5
f 1873/1/5 1859/1/5 1858/1/5
f 1873/4/5 1858/4/5 1872/4/5
f 1874/4/5 1860/4/5 1859/4/5
f 1874/1/5 1859/1/5 1873/1/5
f 1874/4/5 1861/4/5 1860/4/5
f 1874/4/5 1862/4/5 1861/4/5
f 1874/4/5 1863/4/5 1862/4/5
f 1874/4/5 1864/4/5 1863/4/5
f 1875/4/5 1864/4/5 1874/4/5
f 1876/4/5 1864/4/5 1875/4/5
f 1877/4/5 1864/4/5 1876/4/5
f 1878/4/5 1864/4/5 1877/4/5
f 1879/1/5 1866/1/5 1865/1/5
f 1879/4/5 1864/4/5 1878/4/5
f 1879/1/5 1865/1/5 1864/1/5
f 1880/1/5 1866/1/5 1879/1/5
f 1881/4/5 1868/4/5 1867/4/5
f 1881/1/5 1866/1/5 1880/1/5
f 1881/4/5 1867/4/5 1866/4/5
f 1882/4/5 1868/4/5 1881/4/5
f 1883/4/5 1868/4/5 1882/4/5
f 1884/12/6 1885/12/6 1886/12/6
f 1886/12/6 1885/12/6 1887/12/6
f 1884/12/6 1886/12/6 1888/12/6
f 1886/4/6 1887/4/6 1889/4/6
f 1888/12/6 1886/12/6 1889/12/6
f 1887/12/6 1885/12/6 1890/12/6
f 1889/4/6 1887/4/6 1890/4/6
f 1890/12/6 1885/12/6 1891/12/6
f 1892/12/6 1893/12/6 1896/12/6
f 1893/4/6 1894/4/6 1896/4/6
f 1894/12/6 1895/12/6 1897/12/6
f 1896/4/6 1894/4/6 1897/4/6
f 1892/12/6 1896/12/6 1898/12/6
f 1896/12/6 1897/12/6 1898/12/6
f 1897/12/6 1895/12/6 1899/12/6
f 1898/12/6 1897/12/6 1899/12/6
f 1900/4/6 1901/4/6 1902/4/6
f 1902/4/6 1901/4/6 1903/4/6
f 1904/4/6 1905/4/6 1906/4/6
f 1906/4/6 1905/4/6 1907/4/6
f 1908/12/6 1909/12/6 1912/12/6
f 1909/4/6 1910/4/6 1913/4/6
f 1912/12/6 1909/12/6 1913/12/6
f 1910/12/6 1911/12/6 1914/12/6
f 1913/4/6 1910/4/6 1914/4/6
f 1914/12/6 1911/12/6 1915/12/6
f 1916/4/6 1917/4/6 1919/4/6
f 1919/4/6 1917/4/6 1920/4/6
f 1919/12/6 1920/12/6 1921/12/6
f 1920/4/6 1917/4/6 1921/4/6
f 1921/4/6 1917/4/6 1922/4/6
f 1922/4/6 1917/4/6 1923/4/6
f 1917/12/6 1918/12/6 1924/12/6
f 1923/4/6 1917/4/6 1924/4/6
f 1924/12/6 1918/12/6 1925/12/6
f 1919/12/6 1921/12/6 1926/12/6
f 1926/12/6 1921/12/6 1927/12/6
f 1922/4/6 1923/4/6 1928/4/6
f 1928/4/6 1923/4/6 1929/4/6
f 1928/1/6 1929/1/6 1932/1/6
f 1932/1/6 1929/1/6 1933/1/6
f 1930/12/6 1931/12/6 1934/12/6
f 1934/12/6 1931/12/6 1935/12/6
f 1936/12/6 1937/12/6 1938/12/6
f 1938/12/6 1937/12/6 1939/12/6
f 1940/1/6 1941/1/6 1944/1/6
f 1944/1/6 1941/1/6 1945/1/6
f 1942/12/6 1943/12/6 1946/12/6
f 1944/4/6 1945/4/6 1947/4/6
f 1947/4/6 1945/4/6 1948/4/6
f 1942/12/6 1946/12/6 1951/12/6
f 1947/4/6 1948/4/6 1952/4/6
f 1951/12/6 1946/12/6 1952/12/6
f 1946/4/6 1947/4/6 1952/4/6
f 1948/4/6 1949/4/6 1952/4/6
f 1949/12/6 1950/12/6 1953/12/6
f 1952/4/6 1949/4/6 1953/4/6
f 1953/12/6 1950/12/6 1954/12/6
f 1955/9/6 1956/9/6 1957/9/6
f 1957/9/6 1956/9/6 1958/9/6
f 1959/9/6 1960/9/6 1961/9/6
f 1961/9/6 1960/9/6 1962/9/6
f 1966/9/6 1967/9/6 1968/9/6
f 1968/9/6 1967/9/6 1969/9/6
f 1963/4/6 1964/4/6 1970/4/6
f 1964/12/6 1965/12/6 1971/12/6
f 1970/4/6 1964/4/6 1971/4/6
f 1971/12/6 1965/12/6 1972/12/6
f 1972/12/6 1965/12/6 1973/12/6
f 1974/12/6 1975/12/6 1977/12/6
f 1978/9/6 1979/9/6 1980/9/6
f 1980/9/6 1979/9/6 1981/9/6
f 1976/4/6 1977/4/6 1982/4/6
f 1977/12/6 1975/12/6 1983/12/6
f 1982/4/6 1977/4/6 1983/4/6
f 1983/12/6 1975/12/6 1984/12/6
f 1985/4/6 1986/4/6 1988/4/6
f 1988/4/6 1986/4/6 1989/4/6
f 1987/4/6 1988/4/6 1991/4/6
f 1989/4/6 1990/4/6 1991/4/6
f 1988/4/6 1989/4/6 1991/4/6
f 1991/4/6 1990/4/6 1992/4/6
f 1992/4/6 1990/4/6 1993/4/6
f 1993/4/6 1990/4/6 1994/4/6
f 1992/4/6 1993/4/6 1995/4/6
f 1995/4/6 1993/4/6 1996/4/6
f 1997/4/6 1998/4/6 2001/4/6
f 2001/4/6 1998/4/6 2002/4/6
f 1999/4/6 2000/4/6 2003/4/6
f 2003/4/6 2000/4/6 2004/4/6
f 2005/5/6 2006/5/6 2016/5/6
f 2006/5/6 2007/5/6 2016/5/6
f 2013/5/6 2014/5/6 2016/5/6
f 2012/5/6 2013/5/6 2016/5/6
f 2011/5/6 2012/5/6 2016/5/6
f 2010/5/6 2011/5/6 2016/5/6
f 2009/5/6 2010/5/6 2016/5/6
f 2008/5/6 2009/5/6 2016/5/6
f 2007/5/6 2008/5/6 2016/5/6
f 2016/5/6 2014/5/6 2017/5/6
f 2017/5/6 2014/5/6 2018/5/6
f 2018/5/6 2014/5/6 2019/5/6
f 2019/5/6 2014/5/6 2020/5/6
f 2020/5/6 2014/5/6 2021/5/6
f 2021/5/6 2014/5/6 2022/5/6
f 2022/5/6 2014/5/6 2023/5/6
f 2023/5/6 2014/5/6 2024/5/6
f 2014/4/6 2015/4/6 2025/4/6
f 2024/5/6 2014/5/6 2025/5/6
f 2025/4/6 2015/4/6 2026/4/6
f 2029/4/6 2030/4/6 2031/4/6
f 2031/4/6 2030/4/6 2032/4/6
f 2027/4/6 2028/4/6 2033/4/6
f 2033/4/6 2028/4/6 2034/4/6
f 2035/4/6 2036/4/6 2048/4/6
f 2048/4/6 2036/4/6 2049/4/6
f 2037/10/6 2038/10/6 2051/10/6
f 2051/10/6 2038/10/6 2052/10/6
f 2052/10/6 2038/10/6 2053/10/6
f 2039/10/6 2040/10/6 2054/10/6
f 2054/10/6 2040/10/6 2055/10/6
f 2041/10/6 2042/10/6 2056/10/6
f 2056/10/6 2042/10/6 2057/10/6
f 2043/10/6 2044/10/6 2058/10/6
f 2044/4/6 2045/4/6 2059/4/6
f 2058/10/6 2044/10/6 2059/10/6
f 2045/10/6 2046/10/6 2060/10/6
f 2059/4/6 2045/4/6 2060/4/6
f 2046/4/6 2047/4/6 2061/4/6
f 2060/10/6 2046/10/6 2061/10/6
f 2061/4/6 2047/4/6 2062/4/6
f 2050/6/6 2051/6/6 2063/6/6
f 2063/6/6 2051/6/6 2064/6/6
f 2064/10/6 2065/10/6 2076/10/6
f 2065/10/6 2066/10/6 2076/10/6
f 2076/10/6 2066/10/6 2077/10/6
f 2067/10/6 2068/10/6 2078/10/6
f 2078/10/6 2068/10/6 2079/10/6
f 2069/10/6 2070/10/6 2080/10/6
f 2080/10/6 2070/10/6 2081/10/6
f 2071/10/6 2072/10/6 2082/10/6
f 2082/10/6 2072/10/6 2083/10/6
f 2073/10/6 2074/10/6 2084/10/6
f 2074/4/6 2075/4/6 2085/4/6
f 2084/10/6 2074/10/6 2085/10/6
f 2085/4/6 2075/4/6 2086/4/6
f 2087/4/6 2088/4/6 2089/4/6
f 2089/4/6 2088/4/6 2090/4/6
f 2091/3/6 2092/3/6 2099/3/6
f 2092/2/6 2093/2/6 2100/2/6
f 2099/3/6 2092/3/6 2100/3/6
f 2093/3/6 2094/3/6 2101/3/6
f 2100/2/6 2093/2/6 2101/2/6
f 2094/2/6 2095/2/6 2102/2/6
f 2101/3/6 2094/3/6 2102/3/6
f 2095/3/6 2096/3/6 2103/3/6
f 2102/2/6 2095/2/6 2103/2/6
f 2096/2/6 2097/2/6 2104/2/6
f 2103/3/6 2096/3/6 2104/3/6
f 2097/3/6 2098/3/6 2105/3/6
f 2104/2/6 2097/2/6 2105/2/6
f 2105/3/6 2098/3/6 2106/3/6
f 2107/4/6 2108/4/6 2109/4/6
f 2109/4/6 2108/4/6 2110/4/6
f 2111/4/6 2112/4/6 2113/4/6
f 2113/4/6 2112/4/6 2114/4/6
f 2115/4/6 2116/4/6 2121/4/6
f 2121/4/6 2116/4/6 2122/4/6
f 2117/4/6 2118/4/6 2123/4/6
f 2123/4/6 2118/4/6 2124/4/6
f 2119/4/6 2120/4/6 2137/4/6
f 2137/4/6 2120/4/6 2138/4/6
f 2124/4/6 2125/4/6 2139/4/6
f 2125/12/6 2126/12/6 2140/12/6
f 2139/4/6 2125/4/6 2140/4/6
f 2140/12/6 2126/12/6 2141/12/6
f 2127/13/6 2128/13/6 2142/13/6
f 2128/11/6 2129/11/6 2143/11/6
f 2142/13/6 2128/13/6 2143/13/6
f 2143/11/6 2129/11/6 2144/11/6
f 2144/11/6 2129/11/6 2145/11/6
f 2130/11/6 2131/11/6 2146/11/6
f 2146/11/6 2131/11/6 2147/11/6
f 2132/11/6 2133/11/6 2148/11/6
f 2148/11/6 2133/11/6 2149/11/6
f 2134/11/6 2135/11/6 2150/11/6
f 2150/11/6 2135/11/6 2151/11/6
f 2135/4/6 2136/4/6 2152/4/6
f 2151/11/6 2135/11/6 2152/11/6
f 2136/11/6 2137/11/6 2153/11/6
f 2152/4/6 2136/4/6 2153/4/6
f 2153/11/6 2137/11/6 2154/11/6
f 2155/6/6 2156/6/6 2168/6/6
f 2165/3/6 2166/3/6 2169/3/6
f 2168/6/6 2156/6/6 2169/6/6
f 2166/3/6 2167/3/6 2169/3/6
f 2164/3/6 2165/3/6 2169/3/6
f 2163/3/6 2164/3/6 2169/3/6
f 2162/3/6 2163/3/6 2169/3/6
f 2161/3/6 2162/3/6 2169/3/6
f 2160/3/6 2161/3/6 2169/3/6
f 2159/3/6 2160/3/6 2169/3/6
f 2158/3/6 2159/3/6 2169/3/6
f 2157/3/6 2158/3/6 2169/3/6
f 2156/3/6 2157/3/6 2169/3/6
f 2169/3/6 2167/3/6 2170/3/6
f 2170/3/6 2167/3/6 2171/3/6
f 2171/3/6 2167/3/6 2172/3/6
f 2172/3/6 2167/3/6 2173/3/6
f 2173/3/6 2167/3/6 2174/3/6
f 2174/3/6 2167/3/6 2175/3/6
f 2175/3/6 2167/3/6 2176/3/6
f 2176/3/6 2167/3/6 2177/3/6
f 2177/3/6 2167/3/6 2178/3/6
f 2178/3/6 2167/3/6 2179/3/6
f 2179/3/6 2167/3/6 2180/3/6
f 2181/13/6 2182/13/6 2194/13/6
f 2182/11/6 2183/11/6 2195/11/6
f 2194/13/6 2182/13/6 2195/13/6
f 2183/11/6 2184/11/6 2195/11/6
f 2195/11/6 2184/11/6 2196/11/6
f 2185/11/6 2186/11/6 2197/11/6
f 2197/11/6 2186/11/6 2198/11/6
f 2187/11/6 2188/11/6 2199/11/6
f 2199/11/6 2188/11/6 2200/11/6
f 2190/11/6 2191/11/6 2201/11/6
f 2189/11/6 2190/11/6 2201/11/6
f 2201/11/6 2191/11/6 2202/11/6
f 2192/11/6 2193/11/6 2203/11/6
f 2203/11/6 2193/11/6 2204/11/6
f 2204/4/6 2205/4/6 2209/4/6
f 2209/4/6 2205/4/6 2210/4/6
f 2206/4/6 2207/4/6 2214/4/6
f 2207/12/6 2208/12/6 2215/12/6
f 2214/4/6 2207/4/6 2215/4/6
f 2215/12/6 2208/12/6 2216/12/6
f 2211/4/6 2212/4/6 2217/4/6
f 2217/4/6 2212/4/6 2218/4/6
f 2213/4/6 2214/4/6 2219/4/6
f 2219/4/6 2214/4/6 2220/4/6
f 2221/4/6 2222/4/6 2224/4/6
f 2224/4/6 2222/4/6 2225/4/6
f 2223/4/6 2224/4/6 2228/4/6
f 2225/4/6 2226/4/6 2228/4/6
f 2224/4/6 2225/4/6 2228/4/6
f 2228/4/6 2226/4/6 2229/4/6
f 2229/4/6 2226/4/6 2230/4/6
f 2230/4/6 2226/4/6 2231/4/6
f 2227/4/6 2228/4/6 2245/4/6
f 2245/4/6 2228/4/6 2246/4/6
f 2231/4/6 2232/4/6 2247/4/6
f 2232/12/6 2233/12/6 2248/12/6
f 2247/4/6 2232/4/6 2248/4/6
f 2248/12/6 2233/12/6 2249/12/6
f 2234/1/6 2235/1/6 2250/1/6
f 2250/1/6 2235/1/6 2251/1/6
f 2235/5/6 2236/5/6 2252/5/6
f 2251/1/6 2235/1/6 2252/1/6
f 2252/5/6 2236/5/6 2253/5/6
f 2237/5/6 2238/5/6 2254/5/6
f 2254/5/6 2238/5/6 2255/5/6
f 2255/5/6 2238/5/6 2256/5/6
f 2256/5/6 2238/5/6 2257/5/6
f 2239/5/6 2240/5/6 2258/5/6
f 2258/5/6 2240/5/6 2259/5/6
f 2241/5/6 2242/5/6 2260/5/6
f 2242/1/6 2243/1/6 2261/1/6
f 2260/5/6 2242/5/6 2261/5/6
f 2243/4/6 2244/4/6 2262/4/6
f 2261/1/6 2243/1/6 2262/1/6
f 2244/5/6 2245/5/6 2263/5/6
f 2262/4/6 2244/4/6 2263/4/6
f 2263/5/6 2245/5/6 2264/5/6
f 2265/1/6 2266/1/6 2280/1/6
f 2266/1/6 2267/1/6 2280/1/6
f 2267/5/6 2268/5/6 2281/5/6
f 2280/1/6 2267/1/6 2281/1/6
f 2281/5/6 2268/5/6 2282/5/6
f 2269/5/6 2270/5/6 2283/5/6
f 2270/5/6 2271/5/6 2283/5/6
f 2271/5/6 2272/5/6 2283/5/6
f 2283/5/6 2272/5/6 2284/5/6
f 2273/5/6 2274/5/6 2285/5/6
f 2285/5/6 2274/5/6 2286/5/6
f 2275/5/6 2276/5/6 2287/5/6
f 2276/1/6 2277/1/6 2288/1/6
f 2287/5/6 2276/5/6 2288/5/6
f 2288/1/6 2277/1/6 2289/1/6
f 2278/5/6 2279/5/6 2290/5/6
f 2290/5/6 2279/5/6 2291/5/6
f 2291/4/6 2292/4/6 2296/4/6
f 2296/4/6 2292/4/6 2297/4/6
f 2293/4/6 2294/4/6 2300/4/6
f 2294/12/6 2295/12/6 2301/12/6
f 2300/4/6 2294/4/6 2301/4/6
f 2301/12/6 2295/12/6 2302/12/6
f 2299/4/6 2300/4/6 2303/4/6
f 2298/4/6 2299/4/6 2303/4/6
f 2297/4/6 2298/4/6 2303/4/6
f 2303/4/6 2300/4/6 2304/4/6
f 2304/4/6 2300/4/6 2305/4/6
f 2305/4/6 2300/4/6 2306/4/6
f 2304/4/6 2305/4/6 2307/4/6
f 2307/4/6 2305/4/6 2308/4/6
f 2309/4/6 2310/4/6 2314/4/6
f 2310/1/6 2311/1/6 2315/1/6
f 2314/4/6 2310/4/6 2315/4/6
f 2311/4/6 2312/4/6 2316/4/6
f 2315/1/6 2311/1/6 2316/1/6
f 2316/4/6 2312/4/6 2317/4/6
f 2313/4/6 2314/4/6 2326/4/6
f 2320/1/6 2321/1/6 2327/1/6
f 2321/4/6 2322/4/6 2328/4/6
f 2327/1/6 2321/1/6 2328/1/6
f 2322/1/6 2323/1/6 2329/1/6
f 2328/4/6 2322/4/6 2329/4/6
f 2323/4/6 2324/4/6 2330/4/6
f 2329/1/6 2323/1/6 2330/1/6
f 2324/1/6 2325/1/6 2331/1/6
f 2330/4/6 2324/4/6 2331/4/6
f 2325/4/6 2326/4/6 2332/4/6
f 2331/1/6 2325/1/6 2332/1/6
f 2326/4/6 2314/4/6 2333/4/6
f 2332/4/6 2326/4/6 2333/4/6
f 2333/4/6 2314/4/6 2334/4/6
f 2334/4/6 2314/4/6 2335/4/6
f 2317/4/6 2318/4/6 2338/4/6
f 2318/12/6 2319/12/6 2339/12/6
f 2338/4/6 2318/4/6 2339/4/6
f 2339/12/6 2319/12/6 2340/12/6
f 2335/4/6 2336/4/6 2341/4/6
f 2336/1/6 2337/1/6 2342/1/6
f 2341/4/6 2336/4/6 2342/4/6
f 2337/4/6 2338/4/6 2343/4/6
f 2342/1/6 2337/1/6 2343/1/6
f 2343/4/6 2338/4/6 2344/4/6
f 2345/4/6 2346/4/6 2347/4/6
f 2347/4/6 2346/4/6 2348/4/6
